<svg xmlns="http://www.w3.org/2000/svg" viewBox="0 0 675.35 435.52"><rect x="153.24" y="326.19" width="7.99" height="14.44" style="fill:#8c4dfb"/><rect x="162.2" y="316.36" width="7.99" height="24.27" style="fill:#ffff5c"/><rect x="171.16" y="320.99" width="7.99" height="19.64" style="fill:#00cc70"/><rect x="62.6" y="272.45" width="7.99" height="68.18" style="fill:#8c4dfb"/><rect x="71.56" y="257.72" width="7.99" height="82.91" style="fill:#ffff5c"/><rect x="80.52" y="260.03" width="7.99" height="80.6" style="fill:#00cc70"/><rect x="334.53" y="177.99" width="7.99" height="162.64" style="fill:#8c4dfb"/><rect x="343.49" y="172.21" width="7.99" height="168.42" style="fill:#ffff5c"/><rect x="352.45" y="121.65" width="7.99" height="218.98" style="fill:#00cc70"/><rect x="561.14" y="195.9" width="7.99" height="144.73" style="fill:#8c4dfb"/><rect x="570.1" y="167.59" width="7.99" height="173.04" style="fill:#ffff5c"/><rect x="579.06" y="131.47" width="7.99" height="209.16" style="fill:#00cc70"/><rect x="515.82" y="177.12" width="7.99" height="163.51" style="fill:#8c4dfb"/><rect x="524.78" y="149.39" width="7.99" height="191.24" style="fill:#ffff5c"/><rect x="533.73" y="113.56" width="7.99" height="227.07" style="fill:#00cc70"/><rect x="425.17" y="291.52" width="7.99" height="49.11" style="fill:#8c4dfb"/><rect x="434.13" y="281.99" width="7.99" height="58.64" style="fill:#ffff5c"/><rect x="443.09" y="268.99" width="7.99" height="71.64" style="fill:#00cc70"/><rect x="289.21" y="282.85" width="7.99" height="57.78" style="fill:#8c4dfb"/><rect x="298.17" y="269.85" width="7.99" height="70.78" style="fill:#ffff5c"/><rect x="307.12" y="259.74" width="7.99" height="80.89" style="fill:#00cc70"/><rect x="606.46" y="318.67" width="7.99" height="21.96" style="fill:#8c4dfb"/><rect x="615.42" y="316.65" width="7.99" height="23.98" style="fill:#ffff5c"/><rect x="624.38" y="312.61" width="7.99" height="28.02" style="fill:#00cc70"/><rect x="470.5" y="167.87" width="7.99" height="172.76" style="fill:#8c4dfb"/><rect x="479.45" y="154.3" width="7.99" height="186.33" style="fill:#ffff5c"/><rect x="488.41" y="121.07" width="7.99" height="219.56" style="fill:#00cc70"/><rect x="107.92" y="167.59" width="7.99" height="173.04" style="fill:#8c4dfb"/><rect x="116.88" y="177.41" width="7.99" height="163.22" style="fill:#ffff5c"/><rect x="125.84" y="108.07" width="7.99" height="232.56" style="fill:#00cc70"/><rect x="198.56" y="247.32" width="7.99" height="93.31" style="fill:#8c4dfb"/><rect x="207.52" y="238.94" width="7.99" height="101.69" style="fill:#ffff5c"/><rect x="216.48" y="208.32" width="7.99" height="132.31" style="fill:#00cc70"/><rect x="243.89" y="236.34" width="7.99" height="104.29" style="fill:#8c4dfb"/><rect x="252.84" y="223.92" width="7.99" height="116.71" style="fill:#ffff5c"/><rect x="261.8" y="188.96" width="7.99" height="151.67" style="fill:#00cc70"/><rect x="379.85" y="281.12" width="7.99" height="59.51" style="fill:#8c4dfb"/><rect x="388.81" y="276.5" width="7.99" height="64.13" style="fill:#ffff5c"/><rect x="397.77" y="257.72" width="7.99" height="82.91" style="fill:#00cc70"/><rect x="44.65" y="340.63" width="606.67" height="1" style="fill:#fff"/><rect x="75.05" y="340.63" width="1" height="6" style="fill:#fff"/><path d="M52.48,374.46a.86.86,0,1,1,1.13-.08A.75.75,0,0,1,52.48,374.46Zm3.3,4.86-.71-.71.92-.92L54.4,376.1l-.84.85-.71-.72,1.76-1.76,2.3,2.3.85-.85.71.71Z" style="fill:#fff"/><path d="M59.17,372.14c-.37-.29-.63-.29-.91,0s-.21.75.28,1.25l.16.16c.5.49.94.59,1.25.28s.29-.52,0-.88l.93-.93a1.68,1.68,0,0,1-.22,2.55,1.83,1.83,0,0,1-2.89,0l-.27-.27a1.83,1.83,0,0,1,0-2.89,1.7,1.7,0,0,1,2.59-.19Z" style="fill:#fff"/><path d="M61.26,371.31l-.47-.48a2.06,2.06,0,0,1,2.9-2.9l.47.47a2.06,2.06,0,0,1-2.9,2.91Zm.49-1.39.42.42c.4.4.84.45,1.16.13s.27-.76-.13-1.15l-.42-.43a.75.75,0,1,0-1,1Z" style="fill:#fff"/><path d="M63,366.11l.93-.93.49.49,0-.05a1.23,1.23,0,0,1,.31-1.43,1.37,1.37,0,0,1,2.14.13l2,1.95-1,1-1.73-1.74c-.39-.38-.72-.42-1-.11a.71.71,0,0,0,.09,1.07l1.73,1.72-1,1Z" style="fill:#fff"/><path d="M70.46,366.71l-.82-.82,2.81-2.81.82.81Z" style="fill:#fff"/><path d="M74.41,360.86a2.09,2.09,0,0,1-3.12.12,3.6,3.6,0,0,1-.92-2.07c-.07-.47-.19-1.44-.21-1.78L71.27,356l.29,2.12a3.12,3.12,0,0,0,.1.53l.07-.06a1.27,1.27,0,0,1,.39-.83,1.69,1.69,0,0,1,2.45.08A2.1,2.1,0,0,1,74.41,360.86Zm-.8-2a.87.87,0,0,0-1.23,1.23.87.87,0,0,0,1.23-1.23Z" style="fill:#fff"/><path d="M77.2,356.53l-1.72,1.72-.75-.75L73.34,354l1-1,1.37,3.43.06.06.71-.7-.91-.91.87-.88.94.93.48-.48.74.74-.46.46.68.68-.93.94Z" style="fill:#fff"/><rect x="120.38" y="340.63" width="1" height="6" style="fill:#fff"/><path d="M84.11,387.55l.94.94,1-1.06.71.72-1,1,1.29,1.3a.37.37,0,0,0,.56,0l.69-.68.7.7-.77.77c-.87.87-1.41.92-2.15.18l-1.27-1.28-.78.77-.71-.71.77-.77-.93-.94Z" style="fill:#fff"/><path d="M91.76,385.94a1.75,1.75,0,0,1-.41,2.33,1.79,1.79,0,0,1-2.78.1l-.5-.5a1.85,1.85,0,0,1,.13-2.76,1.79,1.79,0,0,1,2.66-.06l.49.49-1.87,1.87.18.19a.68.68,0,0,0,1,0,.67.67,0,0,0,.2-.76Zm-2.83.92,1-1a.69.69,0,0,0-1-.08A.68.68,0,0,0,88.93,386.86Z" style="fill:#fff"/><path d="M93.68,384l.44,1.4-1,1L92.54,384l-2.44-.63,1.09-1.09,1.38.5.05-.05-.49-1.39,1-1,.58,2.41,2.43.61-1,1-1.41-.43Z" style="fill:#fff"/><path d="M94.39,377.27l.94.94,1-1.06.71.71-1,1,1.29,1.3a.38.38,0,0,0,.57,0l.68-.68.7.7-.77.77c-.87.87-1.41.91-2.15.18l-1.27-1.28-.78.77-.71-.71.77-.77-.93-.94Z" style="fill:#fff"/><path d="M102.93,376.55l-.93.93-.49-.49-.05.05a1.23,1.23,0,0,1-.31,1.43,1.36,1.36,0,0,1-2.14-.13l-2-1.95,1-1,1.73,1.74c.39.38.72.42,1,.11a.71.71,0,0,0-.1-1.07L99,374.49l1-1Z" style="fill:#fff"/><path d="M104.27,373.91l.83-.83.65.65L103.46,376l-.65-.65.55-.55-1.72-1.71-.6.6-.65-.65,1.52-1.52.78.77.16-.16c-.47-.77-.45-1.27.11-1.82a1.71,1.71,0,0,1,.49-.37l1,1a2,2,0,0,0-.59.41c-.75.75-.82,1.3-.24,1.88Z" style="fill:#fff"/><path d="M108.9,368.81a1.75,1.75,0,0,1-.41,2.33,1.8,1.8,0,0,1-2.79.09l-.5-.5a1.85,1.85,0,0,1,.13-2.75,1.8,1.8,0,0,1,2.67-.06l.48.49-1.87,1.87.19.19a.68.68,0,0,0,1,0,.65.65,0,0,0,.2-.76Zm-2.84.92,1-1a.69.69,0,1,0-1,1Z" style="fill:#fff"/><path d="M108.67,364.61c.81-.8,1.61-.93,2.23-.34l-.89.89a.5.5,0,0,0-.66.13c-.21.22-.26.46-.12.6s.31.11.59-.08l.6-.4c.75-.51,1.28-.52,1.75-.05.65.64.52,1.56-.32,2.4s-1.67,1-2.3.44l.94-.94c.19.14.44.07.69-.18s.28-.47.14-.62-.28-.09-.6.12l-.55.36a1.31,1.31,0,0,1-1.8,0C107.75,366.29,107.87,365.42,108.67,364.61Z" style="fill:#fff"/><path d="M114.83,366.7l-.81-.81,2.81-2.81.81.81Z" style="fill:#fff"/><path d="M118.39,357.58l.5.5c.85.85.93,1.68.25,2.37a1,1,0,0,1-1.39.21l-.06.06,1.53,1.53-1,1-4-4,1-1,.55.55.06-.06a1,1,0,0,1,.2-1.4C116.71,356.65,117.55,356.73,118.39,357.58Zm-2,1.94.54.54a.69.69,0,1,0,1-1l-.53-.53a.69.69,0,1,0-1,1Z" style="fill:#fff"/><path d="M119.6,353.85l1.07-1.07.22,2.36,2.87.58-1.1,1.1-1.93-.4,0,.41.95.94-1,1-4.14-4.14,1-1,2.26,2.26.05-.06Z" style="fill:#fff"/><rect x="165.7" y="340.63" width="1" height="6" style="fill:#fff"/><path d="M140.79,377.89a.87.87,0,1,1,1.12-.08A.74.74,0,0,1,140.79,377.89Zm3.3,4.86-.72-.71.92-.93-1.58-1.58-.84.84-.72-.71,1.77-1.77,2.3,2.3.85-.85.71.72Z" style="fill:#fff"/><path d="M147.48,375.57c-.37-.3-.64-.3-.92,0s-.21.76.29,1.25l.16.16c.49.5.94.6,1.25.29s.28-.53,0-.88l.94-.93A1.68,1.68,0,0,1,149,378a1.83,1.83,0,0,1-2.89,0l-.27-.27a1.82,1.82,0,0,1,0-2.89,1.69,1.69,0,0,1,2.58-.19Z" style="fill:#fff"/><path d="M149.57,374.73l-.48-.47a2.06,2.06,0,0,1,2.91-2.9l.47.47a2.06,2.06,0,0,1-2.9,2.9Zm.48-1.38.43.42c.39.39.84.45,1.16.13a.79.79,0,0,0-.13-1.16l-.43-.42c-.39-.4-.84-.45-1.15-.13S149.66,373,150.05,373.35Z" style="fill:#fff"/><path d="M151.27,369.54l.93-.93.49.49.05-.05a1.26,1.26,0,0,1,.31-1.43,1.37,1.37,0,0,1,2.15.13l2,1.94-1,1-1.74-1.73c-.38-.39-.71-.42-1-.11a.71.71,0,0,0,.1,1.07l1.72,1.72-1,.95Z" style="fill:#fff"/><path d="M158.77,370.13l-.82-.82,2.81-2.81.82.82Z" style="fill:#fff"/><path d="M159.9,364.64l1-1a.75.75,0,0,0,1-.13.79.79,0,0,0,0-1.19.81.81,0,0,0-1.2,0,.79.79,0,0,0-.21.82l-1,1-2.12-2.47,2.58-2.58.78.78-1.8,1.79.84,1,.05-.05a1.32,1.32,0,0,1,.45-1.24,1.68,1.68,0,0,1,2.49.06,2,2,0,0,1-.11,3A1.87,1.87,0,0,1,159.9,364.64Z" style="fill:#fff"/><path d="M164.68,362.16l-.77-.77,1-1-2.24-2.24,0,.05-.29,1.56-.85-.86.29-1.65,1-1,3.14,3.14.92-.93.77.77Z" style="fill:#fff"/><path d="M165.43,353.44c.87-.87,1.92-1,2.62-.3.44.44.57,1.09.48,2.38l-.07,1.21,0,0,1.64-1.64.78.77-3,3-.67-.66.1-2.37c.05-1.09,0-1.45-.23-1.68a.69.69,0,0,0-1,.05.77.77,0,0,0,0,1.12l0,0-.91.91v0A1.89,1.89,0,0,1,165.43,353.44Z" style="fill:#fff"/><rect x="211.02" y="340.63" width="1" height="6" style="fill:#fff"/><path d="M168.23,394.41l.93.93,1.05-1,.72.71-1,1,1.29,1.29a.36.36,0,0,0,.56,0l.68-.69.7.71-.76.76c-.88.87-1.41.92-2.15.18L168.94,397l-.77.78-.72-.71.78-.78-.94-.93Z" style="fill:#fff"/><path d="M175.87,392.8a1.72,1.72,0,0,1-.4,2.32,1.79,1.79,0,0,1-2.79.1l-.5-.5a1.84,1.84,0,0,1,.13-2.75,1.79,1.79,0,0,1,2.66-.06l.49.49-1.87,1.87.19.18a.67.67,0,0,0,1,0,.65.65,0,0,0,.2-.76Zm-2.83.92,1-1c-.35-.35-.74-.39-1-.09A.68.68,0,0,0,173,393.72Z" style="fill:#fff"/><path d="M177.79,390.81l.44,1.41-1,1-.58-2.39-2.44-.62,1.09-1.09,1.39.49.05-.05-.5-1.38,1-1,.58,2.4,2.44.61-1.05,1.05-1.41-.44Z" style="fill:#fff"/><path d="M178.51,384.13l.93.93,1.05-1.05.72.71-1,1,1.29,1.29a.36.36,0,0,0,.56,0l.68-.69.7.7-.76.77c-.88.87-1.41.92-2.15.18l-1.28-1.28-.77.78-.72-.71.78-.78-.94-.93Z" style="fill:#fff"/><path d="M187.05,383.4l-.94.93-.49-.49-.05.06a1.22,1.22,0,0,1-.31,1.42,1.36,1.36,0,0,1-2.14-.12l-2-1.95,1-1,1.73,1.73c.39.39.72.42,1,.11a.7.7,0,0,0-.09-1.06l-1.72-1.73.95-.95Z" style="fill:#fff"/><path d="M188.38,380.77l.83-.83.65.64-2.28,2.29-.65-.65.54-.54L185.76,380l-.6.6-.65-.65,1.52-1.52.77.78L187,379c-.47-.78-.44-1.27.12-1.83a1.62,1.62,0,0,1,.48-.36l1,1a1.93,1.93,0,0,0-.6.42c-.75.74-.82,1.3-.24,1.88Z" style="fill:#fff"/><path d="M193,375.66a1.75,1.75,0,0,1-.41,2.33,1.79,1.79,0,0,1-2.78.1l-.5-.5a1.85,1.85,0,0,1,.12-2.76,1.8,1.8,0,0,1,2.67-.06l.49.49-1.87,1.87.18.19a.68.68,0,0,0,1,0,.67.67,0,0,0,.2-.76Zm-2.83.92,1-.95a.69.69,0,1,0-1,.95Z" style="fill:#fff"/><path d="M192.79,371.47c.81-.81,1.6-.93,2.23-.35l-.9.89c-.18-.14-.43-.09-.66.14s-.25.46-.11.6.3.1.58-.08l.6-.41c.75-.51,1.29-.52,1.76-.05.64.64.52,1.57-.32,2.41s-1.68,1-2.3.43l.93-.93c.2.13.44.07.7-.19s.28-.47.13-.61-.27-.1-.59.12l-.56.36a1.3,1.3,0,0,1-1.79,0C191.87,373.15,192,372.28,192.79,371.47Z" style="fill:#fff"/><path d="M199,373.56l-.82-.82,2.81-2.81.82.82Z" style="fill:#fff"/><path d="M202.51,364.44l.49.49c.85.85.94,1.68.25,2.37a1,1,0,0,1-1.39.21l-.06.06,1.54,1.54-1,1-4-4,1-1,.55.55.06-.06a1,1,0,0,1,.21-1.4C200.82,363.5,201.66,363.59,202.51,364.44Zm-1.95,1.94.53.53a.69.69,0,1,0,1-1l-.54-.54a.69.69,0,1,0-1,1Z" style="fill:#fff"/><path d="M203.71,360.71l1.08-1.08L205,362l2.86.57-1.1,1.11-1.92-.4,0,.4.95.95-1,.95-4.14-4.14,1-1,2.25,2.26,0-.05Z" style="fill:#fff"/><path d="M206.06,360.47c-1.29-1.29-1.45-2.61-.44-3.62s2.32-.84,3.61.45,1.46,2.61.45,3.62S207.36,361.77,206.06,360.47Zm.87-1.06.52-1.8c-.45-.24-.82-.25-1.07,0S206.19,358.63,206.93,359.41Zm1.45-1-.52,1.78c.44.25.81.25,1.06,0S209.11,359.15,208.38,358.38Z" style="fill:#fff"/><path d="M211.71,358.74l-.77-.78,1-1-2.24-2.24-.05.05-.29,1.56-.86-.86.3-1.65,1-1,3.13,3.13.93-.92.77.77Z" style="fill:#fff"/><rect x="256.34" y="340.63" width="1" height="6" style="fill:#fff"/><path d="M214.51,394.41l.94.93,1.05-1,.71.71-1,1,1.3,1.29a.36.36,0,0,0,.56,0l.68-.69.7.71-.77.76c-.87.87-1.41.92-2.15.18L215.23,397l-.78.78-.71-.71.78-.78-.94-.93Z" style="fill:#fff"/><path d="M222.16,392.8a1.74,1.74,0,0,1-.41,2.32,1.78,1.78,0,0,1-2.78.1l-.5-.5a1.84,1.84,0,0,1,.13-2.75,1.79,1.79,0,0,1,2.66-.06l.49.49-1.87,1.87.19.19a.68.68,0,0,0,1,0,.65.65,0,0,0,.2-.76Zm-2.83.92,1-1a.69.69,0,1,0-1,1Z" style="fill:#fff"/><path d="M224.08,390.81l.44,1.41-1,1-.58-2.39-2.44-.62,1.09-1.09,1.38.49.05-.05-.49-1.38,1-1,.58,2.4,2.44.61-1.05,1.05-1.41-.44Z" style="fill:#fff"/><path d="M224.79,384.13l.94.93,1.05-1.05.71.71-1,1,1.3,1.29a.36.36,0,0,0,.56,0l.68-.69.7.7-.77.77c-.87.87-1.41.92-2.15.18l-1.27-1.28-.78.78-.71-.71.78-.78-.94-.93Z" style="fill:#fff"/><path d="M233.33,383.4l-.93.93-.49-.49,0,.06a1.23,1.23,0,0,1-.31,1.43,1.37,1.37,0,0,1-2.14-.13l-1.95-1.95,1-1,1.73,1.73c.39.39.72.42,1,.11a.7.7,0,0,0-.09-1.06l-1.73-1.73,1-.95Z" style="fill:#fff"/><path d="M234.67,380.77l.83-.83.65.64-2.29,2.29-.65-.65.55-.54L232.05,380l-.61.6-.65-.65,1.53-1.52.77.78.16-.16c-.47-.78-.44-1.27.11-1.83a1.79,1.79,0,0,1,.49-.36l1,1a2,2,0,0,0-.59.42c-.75.74-.82,1.3-.24,1.88Z" style="fill:#fff"/><path d="M239.3,375.66a1.75,1.75,0,0,1-.41,2.33,1.8,1.8,0,0,1-2.79.1l-.49-.5a1.85,1.85,0,0,1,.12-2.76,1.8,1.8,0,0,1,2.67-.06l.48.49L237,377.13l.19.19a.67.67,0,0,0,1,0,.66.66,0,0,0,.2-.76Zm-2.84.92,1-.95c-.35-.35-.73-.39-1-.09A.67.67,0,0,0,236.46,376.58Z" style="fill:#fff"/><path d="M239.08,371.47c.8-.81,1.6-.93,2.22-.35l-.89.89c-.18-.14-.44-.09-.66.14s-.26.46-.12.6.31.1.59-.08l.6-.41c.75-.51,1.28-.52,1.75-.05.65.64.52,1.57-.32,2.41s-1.67,1-2.29.43l.93-.93c.19.13.44.07.69-.19s.29-.47.14-.61-.27-.1-.6.12l-.55.36a1.32,1.32,0,0,1-1.8,0C238.15,373.15,238.27,372.28,239.08,371.47Z" style="fill:#fff"/><path d="M245.23,373.56l-.81-.82,2.81-2.81.82.82Z" style="fill:#fff"/><path d="M248.79,364.44l.5.49c.85.85.93,1.68.25,2.37a1,1,0,0,1-1.39.21l-.06.06,1.53,1.54-1,1-4-4,1-1,.55.55.06-.06a1,1,0,0,1,.2-1.4C247.11,363.5,248,363.59,248.79,364.44Zm-1.95,1.94.54.53a.68.68,0,1,0,1-1l-.53-.54a.69.69,0,1,0-1,1Z" style="fill:#fff"/><path d="M250,360.71l1.07-1.08.22,2.37,2.87.57-1.1,1.11-1.92-.4,0,.4,1,.95-1,.95L247,361.44l1-1,2.26,2.26.05-.05Z" style="fill:#fff"/><path d="M252.35,360.47c-1.29-1.29-1.45-2.61-.45-3.62s2.33-.84,3.62.45,1.46,2.62.45,3.62S253.65,361.77,252.35,360.47Zm.87-1.06.51-1.8c-.44-.24-.81-.25-1.06,0S252.48,358.63,253.22,359.41Zm1.44-1-.51,1.78c.44.25.8.25,1.06,0S255.4,359.15,254.66,358.38Z" style="fill:#fff"/><path d="M255.32,353.44c.88-.87,1.93-1,2.62-.3.44.44.57,1.09.49,2.38l-.08,1.21,0,0,1.65-1.64.77.77-3,3-.66-.66.1-2.37c0-1.09,0-1.44-.24-1.68a.67.67,0,0,0-1,.05.76.76,0,0,0,0,1.12l0,0-.91.91,0,0A1.9,1.9,0,0,1,255.32,353.44Z" style="fill:#fff"/><rect x="301.66" y="340.63" width="1" height="6" style="fill:#fff"/><path d="M251.45,402.31c.81-.81,1.61-.93,2.23-.35l-.89.9c-.19-.15-.44-.09-.67.13s-.25.46-.11.6.31.1.58-.08l.6-.41c.75-.51,1.29-.52,1.76-.05.64.64.52,1.57-.32,2.41s-1.67,1-2.3.43l.93-.93c.2.13.44.07.7-.19s.28-.47.14-.61-.28-.1-.6.12l-.55.36a1.32,1.32,0,0,1-1.8,0C250.53,404,250.64,403.12,251.45,402.31Z" style="fill:#fff"/><path d="M256.6,399.55c-.37-.29-.63-.29-.91,0s-.22.75.28,1.25l.16.16c.5.5.94.6,1.25.29a.58.58,0,0,0,0-.88l.93-.94a1.67,1.67,0,0,1-.22,2.55,1.82,1.82,0,0,1-2.89,0l-.27-.27a1.83,1.83,0,0,1,0-2.89,1.7,1.7,0,0,1,2.59-.19Z" style="fill:#fff"/><path d="M260.75,397.9l.83-.83.65.65L260,400l-.65-.65.54-.55-1.71-1.71-.6.6-.65-.65,1.52-1.53.77.78.16-.16a1.27,1.27,0,0,1,.12-1.83,1.82,1.82,0,0,1,.48-.36l1,1a2.11,2.11,0,0,0-.6.42c-.75.75-.82,1.3-.24,1.88Z" style="fill:#fff"/><path d="M265.38,392.8a1.74,1.74,0,0,1-.41,2.32,1.78,1.78,0,0,1-2.78.1l-.5-.5a1.84,1.84,0,0,1,.12-2.75,1.79,1.79,0,0,1,2.67-.06l.49.49-1.87,1.87.18.18a.67.67,0,0,0,1,0,.66.66,0,0,0,.21-.76Zm-2.83.92.95-1a.67.67,0,0,0-1-.09A.69.69,0,0,0,262.55,393.72Z" style="fill:#fff"/><path d="M268.81,389.37a1.75,1.75,0,0,1-.41,2.33,1.8,1.8,0,0,1-2.79.09l-.5-.5a1.85,1.85,0,0,1,.13-2.75,1.8,1.8,0,0,1,2.67-.06l.48.49-1.87,1.87.19.19a.68.68,0,0,0,1,0,.65.65,0,0,0,.2-.76Zm-2.84.92,1-1a.69.69,0,1,0-1,1Z" style="fill:#fff"/><path d="M267.25,386.67l.93-.93.49.49.05-.05a1.23,1.23,0,0,1,.31-1.43,1.38,1.38,0,0,1,2.15.13l1.94,1.95-.95,1-1.74-1.74c-.38-.38-.72-.42-1-.11a.71.71,0,0,0,.1,1.07l1.72,1.72-1,1Z" style="fill:#fff"/><path d="M272,381.75c.81-.81,1.61-.93,2.23-.35l-.89.89c-.18-.14-.44-.09-.66.14s-.26.46-.12.6.31.1.58-.08l.6-.41c.76-.51,1.29-.52,1.76-.05.64.64.52,1.57-.32,2.41s-1.67,1-2.3.43l.94-.93c.19.13.43.07.69-.19s.28-.47.14-.61-.28-.1-.6.12l-.55.36a1.32,1.32,0,0,1-1.8,0C271.09,383.43,271.2,382.56,272,381.75Z" style="fill:#fff"/><path d="M273,378.71l.93-.94,1.63,1.63.06,0a1.26,1.26,0,0,1,.33-1.45,1.38,1.38,0,0,1,2.15.12L280,380l-1,1-1.72-1.72c-.38-.38-.73-.41-1-.1a.72.72,0,0,0,.07,1.1l1.71,1.7-1,1Z" style="fill:#fff"/><path d="M279.25,378.16l-.47-.48a2.06,2.06,0,0,1,2.9-2.9l.48.48a2.06,2.06,0,0,1-2.91,2.9Zm.49-1.39.43.43c.39.39.84.44,1.15.12s.27-.76-.13-1.15l-.42-.43a.78.78,0,0,0-1.16-.12C279.3,375.93,279.35,376.38,279.74,376.77Z" style="fill:#fff"/><path d="M281.72,370.42l.93.93,1.06-1.05.71.71-1,1,1.29,1.29a.36.36,0,0,0,.56,0l.68-.69.71.71-.77.76c-.87.88-1.41.92-2.15.18L282.43,373l-.77.77-.71-.71.77-.78-.93-.93Z" style="fill:#fff"/><path d="M288.45,373.56l-.82-.82,2.81-2.81.82.82Z" style="fill:#fff"/><path d="M291,369.45l.93-.94c.21.13.5,0,.79-.25s.38-.7.07-1l-.67-.66-.06.06a1.18,1.18,0,0,1-.28,1.48c-.7.69-1.55.61-2.39-.23l-.41-.41c-.85-.85-.91-1.7-.17-2.44a1.14,1.14,0,0,1,1.44-.26l.06-.06-.54-.54.94-.94,3,3c.7.7.55,1.73-.38,2.66S291.57,370,291,369.45Zm.41-2.52a.68.68,0,0,0,0-1l-.45-.44a.72.72,0,1,0-1,1l.45.45A.67.67,0,0,0,291.38,366.93Z" style="fill:#fff"/><path d="M293.38,364.84c-.55-.55-.46-1.28.27-2.13l.57-.66-.23-.23a.45.45,0,0,0-.68.06.56.56,0,0,0-.16.65l-.93.93c-.53-.64-.37-1.53.42-2.32s1.65-.9,2.33-.23l2,2-.9.9-.37-.37-.09.08a1.26,1.26,0,0,1-.4,1.24A1.25,1.25,0,0,1,293.38,364.84Zm1.53-2.1-.14-.14-.4.47c-.27.32-.31.57-.13.76s.42.14.64-.08A.67.67,0,0,0,294.91,362.74Z" style="fill:#fff"/><path d="M300.69,359.26l-.8.8L297.8,358a.28.28,0,1,0-.39.39l2.09,2.09-.78.78-2.09-2.09a.28.28,0,1,0-.4.4l2.09,2.09-.79.79-3-3,.82-.83.5.5.1-.1a.81.81,0,0,1,0-1.14.77.77,0,0,1,1.05,0l.11-.1a.76.76,0,0,1,0-1.06c.33-.33.77-.28,1.2.15Z" style="fill:#fff"/><path d="M303.08,355.1a1.75,1.75,0,0,1-.41,2.33,1.8,1.8,0,0,1-2.79.09l-.5-.49a1.86,1.86,0,0,1,.13-2.76,1.8,1.8,0,0,1,2.67-.06l.48.49-1.87,1.87.19.19a.67.67,0,0,0,1,0,.65.65,0,0,0,.2-.76Zm-2.84.92,1-1a.69.69,0,1,0-1,1Z" style="fill:#fff"/><rect x="346.99" y="340.63" width="1" height="6" style="fill:#fff"/><path d="M314.05,388.43l.49.49c.85.85.94,1.68.25,2.37a1,1,0,0,1-1.39.21l-.06.06,1.54,1.53-1,1-4-4,1-1,.55.55.06-.06a1,1,0,0,1,.21-1.4C312.37,387.49,313.2,387.58,314.05,388.43Zm-1.95,1.93.53.54a.65.65,0,0,0,1,0,.64.64,0,0,0,0-1l-.54-.54a.65.65,0,0,0-1,0A.64.64,0,0,0,312.1,390.36Z" style="fill:#fff"/><path d="M312.13,385.56l.94-.94,1.63,1.64.05-.06a1.25,1.25,0,0,1,.33-1.44,1.37,1.37,0,0,1,2.15.11l1.94,1.94-1,1-1.72-1.72c-.38-.38-.73-.42-1-.1a.71.71,0,0,0,.07,1.09l1.71,1.71-1,.95Z" style="fill:#fff"/><path d="M318.42,385l-.47-.47a2.06,2.06,0,0,1,2.9-2.9l.48.47a2.06,2.06,0,0,1-2.91,2.9Zm.49-1.38.43.42c.39.39.84.45,1.15.13s.27-.76-.13-1.16l-.42-.42c-.39-.4-.84-.45-1.16-.13S318.52,383.23,318.91,383.63Z" style="fill:#fff"/><path d="M320.89,377.27l.93.94,1.06-1.06.71.71-1,1,1.29,1.3a.36.36,0,0,0,.56,0l.68-.68.71.7L325,381c-.87.87-1.41.92-2.15.18l-1.28-1.28-.77.77-.71-.71.77-.77-.93-.94Z" style="fill:#fff"/><path d="M325.28,378.16l-.48-.47a2.06,2.06,0,0,1,2.91-2.91l.47.48a2.06,2.06,0,0,1-2.9,2.9Zm.48-1.39.43.43a.75.75,0,1,0,1-1l-.43-.43c-.39-.39-.84-.44-1.15-.12S325.37,376.38,325.76,376.77Z" style="fill:#fff"/><path d="M331.05,377l-.82-.82,2.81-2.81.82.82Z" style="fill:#fff"/><path d="M332.39,367.56l1.07-1.07.22,2.36,2.87.58-1.1,1.1-1.93-.4,0,.41.94.94-.95,1-4.14-4.15,1-1,2.26,2.25.05,0Z" style="fill:#fff"/><path d="M335.56,367.88l-.48-.48a2.06,2.06,0,0,1,2.91-2.9l.47.48a2.06,2.06,0,0,1-2.9,2.9Zm.48-1.39.43.43a.78.78,0,0,0,1.16.12c.31-.31.26-.76-.13-1.15l-.43-.43c-.39-.39-.84-.44-1.15-.12S335.65,366.1,336,366.49Z" style="fill:#fff"/><path d="M338.94,364.51l-.49-.49c-.85-.85-.94-1.69-.25-2.37a1,1,0,0,1,1.39-.21l.06-.06L338,359.71l1-1,4.15,4.14-1,1-.55-.55-.06.06a1,1,0,0,1-.21,1.4C340.62,365.45,339.79,365.36,338.94,364.51Zm1.95-1.94-.54-.53a.64.64,0,0,0-1-.05.65.65,0,0,0,0,1l.54.54a.64.64,0,0,0,1,0A.65.65,0,0,0,340.89,362.57Z" style="fill:#fff"/><path d="M342.83,361.41c-.55-.55-.46-1.28.27-2.12l.57-.67-.22-.22a.46.46,0,0,0-.69.06.55.55,0,0,0-.16.64l-.93.93c-.53-.64-.37-1.52.42-2.31s1.65-.91,2.33-.23l2,2-.9.91-.37-.38-.09.08a1.37,1.37,0,0,1-2.26,1.28Zm1.53-2.1-.14-.14-.4.47c-.27.32-.31.58-.12.76s.41.14.63-.08A.67.67,0,0,0,344.36,359.31Z" style="fill:#fff"/><path d="M346.1,353.85l1.07-1.07.22,2.36,2.86.58-1.1,1.1-1.92-.4,0,.41.94.94-.95,1-4.15-4.14,1-1,2.25,2.26.06-.06Z" style="fill:#fff"/><rect x="392.31" y="340.63" width="1" height="6" style="fill:#fff"/><path d="M341.52,401.26l.93.93,1.06-1.05.71.71-1,1,1.29,1.29a.36.36,0,0,0,.56,0l.69-.68.7.7-.77.77c-.87.87-1.41.91-2.15.17l-1.27-1.27-.78.77-.71-.71.77-.77-.93-.94Z" style="fill:#fff"/><path d="M349.17,399.65a1.75,1.75,0,0,1-.41,2.33,1.79,1.79,0,0,1-2.78.09l-.5-.49a1.85,1.85,0,0,1,.13-2.76,1.79,1.79,0,0,1,2.66-.06l.49.49-1.87,1.87.18.19a.68.68,0,0,0,1,0,.66.66,0,0,0,.2-.76Zm-2.83.92,1-1a.68.68,0,0,0-1-.09A.69.69,0,0,0,346.34,400.57Z" style="fill:#fff"/><path d="M351.09,397.66l.44,1.41-1,1-.58-2.38-2.44-.63L348.6,396l1.38.5,0-.05-.49-1.39,1-1,.58,2.41,2.43.6-1,1.05-1.4-.44Z" style="fill:#fff"/><path d="M351.8,391l.94.93,1.05-1.05.71.71-1,1,1.29,1.29a.36.36,0,0,0,.56,0l.69-.68.7.7-.77.76c-.87.88-1.41.92-2.15.18l-1.27-1.27-.78.77-.71-.71.77-.77-.93-.94Z" style="fill:#fff"/><path d="M360.34,390.26l-.93.93-.49-.49-.05.05a1.23,1.23,0,0,1-.31,1.43,1.38,1.38,0,0,1-2.15-.13l-1.94-1.95,1-1,1.73,1.74c.38.38.72.42,1,.1s.26-.7-.1-1.06l-1.72-1.72,1-1Z" style="fill:#fff"/><path d="M361.68,387.62l.83-.83.65.65-2.29,2.29-.65-.65.55-.55-1.72-1.71-.6.6-.65-.65,1.52-1.53.78.78.16-.16c-.48-.77-.45-1.27.11-1.83a1.65,1.65,0,0,1,.49-.36l1,1a2.07,2.07,0,0,0-.59.42c-.75.75-.82,1.3-.24,1.88Z" style="fill:#fff"/><path d="M366.3,382.52a1.73,1.73,0,0,1-.41,2.32,1.78,1.78,0,0,1-2.78.1l-.5-.5a1.84,1.84,0,0,1,.13-2.75,1.78,1.78,0,0,1,2.66-.06l.49.48L364,384l.19.18a.67.67,0,0,0,1,0,.65.65,0,0,0,.2-.76Zm-2.83.92,1-1c-.35-.35-.74-.39-1-.09A.68.68,0,0,0,363.47,383.44Z" style="fill:#fff"/><path d="M366.08,378.32c.81-.81,1.61-.93,2.23-.35l-.89.9c-.18-.15-.44-.09-.66.13s-.26.46-.12.6.31.1.59-.08l.59-.4c.76-.51,1.29-.53,1.76-.06.64.65.52,1.57-.32,2.41s-1.67,1-2.3.44l.94-.94c.19.14.44.07.69-.18s.28-.47.14-.62-.28-.1-.6.12l-.55.36a1.31,1.31,0,0,1-1.8,0C365.16,380,365.28,379.13,366.08,378.32Z" style="fill:#fff"/><path d="M372.24,380.41l-.82-.82,2.82-2.81.81.82Z" style="fill:#fff"/><path d="M375.8,371.29l.5.49c.85.85.93,1.69.24,2.38a1,1,0,0,1-1.38.2l-.06.06,1.53,1.54-1,1-4-4,1-1,.56.56.06-.06a1,1,0,0,1,.2-1.41C374.12,370.36,375,370.44,375.8,371.29Zm-1.95,1.94.54.54a.69.69,0,1,0,1-1l-.53-.53a.69.69,0,1,0-1,1Z" style="fill:#fff"/><path d="M378.13,372.47l-.72-.71.91-.91-2.72-2.71-.82.82-.72-.71,1.78-1.78,3.43,3.42.83-.83.72.72Z" style="fill:#fff"/><path d="M380.6,368.26c-.55-.55-.46-1.28.27-2.12l.57-.66-.23-.23a.45.45,0,0,0-.68.06.56.56,0,0,0-.16.65l-.93.92c-.53-.63-.37-1.52.42-2.31s1.65-.91,2.32-.23l2,2-.9.91-.38-.37-.08.08a1.31,1.31,0,0,1-.4,1.24A1.25,1.25,0,0,1,380.6,368.26Zm1.52-2.1L382,366l-.4.47c-.27.32-.31.57-.13.76s.42.13.64-.09A.66.66,0,0,0,382.12,366.16Z" style="fill:#fff"/><path d="M381.88,362.69l.93-.94.49.49.06-.05a1.25,1.25,0,0,1,.3-1.43,1.38,1.38,0,0,1,2.15.13l1.95,1.95-1,1-1.74-1.73c-.38-.39-.71-.42-1-.11s-.26.7.1,1.06l1.72,1.72-1,1Z" style="fill:#fff"/><path d="M386.07,356.71l.93.94,1.06-1.06.71.71-1,1,1.29,1.29a.36.36,0,0,0,.56,0l.69-.68.7.7-.77.77c-.87.87-1.41.91-2.15.17l-1.28-1.27-.77.77-.71-.71.77-.77-.93-.94Z" style="fill:#fff"/><path d="M390.07,354.33c.81-.81,1.61-.93,2.23-.35l-.89.9c-.19-.15-.44-.09-.66.13s-.26.46-.12.6.31.11.58-.08l.6-.4c.76-.51,1.29-.52,1.76-.05.64.64.52,1.56-.32,2.4s-1.67,1-2.3.44l.94-.94c.19.14.44.07.69-.18s.28-.47.14-.62-.28-.09-.6.12l-.55.36a1.31,1.31,0,0,1-1.8,0C389.15,356,389.26,355.14,390.07,354.33Z" style="fill:#fff"/><rect x="437.63" y="340.63" width="1" height="6" style="fill:#fff"/><path d="M421.36,371.29l.49.5c.85.84.94,1.68.25,2.36a1,1,0,0,1-1.39.21l-.06.06,1.54,1.54-1,1-4-4,1-1,.55.56.06-.06A1,1,0,0,1,419,371C419.68,370.36,420.51,370.44,421.36,371.29Zm-1.95,1.94.53.53a.69.69,0,1,0,1-1l-.54-.53a.68.68,0,1,0-1,1Z" style="fill:#fff"/><path d="M420.58,369.54l.94-.93.49.49.05-.05a1.23,1.23,0,0,1,.31-1.43,1.35,1.35,0,0,1,2.14.13l1.95,1.94-1,1-1.73-1.73c-.39-.39-.72-.42-1-.11a.71.71,0,0,0,.09,1.07l1.73,1.72-1,.95Z" style="fill:#fff"/><path d="M427.17,369.45l.93-.94c.21.13.5,0,.79-.25s.38-.7.07-1l-.67-.66-.06.06a1.18,1.18,0,0,1-.28,1.48c-.7.69-1.55.61-2.39-.23l-.41-.41c-.85-.85-.91-1.7-.17-2.44a1.14,1.14,0,0,1,1.44-.26l.06-.06-.54-.54.94-.94,3,3c.7.7.55,1.73-.38,2.66S427.77,370,427.17,369.45Zm.41-2.52a.68.68,0,0,0,0-1l-.45-.44a.72.72,0,1,0-1,1l.45.45A.67.67,0,0,0,427.58,366.93Z" style="fill:#fff"/><path d="M427.23,360.75a.74.74,0,0,1,.09-1.12.74.74,0,1,1,1,1A.74.74,0,0,1,427.23,360.75Zm3.31,4.87-.72-.72.92-.92-1.58-1.58-.84.84-.72-.72,1.77-1.76,2.3,2.3.84-.85.72.71Z" style="fill:#fff"/><path d="M436.89,359.26l-.79.8L434,358a.28.28,0,1,0-.39.39l2.09,2.09-.78.78-2.09-2.09a.28.28,0,1,0-.4.4l2.09,2.09-.79.79-3-3,.82-.83.5.5.1-.1a.81.81,0,0,1,0-1.14.77.77,0,0,1,1.05,0l.11-.1a.76.76,0,0,1,0-1.06c.33-.33.77-.28,1.2.15Z" style="fill:#fff"/><path d="M437.45,359.16l.93-.93c.21.13.51,0,.79-.25s.38-.71.07-1l-.67-.66-.06.05a1.19,1.19,0,0,1-.28,1.49c-.7.69-1.55.61-2.39-.23l-.41-.41c-.85-.85-.91-1.7-.17-2.44a1.14,1.14,0,0,1,1.44-.26l.06-.06-.53-.54.93-.94,3,3c.7.7.55,1.73-.38,2.66S438.05,359.68,437.45,359.16Zm.41-2.51a.68.68,0,0,0,0-1l-.45-.44a.72.72,0,1,0-1,1l.45.45A.68.68,0,0,0,437.86,356.65Z" style="fill:#fff"/><rect x="482.95" y="340.63" width="1" height="6" style="fill:#fff"/><path d="M436.16,397.83l.94.94,1-1.06.71.72-1,1,1.29,1.3a.37.37,0,0,0,.56,0l.69-.68.7.7-.77.77c-.87.87-1.41.92-2.15.18l-1.27-1.28-.78.78-.71-.72.77-.77-.93-.93Z" style="fill:#fff"/><path d="M443.81,396.22a1.75,1.75,0,0,1-.41,2.33,1.79,1.79,0,0,1-2.78.1l-.5-.5a1.85,1.85,0,0,1,.13-2.76,1.79,1.79,0,0,1,2.66-.06l.49.49-1.87,1.87.18.19a.68.68,0,0,0,1,0,.67.67,0,0,0,.2-.76Zm-2.83.92.95-.95a.67.67,0,0,0-1-.09A.68.68,0,0,0,441,397.14Z" style="fill:#fff"/><path d="M445.73,394.24l.44,1.4-1,1-.58-2.38-2.44-.63,1.09-1.09,1.38.5.05-.05-.49-1.39,1-1,.58,2.4,2.43.61-1.05,1-1.4-.43Z" style="fill:#fff"/><path d="M446.44,387.55l.94.94,1.05-1.06.71.72-1,1,1.29,1.3a.37.37,0,0,0,.56,0l.69-.68.7.7-.77.77c-.87.87-1.41.92-2.15.18l-1.27-1.28-.78.77-.71-.71.77-.77-.93-.94Z" style="fill:#fff"/><path d="M455,386.83l-.93.93-.49-.49-.05.05a1.23,1.23,0,0,1-.31,1.43,1.37,1.37,0,0,1-2.15-.13l-1.94-1.95,1-.95,1.73,1.73c.38.38.72.42,1,.11a.71.71,0,0,0-.1-1.07L451,384.77l1-1Z" style="fill:#fff"/><path d="M456.32,384.19l.83-.83.65.65-2.29,2.29-.65-.65.55-.55-1.72-1.71-.6.6-.65-.65,1.52-1.52.78.77.16-.16c-.48-.77-.45-1.27.11-1.82a1.71,1.71,0,0,1,.49-.37l1,1a1.85,1.85,0,0,0-.59.41c-.75.75-.82,1.3-.24,1.88Z" style="fill:#fff"/><path d="M460.94,379.09a1.72,1.72,0,0,1-.41,2.32,1.78,1.78,0,0,1-2.78.1l-.5-.5a1.85,1.85,0,0,1,.13-2.75,1.79,1.79,0,0,1,2.66-.06l.49.49-1.87,1.87.19.19a.68.68,0,0,0,1,0,.65.65,0,0,0,.2-.76Zm-2.83.92,1-1a.69.69,0,1,0-1,1Z" style="fill:#fff"/><path d="M460.72,374.9c.81-.81,1.61-.94,2.23-.35l-.89.89a.5.5,0,0,0-.66.13c-.21.22-.26.46-.12.6s.31.11.59-.08l.59-.4c.76-.51,1.29-.52,1.76-.05.64.64.52,1.56-.32,2.4s-1.67,1-2.3.44l.94-.94c.19.14.44.07.69-.18s.28-.47.14-.62-.28-.09-.6.12l-.55.36a1.3,1.3,0,0,1-1.8,0C459.8,376.57,459.92,375.7,460.72,374.9Z" style="fill:#fff"/><path d="M466.88,377l-.82-.81,2.82-2.81.81.81Z" style="fill:#fff"/><path d="M470.44,367.86l.5.5c.84.85.93,1.68.24,2.37a1,1,0,0,1-1.38.21l-.06.06,1.53,1.53-1,1-4-4,1-1,.56.55.06-.06a1,1,0,0,1,.2-1.4C468.76,366.93,469.59,367,470.44,367.86Zm-1.95,1.94.54.54a.69.69,0,1,0,1-1l-.53-.53a.69.69,0,1,0-1,1Z" style="fill:#fff"/><path d="M468.52,365l.94-.94,1.63,1.63.05-.05a1.26,1.26,0,0,1,.33-1.45,1.39,1.39,0,0,1,2.16.12l1.93,1.94-.95.95-1.72-1.72c-.38-.37-.74-.41-1.05-.09a.72.72,0,0,0,.07,1.09l1.71,1.71-.95.95Z" style="fill:#fff"/><path d="M474.82,364.45l-.48-.47a2.06,2.06,0,0,1,2.91-2.91l.47.48a2.06,2.06,0,0,1-2.9,2.9Zm.49-1.38.42.42a.75.75,0,1,0,1-1l-.43-.42c-.39-.4-.84-.45-1.15-.13S474.91,362.67,475.31,363.07Z" style="fill:#fff"/><path d="M477.28,356.71l.94.93,1-1.05.71.71-1,1,1.3,1.29a.36.36,0,0,0,.56,0l.68-.68.7.7-.77.77c-.87.87-1.41.91-2.15.17L478,359.29l-.78.77-.71-.71.78-.77-.94-.94Z" style="fill:#fff"/><path d="M481.67,357.6l-.47-.48a2.06,2.06,0,0,1,2.9-2.9l.48.47a2.06,2.06,0,0,1-2.91,2.91Zm.49-1.39.42.43c.4.39.84.44,1.16.12s.27-.76-.13-1.15l-.42-.43a.75.75,0,1,0-1,1Z" style="fill:#fff"/><rect x="528.27" y="340.63" width="1" height="6" style="fill:#fff"/><path d="M480.93,402.13l.49.5c.85.85.94,1.68.25,2.37a1,1,0,0,1-1.39.21l-.06.06,1.53,1.53-1,1-4-4,1-1,.55.55.06-.06a1,1,0,0,1,.21-1.4C479.24,401.2,480.08,401.29,480.93,402.13ZM479,404.07l.53.54a.69.69,0,1,0,1-1l-.54-.53a.68.68,0,1,0-1,1Z" style="fill:#fff"/><path d="M479,399.27l.93-.94,1.63,1.63.06,0a1.24,1.24,0,0,1,.33-1.44,1.37,1.37,0,0,1,2.15.11l1.93,1.94-1,1-1.72-1.72q-.57-.57-1.05-.09a.72.72,0,0,0,.08,1.09l1.71,1.71-1,1Z" style="fill:#fff"/><path d="M485.3,398.72l-.47-.47a2.06,2.06,0,0,1,2.9-2.91l.47.48a2.06,2.06,0,0,1-2.9,2.9Zm.49-1.39.42.43c.4.39.84.44,1.16.13s.27-.77-.13-1.16l-.42-.42c-.39-.4-.84-.45-1.16-.13S485.4,396.94,485.79,397.33Z" style="fill:#fff"/><path d="M487.77,391l.93.93,1.05-1.05.72.71-1,1,1.29,1.29a.36.36,0,0,0,.56,0l.68-.68.7.7-.76.76c-.87.88-1.41.92-2.15.18l-1.28-1.27-.77.77-.71-.71.77-.77-.93-.94Z" style="fill:#fff"/><path d="M492.16,391.87l-.48-.48a2.06,2.06,0,0,1,2.9-2.9l.48.47a2.06,2.06,0,0,1-2.9,2.91Zm.48-1.39.43.43c.39.39.84.44,1.15.12s.27-.76-.12-1.15l-.43-.43c-.39-.39-.84-.44-1.15-.13A.78.78,0,0,0,492.64,390.48Z" style="fill:#fff"/><path d="M497.93,390.69l-.82-.81,2.81-2.81.82.81Z" style="fill:#fff"/><path d="M502.87,383.69l-.8.8-2.16-1.5,0,0,1.5,2.17-.8.8L497,383.53l.91-.9,2,1.85.13-.13-1.73-2.14.76-.75,2.14,1.72.13-.13-1.86-2,.91-.91Z" style="fill:#fff"/><path d="M500.51,377.89a.86.86,0,1,1,1.13-.08A.75.75,0,0,1,500.51,377.89Zm3.3,4.86-.71-.71.92-.92-1.59-1.59-.84.84-.71-.71,1.76-1.77,2.3,2.3.85-.85.71.72Z" style="fill:#fff"/><path d="M506.12,374.41l1.07-1.07.22,2.37,2.87.57-1.1,1.11-1.92-.41,0,.41,1,.95-1,1-4.14-4.14.95-1,2.26,2.26.05-.05Z" style="fill:#fff"/><path d="M507.36,371a.86.86,0,1,1,1.13-.08A.75.75,0,0,1,507.36,371Zm3.31,4.86-.72-.72.92-.92-1.58-1.58-.85.84-.71-.72L509.5,371l2.3,2.3.84-.85.72.72Z" style="fill:#fff"/><path d="M515.19,367.86l.5.5c.85.85.93,1.68.25,2.37a1,1,0,0,1-1.39.21l-.06.06,1.53,1.53-1,1-4-4,1-1,.55.55.06-.06a1,1,0,0,1,.2-1.4C513.51,366.93,514.35,367,515.19,367.86Zm-2,1.94.54.54a.69.69,0,1,0,1-1l-.53-.53a.68.68,0,1,0-1,1Z" style="fill:#fff"/><path d="M519.4,365.38a1.73,1.73,0,0,1-.4,2.33,1.8,1.8,0,0,1-2.79.1l-.5-.5a1.86,1.86,0,0,1,.13-2.76,1.79,1.79,0,0,1,2.66-.06l.49.49-1.87,1.87.19.19a.67.67,0,0,0,1,0,.64.64,0,0,0,.2-.75Zm-2.83.92,1-1a.69.69,0,1,0-1,1Z" style="fill:#fff"/><path d="M519.53,364.51,519,364c-.85-.85-.93-1.69-.25-2.37a1,1,0,0,1,1.39-.21l.06-.06-1.66-1.67,1-1,4.14,4.14-1,1-.55-.55-.06.06a1,1,0,0,1-.2,1.4C521.21,365.45,520.37,365.36,519.53,364.51Zm2-1.94-.54-.53a.68.68,0,1,0-1,1l.53.54a.69.69,0,1,0,1-1Z" style="fill:#fff"/><path d="M521.07,357.33a.86.86,0,1,1,1.13-.08A.75.75,0,0,1,521.07,357.33Zm3.3,4.86-.71-.71.92-.93L523,359l-.84.84-.71-.71,1.76-1.77,2.3,2.3.85-.85.71.72Z" style="fill:#fff"/><path d="M526.85,358c-.55-.55-.46-1.28.26-2.12l.57-.66-.22-.23a.46.46,0,0,0-.69.06.58.58,0,0,0-.16.65l-.92.93c-.54-.64-.38-1.53.41-2.32s1.66-.91,2.33-.23l2,2-.91.9-.37-.37-.08.08a1.31,1.31,0,0,1-.4,1.24A1.25,1.25,0,0,1,526.85,358Zm1.52-2.1-.14-.13-.4.47c-.27.32-.31.57-.12.76s.42.13.64-.09A.67.67,0,0,0,528.37,355.88Z" style="fill:#fff"/><rect x="573.59" y="340.63" width="1" height="6" style="fill:#fff"/><path d="M534.24,395.28l.5.49c.84.85.93,1.69.24,2.37a1,1,0,0,1-1.39.21l-.06.06,1.54,1.54-1,1-4-4,1-1,.56.55,0-.05a1,1,0,0,1,.21-1.41C532.56,394.34,533.39,394.43,534.24,395.28Zm-2,1.94.54.53a.64.64,0,0,0,1,.05.65.65,0,0,0,0-1l-.53-.54a.69.69,0,1,0-1,1Z" style="fill:#fff"/><path d="M532.32,392.41l.94-.93,1.63,1.63.05-.05a1.26,1.26,0,0,1,.33-1.45,1.38,1.38,0,0,1,2.15.12l1.94,1.93-1,1-1.72-1.72c-.37-.38-.73-.41-1-.1a.71.71,0,0,0,.07,1.09l1.71,1.71-.95,1Z" style="fill:#fff"/><path d="M538.62,391.87l-.48-.48a2.06,2.06,0,0,1,2.91-2.9l.47.47a2.06,2.06,0,0,1-2.9,2.91Zm.48-1.39.43.42c.39.4.84.45,1.16.13s.26-.76-.13-1.15l-.43-.43c-.39-.39-.84-.44-1.15-.13A.78.78,0,0,0,539.1,390.48Z" style="fill:#fff"/><path d="M541.08,384.13l.94.93,1.05-1.05.71.71-1,1L544,387a.36.36,0,0,0,.56,0l.69-.69.7.7-.77.77c-.87.87-1.41.92-2.15.18l-1.27-1.28-.78.78-.71-.71.77-.78-.93-.93Z" style="fill:#fff"/><path d="M545.47,385l-.47-.47a2.06,2.06,0,0,1,2.9-2.9l.47.47a2.06,2.06,0,0,1-2.9,2.9Zm.49-1.38.42.42c.4.39.84.45,1.16.13s.26-.77-.13-1.16l-.42-.42c-.4-.4-.84-.45-1.16-.13S545.57,383.23,546,383.63Z" style="fill:#fff"/><path d="M551.24,383.84l-.82-.82,2.82-2.81.81.82Z" style="fill:#fff"/><path d="M551.36,373.85l.94.93,1.05-1,.71.71-1,1,1.3,1.29a.36.36,0,0,0,.56,0l.68-.68.7.7-.77.77c-.87.87-1.41.92-2.15.18l-1.27-1.28-.78.78-.71-.72.78-.77-.94-.93Z" style="fill:#fff"/><path d="M559,372.23a1.75,1.75,0,0,1-.41,2.33,1.79,1.79,0,0,1-2.78.1l-.5-.5a1.84,1.84,0,0,1,.13-2.75,1.78,1.78,0,0,1,2.66-.06l.49.48-1.87,1.88.19.18a.67.67,0,0,0,1,0,.65.65,0,0,0,.2-.76Zm-2.83.93,1-1c-.35-.35-.74-.39-1-.09A.68.68,0,0,0,556.18,373.16Z" style="fill:#fff"/><path d="M560.52,368.71c-.38-.29-.64-.29-.92,0s-.21.75.28,1.25l.17.16c.49.5.93.6,1.25.29s.28-.53,0-.88l.93-.94a1.67,1.67,0,0,1-.22,2.55,1.83,1.83,0,0,1-2.89,0l-.27-.27a1.84,1.84,0,0,1,0-2.9,1.69,1.69,0,0,1,2.59-.18Z" style="fill:#fff"/><path d="M560.88,366.11l.93-.93.49.49.06-.05a1.24,1.24,0,0,1,.3-1.43,1.37,1.37,0,0,1,2.15.13l2,1.95-1,1-1.74-1.74c-.38-.38-.71-.42-1-.11a.71.71,0,0,0,.1,1.07l1.72,1.72-1,1Z" style="fill:#fff"/><path d="M564.11,360.75a.86.86,0,1,1,1.12-.08A.73.73,0,0,1,564.11,360.75Zm3.3,4.87-.72-.72.92-.92L566,362.4l-.84.84-.72-.72,1.77-1.76,2.3,2.3.84-.85.72.71Z" style="fill:#fff"/><path d="M570.8,358.43c-.37-.29-.64-.29-.92,0s-.21.75.29,1.25l.16.16c.49.5.93.6,1.25.28s.28-.52,0-.88l.94-.93a1.68,1.68,0,0,1-.23,2.55,1.83,1.83,0,0,1-2.89,0l-.27-.28a1.83,1.83,0,0,1,0-2.89,1.69,1.69,0,0,1,2.59-.18Z" style="fill:#fff"/><path d="M573.14,353.85l1.08-1.07.21,2.36,2.87.58-1.1,1.1-1.92-.4,0,.41,1,.94-1,1-4.14-4.14,1-1,2.25,2.26,0-.06Z" style="fill:#fff"/><rect x="618.92" y="340.63" width="1" height="6" style="fill:#fff"/><path d="M572.7,398.88c.81-.81,1.61-.93,2.23-.35l-.9.9c-.18-.14-.43-.09-.66.14s-.25.45-.11.59.31.11.58-.08l.6-.4c.75-.51,1.29-.52,1.76-.05.64.64.52,1.56-.32,2.4s-1.67,1-2.3.44l.93-.94c.2.14.44.07.7-.18s.28-.47.14-.62-.28-.09-.6.12l-.55.36a1.31,1.31,0,0,1-1.8,0C571.78,400.56,571.89,399.69,572.7,398.88Z" style="fill:#fff"/><path d="M577.85,396.13c-.37-.29-.63-.29-.91,0s-.21.75.28,1.24l.16.17c.5.49.94.59,1.25.28s.29-.52,0-.88l.93-.93a1.68,1.68,0,0,1-.22,2.55,1.83,1.83,0,0,1-2.89,0l-.27-.27a1.83,1.83,0,0,1,0-2.89,1.7,1.7,0,0,1,2.59-.19Z" style="fill:#fff"/><path d="M582,394.47l.83-.83.65.65-2.28,2.29-.65-.65.54-.55-1.71-1.71-.6.6-.65-.65,1.52-1.52.77.77.16-.16c-.47-.77-.44-1.26.12-1.82a2.07,2.07,0,0,1,.48-.37l1,1a2.07,2.07,0,0,0-.6.41c-.75.75-.82,1.3-.24,1.88Z" style="fill:#fff"/><path d="M586.63,389.37a1.75,1.75,0,0,1-.41,2.33,1.79,1.79,0,0,1-2.78.09l-.5-.49a1.85,1.85,0,0,1,.12-2.76,1.8,1.8,0,0,1,2.67-.06l.49.49-1.87,1.87.18.19a.67.67,0,0,0,1,0,.66.66,0,0,0,.21-.76Zm-2.83.92,1-1a.68.68,0,0,0-1-.09A.69.69,0,0,0,583.8,390.29Z" style="fill:#fff"/><path d="M590.06,385.94a1.75,1.75,0,0,1-.41,2.33,1.8,1.8,0,0,1-2.79.1l-.5-.5a1.86,1.86,0,0,1,.13-2.76,1.8,1.8,0,0,1,2.67-.05l.48.48-1.87,1.87.19.19a.67.67,0,0,0,1,0,.65.65,0,0,0,.2-.76Zm-2.84.92,1-.95c-.35-.35-.73-.39-1-.09A.67.67,0,0,0,587.22,386.86Z" style="fill:#fff"/><path d="M588.5,383.25l.93-.93.49.49.05-.06a1.25,1.25,0,0,1,.31-1.43,1.38,1.38,0,0,1,2.15.13l1.94,1.95-1,1-1.73-1.73c-.38-.39-.72-.42-1-.11s-.26.7.1,1.06l1.72,1.73-1,.95Z" style="fill:#fff"/><path d="M593.26,378.32c.81-.81,1.61-.93,2.23-.35l-.89.9c-.18-.15-.44-.09-.66.13s-.26.46-.12.6.31.1.59-.08l.59-.4c.76-.51,1.29-.53,1.76-.05.64.64.52,1.56-.32,2.4s-1.67,1-2.3.44l.94-.94c.19.14.44.07.69-.18s.28-.47.14-.62-.28-.09-.6.12l-.55.36a1.31,1.31,0,0,1-1.8,0C592.34,380,592.45,379.13,593.26,378.32Z" style="fill:#fff"/><path d="M594.21,375.28l.94-.94,1.63,1.63.05-.05a1.24,1.24,0,0,1,.33-1.44,1.37,1.37,0,0,1,2.15.11l1.94,1.94-1,1-1.72-1.71c-.38-.38-.73-.42-1-.1a.71.71,0,0,0,.07,1.09l1.71,1.71-1,.95Z" style="fill:#fff"/><path d="M600.5,374.73l-.47-.47a2.06,2.06,0,0,1,2.9-2.9l.48.47a2.06,2.06,0,0,1-2.91,2.9Zm.49-1.38.43.42c.39.39.84.45,1.15.13s.27-.77-.13-1.16l-.42-.42c-.39-.4-.84-.45-1.16-.13S600.6,373,601,373.35Z" style="fill:#fff"/><path d="M603,367l.93.94,1.06-1.06.71.71-1,1,1.29,1.3a.37.37,0,0,0,.56,0l.68-.68.71.7-.77.77c-.87.87-1.41.92-2.15.18l-1.28-1.28-.77.77-.71-.71.77-.77-.93-.94Z" style="fill:#fff"/><path d="M609.7,370.13l-.82-.82,2.82-2.81.81.82Z" style="fill:#fff"/><path d="M614.65,363.13l-.8.8-2.17-1.5,0,0,1.5,2.16-.8.8L608.78,363l.9-.9,2.05,1.85.13-.13-1.73-2.14.75-.76,2.14,1.73.13-.13-1.85-2,.91-.91Z" style="fill:#fff"/><path d="M617.47,358.53a1.75,1.75,0,0,1-.41,2.33,1.79,1.79,0,0,1-2.78.09l-.5-.5a1.84,1.84,0,0,1,.13-2.75,1.79,1.79,0,0,1,2.66-.06l.49.49L615.19,360l.19.19a.68.68,0,0,0,1,0,.67.67,0,0,0,.2-.76Zm-2.83.92,1-1a.69.69,0,1,0-1,1Z" style="fill:#fff"/><path d="M619.45,357.22l-.06.06.55.56-1,1-4.14-4.15,1-1,1.67,1.67.06-.06a1,1,0,0,1,.21-1.39c.69-.69,1.52-.6,2.37.24l.49.5c.85.85.94,1.68.25,2.37A1,1,0,0,1,619.45,357.22Zm.18-1.59-.54-.53a.65.65,0,0,0-1,0,.64.64,0,0,0,0,1l.53.54a.69.69,0,1,0,1-1Z" style="fill:#fff"/><rect x="44.15" y="81.13" width="1" height="260" style="fill:#fff"/><rect x="38.15" y="340.63" width="6" height="1" style="fill:#fff"/><path d="M30,340.8c0-2.34.95-3.67,2.64-3.67s2.65,1.33,2.65,3.67-.95,3.68-2.65,3.68S30,343.15,30,340.8Zm1.35.18,2.42-1.6c-.2-.72-.58-1.1-1.13-1.1-.83,0-1.29.89-1.29,2.52ZM34,340.8v-.17l-2.43,1.6c.2.72.58,1.1,1.13,1.1C33.52,343.33,34,342.44,34,340.8Z" style="fill:#fff"/><rect x="38.15" y="311.74" width="6" height="1" style="fill:#fff"/><path d="M24.8,315.44v-1.16h1.9v-4.51h-.09L24.79,311v-1.31l1.91-1.27h1.35v5.88h1.8v1.16Z" style="fill:#fff"/><path d="M30.66,311.92c0-2.35.95-3.68,2.64-3.68S36,309.57,36,311.92s-1,3.67-2.65,3.67S30.66,314.26,30.66,311.92Zm1.35.18,2.42-1.61c-.2-.72-.58-1.1-1.13-1.1-.83,0-1.29.89-1.29,2.53Zm2.59-.18v-.18l-2.43,1.61c.2.71.58,1.09,1.13,1.09C34.14,314.44,34.6,313.56,34.6,311.92Z" style="fill:#fff"/><rect x="38.15" y="282.85" width="6" height="1" style="fill:#fff"/><path d="M27.09,279.36c1.46,0,2.44.83,2.44,2.05,0,.77-.41,1.43-1.6,2.57l-1.38,1.32v.09h3.08v1.16h-5v-1L27,283.31c1-1,1.21-1.33,1.21-1.81a1,1,0,0,0-1.12-1,1.09,1.09,0,0,0-1.17,1.14v0H24.59v0A2.28,2.28,0,0,1,27.09,279.36Z" style="fill:#fff"/><path d="M30.66,283c0-2.35.95-3.67,2.64-3.67S36,280.68,36,283s-1,3.67-2.65,3.67S30.66,285.38,30.66,283Zm1.35.18,2.42-1.6c-.2-.73-.58-1.11-1.13-1.11-.83,0-1.29.89-1.29,2.53ZM34.6,283v-.17l-2.43,1.6c.2.72.58,1.09,1.13,1.09C34.14,285.55,34.6,284.67,34.6,283Z" style="fill:#fff"/><rect x="38.15" y="253.96" width="6" height="1" style="fill:#fff"/><path d="M26.26,253.53h.83c.7,0,1.16-.39,1.16-1s-.45-1-1.16-1a1.09,1.09,0,0,0-1.2,1H24.65a2.2,2.2,0,0,1,2.48-2.13c1.44,0,2.41.75,2.41,1.87a1.52,1.52,0,0,1-1.25,1.59V254a1.59,1.59,0,0,1,1.52,1.67c0,1.25-1.08,2.1-2.66,2.1a2.34,2.34,0,0,1-2.63-2.16H25.8c.05.6.56,1,1.32,1s1.31-.39,1.31-1-.52-1-1.33-1h-.84Z" style="fill:#fff"/><path d="M30.66,254.14c0-2.35.95-3.67,2.64-3.67S36,251.79,36,254.14s-1,3.67-2.65,3.67S30.66,256.49,30.66,254.14Zm1.35.18,2.42-1.6c-.2-.73-.58-1.11-1.13-1.11-.83,0-1.29.89-1.29,2.53Zm2.59-.18V254l-2.43,1.6c.2.72.58,1.09,1.13,1.09C34.14,256.66,34.6,255.78,34.6,254.14Z" style="fill:#fff"/><rect x="38.15" y="225.07" width="6" height="1" style="fill:#fff"/><path d="M27.68,227.44H24.53v-1.11l2.14-4.6h1.4L26,226.22v.08h1.72v-1.77H29v1.8h.95v1.11H29v1.33h-1.3Z" style="fill:#fff"/><path d="M30.66,225.25c0-2.35.95-3.67,2.64-3.67S36,222.9,36,225.25s-1,3.67-2.65,3.67S30.66,227.6,30.66,225.25Zm1.35.18,2.42-1.6c-.2-.72-.58-1.11-1.13-1.11-.83,0-1.29.89-1.29,2.53Zm2.59-.18v-.17l-2.43,1.6c.2.72.58,1.09,1.13,1.09C34.14,227.77,34.6,226.89,34.6,225.25Z" style="fill:#fff"/><rect x="38.15" y="196.19" width="6" height="1" style="fill:#fff"/><path d="M24.54,197.88h1.34a1.16,1.16,0,0,0,1.23,1,1.2,1.2,0,0,0,1.27-1.27,1.22,1.22,0,0,0-1.27-1.29,1.27,1.27,0,0,0-1.15.64H24.63l.33-4.07h4.3V194h-3.2l-.16,1.88H26a1.72,1.72,0,0,1,1.5-.69,2.16,2.16,0,0,1,2.2,2.32A2.42,2.42,0,0,1,27.08,200,2.29,2.29,0,0,1,24.54,197.88Z" style="fill:#fff"/><path d="M30.66,196.36c0-2.35.95-3.67,2.64-3.67S36,194,36,196.36,35,200,33.3,200,30.66,198.71,30.66,196.36Zm1.35.18,2.42-1.6c-.2-.72-.58-1.1-1.13-1.1-.83,0-1.29.88-1.29,2.52Zm2.59-.18v-.17l-2.43,1.6c.2.72.58,1.09,1.13,1.09C34.14,198.88,34.6,198,34.6,196.36Z" style="fill:#fff"/><rect x="38.15" y="167.3" width="6" height="1" style="fill:#fff"/><path d="M27.19,171.14a2.52,2.52,0,0,1-2.69-2.59,4.46,4.46,0,0,1,1-2.64c.23-.35,1.3-1.72,1.49-2h1.57l-1.78,2.35a2.61,2.61,0,0,0-.31.49l.09,0a1.56,1.56,0,0,1,1.13-.44,2.16,2.16,0,0,1,2.16,2.27A2.53,2.53,0,0,1,27.19,171.14Zm1.28-2.45a1.3,1.3,0,1,0-1.3,1.27A1.25,1.25,0,0,0,28.47,168.69Z" style="fill:#fff"/><path d="M30.66,167.47c0-2.35.95-3.67,2.64-3.67S36,165.12,36,167.47s-1,3.67-2.65,3.67S30.66,169.82,30.66,167.47Zm1.35.18,2.42-1.6c-.2-.72-.58-1.1-1.13-1.1-.83,0-1.29.89-1.29,2.52Zm2.59-.18v-.17l-2.43,1.6c.2.72.58,1.1,1.13,1.1C34.14,170,34.6,169.11,34.6,167.47Z" style="fill:#fff"/><rect x="38.15" y="138.41" width="6" height="1" style="fill:#fff"/><path d="M28.27,136.3v-.09H24.65v-1.15h5v1.16l-3,5.89H25.23Z" style="fill:#fff"/><path d="M30.66,138.58c0-2.35.95-3.67,2.64-3.67S36,136.23,36,138.58s-1,3.67-2.65,3.67S30.66,140.93,30.66,138.58Zm1.35.18,2.42-1.6c-.2-.72-.58-1.1-1.13-1.1-.83,0-1.29.89-1.29,2.52Zm2.59-.18v-.17L32.17,140c.2.72.58,1.1,1.13,1.1C34.14,141.11,34.6,140.22,34.6,138.58Z" style="fill:#fff"/><rect x="38.15" y="109.52" width="6" height="1" style="fill:#fff"/><path d="M24.35,111.32a1.84,1.84,0,0,1,1.53-1.78v-.09a1.55,1.55,0,0,1-1.25-1.52c0-1.12,1-1.9,2.5-1.9s2.49.78,2.49,1.9a1.54,1.54,0,0,1-1.24,1.52v.09a1.83,1.83,0,0,1,1.52,1.78c0,1.22-1.11,2-2.77,2S24.35,112.54,24.35,111.32Zm4.12-.13c0-.66-.54-1.11-1.34-1.11s-1.34.45-1.34,1.11.54,1.11,1.34,1.11S28.47,111.85,28.47,111.19Zm-.22-3.13a1.14,1.14,0,1,0-1.12,1A1,1,0,0,0,28.25,108.06Z" style="fill:#fff"/><path d="M30.66,109.69c0-2.35.95-3.67,2.64-3.67S36,107.34,36,109.69s-1,3.67-2.65,3.67S30.66,112,30.66,109.69Zm1.35.18,2.42-1.6c-.2-.72-.58-1.1-1.13-1.1-.83,0-1.29.89-1.29,2.52Zm2.59-.18v-.17l-2.43,1.6c.2.72.58,1.1,1.13,1.1C34.14,112.22,34.6,111.33,34.6,109.69Z" style="fill:#fff"/><rect x="38.15" y="80.63" width="6" height="1" style="fill:#fff"/><path d="M27.12,77.14a2.52,2.52,0,0,1,2.69,2.59,4.42,4.42,0,0,1-1,2.64c-.22.35-1.29,1.73-1.48,1.95H25.75L27.52,82a3.34,3.34,0,0,0,.32-.49l-.1,0a1.57,1.57,0,0,1-1.12.43,2.13,2.13,0,0,1-2.16-2.26A2.52,2.52,0,0,1,27.12,77.14Zm-1.28,2.45a1.3,1.3,0,1,0,1.3-1.28A1.26,1.26,0,0,0,25.84,79.59Z" style="fill:#fff"/><path d="M30.66,80.8c0-2.34.95-3.67,2.64-3.67S36,78.46,36,80.8s-1,3.68-2.65,3.68S30.66,83.15,30.66,80.8ZM32,81l2.42-1.6c-.2-.72-.58-1.1-1.13-1.1-.83,0-1.29.89-1.29,2.52Zm2.59-.18v-.17l-2.43,1.6c.2.72.58,1.1,1.13,1.1C34.14,83.33,34.6,82.44,34.6,80.8Z" style="fill:#fff"/><path d="M27.35,41.76a6,6,0,0,1,0-8.67,7.16,7.16,0,0,1,5-1.68,5.21,5.21,0,0,1,3.36,1.15l1.11-1a.47.47,0,0,1,.32-.15c.13,0,.22,0,.25.09a.83.83,0,0,1,0,.38v3.65c0,.23,0,.37-.07.41S37.18,36,37,36a.63.63,0,0,1-.35-.06.54.54,0,0,1-.09-.3,4.16,4.16,0,0,0-1.35-2.52,3.68,3.68,0,0,0-2.49-.94,4.64,4.64,0,0,0-3.46,1.31,5.56,5.56,0,0,0-1.13,3.92,5.86,5.86,0,0,0,1,3.77,4.5,4.5,0,0,0,3.65,1.45,4.33,4.33,0,0,0,2.63-.87,3.12,3.12,0,0,0,1.26-2.45c0-.14,0-.22.1-.25A.66.66,0,0,1,37,39a.57.57,0,0,1,.32.06c.06,0,.08.13.08.29A3.69,3.69,0,0,1,36,42.2a5.38,5.38,0,0,1-3.68,1.24A7.16,7.16,0,0,1,27.35,41.76Z" style="fill:#fff"/><path d="M39.06,39.55a3.82,3.82,0,0,1,1.15-2.87,4.33,4.33,0,0,1,3.18-1.13,4.37,4.37,0,0,1,3.18,1.13,3.83,3.83,0,0,1,1.16,2.87,3.6,3.6,0,0,1-1.14,2.73,4.5,4.5,0,0,1-3.2,1.07,4.49,4.49,0,0,1-3.19-1.07A3.6,3.6,0,0,1,39.06,39.55Zm2.18-.19v.77c0,.18,0,.42.07.74a2.18,2.18,0,0,0,.19.72,4.76,4.76,0,0,0,.37.54,1.27,1.27,0,0,0,.61.42,3,3,0,0,0,.91.12,3.09,3.09,0,0,0,.91-.12,1.27,1.27,0,0,0,.61-.42,3.07,3.07,0,0,0,.37-.54,2.18,2.18,0,0,0,.19-.72,6.77,6.77,0,0,0,.07-.74c0-.17,0-.43,0-.77A5,5,0,0,0,45.19,37a2,2,0,0,0-1.8-.87,1.92,1.92,0,0,0-1.87,1A5.7,5.7,0,0,0,41.24,39.36Z" style="fill:#fff"/><path d="M49.13,43.25v-.79h1.09V37.2c0-.31-.06-.5-.17-.57a2.66,2.66,0,0,0-.92-.09v-.8l2.92-.14v1.84a3.12,3.12,0,0,1,3-1.84c1.44,0,2.28.55,2.51,1.64a3.07,3.07,0,0,1,2.87-1.64,2.87,2.87,0,0,1,2,.58A2.41,2.41,0,0,1,63,38.05v4.41h1.17v.79c-1,0-1.67,0-2.14,0s-1.19,0-2.14,0v-.79h1.17V37.87a2.5,2.5,0,0,0-.24-1.3.81.81,0,0,0-.72-.36,2.58,2.58,0,0,0-1.72.71,2.51,2.51,0,0,0-.8,2v3.56h1.17v.79c-.95,0-1.66,0-2.14,0s-1.19,0-2.15,0v-.79h1.18V37.87a2.38,2.38,0,0,0-.25-1.3.79.79,0,0,0-.71-.36,2.61,2.61,0,0,0-1.73.71,2.51,2.51,0,0,0-.8,2v3.56h1.17v.79c-.95,0-1.67,0-2.14,0S50,43.22,49.13,43.25Z" style="fill:#fff"/><path d="M65.19,45.75h1.17V37.19c0-.32-.06-.51-.18-.56a3.06,3.06,0,0,0-1-.09v-.8l3-.14v.84a4.15,4.15,0,0,1,2.57-.84,4,4,0,0,1,2.9,1.07,3.71,3.71,0,0,1,1.09,2.79,3.61,3.61,0,0,1-1.18,2.83,4.45,4.45,0,0,1-3.1,1.06,3.29,3.29,0,0,1-2.18-.77v3.17h1.17v.8c-1,0-1.66,0-2.14,0s-1.19,0-2.14,0Zm3.11-4.5a1.07,1.07,0,0,0,0,.33,1.85,1.85,0,0,0,.16.24,2.29,2.29,0,0,0,1.8.92,2.07,2.07,0,0,0,1.62-.81,3.79,3.79,0,0,0,.68-2.47,3.94,3.94,0,0,0-.6-2.35,1.8,1.8,0,0,0-1.49-.83,2.66,2.66,0,0,0-2,.8,1.4,1.4,0,0,0-.22.27,1,1,0,0,0,0,.31Z" style="fill:#fff"/><path d="M76.21,43.25v-.79h1V37.2q0-.47-.15-.57a2.21,2.21,0,0,0-.84-.09v-.8L79,35.6v1.93c.45-1.28,1.19-1.92,2.21-1.93a2.09,2.09,0,0,1,1.23.38A1.16,1.16,0,0,1,83,37a1,1,0,0,1-.33.76,1.11,1.11,0,0,1-.75.28,1.16,1.16,0,0,1-.76-.27.93.93,0,0,1-.33-.77,1,1,0,0,1,.34-.78,1.67,1.67,0,0,0-1.05.34,2.09,2.09,0,0,0-.66.86,5.75,5.75,0,0,0-.33,1.05,5,5,0,0,0-.1,1v3h1.47v.79c-.39,0-1.13,0-2.23,0Z" style="fill:#fff"/><path d="M84,39.43a3.73,3.73,0,0,1,1.12-2.78,4.19,4.19,0,0,1,3.08-1.1,3.74,3.74,0,0,1,2.7.92,3.54,3.54,0,0,1,1,2.62q0,.31-.12.39a.85.85,0,0,1-.43.07H86.16c0,2.08.8,3.12,2.39,3.12h0A2.85,2.85,0,0,0,90,42.3a2,2,0,0,0,.91-1A.77.77,0,0,1,91.1,41a.44.44,0,0,1,.3-.07c.29,0,.44.1.44.3a.79.79,0,0,1-.1.33,2.52,2.52,0,0,1-.34.53,3.12,3.12,0,0,1-.61.59,3.27,3.27,0,0,1-1,.46,4.91,4.91,0,0,1-1.38.18,4.61,4.61,0,0,1-3.23-1.09A3.67,3.67,0,0,1,84,39.43ZM86.16,39h4.06c-.06-1.88-.74-2.83-2-2.83a1.82,1.82,0,0,0-1.61.88A4.23,4.23,0,0,0,86.16,39Z" style="fill:#fff"/><path d="M93,42.88V41a.86.86,0,0,1,.06-.41c0-.06.15-.09.35-.09a.61.61,0,0,1,.28,0s.09.09.12.2a5,5,0,0,0,.23.63,3.72,3.72,0,0,0,.4.62,1.61,1.61,0,0,0,.73.53,2.8,2.8,0,0,0,1.09.19c1.29,0,1.94-.43,1.94-1.28a1,1,0,0,0-.19-.61,1.29,1.29,0,0,0-.55-.4,4.22,4.22,0,0,0-.58-.19l-.57-.11-1.15-.23a4.3,4.3,0,0,1-.74-.25,2.79,2.79,0,0,1-.74-.46A1.78,1.78,0,0,1,93,37.79a2.12,2.12,0,0,1,.19-.93,1.41,1.41,0,0,1,.52-.65,4,4,0,0,1,.65-.38,2.67,2.67,0,0,1,.74-.19l.61-.07.42,0a3.82,3.82,0,0,1,1.72.33,3.84,3.84,0,0,1,.76-.33c.14,0,.23,0,.26.1A1,1,0,0,1,99,36v1.35a.86.86,0,0,1-.06.41.53.53,0,0,1-.36.08.47.47,0,0,1-.31-.07.51.51,0,0,1-.08-.27c-.08-.94-.75-1.42-2-1.42s-1.9.39-1.91,1.15a1,1,0,0,0,.14.54c.09.15,0,.19-.13.14L94,37.85l2,.42,1.36.31a3.14,3.14,0,0,1,1.17.5,2.2,2.2,0,0,1,.94,1.79,2.62,2.62,0,0,1-.19,1.05,1.67,1.67,0,0,1-.52.71,4.34,4.34,0,0,1-.65.41,2.44,2.44,0,0,1-.75.22l-.61.08H96.3a3.5,3.5,0,0,1-2-.54l-.44.29a1,1,0,0,1-.49.25h0c-.14,0-.23,0-.26-.1A1,1,0,0,1,93,42.88Z" style="fill:#fff"/><path d="M100.74,42.88V41a.9.9,0,0,1,.05-.41c0-.06.16-.09.35-.09a.61.61,0,0,1,.28,0,.29.29,0,0,1,.13.2,3.8,3.8,0,0,0,.23.63,3.06,3.06,0,0,0,.39.62,1.67,1.67,0,0,0,.73.53,2.85,2.85,0,0,0,1.1.19c1.29,0,1.93-.43,1.94-1.28a1,1,0,0,0-.19-.61,1.29,1.29,0,0,0-.55-.4,4.27,4.27,0,0,0-.59-.19l-.56-.11-1.15-.23a4.38,4.38,0,0,1-.75-.25,2.74,2.74,0,0,1-.73-.46,1.76,1.76,0,0,1-.68-1.42,2.27,2.27,0,0,1,.18-.93,1.55,1.55,0,0,1,.52-.65,3.72,3.72,0,0,1,.66-.38,2.58,2.58,0,0,1,.74-.19l.61-.07.41,0a3.79,3.79,0,0,1,1.72.33,3.79,3.79,0,0,1,.77-.33c.13,0,.22,0,.25.1a.83.83,0,0,1,.05.38v1.35a.86.86,0,0,1-.06.41c0,.05-.16.08-.35.08a.51.51,0,0,1-.32-.07.52.52,0,0,1-.07-.27c-.09-.94-.76-1.42-2-1.42s-1.91.39-1.91,1.15a1,1,0,0,0,.13.54c.09.15.05.19-.13.14l-.26-.09,2,.42,1.36.31a3,3,0,0,1,1.17.5,2.2,2.2,0,0,1,.94,1.79,2.82,2.82,0,0,1-.18,1.05,1.75,1.75,0,0,1-.52.71,4,4,0,0,1-.66.41,2.28,2.28,0,0,1-.75.22l-.61.08H104a3.46,3.46,0,0,1-2-.54l-.44.29a1.06,1.06,0,0,1-.5.25h0c-.14,0-.22,0-.26-.1A1,1,0,0,1,100.74,42.88Z" style="fill:#fff"/><path d="M108.58,43.25v-.79h1.18V37.2c0-.31-.06-.5-.17-.57a2.87,2.87,0,0,0-1-.09v-.8l3-.14v6.86h1.06v.79l-2,0Zm1-9.55a1.39,1.39,0,0,1,0-1.87,1.21,1.21,0,0,1,.91-.39,1.29,1.29,0,0,1,.94.39,1.28,1.28,0,0,1,.39.94,1.24,1.24,0,0,1-.4.93,1.27,1.27,0,0,1-.93.39A1.21,1.21,0,0,1,109.53,33.7Z" style="fill:#fff"/><path d="M113.75,39.55a3.82,3.82,0,0,1,1.15-2.87,5,5,0,0,1,6.36,0,3.83,3.83,0,0,1,1.16,2.87,3.6,3.6,0,0,1-1.14,2.73,5.31,5.31,0,0,1-6.39,0A3.6,3.6,0,0,1,113.75,39.55Zm2.18-.19v.77c0,.18,0,.42.07.74a1.94,1.94,0,0,0,.2.72,3.61,3.61,0,0,0,.36.54,1.27,1.27,0,0,0,.61.42,3.51,3.51,0,0,0,1.82,0,1.27,1.27,0,0,0,.61-.42,3.07,3.07,0,0,0,.37-.54,2.18,2.18,0,0,0,.19-.72,6.77,6.77,0,0,0,.07-.74c0-.17,0-.43,0-.77a5.16,5.16,0,0,0-.35-2.33,2,2,0,0,0-1.81-.87,1.92,1.92,0,0,0-1.87,1A5.7,5.7,0,0,0,115.93,39.36Z" style="fill:#fff"/><path d="M123.82,43.25v-.79h1.09V37.2c0-.31-.06-.5-.17-.57a2.66,2.66,0,0,0-.92-.09v-.8l2.92-.14v1.84a3.11,3.11,0,0,1,2.94-1.84,2.86,2.86,0,0,1,1.94.57,2.4,2.4,0,0,1,.64,1.88v4.41h1.17v.79c-1,0-1.66,0-2.14,0s-1.19,0-2.14,0v-.79h1.17V37.87a2.48,2.48,0,0,0-.24-1.29.79.79,0,0,0-.7-.37,2.57,2.57,0,0,0-1.73.71,2.51,2.51,0,0,0-.8,2v3.56H128v.79c-.9,0-1.6,0-2.1,0S124.72,43.22,123.82,43.25Z" style="fill:#fff"/><path d="M141.14,43.25v-.79h1V37.2q0-.47-.15-.57a2.18,2.18,0,0,0-.83-.09v-.8L144,35.6v1.93c.45-1.28,1.19-1.92,2.21-1.93a2.06,2.06,0,0,1,1.23.38,1.16,1.16,0,0,1,.53,1,1,1,0,0,1-.33.76,1.11,1.11,0,0,1-.75.28,1.16,1.16,0,0,1-.76-.27.93.93,0,0,1-.33-.77,1,1,0,0,1,.34-.78,1.67,1.67,0,0,0-1,.34,2.09,2.09,0,0,0-.66.86,5.75,5.75,0,0,0-.33,1.05,5,5,0,0,0-.1,1v3h1.47v.79c-.39,0-1.13,0-2.23,0Z" style="fill:#fff"/><path d="M148.9,41.42q0-2.43,5.49-2.67v-.58c0-1.34-.6-2-1.81-2a6,6,0,0,0-1.24.12.92.92,0,0,1,.41.84,1,1,0,0,1-.34.79,1.23,1.23,0,0,1-.81.28,1,1,0,0,1-.7-.28,1,1,0,0,1-.32-.79c0-1,1-1.56,3-1.57a4.58,4.58,0,0,1,2.77.71,2.27,2.27,0,0,1,1,1.91v3.66a1.25,1.25,0,0,0,0,.34c0,.06.11.13.27.19a2.11,2.11,0,0,0,.73.1h.22a.37.37,0,0,1,.14.1.43.43,0,0,1,.08.28c0,.18,0,.29-.12.34a1.05,1.05,0,0,1-.43.06h-.81a3.56,3.56,0,0,1-1-.12,1,1,0,0,1-.54-.35,1.39,1.39,0,0,1-.17-.4,1.78,1.78,0,0,1,0-.44,2.52,2.52,0,0,1-2.46,1.41,7.13,7.13,0,0,1-1-.07,5.42,5.42,0,0,1-1.07-.27,1.92,1.92,0,0,1-.88-.6A1.47,1.47,0,0,1,148.9,41.42Zm1.95,0a1.16,1.16,0,0,0,.47,1,1.83,1.83,0,0,0,1.63.32,4.34,4.34,0,0,0,.63-.24,1.35,1.35,0,0,0,.58-.58,2,2,0,0,0,.23-1v-1.6c-.25,0-.48,0-.71.06a7,7,0,0,0-.89.18,4.52,4.52,0,0,0-.95.35,2.09,2.09,0,0,0-.69.61A1.49,1.49,0,0,0,150.85,41.4Z" style="fill:#fff"/><path d="M158.22,36.51v-.62a2.17,2.17,0,0,0,1.85-1,4.38,4.38,0,0,0,.68-2.39h.8v3.25H164v.8h-2.48v4.68c0,1,.32,1.48,1,1.48a.87.87,0,0,0,.71-.38,1.83,1.83,0,0,0,.31-1.18v-.86h.79v.9a2.31,2.31,0,0,1-.55,1.58,1.89,1.89,0,0,1-1.49.62q-2.7,0-2.7-2.19V36.51Z" style="fill:#fff"/><path d="M166,39.43a3.76,3.76,0,0,1,1.11-2.78,4.2,4.2,0,0,1,3.08-1.1,3.73,3.73,0,0,1,2.7.92,3.54,3.54,0,0,1,1,2.62c0,.21,0,.34-.11.39a.9.9,0,0,1-.44.07h-5.13c0,2.08.8,3.12,2.39,3.12h0A2.88,2.88,0,0,0,172,42.3a2.07,2.07,0,0,0,.9-1,.77.77,0,0,1,.17-.29.44.44,0,0,1,.3-.07c.29,0,.44.1.44.3a.79.79,0,0,1-.1.33,2.17,2.17,0,0,1-.34.53,2.86,2.86,0,0,1-.61.59,3.27,3.27,0,0,1-1,.46,4.91,4.91,0,0,1-1.38.18,4.61,4.61,0,0,1-3.23-1.09A3.67,3.67,0,0,1,166,39.43Zm2.17-.44h4.06c-.06-1.88-.74-2.83-2-2.83a1.83,1.83,0,0,0-1.61.88A4.36,4.36,0,0,0,168.17,39Z" style="fill:#fff"/><path d="M182.75,39a10.2,10.2,0,0,1,3-7.56c.65-.62,1.09-.93,1.31-.93s.3.08.3.24-.08.18-.25.36q-2.57,2.76-2.57,7.9a14.58,14.58,0,0,0,.61,4.4,8.67,8.67,0,0,0,2.17,3.68v.05a.27.27,0,0,1,0,.12q0,.24-.3.24a1.48,1.48,0,0,1-.66-.35A8.47,8.47,0,0,1,185.3,46a8.88,8.88,0,0,1-1.19-1.65A10.72,10.72,0,0,1,182.75,39Z" style="fill:#fff"/><path d="M189.6,33.92a3.37,3.37,0,0,1,.89-2.54,2.91,2.91,0,0,1,2.11-.88,2.25,2.25,0,0,1,1.32.44,6.37,6.37,0,0,0,3.84,1.36,4.33,4.33,0,0,0,3.43-1.47.69.69,0,0,1,.51-.33.5.5,0,0,1,.35.15.51.51,0,0,1,.16.38.81.81,0,0,1-.19.41l-9.74,12.49a.54.54,0,0,1-.44.28.49.49,0,0,1-.38-.16.5.5,0,0,1-.15-.37.61.61,0,0,1,.18-.43l8.35-10.7a5.93,5.93,0,0,1-2.07.37,7,7,0,0,1-2.93-.7,5.34,5.34,0,0,1,.25,1.72,3.85,3.85,0,0,1-.73,2.56,2.23,2.23,0,0,1-1.76.85,3,3,0,0,1-2.11-.85A3.4,3.4,0,0,1,189.6,33.92Zm1.83,0c0,.29,0,.52,0,.7s0,.41.06.72a2.51,2.51,0,0,0,.18.71,1.32,1.32,0,0,0,.37.46.84.84,0,0,0,.58.21,1.46,1.46,0,0,0,1.15-.67,3.54,3.54,0,0,0,.51-2.15,3.54,3.54,0,0,0-.51-2.12,1.41,1.41,0,0,0-1.15-.68.89.89,0,0,0-.58.2,1.32,1.32,0,0,0-.37.46,2.42,2.42,0,0,0-.18.71c0,.31-.06.55-.06.73S191.43,33.63,191.43,33.94Zm6.91,6.83a3.41,3.41,0,0,1,.88-2.54,2.92,2.92,0,0,1,2.13-.88,2.27,2.27,0,0,1,1.75.85,3.89,3.89,0,0,1,.74,2.59,3.85,3.85,0,0,1-.73,2.56,2.24,2.24,0,0,1-1.76.86,3,3,0,0,1-2.11-.86A3.4,3.4,0,0,1,198.34,40.77Zm1.83,0c0,.29,0,.53,0,.7s0,.42.07.73a2.51,2.51,0,0,0,.18.71,1.32,1.32,0,0,0,.37.46.84.84,0,0,0,.58.2,1.44,1.44,0,0,0,1.14-.66,3.5,3.5,0,0,0,.52-2.16,3.54,3.54,0,0,0-.51-2.12,1.42,1.42,0,0,0-1.15-.68.84.84,0,0,0-.58.2,1.32,1.32,0,0,0-.37.46,2.51,2.51,0,0,0-.18.71c0,.31-.06.55-.07.73S200.17,40.48,200.17,40.79Z" style="fill:#fff"/><path d="M205.87,47.25c0-.06.09-.18.28-.36,1.82-1.84,2.74-4.47,2.74-7.9s-.91-6-2.73-7.86c-.19-.18-.29-.31-.29-.39s.11-.24.31-.24a1.48,1.48,0,0,1,.66.35A8.47,8.47,0,0,1,208,32a9.37,9.37,0,0,1,1.19,1.65,10.72,10.72,0,0,1,1.36,5.4,10.24,10.24,0,0,1-3,7.57c-.65.61-1.08.92-1.31.92S205.87,47.41,205.87,47.25Z" style="fill:#fff"/></svg>