<svg xmlns="http://www.w3.org/2000/svg" viewBox="0 0 1264 1080"><path d="M144.05,67.64a11.87,11.87,0,0,1-3.92-9.18,11.85,11.85,0,0,1,3.93-9.19q3.93-3.56,10.55-3.56a11,11,0,0,1,7.12,2.45L164.08,46a1,1,0,0,1,.68-.32c.29,0,.47.07.54.2a1.89,1.89,0,0,1,.11.8v7.74a1.48,1.48,0,0,1-.15.87,1.41,1.41,0,0,1-.84.15,1.34,1.34,0,0,1-.73-.12c-.09-.07-.15-.29-.2-.64a8.85,8.85,0,0,0-2.85-5.32,7.75,7.75,0,0,0-5.27-2A9.85,9.85,0,0,0,148,50.16q-2.39,2.48-2.4,8.3,0,5.41,2.13,8,2.6,3.06,7.73,3.06a9.1,9.1,0,0,0,5.56-1.84,6.5,6.5,0,0,0,2.67-5.19c0-.29.09-.47.21-.53a1.71,1.71,0,0,1,.61-.08,1.36,1.36,0,0,1,.69.12q.18.12.18.63a7.76,7.76,0,0,1-3,5.94,11.39,11.39,0,0,1-7.8,2.64Q148,71.2,144.05,67.64Z" style="fill:#fff"/><path d="M168.85,63a8.14,8.14,0,0,1,2.43-6.09,10.7,10.7,0,0,1,13.48,0A8.11,8.11,0,0,1,187.2,63a7.59,7.59,0,0,1-2.41,5.77,11.18,11.18,0,0,1-13.53,0A7.59,7.59,0,0,1,168.85,63Zm4.61-.41c0,.72,0,1.26,0,1.64s.06.89.15,1.55a4.29,4.29,0,0,0,.41,1.53,8,8,0,0,0,.77,1.15,2.58,2.58,0,0,0,1.29.88,7,7,0,0,0,3.85,0,2.61,2.61,0,0,0,1.3-.88,7.32,7.32,0,0,0,.78-1.15,4.76,4.76,0,0,0,.41-1.53,15.33,15.33,0,0,0,.15-1.55c0-.38,0-.92,0-1.64,0-2.47-.25-4.12-.76-4.94A4.16,4.16,0,0,0,178,55.78a4.09,4.09,0,0,0-4,2.1A12.25,12.25,0,0,0,173.46,62.55Z" style="fill:#fff"/><path d="M190.17,70.8V69.11h2.31V58q0-1-.36-1.2a5.18,5.18,0,0,0-2-.2V54.89l6.19-.3v3.9a6.58,6.58,0,0,1,6.26-3.9q4.57,0,5.33,3.46A6.47,6.47,0,0,1,214,54.59a6.09,6.09,0,0,1,4.2,1.23,5.12,5.12,0,0,1,1.35,4v9.34H222V70.8c-2-.07-3.52-.11-4.53-.11s-2.52,0-4.54.11V69.11h2.48V59.39a5.33,5.33,0,0,0-.5-2.74,1.68,1.68,0,0,0-1.52-.76,5.45,5.45,0,0,0-3.64,1.49,5.29,5.29,0,0,0-1.7,4.2v7.53h2.47V70.8c-2-.07-3.51-.11-4.51-.11s-2.53,0-4.56.11V69.11H204V59.39a5.21,5.21,0,0,0-.51-2.74,1.69,1.69,0,0,0-1.51-.76,5.5,5.5,0,0,0-3.66,1.49,5.32,5.32,0,0,0-1.7,4.2v7.53h2.48V70.8c-2-.07-3.53-.11-4.54-.11S192.07,70.73,190.17,70.8Z" style="fill:#fff"/><path d="M224.19,76.09h2.48V58c0-.67-.13-1.07-.38-1.19a6.83,6.83,0,0,0-2.1-.18V54.89l6.36-.3v1.77A8.71,8.71,0,0,1,236,54.59a8.37,8.37,0,0,1,6.15,2.26,7.9,7.9,0,0,1,2.31,5.9,7.67,7.67,0,0,1-2.51,6A9.42,9.42,0,0,1,235.38,71a7,7,0,0,1-4.6-1.64v6.72h2.48v1.68c-2-.07-3.53-.1-4.54-.1s-2.52,0-4.53.1Zm6.59-9.53a3,3,0,0,0,.05.69,3.24,3.24,0,0,0,.34.51A4.82,4.82,0,0,0,235,69.71,4.34,4.34,0,0,0,238.41,68c1-1.14,1.44-2.88,1.44-5.24a8.31,8.31,0,0,0-1.27-5A3.76,3.76,0,0,0,235.42,56a5.54,5.54,0,0,0-4.11,1.7,2.46,2.46,0,0,0-.47.56,2.28,2.28,0,0,0-.06.65Z" style="fill:#fff"/><path d="M247.53,70.8V69.11h2.09V58c0-.67-.1-1.07-.32-1.2a4.31,4.31,0,0,0-1.77-.2V54.89l6-.3v4.08q1.44-4.06,4.68-4.08a4.41,4.41,0,0,1,2.61.8,2.51,2.51,0,0,1,1.13,2.15,2,2,0,0,1-.7,1.6,2.4,2.4,0,0,1-1.61.6,2.47,2.47,0,0,1-1.6-.57,2,2,0,0,1-.7-1.63,2.21,2.21,0,0,1,.72-1.65,3.56,3.56,0,0,0-2.21.7,4.24,4.24,0,0,0-1.41,1.84,12.71,12.71,0,0,0-.69,2.21,10.63,10.63,0,0,0-.22,2.16v6.31h3.13V70.8c-.83-.07-2.41-.11-4.73-.11C251.42,70.69,250,70.73,247.53,70.8Z" style="fill:#fff"/><path d="M264,62.69a7.94,7.94,0,0,1,2.36-5.87,8.84,8.84,0,0,1,6.52-2.34,7.93,7.93,0,0,1,5.73,2,7.49,7.49,0,0,1,2,5.54c0,.46-.08.74-.23.84a2,2,0,0,1-.93.15H268.59c0,4.4,1.69,6.61,5.06,6.61h0a6,6,0,0,0,3.08-.8,4.32,4.32,0,0,0,1.93-2.07,1.65,1.65,0,0,1,.35-.62,1,1,0,0,1,.63-.14c.62,0,.93.22.93.64a1.8,1.8,0,0,1-.2.7,5.62,5.62,0,0,1-.72,1.13,6.91,6.91,0,0,1-1.29,1.23,6.57,6.57,0,0,1-2.09,1,10,10,0,0,1-2.94.4,9.81,9.81,0,0,1-6.84-2.32A7.75,7.75,0,0,1,264,62.69Zm4.61-.93h8.6c-.12-4-1.56-6-4.33-6a3.86,3.86,0,0,0-3.41,1.87A9,9,0,0,0,268.59,61.76Z" style="fill:#fff"/><path d="M283.16,70V66.08a1.8,1.8,0,0,1,.13-.87c.08-.12.32-.18.73-.18a1.53,1.53,0,0,1,.6.08c.11,0,.19.19.26.43a10.11,10.11,0,0,0,.49,1.33,7.84,7.84,0,0,0,.83,1.31,3.56,3.56,0,0,0,1.55,1.13,6.29,6.29,0,0,0,2.32.4c2.73,0,4.1-.91,4.11-2.71a2.09,2.09,0,0,0-.4-1.29,2.61,2.61,0,0,0-1.17-.84,6.6,6.6,0,0,0-1.24-.4l-1.2-.26c-1.15-.21-2-.37-2.43-.47a8.8,8.8,0,0,1-1.57-.53,5.83,5.83,0,0,1-1.57-1,3.8,3.8,0,0,1-1.44-3,4.64,4.64,0,0,1,.4-2,3.21,3.21,0,0,1,1.1-1.37,7.9,7.9,0,0,1,1.38-.8,5.91,5.91,0,0,1,1.57-.41q.88-.12,1.29-.15c.28,0,.57,0,.89,0a8,8,0,0,1,3.64.71,8.17,8.17,0,0,1,1.61-.71c.3,0,.48.07.55.21a2,2,0,0,1,.11.81v2.87a1.59,1.59,0,0,1-.14.85c-.08.11-.33.17-.74.17s-.59,0-.67-.15a1.08,1.08,0,0,1-.16-.57q-.28-3-4.24-3t-4,2.43a2.14,2.14,0,0,0,.29,1.14c.19.31.09.41-.28.28l-.56-.18,4.22.88c.92.23,1.88.46,2.89.68A6.36,6.36,0,0,1,294.74,62a4.67,4.67,0,0,1,2,3.79,5.87,5.87,0,0,1-.39,2.22,3.58,3.58,0,0,1-1.1,1.5,8.64,8.64,0,0,1-1.39.88,5,5,0,0,1-1.58.46c-.6.09-1,.14-1.29.16a8.35,8.35,0,0,1-.91,0,7.3,7.3,0,0,1-4.25-1.16l-.94.62a2.29,2.29,0,0,1-1.05.54h0q-.44,0-.54-.21A2,2,0,0,1,283.16,70Z" style="fill:#fff"/><path d="M299.46,70V66.08a2,2,0,0,1,.12-.87c.08-.12.33-.18.74-.18a1.6,1.6,0,0,1,.6.08.67.67,0,0,1,.26.43,8.88,8.88,0,0,0,.48,1.33,7.36,7.36,0,0,0,.84,1.31A3.53,3.53,0,0,0,304,69.31a6.31,6.31,0,0,0,2.33.4c2.73,0,4.1-.91,4.11-2.71a2.09,2.09,0,0,0-.41-1.29,2.61,2.61,0,0,0-1.17-.84,6.38,6.38,0,0,0-1.24-.4l-1.19-.26c-1.16-.21-2-.37-2.43-.47a8.87,8.87,0,0,1-1.58-.53,5.93,5.93,0,0,1-1.56-1,3.8,3.8,0,0,1-1.44-3,4.79,4.79,0,0,1,.39-2,3.28,3.28,0,0,1,1.1-1.37,8,8,0,0,1,1.39-.8,5.94,5.94,0,0,1,1.56-.41c.59-.08,1-.13,1.3-.15s.57,0,.88,0a8,8,0,0,1,3.64.71,8.11,8.11,0,0,1,1.62-.71q.44,0,.54.21a1.82,1.82,0,0,1,.11.81v2.87a1.62,1.62,0,0,1-.13.85c-.09.11-.34.17-.75.17s-.58,0-.67-.15a1.09,1.09,0,0,1-.15-.57q-.29-3-4.24-3t-4,2.43a2.14,2.14,0,0,0,.28,1.14c.19.31.1.41-.28.28l-.56-.18,4.23.88c.92.23,1.88.46,2.88.68A6.41,6.41,0,0,1,311,62a4.7,4.7,0,0,1,2,3.79,5.67,5.67,0,0,1-.4,2.22,3.5,3.5,0,0,1-1.1,1.5,8.64,8.64,0,0,1-1.39.88,4.88,4.88,0,0,1-1.58.46c-.6.09-1,.14-1.29.16a8,8,0,0,1-.9,0,7.31,7.31,0,0,1-4.26-1.16l-.93.62a2.27,2.27,0,0,1-1.06.54h0c-.3,0-.48-.07-.55-.21A2.07,2.07,0,0,1,299.46,70Z" style="fill:#fff"/><path d="M316.07,70.8V69.11h2.49V58q0-1-.36-1.2a5.58,5.58,0,0,0-2-.2V54.89l6.28-.3V69.11h2.23V70.8l-4.22-.11C319.76,70.69,318.29,70.73,316.07,70.8Zm2-20.24a2.92,2.92,0,0,1,0-4,2.51,2.51,0,0,1,1.92-.83,2.83,2.83,0,0,1,2.81,2.81,2.67,2.67,0,0,1-.84,2,2.7,2.7,0,0,1-2,.83A2.51,2.51,0,0,1,318.09,50.56Z" style="fill:#fff"/><path d="M327,63a8.14,8.14,0,0,1,2.43-6.09,10.7,10.7,0,0,1,13.48,0A8.11,8.11,0,0,1,345.37,63,7.59,7.59,0,0,1,343,68.73a11.18,11.18,0,0,1-13.53,0A7.59,7.59,0,0,1,327,63Zm4.6-.41c0,.72,0,1.26,0,1.64s.06.89.14,1.55a4.49,4.49,0,0,0,.42,1.53,8,8,0,0,0,.77,1.15,2.58,2.58,0,0,0,1.29.88,7,7,0,0,0,3.85,0,2.65,2.65,0,0,0,1.3-.88,7.32,7.32,0,0,0,.78-1.15,5,5,0,0,0,.41-1.53,15.33,15.33,0,0,0,.15-1.55c0-.38,0-.92,0-1.64,0-2.47-.26-4.12-.76-4.94a4.17,4.17,0,0,0-3.81-1.83,4.08,4.08,0,0,0-4,2.1A12,12,0,0,0,331.62,62.55Z" style="fill:#fff"/><path d="M348.34,70.8V69.11h2.3V58c0-.67-.11-1.07-.35-1.2a5.18,5.18,0,0,0-2-.2V54.89l6.19-.3v3.9a6.56,6.56,0,0,1,6.23-3.9,6,6,0,0,1,4.1,1.21,5.11,5.11,0,0,1,1.36,4v9.34h2.48V70.8c-2-.07-3.52-.11-4.54-.11s-2.53,0-4.53.11V69.11h2.48V59.39a5.29,5.29,0,0,0-.51-2.73,1.68,1.68,0,0,0-1.48-.77,5.43,5.43,0,0,0-3.67,1.49,5.31,5.31,0,0,0-1.69,4.2v7.53h2.48V70.8c-1.91-.07-3.39-.11-4.44-.11S350.26,70.73,348.34,70.8Z" style="fill:#fff"/><path d="M385,70.8V69.11h2.09V58c0-.67-.1-1.07-.32-1.2a4.31,4.31,0,0,0-1.77-.2V54.89l6-.3v4.08q1.44-4.06,4.68-4.08a4.41,4.41,0,0,1,2.61.8,2.51,2.51,0,0,1,1.13,2.15,2,2,0,0,1-.7,1.6,2.4,2.4,0,0,1-1.61.6,2.47,2.47,0,0,1-1.6-.57,2,2,0,0,1-.7-1.63,2.21,2.21,0,0,1,.72-1.65,3.56,3.56,0,0,0-2.21.7,4.24,4.24,0,0,0-1.41,1.84,11.9,11.9,0,0,0-.69,2.21A10.63,10.63,0,0,0,391,62.8v6.31h3.13V70.8c-.83-.07-2.41-.11-4.73-.11C388.9,70.69,387.44,70.73,385,70.8Z" style="fill:#fff"/><path d="M401.46,66.91q0-5.14,11.62-5.66V60q0-4.26-3.83-4.26a13.61,13.61,0,0,0-2.64.25,1.93,1.93,0,0,1,.88,1.78,2,2,0,0,1-.73,1.67,2.63,2.63,0,0,1-1.71.59,2.23,2.23,0,0,1-1.48-.59,2.09,2.09,0,0,1-.68-1.67c0-2.21,2.14-3.31,6.42-3.33A9.65,9.65,0,0,1,415.18,56a4.79,4.79,0,0,1,2,4v7.73a2.44,2.44,0,0,0,.07.72q.06.21.57.42a4.52,4.52,0,0,0,1.55.2,2.46,2.46,0,0,1,.46,0,.71.71,0,0,1,.47.79c0,.39-.08.63-.25.73a2.11,2.11,0,0,1-.91.14h-1.72a7.48,7.48,0,0,1-2.16-.26,1.91,1.91,0,0,1-1.13-.75,2.59,2.59,0,0,1-.38-.85,4.52,4.52,0,0,1-.07-.92,5.36,5.36,0,0,1-5.22,3,16.37,16.37,0,0,1-2.19-.16,12.69,12.69,0,0,1-2.26-.57A4,4,0,0,1,402.17,69,3.19,3.19,0,0,1,401.46,66.91Zm4.12,0a2.51,2.51,0,0,0,1,2,3.72,3.72,0,0,0,2.43.82,4.07,4.07,0,0,0,1-.15,7.6,7.6,0,0,0,1.32-.51,2.91,2.91,0,0,0,1.24-1.22,4.14,4.14,0,0,0,.48-2v-3.4q-.79,0-1.5.12a16.85,16.85,0,0,0-1.89.39,10.38,10.38,0,0,0-2,.74,4.33,4.33,0,0,0-1.46,1.29A3.19,3.19,0,0,0,405.58,66.88Z" style="fill:#fff"/><path d="M421.19,56.5V55.2A4.6,4.6,0,0,0,425.11,53a9.32,9.32,0,0,0,1.44-5.05h1.68v6.88h5.26V56.5h-5.26v9.94c0,2.08.7,3.13,2.09,3.13a1.88,1.88,0,0,0,1.5-.81,4,4,0,0,0,.65-2.5V64.43h1.69v1.9A4.89,4.89,0,0,1,433,69.68,4,4,0,0,1,429.83,71q-5.71,0-5.71-4.64V56.5Z" style="fill:#fff"/><path d="M437.66,62.69A7.94,7.94,0,0,1,440,56.82a8.85,8.85,0,0,1,6.52-2.34,7.89,7.89,0,0,1,5.73,2,7.49,7.49,0,0,1,2,5.54q0,.69-.24.84a2,2,0,0,1-.93.15H442.26c0,4.4,1.69,6.61,5.06,6.61h0a6.08,6.08,0,0,0,3.09-.8,4.35,4.35,0,0,0,1.92-2.07,1.8,1.8,0,0,1,.35-.62,1.06,1.06,0,0,1,.64-.14c.62,0,.93.22.93.64a1.85,1.85,0,0,1-.21.7,5.62,5.62,0,0,1-.72,1.13,6.34,6.34,0,0,1-1.29,1.23,6.57,6.57,0,0,1-2.09,1A10,10,0,0,1,447,71a9.76,9.76,0,0,1-6.83-2.32A7.75,7.75,0,0,1,437.66,62.69Zm4.6-.93h8.6c-.12-4-1.56-6-4.33-6a3.86,3.86,0,0,0-3.41,1.87A9.13,9.13,0,0,0,442.26,61.76Z" style="fill:#fff"/><path d="M473.13,61.76a21.62,21.62,0,0,1,6.45-16q2.06-1.95,2.76-2c.43,0,.65.17.65.51,0,.11-.18.36-.53.75Q477,50.9,477,61.8a31.18,31.18,0,0,0,1.29,9.31,18.36,18.36,0,0,0,4.59,7.79l0,.1a.56.56,0,0,1,.07.25c0,.34-.22.51-.65.51A3.12,3.12,0,0,1,481,79a18.07,18.07,0,0,1-2.42-2.32A18.45,18.45,0,0,1,476,73.2,22.77,22.77,0,0,1,473.13,61.76Z" style="fill:#fff"/><path d="M487.63,51a7.2,7.2,0,0,1,1.89-5.38A6.15,6.15,0,0,1,494,43.8a4.7,4.7,0,0,1,2.8.93,13.54,13.54,0,0,0,8.12,2.88,9.14,9.14,0,0,0,7.27-3.13,1.46,1.46,0,0,1,1.09-.68,1.06,1.06,0,0,1,.73.3,1,1,0,0,1,.34.8,1.6,1.6,0,0,1-.39.88L493.31,72.24a1.16,1.16,0,0,1-.94.58,1.06,1.06,0,0,1-.79-.33,1.09,1.09,0,0,1-.31-.8,1.23,1.23,0,0,1,.38-.89l17.67-22.68a12,12,0,0,1-4.37.79,14.82,14.82,0,0,1-6.21-1.48,11.61,11.61,0,0,1,.53,3.64,8.17,8.17,0,0,1-1.55,5.42A4.76,4.76,0,0,1,494,58.3a6.28,6.28,0,0,1-4.45-1.81A7.21,7.21,0,0,1,487.63,51Zm3.89,0c0,.62,0,1.11,0,1.48s.06.88.14,1.53a4.91,4.91,0,0,0,.38,1.5,3,3,0,0,0,.77,1,1.88,1.88,0,0,0,1.24.44,3.08,3.08,0,0,0,2.42-1.41,7.45,7.45,0,0,0,1.1-4.56,7.52,7.52,0,0,0-1.08-4.49,3.05,3.05,0,0,0-2.44-1.44,1.87,1.87,0,0,0-1.24.43,2.89,2.89,0,0,0-.77,1,5.06,5.06,0,0,0-.38,1.51c-.08.65-.13,1.17-.14,1.54S491.52,50.42,491.52,51.07Zm14.62,14.47A7.26,7.26,0,0,1,508,60.15a6.22,6.22,0,0,1,4.49-1.85,4.77,4.77,0,0,1,3.72,1.8q1.56,1.8,1.56,5.48A8.19,8.19,0,0,1,516.25,71a4.74,4.74,0,0,1-3.74,1.82A6.27,6.27,0,0,1,508.05,71,7.21,7.21,0,0,1,506.14,65.54Zm3.89,0c0,.62,0,1.11,0,1.49s.07.88.15,1.53a5.15,5.15,0,0,0,.38,1.51,2.83,2.83,0,0,0,.77,1,1.9,1.9,0,0,0,1.23.43A3.09,3.09,0,0,0,515,70.11a7.5,7.5,0,0,0,1.1-4.57A7.53,7.53,0,0,0,515,61a3.05,3.05,0,0,0-2.45-1.44,1.85,1.85,0,0,0-1.23.43,2.8,2.8,0,0,0-.77,1,5.23,5.23,0,0,0-.38,1.52q-.12,1-.15,1.53C510,64.42,510,64.93,510,65.58Z" style="fill:#fff"/><path d="M522.1,79.25c0-.12.19-.37.58-.75q5.8-5.85,5.8-16.74t-5.76-16.63c-.41-.38-.62-.66-.62-.82,0-.34.22-.51.65-.51a3.07,3.07,0,0,1,1.39.73,19.42,19.42,0,0,1,2.43,2.32,19.05,19.05,0,0,1,2.51,3.5A22.8,22.8,0,0,1,532,61.8a21.65,21.65,0,0,1-6.43,16c-1.37,1.3-2.3,2-2.78,2S522.1,79.59,522.1,79.25Z" style="fill:#fff"/><g style="isolation:isolate"><path d="M174.86,959.18A1.67,1.67,0,1,1,177,959,1.44,1.44,0,0,1,174.86,959.18Zm6.38,9.39-1.38-1.38,1.78-1.78-3.06-3.06L177,964l-1.38-1.39,3.41-3.41,4.44,4.44,1.64-1.63,1.38,1.38Z" style="fill:#fff"/><path d="M187.78,954.69c-.71-.56-1.23-.56-1.76,0s-.41,1.45.54,2.41l.32.31c1,1,1.81,1.15,2.41.55s.56-1,.05-1.7l1.8-1.8q2.09,2.41-.43,4.93c-1.82,1.82-3.75,1.82-5.58,0l-.53-.53c-1.83-1.83-1.83-3.76,0-5.59s3.31-1.79,5-.36Z" style="fill:#fff"/><path d="M191.82,953.08l-.92-.91c-1.59-1.6-1.51-3.67.22-5.4s3.8-1.81,5.39-.21l.92.91c1.59,1.6,1.51,3.67-.22,5.4S193.41,954.68,191.82,953.08Zm.94-2.68.82.83c.76.75,1.62.85,2.24.24s.51-1.47-.25-2.23l-.82-.82c-.76-.76-1.62-.86-2.24-.25S192,949.65,192.76,950.4Z" style="fill:#fff"/><path d="M195.11,943.05l1.8-1.8.94,1,.1-.1a2.38,2.38,0,0,1,.6-2.76c1.27-1.27,2.71-1.18,4.14.25l3.77,3.76-1.86,1.85-3.34-3.34c-.75-.75-1.39-.82-2-.21a1.35,1.35,0,0,0,.18,2.05l3.33,3.33-1.85,1.85Z" style="fill:#fff"/><path d="M209.59,944.2,208,942.62l5.44-5.43,1.58,1.58Z" style="fill:#fff"/><path d="M211.77,933.59l1.86-1.86a1.42,1.42,0,0,0,1.89-.24,1.64,1.64,0,0,0-2.32-2.32,1.5,1.5,0,0,0-.4,1.58l-1.87,1.87-4.08-4.76,5-5,1.5,1.5-3.46,3.46,1.61,1.88.11-.1a2.52,2.52,0,0,1,.85-2.39,3.26,3.26,0,0,1,4.83.11c1.65,1.66,1.57,3.94-.21,5.73S213.2,935,211.77,933.59Z" style="fill:#fff"/><path d="M221,928.81l-1.49-1.49,1.88-1.89-4.32-4.32-.1.1-.56,3-1.65-1.65.57-3.2,1.87-1.86,6.06,6.06,1.79-1.79,1.49,1.49Z" style="fill:#fff"/><path d="M222.45,912c1.68-1.69,3.72-1.93,5.06-.59.85.85,1.1,2.11.94,4.61l-.15,2.34.1.1,3.18-3.18,1.5,1.49-5.74,5.74-1.29-1.28.2-4.58c.09-2.1,0-2.79-.46-3.24a1.32,1.32,0,0,0-2,.1,1.46,1.46,0,0,0,0,2.16l0,0-1.76,1.76,0,0C220.53,915.89,220.7,913.7,222.45,912Z" style="fill:#fff"/></g><g style="isolation:isolate"><path d="M250.41,952.56a1.67,1.67,0,1,1,2.17-.16A1.44,1.44,0,0,1,250.41,952.56Zm6.37,9.39-1.38-1.38,1.78-1.78-3.06-3.06-1.63,1.63L251.11,956l3.41-3.42L259,957l1.63-1.64,1.39,1.38Z" style="fill:#fff"/><path d="M263.33,948.07c-.72-.56-1.23-.56-1.77,0s-.41,1.45.55,2.41l.31.32c1,1,1.82,1.15,2.42.55s.55-1,0-1.71l1.81-1.8c1.38,1.62,1.24,3.25-.43,4.93s-3.76,1.82-5.59,0l-.52-.53c-1.83-1.83-1.83-3.76,0-5.58s3.31-1.8,5-.36Z" style="fill:#fff"/><path d="M267.36,946.47l-.91-.92c-1.6-1.6-1.52-3.67.21-5.4s3.8-1.81,5.4-.21l.91.92c1.6,1.59,1.51,3.66-.21,5.39S269,948.06,267.36,946.47Zm.94-2.68.83.82a1.49,1.49,0,0,0,2.23.24c.61-.61.51-1.47-.24-2.23l-.83-.82c-.76-.76-1.62-.86-2.23-.25S267.54,943,268.3,943.79Z" style="fill:#fff"/><path d="M270.65,936.44l1.8-1.81.95,1,.1-.1a2.39,2.39,0,0,1,.6-2.76c1.26-1.27,2.71-1.18,4.14.25l3.76,3.76-1.85,1.86-3.35-3.35c-.74-.75-1.39-.81-2-.21a1.35,1.35,0,0,0,.19,2.05l3.32,3.33-1.84,1.85Z" style="fill:#fff"/><path d="M285.13,937.58,283.55,936l5.43-5.43,1.58,1.58Z" style="fill:#fff"/><path d="M292.75,926.29c-1.88,1.88-4.28,2-6,.23a6.77,6.77,0,0,1-1.76-4c-.14-.9-.37-2.77-.41-3.44l2.15-2.15.55,4.11a5,5,0,0,0,.2,1l.13-.12a2.38,2.38,0,0,1,.75-1.6,3.27,3.27,0,0,1,4.74.15A4.05,4.05,0,0,1,292.75,926.29Zm-1.54-3.83a1.68,1.68,0,1,0,0,2.35A1.61,1.61,0,0,0,291.21,922.46Z" style="fill:#fff"/><path d="M298.14,917.94l-3.32,3.32-1.46-1.46-2.67-6.86,1.93-1.93,2.65,6.63.12.12,1.36-1.36L295,914.64l1.7-1.7,1.8,1.8.93-.93,1.42,1.43-.89.88,1.33,1.34-1.81,1.81Z" style="fill:#fff"/></g><g style="isolation:isolate"><path d="M301.34,979.52l1,1c1.64,1.64,1.8,3.25.47,4.58a2,2,0,0,1-2.68.4l-.12.12,3,3-1.94,2-7.75-7.75,1.93-1.94,1.07,1.07.11-.11a2,2,0,0,1,.4-2.71C298.09,977.72,299.7,977.88,301.34,979.52Zm-3.77,3.75,1,1a1.32,1.32,0,1,0,1.86-1.87l-1-1a1.32,1.32,0,1,0-1.87,1.86Z" style="fill:#fff"/><path d="M297.63,974l1.81-1.81,3.15,3.15.1-.1a2.41,2.41,0,0,1,.64-2.79c1.26-1.27,2.75-1.19,4.16.22l3.74,3.75-1.85,1.84-3.32-3.32c-.73-.73-1.41-.8-2-.19a1.39,1.39,0,0,0,.14,2.11l3.3,3.3L305.64,982Z" style="fill:#fff"/><path d="M309.79,972.94l-.92-.92c-1.59-1.6-1.51-3.67.22-5.39s3.8-1.81,5.39-.22l.92.92c1.59,1.59,1.51,3.67-.22,5.39S311.38,974.53,309.79,972.94Zm.94-2.68.82.82c.76.76,1.62.86,2.24.25s.51-1.48-.25-2.24l-.82-.82c-.76-.76-1.62-.86-2.24-.25S310,969.5,310.73,970.26Z" style="fill:#fff"/><path d="M314.55,958l1.8,1.81,2-2,1.38,1.38-2,2,2.49,2.49a.71.71,0,0,0,1.09,0l1.32-1.32L324,963.6l-1.48,1.48c-1.68,1.69-2.73,1.78-4.15.35L315.93,963l-1.5,1.5-1.37-1.38,1.49-1.49-1.8-1.81Z" style="fill:#fff"/><path d="M323,959.7l-.92-.91c-1.6-1.6-1.51-3.67.21-5.4s3.8-1.81,5.4-.21l.91.91c1.6,1.6,1.52,3.67-.21,5.4S324.62,961.3,323,959.7ZM324,957l.82.82c.76.76,1.62.86,2.23.25s.52-1.48-.24-2.23L326,955c-.76-.76-1.63-.86-2.24-.24S323.21,956.26,324,957Z" style="fill:#fff"/><path d="M334.17,957.44l-1.58-1.58,5.44-5.44,1.58,1.58Z" style="fill:#fff"/><path d="M336.76,939.23l2.07-2.07.42,4.56,5.55,1.12L342.67,945l-3.72-.78.05.79,1.83,1.82L339,948.65l-8-8,1.84-1.85,4.36,4.36.1-.1Z" style="fill:#fff"/><path d="M342.88,939.85l-.92-.92c-1.59-1.6-1.51-3.67.22-5.39s3.8-1.82,5.39-.22l.92.92c1.59,1.59,1.51,3.67-.22,5.39S344.48,941.44,342.88,939.85Zm.94-2.68.82.82c.76.76,1.63.86,2.24.25s.51-1.48-.25-2.24l-.82-.82c-.76-.76-1.62-.86-2.23-.25S343.06,936.41,343.82,937.17Z" style="fill:#fff"/><path d="M349.41,933.34l-1-1c-1.64-1.64-1.81-3.25-.48-4.58a2,2,0,0,1,2.68-.41l.12-.11-3.22-3.22,1.94-2,8,8-1.93,1.93L354.51,931l-.12.12a2,2,0,0,1-.4,2.71C352.66,935.15,351.05,935,349.41,933.34Zm3.77-3.74-1-1a1.32,1.32,0,1,0-1.86,1.86l1,1a1.25,1.25,0,0,0,1.94.08A1.24,1.24,0,0,0,353.18,929.6Z" style="fill:#fff"/><path d="M356.93,927.35c-1.06-1.06-.89-2.47.51-4.1l1.11-1.28-.44-.44a.88.88,0,0,0-1.32.11,1.11,1.11,0,0,0-.31,1.26l-1.79,1.79c-1-1.24-.72-3,.8-4.47s3.2-1.75,4.5-.45l3.94,3.94-1.75,1.74-.72-.72-.16.16a2.51,2.51,0,0,1-.77,2.4A2.41,2.41,0,0,1,356.93,927.35Zm2.95-4.05-.27-.27-.77.91c-.53.62-.6,1.11-.24,1.47s.81.26,1.23-.16A1.29,1.29,0,0,0,359.88,923.3Z" style="fill:#fff"/><path d="M363.23,912.76l2.07-2.08.43,4.57,5.54,1.12-2.13,2.13-3.72-.78.06.79,1.82,1.82-1.84,1.85-8-8,1.84-1.84,4.36,4.36.1-.1Z" style="fill:#fff"/></g><g style="isolation:isolate"><path d="M355.75,992.76l1,1c1.63,1.63,1.8,3.25.47,4.58a2,2,0,0,1-2.68.4l-.12.11,3,3-1.94,1.94L347.66,996l1.93-1.93,1.07,1.07.11-.12a2,2,0,0,1,.4-2.71C352.5,991,354.11,991.12,355.75,992.76ZM352,996.51l1,1a1.24,1.24,0,0,0,1.94.08,1.25,1.25,0,0,0-.08-1.94l-1-1a1.32,1.32,0,1,0-1.86,1.87Z" style="fill:#fff"/><path d="M352,987.23l1.81-1.81,3.15,3.15.1-.1a2.43,2.43,0,0,1,.64-2.8c1.26-1.26,2.74-1.18,4.16.23l3.74,3.74-1.85,1.85-3.32-3.32c-.74-.74-1.42-.8-2-.19a1.39,1.39,0,0,0,.14,2.11l3.3,3.3L360,995.24Z" style="fill:#fff"/><path d="M364.2,986.17l-.92-.91c-1.6-1.6-1.51-3.67.22-5.4s3.79-1.81,5.39-.21l.92.91c1.59,1.6,1.51,3.67-.22,5.4S365.79,987.77,364.2,986.17Zm.94-2.68.82.83c.76.75,1.62.85,2.24.24s.51-1.47-.25-2.23l-.82-.82c-.76-.76-1.63-.86-2.24-.25S364.38,982.74,365.14,983.49Z" style="fill:#fff"/><path d="M369,971.22l1.8,1.8,2-2,1.37,1.38-2,2,2.49,2.5a.71.71,0,0,0,1.09-.05l1.31-1.32,1.36,1.36L377,978.32c-1.69,1.69-2.73,1.77-4.16.35l-2.46-2.47-1.5,1.5-1.37-1.38,1.49-1.5-1.8-1.8Z" style="fill:#fff"/><path d="M377.43,972.94l-.91-.92c-1.6-1.6-1.51-3.67.21-5.39s3.8-1.81,5.4-.22l.91.92c1.6,1.59,1.51,3.67-.21,5.39S379,974.53,377.43,972.94Zm.95-2.68.82.82c.76.76,1.62.86,2.23.25s.51-1.48-.24-2.24l-.83-.82c-.76-.76-1.62-.86-2.23-.25S377.62,969.5,378.38,970.26Z" style="fill:#fff"/><path d="M388.58,970.67,387,969.09l5.43-5.43,1.58,1.58Z" style="fill:#fff"/><path d="M388.81,951.37l1.81,1.8,2-2,1.38,1.38-2,2,2.5,2.5a.71.71,0,0,0,1.08,0l1.32-1.32,1.35,1.36-1.48,1.48c-1.68,1.68-2.72,1.77-4.15.34l-2.47-2.46-1.49,1.49-1.38-1.37,1.5-1.5-1.81-1.8Z" style="fill:#fff"/><path d="M403.59,948.26c1,1.14.66,3-.79,4.49-1.78,1.78-3.73,1.85-5.38.19l-1-1c-1.53-1.52-1.43-3.65.24-5.32a3.46,3.46,0,0,1,5.15-.12l.94.94-3.61,3.62.36.36a1.29,1.29,0,0,0,1.93,0,1.26,1.26,0,0,0,.39-1.47ZM398.11,950l1.86-1.85a1.32,1.32,0,0,0-2-.18A1.33,1.33,0,0,0,398.11,950Z" style="fill:#fff"/><path d="M406.49,941.45c-.72-.56-1.23-.56-1.77,0s-.41,1.46.55,2.41l.31.32c1,1,1.82,1.15,2.42.55s.55-1,0-1.7l1.81-1.81q2.08,2.43-.43,4.93c-1.82,1.82-3.76,1.82-5.59,0l-.52-.52c-1.83-1.84-1.83-3.77,0-5.59s3.31-1.8,5-.36Z" style="fill:#fff"/><path d="M407.2,936.44l1.8-1.81.94,1,.1-.1a2.39,2.39,0,0,1,.6-2.76c1.27-1.27,2.71-1.18,4.14.25l3.77,3.76-1.86,1.86-3.35-3.35c-.74-.75-1.38-.81-2-.21a1.34,1.34,0,0,0,.18,2.05l3.33,3.33L413,942.26Z" style="fill:#fff"/><path d="M413.42,926.09a1.67,1.67,0,1,1,2.18-.16A1.44,1.44,0,0,1,413.42,926.09Zm6.38,9.39-1.38-1.38,1.78-1.78-3.06-3.06-1.63,1.62-1.38-1.38,3.41-3.41,4.44,4.44,1.64-1.63,1.38,1.38Z" style="fill:#fff"/><path d="M426.35,921.6c-.72-.56-1.23-.56-1.77,0s-.41,1.45.54,2.41l.32.31c1,1,1.81,1.15,2.41.55s.56-1,0-1.7l1.81-1.8q2.07,2.42-.43,4.93c-1.83,1.82-3.76,1.82-5.59,0l-.53-.53c-1.83-1.83-1.83-3.77,0-5.59s3.31-1.79,5-.36Z" style="fill:#fff"/><path d="M430.88,912.76l2.07-2.08.42,4.57,5.54,1.12-2.13,2.13-3.71-.78.05.79,1.83,1.82-1.85,1.85-8-8,1.85-1.84,4.36,4.36.1-.1Z" style="fill:#fff"/></g><g style="isolation:isolate"><path d="M411.42,1006l1,1c1.63,1.64,1.8,3.25.47,4.58a2,2,0,0,1-2.68.4l-.12.12,3,3-1.94,1.94-7.75-7.75,1.93-1.93,1.07,1.06.11-.11a2,2,0,0,1,.4-2.71C408.17,1004.19,409.78,1004.36,411.42,1006Zm-3.77,3.74,1,1a1.32,1.32,0,1,0,1.86-1.86l-1-1a1.32,1.32,0,1,0-1.86,1.86Z" style="fill:#fff"/><path d="M407.71,1000.47l1.81-1.81,3.15,3.14.1-.09a2.43,2.43,0,0,1,.64-2.8c1.26-1.26,2.74-1.19,4.15.23l3.75,3.74-1.85,1.85-3.32-3.33c-.74-.73-1.42-.79-2-.19a1.39,1.39,0,0,0,.14,2.11l3.3,3.3-1.85,1.85Z" style="fill:#fff"/><path d="M419.87,999.41l-.92-.91c-1.6-1.6-1.51-3.67.22-5.4s3.79-1.81,5.39-.22l.92.92c1.59,1.6,1.51,3.67-.22,5.4S421.46,1001,419.87,999.41Zm.94-2.68.82.82c.76.76,1.62.86,2.23.25s.52-1.48-.24-2.24l-.82-.82c-.76-.76-1.63-.86-2.24-.24S420.05,996,420.81,996.73Z" style="fill:#fff"/><path d="M424.63,984.46l1.8,1.8,2-2,1.37,1.37-2,2,2.49,2.5a.7.7,0,0,0,1.08-.05l1.32-1.32,1.36,1.36-1.48,1.48c-1.69,1.68-2.73,1.77-4.16.34L426,989.44l-1.5,1.49-1.38-1.37,1.5-1.5-1.8-1.8Z" style="fill:#fff"/><path d="M433.1,986.17l-.91-.91c-1.6-1.6-1.52-3.67.21-5.4s3.8-1.81,5.4-.21l.91.91c1.6,1.6,1.51,3.67-.21,5.4S434.7,987.77,433.1,986.17Zm.94-2.67.83.82a1.49,1.49,0,0,0,2.23.24c.61-.61.51-1.47-.25-2.23l-.82-.82c-.76-.76-1.62-.86-2.23-.25S433.29,982.74,434,983.5Z" style="fill:#fff"/><path d="M444.25,983.91l-1.58-1.58,5.43-5.43,1.58,1.58Z" style="fill:#fff"/><path d="M453.81,970.38l-1.55,1.54-4.18-2.9-.05.05,2.9,4.18-1.54,1.55-6.93-4.72,1.75-1.75,4,3.57.25-.25-3.34-4.13,1.46-1.46,4.13,3.34.25-.25-3.58-3.95,1.76-1.75Z" style="fill:#fff"/><path d="M449.24,959.18a1.67,1.67,0,1,1,2.17-.16A1.44,1.44,0,0,1,449.24,959.18Zm6.38,9.39-1.39-1.38,1.78-1.78L453,962.35,451.32,964l-1.38-1.38,3.41-3.41,4.45,4.44,1.64-1.63,1.38,1.38Z" style="fill:#fff"/><path d="M460.07,952.46l2.07-2.07.43,4.57,5.54,1.12L466,958.21l-3.72-.78.06.78,1.82,1.83-1.84,1.85-8-8,1.85-1.84,4.36,4.35.1-.1Z" style="fill:#fff"/><path d="M462.47,945.94a1.67,1.67,0,1,1,2.18-.16A1.44,1.44,0,0,1,462.47,945.94Zm6.38,9.39L467.47,954l1.78-1.78-3.06-3.06-1.63,1.63-1.38-1.38,3.41-3.41,4.44,4.44,1.64-1.64,1.38,1.38Z" style="fill:#fff"/><path d="M477.6,939.81l1,1c1.64,1.64,1.8,3.25.47,4.58a2,2,0,0,1-2.68.4l-.12.12,3,3-1.94,1.94L469.51,943l1.93-1.93,1.07,1.06.11-.11a2,2,0,0,1,.4-2.71C474.35,938,476,938.18,477.6,939.81Zm-3.77,3.75,1,1a1.32,1.32,0,1,0,1.86-1.87l-1-1a1.24,1.24,0,0,0-1.94-.08A1.25,1.25,0,0,0,473.83,943.56Z" style="fill:#fff"/><path d="M485.73,935c1,1.15.66,3.05-.79,4.5-1.77,1.77-3.73,1.84-5.38.19l-1-1c-1.53-1.52-1.43-3.65.24-5.32a3.47,3.47,0,0,1,5.15-.11l.94.94-3.61,3.61.36.36a1.3,1.3,0,0,0,1.94,0,1.25,1.25,0,0,0,.38-1.46Zm-5.47,1.78,1.85-1.85a1.32,1.32,0,1,0-1.85,1.85Z" style="fill:#fff"/><path d="M486,933.34l-.95-1c-1.64-1.64-1.81-3.25-.48-4.58a2,2,0,0,1,2.68-.4l.12-.12-3.22-3.22,1.94-2,8,8-1.93,1.93L491.05,931l-.11.12a2,2,0,0,1-.4,2.71C489.21,935.15,487.6,935,486,933.34Zm3.77-3.74-1-1a1.32,1.32,0,1,0-1.87,1.86l1,1a1.32,1.32,0,1,0,1.86-1.86Z" style="fill:#fff"/><path d="M488.94,919.47a1.67,1.67,0,1,1,2.18-.16A1.44,1.44,0,0,1,488.94,919.47Zm6.38,9.39-1.38-1.38,1.78-1.78-3.06-3.06L491,924.27l-1.38-1.38,3.41-3.42,4.45,4.45,1.63-1.64,1.39,1.38Z" style="fill:#fff"/><path d="M500.1,920.74c-1.06-1.07-.89-2.48.51-4.11l1.11-1.28-.44-.43A.88.88,0,0,0,500,915a1.1,1.1,0,0,0-.31,1.25l-1.79,1.79c-1-1.23-.72-2.94.8-4.47s3.2-1.75,4.5-.45l3.94,3.94-1.75,1.75-.72-.73-.16.16a2.52,2.52,0,0,1-.77,2.4A2.42,2.42,0,0,1,500.1,920.74Zm2.95-4.06-.27-.27-.78.91q-.78.93-.24,1.47c.33.33.82.27,1.24-.16A1.29,1.29,0,0,0,503.05,916.68Z" style="fill:#fff"/></g><g style="isolation:isolate"><path d="M540.73,946.43l1,1c1.64,1.64,1.81,3.25.48,4.58a2,2,0,0,1-2.69.4l-.11.12,3,3-1.94,1.95-7.75-7.75,1.93-1.94,1.07,1.07.11-.11a2,2,0,0,1,.4-2.71C537.48,944.63,539.09,944.79,540.73,946.43ZM537,950.18l1,1a1.32,1.32,0,1,0,1.86-1.86l-1-1a1.32,1.32,0,1,0-1.87,1.86Z" style="fill:#fff"/><path d="M539.23,943.05l1.8-1.8,1,1,.1-.1a2.38,2.38,0,0,1,.6-2.76c1.26-1.27,2.71-1.18,4.14.25l3.76,3.76-1.85,1.85-3.35-3.34c-.74-.75-1.38-.82-2-.21a1.35,1.35,0,0,0,.19,2.05l3.33,3.33-1.85,1.85Z" style="fill:#fff"/><path d="M552,942.88l1.8-1.8c.4.24,1,0,1.51-.49.7-.7.75-1.37.14-2l-1.29-1.28-.11.12a2.27,2.27,0,0,1-.55,2.86c-1.34,1.34-3,1.18-4.62-.44l-.78-.79c-1.64-1.64-1.76-3.29-.34-4.71a2.23,2.23,0,0,1,2.8-.51l.11-.12-1-1,1.8-1.81,5.82,5.82c1.35,1.35,1.06,3.34-.74,5.14C554.84,943.48,553.12,943.88,552,942.88Zm.79-4.87a1.31,1.31,0,0,0,0-2l-.86-.86a1.39,1.39,0,1,0-2,2l.86.86A1.31,1.31,0,0,0,552.75,938Z" style="fill:#fff"/><path d="M552.08,926.09a1.67,1.67,0,1,1,2.17-.16A1.43,1.43,0,0,1,552.08,926.09Zm6.38,9.39-1.39-1.38,1.78-1.78-3.06-3.06-1.62,1.62-1.39-1.38,3.42-3.41,4.44,4.44,1.64-1.63,1.38,1.38Z" style="fill:#fff"/><path d="M570.73,923.21l-1.54,1.53-4-4a.54.54,0,1,0-.76.77l4,4-1.51,1.5-4-4a.54.54,0,1,0-.76.77l4,4-1.54,1.53-5.82-5.82,1.6-1.6,1,1,.2-.2a1.55,1.55,0,0,1,0-2.19,1.48,1.48,0,0,1,2,0l.2-.2a1.47,1.47,0,0,1,0-2c.65-.64,1.49-.54,2.32.29Z" style="fill:#fff"/><path d="M571.81,923l1.8-1.8c.4.24,1,.06,1.52-.48.7-.71.74-1.37.13-2L574,917.48l-.12.11a2.28,2.28,0,0,1-.55,2.87c-1.34,1.34-3,1.18-4.61-.45l-.79-.78c-1.64-1.64-1.76-3.29-.34-4.72a2.24,2.24,0,0,1,2.8-.51l.11-.11-1-1,1.81-1.8,5.81,5.81c1.35,1.35,1.07,3.34-.73,5.14C574.69,923.63,573,924,571.81,923Zm.8-4.86a1.32,1.32,0,0,0,0-2l-.87-.87a1.39,1.39,0,1,0-2,2l.86.86A1.32,1.32,0,0,0,572.61,918.16Z" style="fill:#fff"/></g><g style="isolation:isolate"><path d="M544.47,1006.34c1.56-1.56,3.1-1.8,4.31-.67l-1.73,1.72c-.35-.28-.84-.17-1.28.26s-.5.89-.22,1.16.59.2,1.13-.16l1.15-.78c1.46-1,2.49-1,3.4-.1,1.24,1.24,1,3-.62,4.66s-3.23,1.92-4.44.83l1.81-1.8c.37.26.84.13,1.34-.36s.54-.91.26-1.19-.53-.18-1.16.23l-1.06.7c-1.36.89-2.53.88-3.47-.06C542.69,1009.58,542.91,1007.9,544.47,1006.34Z" style="fill:#fff"/><path d="M554.42,1001c-.72-.55-1.23-.55-1.77,0s-.41,1.46.55,2.42l.32.31c1,1,1.81,1.15,2.41.55s.55-1,0-1.7l1.81-1.81q2.09,2.43-.43,4.93c-1.82,1.82-3.76,1.82-5.59,0l-.52-.52c-1.83-1.83-1.83-3.77,0-5.59s3.31-1.79,5-.36Z" style="fill:#fff"/><path d="M562.44,997.82l1.6-1.6,1.26,1.25-4.42,4.43-1.26-1.26,1.06-1.06-3.31-3.31-1.17,1.16L555,996.18l2.94-2.94,1.5,1.49.3-.31c-.91-1.49-.86-2.45.22-3.52a3.46,3.46,0,0,1,.94-.71l1.88,1.88a4,4,0,0,0-1.15.81c-1.44,1.44-1.58,2.51-.46,3.63Z" style="fill:#fff"/><path d="M571.37,988c1,1.14.66,3-.79,4.49-1.77,1.78-3.72,1.84-5.38.19l-1-1c-1.52-1.52-1.42-3.65.25-5.32a3.46,3.46,0,0,1,5.15-.12l.94.94L567,990.81l.36.36a1.3,1.3,0,0,0,1.94,0,1.26,1.26,0,0,0,.38-1.47Zm-5.47,1.78,1.85-1.86a1.31,1.31,0,0,0-2-.17A1.33,1.33,0,0,0,565.9,989.75Z" style="fill:#fff"/><path d="M578,981.35c1,1.15.66,3-.79,4.49-1.77,1.78-3.73,1.85-5.38.19l-1-1c-1.52-1.52-1.43-3.65.24-5.32a3.47,3.47,0,0,1,5.15-.12l1,.94-3.62,3.62.36.36a1.3,1.3,0,0,0,1.94,0,1.25,1.25,0,0,0,.38-1.46Zm-5.47,1.78,1.85-1.85c-.68-.68-1.42-.75-2-.18A1.32,1.32,0,0,0,572.52,983.13Z" style="fill:#fff"/><path d="M575,976.14l1.8-1.8,1,.95.1-.1a2.38,2.38,0,0,1,.59-2.76c1.27-1.27,2.71-1.18,4.15.25l3.76,3.76-1.85,1.85L581.13,975c-.74-.75-1.39-.82-2-.21a1.36,1.36,0,0,0,.18,2l3.33,3.33L580.8,982Z" style="fill:#fff"/><path d="M584.18,966.63c1.56-1.56,3.1-1.8,4.3-.67l-1.72,1.72c-.35-.27-.84-.17-1.28.27s-.5.88-.22,1.15.59.2,1.13-.16l1.15-.77c1.46-1,2.49-1,3.4-.1,1.24,1.24,1,3-.62,4.65s-3.23,1.92-4.44.83l1.8-1.8c.38.26.85.14,1.34-.36s.55-.91.27-1.18-.53-.19-1.16.22l-1.06.7c-1.36.89-2.54.88-3.47-.06C582.4,969.88,582.62,968.19,584.18,966.63Z" style="fill:#fff"/><path d="M586,960.76l1.81-1.81L591,962.1l.1-.1a2.44,2.44,0,0,1,.64-2.8c1.27-1.26,2.75-1.19,4.16.23l3.74,3.74L597.76,965l-3.33-3.33c-.73-.73-1.41-.79-2-.19a1.4,1.4,0,0,0,.14,2.11l3.31,3.31L594,968.76Z" style="fill:#fff"/><path d="M598.16,959.7l-.91-.91c-1.6-1.6-1.52-3.67.21-5.4s3.8-1.81,5.4-.21l.91.91c1.6,1.6,1.52,3.67-.21,5.4S599.76,961.3,598.16,959.7Zm.94-2.68.83.82c.75.76,1.62.86,2.23.25s.51-1.48-.25-2.23l-.82-.83c-.76-.75-1.62-.85-2.23-.24S598.35,956.26,599.1,957Z" style="fill:#fff"/><path d="M602.92,944.75l1.81,1.8,2-2,1.38,1.37-2,2,2.5,2.5a.7.7,0,0,0,1.08,0l1.32-1.32,1.35,1.36-1.48,1.48c-1.68,1.68-2.72,1.77-4.15.34l-2.47-2.46-1.49,1.5-1.38-1.38,1.5-1.5-1.81-1.8Z" style="fill:#fff"/><path d="M615.93,950.82l-1.58-1.58,5.43-5.43,1.58,1.58Z" style="fill:#fff"/><path d="M620.79,942.88l1.81-1.8c.39.24,1,0,1.51-.49.7-.7.75-1.37.13-2L623,937.33l-.11.11a2.29,2.29,0,0,1-.56,2.87c-1.34,1.34-3,1.18-4.61-.44l-.78-.79c-1.65-1.64-1.77-3.29-.34-4.71a2.22,2.22,0,0,1,2.79-.51l.12-.12-1-1,1.8-1.81,5.81,5.82c1.35,1.35,1.07,3.33-.73,5.14C623.67,943.48,622,943.88,620.79,942.88Zm.8-4.87a1.31,1.31,0,0,0,0-2l-.86-.86a1.39,1.39,0,1,0-2,2l.86.86A1.31,1.31,0,0,0,621.59,938Z" style="fill:#fff"/><path d="M625.45,934c-1.06-1.06-.89-2.47.51-4.1l1.11-1.28-.44-.44a.88.88,0,0,0-1.32.11,1.1,1.1,0,0,0-.31,1.25l-1.79,1.8c-1-1.24-.72-2.95.8-4.47s3.2-1.75,4.5-.45l3.94,3.93-1.75,1.75-.72-.72-.16.16a2.48,2.48,0,0,1-.77,2.39A2.41,2.41,0,0,1,625.45,934Zm2.95-4.05-.27-.27-.77.91c-.53.62-.61,1.1-.24,1.47s.81.26,1.23-.16A1.29,1.29,0,0,0,628.4,929.92Z" style="fill:#fff"/><path d="M639.56,923.21,638,924.74l-4-4a.56.56,0,0,0-.81,0,.55.55,0,0,0,.05.81l4,4-1.51,1.5-4-4a.55.55,0,0,0-.81,0,.54.54,0,0,0,.05.81l4,4-1.53,1.53-5.82-5.82,1.59-1.6,1,1,.19-.2a1.56,1.56,0,0,1,0-2.19,1.49,1.49,0,0,1,2,0l.2-.2a1.47,1.47,0,0,1,0-2c.65-.64,1.48-.54,2.32.29Z" style="fill:#fff"/><path d="M644.17,915.17c1,1.14.66,3-.79,4.49-1.77,1.78-3.72,1.84-5.38.19l-1-1c-1.52-1.52-1.42-3.65.25-5.32a3.45,3.45,0,0,1,5.14-.12l1,.94L639.76,918l.36.36a1.3,1.3,0,0,0,1.94,0,1.26,1.26,0,0,0,.38-1.47ZM638.7,917l1.85-1.86a1.31,1.31,0,0,0-2-.17A1.33,1.33,0,0,0,638.7,917Z" style="fill:#fff"/></g><g style="isolation:isolate"><path d="M619.92,999.72c1.56-1.56,3.1-1.8,4.3-.67l-1.72,1.72c-.36-.27-.85-.17-1.28.27s-.5.88-.23,1.15.6.2,1.13-.16l1.16-.78c1.46-1,2.49-1,3.4-.09,1.24,1.24,1,3-.63,4.65s-3.22,1.92-4.43.83l1.8-1.8c.38.26.85.13,1.34-.36s.55-.91.27-1.19-.54-.18-1.16.23l-1.07.7c-1.36.89-2.53.88-3.47-.05C618.14,1003,618.36,1001.28,619.92,999.72Z" style="fill:#fff"/><path d="M629.87,994.4c-.72-.57-1.23-.56-1.77,0s-.41,1.45.55,2.41l.31.31c1,1,1.81,1.15,2.41.55s.56-1,0-1.7l1.81-1.81q2.07,2.43-.43,4.93c-1.82,1.82-3.76,1.83-5.59,0l-.53-.52c-1.83-1.83-1.83-3.77,0-5.59s3.32-1.79,5-.36Z" style="fill:#fff"/><path d="M637.88,991.2l1.61-1.6,1.26,1.25-4.43,4.43L635.07,994l1-1.06-3.31-3.31-1.16,1.16-1.26-1.25,2.94-2.94,1.5,1.49.31-.31c-.92-1.49-.86-2.45.22-3.52a3.32,3.32,0,0,1,.94-.71l1.88,1.88a4,4,0,0,0-1.15.81c-1.45,1.44-1.58,2.51-.46,3.63Z" style="fill:#fff"/><path d="M646.82,981.35c1,1.14.66,3-.79,4.49-1.78,1.78-3.73,1.85-5.38.19l-1-1c-1.53-1.52-1.43-3.65.24-5.32a3.46,3.46,0,0,1,5.15-.12l.94.94-3.61,3.62.36.36a1.3,1.3,0,0,0,1.93,0,1.26,1.26,0,0,0,.39-1.47Zm-5.48,1.78,1.86-1.86a1.32,1.32,0,0,0-2-.17A1.33,1.33,0,0,0,641.34,983.13Z" style="fill:#fff"/><path d="M653.44,974.73c1,1.15.66,3-.79,4.49-1.78,1.78-3.73,1.85-5.38.19l-1-1c-1.52-1.52-1.42-3.65.25-5.32a3.47,3.47,0,0,1,5.15-.12l.94,1L649,977.57l.36.36a1.29,1.29,0,0,0,1.93,0,1.24,1.24,0,0,0,.39-1.46ZM648,976.51l1.85-1.85a1.3,1.3,0,0,0-2-.18A1.33,1.33,0,0,0,648,976.51Z" style="fill:#fff"/><path d="M650.43,969.52l1.8-1.8.94.95.1-.1a2.39,2.39,0,0,1,.6-2.76c1.27-1.27,2.71-1.18,4.14.25l3.77,3.76-1.86,1.86-3.35-3.35c-.74-.75-1.38-.82-2-.21a1.35,1.35,0,0,0,.18,2l3.33,3.33-1.85,1.85Z" style="fill:#fff"/><path d="M659.62,960c1.57-1.56,3.11-1.8,4.31-.67l-1.73,1.72c-.35-.27-.84-.17-1.27.27s-.5.88-.23,1.15.6.2,1.13-.15l1.16-.78c1.45-1,2.48-1,3.4-.1,1.24,1.24,1,3-.63,4.65s-3.23,1.92-4.43.84l1.8-1.81c.38.26.85.14,1.34-.36s.54-.91.27-1.18-.54-.19-1.16.22l-1.07.7c-1.36.89-2.53.88-3.47,0C657.84,963.26,658.06,961.57,659.62,960Z" style="fill:#fff"/><path d="M661.45,954.14l1.81-1.81,3.15,3.15.1-.1a2.43,2.43,0,0,1,.64-2.8c1.26-1.26,2.75-1.18,4.16.23l3.74,3.74-1.85,1.85-3.32-3.33c-.73-.73-1.41-.79-2-.18A1.38,1.38,0,0,0,668,957l3.3,3.31-1.84,1.84Z" style="fill:#fff"/><path d="M673.61,953.08l-.92-.91c-1.59-1.6-1.51-3.67.22-5.4s3.8-1.81,5.39-.21l.92.91c1.59,1.6,1.51,3.67-.22,5.4S675.21,954.68,673.61,953.08Zm.94-2.68.82.82c.76.76,1.63.86,2.24.25s.51-1.48-.25-2.23l-.82-.83c-.76-.75-1.62-.85-2.24-.24S673.79,949.64,674.55,950.4Z" style="fill:#fff"/><path d="M678.37,938.13l1.8,1.8,2-2,1.38,1.37-2,2,2.49,2.5a.71.71,0,0,0,1.09,0l1.32-1.32,1.35,1.36-1.48,1.48c-1.68,1.68-2.73,1.77-4.15.35l-2.47-2.47-1.5,1.5-1.37-1.38,1.49-1.5-1.8-1.8Z" style="fill:#fff"/><path d="M691.38,944.2l-1.58-1.58,5.43-5.43,1.58,1.58Z" style="fill:#fff"/><path d="M700.93,930.67l-1.54,1.54-4.19-2.9,0,.05,2.9,4.18-1.55,1.55-6.92-4.72,1.74-1.75,3.95,3.57.26-.25-3.34-4.13,1.45-1.46,4.14,3.34.25-.25-3.58-4,1.75-1.75Z" style="fill:#fff"/><path d="M706.38,921.78c1,1.15.66,3.05-.79,4.5-1.77,1.77-3.72,1.84-5.38.19l-1-1c-1.52-1.52-1.42-3.65.25-5.32a3.45,3.45,0,0,1,5.14-.11l1,.94L702,924.63l.36.36a1.31,1.31,0,0,0,1.94,0,1.27,1.27,0,0,0,.38-1.47Zm-5.47,1.78,1.85-1.85a1.32,1.32,0,1,0-1.85,1.85Z" style="fill:#fff"/><path d="M710.2,919.27l-.12.11,1.07,1.07-1.93,1.93-8-8,1.94-2,3.23,3.23.11-.12a2,2,0,0,1,.4-2.68c1.33-1.33,2.94-1.16,4.58.47l1,1c1.64,1.64,1.81,3.25.48,4.58A2,2,0,0,1,710.2,919.27Zm.35-3.07-1-1a1.26,1.26,0,0,0-2-.08,1.25,1.25,0,0,0,.09,1.94l1,1a1.32,1.32,0,1,0,1.87-1.86Z" style="fill:#fff"/></g><g style="isolation:isolate"><path d="M687.17,997.69,689,999.5l2-2,1.38,1.38-2,2,2.5,2.49a.7.7,0,0,0,1.08,0l1.32-1.32,1.35,1.35-1.48,1.48c-1.68,1.69-2.72,1.78-4.15.35l-2.47-2.47-1.49,1.5-1.38-1.38,1.5-1.49-1.81-1.81Z" style="fill:#fff"/><path d="M702,994.58c1,1.15.66,3-.79,4.5-1.78,1.78-3.73,1.84-5.38.19l-1-1c-1.53-1.53-1.43-3.66.24-5.33a3.47,3.47,0,0,1,5.15-.11l.94.94-3.61,3.62.36.36a1.3,1.3,0,0,0,1.93,0,1.26,1.26,0,0,0,.39-1.47Zm-5.48,1.79,1.86-1.86a1.32,1.32,0,0,0-2-.17A1.33,1.33,0,0,0,696.47,996.37Z" style="fill:#fff"/><path d="M705.65,990.75l.85,2.72-1.93,1.93-1.12-4.61-4.71-1.21,2.1-2.1,2.67,1,.1-.1-1-2.68,2-2,1.12,4.64,4.71,1.17-2,2-2.72-.85Z" style="fill:#fff"/><path d="M707,977.84l1.8,1.8,2-2,1.37,1.37-2,2,2.49,2.5a.7.7,0,0,0,1.08-.05l1.32-1.32,1.36,1.36L715,984.94c-1.69,1.68-2.73,1.77-4.16.35l-2.46-2.47-1.5,1.5-1.37-1.38,1.49-1.5-1.8-1.8Z" style="fill:#fff"/><path d="M723.52,976.44l-1.8,1.8-.94-1-.1.1a2.4,2.4,0,0,1-.6,2.77c-1.26,1.26-2.71,1.18-4.14-.25l-3.76-3.77,1.85-1.85,3.35,3.35c.74.74,1.38.81,2,.21a1.35,1.35,0,0,0-.18-2.06l-3.33-3.32,1.85-1.85Z" style="fill:#fff"/><path d="M726.1,971.35l1.61-1.6L729,971l-4.42,4.42-1.25-1.25,1.05-1.06L721,969.8,719.87,971l-1.25-1.25,2.94-3,1.49,1.5.31-.31c-.91-1.49-.86-2.45.22-3.53a3.46,3.46,0,0,1,.94-.7l1.88,1.88a3.85,3.85,0,0,0-1.15.81c-1.44,1.44-1.58,2.51-.46,3.63Z" style="fill:#fff"/><path d="M735,961.49c1,1.15.66,3-.79,4.5-1.77,1.77-3.73,1.84-5.38.19l-1-1c-1.53-1.53-1.43-3.66.24-5.33a3.47,3.47,0,0,1,5.15-.11l.94.94-3.61,3.62.36.36a1.31,1.31,0,0,0,1.94,0,1.27,1.27,0,0,0,.38-1.47Zm-5.47,1.78,1.85-1.85a1.32,1.32,0,1,0-1.85,1.85Z" style="fill:#fff"/><path d="M734.61,953.4c1.56-1.57,3.1-1.81,4.31-.68l-1.73,1.73c-.35-.28-.84-.17-1.28.26s-.5.88-.22,1.16.59.19,1.13-.16l1.15-.78c1.46-1,2.49-1,3.4-.1,1.24,1.24,1,3-.62,4.65s-3.23,1.92-4.44.84l1.81-1.81c.37.27.84.14,1.34-.35s.54-.91.26-1.19-.53-.19-1.16.23l-1.06.7c-1.36.89-2.54.88-3.47-.06C732.83,956.64,733.05,955,734.61,953.4Z" style="fill:#fff"/><path d="M746.51,957.44l-1.58-1.58,5.43-5.44,1.58,1.59Z" style="fill:#fff"/><path d="M753.38,939.81l1,1c1.64,1.64,1.8,3.25.48,4.58a2,2,0,0,1-2.69.4l-.11.12,3,3L753,950.78,745.29,943l1.93-1.93,1.07,1.06.11-.11a2,2,0,0,1,.4-2.71C750.13,938,751.74,938.18,753.38,939.81Zm-3.77,3.75,1,1a1.32,1.32,0,1,0,1.86-1.87l-1-1a1.32,1.32,0,1,0-1.87,1.86Z" style="fill:#fff"/><path d="M749.67,934.28l1.81-1.81,3.15,3.15.1-.1a2.43,2.43,0,0,1,.64-2.79c1.26-1.27,2.75-1.19,4.16.23l3.74,3.74-1.85,1.84-3.32-3.32c-.73-.73-1.41-.79-2-.19a1.39,1.39,0,0,0,.14,2.11l3.3,3.3-1.84,1.85Z" style="fill:#fff"/><path d="M761.83,933.23l-.92-.92c-1.59-1.59-1.51-3.66.22-5.39s3.8-1.81,5.39-.22l.92.92c1.6,1.59,1.51,3.67-.22,5.4S763.42,934.83,761.83,933.23Zm.94-2.68.82.82c.76.76,1.63.86,2.24.25s.51-1.48-.25-2.24l-.82-.82c-.76-.76-1.62-.86-2.23-.24S762,929.79,762.77,930.55Z" style="fill:#fff"/><path d="M766.59,918.28l1.8,1.8,2-2,1.38,1.38-2,2,2.49,2.5a.72.72,0,0,0,1.09,0l1.32-1.32,1.35,1.35-1.48,1.49c-1.68,1.68-2.73,1.77-4.15.34L768,923.26l-1.5,1.49-1.37-1.37,1.49-1.5-1.8-1.8Z" style="fill:#fff"/><path d="M775.07,920l-.92-.91c-1.6-1.6-1.51-3.67.21-5.4s3.8-1.81,5.4-.21l.92.91c1.59,1.6,1.51,3.67-.22,5.4S776.66,921.59,775.07,920Zm.94-2.68.82.83c.76.75,1.62.85,2.23.24s.52-1.47-.24-2.23l-.82-.82c-.76-.76-1.63-.86-2.24-.25S775.25,916.56,776,917.31Z" style="fill:#fff"/></g><g style="isolation:isolate"><path d="M777.69,977.84l1.81,1.8,2-2,1.38,1.37-2,2,2.5,2.5a.7.7,0,0,0,1.08-.05l1.32-1.32,1.35,1.36-1.48,1.48c-1.68,1.68-2.72,1.77-4.15.35l-2.47-2.47-1.49,1.5-1.38-1.38,1.5-1.5-1.81-1.8Z" style="fill:#fff"/><path d="M792.47,974.73c1,1.15.66,3-.79,4.5-1.78,1.77-3.73,1.84-5.38.18l-1-1c-1.53-1.52-1.43-3.65.24-5.32a3.47,3.47,0,0,1,5.15-.12l.94,1-3.61,3.61.36.36a1.29,1.29,0,0,0,1.93,0,1.24,1.24,0,0,0,.39-1.46ZM787,976.51l1.86-1.85a1.33,1.33,0,1,0-1.86,1.85Z" style="fill:#fff"/><path d="M796.17,970.9l.85,2.71-1.93,1.93-1.12-4.6-4.72-1.21,2.11-2.11,2.67,1,.1-.1-1-2.67,2-2,1.12,4.65,4.71,1.17-2,2-2.72-.85Z" style="fill:#fff"/><path d="M797.55,958l1.8,1.81,2-2,1.37,1.38-2,2,2.49,2.49a.7.7,0,0,0,1.08,0l1.32-1.32L807,963.6l-1.48,1.48c-1.69,1.69-2.73,1.78-4.16.35L798.93,963l-1.5,1.5-1.37-1.38,1.49-1.49-1.8-1.81Z" style="fill:#fff"/><path d="M814,956.59l-1.79,1.8-1-.95-.1.1a2.38,2.38,0,0,1-.6,2.76c-1.27,1.27-2.71,1.19-4.14-.25l-3.77-3.76,1.86-1.85,3.35,3.35c.74.74,1.38.81,2,.21a1.35,1.35,0,0,0-.18-2.06l-3.33-3.33,1.85-1.85Z" style="fill:#fff"/><path d="M816.62,951.5l1.61-1.61,1.26,1.26-4.43,4.42-1.25-1.26,1.06-1-3.32-3.32-1.16,1.17-1.26-1.26,3-2.94,1.49,1.49.31-.3c-.92-1.49-.86-2.45.22-3.53a3.52,3.52,0,0,1,.94-.71l1.88,1.89a4,4,0,0,0-1.15.8c-1.44,1.45-1.58,2.51-.46,3.63Z" style="fill:#fff"/><path d="M825.56,941.64c1,1.15.66,3.05-.79,4.5-1.77,1.77-3.73,1.84-5.38.18l-1-1c-1.53-1.52-1.43-3.65.24-5.32a3.47,3.47,0,0,1,5.15-.12l.94,1-3.61,3.61.36.36a1.3,1.3,0,0,0,1.94,0,1.25,1.25,0,0,0,.38-1.46Zm-5.48,1.78,1.86-1.85c-.68-.68-1.42-.75-2-.18A1.33,1.33,0,0,0,820.08,943.42Z" style="fill:#fff"/><path d="M825.13,933.54c1.56-1.56,3.1-1.8,4.31-.67l-1.73,1.72c-.35-.27-.84-.17-1.28.27s-.5.88-.22,1.15.59.2,1.13-.16l1.15-.77c1.46-1,2.49-1,3.4-.1,1.24,1.24,1,3-.62,4.65s-3.23,1.92-4.44.83l1.8-1.8c.38.26.85.13,1.34-.36s.55-.91.27-1.18-.53-.19-1.16.22L828,938c-1.36.89-2.53.88-3.47-.06C823.35,936.79,823.57,935.1,825.13,933.54Z" style="fill:#fff"/><path d="M837,937.58,835.45,936l5.43-5.43,1.58,1.58Z" style="fill:#fff"/><path d="M843.9,920l1,1c1.64,1.64,1.81,3.25.48,4.58a2,2,0,0,1-2.69.4l-.11.11,3,3-1.94,1.94-7.75-7.75,1.93-1.93,1.07,1.07.11-.12a2,2,0,0,1,.4-2.71C840.65,918.15,842.26,918.32,843.9,920Zm-3.77,3.75,1,1a1.32,1.32,0,1,0,1.86-1.86l-1-1a1.33,1.33,0,1,0-1.87,1.87Z" style="fill:#fff"/><path d="M846.23,912.76l2.07-2.08.42,4.57,5.55,1.12-2.13,2.13-3.72-.78.05.79,1.83,1.82-1.85,1.85-8-8,1.84-1.84,4.36,4.36.1-.1Z" style="fill:#fff"/></g><g style="isolation:isolate"><path d="M834.37,991.08l1.81,1.8,2-2,1.38,1.38-2,2,2.5,2.49a.7.7,0,0,0,1.08,0l1.32-1.32,1.36,1.35-1.48,1.49c-1.69,1.68-2.73,1.77-4.16.34l-2.47-2.46-1.49,1.49-1.38-1.37,1.5-1.5-1.81-1.8Z" style="fill:#fff"/><path d="M849.15,988c1,1.14.66,3-.79,4.49-1.77,1.78-3.73,1.84-5.38.19l-1-1c-1.52-1.52-1.43-3.65.24-5.32a3.46,3.46,0,0,1,5.15-.12l1,.94-3.62,3.62.36.36a1.3,1.3,0,0,0,1.94,0,1.26,1.26,0,0,0,.38-1.47Zm-5.47,1.78,1.85-1.86a1.33,1.33,0,1,0-1.85,1.86Z" style="fill:#fff"/><path d="M852.85,984.13l.85,2.72-1.93,1.93-1.12-4.6L845.94,983l2.1-2.11,2.67,1,.1-.1-.95-2.68,2-2,1.12,4.64,4.71,1.18-2,2L853,984Z" style="fill:#fff"/><path d="M854.23,971.22,856,973l2-2,1.38,1.38-2,2,2.49,2.5a.71.71,0,0,0,1.09-.05l1.32-1.32,1.35,1.36-1.48,1.48c-1.69,1.69-2.73,1.77-4.15.35l-2.47-2.47-1.5,1.5-1.37-1.38,1.49-1.49-1.8-1.81Z" style="fill:#fff"/><path d="M870.73,969.82l-1.8,1.8-.95-.94-.1.1a2.39,2.39,0,0,1-.6,2.76c-1.26,1.27-2.71,1.18-4.14-.25l-3.76-3.76,1.85-1.86,3.35,3.35c.74.75,1.38.81,2,.21a1.35,1.35,0,0,0-.19-2.05l-3.33-3.33L864.9,964Z" style="fill:#fff"/><path d="M873.3,964.73l1.61-1.6,1.26,1.25-4.42,4.43-1.26-1.26,1.06-1.06-3.32-3.31-1.16,1.16-1.25-1.25,2.94-2.94,1.49,1.49.31-.31c-.91-1.49-.86-2.45.22-3.52a3.46,3.46,0,0,1,.94-.71L873.6,959a4,4,0,0,0-1.15.81c-1.44,1.44-1.58,2.51-.46,3.63Z" style="fill:#fff"/><path d="M882.24,954.88c1,1.14.66,3-.79,4.49-1.77,1.78-3.73,1.84-5.38.19l-1-1c-1.52-1.53-1.42-3.65.24-5.32a3.46,3.46,0,0,1,5.15-.12l1,.94-3.62,3.62.36.36a1.3,1.3,0,0,0,1.94,0,1.27,1.27,0,0,0,.38-1.47Zm-5.47,1.78,1.85-1.86a1.31,1.31,0,0,0-2-.17A1.33,1.33,0,0,0,876.77,956.66Z" style="fill:#fff"/><path d="M881.81,946.78c1.57-1.57,3.1-1.81,4.31-.68l-1.73,1.73c-.35-.28-.84-.17-1.28.26s-.49.89-.22,1.16.59.2,1.13-.16l1.15-.78c1.46-1,2.49-1,3.4-.1,1.24,1.24,1,3-.62,4.65s-3.23,1.92-4.44.84l1.81-1.8c.37.26.84.13,1.34-.36s.54-.91.26-1.19-.53-.19-1.15.23l-1.07.7c-1.36.89-2.53.88-3.47-.06C880,950,880.25,948.34,881.81,946.78Z" style="fill:#fff"/><path d="M893.71,950.82l-1.58-1.58,5.43-5.43,1.58,1.58Z" style="fill:#fff"/><path d="M900.58,933.2l1,.95c1.64,1.64,1.81,3.25.48,4.58a2,2,0,0,1-2.69.41l-.11.11,3,3-1.94,1.94-7.75-7.75,1.93-1.93,1.07,1.07.12-.12a2,2,0,0,1,.39-2.71C897.33,931.39,899,931.56,900.58,933.2Zm-3.77,3.74,1,1a1.26,1.26,0,0,0,1.95.08,1.25,1.25,0,0,0-.09-1.94l-1-1a1.32,1.32,0,1,0-1.87,1.86Z" style="fill:#fff"/><path d="M902.91,926l2.07-2.07.43,4.57L911,929.6l-2.13,2.13L905.1,931l.06.78,1.82,1.83-1.85,1.85-8-8,1.84-1.85,4.36,4.36.1-.1Z" style="fill:#fff"/><path d="M907.45,925.54c-2.5-2.5-2.82-5-.87-7s4.49-1.63,7,.87,2.82,5,.87,7S910,928,907.45,925.54Zm1.67-2,1-3.47c-.86-.48-1.57-.48-2.06,0C907.32,920.76,907.7,922,909.12,923.49Zm2.8-2-1,3.46c.86.47,1.56.48,2.06,0C913.7,924.2,913.33,923,911.92,921.49Z" style="fill:#fff"/><path d="M918.36,922.19l-1.49-1.49,1.88-1.89-4.33-4.32-.09.1-.56,3L912.12,916l.57-3.19,1.87-1.87,6.06,6.06,1.79-1.79,1.49,1.49Z" style="fill:#fff"/></g><g style="isolation:isolate"><path d="M902.69,991.07l1.81,1.81,2-2,1.38,1.38-2,2,2.5,2.49a.7.7,0,0,0,1.08,0l1.32-1.32,1.35,1.35-1.48,1.48c-1.68,1.69-2.72,1.78-4.15.35l-2.47-2.47-1.49,1.5-1.38-1.38,1.5-1.49-1.81-1.81Z" style="fill:#fff"/><path d="M917.47,988c1,1.15.66,3-.79,4.5-1.77,1.78-3.73,1.84-5.38.19l-1-1c-1.53-1.53-1.43-3.66.24-5.33a3.47,3.47,0,0,1,5.15-.11l.94.94-3.61,3.62.36.36a1.31,1.31,0,0,0,1.94,0,1.27,1.27,0,0,0,.38-1.47ZM912,989.75l1.85-1.86a1.33,1.33,0,1,0-1.85,1.86Z" style="fill:#fff"/><path d="M921.17,984.13l.85,2.72-1.93,1.93L919,984.17l-4.72-1.2,2.11-2.11,2.67,1,.1-.1-1-2.68,2-2,1.12,4.64,4.71,1.17-2,2-2.72-.85Z" style="fill:#fff"/><path d="M922.55,971.22l1.8,1.8,2-2,1.37,1.37-2,2,2.49,2.5a.7.7,0,0,0,1.08-.05l1.32-1.32,1.36,1.36-1.48,1.48c-1.69,1.68-2.73,1.77-4.16.35l-2.46-2.47-1.5,1.5-1.38-1.38,1.5-1.5-1.8-1.8Z" style="fill:#fff"/><path d="M939,969.82l-1.8,1.8-.94-.94-.1.09a2.4,2.4,0,0,1-.6,2.77c-1.26,1.26-2.71,1.18-4.14-.25l-3.76-3.76,1.85-1.86L932.9,971c.74.74,1.38.81,2,.21a1.35,1.35,0,0,0-.18-2.06l-3.33-3.32,1.85-1.85Z" style="fill:#fff"/><path d="M941.62,964.73l1.61-1.6,1.26,1.25-4.43,4.42-1.25-1.25,1.06-1.06-3.32-3.31-1.16,1.16-1.25-1.26,2.94-2.94,1.49,1.5.31-.31c-.92-1.49-.86-2.45.22-3.53a3.46,3.46,0,0,1,.94-.7l1.88,1.88a4,4,0,0,0-1.15.81c-1.44,1.44-1.58,2.51-.46,3.63Z" style="fill:#fff"/><path d="M950.56,954.88c1,1.14.66,3-.79,4.49-1.77,1.77-3.73,1.84-5.38.19l-1-1c-1.52-1.53-1.43-3.66.24-5.33a3.47,3.47,0,0,1,5.15-.11l.94.94-3.61,3.62.36.36a1.31,1.31,0,0,0,1.94,0,1.27,1.27,0,0,0,.38-1.47Zm-5.47,1.77,1.85-1.85a1.32,1.32,0,1,0-1.85,1.85Z" style="fill:#fff"/><path d="M950.13,946.78c1.56-1.57,3.1-1.81,4.31-.68l-1.73,1.73c-.35-.28-.84-.17-1.28.26s-.5.88-.22,1.16.59.19,1.13-.16l1.15-.78c1.46-1,2.49-1,3.4-.1,1.24,1.24,1,3-.62,4.65s-3.23,1.92-4.44.84l1.8-1.81c.38.27.85.14,1.34-.35s.55-.91.27-1.19-.53-.19-1.16.23l-1.06.7c-1.36.89-2.54.88-3.47-.06C948.35,950,948.57,948.33,950.13,946.78Z" style="fill:#fff"/><path d="M962,950.82l-1.58-1.58,5.43-5.43,1.58,1.58Z" style="fill:#fff"/><path d="M968.9,933.19l1,1c1.64,1.64,1.81,3.25.48,4.58a2,2,0,0,1-2.69.4l-.11.12,3,3-1.94,1.94-7.75-7.75,1.93-1.93,1.07,1.06.11-.11a2,2,0,0,1,.4-2.71C965.65,931.39,967.26,931.56,968.9,933.19Zm-3.77,3.75,1,1a1.32,1.32,0,1,0,1.86-1.87l-1-1a1.32,1.32,0,1,0-1.87,1.86Z" style="fill:#fff"/><path d="M971.23,926l2.07-2.07.42,4.57,5.55,1.11-2.13,2.13-3.72-.77.05.78,1.83,1.83-1.85,1.85-8-8,1.84-1.85,4.36,4.36.1-.1Z" style="fill:#fff"/><path d="M975.77,925.54c-2.5-2.5-2.82-5-.87-7s4.49-1.63,7,.87,2.82,5,.87,7S978.27,928,975.77,925.54Zm1.67-2,1-3.47c-.86-.48-1.57-.49-2.06,0C975.64,920.76,976,922,977.44,923.49Zm2.8-2-1,3.46c.86.47,1.56.48,2.06,0C982,924.2,981.65,923,980.24,921.49Z" style="fill:#fff"/><path d="M981.51,912c1.68-1.68,3.72-1.92,5.06-.58.85.85,1.1,2.11.94,4.61l-.15,2.34.1.1,3.18-3.19,1.5,1.5-5.74,5.74-1.29-1.28.2-4.58c.09-2.1,0-2.79-.46-3.24a1.31,1.31,0,0,0-2,.1,1.46,1.46,0,0,0,0,2.16l0,0-1.76,1.76,0,0C979.59,915.89,979.76,913.7,981.51,912Z" style="fill:#fff"/></g><g style="isolation:isolate"><path d="M958.4,1004.31l1.81,1.81,2-2,1.38,1.38-2,2,2.49,2.49a.71.71,0,0,0,1.09-.05l1.32-1.31,1.35,1.35-1.48,1.48c-1.68,1.69-2.72,1.78-4.15.35l-2.47-2.47-1.49,1.5-1.38-1.38,1.5-1.49-1.81-1.81Z" style="fill:#fff"/><path d="M973.18,1001.2c1,1.15.66,3-.79,4.5-1.78,1.77-3.73,1.84-5.38.19l-1-1c-1.52-1.52-1.42-3.65.25-5.32a3.47,3.47,0,0,1,5.15-.11l.94.94-3.61,3.61.36.37a1.3,1.3,0,0,0,1.93,0,1.26,1.26,0,0,0,.39-1.47ZM967.7,1003l1.86-1.85a1.33,1.33,0,1,0-1.86,1.85Z" style="fill:#fff"/><path d="M976.88,997.37l.85,2.71L975.8,1002l-1.12-4.61L970,996.2l2.11-2.11,2.67,1,.1-.1-1-2.68,2-2,1.12,4.65,4.71,1.17-2,2-2.73-.85Z" style="fill:#fff"/><path d="M978.25,984.46l1.81,1.8,2-2,1.37,1.37-2,2,2.5,2.5a.71.71,0,0,0,1.08-.05l1.32-1.32,1.36,1.36-1.48,1.48c-1.69,1.68-2.73,1.77-4.16.34l-2.46-2.46-1.5,1.49-1.38-1.37,1.5-1.5-1.8-1.8Z" style="fill:#fff"/><path d="M994.75,983.06l-1.8,1.8-1-1-.09.1a2.4,2.4,0,0,1-.6,2.77c-1.27,1.26-2.71,1.18-4.14-.26l-3.77-3.76,1.86-1.85,3.34,3.35c.75.74,1.39.81,2,.21a1.36,1.36,0,0,0-.18-2.06l-3.33-3.33,1.85-1.84Z" style="fill:#fff"/><path d="M997.33,978l1.61-1.61,1.25,1.26L995.77,982l-1.25-1.25,1.05-1.06-3.31-3.31-1.16,1.16-1.26-1.26,2.94-2.94,1.5,1.5.31-.31c-.92-1.49-.86-2.45.22-3.53a3.46,3.46,0,0,1,.94-.7l1.88,1.88a3.85,3.85,0,0,0-1.15.81c-1.45,1.44-1.58,2.51-.46,3.63Z" style="fill:#fff"/><path d="M1006.27,968.11c1,1.15.66,3-.79,4.5-1.78,1.77-3.73,1.84-5.38.19l-1-1c-1.52-1.52-1.42-3.65.25-5.32a3.47,3.47,0,0,1,5.15-.11l.94.94-3.61,3.61.36.37a1.3,1.3,0,0,0,1.93,0,1.26,1.26,0,0,0,.39-1.47Zm-5.48,1.78,1.86-1.85a1.33,1.33,0,1,0-1.86,1.85Z" style="fill:#fff"/><path d="M1005.84,960c1.56-1.56,3.1-1.8,4.3-.67l-1.72,1.73c-.35-.28-.85-.18-1.28.26s-.5.88-.22,1.15.59.2,1.13-.15l1.15-.78c1.46-1,2.49-1,3.4-.1,1.24,1.24,1,3-.63,4.65s-3.22,1.92-4.43.84l1.8-1.81c.38.26.85.14,1.34-.35s.55-.91.27-1.19-.53-.19-1.16.22l-1.06.7c-1.37.89-2.54.88-3.47,0C1004.06,963.26,1004.28,961.57,1005.84,960Z" style="fill:#fff"/><path d="M1017.74,964.06l-1.59-1.59,5.44-5.43,1.58,1.58Z" style="fill:#fff"/><path d="M1024.61,946.43l1,1c1.64,1.64,1.8,3.25.47,4.58a2,2,0,0,1-2.68.4l-.12.12,3,3-1.94,1.94-7.75-7.75,1.93-1.94,1.07,1.07.11-.11a2,2,0,0,1,.4-2.71C1021.36,944.63,1023,944.79,1024.61,946.43Zm-3.77,3.75,1,1a1.32,1.32,0,1,0,1.86-1.87l-1-1a1.32,1.32,0,1,0-1.87,1.86Z" style="fill:#fff"/><path d="M1029.1,948.71l-1.38-1.38,1.74-1.74-5.24-5.25-1.6,1.6-1.38-1.38,3.45-3.45,6.62,6.63,1.61-1.61,1.38,1.38Z" style="fill:#fff"/><path d="M1033.87,940.59c-1.06-1.06-.89-2.47.52-4.1l1.1-1.28-.43-.44a.89.89,0,0,0-1.33.11,1.1,1.1,0,0,0-.31,1.25l-1.79,1.8c-1-1.24-.72-2.95.8-4.47s3.2-1.76,4.51-.45l3.93,3.93-1.75,1.75-.72-.72-.16.16a2.48,2.48,0,0,1-.77,2.39A2.41,2.41,0,0,1,1033.87,940.59Zm3-4.05-.27-.27-.77.91c-.53.62-.6,1.1-.24,1.46s.81.27,1.23-.15A1.29,1.29,0,0,0,1036.82,936.54Z" style="fill:#fff"/><path d="M1036.35,929.82l1.8-1.8.94.94.1-.1a2.39,2.39,0,0,1,.6-2.76c1.27-1.26,2.71-1.18,4.14.25l3.77,3.77-1.86,1.85-3.34-3.35c-.75-.74-1.39-.81-2-.21a1.36,1.36,0,0,0,.18,2.06l3.33,3.32-1.85,1.85Z" style="fill:#fff"/><path d="M1044.44,918.28l1.8,1.8,2-2,1.37,1.38-2,2,2.49,2.5a.71.71,0,0,0,1.08,0l1.32-1.32,1.36,1.35-1.48,1.49c-1.69,1.68-2.73,1.77-4.16.34l-2.46-2.46-1.5,1.49-1.37-1.37,1.49-1.5-1.8-1.8Z" style="fill:#fff"/><path d="M1052.16,913.69c1.57-1.57,3.11-1.81,4.31-.68l-1.73,1.73c-.35-.28-.84-.17-1.27.26s-.5.88-.23,1.16.6.2,1.13-.16l1.16-.78c1.45-1,2.48-1,3.39-.1,1.24,1.24,1,3-.62,4.65s-3.23,1.92-4.44.84l1.81-1.81c.38.27.85.14,1.34-.35s.54-.91.27-1.19-.54-.19-1.16.23l-1.07.7c-1.36.89-2.53.88-3.47-.06C1050.38,916.93,1050.6,915.25,1052.16,913.69Z" style="fill:#fff"/></g><rect x="204.7" y="800.23" width="21.18" height="89.94" style="fill:#ffff5c"/><rect x="227.35" y="836.64" width="21.18" height="53.54" style="fill:#8c4dfb"/><rect x="273.61" y="582.86" width="21.18" height="307.31" style="fill:#ffff5c"/><rect x="296.25" y="637.47" width="21.18" height="252.7" style="fill:#8c4dfb"/><rect x="342.51" y="265.92" width="21.18" height="624.26" style="fill:#ffff5c"/><rect x="365.16" y="287.33" width="21.18" height="602.84" style="fill:#8c4dfb"/><rect x="411.42" y="248.78" width="21.18" height="641.39" style="fill:#ffff5c"/><rect x="434.06" y="353.72" width="21.18" height="536.45" style="fill:#8c4dfb"/><rect x="480.32" y="181.33" width="21.18" height="708.85" style="fill:#ffff5c"/><rect x="502.97" y="284.12" width="21.18" height="606.05" style="fill:#8c4dfb"/><rect x="549.23" y="672.81" width="21.18" height="217.37" style="fill:#ffff5c"/><rect x="571.87" y="708.14" width="21.18" height="182.03" style="fill:#8c4dfb"/><rect x="618.13" y="627.84" width="21.18" height="262.34" style="fill:#ffff5c"/><rect x="640.78" y="676.02" width="21.18" height="214.15" style="fill:#8c4dfb"/><rect x="687.04" y="801.3" width="21.18" height="88.87" style="fill:#ffff5c"/><rect x="709.68" y="808.8" width="21.18" height="81.38" style="fill:#8c4dfb"/><rect x="755.94" y="199.53" width="21.18" height="690.64" style="fill:#ffff5c"/><rect x="778.59" y="249.85" width="21.18" height="640.32" style="fill:#8c4dfb"/><rect x="824.85" y="285.19" width="21.18" height="604.98" style="fill:#ffff5c"/><rect x="847.49" y="248.78" width="21.18" height="641.39" style="fill:#8c4dfb"/><rect x="893.75" y="513.26" width="21.18" height="376.91" style="fill:#ffff5c"/><rect x="916.4" y="544.32" width="21.18" height="345.86" style="fill:#8c4dfb"/><rect x="962.66" y="457.58" width="21.18" height="432.59" style="fill:#ffff5c"/><rect x="985.3" y="503.63" width="21.18" height="386.55" style="fill:#8c4dfb"/><rect x="1031.56" y="652.46" width="21.18" height="237.71" style="fill:#ffff5c"/><rect x="1054.21" y="669.6" width="21.18" height="220.58" style="fill:#8c4dfb"/><path d="M181.84,890.82l917.92-.32" style="fill:#fff"/><rect x="181.84" y="890.16" width="917.91" height="1" style="fill:#fff"/><rect x="226.11" y="890.17" width="1" height="9.08" style="fill:#fff"/><rect x="295.02" y="890.17" width="1" height="9.08" style="fill:#fff"/><rect x="363.92" y="890.17" width="1" height="9.08" style="fill:#fff"/><rect x="432.83" y="890.17" width="1" height="9.08" style="fill:#fff"/><rect x="501.73" y="890.17" width="1" height="9.08" style="fill:#fff"/><rect x="570.64" y="890.17" width="1" height="9.08" style="fill:#fff"/><rect x="639.54" y="890.17" width="1" height="9.08" style="fill:#fff"/><rect x="708.45" y="890.17" width="1" height="9.08" style="fill:#fff"/><rect x="777.35" y="890.17" width="1" height="9.08" style="fill:#fff"/><rect x="846.26" y="890.17" width="1" height="9.08" style="fill:#fff"/><rect x="915.16" y="890.17" width="1" height="9.08" style="fill:#fff"/><rect x="984.07" y="890.17" width="1" height="9.08" style="fill:#fff"/><rect x="1052.97" y="890.17" width="1" height="9.08" style="fill:#fff"/><rect x="181.43" y="141.39" width="1" height="696" style="fill:#fff"/><rect x="172.01" y="836.89" width="9.08" height="1" style="fill:#fff"/><rect x="172.27" y="890.32" width="10.59" height="1" style="fill:#fff"/><path d="M152.56,837.6h3.09a2.67,2.67,0,0,0,2.85,2.19,3,3,0,0,0,0-5.91,2.92,2.92,0,0,0-2.66,1.48h-3.09l.77-9.42h10v2.7h-7.42l-.35,4.35h.2a4,4,0,0,1,3.46-1.6,5,5,0,0,1,5.1,5.38c0,3.48-2.43,5.79-6,5.79C155,842.56,152.65,840.55,152.56,837.6Z" style="fill:#fff"/><path d="M152.4,885.52c0-5.43,2.21-8.49,6.12-8.49s6.13,3.06,6.13,8.49-2.21,8.49-6.13,8.49S152.4,891,152.4,885.52Zm3.14.42,5.6-3.7c-.46-1.67-1.34-2.55-2.62-2.55-1.93,0-3,2-3,5.83Zm6-.42v-.39l-5.6,3.7c.46,1.66,1.34,2.53,2.61,2.53C160.46,891.36,161.51,889.32,161.51,885.52Z" style="fill:#fff"/><rect x="172.01" y="783.35" width="9.08" height="1" style="fill:#fff"/><path d="M138.86,788.69V786h4.39V775.58h-.2l-4.2,2.79v-3l4.4-3h3.14V786h4.16v2.67Z" style="fill:#fff"/><path d="M152.4,780.54c0-5.43,2.21-8.49,6.12-8.49s6.13,3.06,6.13,8.49-2.21,8.49-6.13,8.49S152.4,786,152.4,780.54Zm3.14.42,5.6-3.7c-.46-1.68-1.35-2.56-2.62-2.56-1.93,0-3,2.06-3,5.84Zm6-.42v-.39l-5.6,3.7c.46,1.66,1.34,2.53,2.61,2.53C160.46,786.38,161.51,784.34,161.51,780.54Z" style="fill:#fff"/><rect x="172.01" y="729.81" width="9.08" height="1" style="fill:#fff"/><path d="M138.86,735.16v-2.68h4.39V722.05h-.2l-4.2,2.79v-3l4.4-2.95h3.14v13.62h4.16v2.68Z" style="fill:#fff"/><path d="M152.56,730.53h3.09a2.67,2.67,0,0,0,2.85,2.19,3,3,0,0,0,0-5.92,2.92,2.92,0,0,0-2.66,1.48h-3.09l.77-9.42h10v2.7h-7.42l-.35,4.35h.2a4,4,0,0,1,3.46-1.59,5,5,0,0,1,5.1,5.37c0,3.48-2.43,5.79-6,5.79C155,735.48,152.65,733.47,152.56,730.53Z" style="fill:#fff"/><rect x="172.01" y="676.28" width="9.08" height="1" style="fill:#fff"/><path d="M144.16,665c3.37,0,5.64,1.9,5.64,4.73,0,1.78-.94,3.31-3.69,5.95l-3.19,3v.21h7.13v2.7H138.56v-2.25l5.31-5.25c2.22-2.22,2.8-3.08,2.8-4.18a2.34,2.34,0,0,0-2.61-2.34,2.53,2.53,0,0,0-2.7,2.62v.08h-3v-.06C138.38,667.12,140.74,665,144.16,665Z" style="fill:#fff"/><path d="M152.4,673.46c0-5.43,2.21-8.49,6.12-8.49s6.13,3.06,6.13,8.49-2.21,8.5-6.13,8.5S152.4,678.9,152.4,673.46Zm3.14.42,5.6-3.7c-.46-1.67-1.35-2.55-2.62-2.55-1.93,0-3,2-3,5.83Zm6-.42v-.39l-5.6,3.7c.46,1.66,1.34,2.53,2.61,2.53C160.46,679.3,161.51,677.26,161.51,673.46Z" style="fill:#fff"/><rect x="172.01" y="622.74" width="9.08" height="1" style="fill:#fff"/><path d="M144.16,611.46c3.37,0,5.64,1.91,5.64,4.73,0,1.78-.94,3.31-3.69,5.95l-3.19,3v.2h7.13v2.7H138.56v-2.25l5.31-5.25c2.22-2.22,2.8-3.08,2.8-4.18a2.33,2.33,0,0,0-2.61-2.33,2.53,2.53,0,0,0-2.7,2.62v.07h-3v-.06C138.38,613.58,140.74,611.46,144.16,611.46Z" style="fill:#fff"/><path d="M152.56,623.45h3.09a2.67,2.67,0,0,0,2.85,2.19,3,3,0,0,0,0-5.92,2.92,2.92,0,0,0-2.66,1.48h-3.09l.77-9.41h10v2.69h-7.42l-.35,4.35h.2a4,4,0,0,1,3.46-1.59,5,5,0,0,1,5.1,5.37c0,3.48-2.43,5.8-6,5.8C155,628.41,152.65,626.4,152.56,623.45Z" style="fill:#fff"/><rect x="172.01" y="569.2" width="9.08" height="1" style="fill:#fff"/><path d="M142.24,565h1.91c1.63,0,2.69-.9,2.69-2.26s-1-2.21-2.68-2.21a2.51,2.51,0,0,0-2.77,2.34h-2.86c.11-3.06,2.29-4.93,5.74-4.93,3.3,0,5.55,1.75,5.55,4.32a3.53,3.53,0,0,1-2.88,3.7v.2a3.67,3.67,0,0,1,3.51,3.86c0,2.89-2.49,4.87-6.14,4.87s-5.95-2-6.1-5h3c.12,1.38,1.29,2.27,3,2.27s3.05-.92,3.05-2.35-1.21-2.4-3.08-2.4h-1.95Z" style="fill:#fff"/><path d="M152.4,566.39c0-5.43,2.21-8.49,6.12-8.49s6.13,3.06,6.13,8.49-2.21,8.49-6.13,8.49S152.4,571.82,152.4,566.39Zm3.14.42,5.6-3.71c-.46-1.67-1.35-2.55-2.62-2.55-1.93,0-3,2.06-3,5.84Zm6-.42V566l-5.6,3.71c.46,1.66,1.34,2.53,2.61,2.53C160.46,572.23,161.51,570.18,161.51,566.39Z" style="fill:#fff"/><rect x="172.01" y="515.66" width="9.08" height="1" style="fill:#fff"/><path d="M142.24,511.44h1.91c1.63,0,2.69-.89,2.69-2.26s-1-2.21-2.68-2.21a2.51,2.51,0,0,0-2.77,2.35h-2.86c.11-3.06,2.29-4.94,5.74-4.94,3.3,0,5.55,1.75,5.55,4.33a3.52,3.52,0,0,1-2.88,3.69v.2a3.67,3.67,0,0,1,3.51,3.86c0,2.89-2.49,4.87-6.14,4.87s-5.95-2-6.1-5h3c.12,1.39,1.29,2.27,3,2.27s3.05-.92,3.05-2.35-1.21-2.39-3.08-2.39h-1.95Z" style="fill:#fff"/><path d="M152.56,516.37h3.09a2.67,2.67,0,0,0,2.85,2.19,3,3,0,0,0,0-5.91,2.9,2.9,0,0,0-2.66,1.48h-3.09l.77-9.42h10v2.7h-7.42l-.35,4.35h.2a4,4,0,0,1,3.46-1.6c3,0,5.1,2.2,5.1,5.38,0,3.48-2.43,5.79-6,5.79C155,521.33,152.65,519.32,152.56,516.37Z" style="fill:#fff"/><rect x="172.01" y="462.12" width="9.08" height="1" style="fill:#fff"/><path d="M145.52,464.38h-7.28v-2.57l4.95-10.64h3.24l-4.78,10.38v.2h4v-4.11h2.86v4.17h2.21v2.57h-2.17v3.08h-3Z" style="fill:#fff"/><path d="M152.4,459.31c0-5.43,2.21-8.49,6.12-8.49s6.13,3.06,6.13,8.49-2.21,8.49-6.13,8.49S152.4,464.74,152.4,459.31Zm3.14.42,5.6-3.7c-.46-1.67-1.35-2.56-2.62-2.56-1.93,0-3,2.06-3,5.84Zm6-.42v-.39l-5.6,3.7c.46,1.66,1.34,2.53,2.61,2.53C160.46,465.15,161.51,463.11,161.51,459.31Z" style="fill:#fff"/><rect x="172.01" y="408.58" width="9.08" height="1" style="fill:#fff"/><path d="M145.52,410.84h-7.28v-2.57l4.95-10.64h3.24L141.65,408v.2h4V404.1h2.86v4.17h2.21v2.57h-2.17v3.09h-3Z" style="fill:#fff"/><path d="M152.56,409.3h3.09a2.67,2.67,0,0,0,2.85,2.19,3,3,0,0,0,0-5.92,2.92,2.92,0,0,0-2.66,1.48h-3.09l.77-9.42h10v2.7h-7.42l-.35,4.35h.2a4,4,0,0,1,3.46-1.59,5,5,0,0,1,5.1,5.37c0,3.48-2.43,5.79-6,5.79C155,414.25,152.65,412.24,152.56,409.3Z" style="fill:#fff"/><rect x="172.01" y="355.05" width="9.08" height="1" style="fill:#fff"/><path d="M138.27,355.76h3.09a2.68,2.68,0,0,0,2.85,2.19,3,3,0,0,0,0-5.92,2.89,2.89,0,0,0-2.65,1.48h-3.1l.77-9.42h10v2.7h-7.42l-.35,4.35h.2a4,4,0,0,1,3.46-1.59,5,5,0,0,1,5.1,5.37c0,3.48-2.43,5.8-6,5.8C140.73,360.72,138.36,358.71,138.27,355.76Z" style="fill:#fff"/><path d="M152.4,352.24c0-5.44,2.21-8.5,6.12-8.5s6.13,3.06,6.13,8.5-2.21,8.49-6.13,8.49S152.4,357.67,152.4,352.24Zm3.14.41,5.6-3.7c-.46-1.67-1.35-2.55-2.62-2.55-1.93,0-3,2.05-3,5.84Zm6-.41v-.4l-5.6,3.7c.46,1.66,1.34,2.53,2.61,2.53C160.46,358.07,161.51,356,161.51,352.24Z" style="fill:#fff"/><rect x="172.01" y="301.51" width="9.08" height="1" style="fill:#fff"/><path d="M138.27,302.22h3.09a2.68,2.68,0,0,0,2.85,2.19,3,3,0,0,0,0-5.92,2.89,2.89,0,0,0-2.65,1.48h-3.1l.77-9.41h10v2.69h-7.42l-.35,4.35h.2a4,4,0,0,1,3.46-1.59,5,5,0,0,1,5.1,5.37c0,3.48-2.43,5.8-6,5.8C140.73,307.18,138.36,305.17,138.27,302.22Z" style="fill:#fff"/><path d="M152.56,302.22h3.09a2.67,2.67,0,0,0,2.85,2.19,3,3,0,0,0,0-5.92,2.92,2.92,0,0,0-2.66,1.48h-3.09l.77-9.41h10v2.69h-7.42l-.35,4.35h.2a4,4,0,0,1,3.46-1.59,5,5,0,0,1,5.1,5.37c0,3.48-2.43,5.8-6,5.8C155,307.18,152.65,305.17,152.56,302.22Z" style="fill:#fff"/><rect x="172.01" y="247.97" width="9.08" height="1" style="fill:#fff"/><path d="M144.4,253.64c-3.69,0-6.22-2.43-6.22-6,0-2,.69-3.79,2.31-6.1.53-.8,3-4,3.44-4.52h3.62l-4.1,5.43a5.54,5.54,0,0,0-.73,1.14l.22,0a3.67,3.67,0,0,1,2.61-1,5,5,0,0,1,5,5.24A5.83,5.83,0,0,1,144.4,253.64Zm3-5.67a3,3,0,1,0-3,2.95A2.91,2.91,0,0,0,147.36,248Z" style="fill:#fff"/><path d="M152.4,245.16c0-5.43,2.21-8.49,6.12-8.49s6.13,3.06,6.13,8.49-2.21,8.49-6.13,8.49S152.4,250.59,152.4,245.16Zm3.14.42,5.6-3.71c-.46-1.67-1.35-2.55-2.62-2.55-1.93,0-3,2.06-3,5.84Zm6-.42v-.4l-5.6,3.71c.46,1.66,1.34,2.53,2.61,2.53C160.46,251,161.51,249,161.51,245.16Z" style="fill:#fff"/><rect x="172.01" y="194.43" width="9.08" height="1" style="fill:#fff"/><path d="M144.4,200.1c-3.69,0-6.22-2.43-6.22-6a10.3,10.3,0,0,1,2.31-6.09c.53-.8,3-4,3.44-4.53h3.62l-4.1,5.43a5.83,5.83,0,0,0-.73,1.14l.22,0a3.67,3.67,0,0,1,2.61-1,5,5,0,0,1,5,5.24A5.83,5.83,0,0,1,144.4,200.1Zm3-5.67a3,3,0,1,0-3,2.95A2.91,2.91,0,0,0,147.36,194.43Z" style="fill:#fff"/><path d="M152.56,195.14h3.09a2.67,2.67,0,0,0,2.85,2.19,3,3,0,0,0,0-5.91,2.9,2.9,0,0,0-2.66,1.48h-3.09l.77-9.42h10v2.7h-7.42l-.35,4.34h.2a4,4,0,0,1,3.46-1.59c3,0,5.1,2.2,5.1,5.38,0,3.48-2.43,5.79-6,5.79C155,200.1,152.65,198.09,152.56,195.14Z" style="fill:#fff"/><rect x="172.01" y="140.89" width="9.08" height="1" style="fill:#fff"/><path d="M146.88,132.8v-.19h-8.35v-2.68h11.58v2.7l-6.9,13.6h-3.36Z" style="fill:#fff"/><path d="M152.4,138.08c0-5.43,2.21-8.49,6.12-8.49s6.13,3.06,6.13,8.49-2.21,8.49-6.13,8.49S152.4,143.51,152.4,138.08Zm3.14.42,5.6-3.7c-.46-1.68-1.35-2.56-2.62-2.56-1.93,0-3,2.06-3,5.84Zm6-.42v-.39l-5.6,3.7c.46,1.66,1.34,2.53,2.61,2.53C160.46,143.92,161.51,141.88,161.51,138.08Z" style="fill:#fff"/><line x1="181.93" y1="837.39" x2="182.11" y2="890.82" style="fill:#fff"/><rect x="181.52" y="837.39" width="1" height="53.43" transform="translate(-2.83 0.6) rotate(-0.19)" style="fill:#fff"/></svg>