<svg xmlns="http://www.w3.org/2000/svg" viewBox="0 0 1264 1080"><path d="M144.05,67.64a11.87,11.87,0,0,1-3.92-9.18,11.85,11.85,0,0,1,3.93-9.19q3.93-3.56,10.55-3.56a11,11,0,0,1,7.12,2.45L164.08,46a1,1,0,0,1,.68-.32c.29,0,.47.07.54.2a1.89,1.89,0,0,1,.11.8v7.74a1.48,1.48,0,0,1-.15.87,1.41,1.41,0,0,1-.84.15,1.34,1.34,0,0,1-.73-.12c-.09-.07-.15-.29-.2-.64a8.85,8.85,0,0,0-2.85-5.32,7.75,7.75,0,0,0-5.27-2A9.85,9.85,0,0,0,148,50.16q-2.39,2.48-2.4,8.3,0,5.41,2.13,8,2.6,3.06,7.73,3.06a9.1,9.1,0,0,0,5.56-1.84,6.5,6.5,0,0,0,2.67-5.19c0-.29.09-.47.21-.53a1.71,1.71,0,0,1,.61-.08,1.36,1.36,0,0,1,.69.12q.18.12.18.63a7.76,7.76,0,0,1-3,5.94,11.39,11.39,0,0,1-7.8,2.64Q148,71.2,144.05,67.64Z" style="fill:#fff"/><path d="M168.85,63a8.14,8.14,0,0,1,2.43-6.09,10.7,10.7,0,0,1,13.48,0A8.11,8.11,0,0,1,187.2,63a7.59,7.59,0,0,1-2.41,5.77,11.18,11.18,0,0,1-13.53,0A7.59,7.59,0,0,1,168.85,63Zm4.61-.41c0,.72,0,1.26,0,1.64s.06.89.15,1.55a4.29,4.29,0,0,0,.41,1.53,8,8,0,0,0,.77,1.15,2.58,2.58,0,0,0,1.29.88,7,7,0,0,0,3.85,0,2.61,2.61,0,0,0,1.3-.88,7.32,7.32,0,0,0,.78-1.15,4.76,4.76,0,0,0,.41-1.53,15.33,15.33,0,0,0,.15-1.55c0-.38,0-.92,0-1.64,0-2.47-.25-4.12-.76-4.94A4.16,4.16,0,0,0,178,55.78a4.09,4.09,0,0,0-4,2.1A12.25,12.25,0,0,0,173.46,62.55Z" style="fill:#fff"/><path d="M190.17,70.8V69.11h2.31V58q0-1-.36-1.2a5.18,5.18,0,0,0-2-.2V54.89l6.19-.3v3.9a6.58,6.58,0,0,1,6.26-3.9q4.57,0,5.33,3.46A6.47,6.47,0,0,1,214,54.59a6.09,6.09,0,0,1,4.2,1.23,5.12,5.12,0,0,1,1.35,4v9.34H222V70.8c-2-.07-3.52-.11-4.53-.11s-2.52,0-4.54.11V69.11h2.48V59.39a5.33,5.33,0,0,0-.5-2.74,1.68,1.68,0,0,0-1.52-.76,5.45,5.45,0,0,0-3.64,1.49,5.29,5.29,0,0,0-1.7,4.2v7.53h2.47V70.8c-2-.07-3.51-.11-4.51-.11s-2.53,0-4.56.11V69.11H204V59.39a5.21,5.21,0,0,0-.51-2.74,1.69,1.69,0,0,0-1.51-.76,5.5,5.5,0,0,0-3.66,1.49,5.32,5.32,0,0,0-1.7,4.2v7.53h2.48V70.8c-2-.07-3.53-.11-4.54-.11S192.07,70.73,190.17,70.8Z" style="fill:#fff"/><path d="M224.19,76.09h2.48V58c0-.67-.13-1.07-.38-1.19a6.83,6.83,0,0,0-2.1-.18V54.89l6.36-.3v1.77A8.71,8.71,0,0,1,236,54.59a8.37,8.37,0,0,1,6.15,2.26,7.9,7.9,0,0,1,2.31,5.9,7.67,7.67,0,0,1-2.51,6A9.42,9.42,0,0,1,235.38,71a7,7,0,0,1-4.6-1.64v6.72h2.48v1.68c-2-.07-3.53-.1-4.54-.1s-2.52,0-4.53.1Zm6.59-9.53a3,3,0,0,0,.05.69,3.24,3.24,0,0,0,.34.51A4.82,4.82,0,0,0,235,69.71,4.34,4.34,0,0,0,238.41,68c1-1.14,1.44-2.88,1.44-5.24a8.31,8.31,0,0,0-1.27-5A3.76,3.76,0,0,0,235.42,56a5.54,5.54,0,0,0-4.11,1.7,2.46,2.46,0,0,0-.47.56,2.28,2.28,0,0,0-.06.65Z" style="fill:#fff"/><path d="M247.53,70.8V69.11h2.09V58c0-.67-.1-1.07-.32-1.2a4.31,4.31,0,0,0-1.77-.2V54.89l6-.3v4.08q1.44-4.06,4.68-4.08a4.41,4.41,0,0,1,2.61.8,2.51,2.51,0,0,1,1.13,2.15,2,2,0,0,1-.7,1.6,2.4,2.4,0,0,1-1.61.6,2.47,2.47,0,0,1-1.6-.57,2,2,0,0,1-.7-1.63,2.21,2.21,0,0,1,.72-1.65,3.56,3.56,0,0,0-2.21.7,4.24,4.24,0,0,0-1.41,1.84,12.71,12.71,0,0,0-.69,2.21,10.63,10.63,0,0,0-.22,2.16v6.31h3.13V70.8c-.83-.07-2.41-.11-4.73-.11C251.42,70.69,250,70.73,247.53,70.8Z" style="fill:#fff"/><path d="M264,62.69a7.94,7.94,0,0,1,2.36-5.87,8.84,8.84,0,0,1,6.52-2.34,7.93,7.93,0,0,1,5.73,2,7.49,7.49,0,0,1,2,5.54c0,.46-.08.74-.23.84a2,2,0,0,1-.93.15H268.59c0,4.4,1.69,6.61,5.06,6.61h0a6,6,0,0,0,3.08-.8,4.32,4.32,0,0,0,1.93-2.07,1.65,1.65,0,0,1,.35-.62,1,1,0,0,1,.63-.14c.62,0,.93.22.93.64a1.8,1.8,0,0,1-.2.7,5.62,5.62,0,0,1-.72,1.13,6.91,6.91,0,0,1-1.29,1.23,6.57,6.57,0,0,1-2.09,1,10,10,0,0,1-2.94.4,9.81,9.81,0,0,1-6.84-2.32A7.75,7.75,0,0,1,264,62.69Zm4.61-.93h8.6c-.12-4-1.56-6-4.33-6a3.86,3.86,0,0,0-3.41,1.87A9,9,0,0,0,268.59,61.76Z" style="fill:#fff"/><path d="M283.16,70V66.08a1.8,1.8,0,0,1,.13-.87c.08-.12.32-.18.73-.18a1.53,1.53,0,0,1,.6.08c.11,0,.19.19.26.43a10.11,10.11,0,0,0,.49,1.33,7.84,7.84,0,0,0,.83,1.31,3.56,3.56,0,0,0,1.55,1.13,6.29,6.29,0,0,0,2.32.4c2.73,0,4.1-.91,4.11-2.71a2.09,2.09,0,0,0-.4-1.29,2.61,2.61,0,0,0-1.17-.84,6.6,6.6,0,0,0-1.24-.4l-1.2-.26c-1.15-.21-2-.37-2.43-.47a8.8,8.8,0,0,1-1.57-.53,5.83,5.83,0,0,1-1.57-1,3.8,3.8,0,0,1-1.44-3,4.64,4.64,0,0,1,.4-2,3.21,3.21,0,0,1,1.1-1.37,7.9,7.9,0,0,1,1.38-.8,5.91,5.91,0,0,1,1.57-.41q.88-.12,1.29-.15c.28,0,.57,0,.89,0a8,8,0,0,1,3.64.71,8.17,8.17,0,0,1,1.61-.71c.3,0,.48.07.55.21a2,2,0,0,1,.11.81v2.87a1.59,1.59,0,0,1-.14.85c-.08.11-.33.17-.74.17s-.59,0-.67-.15a1.08,1.08,0,0,1-.16-.57q-.28-3-4.24-3t-4,2.43a2.14,2.14,0,0,0,.29,1.14c.19.31.09.41-.28.28l-.56-.18,4.22.88c.92.23,1.88.46,2.89.68A6.36,6.36,0,0,1,294.74,62a4.67,4.67,0,0,1,2,3.79,5.87,5.87,0,0,1-.39,2.22,3.58,3.58,0,0,1-1.1,1.5,8.64,8.64,0,0,1-1.39.88,5,5,0,0,1-1.58.46c-.6.09-1,.14-1.29.16a8.35,8.35,0,0,1-.91,0,7.3,7.3,0,0,1-4.25-1.16l-.94.62a2.29,2.29,0,0,1-1.05.54h0q-.44,0-.54-.21A2,2,0,0,1,283.16,70Z" style="fill:#fff"/><path d="M299.46,70V66.08a2,2,0,0,1,.12-.87c.08-.12.33-.18.74-.18a1.6,1.6,0,0,1,.6.08.67.67,0,0,1,.26.43,8.88,8.88,0,0,0,.48,1.33,7.36,7.36,0,0,0,.84,1.31A3.53,3.53,0,0,0,304,69.31a6.31,6.31,0,0,0,2.33.4c2.73,0,4.1-.91,4.11-2.71a2.09,2.09,0,0,0-.41-1.29,2.61,2.61,0,0,0-1.17-.84,6.38,6.38,0,0,0-1.24-.4l-1.19-.26c-1.16-.21-2-.37-2.43-.47a8.87,8.87,0,0,1-1.58-.53,5.93,5.93,0,0,1-1.56-1,3.8,3.8,0,0,1-1.44-3,4.79,4.79,0,0,1,.39-2,3.28,3.28,0,0,1,1.1-1.37,8,8,0,0,1,1.39-.8,5.94,5.94,0,0,1,1.56-.41c.59-.08,1-.13,1.3-.15s.57,0,.88,0a8,8,0,0,1,3.64.71,8.11,8.11,0,0,1,1.62-.71q.44,0,.54.21a1.82,1.82,0,0,1,.11.81v2.87a1.62,1.62,0,0,1-.13.85c-.09.11-.34.17-.75.17s-.58,0-.67-.15a1.09,1.09,0,0,1-.15-.57q-.29-3-4.24-3t-4,2.43a2.14,2.14,0,0,0,.28,1.14c.19.31.1.41-.28.28l-.56-.18,4.23.88c.92.23,1.88.46,2.88.68A6.41,6.41,0,0,1,311,62a4.7,4.7,0,0,1,2,3.79,5.67,5.67,0,0,1-.4,2.22,3.5,3.5,0,0,1-1.1,1.5,8.64,8.64,0,0,1-1.39.88,4.88,4.88,0,0,1-1.58.46c-.6.09-1,.14-1.29.16a8,8,0,0,1-.9,0,7.31,7.31,0,0,1-4.26-1.16l-.93.62a2.27,2.27,0,0,1-1.06.54h0c-.3,0-.48-.07-.55-.21A2.07,2.07,0,0,1,299.46,70Z" style="fill:#fff"/><path d="M316.07,70.8V69.11h2.49V58q0-1-.36-1.2a5.58,5.58,0,0,0-2-.2V54.89l6.28-.3V69.11h2.23V70.8l-4.22-.11C319.76,70.69,318.29,70.73,316.07,70.8Zm2-20.24a2.92,2.92,0,0,1,0-4,2.51,2.51,0,0,1,1.92-.83,2.83,2.83,0,0,1,2.81,2.81,2.67,2.67,0,0,1-.84,2,2.7,2.7,0,0,1-2,.83A2.51,2.51,0,0,1,318.09,50.56Z" style="fill:#fff"/><path d="M327,63a8.14,8.14,0,0,1,2.43-6.09,10.7,10.7,0,0,1,13.48,0A8.11,8.11,0,0,1,345.37,63,7.59,7.59,0,0,1,343,68.73a11.18,11.18,0,0,1-13.53,0A7.59,7.59,0,0,1,327,63Zm4.6-.41c0,.72,0,1.26,0,1.64s.06.89.14,1.55a4.49,4.49,0,0,0,.42,1.53,8,8,0,0,0,.77,1.15,2.58,2.58,0,0,0,1.29.88,7,7,0,0,0,3.85,0,2.65,2.65,0,0,0,1.3-.88,7.32,7.32,0,0,0,.78-1.15,5,5,0,0,0,.41-1.53,15.33,15.33,0,0,0,.15-1.55c0-.38,0-.92,0-1.64,0-2.47-.26-4.12-.76-4.94a4.17,4.17,0,0,0-3.81-1.83,4.08,4.08,0,0,0-4,2.1A12,12,0,0,0,331.62,62.55Z" style="fill:#fff"/><path d="M348.34,70.8V69.11h2.3V58c0-.67-.11-1.07-.35-1.2a5.18,5.18,0,0,0-2-.2V54.89l6.19-.3v3.9a6.56,6.56,0,0,1,6.23-3.9,6,6,0,0,1,4.1,1.21,5.11,5.11,0,0,1,1.36,4v9.34h2.48V70.8c-2-.07-3.52-.11-4.54-.11s-2.53,0-4.53.11V69.11h2.48V59.39a5.29,5.29,0,0,0-.51-2.73,1.68,1.68,0,0,0-1.48-.77,5.43,5.43,0,0,0-3.67,1.49,5.31,5.31,0,0,0-1.69,4.2v7.53h2.48V70.8c-1.91-.07-3.39-.11-4.44-.11S350.26,70.73,348.34,70.8Z" style="fill:#fff"/><path d="M385,70.8V69.11h2.09V58c0-.67-.1-1.07-.32-1.2a4.31,4.31,0,0,0-1.77-.2V54.89l6-.3v4.08q1.44-4.06,4.68-4.08a4.41,4.41,0,0,1,2.61.8,2.51,2.51,0,0,1,1.13,2.15,2,2,0,0,1-.7,1.6,2.4,2.4,0,0,1-1.61.6,2.47,2.47,0,0,1-1.6-.57,2,2,0,0,1-.7-1.63,2.21,2.21,0,0,1,.72-1.65,3.56,3.56,0,0,0-2.21.7,4.24,4.24,0,0,0-1.41,1.84,11.9,11.9,0,0,0-.69,2.21A10.63,10.63,0,0,0,391,62.8v6.31h3.13V70.8c-.83-.07-2.41-.11-4.73-.11C388.9,70.69,387.44,70.73,385,70.8Z" style="fill:#fff"/><path d="M401.46,66.91q0-5.14,11.62-5.66V60q0-4.26-3.83-4.26a13.61,13.61,0,0,0-2.64.25,1.93,1.93,0,0,1,.88,1.78,2,2,0,0,1-.73,1.67,2.63,2.63,0,0,1-1.71.59,2.23,2.23,0,0,1-1.48-.59,2.09,2.09,0,0,1-.68-1.67c0-2.21,2.14-3.31,6.42-3.33A9.65,9.65,0,0,1,415.18,56a4.79,4.79,0,0,1,2,4v7.73a2.44,2.44,0,0,0,.07.72q.06.21.57.42a4.52,4.52,0,0,0,1.55.2,2.46,2.46,0,0,1,.46,0,.71.71,0,0,1,.47.79c0,.39-.08.63-.25.73a2.11,2.11,0,0,1-.91.14h-1.72a7.48,7.48,0,0,1-2.16-.26,1.91,1.91,0,0,1-1.13-.75,2.59,2.59,0,0,1-.38-.85,4.52,4.52,0,0,1-.07-.92,5.36,5.36,0,0,1-5.22,3,16.37,16.37,0,0,1-2.19-.16,12.69,12.69,0,0,1-2.26-.57A4,4,0,0,1,402.17,69,3.19,3.19,0,0,1,401.46,66.91Zm4.12,0a2.51,2.51,0,0,0,1,2,3.72,3.72,0,0,0,2.43.82,4.07,4.07,0,0,0,1-.15,7.6,7.6,0,0,0,1.32-.51,2.91,2.91,0,0,0,1.24-1.22,4.14,4.14,0,0,0,.48-2v-3.4q-.79,0-1.5.12a16.85,16.85,0,0,0-1.89.39,10.38,10.38,0,0,0-2,.74,4.33,4.33,0,0,0-1.46,1.29A3.19,3.19,0,0,0,405.58,66.88Z" style="fill:#fff"/><path d="M421.19,56.5V55.2A4.6,4.6,0,0,0,425.11,53a9.32,9.32,0,0,0,1.44-5.05h1.68v6.88h5.26V56.5h-5.26v9.94c0,2.08.7,3.13,2.09,3.13a1.88,1.88,0,0,0,1.5-.81,4,4,0,0,0,.65-2.5V64.43h1.69v1.9A4.89,4.89,0,0,1,433,69.68,4,4,0,0,1,429.83,71q-5.71,0-5.71-4.64V56.5Z" style="fill:#fff"/><path d="M437.66,62.69A7.94,7.94,0,0,1,440,56.82a8.85,8.85,0,0,1,6.52-2.34,7.89,7.89,0,0,1,5.73,2,7.49,7.49,0,0,1,2,5.54q0,.69-.24.84a2,2,0,0,1-.93.15H442.26c0,4.4,1.69,6.61,5.06,6.61h0a6.08,6.08,0,0,0,3.09-.8,4.35,4.35,0,0,0,1.92-2.07,1.8,1.8,0,0,1,.35-.62,1.06,1.06,0,0,1,.64-.14c.62,0,.93.22.93.64a1.85,1.85,0,0,1-.21.7,5.62,5.62,0,0,1-.72,1.13,6.34,6.34,0,0,1-1.29,1.23,6.57,6.57,0,0,1-2.09,1A10,10,0,0,1,447,71a9.76,9.76,0,0,1-6.83-2.32A7.75,7.75,0,0,1,437.66,62.69Zm4.6-.93h8.6c-.12-4-1.56-6-4.33-6a3.86,3.86,0,0,0-3.41,1.87A9.13,9.13,0,0,0,442.26,61.76Z" style="fill:#fff"/><path d="M473.13,61.76a21.62,21.62,0,0,1,6.45-16q2.06-1.95,2.76-2c.43,0,.65.17.65.51,0,.11-.18.36-.53.75Q477,50.9,477,61.8a31.18,31.18,0,0,0,1.29,9.31,18.36,18.36,0,0,0,4.59,7.79l0,.1a.56.56,0,0,1,.07.25c0,.34-.22.51-.65.51A3.12,3.12,0,0,1,481,79a18.07,18.07,0,0,1-2.42-2.32A18.45,18.45,0,0,1,476,73.2,22.77,22.77,0,0,1,473.13,61.76Z" style="fill:#fff"/><path d="M487.63,51a7.2,7.2,0,0,1,1.89-5.38A6.15,6.15,0,0,1,494,43.8a4.7,4.7,0,0,1,2.8.93,13.54,13.54,0,0,0,8.12,2.88,9.14,9.14,0,0,0,7.27-3.13,1.46,1.46,0,0,1,1.09-.68,1.06,1.06,0,0,1,.73.3,1,1,0,0,1,.34.8,1.6,1.6,0,0,1-.39.88L493.31,72.24a1.16,1.16,0,0,1-.94.58,1.06,1.06,0,0,1-.79-.33,1.09,1.09,0,0,1-.31-.8,1.23,1.23,0,0,1,.38-.89l17.67-22.68a12,12,0,0,1-4.37.79,14.82,14.82,0,0,1-6.21-1.48,11.61,11.61,0,0,1,.53,3.64,8.17,8.17,0,0,1-1.55,5.42A4.76,4.76,0,0,1,494,58.3a6.28,6.28,0,0,1-4.45-1.81A7.21,7.21,0,0,1,487.63,51Zm3.89,0c0,.62,0,1.11,0,1.48s.06.88.14,1.53a4.91,4.91,0,0,0,.38,1.5,3,3,0,0,0,.77,1,1.88,1.88,0,0,0,1.24.44,3.08,3.08,0,0,0,2.42-1.41,7.45,7.45,0,0,0,1.1-4.56,7.52,7.52,0,0,0-1.08-4.49,3.05,3.05,0,0,0-2.44-1.44,1.87,1.87,0,0,0-1.24.43,2.89,2.89,0,0,0-.77,1,5.06,5.06,0,0,0-.38,1.51c-.08.65-.13,1.17-.14,1.54S491.52,50.42,491.52,51.07Zm14.62,14.47A7.26,7.26,0,0,1,508,60.15a6.22,6.22,0,0,1,4.49-1.85,4.77,4.77,0,0,1,3.72,1.8q1.56,1.8,1.56,5.48A8.19,8.19,0,0,1,516.25,71a4.74,4.74,0,0,1-3.74,1.82A6.27,6.27,0,0,1,508.05,71,7.21,7.21,0,0,1,506.14,65.54Zm3.89,0c0,.62,0,1.11,0,1.49s.07.88.15,1.53a5.15,5.15,0,0,0,.38,1.51,2.83,2.83,0,0,0,.77,1,1.9,1.9,0,0,0,1.23.43A3.09,3.09,0,0,0,515,70.11a7.5,7.5,0,0,0,1.1-4.57A7.53,7.53,0,0,0,515,61a3.05,3.05,0,0,0-2.45-1.44,1.85,1.85,0,0,0-1.23.43,2.8,2.8,0,0,0-.77,1,5.23,5.23,0,0,0-.38,1.52q-.12,1-.15,1.53C510,64.42,510,64.93,510,65.58Z" style="fill:#fff"/><path d="M522.1,79.25c0-.12.19-.37.58-.75q5.8-5.85,5.8-16.74t-5.76-16.63c-.41-.38-.62-.66-.62-.82,0-.34.22-.51.65-.51a3.07,3.07,0,0,1,1.39.73,19.42,19.42,0,0,1,2.43,2.32,19.05,19.05,0,0,1,2.51,3.5A22.8,22.8,0,0,1,532,61.8a21.65,21.65,0,0,1-6.43,16c-1.37,1.3-2.3,2-2.78,2S522.1,79.59,522.1,79.25Z" style="fill:#fff"/><g style="isolation:isolate"><path d="M175.09,959a1.39,1.39,0,0,1,2-2,1.39,1.39,0,0,1-2,2Zm6.31,9.4-1.14-1.14,1.85-1.86-3.48-3.48-1.76,1.76-1.15-1.15,3.15-3.15L183.5,964l1.75-1.74,1.14,1.14Z" style="fill:#fff"/><path d="M187.91,954.38a1.43,1.43,0,0,0-2.07.15c-.77.77-.62,1.76.44,2.82l.39.39c1.06,1.06,2.06,1.21,2.83.44a1.41,1.41,0,0,0,.18-2l1.41-1.4c1.25,1.5,1.1,3.11-.39,4.6-1.7,1.7-3.61,1.68-5.36-.07l-.61-.61c-1.75-1.75-1.77-3.66-.07-5.36,1.49-1.49,3.1-1.61,4.65-.34Z" style="fill:#fff"/><path d="M192,953l-.9-.89a3.76,3.76,0,0,1,5.31-5.31l.89.89A3.75,3.75,0,0,1,192,953Zm.57-2.24.77.77a1.78,1.78,0,1,0,2.5-2.49l-.78-.77a1.78,1.78,0,1,0-2.49,2.49Z" style="fill:#fff"/><path d="M195.35,942.91l1.39-1.38,1,1,.09-.09a2.45,2.45,0,0,1,.65-2.82c1.25-1.26,2.67-1.17,4.08.23l3.73,3.73L204.83,945l-3.39-3.39c-.85-.85-1.59-.91-2.32-.18a1.66,1.66,0,0,0,.1,2.51l3.33,3.34-1.43,1.42Z" style="fill:#fff"/><path d="M209.45,944.07l-1.28-1.28,5.43-5.43,1.28,1.27Z" style="fill:#fff"/><path d="M212,933.5l1.44-1.44a1.75,1.75,0,0,0,2.33-.3,1.94,1.94,0,0,0-2.74-2.74,1.89,1.89,0,0,0-.55,1.91l-1.43,1.44-4-4.72,4.62-4.62,1.25,1.25-3.44,3.44,1.85,2.18.1-.1a2.59,2.59,0,0,1,.86-2.34,3.29,3.29,0,0,1,4.86.13,3.67,3.67,0,0,1-.12,5.48C215.46,934.65,213.43,934.82,212,933.5Z" style="fill:#fff"/><path d="M221.06,928.75l-1.24-1.24,2-2L217,920.64l-.1.09-.65,3.24-1.4-1.4.67-3.4,1.46-1.46,6.31,6.31,1.93-1.93,1.24,1.24Z" style="fill:#fff"/><path d="M222.43,912c1.56-1.56,3.5-1.73,4.81-.42.82.83,1.1,2,1,4.47l-.07,2.88.1.1,3.3-3.3,1.25,1.25-5.32,5.32-1-1,0-4.9c0-2.06-.13-2.72-.63-3.23a1.54,1.54,0,0,0-2.3.13,1.65,1.65,0,0,0,0,2.46l0,0-1.38,1.38,0,0C220.74,915.63,220.85,913.56,222.43,912Z" style="fill:#fff"/></g><g style="isolation:isolate"><path d="M250.63,952.39a1.39,1.39,0,1,1,1.89-.07A1.26,1.26,0,0,1,250.63,952.39Zm6.32,9.4-1.14-1.14,1.85-1.85-3.49-3.49-1.75,1.76-1.15-1.15,3.15-3.15,4.63,4.63,1.74-1.74,1.14,1.14Z" style="fill:#fff"/><path d="M263.45,947.77a1.42,1.42,0,0,0-2.06.14c-.77.77-.62,1.77.44,2.82l.38.39c1.06,1.06,2.06,1.21,2.83.44a1.41,1.41,0,0,0,.19-2l1.4-1.4c1.25,1.5,1.11,3.11-.39,4.6-1.7,1.7-3.6,1.68-5.36-.07l-.6-.61c-1.76-1.75-1.78-3.65-.07-5.35,1.49-1.5,3.1-1.62,4.65-.35Z" style="fill:#fff"/><path d="M267.53,946.33l-.89-.89a3.76,3.76,0,0,1,5.31-5.31l.89.89a3.76,3.76,0,0,1-5.31,5.31Zm.58-2.24.77.77a1.78,1.78,0,1,0,2.49-2.49l-.77-.77a1.78,1.78,0,1,0-2.49,2.49Z" style="fill:#fff"/><path d="M270.9,936.29l1.38-1.38,1,1,.09-.09A2.49,2.49,0,0,1,274,933c1.26-1.26,2.68-1.17,4.09.24l3.73,3.73-1.43,1.43L277,935c-.84-.85-1.59-.91-2.31-.18a1.66,1.66,0,0,0,.09,2.51l3.34,3.34-1.43,1.43Z" style="fill:#fff"/><path d="M285,937.45l-1.27-1.28,5.43-5.43,1.28,1.28Z" style="fill:#fff"/><path d="M292.71,926.33a3.82,3.82,0,0,1-5.67.11,6.79,6.79,0,0,1-1.75-3.9c-.12-.62-.45-3.24-.51-3.69l1.68-1.68.62,4.42a3.74,3.74,0,0,0,.19.87l.12-.09a2.39,2.39,0,0,1,.74-1.68,3.27,3.27,0,0,1,4.74.12A3.82,3.82,0,0,1,292.71,926.33Zm-1.26-4a2,2,0,1,0,0,2.77A1.9,1.9,0,0,0,291.45,922.33Z" style="fill:#fff"/><path d="M298.26,917.62,294.89,921l-1.2-1.19-2.63-7.23,1.5-1.5,2.59,7,.1.09,1.84-1.84-1.91-1.9,1.33-1.33,1.93,1.93,1-1,1.2,1.19-1,1,1.43,1.43-1.39,1.4Z" style="fill:#fff"/></g><g style="isolation:isolate"><path d="M301.18,979.7l1,1c1.58,1.57,1.71,3.27.38,4.59a2.12,2.12,0,0,1-2.67.52l-.11.11,2.9,2.9-1.49,1.49-7.69-7.7,1.47-1.47,1,1,.11-.11a2.16,2.16,0,0,1,.53-2.7C297.92,978,299.61,978.13,301.18,979.7Zm-3.81,3.88,1,1a1.69,1.69,0,1,0,2.39-2.38l-1-1a1.69,1.69,0,1,0-2.39,2.38Z" style="fill:#fff"/><path d="M297.87,973.83l1.4-1.4,3.18,3.18.08-.08a2.53,2.53,0,0,1,.68-2.86c1.25-1.25,2.7-1.17,4.09.22l3.73,3.72L309.59,978l-3.37-3.37c-.84-.84-1.61-.9-2.34-.17a1.69,1.69,0,0,0,.07,2.55l3.32,3.32-1.43,1.42Z" style="fill:#fff"/><path d="M310,972.8l-.89-.89a3.75,3.75,0,0,1,5.3-5.3l.89.89a3.75,3.75,0,0,1-5.3,5.3Zm.57-2.24.78.78a1.78,1.78,0,1,0,2.49-2.49l-.78-.78a1.78,1.78,0,1,0-2.49,2.49Z" style="fill:#fff"/><path d="M314.45,958.34l1.71,1.71,2.15-2.16,1.15,1.15-2.13,2.13,2.76,2.75c.44.44,1,.37,1.54-.18l1.19-1.2,1.13,1.13-1.3,1.33c-1.57,1.57-2.66,1.67-4,.34l-2.75-2.75-1.5,1.51L313.26,963l1.5-1.5-1.71-1.71Z" style="fill:#fff"/><path d="M323.19,959.57l-.89-.89a3.76,3.76,0,0,1,5.31-5.31l.89.89a3.76,3.76,0,0,1-5.31,5.31Zm.58-2.24.77.77a1.78,1.78,0,1,0,2.49-2.49l-.77-.78a1.78,1.78,0,1,0-2.49,2.5Z" style="fill:#fff"/><path d="M334,957.3,332.76,956l5.43-5.43,1.28,1.28Z" style="fill:#fff"/><path d="M337,939.08l1.64-1.64.27,4.53,5.65,1.09-1.66,1.66-4.14-.79V945l1.92,1.92-1.43,1.43-8-8,1.43-1.43,4.51,4.51.09-.09Z" style="fill:#fff"/><path d="M343.05,939.71l-.89-.89a3.75,3.75,0,0,1,5.3-5.31l.89.89a3.75,3.75,0,0,1-5.3,5.31Zm.57-2.24.78.78a1.78,1.78,0,1,0,2.49-2.5l-.78-.77a1.78,1.78,0,1,0-2.49,2.49Z" style="fill:#fff"/><path d="M349.62,933.23l-1-1c-1.57-1.56-1.7-3.26-.38-4.58a2.13,2.13,0,0,1,2.68-.52L351,927l-3.19-3.18,1.5-1.5,8,8-1.48,1.48-1-1-.11.11a2.15,2.15,0,0,1-.53,2.7C352.89,934.92,351.19,934.8,349.62,933.23Zm3.81-3.89-1-1a1.69,1.69,0,1,0-2.38,2.38l1,1a1.69,1.69,0,1,0,2.39-2.39Z" style="fill:#fff"/><path d="M357.12,927.21c-1-1-.89-2.41.43-3.93l1.27-1.44-.46-.46a1.13,1.13,0,0,0-1.73.14,1.36,1.36,0,0,0-.41,1.57l-1.39,1.4c-.94-1.16-.67-2.78.7-4.15s3-1.61,4.28-.34l3.91,3.91-1.36,1.36-.77-.77-.12.13a2.5,2.5,0,0,1-.78,2.5A2.4,2.4,0,0,1,357.12,927.21Zm3-4-.42-.42-1,1.18c-.63.71-.71,1.31-.27,1.75s1.05.36,1.61-.19A1.59,1.59,0,0,0,360.16,923.18Z" style="fill:#fff"/><path d="M363.49,912.6l1.63-1.64.27,4.54,5.65,1.09-1.66,1.66-4.13-.79v1.1l1.91,1.91-1.43,1.43-8-8,1.43-1.43,4.52,4.52.09-.09Z" style="fill:#fff"/></g><g style="isolation:isolate"><path d="M355.59,992.93l1,1c1.58,1.57,1.71,3.26.38,4.59a2.13,2.13,0,0,1-2.68.52l-.1.1,2.9,2.9-1.49,1.49-7.7-7.69,1.47-1.47,1,1,.11-.11a2.16,2.16,0,0,1,.53-2.7C352.33,991.23,354,991.36,355.59,992.93Zm-3.81,3.89,1,1a1.69,1.69,0,1,0,2.39-2.39l-1-1a1.69,1.69,0,1,0-2.39,2.39Z" style="fill:#fff"/><path d="M352.28,987.06l1.39-1.39,3.19,3.18.08-.09a2.51,2.51,0,0,1,.68-2.85c1.25-1.25,2.7-1.18,4.09.21l3.72,3.73L364,991.28l-3.37-3.37c-.84-.84-1.61-.9-2.34-.17a1.68,1.68,0,0,0,.07,2.54l3.32,3.32L360.25,995Z" style="fill:#fff"/><path d="M364.36,986l-.89-.89a3.76,3.76,0,0,1,5.31-5.31l.89.89a3.76,3.76,0,0,1-5.31,5.31Zm.58-2.24.77.77a1.78,1.78,0,1,0,2.5-2.49l-.78-.77a1.78,1.78,0,1,0-2.49,2.49Z" style="fill:#fff"/><path d="M368.86,971.58l1.71,1.7,2.15-2.15,1.15,1.15-2.13,2.12,2.76,2.76c.43.43,1,.37,1.54-.18l1.19-1.21,1.13,1.13c-.05.07-1.18,1.22-1.3,1.34-1.57,1.57-2.67,1.67-4,.33l-2.74-2.74-1.5,1.5-1.14-1.14,1.5-1.51-1.71-1.7Z" style="fill:#fff"/><path d="M377.6,972.8l-.89-.89a3.75,3.75,0,0,1,5.31-5.3l.89.89a3.75,3.75,0,0,1-5.31,5.3Zm.58-2.24.77.78a1.78,1.78,0,1,0,2.49-2.49l-.77-.78a1.78,1.78,0,1,0-2.49,2.49Z" style="fill:#fff"/><path d="M388.45,970.54l-1.28-1.28,5.43-5.43,1.28,1.28Z" style="fill:#fff"/><path d="M388.72,951.72l1.7,1.71,2.16-2.15,1.14,1.14-2.12,2.13,2.75,2.75c.44.44,1,.38,1.54-.17l1.19-1.21,1.13,1.13c0,.07-1.18,1.22-1.29,1.33-1.57,1.57-2.67,1.68-4,.34L390.17,956l-1.5,1.5-1.15-1.15,1.5-1.5-1.71-1.71Z" style="fill:#fff"/><path d="M403.53,948.51c.9,1.14.6,2.89-.74,4.23-1.68,1.68-3.58,1.7-5.22.06l-.93-.92a3.43,3.43,0,0,1,.11-5.13,3.35,3.35,0,0,1,5.06,0l.79.8-3.72,3.72.32.31a1.64,1.64,0,0,0,2.48,0,1.57,1.57,0,0,0,.5-1.77ZM398,950.39l2.34-2.34a1.67,1.67,0,1,0-2.34,2.34Z" style="fill:#fff"/><path d="M406.62,941.15a1.43,1.43,0,0,0-2.07.14c-.77.77-.62,1.77.44,2.83l.39.38c1.05,1.06,2.05,1.21,2.82.44a1.41,1.41,0,0,0,.19-2l1.4-1.4c1.25,1.5,1.11,3.11-.38,4.6-1.7,1.71-3.61,1.68-5.36-.07l-.61-.61c-1.75-1.75-1.77-3.65-.07-5.35,1.49-1.5,3.1-1.62,4.65-.34Z" style="fill:#fff"/><path d="M407.44,936.29l1.39-1.38,1,1,.09-.09a2.47,2.47,0,0,1,.64-2.83c1.26-1.26,2.68-1.17,4.09.24l3.73,3.73-1.43,1.43L413.53,935c-.85-.85-1.59-.91-2.32-.18a1.66,1.66,0,0,0,.1,2.51l3.33,3.34-1.43,1.43Z" style="fill:#fff"/><path d="M413.65,925.92a1.39,1.39,0,1,1,1.89-.08A1.27,1.27,0,0,1,413.65,925.92Zm6.31,9.4-1.14-1.14,1.85-1.86-3.48-3.48-1.76,1.76-1.15-1.15,3.15-3.15,4.64,4.63,1.74-1.74,1.14,1.14Z" style="fill:#fff"/><path d="M426.47,921.29a1.43,1.43,0,0,0-2.07.15c-.77.77-.61,1.76.44,2.82l.39.39c1.06,1.06,2.06,1.21,2.83.44a1.42,1.42,0,0,0,.19-2l1.4-1.4c1.25,1.5,1.1,3.11-.39,4.6-1.7,1.7-3.6,1.68-5.36-.07l-.61-.61c-1.75-1.75-1.77-3.66-.07-5.36,1.49-1.49,3.1-1.61,4.65-.34Z" style="fill:#fff"/><path d="M431.13,912.6l1.64-1.64.27,4.54,5.65,1.09L437,918.25l-4.14-.79v1.1l1.92,1.91-1.43,1.43-8-8,1.43-1.43,4.51,4.52.09-.09Z" style="fill:#fff"/></g><g style="isolation:isolate"><path d="M411.26,1006.17l1,1c1.58,1.58,1.71,3.27.38,4.59a2.14,2.14,0,0,1-2.68.53l-.1.1,2.9,2.9-1.49,1.49-7.7-7.69,1.47-1.47,1,1,.11-.11a2.16,2.16,0,0,1,.53-2.7C408,1004.47,409.69,1004.6,411.26,1006.17Zm-3.81,3.89,1,1a1.69,1.69,0,1,0,2.38-2.38l-1-1a1.69,1.69,0,1,0-2.39,2.39Z" style="fill:#fff"/><path d="M408,1000.3l1.39-1.4,3.19,3.18.08-.08a2.52,2.52,0,0,1,.67-2.85c1.26-1.25,2.71-1.18,4.1.21l3.72,3.72-1.43,1.44-3.37-3.37c-.84-.85-1.61-.9-2.34-.18a1.69,1.69,0,0,0,.07,2.55l3.32,3.32-1.43,1.43Z" style="fill:#fff"/><path d="M420,999.27l-.89-.89a3.75,3.75,0,0,1,5.31-5.3l.89.89a3.75,3.75,0,0,1-5.31,5.3Zm.58-2.23.77.77a1.78,1.78,0,1,0,2.49-2.49l-.77-.78a1.78,1.78,0,1,0-2.49,2.5Z" style="fill:#fff"/><path d="M424.53,984.81l1.71,1.71,2.15-2.15,1.14,1.14-2.12,2.13,2.76,2.76c.43.43,1,.37,1.54-.18.13-.14,1.13-1.14,1.18-1.21l1.14,1.13c0,.07-1.18,1.22-1.3,1.33-1.57,1.57-2.67,1.68-4,.34L426,989.07l-1.5,1.5-1.15-1.15,1.51-1.5-1.71-1.71Z" style="fill:#fff"/><path d="M433.27,986l-.89-.89a3.76,3.76,0,0,1,5.31-5.31l.89.89a3.76,3.76,0,0,1-5.31,5.31Zm.58-2.24.77.77a1.78,1.78,0,1,0,2.49-2.49l-.77-.77a1.78,1.78,0,1,0-2.49,2.49Z" style="fill:#fff"/><path d="M444.12,983.77l-1.28-1.27,5.43-5.44,1.28,1.28Z" style="fill:#fff"/><path d="M453.65,970.54l-1.25,1.24-4.65-3.09-.05,0,3.09,4.65-1.24,1.25L442.62,970l1.36-1.36,4.51,3.61.18-.18-3.41-4.66,1.18-1.18,4.66,3.41.18-.18-3.62-4.5,1.37-1.37Z" style="fill:#fff"/><path d="M449.47,959a1.39,1.39,0,1,1,1.88-.07A1.26,1.26,0,0,1,449.47,959Zm6.31,9.4-1.14-1.14,1.85-1.86L453,961.93l-1.75,1.76-1.15-1.15,3.15-3.15,4.63,4.63,1.74-1.74,1.14,1.14Z" style="fill:#fff"/><path d="M460.33,952.31l1.64-1.64.26,4.54,5.65,1.09L466.23,958l-4.14-.79v1.1l1.91,1.91-1.43,1.43-8-8,1.43-1.43,4.52,4.52.09-.09Z" style="fill:#fff"/><path d="M462.7,945.77a1.39,1.39,0,1,1,1.89-.07A1.26,1.26,0,0,1,462.7,945.77Zm6.31,9.4L467.87,954l1.85-1.85-3.48-3.49-1.76,1.76-1.14-1.15,3.15-3.15,4.63,4.64,1.74-1.75,1.14,1.14Z" style="fill:#fff"/><path d="M477.44,940l1,1c1.58,1.58,1.71,3.27.38,4.59a2.13,2.13,0,0,1-2.68.52l-.1.11,2.9,2.9-1.49,1.49-7.7-7.69,1.47-1.47,1,1,.11-.11a2.16,2.16,0,0,1,.53-2.7C474.18,938.29,475.87,938.42,477.44,940Zm-3.81,3.89,1,1a1.69,1.69,0,1,0,2.39-2.38l-1-1a1.69,1.69,0,1,0-2.39,2.39Z" style="fill:#fff"/><path d="M485.67,935.27c.9,1.15.6,2.89-.74,4.23-1.68,1.68-3.58,1.7-5.22.07l-.92-.93a3.42,3.42,0,0,1,.1-5.13,3.35,3.35,0,0,1,5.06,0l.8.79L481,938.07l.31.32a1.65,1.65,0,0,0,2.48,0,1.57,1.57,0,0,0,.5-1.78Zm-5.56,1.89,2.34-2.34a1.62,1.62,0,0,0-2.48-.17A1.64,1.64,0,0,0,480.11,937.16Z" style="fill:#fff"/><path d="M486.17,933.23l-1-1c-1.57-1.57-1.7-3.27-.38-4.59a2.13,2.13,0,0,1,2.68-.52l.11-.11-3.19-3.18,1.5-1.5,8,8-1.47,1.48-1-1-.11.12a2.14,2.14,0,0,1-.53,2.7C489.44,934.92,487.74,934.8,486.17,933.23Zm3.81-3.89-1-1a1.69,1.69,0,1,0-2.39,2.39l.95,1a1.69,1.69,0,1,0,2.39-2.39Z" style="fill:#fff"/><path d="M489.17,919.3a1.39,1.39,0,0,1,2-2,1.39,1.39,0,0,1-2,2Zm6.32,9.4-1.15-1.14,1.86-1.85-3.49-3.49L491,924l-1.14-1.15,3.15-3.15,4.63,4.63,1.74-1.74,1.14,1.14Z" style="fill:#fff"/><path d="M500.29,920.59c-1-1-.89-2.41.43-3.93l1.27-1.43-.46-.47c-.5-.5-1.14-.44-1.73.15a1.36,1.36,0,0,0-.41,1.57L498,917.87c-.95-1.15-.67-2.78.7-4.15s3-1.6,4.28-.34l3.91,3.91-1.36,1.36-.77-.77-.12.13a2.51,2.51,0,0,1-.78,2.51A2.4,2.4,0,0,1,500.29,920.59Zm3-4-.42-.42-1,1.17c-.63.72-.71,1.31-.27,1.76s1,.35,1.6-.2A1.57,1.57,0,0,0,503.33,916.57Z" style="fill:#fff"/></g><g style="isolation:isolate"><path d="M540.57,946.61l1,1c1.58,1.57,1.71,3.26.39,4.59a2.13,2.13,0,0,1-2.68.52l-.11.11,2.9,2.89-1.49,1.5-7.69-7.7,1.47-1.47,1,1,.11-.11a2.15,2.15,0,0,1,.54-2.7C537.31,944.9,539,945,540.57,946.61Zm-3.8,3.88,1,1a1.69,1.69,0,1,0,2.39-2.39l-1-.95a1.69,1.69,0,1,0-2.38,2.38Z" style="fill:#fff"/><path d="M539.48,942.91l1.39-1.39,1,1,.09-.09a2.48,2.48,0,0,1,.65-2.82c1.26-1.26,2.68-1.17,4.09.23l3.73,3.73L549,945l-3.39-3.39c-.85-.85-1.6-.91-2.32-.18a1.66,1.66,0,0,0,.1,2.51l3.33,3.33-1.43,1.43Z" style="fill:#fff"/><path d="M552.22,942.74l1.4-1.4c.47.28,1.17,0,1.8-.58.83-.83.89-1.65.17-2.37l-1.13-1.14-.11.11a2.34,2.34,0,0,1-.63,2.79c-1.33,1.33-3,1.2-4.6-.36l-.88-.87c-1.57-1.57-1.67-3.29-.28-4.67a2.27,2.27,0,0,1,2.74-.59l.11-.11-1-1,1.41-1.41,5.77,5.77c1.34,1.34,1.13,3.22-.55,4.9C555,943.33,553.34,943.67,552.22,942.74Zm.82-4.4a1.65,1.65,0,0,0,0-2.51l-.84-.83a1.74,1.74,0,1,0-2.45,2.46l.83.83A1.65,1.65,0,0,0,553,938.34Z" style="fill:#fff"/><path d="M552.31,925.92a1.39,1.39,0,0,1,2-2,1.39,1.39,0,0,1-2,2Zm6.31,9.4-1.14-1.14,1.85-1.86-3.48-3.48-1.76,1.76-1.15-1.15,3.15-3.15,4.63,4.63,1.74-1.74,1.15,1.14Z" style="fill:#fff"/><path d="M570.59,923.35l-1.21,1.21-4-4c-.42-.41-.87-.45-1.19-.12s-.3.83.13,1.26l4,4-1.2,1.2-4-4c-.41-.41-.85-.47-1.19-.13A.85.85,0,0,0,562,924l4,4-1.21,1.21L559,923.4l1.25-1.25.9.91.16-.15a1.55,1.55,0,0,1,.06-2.12,1.47,1.47,0,0,1,2,0l.15-.15a1.53,1.53,0,0,1,.1-2.05c.71-.71,1.59-.6,2.51.32Z" style="fill:#fff"/><path d="M572.07,922.89l1.4-1.4c.47.27,1.17,0,1.8-.59.83-.83.9-1.65.17-2.37l-1.13-1.13-.11.11a2.36,2.36,0,0,1-.62,2.79c-1.33,1.32-3.05,1.2-4.61-.36l-.87-.87c-1.58-1.58-1.67-3.3-.29-4.68a2.32,2.32,0,0,1,2.75-.59l.1-.1-1-1,1.4-1.4,5.77,5.76c1.35,1.35,1.14,3.22-.55,4.91C574.81,923.47,573.19,923.82,572.07,922.89Zm.83-4.4a1.66,1.66,0,0,0,0-2.51l-.83-.83a1.74,1.74,0,1,0-2.46,2.45l.83.83A1.66,1.66,0,0,0,572.9,918.49Z" style="fill:#fff"/></g><g style="isolation:isolate"><path d="M544.56,1006.39c1.4-1.39,2.88-1.62,4-.6l-1.35,1.35c-.45-.32-1.06-.18-1.59.36s-.66,1.15-.3,1.51.75.27,1.42-.18l1.08-.71c1.41-.93,2.42-1,3.3-.07,1.17,1.17,1,2.86-.55,4.36s-3,1.75-4.18.75l1.41-1.41c.49.31,1.1.14,1.69-.46s.72-1.21.34-1.58-.7-.27-1.44.21l-1,.68c-1.32.85-2.43.83-3.32-.06C542.94,1009.42,543.13,1007.82,544.56,1006.39Z" style="fill:#fff"/><path d="M554.55,1000.71a1.44,1.44,0,0,0-2.07.14c-.77.77-.62,1.77.44,2.83l.39.39c1.05,1,2.05,1.2,2.82.43a1.39,1.39,0,0,0,.19-2l1.4-1.41c1.25,1.5,1.11,3.12-.38,4.61-1.71,1.7-3.61,1.68-5.36-.07l-.61-.61c-1.75-1.76-1.77-3.66-.07-5.36,1.49-1.49,3.1-1.62,4.65-.34Z" style="fill:#fff"/><path d="M562.55,998.12l1.68-1.68,1,1-4.15,4.15-1-1,1.1-1.1-3.66-3.66-1.21,1.2-1-1.06,2.58-2.58,1.48,1.48.23-.23a2.49,2.49,0,0,1,.3-3.56,3,3,0,0,1,.94-.7l1.55,1.55a4.12,4.12,0,0,0-1.13.8c-1.36,1.36-1.41,2.64-.17,3.88Z" style="fill:#fff"/><path d="M571.31,988.22c.9,1.14.61,2.89-.73,4.23-1.68,1.68-3.59,1.7-5.23.06l-.92-.93a3.42,3.42,0,0,1,.1-5.12,3.35,3.35,0,0,1,5.06,0l.8.8L566.67,991l.31.31a1.65,1.65,0,0,0,2.48,0,1.55,1.55,0,0,0,.5-1.77Zm-5.56,1.88,2.34-2.34a1.62,1.62,0,0,0-2.47-.17A1.64,1.64,0,0,0,565.75,990.1Z" style="fill:#fff"/><path d="M577.93,981.6c.9,1.14.61,2.89-.73,4.23-1.68,1.68-3.59,1.7-5.23.06l-.92-.93a3.41,3.41,0,0,1,.1-5.12,3.35,3.35,0,0,1,5.06,0l.8.8-3.72,3.72.31.31a1.64,1.64,0,0,0,2.48,0,1.55,1.55,0,0,0,.5-1.77Zm-5.56,1.88,2.34-2.34a1.67,1.67,0,1,0-2.34,2.34Z" style="fill:#fff"/><path d="M575.23,976l1.38-1.38,1,1,.09-.09a2.48,2.48,0,0,1,.65-2.82c1.26-1.26,2.68-1.17,4.09.23l3.73,3.73-1.44,1.44-3.39-3.39c-.85-.85-1.59-.91-2.32-.18a1.66,1.66,0,0,0,.1,2.51l3.34,3.34L581,981.77Z" style="fill:#fff"/><path d="M584.27,966.68c1.4-1.39,2.88-1.62,4-.6L587,967.43c-.45-.32-1.06-.18-1.6.36s-.65,1.15-.29,1.52.75.26,1.42-.19l1.08-.71c1.41-.92,2.42-.95,3.3-.07,1.17,1.17.95,2.86-.55,4.36s-3,1.76-4.18.75l1.41-1.41c.49.31,1.1.14,1.69-.46s.72-1.21.34-1.58-.7-.26-1.44.21l-1,.68c-1.32.85-2.44.83-3.33-.06C582.64,969.71,582.84,968.11,584.27,966.68Z" style="fill:#fff"/><path d="M586.24,960.59l1.4-1.4,3.18,3.18.09-.08a2.51,2.51,0,0,1,.67-2.85c1.25-1.25,2.71-1.18,4.1.21l3.72,3.72L598,964.81l-3.36-3.37c-.85-.85-1.62-.9-2.34-.18a1.69,1.69,0,0,0,.06,2.55l3.32,3.32-1.43,1.43Z" style="fill:#fff"/><path d="M598.33,959.57l-.89-.9a3.75,3.75,0,0,1,5.31-5.3l.89.89a3.76,3.76,0,0,1-5.31,5.31Zm.58-2.24.77.77a1.78,1.78,0,1,0,2.49-2.49l-.77-.78a1.78,1.78,0,1,0-2.49,2.5Z" style="fill:#fff"/><path d="M602.83,945.1l1.71,1.71,2.15-2.15,1.14,1.14-2.12,2.13,2.75,2.76c.44.43,1,.37,1.54-.18l1.19-1.21,1.13,1.13c-.05.07-1.18,1.22-1.29,1.33-1.57,1.57-2.67,1.68-4,.34l-2.74-2.74-1.5,1.5-1.15-1.15,1.5-1.5-1.7-1.7Z" style="fill:#fff"/><path d="M615.79,950.68l-1.27-1.27L620,944l1.28,1.28Z" style="fill:#fff"/><path d="M621.06,942.74l1.4-1.4c.47.28,1.16,0,1.79-.58.84-.83.9-1.65.18-2.37l-1.14-1.14-.11.11a2.34,2.34,0,0,1-.62,2.79c-1.33,1.33-3,1.2-4.6-.36l-.88-.87c-1.58-1.58-1.67-3.29-.29-4.67a2.29,2.29,0,0,1,2.75-.59l.1-.11-1-1,1.41-1.41,5.76,5.77c1.35,1.34,1.14,3.21-.54,4.9C623.79,943.33,622.18,943.67,621.06,942.74Zm.82-4.4a1.65,1.65,0,0,0,0-2.51L621,935a1.74,1.74,0,1,0-2.46,2.46l.84.83A1.65,1.65,0,0,0,621.88,938.34Z" style="fill:#fff"/><path d="M625.64,933.83c-1-1-.89-2.41.43-3.93l1.27-1.44-.46-.46a1.13,1.13,0,0,0-1.73.14,1.36,1.36,0,0,0-.41,1.57l-1.39,1.39c-.94-1.15-.67-2.77.7-4.14s3-1.61,4.28-.35l3.91,3.92-1.36,1.36-.77-.77-.12.13a2.5,2.5,0,0,1-.78,2.5A2.4,2.4,0,0,1,625.64,933.83Zm3-4-.42-.42-1,1.18c-.63.71-.71,1.31-.27,1.75s1,.36,1.6-.2A1.57,1.57,0,0,0,628.68,929.8Z" style="fill:#fff"/><path d="M639.43,923.34l-1.22,1.22-4-4c-.41-.41-.86-.45-1.19-.12s-.29.83.13,1.26l4,4-1.19,1.2-4-4c-.42-.41-.86-.47-1.2-.13a.86.86,0,0,0,.13,1.27l4,4-1.21,1.21-5.77-5.77,1.25-1.25.9.91.15-.15a1.56,1.56,0,0,1,.07-2.12,1.47,1.47,0,0,1,2,0l.15-.15a1.52,1.52,0,0,1,.1-2.05c.71-.71,1.59-.6,2.51.32Z" style="fill:#fff"/><path d="M644.11,915.42c.9,1.14.61,2.89-.73,4.23-1.68,1.68-3.59,1.7-5.23.06l-.92-.93a3.41,3.41,0,0,1,.1-5.12,3.35,3.35,0,0,1,5.06,0l.8.8-3.72,3.72.31.31a1.64,1.64,0,0,0,2.48,0,1.55,1.55,0,0,0,.5-1.77Zm-5.56,1.88,2.34-2.34a1.67,1.67,0,1,0-2.34,2.34Z" style="fill:#fff"/></g><g style="isolation:isolate"><path d="M620,999.77c1.4-1.39,2.88-1.62,4-.6l-1.35,1.35c-.45-.32-1.06-.18-1.6.36s-.66,1.15-.29,1.52.74.26,1.42-.19l1.07-.71c1.41-.93,2.43-1,3.31-.07,1.17,1.17.95,2.86-.55,4.36s-3,1.75-4.18.75l1.41-1.41c.49.31,1.09.14,1.69-.46s.72-1.21.34-1.58-.7-.27-1.44.21l-1,.68c-1.31.85-2.43.83-3.32-.06C618.38,1002.8,618.58,1001.2,620,999.77Z" style="fill:#fff"/><path d="M630,994.09a1.43,1.43,0,0,0-2.06.14c-.77.77-.62,1.77.44,2.83l.38.39c1.06,1,2.06,1.21,2.83.44a1.42,1.42,0,0,0,.19-2l1.4-1.41c1.25,1.5,1.1,3.12-.39,4.61-1.7,1.7-3.6,1.68-5.36-.07l-.6-.61c-1.76-1.76-1.78-3.66-.08-5.36,1.49-1.49,3.11-1.62,4.65-.34Z" style="fill:#fff"/><path d="M638,991.5l1.67-1.68,1.05,1.06L636.58,995l-1.05-1,1.1-1.1L633,989.21l-1.2,1.2-1.06-1.06,2.59-2.58,1.48,1.48L635,988a2.5,2.5,0,0,1,.3-3.56,3.5,3.5,0,0,1,.94-.7l1.56,1.55a4.18,4.18,0,0,0-1.13.8c-1.36,1.36-1.41,2.64-.17,3.88Z" style="fill:#fff"/><path d="M646.76,981.6c.9,1.14.6,2.89-.74,4.23-1.68,1.68-3.58,1.7-5.22.06l-.93-.93a3.43,3.43,0,0,1,.11-5.13,3.36,3.36,0,0,1,5.06,0l.79.8-3.72,3.72.32.31a1.64,1.64,0,0,0,2.48,0,1.57,1.57,0,0,0,.5-1.77Zm-5.56,1.88,2.34-2.34a1.67,1.67,0,1,0-2.34,2.34Z" style="fill:#fff"/><path d="M653.37,975c.9,1.14.61,2.89-.73,4.23-1.68,1.68-3.58,1.7-5.22.06l-.93-.92a3.43,3.43,0,0,1,.11-5.13,3.36,3.36,0,0,1,5.06,0l.79.8-3.72,3.72.32.31a1.64,1.64,0,0,0,2.48,0,1.54,1.54,0,0,0,.49-1.77Zm-5.55,1.89,2.34-2.34a1.62,1.62,0,0,0-2.48-.18A1.65,1.65,0,0,0,647.82,976.87Z" style="fill:#fff"/><path d="M650.67,969.38l1.39-1.38,1,1,.09-.08a2.47,2.47,0,0,1,.64-2.83c1.26-1.26,2.68-1.17,4.09.24l3.73,3.73-1.43,1.43-3.39-3.39c-.85-.85-1.59-.91-2.32-.18a1.66,1.66,0,0,0,.1,2.51l3.33,3.34-1.43,1.43Z" style="fill:#fff"/><path d="M659.72,960.06c1.4-1.39,2.88-1.62,4-.6l-1.35,1.35a1.24,1.24,0,0,0-1.6.36c-.54.54-.66,1.15-.29,1.52s.74.26,1.42-.19l1.07-.71c1.41-.92,2.43-.95,3.31-.07,1.16,1.17,1,2.86-.55,4.36s-3,1.75-4.18.75l1.41-1.41c.49.31,1.09.14,1.69-.46s.72-1.21.34-1.58-.7-.26-1.44.21l-1.05.68c-1.32.85-2.43.83-3.32-.06C658.09,963.09,658.29,961.49,659.72,960.06Z" style="fill:#fff"/><path d="M661.69,954l1.4-1.4,3.18,3.18.08-.08a2.51,2.51,0,0,1,.68-2.85c1.25-1.25,2.7-1.18,4.09.21l3.73,3.72-1.44,1.44L670,954.82c-.84-.85-1.61-.9-2.34-.17a1.68,1.68,0,0,0,.07,2.54l3.32,3.32-1.43,1.43Z" style="fill:#fff"/><path d="M673.78,953l-.89-.89a3.75,3.75,0,0,1,5.3-5.31l.89.89a3.75,3.75,0,0,1-5.3,5.31Zm.57-2.24.78.77a1.78,1.78,0,1,0,2.49-2.49l-.78-.77a1.78,1.78,0,1,0-2.49,2.49Z" style="fill:#fff"/><path d="M678.27,938.48l1.71,1.71,2.15-2.15,1.15,1.14-2.13,2.13,2.76,2.76c.43.43,1,.37,1.54-.18l1.19-1.21,1.13,1.13c0,.07-1.18,1.22-1.3,1.33-1.57,1.57-2.66,1.68-4,.34l-2.75-2.74-1.5,1.5-1.14-1.15,1.5-1.5-1.71-1.7Z" style="fill:#fff"/><path d="M691.24,944.06,690,942.79l5.44-5.44,1.27,1.28Z" style="fill:#fff"/><path d="M700.77,930.83l-1.24,1.24L694.88,929l-.06,0,3.1,4.65-1.25,1.25-6.93-4.62,1.37-1.36,4.5,3.61.19-.18-3.42-4.66,1.18-1.18,4.66,3.41.19-.18-3.62-4.5,1.37-1.37Z" style="fill:#fff"/><path d="M706.32,922c.9,1.14.61,2.88-.73,4.22-1.68,1.68-3.59,1.7-5.23.07l-.92-.93a3.42,3.42,0,0,1,.1-5.13,3.35,3.35,0,0,1,5.06.05l.8.79-3.72,3.72.31.32a1.65,1.65,0,0,0,2.48,0,1.55,1.55,0,0,0,.5-1.77Zm-5.56,1.88,2.34-2.34a1.67,1.67,0,1,0-2.34,2.34Z" style="fill:#fff"/><path d="M710,919.62l-.11.11,1,1-1.48,1.48-8-8,1.49-1.49,3.18,3.18.11-.11a2.13,2.13,0,0,1,.52-2.67c1.32-1.33,3-1.2,4.59.37l1,1c1.57,1.57,1.7,3.26.38,4.58A2.15,2.15,0,0,1,710,919.62Zm.82-3.7-.95-.95a1.69,1.69,0,1,0-2.39,2.39l.95.95a1.69,1.69,0,1,0,2.39-2.39Z" style="fill:#fff"/></g><g style="isolation:isolate"><path d="M687.08,998.05l1.7,1.7,2.16-2.15,1.14,1.15-2.12,2.12,2.75,2.76c.44.44,1,.37,1.54-.18.14-.13,1.13-1.14,1.19-1.2l1.13,1.13-1.29,1.33c-1.57,1.57-2.67,1.67-4,.33l-2.74-2.74-1.5,1.5-1.15-1.14,1.5-1.5-1.7-1.71Z" style="fill:#fff"/><path d="M701.89,994.84c.9,1.14.6,2.89-.74,4.23-1.68,1.68-3.58,1.7-5.22.06l-.93-.93a3.43,3.43,0,0,1,.11-5.13,3.36,3.36,0,0,1,5.06,0l.79.8-3.72,3.72.32.31a1.65,1.65,0,0,0,2.48,0,1.57,1.57,0,0,0,.5-1.77Zm-5.56,1.88,2.34-2.34a1.67,1.67,0,1,0-2.34,2.34Z" style="fill:#fff"/><path d="M705.52,990.58l.78,3.09-1.52,1.51-1-4.69L699,989.43l1.65-1.66,3,.86.09-.09-.85-3,1.57-1.57,1,4.7,4.77,1.06-1.59,1.6-3.09-.78Z" style="fill:#fff"/><path d="M706.93,978.19l1.71,1.71,2.15-2.15,1.15,1.14L709.81,981l2.76,2.76c.43.43,1,.37,1.54-.18.13-.14,1.13-1.14,1.18-1.21l1.14,1.13c0,.07-1.18,1.22-1.3,1.34-1.57,1.57-2.67,1.67-4,.33l-2.74-2.74-1.5,1.5-1.15-1.15,1.51-1.5-1.71-1.7Z" style="fill:#fff"/><path d="M723.33,976.64,721.94,978l-1-1-.09.09a2.48,2.48,0,0,1-.65,2.83c-1.25,1.26-2.67,1.18-4.08-.23L712.42,976l1.43-1.43,3.4,3.39c.84.85,1.59.91,2.31.18a1.66,1.66,0,0,0-.09-2.51l-3.34-3.34,1.43-1.43Z" style="fill:#fff"/><path d="M726.22,971.65l1.67-1.68,1.05,1-4.14,4.15-1-1,1.1-1.1-3.67-3.67-1.2,1.21-1.06-1.06,2.59-2.58L723,968.4l.22-.23a2.5,2.5,0,0,1,.3-3.56,3.19,3.19,0,0,1,1-.7l1.55,1.55a4,4,0,0,0-1.13.8c-1.36,1.36-1.41,2.64-.17,3.88Z" style="fill:#fff"/><path d="M735,961.75c.9,1.14.6,2.88-.74,4.22-1.68,1.68-3.58,1.71-5.22.07l-.92-.93a3.42,3.42,0,0,1,.1-5.13,3.36,3.36,0,0,1,5.06,0l.8.8-3.73,3.72.32.31a1.65,1.65,0,0,0,2.48,0,1.55,1.55,0,0,0,.5-1.77Zm-5.56,1.88,2.34-2.34a1.67,1.67,0,1,0-2.34,2.34Z" style="fill:#fff"/><path d="M734.7,953.45c1.4-1.4,2.88-1.62,4-.61l-1.35,1.35a1.24,1.24,0,0,0-1.59.36c-.55.55-.66,1.15-.3,1.52s.75.26,1.42-.18l1.08-.72c1.41-.92,2.42-.94,3.3-.06,1.17,1.16,1,2.85-.55,4.36s-3,1.75-4.18.74L738,958.8c.49.31,1.1.14,1.69-.45s.72-1.21.34-1.59-.7-.26-1.44.21l-1,.69c-1.32.84-2.44.83-3.32-.06C733.08,956.48,733.27,954.88,734.7,953.45Z" style="fill:#fff"/><path d="M746.37,957.3,745.09,956l5.44-5.43,1.27,1.28Z" style="fill:#fff"/><path d="M753.22,940l1,1c1.58,1.58,1.71,3.27.39,4.59a2.13,2.13,0,0,1-2.68.52l-.11.11,2.9,2.9-1.49,1.49-7.69-7.69,1.47-1.47,1,1,.11-.11a2.15,2.15,0,0,1,.54-2.7C750,938.29,751.65,938.42,753.22,940Zm-3.81,3.89,1,1a1.69,1.69,0,1,0,2.39-2.38l-1-1a1.69,1.69,0,1,0-2.39,2.39Z" style="fill:#fff"/><path d="M749.91,934.12l1.4-1.4,3.18,3.18.08-.08a2.53,2.53,0,0,1,.68-2.85c1.25-1.25,2.7-1.18,4.09.21l3.73,3.72-1.44,1.43L758.26,935c-.84-.85-1.61-.91-2.34-.18a1.7,1.7,0,0,0,.07,2.55l3.32,3.32-1.43,1.43Z" style="fill:#fff"/><path d="M762,933.09l-.89-.89a3.75,3.75,0,0,1,5.3-5.3l.89.89a3.75,3.75,0,0,1-5.3,5.3Zm.57-2.24.78.78a1.78,1.78,0,1,0,2.49-2.49l-.78-.78a1.78,1.78,0,1,0-2.49,2.49Z" style="fill:#fff"/><path d="M766.5,918.63l1.7,1.71,2.15-2.15,1.15,1.14-2.13,2.13,2.76,2.75c.44.44,1,.38,1.54-.17l1.19-1.21L776,924c0,.07-1.18,1.22-1.29,1.33-1.57,1.57-2.67,1.68-4,.34L768,922.88l-1.51,1.51-1.14-1.15,1.5-1.5L765.09,920Z" style="fill:#fff"/><path d="M775.23,919.86l-.89-.89a3.76,3.76,0,0,1,5.31-5.31l.89.89a3.76,3.76,0,0,1-5.31,5.31Zm.58-2.24.77.77a1.78,1.78,0,1,0,2.49-2.49l-.77-.77a1.78,1.78,0,1,0-2.49,2.49Z" style="fill:#fff"/></g><g style="isolation:isolate"><path d="M777.6,978.19l1.7,1.71,2.16-2.15,1.14,1.14L780.48,981l2.75,2.76c.44.43,1,.37,1.54-.18l1.19-1.21,1.13,1.13c-.05.07-1.18,1.22-1.29,1.33-1.57,1.57-2.67,1.68-4,.34l-2.74-2.74-1.5,1.5-1.15-1.15,1.5-1.5-1.7-1.7Z" style="fill:#fff"/><path d="M792.41,975c.9,1.14.6,2.89-.74,4.23-1.68,1.68-3.58,1.7-5.22.06l-.92-.92a3.42,3.42,0,0,1,.1-5.13,3.35,3.35,0,0,1,5.06,0l.8.79-3.73,3.72.32.32a1.66,1.66,0,0,0,2.48,0,1.58,1.58,0,0,0,.5-1.78Zm-5.56,1.89,2.34-2.34a1.62,1.62,0,0,0-2.48-.18A1.65,1.65,0,0,0,786.85,976.87Z" style="fill:#fff"/><path d="M796,970.72l.78,3.09-1.52,1.52-1-4.69-4.76-1.07,1.65-1.65,3,.85.09-.09-.85-3,1.57-1.57,1,4.69,4.77,1.07-1.59,1.6-3.09-.79Z" style="fill:#fff"/><path d="M797.45,958.34l1.71,1.71,2.15-2.15,1.15,1.14-2.13,2.13,2.76,2.75c.43.44,1,.37,1.54-.18l1.19-1.2,1.13,1.13-1.3,1.33c-1.57,1.57-2.67,1.67-4,.34l-2.74-2.75-1.5,1.51L796.25,963l1.51-1.5-1.71-1.71Z" style="fill:#fff"/><path d="M813.85,956.78l-1.39,1.39-1-1-.09.09a2.48,2.48,0,0,1-.65,2.83c-1.25,1.26-2.68,1.17-4.08-.24l-3.74-3.73,1.43-1.44,3.4,3.4c.84.84,1.59.91,2.31.18a1.66,1.66,0,0,0-.09-2.51l-3.34-3.34,1.43-1.43Z" style="fill:#fff"/><path d="M816.74,951.79l1.67-1.67,1.05,1-4.14,4.14-1.05-1,1.1-1.1-3.67-3.66-1.2,1.2-1.06-1.06,2.59-2.58,1.48,1.48.22-.22a2.51,2.51,0,0,1,.3-3.57,3.72,3.72,0,0,1,.94-.7l1.56,1.56a4.14,4.14,0,0,0-1.13.79c-1.36,1.36-1.41,2.64-.17,3.88Z" style="fill:#fff"/><path d="M825.5,941.89c.9,1.14.6,2.89-.74,4.23-1.68,1.68-3.58,1.7-5.22.06l-.92-.92a3.42,3.42,0,0,1,.1-5.13,3.36,3.36,0,0,1,5.06,0l.8.8-3.72,3.72.31.31a1.65,1.65,0,0,0,2.48,0,1.58,1.58,0,0,0,.5-1.78Zm-5.56,1.89,2.34-2.34a1.62,1.62,0,0,0-2.48-.18A1.65,1.65,0,0,0,819.94,943.78Z" style="fill:#fff"/><path d="M825.22,933.59c1.4-1.39,2.88-1.62,4-.6l-1.35,1.35c-.45-.32-1.06-.18-1.59.36s-.66,1.15-.3,1.52.75.26,1.42-.19l1.08-.71c1.41-.93,2.42-1,3.3-.07,1.17,1.17,1,2.86-.55,4.36s-3,1.75-4.18.75l1.41-1.41c.49.31,1.1.14,1.69-.46s.72-1.21.34-1.58-.7-.27-1.44.21l-1,.68q-2,1.28-3.33-.06C823.6,936.62,823.79,935,825.22,933.59Z" style="fill:#fff"/><path d="M836.89,937.45l-1.28-1.28,5.44-5.43,1.27,1.28Z" style="fill:#fff"/><path d="M843.74,920.13l1,1c1.58,1.57,1.71,3.26.39,4.59a2.13,2.13,0,0,1-2.68.52l-.11.1,2.9,2.9-1.49,1.49L836.05,923l1.47-1.47,1,1,.11-.11a2.16,2.16,0,0,1,.53-2.7C840.48,918.43,842.17,918.56,843.74,920.13ZM839.93,924l1,1a1.69,1.69,0,1,0,2.39-2.39l-1-1a1.69,1.69,0,1,0-2.39,2.39Z" style="fill:#fff"/><path d="M846.48,912.6l1.64-1.63.27,4.53,5.65,1.09-1.66,1.66-4.14-.79v1.1l1.92,1.91-1.43,1.43-8-8,1.43-1.43L846.7,917l.09-.09Z" style="fill:#fff"/></g><g style="isolation:isolate"><path d="M834.28,991.43l1.71,1.71,2.15-2.15,1.14,1.14-2.12,2.13,2.76,2.75c.43.44,1,.37,1.53-.18.14-.13,1.13-1.13,1.19-1.2l1.13,1.13c0,.07-1.18,1.22-1.29,1.33-1.57,1.57-2.67,1.68-4,.34l-2.74-2.75-1.5,1.51L833.08,996l1.5-1.5-1.7-1.71Z" style="fill:#fff"/><path d="M849.09,988.22c.9,1.14.61,2.89-.73,4.23-1.68,1.68-3.59,1.7-5.23.06l-.92-.93a3.41,3.41,0,0,1,.1-5.12,3.35,3.35,0,0,1,5.06,0l.8.8L844.45,991l.31.31a1.64,1.64,0,0,0,2.48,0,1.55,1.55,0,0,0,.5-1.77Zm-5.56,1.88,2.34-2.34a1.67,1.67,0,1,0-2.34,2.34Z" style="fill:#fff"/><path d="M852.72,984l.78,3.09L852,988.57l-1-4.69-4.76-1.07,1.65-1.65,3,.85.09-.09-.85-3,1.57-1.57,1,4.7,4.77,1.07-1.59,1.59-3.09-.78Z" style="fill:#fff"/><path d="M854.13,971.58l1.71,1.7,2.15-2.15,1.15,1.15L857,974.4l2.76,2.76c.44.43,1,.37,1.54-.18l1.19-1.21,1.13,1.13c0,.07-1.18,1.22-1.3,1.34-1.57,1.57-2.66,1.67-4,.33l-2.75-2.74-1.5,1.5-1.14-1.14,1.5-1.51-1.71-1.7Z" style="fill:#fff"/><path d="M870.53,970l-1.38,1.39-1-1-.09.09a2.49,2.49,0,0,1-.64,2.83c-1.26,1.25-2.68,1.17-4.09-.24l-3.74-3.74,1.44-1.43,3.39,3.39c.84.85,1.59.91,2.31.18a1.66,1.66,0,0,0-.09-2.51l-3.34-3.34,1.43-1.42Z" style="fill:#fff"/><path d="M873.42,965l1.67-1.68,1.06,1L872,968.55l-1-1,1.1-1.1-3.66-3.66-1.21,1.2-1.06-1.06,2.59-2.58,1.48,1.48.23-.23a2.5,2.5,0,0,1,.29-3.56,3.19,3.19,0,0,1,.95-.7l1.55,1.55a4,4,0,0,0-1.13.8c-1.36,1.36-1.41,2.64-.17,3.88Z" style="fill:#fff"/><path d="M882.18,955.13c.9,1.14.61,2.89-.73,4.23-1.68,1.68-3.59,1.7-5.23.06l-.92-.93a3.42,3.42,0,0,1,.1-5.13,3.36,3.36,0,0,1,5.06,0l.8.8-3.72,3.72.31.31a1.64,1.64,0,0,0,2.48,0,1.55,1.55,0,0,0,.5-1.77ZM876.62,957l2.34-2.34a1.67,1.67,0,1,0-2.34,2.34Z" style="fill:#fff"/><path d="M881.9,946.83c1.4-1.4,2.88-1.62,4-.61l-1.35,1.35a1.24,1.24,0,0,0-1.59.36c-.55.55-.66,1.16-.3,1.52s.75.26,1.42-.18l1.08-.71c1.41-.93,2.42-.95,3.3-.07,1.17,1.17,1,2.86-.55,4.36s-3,1.75-4.18.75l1.42-1.42c.48.31,1.09.15,1.69-.45s.71-1.21.34-1.59-.71-.26-1.44.22l-1,.68c-1.32.84-2.43.83-3.32-.06C880.28,949.86,880.48,948.26,881.9,946.83Z" style="fill:#fff"/><path d="M893.57,950.68l-1.27-1.27,5.43-5.43,1.27,1.27Z" style="fill:#fff"/><path d="M900.42,933.37l1,1c1.58,1.58,1.71,3.27.39,4.59a2.14,2.14,0,0,1-2.68.53l-.11.1,2.9,2.9L900.42,944l-7.69-7.69,1.47-1.47,1,1,.11-.11a2.15,2.15,0,0,1,.54-2.7C897.16,931.67,898.85,931.8,900.42,933.37Zm-3.8,3.89,1,1a1.69,1.69,0,1,0,2.39-2.38l-1-1a1.69,1.69,0,1,0-2.38,2.39Z" style="fill:#fff"/><path d="M903.17,925.84l1.63-1.64.27,4.54,5.65,1.09-1.66,1.66-4.14-.79v1.09l1.92,1.92-1.43,1.43-8-8,1.43-1.43,4.52,4.52.08-.09Z" style="fill:#fff"/><path d="M907.68,925.32c-2.52-2.52-2.91-5-1.1-6.77s4.26-1.43,6.77,1.09,2.91,5,1.1,6.78S910.19,927.84,907.68,925.32Zm1.64-1.26.88-4.31c-1-.56-1.8-.56-2.39,0-.9.89-.43,2.33,1.32,4.08Zm2.58-3-.19-.19-.87,4.31a1.85,1.85,0,0,0,2.38,0C914.12,924.29,913.66,922.85,911.9,921.1Z" style="fill:#fff"/><path d="M918.42,922.13l-1.24-1.24,2-2L914.38,914l-.1.1-.65,3.24-1.4-1.41.67-3.4,1.46-1.46,6.31,6.31,1.93-1.93,1.24,1.24Z" style="fill:#fff"/></g><g style="isolation:isolate"><path d="M902.6,991.43l1.7,1.7,2.16-2.15,1.14,1.15-2.12,2.12,2.75,2.76c.44.44,1,.37,1.54-.18.14-.13,1.13-1.14,1.19-1.21l1.13,1.14-1.29,1.33c-1.57,1.57-2.67,1.67-4,.33l-2.74-2.74-1.5,1.5L901.4,996l1.5-1.5-1.7-1.71Z" style="fill:#fff"/><path d="M917.41,988.22c.9,1.14.6,2.89-.74,4.23-1.68,1.67-3.58,1.7-5.22.06l-.92-.93a3.42,3.42,0,0,1,.1-5.13,3.36,3.36,0,0,1,5.06,0l.8.8L912.76,991l.32.31a1.65,1.65,0,0,0,2.48,0,1.57,1.57,0,0,0,.5-1.77Zm-5.56,1.88,2.34-2.34a1.67,1.67,0,1,0-2.34,2.34Z" style="fill:#fff"/><path d="M921,984l.78,3.09-1.52,1.51-1-4.68-4.76-1.07,1.65-1.66,3,.86.09-.09-.85-3L920,977.3l1,4.7,4.77,1.06-1.59,1.6-3.09-.78Z" style="fill:#fff"/><path d="M922.45,971.57l1.71,1.71,2.15-2.15,1.15,1.15-2.13,2.12,2.76,2.76c.43.43,1,.37,1.54-.18l1.19-1.21L932,976.9c-.05.07-1.18,1.22-1.3,1.34-1.57,1.57-2.67,1.67-4,.33l-2.74-2.74-1.5,1.5-1.15-1.15,1.51-1.5-1.71-1.7Z" style="fill:#fff"/><path d="M938.85,970l-1.39,1.38-1-1-.09.09a2.5,2.5,0,0,1-.65,2.84c-1.25,1.25-2.67,1.17-4.08-.24l-3.74-3.74,1.44-1.43,3.39,3.39c.84.85,1.59.91,2.31.18A1.66,1.66,0,0,0,935,969l-3.34-3.34,1.43-1.43Z" style="fill:#fff"/><path d="M941.74,965l1.67-1.68,1.05,1-4.14,4.15-1.05-1,1.1-1.1-3.67-3.67-1.2,1.21-1.06-1.06,2.59-2.59,1.48,1.49.22-.23A2.51,2.51,0,0,1,939,958a3.19,3.19,0,0,1,1-.7l1.55,1.55a4,4,0,0,0-1.13.8c-1.36,1.36-1.41,2.64-.17,3.88Z" style="fill:#fff"/><path d="M950.5,955.13c.9,1.14.6,2.89-.74,4.22-1.68,1.68-3.58,1.7-5.22.07l-.92-.93a3.42,3.42,0,0,1,.1-5.13,3.35,3.35,0,0,1,5.06,0l.8.8-3.72,3.72.31.31a1.65,1.65,0,0,0,2.48,0,1.55,1.55,0,0,0,.5-1.77ZM944.94,957l2.34-2.34a1.67,1.67,0,1,0-2.34,2.34Z" style="fill:#fff"/><path d="M950.22,946.83c1.4-1.4,2.88-1.62,4-.61l-1.35,1.35a1.24,1.24,0,0,0-1.59.36c-.55.55-.66,1.15-.3,1.52s.75.26,1.42-.18l1.08-.71c1.41-.93,2.42-.95,3.3-.07,1.17,1.16,1,2.85-.55,4.36s-3,1.75-4.18.74l1.41-1.41c.49.31,1.1.14,1.69-.45s.72-1.21.34-1.59-.7-.26-1.44.22l-1,.68c-1.32.84-2.43.83-3.33-.06C948.6,949.86,948.79,948.26,950.22,946.83Z" style="fill:#fff"/><path d="M961.89,950.68l-1.28-1.27,5.44-5.44,1.27,1.28Z" style="fill:#fff"/><path d="M968.74,933.37l1,1c1.58,1.58,1.71,3.27.39,4.59a2.13,2.13,0,0,1-2.68.52l-.11.11,2.9,2.9L968.74,944l-7.69-7.69,1.47-1.47,1,1,.11-.11a2.15,2.15,0,0,1,.54-2.7C965.48,931.67,967.17,931.8,968.74,933.37Zm-3.81,3.88,1,1a1.69,1.69,0,1,0,2.39-2.38l-1-1a1.69,1.69,0,1,0-2.39,2.38Z" style="fill:#fff"/><path d="M971.49,925.84l1.63-1.64.27,4.54,5.65,1.09-1.66,1.65-4.14-.78v1.09l1.92,1.92-1.43,1.43-8-8,1.43-1.43,4.51,4.51.09-.08Z" style="fill:#fff"/><path d="M976,925.32c-2.52-2.52-2.92-5-1.1-6.77s4.26-1.43,6.77,1.09,2.91,5,1.1,6.78S978.51,927.83,976,925.32Zm1.64-1.26.88-4.32c-1-.56-1.8-.56-2.4,0-.89.89-.42,2.33,1.33,4.08Zm2.58-3-.19-.18-.88,4.31c1,.56,1.8.55,2.39,0C982.44,924.29,982,922.85,980.22,921.09Z" style="fill:#fff"/><path d="M981.49,912c1.56-1.56,3.5-1.73,4.81-.42.82.83,1.1,2,1,4.47l-.06,2.88.09.1,3.3-3.3,1.25,1.25-5.32,5.32-1-1,0-4.9c0-2.06-.13-2.72-.63-3.23a1.52,1.52,0,0,0-2.29.13,1.65,1.65,0,0,0,0,2.46l0,0-1.38,1.38,0,0C979.8,915.63,979.91,913.56,981.49,912Z" style="fill:#fff"/></g><g style="isolation:isolate"><path d="M958.31,1004.67l1.7,1.7,2.15-2.15,1.15,1.15-2.13,2.12,2.76,2.76c.44.43,1,.37,1.54-.18.14-.13,1.13-1.14,1.19-1.21l1.13,1.13c0,.07-1.18,1.22-1.29,1.34-1.57,1.57-2.67,1.67-4,.33l-2.74-2.74-1.51,1.5-1.14-1.14,1.5-1.51-1.71-1.7Z" style="fill:#fff"/><path d="M973.11,1001.46c.9,1.14.61,2.88-.73,4.22-1.68,1.68-3.58,1.7-5.22.07l-.93-.93a3.43,3.43,0,0,1,.11-5.13,3.35,3.35,0,0,1,5.06,0l.79.79-3.72,3.72.32.32a1.65,1.65,0,0,0,2.48,0,1.56,1.56,0,0,0,.49-1.78Zm-5.55,1.88,2.34-2.34a1.67,1.67,0,1,0-2.34,2.34Z" style="fill:#fff"/><path d="M976.74,997.2l.79,3.08L976,1001.8l-1-4.69-4.77-1.06,1.66-1.66,3,.85.09-.08-.85-3,1.57-1.57,1,4.69,4.77,1.07-1.59,1.6-3.09-.79Z" style="fill:#fff"/><path d="M978.16,984.81l1.71,1.71,2.15-2.15,1.14,1.14L981,987.64l2.76,2.76c.43.43,1,.37,1.53-.18.14-.14,1.14-1.14,1.19-1.21l1.13,1.13c0,.07-1.17,1.22-1.29,1.33-1.57,1.57-2.67,1.68-4,.34l-2.74-2.74-1.5,1.5L977,989.42l1.5-1.5-1.7-1.71Z" style="fill:#fff"/><path d="M994.56,983.25l-1.39,1.39-1-1-.08.09a2.49,2.49,0,0,1-.65,2.83c-1.25,1.26-2.68,1.18-4.09-.23l-3.73-3.74,1.43-1.43,3.39,3.39c.85.85,1.59.91,2.32.18a1.67,1.67,0,0,0-.09-2.51l-3.34-3.34,1.43-1.43Z" style="fill:#fff"/><path d="M997.45,978.26l1.67-1.67,1,1L996,981.79l-1-1.06,1.1-1.1L992.41,976l-1.2,1.2-1.06-1,2.59-2.59,1.48,1.48.22-.22a2.5,2.5,0,0,1,.3-3.56,3.56,3.56,0,0,1,.94-.71l1.56,1.56a4.14,4.14,0,0,0-1.13.79c-1.36,1.36-1.41,2.65-.17,3.89Z" style="fill:#fff"/><path d="M1006.2,968.36c.91,1.15.61,2.89-.73,4.23-1.68,1.68-3.58,1.7-5.22.07l-.93-.93a3.43,3.43,0,0,1,.11-5.13,3.35,3.35,0,0,1,5.06,0l.79.79-3.72,3.72.32.32a1.65,1.65,0,0,0,2.48,0,1.56,1.56,0,0,0,.49-1.78Zm-5.55,1.89,2.34-2.34a1.62,1.62,0,0,0-2.48-.17A1.64,1.64,0,0,0,1000.65,970.25Z" style="fill:#fff"/><path d="M1005.93,960.07c1.4-1.4,2.88-1.63,4-.61l-1.35,1.35a1.26,1.26,0,0,0-1.6.36c-.54.54-.66,1.15-.29,1.52s.74.26,1.42-.19l1.08-.71c1.4-.92,2.42-.94,3.3-.07,1.17,1.17,1,2.86-.55,4.36s-3,1.76-4.18.75l1.41-1.41c.49.31,1.1.14,1.69-.46s.72-1.2.34-1.58-.7-.26-1.44.21l-1,.68c-1.32.85-2.44.84-3.33,0C1004.3,963.1,1004.5,961.49,1005.93,960.07Z" style="fill:#fff"/><path d="M1017.6,963.92l-1.28-1.28,5.43-5.43,1.28,1.28Z" style="fill:#fff"/><path d="M1024.45,946.61l1,1c1.58,1.57,1.71,3.26.38,4.59a2.13,2.13,0,0,1-2.68.52l-.1.11,2.9,2.9-1.49,1.49-7.7-7.7,1.48-1.47,1,1,.11-.11a2.16,2.16,0,0,1,.53-2.7C1021.19,944.9,1022.88,945,1024.45,946.61Zm-3.81,3.88,1,1a1.61,1.61,0,0,0,2.47.09,1.63,1.63,0,0,0-.08-2.48l-1-.95a1.69,1.69,0,1,0-2.39,2.38Z" style="fill:#fff"/><path d="M1029.26,948.55l-1.14-1.14,1.83-1.83-5.69-5.69-1.73,1.74-1.15-1.14,3.18-3.17,6.82,6.83,1.73-1.72,1.14,1.14Z" style="fill:#fff"/><path d="M1034.07,940.45c-1-1-.9-2.41.43-3.94l1.26-1.43-.46-.46a1.13,1.13,0,0,0-1.73.14,1.36,1.36,0,0,0-.41,1.57l-1.39,1.39c-.94-1.15-.67-2.77.7-4.14s3-1.61,4.28-.35l3.92,3.92-1.36,1.36-.77-.77-.13.12a2.51,2.51,0,0,1-.78,2.51A2.38,2.38,0,0,1,1034.07,940.45Zm3-4-.42-.42-1,1.18c-.63.71-.71,1.31-.26,1.75s1,.36,1.6-.2A1.57,1.57,0,0,0,1037.1,936.42Z" style="fill:#fff"/><path d="M1036.59,929.68l1.39-1.39,1,1,.09-.09a2.46,2.46,0,0,1,.65-2.83c1.25-1.25,2.68-1.17,4.08.24l3.73,3.73-1.43,1.43-3.39-3.39c-.85-.85-1.59-.91-2.32-.18a1.67,1.67,0,0,0,.1,2.52l3.33,3.33-1.42,1.43Z" style="fill:#fff"/><path d="M1044.34,918.63l1.71,1.71,2.15-2.15,1.14,1.14-2.12,2.13,2.76,2.75c.43.44,1,.38,1.54-.17.13-.14,1.13-1.14,1.18-1.21l1.13,1.13c0,.07-1.17,1.22-1.29,1.33-1.57,1.57-2.67,1.68-4,.34l-2.74-2.75-1.5,1.51-1.15-1.15,1.51-1.5-1.71-1.71Z" style="fill:#fff"/><path d="M1052.26,913.74c1.39-1.4,2.88-1.62,4-.61l-1.35,1.35a1.26,1.26,0,0,0-1.6.36c-.54.55-.66,1.15-.29,1.52s.74.26,1.42-.18l1.07-.71c1.41-.93,2.43-1,3.31-.07,1.16,1.17,1,2.86-.55,4.36s-3,1.75-4.18.75l1.41-1.42c.49.31,1.09.14,1.69-.45s.72-1.21.34-1.59-.7-.26-1.44.22l-1,.68c-1.32.84-2.43.83-3.32-.06C1050.63,916.77,1050.83,915.17,1052.26,913.74Z" style="fill:#fff"/></g><rect x="204.7" y="800.23" width="21.18" height="89.94" style="fill:#ffff5c"/><rect x="227.35" y="836.64" width="21.18" height="53.54" style="fill:#8c4dfb"/><rect x="273.61" y="582.86" width="21.18" height="307.31" style="fill:#ffff5c"/><rect x="296.25" y="637.47" width="21.18" height="252.7" style="fill:#8c4dfb"/><rect x="342.51" y="265.92" width="21.18" height="624.26" style="fill:#ffff5c"/><rect x="365.16" y="287.33" width="21.18" height="602.84" style="fill:#8c4dfb"/><rect x="411.42" y="248.78" width="21.18" height="641.39" style="fill:#ffff5c"/><rect x="434.06" y="353.72" width="21.18" height="536.45" style="fill:#8c4dfb"/><rect x="480.32" y="181.33" width="21.18" height="708.85" style="fill:#ffff5c"/><rect x="502.97" y="284.12" width="21.18" height="606.05" style="fill:#8c4dfb"/><rect x="549.23" y="672.81" width="21.18" height="217.37" style="fill:#ffff5c"/><rect x="571.87" y="708.14" width="21.18" height="182.03" style="fill:#8c4dfb"/><rect x="618.13" y="627.84" width="21.18" height="262.34" style="fill:#ffff5c"/><rect x="640.78" y="676.02" width="21.18" height="214.15" style="fill:#8c4dfb"/><rect x="687.04" y="801.3" width="21.18" height="88.87" style="fill:#ffff5c"/><rect x="709.68" y="808.8" width="21.18" height="81.38" style="fill:#8c4dfb"/><rect x="755.94" y="199.53" width="21.18" height="690.64" style="fill:#ffff5c"/><rect x="778.59" y="249.85" width="21.18" height="640.32" style="fill:#8c4dfb"/><rect x="824.85" y="285.19" width="21.18" height="604.98" style="fill:#ffff5c"/><rect x="847.49" y="248.78" width="21.18" height="641.39" style="fill:#8c4dfb"/><rect x="893.75" y="513.26" width="21.18" height="376.91" style="fill:#ffff5c"/><rect x="916.4" y="544.32" width="21.18" height="345.86" style="fill:#8c4dfb"/><rect x="962.66" y="457.58" width="21.18" height="432.59" style="fill:#ffff5c"/><rect x="985.3" y="503.63" width="21.18" height="386.55" style="fill:#8c4dfb"/><rect x="1031.56" y="652.46" width="21.18" height="237.71" style="fill:#ffff5c"/><rect x="1054.21" y="669.6" width="21.18" height="220.58" style="fill:#8c4dfb"/><path d="M181.84,890.82l917.92-.32" style="fill:#fff"/><rect x="181.84" y="890.16" width="917.91" height="1" style="fill:#fff"/><rect x="226.11" y="890.17" width="1" height="9.08" style="fill:#fff"/><rect x="295.02" y="890.17" width="1" height="9.08" style="fill:#fff"/><rect x="363.92" y="890.17" width="1" height="9.08" style="fill:#fff"/><rect x="432.83" y="890.17" width="1" height="9.08" style="fill:#fff"/><rect x="501.73" y="890.17" width="1" height="9.08" style="fill:#fff"/><rect x="570.64" y="890.17" width="1" height="9.08" style="fill:#fff"/><rect x="639.54" y="890.17" width="1" height="9.08" style="fill:#fff"/><rect x="708.45" y="890.17" width="1" height="9.08" style="fill:#fff"/><rect x="777.35" y="890.17" width="1" height="9.08" style="fill:#fff"/><rect x="846.26" y="890.17" width="1" height="9.08" style="fill:#fff"/><rect x="915.16" y="890.17" width="1" height="9.08" style="fill:#fff"/><rect x="984.07" y="890.17" width="1" height="9.08" style="fill:#fff"/><rect x="1052.97" y="890.17" width="1" height="9.08" style="fill:#fff"/><rect x="181.43" y="141.39" width="1" height="696" style="fill:#fff"/><rect x="172.01" y="836.89" width="9.08" height="1" style="fill:#fff"/><rect x="172.27" y="890.32" width="10.59" height="1" style="fill:#fff"/><path d="M152.56,837.6h3.09a2.67,2.67,0,0,0,2.85,2.19,3,3,0,0,0,0-5.91,2.92,2.92,0,0,0-2.66,1.48h-3.09l.77-9.42h10v2.7h-7.42l-.35,4.35h.2a4,4,0,0,1,3.46-1.6,5,5,0,0,1,5.1,5.38c0,3.48-2.43,5.79-6,5.79C155,842.56,152.65,840.55,152.56,837.6Z" style="fill:#fff"/><path d="M152.4,885.52c0-5.43,2.21-8.49,6.12-8.49s6.13,3.06,6.13,8.49-2.21,8.49-6.13,8.49S152.4,891,152.4,885.52Zm3.14.42,5.6-3.7c-.46-1.67-1.34-2.55-2.62-2.55-1.93,0-3,2-3,5.83Zm6-.42v-.39l-5.6,3.7c.46,1.66,1.34,2.53,2.61,2.53C160.46,891.36,161.51,889.32,161.51,885.52Z" style="fill:#fff"/><rect x="172.01" y="783.35" width="9.08" height="1" style="fill:#fff"/><path d="M138.86,788.69V786h4.39V775.58h-.2l-4.2,2.79v-3l4.4-3h3.14V786h4.16v2.67Z" style="fill:#fff"/><path d="M152.4,780.54c0-5.43,2.21-8.49,6.12-8.49s6.13,3.06,6.13,8.49-2.21,8.49-6.13,8.49S152.4,786,152.4,780.54Zm3.14.42,5.6-3.7c-.46-1.68-1.35-2.56-2.62-2.56-1.93,0-3,2.06-3,5.84Zm6-.42v-.39l-5.6,3.7c.46,1.66,1.34,2.53,2.61,2.53C160.46,786.38,161.51,784.34,161.51,780.54Z" style="fill:#fff"/><rect x="172.01" y="729.81" width="9.08" height="1" style="fill:#fff"/><path d="M138.86,735.16v-2.68h4.39V722.05h-.2l-4.2,2.79v-3l4.4-2.95h3.14v13.62h4.16v2.68Z" style="fill:#fff"/><path d="M152.56,730.53h3.09a2.67,2.67,0,0,0,2.85,2.19,3,3,0,0,0,0-5.92,2.92,2.92,0,0,0-2.66,1.48h-3.09l.77-9.42h10v2.7h-7.42l-.35,4.35h.2a4,4,0,0,1,3.46-1.59,5,5,0,0,1,5.1,5.37c0,3.48-2.43,5.79-6,5.79C155,735.48,152.65,733.47,152.56,730.53Z" style="fill:#fff"/><rect x="172.01" y="676.28" width="9.08" height="1" style="fill:#fff"/><path d="M144.16,665c3.37,0,5.64,1.9,5.64,4.73,0,1.78-.94,3.31-3.69,5.95l-3.19,3v.21h7.13v2.7H138.56v-2.25l5.31-5.25c2.22-2.22,2.8-3.08,2.8-4.18a2.34,2.34,0,0,0-2.61-2.34,2.53,2.53,0,0,0-2.7,2.62v.08h-3v-.06C138.38,667.12,140.74,665,144.16,665Z" style="fill:#fff"/><path d="M152.4,673.46c0-5.43,2.21-8.49,6.12-8.49s6.13,3.06,6.13,8.49-2.21,8.5-6.13,8.5S152.4,678.9,152.4,673.46Zm3.14.42,5.6-3.7c-.46-1.67-1.35-2.55-2.62-2.55-1.93,0-3,2-3,5.83Zm6-.42v-.39l-5.6,3.7c.46,1.66,1.34,2.53,2.61,2.53C160.46,679.3,161.51,677.26,161.51,673.46Z" style="fill:#fff"/><rect x="172.01" y="622.74" width="9.08" height="1" style="fill:#fff"/><path d="M144.16,611.46c3.37,0,5.64,1.91,5.64,4.73,0,1.78-.94,3.31-3.69,5.95l-3.19,3v.2h7.13v2.7H138.56v-2.25l5.31-5.25c2.22-2.22,2.8-3.08,2.8-4.18a2.33,2.33,0,0,0-2.61-2.33,2.53,2.53,0,0,0-2.7,2.62v.07h-3v-.06C138.38,613.58,140.74,611.46,144.16,611.46Z" style="fill:#fff"/><path d="M152.56,623.45h3.09a2.67,2.67,0,0,0,2.85,2.19,3,3,0,0,0,0-5.92,2.92,2.92,0,0,0-2.66,1.48h-3.09l.77-9.41h10v2.69h-7.42l-.35,4.35h.2a4,4,0,0,1,3.46-1.59,5,5,0,0,1,5.1,5.37c0,3.48-2.43,5.8-6,5.8C155,628.41,152.65,626.4,152.56,623.45Z" style="fill:#fff"/><rect x="172.01" y="569.2" width="9.08" height="1" style="fill:#fff"/><path d="M142.24,565h1.91c1.63,0,2.69-.9,2.69-2.26s-1-2.21-2.68-2.21a2.51,2.51,0,0,0-2.77,2.34h-2.86c.11-3.06,2.29-4.93,5.74-4.93,3.3,0,5.55,1.75,5.55,4.32a3.53,3.53,0,0,1-2.88,3.7v.2a3.67,3.67,0,0,1,3.51,3.86c0,2.89-2.49,4.87-6.14,4.87s-5.95-2-6.1-5h3c.12,1.38,1.29,2.27,3,2.27s3.05-.92,3.05-2.35-1.21-2.4-3.08-2.4h-1.95Z" style="fill:#fff"/><path d="M152.4,566.39c0-5.43,2.21-8.49,6.12-8.49s6.13,3.06,6.13,8.49-2.21,8.49-6.13,8.49S152.4,571.82,152.4,566.39Zm3.14.42,5.6-3.71c-.46-1.67-1.35-2.55-2.62-2.55-1.93,0-3,2.06-3,5.84Zm6-.42V566l-5.6,3.71c.46,1.66,1.34,2.53,2.61,2.53C160.46,572.23,161.51,570.18,161.51,566.39Z" style="fill:#fff"/><rect x="172.01" y="515.66" width="9.08" height="1" style="fill:#fff"/><path d="M142.24,511.44h1.91c1.63,0,2.69-.89,2.69-2.26s-1-2.21-2.68-2.21a2.51,2.51,0,0,0-2.77,2.35h-2.86c.11-3.06,2.29-4.94,5.74-4.94,3.3,0,5.55,1.75,5.55,4.33a3.52,3.52,0,0,1-2.88,3.69v.2a3.67,3.67,0,0,1,3.51,3.86c0,2.89-2.49,4.87-6.14,4.87s-5.95-2-6.1-5h3c.12,1.39,1.29,2.27,3,2.27s3.05-.92,3.05-2.35-1.21-2.39-3.08-2.39h-1.95Z" style="fill:#fff"/><path d="M152.56,516.37h3.09a2.67,2.67,0,0,0,2.85,2.19,3,3,0,0,0,0-5.91,2.9,2.9,0,0,0-2.66,1.48h-3.09l.77-9.42h10v2.7h-7.42l-.35,4.35h.2a4,4,0,0,1,3.46-1.6c3,0,5.1,2.2,5.1,5.38,0,3.48-2.43,5.79-6,5.79C155,521.33,152.65,519.32,152.56,516.37Z" style="fill:#fff"/><rect x="172.01" y="462.12" width="9.08" height="1" style="fill:#fff"/><path d="M145.52,464.38h-7.28v-2.57l4.95-10.64h3.24l-4.78,10.38v.2h4v-4.11h2.86v4.17h2.21v2.57h-2.17v3.08h-3Z" style="fill:#fff"/><path d="M152.4,459.31c0-5.43,2.21-8.49,6.12-8.49s6.13,3.06,6.13,8.49-2.21,8.49-6.13,8.49S152.4,464.74,152.4,459.31Zm3.14.42,5.6-3.7c-.46-1.67-1.35-2.56-2.62-2.56-1.93,0-3,2.06-3,5.84Zm6-.42v-.39l-5.6,3.7c.46,1.66,1.34,2.53,2.61,2.53C160.46,465.15,161.51,463.11,161.51,459.31Z" style="fill:#fff"/><rect x="172.01" y="408.58" width="9.08" height="1" style="fill:#fff"/><path d="M145.52,410.84h-7.28v-2.57l4.95-10.64h3.24L141.65,408v.2h4V404.1h2.86v4.17h2.21v2.57h-2.17v3.09h-3Z" style="fill:#fff"/><path d="M152.56,409.3h3.09a2.67,2.67,0,0,0,2.85,2.19,3,3,0,0,0,0-5.92,2.92,2.92,0,0,0-2.66,1.48h-3.09l.77-9.42h10v2.7h-7.42l-.35,4.35h.2a4,4,0,0,1,3.46-1.59,5,5,0,0,1,5.1,5.37c0,3.48-2.43,5.79-6,5.79C155,414.25,152.65,412.24,152.56,409.3Z" style="fill:#fff"/><rect x="172.01" y="355.05" width="9.08" height="1" style="fill:#fff"/><path d="M138.27,355.76h3.09a2.68,2.68,0,0,0,2.85,2.19,3,3,0,0,0,0-5.92,2.89,2.89,0,0,0-2.65,1.48h-3.1l.77-9.42h10v2.7h-7.42l-.35,4.35h.2a4,4,0,0,1,3.46-1.59,5,5,0,0,1,5.1,5.37c0,3.48-2.43,5.8-6,5.8C140.73,360.72,138.36,358.71,138.27,355.76Z" style="fill:#fff"/><path d="M152.4,352.24c0-5.44,2.21-8.5,6.12-8.5s6.13,3.06,6.13,8.5-2.21,8.49-6.13,8.49S152.4,357.67,152.4,352.24Zm3.14.41,5.6-3.7c-.46-1.67-1.35-2.55-2.62-2.55-1.93,0-3,2.05-3,5.84Zm6-.41v-.4l-5.6,3.7c.46,1.66,1.34,2.53,2.61,2.53C160.46,358.07,161.51,356,161.51,352.24Z" style="fill:#fff"/><rect x="172.01" y="301.51" width="9.08" height="1" style="fill:#fff"/><path d="M138.27,302.22h3.09a2.68,2.68,0,0,0,2.85,2.19,3,3,0,0,0,0-5.92,2.89,2.89,0,0,0-2.65,1.48h-3.1l.77-9.41h10v2.69h-7.42l-.35,4.35h.2a4,4,0,0,1,3.46-1.59,5,5,0,0,1,5.1,5.37c0,3.48-2.43,5.8-6,5.8C140.73,307.18,138.36,305.17,138.27,302.22Z" style="fill:#fff"/><path d="M152.56,302.22h3.09a2.67,2.67,0,0,0,2.85,2.19,3,3,0,0,0,0-5.92,2.92,2.92,0,0,0-2.66,1.48h-3.09l.77-9.41h10v2.69h-7.42l-.35,4.35h.2a4,4,0,0,1,3.46-1.59,5,5,0,0,1,5.1,5.37c0,3.48-2.43,5.8-6,5.8C155,307.18,152.65,305.17,152.56,302.22Z" style="fill:#fff"/><rect x="172.01" y="247.97" width="9.08" height="1" style="fill:#fff"/><path d="M144.4,253.64c-3.69,0-6.22-2.43-6.22-6,0-2,.69-3.79,2.31-6.1.53-.8,3-4,3.44-4.52h3.62l-4.1,5.43a5.54,5.54,0,0,0-.73,1.14l.22,0a3.67,3.67,0,0,1,2.61-1,5,5,0,0,1,5,5.24A5.83,5.83,0,0,1,144.4,253.64Zm3-5.67a3,3,0,1,0-3,2.95A2.91,2.91,0,0,0,147.36,248Z" style="fill:#fff"/><path d="M152.4,245.16c0-5.43,2.21-8.49,6.12-8.49s6.13,3.06,6.13,8.49-2.21,8.49-6.13,8.49S152.4,250.59,152.4,245.16Zm3.14.42,5.6-3.71c-.46-1.67-1.35-2.55-2.62-2.55-1.93,0-3,2.06-3,5.84Zm6-.42v-.4l-5.6,3.71c.46,1.66,1.34,2.53,2.61,2.53C160.46,251,161.51,249,161.51,245.16Z" style="fill:#fff"/><rect x="172.01" y="194.43" width="9.08" height="1" style="fill:#fff"/><path d="M144.4,200.1c-3.69,0-6.22-2.43-6.22-6a10.3,10.3,0,0,1,2.31-6.09c.53-.8,3-4,3.44-4.53h3.62l-4.1,5.43a5.83,5.83,0,0,0-.73,1.14l.22,0a3.67,3.67,0,0,1,2.61-1,5,5,0,0,1,5,5.24A5.83,5.83,0,0,1,144.4,200.1Zm3-5.67a3,3,0,1,0-3,2.95A2.91,2.91,0,0,0,147.36,194.43Z" style="fill:#fff"/><path d="M152.56,195.14h3.09a2.67,2.67,0,0,0,2.85,2.19,3,3,0,0,0,0-5.91,2.9,2.9,0,0,0-2.66,1.48h-3.09l.77-9.42h10v2.7h-7.42l-.35,4.34h.2a4,4,0,0,1,3.46-1.59c3,0,5.1,2.2,5.1,5.38,0,3.48-2.43,5.79-6,5.79C155,200.1,152.65,198.09,152.56,195.14Z" style="fill:#fff"/><rect x="172.01" y="140.89" width="9.08" height="1" style="fill:#fff"/><path d="M146.88,132.8v-.19h-8.35v-2.68h11.58v2.7l-6.9,13.6h-3.36Z" style="fill:#fff"/><path d="M152.4,138.08c0-5.43,2.21-8.49,6.12-8.49s6.13,3.06,6.13,8.49-2.21,8.49-6.13,8.49S152.4,143.51,152.4,138.08Zm3.14.42,5.6-3.7c-.46-1.68-1.35-2.56-2.62-2.56-1.93,0-3,2.06-3,5.84Zm6-.42v-.39l-5.6,3.7c.46,1.66,1.34,2.53,2.61,2.53C160.46,143.92,161.51,141.88,161.51,138.08Z" style="fill:#fff"/><line x1="181.93" y1="837.39" x2="182.11" y2="890.82" style="fill:#fff"/><rect x="181.52" y="837.39" width="1" height="53.43" transform="translate(-2.83 0.6) rotate(-0.19)" style="fill:#fff"/></svg>