<svg xmlns="http://www.w3.org/2000/svg" viewBox="0 0 1264 1080"><path d="M112.73,70.8V69.11h3.89V47.79h-3.89V46.1h15.49a12.48,12.48,0,0,1,9,3.38,12.15,12.15,0,0,1,3.53,9.19q0,5.65-3.51,8.89a12.71,12.71,0,0,1-9,3.24Zm8.79-1.69h5.26q5,0,7.08-3a7.79,7.79,0,0,0,1.22-2.88,22.53,22.53,0,0,0,.36-4.57c0-3.57-.51-6.12-1.54-7.63q-2.24-3.2-7.12-3.21h-5.26Z" style="fill:#fff"/><path d="M144.2,62.69a7.94,7.94,0,0,1,2.35-5.87,8.86,8.86,0,0,1,6.53-2.34,7.93,7.93,0,0,1,5.73,2,7.53,7.53,0,0,1,2,5.54q0,.69-.24.84a1.93,1.93,0,0,1-.92.15H148.8c0,4.4,1.69,6.61,5.07,6.61h0a6.08,6.08,0,0,0,3.09-.8,4.26,4.26,0,0,0,1.92-2.07,1.8,1.8,0,0,1,.35-.62,1.06,1.06,0,0,1,.64-.14c.62,0,.93.22.93.64a2,2,0,0,1-.2.7,6.26,6.26,0,0,1-.73,1.13,6.34,6.34,0,0,1-1.29,1.23,6.46,6.46,0,0,1-2.09,1,10,10,0,0,1-2.93.4,9.81,9.81,0,0,1-6.84-2.32A7.75,7.75,0,0,1,144.2,62.69Zm4.6-.93h8.6c-.12-4-1.56-6-4.32-6a3.84,3.84,0,0,0-3.41,1.87A9.1,9.1,0,0,0,148.8,61.76Z" style="fill:#fff"/><path d="M163.38,62.8a8.29,8.29,0,0,1,2.28-5.89q2.29-2.43,6.82-2.43c4.24,0,6.37,1.11,6.37,3.33a2.11,2.11,0,0,1-.7,1.67,2.42,2.42,0,0,1-1.61.59,2.46,2.46,0,0,1-1.57-.59,2,2,0,0,1-.73-1.67,2.16,2.16,0,0,1,.74-1.67,10.94,10.94,0,0,0-2.36-.22,4.49,4.49,0,0,0-2.27.55,4,4,0,0,0-1.37,1.2,5.05,5.05,0,0,0-.69,1.76,11.17,11.17,0,0,0-.27,1.7c0,.4,0,.89,0,1.49q0,6.95,5,6.95a4.6,4.6,0,0,0,4.61-3,1.08,1.08,0,0,1,.26-.44,1.21,1.21,0,0,1,.6-.09c.57,0,.86.17.86.5a2.51,2.51,0,0,1-.14.56,5.19,5.19,0,0,1-.63,1.11,6.26,6.26,0,0,1-1.21,1.27,6.91,6.91,0,0,1-2.06,1,9.26,9.26,0,0,1-3,.45,9.08,9.08,0,0,1-6.52-2.29A7.78,7.78,0,0,1,163.38,62.8Z" style="fill:#fff"/><path d="M181.55,63A8.14,8.14,0,0,1,184,56.87a10.7,10.7,0,0,1,13.48,0A8.11,8.11,0,0,1,199.9,63a7.61,7.61,0,0,1-2.4,5.77,11.19,11.19,0,0,1-13.54,0A7.59,7.59,0,0,1,181.55,63Zm4.61-.41c0,.72,0,1.26,0,1.64a14.77,14.77,0,0,0,.14,1.55,4.51,4.51,0,0,0,.41,1.53,8,8,0,0,0,.77,1.15,2.63,2.63,0,0,0,1.29.88,6.16,6.16,0,0,0,1.93.27,6.09,6.09,0,0,0,1.92-.27,2.61,2.61,0,0,0,1.3-.88,7.32,7.32,0,0,0,.78-1.15,4.76,4.76,0,0,0,.41-1.53,15.33,15.33,0,0,0,.15-1.55c0-.38,0-.92,0-1.64,0-2.47-.25-4.12-.76-4.94a4.16,4.16,0,0,0-3.81-1.83,4.06,4.06,0,0,0-4,2.1A12,12,0,0,0,186.16,62.55Z" style="fill:#fff"/><path d="M203.61,62.83a7.62,7.62,0,0,1,2.53-6,9.41,9.41,0,0,1,6.51-2.25,7.6,7.6,0,0,1,4.85,1.63v-7c0-.67-.13-1.07-.38-1.2a6,6,0,0,0-2.1-.2V46.1l6.38-.28V67.7c0,.67.13,1.07.38,1.21a6.27,6.27,0,0,0,2.1.2V70.8l-6.59.21V69.25a7.88,7.88,0,0,1-5,1.76A8.6,8.6,0,0,1,206,68.72,7.86,7.86,0,0,1,203.61,62.83Zm4.61,0c0,.6,0,1.07,0,1.42s0,.84.12,1.46a4.73,4.73,0,0,0,.39,1.52,8.39,8.39,0,0,0,.76,1.23,2.8,2.8,0,0,0,1.26.94,5.14,5.14,0,0,0,1.84.31,5.65,5.65,0,0,0,4.68-2.62v-9a5.12,5.12,0,0,0-4.29-2.2,4.39,4.39,0,0,0-3.85,1.88C208.53,58.7,208.22,60.38,208.22,62.83Z" style="fill:#fff"/><path d="M226.36,62.69a7.94,7.94,0,0,1,2.35-5.87,8.86,8.86,0,0,1,6.53-2.34,7.93,7.93,0,0,1,5.73,2A7.53,7.53,0,0,1,243,62q0,.69-.24.84a1.93,1.93,0,0,1-.92.15H231c0,4.4,1.69,6.61,5.07,6.61h0a6.08,6.08,0,0,0,3.09-.8,4.26,4.26,0,0,0,1.92-2.07,1.8,1.8,0,0,1,.35-.62,1.06,1.06,0,0,1,.64-.14c.62,0,.93.22.93.64a2,2,0,0,1-.2.7,6.26,6.26,0,0,1-.73,1.13,6.34,6.34,0,0,1-1.29,1.23,6.46,6.46,0,0,1-2.09,1,10,10,0,0,1-2.93.4,9.81,9.81,0,0,1-6.84-2.32A7.75,7.75,0,0,1,226.36,62.69Zm4.6-.93h8.6c-.12-4-1.56-6-4.32-6a3.84,3.84,0,0,0-3.41,1.87A9.1,9.1,0,0,0,231,61.76Z" style="fill:#fff"/><path d="M258.72,56.5V55.2A4.58,4.58,0,0,0,262.64,53a9.15,9.15,0,0,0,1.44-5.05h1.69v6.88H271V56.5h-5.25v9.94c0,2.08.69,3.13,2.08,3.13a1.9,1.9,0,0,0,1.51-.81,4,4,0,0,0,.65-2.5V64.43h1.68v1.9a4.93,4.93,0,0,1-1.16,3.35A4,4,0,0,1,267.36,71q-5.7,0-5.7-4.64V56.5Z" style="fill:#fff"/><path d="M275.72,70.8V69.11h2.49V58q0-1-.36-1.2a5.58,5.58,0,0,0-2-.2V54.89l6.28-.3V69.11h2.23V70.8l-4.22-.11C279.41,70.69,277.94,70.73,275.72,70.8Zm2-20.24a2.92,2.92,0,0,1,0-4,2.51,2.51,0,0,1,1.92-.83,2.83,2.83,0,0,1,2.81,2.81,2.67,2.67,0,0,1-.84,2,2.7,2.7,0,0,1-2,.83A2.51,2.51,0,0,1,277.74,50.56Z" style="fill:#fff"/><path d="M287.3,70.8V69.11h2.3V58c0-.67-.11-1.07-.35-1.2a5.18,5.18,0,0,0-1.95-.2V54.89l6.19-.3v3.9a6.58,6.58,0,0,1,6.26-3.9c3.05,0,4.83,1.15,5.32,3.46a6.48,6.48,0,0,1,6.07-3.46,6.09,6.09,0,0,1,4.2,1.23,5.12,5.12,0,0,1,1.35,4v9.34h2.48V70.8c-2-.07-3.53-.11-4.53-.11s-2.52,0-4.54.11V69.11h2.48V59.39a5.33,5.33,0,0,0-.5-2.74,1.68,1.68,0,0,0-1.52-.76,5.45,5.45,0,0,0-3.64,1.49,5.29,5.29,0,0,0-1.71,4.2v7.53h2.48V70.8c-2-.07-3.51-.11-4.52-.11s-2.52,0-4.55.11V69.11h2.48V59.39a5.21,5.21,0,0,0-.51-2.74,1.69,1.69,0,0,0-1.51-.76,5.5,5.5,0,0,0-3.66,1.49,5.32,5.32,0,0,0-1.7,4.2v7.53h2.48V70.8c-2-.07-3.53-.11-4.54-.11S289.2,70.73,287.3,70.8Z" style="fill:#fff"/><path d="M321.14,62.69a7.94,7.94,0,0,1,2.36-5.87A8.84,8.84,0,0,1,330,54.48a7.93,7.93,0,0,1,5.73,2,7.49,7.49,0,0,1,2,5.54q0,.69-.24.84a1.9,1.9,0,0,1-.92.15H325.75c0,4.4,1.68,6.61,5.06,6.61h0a6.08,6.08,0,0,0,3.09-.8,4.26,4.26,0,0,0,1.92-2.07,2,2,0,0,1,.35-.62,1.06,1.06,0,0,1,.64-.14c.62,0,.93.22.93.64a2,2,0,0,1-.2.7,6.38,6.38,0,0,1-2,2.36,6.46,6.46,0,0,1-2.09,1,10,10,0,0,1-2.93.4,9.81,9.81,0,0,1-6.84-2.32A7.75,7.75,0,0,1,321.14,62.69Zm4.61-.93h8.59c-.12-4-1.56-6-4.32-6a3.85,3.85,0,0,0-3.41,1.87A9,9,0,0,0,325.75,61.76Z" style="fill:#fff"/><path d="M356.61,61.76a21.62,21.62,0,0,1,6.45-16c1.38-1.3,2.29-2,2.76-2s.65.17.65.51c0,.11-.17.36-.52.75q-5.46,5.84-5.45,16.74a31.18,31.18,0,0,0,1.29,9.31,18.16,18.16,0,0,0,4.59,7.79l0,.1a.69.69,0,0,1,.06.25c0,.34-.21.51-.65.51a3.06,3.06,0,0,1-1.38-.74A18,18,0,0,1,362,76.7a18.4,18.4,0,0,1-2.51-3.5A22.67,22.67,0,0,1,356.61,61.76Z" style="fill:#fff"/><path d="M370.6,70.8V69.11h2.31V58c0-.67-.12-1.07-.35-1.2a5.29,5.29,0,0,0-2-.2V54.89l6.19-.3v3.9a6.59,6.59,0,0,1,6.26-3.9q4.57,0,5.33,3.46a6.47,6.47,0,0,1,6.06-3.46,6.09,6.09,0,0,1,4.2,1.23,5.12,5.12,0,0,1,1.36,4v9.34h2.47V70.8c-2-.07-3.52-.11-4.53-.11s-2.52,0-4.54.11V69.11h2.48V59.39a5.23,5.23,0,0,0-.5-2.74,1.68,1.68,0,0,0-1.51-.76,5.46,5.46,0,0,0-3.65,1.49,5.29,5.29,0,0,0-1.7,4.2v7.53H391V70.8c-2-.07-3.51-.11-4.52-.11s-2.53,0-4.55.11V69.11h2.47V59.39a5.21,5.21,0,0,0-.51-2.74,1.69,1.69,0,0,0-1.51-.76,5.46,5.46,0,0,0-3.65,1.49,5.29,5.29,0,0,0-1.71,4.2v7.53h2.48V70.8c-2-.07-3.53-.11-4.54-.11S372.5,70.73,370.6,70.8Z" style="fill:#fff"/><path d="M404.65,70V66.08a1.8,1.8,0,0,1,.13-.87c.08-.12.32-.18.74-.18a1.51,1.51,0,0,1,.59.08c.11,0,.2.19.27.43a8.88,8.88,0,0,0,.48,1.33,7.84,7.84,0,0,0,.83,1.31,3.62,3.62,0,0,0,1.55,1.13,6.29,6.29,0,0,0,2.32.4c2.73,0,4.1-.91,4.12-2.71a2.09,2.09,0,0,0-.41-1.29,2.61,2.61,0,0,0-1.17-.84,6.6,6.6,0,0,0-1.24-.4l-1.19-.26c-1.16-.21-2-.37-2.43-.47a8.87,8.87,0,0,1-1.58-.53,5.62,5.62,0,0,1-1.56-1,3.78,3.78,0,0,1-1.45-3,4.79,4.79,0,0,1,.4-2,3.21,3.21,0,0,1,1.1-1.37,8,8,0,0,1,1.39-.8,5.83,5.83,0,0,1,1.56-.41q.88-.12,1.29-.15c.28,0,.57,0,.89,0a8,8,0,0,1,3.64.71,8.11,8.11,0,0,1,1.62-.71q.43,0,.54.21a2,2,0,0,1,.11.81v2.87a1.74,1.74,0,0,1-.13.85c-.09.11-.34.17-.75.17s-.59,0-.67-.15a1.18,1.18,0,0,1-.16-.57q-.28-3-4.23-3t-4.05,2.43a2.14,2.14,0,0,0,.29,1.14c.19.31.1.41-.28.28l-.56-.18,4.22.88c.92.23,1.88.46,2.89.68A6.36,6.36,0,0,1,416.23,62a4.67,4.67,0,0,1,2,3.79,5.87,5.87,0,0,1-.39,2.22,3.58,3.58,0,0,1-1.1,1.5,8.64,8.64,0,0,1-1.39.88,5,5,0,0,1-1.58.46c-.6.09-1,.14-1.29.16a8.35,8.35,0,0,1-.91,0,7.3,7.3,0,0,1-4.25-1.16l-.93.62a2.36,2.36,0,0,1-1.06.54h0q-.44,0-.54-.21A2,2,0,0,1,404.65,70Z" style="fill:#fff"/><path d="M421.88,79.25c0-.12.19-.37.58-.75q5.81-5.85,5.8-16.74T422.5,45.13c-.41-.38-.62-.66-.62-.82,0-.34.22-.51.65-.51a3.07,3.07,0,0,1,1.39.73,20.14,20.14,0,0,1,2.43,2.32,19.54,19.54,0,0,1,2.51,3.5,22.8,22.8,0,0,1,2.88,11.45,21.65,21.65,0,0,1-6.43,16c-1.37,1.3-2.3,2-2.78,2S421.88,79.59,421.88,79.25Z" style="fill:#fff"/><rect x="172.19" y="879.19" width="23.33" height="11.92" style="fill:#ffff5c"/><rect x="197.13" y="838.3" width="23.33" height="52.81" style="fill:#8c4dfb"/><rect x="273.02" y="889.41" width="23.33" height="1.7" style="fill:#8c4dfb"/><rect x="323.97" y="824.67" width="23.33" height="66.44" style="fill:#ffff5c"/><rect x="348.91" y="749.72" width="23.33" height="141.39" style="fill:#8c4dfb"/><rect x="399.86" y="652.62" width="23.33" height="238.49" style="fill:#ffff5c"/><rect x="424.81" y="398.8" width="23.33" height="492.31" style="fill:#8c4dfb"/><rect x="475.76" y="713.95" width="23.33" height="177.16" style="fill:#ffff5c"/><rect x="500.7" y="495.9" width="23.33" height="395.21" style="fill:#8c4dfb"/><rect x="551.65" y="749.72" width="23.33" height="141.39" style="fill:#ffff5c"/><rect x="576.59" y="383.47" width="23.33" height="507.64" style="fill:#8c4dfb"/><rect x="627.54" y="824.67" width="23.33" height="66.44" style="fill:#ffff5c"/><rect x="652.48" y="725.87" width="23.33" height="165.24" style="fill:#8c4dfb"/><rect x="703.43" y="528.27" width="23.33" height="362.84" style="fill:#ffff5c"/><rect x="728.37" y="175.64" width="23.33" height="715.47" style="fill:#8c4dfb"/><rect x="779.32" y="729.28" width="23.33" height="161.83" style="fill:#ffff5c"/><rect x="804.26" y="512.93" width="23.33" height="378.18" style="fill:#8c4dfb"/><rect x="855.21" y="884.3" width="23.33" height="6.81" style="fill:#ffff5c"/><rect x="880.16" y="879.19" width="23.33" height="11.92" style="fill:#8c4dfb"/><rect x="931.11" y="875.78" width="23.33" height="15.33" style="fill:#ffff5c"/><rect x="956.05" y="843.41" width="23.33" height="47.7" style="fill:#8c4dfb"/><rect x="1007" y="845.12" width="23.33" height="45.99" style="fill:#ffff5c"/><rect x="1031.94" y="785.49" width="23.33" height="105.62" style="fill:#8c4dfb"/><rect x="1082.89" y="812.75" width="23.33" height="78.36" style="fill:#ffff5c"/><rect x="1107.83" y="608.33" width="23.33" height="282.78" style="fill:#8c4dfb"/><rect x="147.01" y="891.44" width="1010.99" height="1" style="fill:#fff"/><rect x="195.82" y="891.11" width="1" height="10" style="fill:#fcfcfc"/><rect x="271.71" y="891.11" width="1" height="10" style="fill:#fcfcfc"/><rect x="347.61" y="891.11" width="1" height="10" style="fill:#fcfcfc"/><rect x="423.5" y="891.11" width="1" height="10" style="fill:#fcfcfc"/><rect x="499.39" y="891.11" width="1" height="10" style="fill:#fcfcfc"/><rect x="575.28" y="891.11" width="1" height="10" style="fill:#fcfcfc"/><rect x="651.17" y="891.11" width="1" height="10" style="fill:#fcfcfc"/><rect x="727.07" y="891.11" width="1" height="10" style="fill:#fcfcfc"/><rect x="802.96" y="891.11" width="1" height="10" style="fill:#fcfcfc"/><rect x="878.85" y="891.11" width="1" height="10" style="fill:#fcfcfc"/><rect x="954.74" y="891.11" width="1" height="10" style="fill:#fcfcfc"/><rect x="1030.63" y="891.11" width="1" height="10" style="fill:#fcfcfc"/><rect x="1106.52" y="891.11" width="1" height="10" style="fill:#fcfcfc"/><rect x="146.51" y="125.37" width="1" height="766.57" style="fill:#fff"/><rect x="136.18" y="891.44" width="10" height="1" style="fill:#fff"/><path d="M119.87,889.9c0-4.92,2-7.69,5.54-7.69S131,885,131,889.9s-2,7.68-5.55,7.68S119.87,894.81,119.87,889.9Zm2.84.37,5.07-3.35c-.41-1.51-1.21-2.31-2.37-2.31-1.75,0-2.7,1.86-2.7,5.29Zm5.41-.37v-.36l-5.07,3.35c.42,1.5,1.22,2.29,2.36,2.29C127.17,895.18,128.12,893.33,128.12,889.9Z" style="fill:#fff"/><rect x="136.18" y="806.27" width="10" height="1" style="fill:#fff"/><path d="M120,807.91h2.81a2.4,2.4,0,0,0,2.57,2,2.68,2.68,0,0,0,0-5.35,2.63,2.63,0,0,0-2.4,1.34h-2.8l.69-8.53h9v2.44h-6.72l-.31,3.94h.18a3.63,3.63,0,0,1,3.13-1.44,4.53,4.53,0,0,1,4.62,4.86c0,3.15-2.2,5.25-5.47,5.25C122.24,812.4,120.1,810.58,120,807.91Z" style="fill:#fff"/><rect x="136.18" y="721.09" width="10" height="1" style="fill:#fff"/><path d="M107.6,726.93V724.5h4v-9.44h-.18l-3.81,2.52v-2.74l4-2.66h2.84V724.5h3.78v2.43Z" style="fill:#fff"/><path d="M119.87,719.55c0-4.92,2-7.69,5.54-7.69s5.55,2.77,5.55,7.69-2,7.68-5.55,7.68S119.87,724.46,119.87,719.55Zm2.84.37,5.07-3.35c-.41-1.51-1.21-2.31-2.37-2.31-1.75,0-2.7,1.86-2.7,5.29Zm5.41-.37v-.36l-5.07,3.35c.42,1.5,1.22,2.29,2.36,2.29C127.17,724.83,128.12,723,128.12,719.55Z" style="fill:#fff"/><rect x="136.18" y="635.92" width="10" height="1" style="fill:#fff"/><path d="M107.6,641.75v-2.42h4v-9.45h-.18l-3.81,2.53v-2.74l4-2.67h2.84v12.33h3.78v2.42Z" style="fill:#fff"/><path d="M120,637.56h2.81a2.4,2.4,0,0,0,2.57,2,2.68,2.68,0,0,0,0-5.35,2.63,2.63,0,0,0-2.4,1.34h-2.8l.69-8.53h9v2.44h-6.72l-.31,3.94h.18a3.63,3.63,0,0,1,3.13-1.44,4.53,4.53,0,0,1,4.62,4.86c0,3.15-2.2,5.25-5.47,5.25C122.24,642.05,120.1,640.23,120,637.56Z" style="fill:#fff"/><rect x="136.18" y="550.74" width="10" height="1" style="fill:#fff"/><path d="M112.41,541.53c3,0,5.1,1.73,5.1,4.28,0,1.62-.85,3-3.34,5.39L111.29,554v.18h6.45v2.45h-10.4v-2l4.8-4.75c2-2,2.54-2.79,2.54-3.78a2.11,2.11,0,0,0-2.36-2.12,2.29,2.29,0,0,0-2.45,2.37v.07h-2.69v-.06C107.18,543.45,109.31,541.53,112.41,541.53Z" style="fill:#fff"/><path d="M119.87,549.2c0-4.92,2-7.69,5.54-7.69s5.55,2.77,5.55,7.69-2,7.68-5.55,7.68S119.87,554.11,119.87,549.2Zm2.84.38,5.07-3.36c-.41-1.51-1.21-2.31-2.37-2.31-1.75,0-2.7,1.86-2.7,5.29Zm5.41-.38v-.36l-5.07,3.35c.42,1.51,1.22,2.29,2.36,2.29C127.17,554.48,128.12,552.63,128.12,549.2Z" style="fill:#fff"/><rect x="136.18" y="465.57" width="10" height="1" style="fill:#fff"/><path d="M112.41,456.35c3,0,5.1,1.73,5.1,4.29,0,1.61-.85,3-3.34,5.39l-2.88,2.75V469h6.45v2.44h-10.4v-2l4.8-4.76c2-2,2.54-2.79,2.54-3.78a2.11,2.11,0,0,0-2.36-2.11,2.29,2.29,0,0,0-2.45,2.37v.07h-2.69v-.06C107.18,458.28,109.31,456.35,112.41,456.35Z" style="fill:#fff"/><path d="M120,467.21h2.81a2.4,2.4,0,0,0,2.57,2,2.68,2.68,0,0,0,0-5.35,2.63,2.63,0,0,0-2.4,1.34h-2.8l.69-8.53h9v2.44h-6.72l-.31,3.94h.18a3.63,3.63,0,0,1,3.13-1.44,4.53,4.53,0,0,1,4.62,4.86c0,3.15-2.2,5.25-5.47,5.25C122.24,471.7,120.1,469.88,120,467.21Z" style="fill:#fff"/><rect x="136.18" y="380.4" width="10" height="1" style="fill:#fff"/><path d="M110.67,377.57h1.73c1.47,0,2.43-.81,2.43-2.05s-.94-2-2.42-2a2.28,2.28,0,0,0-2.51,2.13h-2.59c.1-2.77,2.07-4.47,5.19-4.47s5,1.58,5,3.92a3.2,3.2,0,0,1-2.61,3.34v.18a3.33,3.33,0,0,1,3.18,3.5c0,2.62-2.25,4.4-5.56,4.4s-5.38-1.76-5.52-4.52h2.69c.1,1.25,1.17,2.05,2.75,2.05s2.76-.83,2.76-2.13-1.09-2.16-2.79-2.16h-1.76Z" style="fill:#fff"/><path d="M119.87,378.85c0-4.92,2-7.69,5.54-7.69s5.55,2.77,5.55,7.69-2,7.69-5.55,7.69S119.87,383.76,119.87,378.85Zm2.84.38,5.07-3.36c-.41-1.51-1.21-2.31-2.37-2.31-1.75,0-2.7,1.86-2.7,5.29Zm5.41-.38v-.36l-5.07,3.35c.42,1.51,1.22,2.29,2.36,2.29C127.17,384.13,128.12,382.28,128.12,378.85Z" style="fill:#fff"/><rect x="136.18" y="295.22" width="10" height="1" style="fill:#fff"/><path d="M110.67,292.39h1.73c1.47,0,2.43-.8,2.43-2s-.94-2-2.42-2a2.27,2.27,0,0,0-2.51,2.12h-2.59c.1-2.77,2.07-4.47,5.19-4.47s5,1.59,5,3.92a3.19,3.19,0,0,1-2.61,3.34v.19a3.31,3.31,0,0,1,3.18,3.49c0,2.62-2.25,4.41-5.56,4.41s-5.38-1.77-5.52-4.53h2.69c.1,1.26,1.17,2.06,2.75,2.06s2.76-.83,2.76-2.13-1.09-2.17-2.79-2.17h-1.76Z" style="fill:#fff"/><path d="M120,296.86h2.81a2.4,2.4,0,0,0,2.57,2,2.68,2.68,0,0,0,0-5.35,2.63,2.63,0,0,0-2.4,1.34h-2.8l.69-8.53h9v2.44h-6.72l-.31,3.94h.18a3.63,3.63,0,0,1,3.13-1.44,4.53,4.53,0,0,1,4.62,4.86c0,3.15-2.2,5.25-5.47,5.25C122.24,301.35,120.1,299.53,120,296.86Z" style="fill:#fff"/><rect x="136.18" y="210.05" width="10" height="1" style="fill:#fff"/><path d="M113.64,213.09H107v-2.33l4.49-9.63h2.93l-4.33,9.39v.19h3.6V207h2.59v3.78h2v2.33h-2v2.79h-2.72Z" style="fill:#fff"/><path d="M119.87,208.5c0-4.92,2-7.69,5.54-7.69s5.55,2.77,5.55,7.69-2,7.69-5.55,7.69S119.87,213.42,119.87,208.5Zm2.84.38,5.07-3.36c-.41-1.51-1.21-2.31-2.37-2.31-1.75,0-2.7,1.86-2.7,5.29Zm5.41-.38v-.36l-5.07,3.35c.42,1.51,1.22,2.29,2.36,2.29C127.17,213.78,128.12,211.93,128.12,208.5Z" style="fill:#fff"/><rect x="136.18" y="124.87" width="10" height="1" style="fill:#fff"/><path d="M113.64,127.91H107v-2.33l4.49-9.63h2.93l-4.33,9.4v.18h3.6v-3.72h2.59v3.77h2v2.33h-2v2.79h-2.72Z" style="fill:#fff"/><path d="M120,126.51h2.81a2.41,2.41,0,0,0,2.57,2,2.68,2.68,0,0,0,0-5.36,2.63,2.63,0,0,0-2.4,1.34h-2.8l.69-8.53h9v2.44h-6.72l-.31,3.94h.18a3.63,3.63,0,0,1,3.13-1.44,4.54,4.54,0,0,1,4.62,4.87c0,3.14-2.2,5.24-5.47,5.24C122.24,131,120.1,129.18,120,126.51Z" style="fill:#fff"/><g style="isolation:isolate"><path d="M142.64,966.45a1.53,1.53,0,1,1,2.06-.08A1.38,1.38,0,0,1,142.64,966.45Zm6.9,10.27-1.25-1.25,2-2-3.81-3.81-1.92,1.92-1.25-1.25,3.44-3.45,5.06,5.06,1.9-1.9,1.25,1.25Z" style="fill:#fff"/><path d="M156.66,961.39a1.56,1.56,0,0,0-2.26.15c-.84.84-.68,1.93.48,3.09l.42.42c1.16,1.16,2.25,1.32,3.09.48a1.54,1.54,0,0,0,.21-2.21l1.53-1.53c1.37,1.64,1.21,3.41-.42,5-1.86,1.85-3.94,1.83-5.86-.08l-.66-.67c-1.92-1.91-1.94-4-.08-5.85,1.63-1.63,3.39-1.77,5.08-.38Z" style="fill:#fff"/><path d="M161.12,959.81l-1-1a4.1,4.1,0,0,1,5.79-5.8l1,1a4.1,4.1,0,0,1-5.8,5.8Zm.63-2.45.84.85a1.95,1.95,0,1,0,2.72-2.72l-.84-.85a2,2,0,0,0-2.95-.22C160.68,955.26,160.77,956.38,161.75,957.36Z" style="fill:#fff"/><path d="M164.8,948.84l1.52-1.52,1.06,1.06.09-.1a2.71,2.71,0,0,1,.71-3.09c1.38-1.37,2.93-1.28,4.47.26l4.08,4.08-1.57,1.57-3.71-3.71c-.92-.93-1.73-1-2.53-.2a1.83,1.83,0,0,0,.11,2.75l3.64,3.64-1.56,1.57Z" style="fill:#fff"/><path d="M180.21,950.09l-1.39-1.39,5.93-5.94,1.4,1.4Z" style="fill:#fff"/><path d="M183,938.54,184.6,937a1.92,1.92,0,0,0,2.55-.33,2.12,2.12,0,0,0-3-3,2.09,2.09,0,0,0-.59,2.09L182,937.3l-4.38-5.16,5-5,1.37,1.36-3.76,3.76,2,2.38.1-.1a2.86,2.86,0,0,1,.94-2.56,3.59,3.59,0,0,1,5.31.14,4,4,0,0,1-.12,6C186.79,939.8,184.57,940,183,938.54Z" style="fill:#fff"/><path d="M192.91,933.35,191.56,932l2.22-2.22-5.28-5.29-.11.1-.71,3.54-1.53-1.53.73-3.72,1.59-1.59,6.9,6.9,2.11-2.11,1.36,1.35Z" style="fill:#fff"/><path d="M194.42,915c1.7-1.7,3.82-1.88,5.25-.46.9.91,1.2,2.16,1.14,4.89l-.07,3.15.1.1,3.61-3.61,1.37,1.37L200,926.26l-1.14-1.14,0-5.35c0-2.25-.14-3-.7-3.53a1.66,1.66,0,0,0-2.5.14,1.8,1.8,0,0,0,0,2.69l0,0-1.51,1.51,0,0C192.57,919,192.69,916.73,194.42,915Z" style="fill:#fff"/></g><g style="isolation:isolate"><path d="M225.27,959.21a1.52,1.52,0,0,1,2.14-2.15,1.4,1.4,0,0,1-.09,2.07A1.37,1.37,0,0,1,225.27,959.21Zm6.89,10.27-1.24-1.25,2-2-3.81-3.81-1.92,1.92L226,963.07l3.44-3.45,5.06,5.07,1.91-1.91,1.24,1.25Z" style="fill:#fff"/><path d="M239.28,954.15a1.56,1.56,0,0,0-2.26.15c-.84.84-.67,1.93.48,3.09l.42.42c1.16,1.16,2.25,1.32,3.09.48a1.53,1.53,0,0,0,.21-2.2l1.53-1.54c1.37,1.64,1.21,3.41-.42,5-1.86,1.85-3.94,1.83-5.86-.08l-.66-.67c-1.92-1.91-1.94-4-.08-5.85,1.63-1.63,3.39-1.77,5.08-.37Z" style="fill:#fff"/><path d="M243.74,952.57l-1-1a4.1,4.1,0,0,1,5.8-5.8l1,1a4.1,4.1,0,0,1-5.8,5.8Zm.63-2.45.84.85a1.95,1.95,0,1,0,2.73-2.72l-.85-.85a1.95,1.95,0,1,0-2.72,2.72Z" style="fill:#fff"/><path d="M247.43,941.6l1.51-1.52,1.06,1.06.1-.1a2.68,2.68,0,0,1,.71-3.08c1.37-1.38,2.92-1.29,4.46.25l4.08,4.08-1.57,1.57-3.7-3.71c-.93-.92-1.74-1-2.54-.2a1.83,1.83,0,0,0,.11,2.75l3.64,3.65-1.56,1.56Z" style="fill:#fff"/><path d="M262.84,942.85l-1.4-1.39,5.94-5.94,1.39,1.4Z" style="fill:#fff"/><path d="M271.27,930.7a4.17,4.17,0,0,1-6.19.12,7.39,7.39,0,0,1-1.91-4.26c-.14-.68-.5-3.54-.56-4l1.84-1.84.67,4.83a3.89,3.89,0,0,0,.21.94l.13-.09a2.6,2.6,0,0,1,.81-1.83,3.57,3.57,0,0,1,5.18.12A4.18,4.18,0,0,1,271.27,930.7Zm-1.37-4.37a2.16,2.16,0,1,0,0,3A2.08,2.08,0,0,0,269.9,926.33Z" style="fill:#fff"/><path d="M277.35,921.17l-3.69,3.69-1.31-1.3-2.87-7.9,1.64-1.64L274,921.7l.1.1,2-2L274,917.71l1.45-1.45,2.11,2.11,1.12-1.12,1.3,1.3-1.09,1.1,1.56,1.56-1.52,1.52Z" style="fill:#fff"/></g><g style="isolation:isolate"><path d="M280.53,989.07l1.09,1.08c1.72,1.72,1.87,3.57.42,5a2.33,2.33,0,0,1-2.93.57l-.11.11,3.17,3.17-1.63,1.63-8.41-8.4,1.61-1.61,1.08,1.09.12-.12a2.34,2.34,0,0,1,.59-3C277,987.21,278.82,987.35,280.53,989.07Zm-4.15,4.25,1,1a1.85,1.85,0,1,0,2.61-2.61l-1-1a1.85,1.85,0,1,0-2.61,2.61Z" style="fill:#fff"/><path d="M276.93,982.65l1.52-1.53,3.48,3.48.09-.09a2.76,2.76,0,0,1,.74-3.12c1.36-1.37,2.95-1.29,4.48.23l4.06,4.07-1.57,1.57-3.68-3.69c-.92-.92-1.76-1-2.55-.19a1.85,1.85,0,0,0,.07,2.79l3.63,3.62-1.57,1.57Z" style="fill:#fff"/><path d="M290.14,981.52l-1-1a4.1,4.1,0,0,1,5.79-5.8l1,1a4.1,4.1,0,0,1-5.8,5.8Zm.63-2.45.84.85a1.95,1.95,0,1,0,2.73-2.72l-.85-.85a1.95,1.95,0,1,0-2.72,2.72Z" style="fill:#fff"/><path d="M295.06,965.71l1.86,1.87,2.36-2.35,1.25,1.25-2.32,2.32,3,3c.47.48,1.08.41,1.68-.19l1.3-1.32,1.23,1.23c-.05.08-1.28,1.34-1.41,1.46-1.71,1.72-2.91,1.83-4.38.37l-3-3L295,972l-1.25-1.25,1.64-1.64-1.86-1.87Z" style="fill:#fff"/><path d="M304.62,967.05l-1-1a4.1,4.1,0,0,1,5.8-5.79l1,1a4.1,4.1,0,0,1-5.79,5.8Zm.62-2.45.85.85a2,2,0,0,0,3,.22c.84-.84.74-2-.23-2.95l-.84-.84c-1-1-2.11-1.07-3-.23A2,2,0,0,0,305.24,964.6Z" style="fill:#fff"/><path d="M316.47,964.57l-1.39-1.4,5.93-5.94,1.4,1.4Z" style="fill:#fff"/><path d="M319.73,944.64l1.79-1.79.29,5L328,949l-1.81,1.81-4.53-.86v1.2l2.1,2.1-1.57,1.56-8.7-8.71,1.56-1.56,4.93,4.93.1-.1Z" style="fill:#fff"/><path d="M326.33,945.33l-1-1a4.1,4.1,0,0,1,5.79-5.8l1,1a4.1,4.1,0,0,1-5.8,5.8Zm.63-2.45.84.85a1.95,1.95,0,1,0,2.73-2.72l-.85-.85a1.95,1.95,0,1,0-2.72,2.72Z" style="fill:#fff"/><path d="M333.52,938.24l-1.09-1.08c-1.71-1.72-1.85-3.57-.41-5a2.32,2.32,0,0,1,2.93-.57l.12-.12L331.59,928l1.63-1.63,8.71,8.71-1.61,1.61-1.09-1.09-.12.12a2.33,2.33,0,0,1-.58,2.95C337.09,940.1,335.24,940,333.52,938.24Zm4.16-4.25-1-1a1.85,1.85,0,1,0-2.61,2.61l1,1a1.85,1.85,0,1,0,2.61-2.61Z" style="fill:#fff"/><path d="M341.73,931.66c-1.14-1.14-1-2.63.46-4.3l1.39-1.57-.5-.5a1.24,1.24,0,0,0-1.9.16,1.47,1.47,0,0,0-.44,1.71l-1.53,1.52c-1-1.26-.73-3,.77-4.53s3.3-1.75,4.68-.37l4.28,4.27-1.49,1.49-.84-.84-.14.14a2.73,2.73,0,0,1-.85,2.74A2.6,2.6,0,0,1,341.73,931.66Zm3.31-4.4-.46-.46-1.13,1.29c-.69.78-.78,1.43-.29,1.91s1.14.39,1.74-.21A1.72,1.72,0,0,0,345,927.26Z" style="fill:#fff"/><path d="M348.68,915.69l1.79-1.79.29,5,6.18,1.19-1.81,1.81L350.6,921v1.2l2.1,2.09-1.56,1.56-8.71-8.71,1.56-1.56,4.93,4.94.1-.1Z" style="fill:#fff"/></g><g style="isolation:isolate"><path d="M340,1003.54l1.09,1.09c1.72,1.72,1.86,3.57.41,5a2.34,2.34,0,0,1-2.93.58l-.11.11,3.17,3.17-1.63,1.63-8.41-8.41,1.61-1.6,1.09,1.08.12-.12a2.35,2.35,0,0,1,.58-3C336.48,1001.68,338.32,1001.83,340,1003.54Zm-4.16,4.25,1.05,1.05a1.85,1.85,0,1,0,2.61-2.61l-1.05-1.05a1.85,1.85,0,1,0-2.61,2.61Z" style="fill:#fff"/><path d="M336.43,997.12,338,995.6l3.47,3.47.09-.09a2.77,2.77,0,0,1,.74-3.12c1.37-1.36,3-1.28,4.48.24l4.06,4.07-1.56,1.56-3.68-3.68c-.93-.92-1.77-1-2.56-.19a1.85,1.85,0,0,0,.07,2.79l3.63,3.62-1.56,1.56Z" style="fill:#fff"/><path d="M349.64,996l-1-1a4.1,4.1,0,0,1,5.8-5.8l1,1a4.1,4.1,0,0,1-5.8,5.8Zm.63-2.45.85.85a1.95,1.95,0,1,0,2.72-2.73l-.85-.84a1.94,1.94,0,1,0-2.72,2.72Z" style="fill:#fff"/><path d="M354.56,980.19l1.87,1.86,2.35-2.35L360,981l-2.32,2.33,3,3c.48.47,1.08.41,1.68-.2.15-.14,1.24-1.24,1.3-1.32l1.24,1.24c-.05.07-1.29,1.33-1.41,1.46-1.72,1.71-2.92,1.83-4.38.36l-3-3-1.64,1.64-1.25-1.25,1.64-1.65L353,981.72Z" style="fill:#fff"/><path d="M364.12,981.52l-1-1a4.1,4.1,0,0,1,5.79-5.8l1,1a4.1,4.1,0,0,1-5.8,5.8Zm.63-2.45.84.85a1.95,1.95,0,1,0,2.73-2.72l-.85-.85a1.95,1.95,0,1,0-2.72,2.72Z" style="fill:#fff"/><path d="M376,979l-1.4-1.39,5.94-5.94,1.39,1.4Z" style="fill:#fff"/><path d="M376.28,958.47l1.86,1.87,2.35-2.35,1.25,1.25-2.32,2.32,3,3c.47.47,1.08.4,1.68-.2l1.3-1.32,1.23,1.23c0,.08-1.28,1.34-1.41,1.46-1.72,1.72-2.92,1.83-4.38.37l-3-3-1.64,1.64L375,963.51l1.64-1.64L374.75,960Z" style="fill:#fff"/><path d="M392.47,955c1,1.25.66,3.16-.8,4.62-1.84,1.84-3.92,1.86-5.71.07l-1-1a3.74,3.74,0,0,1,.11-5.61,3.66,3.66,0,0,1,5.53.05l.87.87L387.39,958l.35.34a1.8,1.8,0,0,0,2.71,0,1.7,1.7,0,0,0,.54-1.94ZM386.39,957l2.56-2.56a1.78,1.78,0,0,0-2.71-.19A1.8,1.8,0,0,0,386.39,957Z" style="fill:#fff"/><path d="M395.85,946.91a1.56,1.56,0,0,0-2.26.15c-.84.84-.67,1.94.48,3.09l.42.42c1.16,1.16,2.25,1.33,3.09.48a1.53,1.53,0,0,0,.21-2.2l1.53-1.54c1.37,1.65,1.21,3.41-.42,5-1.86,1.86-3.94,1.83-5.86-.08l-.66-.67c-1.92-1.91-1.94-4-.08-5.85,1.63-1.63,3.39-1.77,5.08-.37Z" style="fill:#fff"/><path d="M396.76,941.6l1.51-1.52,1.06,1.06.1-.1a2.7,2.7,0,0,1,.71-3.08c1.37-1.38,2.92-1.29,4.46.25l4.08,4.08-1.57,1.57-3.7-3.71c-.93-.93-1.74-1-2.53-.2a1.82,1.82,0,0,0,.1,2.75l3.65,3.64-1.57,1.57Z" style="fill:#fff"/><path d="M403.55,930.25a1.52,1.52,0,1,1,2.06-.08A1.37,1.37,0,0,1,403.55,930.25Zm6.9,10.27-1.25-1.24,2-2-3.81-3.81-1.92,1.93-1.25-1.26,3.44-3.44,5.07,5.06,1.9-1.9,1.25,1.24Z" style="fill:#fff"/><path d="M417.56,925.19a1.57,1.57,0,0,0-2.26.16c-.84.84-.67,1.93.48,3.09l.43.42c1.15,1.16,2.25,1.32,3.09.48a1.54,1.54,0,0,0,.2-2.21L421,925.6c1.37,1.64,1.21,3.4-.42,5-1.86,1.86-3.94,1.84-5.85-.08l-.67-.66c-1.91-1.92-1.94-4-.08-5.86,1.63-1.63,3.39-1.76,5.09-.37Z" style="fill:#fff"/><path d="M422.66,915.69l1.79-1.79.29,5,6.18,1.19-1.81,1.81-4.53-.86v1.2l2.1,2.09-1.56,1.56-8.71-8.71,1.56-1.56,4.93,4.94.1-.1Z" style="fill:#fff"/></g><g style="isolation:isolate"><path d="M400.92,1018l1.09,1.09c1.72,1.72,1.86,3.56.41,5a2.31,2.31,0,0,1-2.92.57l-.12.12,3.17,3.17-1.63,1.63-8.4-8.41,1.6-1.61,1.09,1.09.12-.12a2.35,2.35,0,0,1,.58-2.95C397.36,1016.16,399.21,1016.3,400.92,1018Zm-4.16,4.25,1.05,1a1.85,1.85,0,1,0,2.61-2.6l-1.05-1.05a1.85,1.85,0,1,0-2.61,2.61Z" style="fill:#fff"/><path d="M397.31,1011.6l1.53-1.53,3.48,3.48.09-.09a2.76,2.76,0,0,1,.73-3.12c1.37-1.37,3-1.29,4.48.24l4.07,4.06-1.57,1.57-3.68-3.68c-.92-.92-1.76-1-2.56-.19a1.84,1.84,0,0,0,.08,2.78l3.62,3.63-1.56,1.56Z" style="fill:#fff"/><path d="M410.53,1010.47l-1-1a4.1,4.1,0,0,1,5.8-5.8l1,1a4.1,4.1,0,0,1-5.79,5.79Zm.62-2.44.85.84a1.95,1.95,0,1,0,2.72-2.72l-.84-.85a2,2,0,1,0-2.73,2.73Z" style="fill:#fff"/><path d="M415.45,994.66l1.86,1.87,2.35-2.35,1.25,1.25-2.32,2.32,3,3c.47.47,1.08.4,1.68-.2l1.3-1.32,1.23,1.24c-.05.07-1.29,1.33-1.41,1.45-1.72,1.72-2.92,1.83-4.38.37l-3-3-1.64,1.64-1.25-1.25,1.64-1.64-1.87-1.86Z" style="fill:#fff"/><path d="M425,996l-1-1a4.1,4.1,0,0,1,5.8-5.8l1,1A4.1,4.1,0,0,1,425,996Zm.63-2.45.85.85a1.94,1.94,0,1,0,2.72-2.72l-.85-.85a1.94,1.94,0,1,0-2.72,2.72Z" style="fill:#fff"/><path d="M436.86,993.52l-1.4-1.4,5.94-5.93,1.4,1.39Z" style="fill:#fff"/><path d="M447.28,979.05l-1.36,1.36L440.84,977l-.06.05,3.38,5.09-1.36,1.36-7.57-5,1.49-1.5,4.92,4,.2-.2-3.73-5.1,1.29-1.29,5.1,3.73.2-.2-4-4.92,1.5-1.49Z" style="fill:#fff"/><path d="M442.72,966.45a1.52,1.52,0,1,1,2.06-.09A1.38,1.38,0,0,1,442.72,966.45Zm6.89,10.26-1.24-1.24,2-2-3.81-3.8-1.92,1.92-1.25-1.26,3.44-3.44,5.06,5.06,1.91-1.9,1.24,1.25Z" style="fill:#fff"/><path d="M454.59,959.12l1.79-1.79.29,5,6.18,1.19L461,965.29l-4.52-.86v1.2l2.09,2.09-1.56,1.56-8.71-8.71L449.9,959l4.93,4.94.1-.1Z" style="fill:#fff"/><path d="M457.19,952a1.53,1.53,0,1,1,2.06-.08A1.38,1.38,0,0,1,457.19,952Zm6.9,10.27L462.84,961l2-2-3.81-3.81-1.92,1.92-1.25-1.25,3.44-3.44,5.06,5.06,1.9-1.91,1.25,1.25Z" style="fill:#fff"/><path d="M473.3,945.64l1.09,1.09c1.72,1.72,1.86,3.56.41,5a2.31,2.31,0,0,1-2.92.57l-.12.12,3.17,3.17-1.63,1.63-8.4-8.41,1.6-1.61,1.09,1.09.12-.12a2.35,2.35,0,0,1,.58-2.95C469.74,943.78,471.59,943.92,473.3,945.64Zm-4.16,4.25,1.05,1.05a1.85,1.85,0,1,0,2.61-2.61l-1.05-1.05a1.85,1.85,0,1,0-2.61,2.61Z" style="fill:#fff"/><path d="M482.3,940.48c1,1.25.66,3.16-.8,4.62-1.84,1.84-3.92,1.86-5.71.07l-1-1a3.74,3.74,0,0,1,.12-5.6,3.65,3.65,0,0,1,5.52.05l.87.87-4.06,4.06.34.35a1.81,1.81,0,0,0,2.71,0,1.72,1.72,0,0,0,.55-1.94Zm-6.07,2.06,2.55-2.55a1.76,1.76,0,0,0-2.7-.19A1.78,1.78,0,0,0,476.23,942.54Z" style="fill:#fff"/><path d="M482.86,938.24l-1.09-1.08c-1.71-1.72-1.85-3.57-.41-5a2.32,2.32,0,0,1,2.93-.57l.11-.12L480.93,928l1.63-1.63,8.71,8.71-1.61,1.61-1.09-1.09-.12.13a2.33,2.33,0,0,1-.58,2.95C486.43,940.1,484.57,940,482.86,938.24ZM487,934l-1-1a1.85,1.85,0,1,0-2.61,2.61l1,1A1.85,1.85,0,1,0,487,934Z" style="fill:#fff"/><path d="M486.15,923a1.37,1.37,0,0,1,.08-2.06,1.4,1.4,0,1,1-.08,2.06ZM493,933.29,491.8,932l2-2L490,926.21l-1.92,1.92-1.25-1.25,3.44-3.45,5.06,5.07,1.91-1.91,1.24,1.25Z" style="fill:#fff"/><path d="M498.3,924.42c-1.14-1.13-1-2.63.47-4.3l1.38-1.56-.5-.51a1.24,1.24,0,0,0-1.89.16,1.48,1.48,0,0,0-.45,1.71l-1.52,1.53c-1-1.26-.73-3,.77-4.53s3.3-1.76,4.68-.38l4.27,4.28L504,922.3l-.84-.84-.14.14a2.75,2.75,0,0,1-.85,2.74A2.61,2.61,0,0,1,498.3,924.42Zm3.32-4.4-.46-.46L500,920.85c-.68.78-.77,1.43-.29,1.92s1.15.39,1.75-.22A1.73,1.73,0,0,0,501.62,920Z" style="fill:#fff"/></g><g style="isolation:isolate"><path d="M542.35,952.88l1.09,1.09c1.72,1.72,1.86,3.56.41,5a2.32,2.32,0,0,1-2.93.57l-.11.12,3.17,3.16-1.63,1.63-8.41-8.4,1.61-1.61,1.09,1.09.12-.12a2.35,2.35,0,0,1,.58-2.95C538.79,951,540.63,951.16,542.35,952.88Zm-4.16,4.25,1,1a1.85,1.85,0,1,0,2.61-2.6l-1.05-1.05a1.85,1.85,0,1,0-2.61,2.61Z" style="fill:#fff"/><path d="M541.16,948.84l1.52-1.52,1.06,1.06.09-.1a2.7,2.7,0,0,1,.71-3.08c1.38-1.38,2.93-1.29,4.47.25l4.08,4.08-1.57,1.57-3.71-3.71c-.92-.93-1.73-1-2.53-.2a1.83,1.83,0,0,0,.11,2.75l3.64,3.64-1.56,1.57Z" style="fill:#fff"/><path d="M555.09,948.65l1.53-1.53c.51.3,1.27,0,2-.64.91-.91,1-1.8.18-2.59l-1.24-1.24-.12.12a2.53,2.53,0,0,1-.68,3c-1.45,1.46-3.32,1.32-5-.38l-1-1c-1.73-1.72-1.83-3.6-.32-5.11a2.51,2.51,0,0,1,3-.64l.12-.12-1.08-1.07L554,936l6.3,6.3c1.47,1.47,1.24,3.52-.6,5.36C558.08,949.29,556.32,949.66,555.09,948.65Zm.9-4.81a1.81,1.81,0,0,0,0-2.74l-.91-.91a1.9,1.9,0,1,0-2.68,2.68l.91.91A1.8,1.8,0,0,0,556,943.84Z" style="fill:#fff"/><path d="M555.19,930.26a1.53,1.53,0,1,1,2.06-.08A1.38,1.38,0,0,1,555.19,930.26Zm6.9,10.27-1.25-1.25,2-2-3.81-3.81-1.92,1.92-1.25-1.25,3.44-3.45,5.06,5.06,1.9-1.9,1.25,1.25Z" style="fill:#fff"/><path d="M575.18,927.44l-1.33,1.33-4.37-4.37c-.45-.46-.94-.5-1.3-.14a.93.93,0,0,0,.14,1.38l4.33,4.33-1.31,1.31L567,926.91c-.45-.45-.93-.51-1.3-.14a.92.92,0,0,0,.14,1.38l4.32,4.33-1.32,1.33-6.31-6.31,1.37-1.37,1,1L565,927a1.7,1.7,0,0,1,.08-2.32,1.6,1.6,0,0,1,2.17,0l.17-.17a1.66,1.66,0,0,1,.1-2.24c.78-.78,1.74-.66,2.74.34Z" style="fill:#fff"/><path d="M576.81,926.93l1.52-1.53c.52.3,1.28.06,2-.64.91-.91,1-1.8.19-2.59l-1.24-1.24-.12.12a2.56,2.56,0,0,1-.68,3.05c-1.45,1.45-3.33,1.32-5-.39l-1-1c-1.72-1.72-1.82-3.6-.31-5.11a2.53,2.53,0,0,1,3-.65l.11-.11-1.07-1.08,1.54-1.53,6.3,6.3c1.47,1.47,1.24,3.51-.6,5.36C579.79,927.57,578,928,576.81,926.93Zm.89-4.81a1.8,1.8,0,0,0-.05-2.74l-.91-.91a1.9,1.9,0,1,0-2.68,2.69l.91.91A1.8,1.8,0,0,0,577.7,922.12Z" style="fill:#fff"/></g><g style="isolation:isolate"><path d="M546.72,1018.27c1.53-1.53,3.15-1.78,4.4-.67l-1.47,1.48c-.49-.35-1.16-.19-1.75.39s-.72,1.26-.32,1.66.82.29,1.55-.2l1.18-.78c1.54-1,2.65-1,3.61-.07,1.28,1.27,1,3.12-.6,4.76s-3.3,1.92-4.57.82l1.54-1.54c.54.33,1.2.15,1.85-.5s.79-1.32.37-1.73-.76-.29-1.57.23l-1.14.74c-1.44.93-2.66.91-3.63-.06C544.94,1021.58,545.16,1019.83,546.72,1018.27Z" style="fill:#fff"/><path d="M557.64,1012.05a1.57,1.57,0,0,0-2.26.16c-.84.84-.68,1.93.48,3.08l.42.43c1.16,1.15,2.25,1.32,3.09.48a1.54,1.54,0,0,0,.2-2.21l1.54-1.53c1.36,1.64,1.2,3.4-.43,5-1.85,1.86-3.94,1.84-5.85-.08l-.67-.66c-1.91-1.92-1.93-4-.08-5.86,1.63-1.63,3.4-1.77,5.09-.37Z" style="fill:#fff"/><path d="M566.39,1009.21l1.83-1.83,1.15,1.15-4.53,4.53-1.15-1.15,1.2-1.2-4-4-1.32,1.31-1.15-1.15,2.82-2.83,1.62,1.62.25-.25a2.73,2.73,0,0,1,.32-3.89,4,4,0,0,1,1-.77l1.7,1.7a4.91,4.91,0,0,0-1.24.87c-1.48,1.49-1.53,2.89-.18,4.24Z" style="fill:#fff"/><path d="M576,998.39c1,1.24.66,3.15-.8,4.62-1.84,1.83-3.92,1.86-5.71.07l-1-1a3.73,3.73,0,0,1,.11-5.6,3.66,3.66,0,0,1,5.53,0l.87.87-4.07,4.07.35.34a1.8,1.8,0,0,0,2.71,0,1.7,1.7,0,0,0,.54-1.94Zm-6.08,2.06,2.56-2.56a1.78,1.78,0,0,0-2.71-.19A1.8,1.8,0,0,0,569.89,1000.45Z" style="fill:#fff"/><path d="M583.2,991.15c1,1.25.67,3.16-.8,4.62-1.83,1.84-3.91,1.86-5.7.07l-1-1a3.75,3.75,0,0,1,.12-5.61,3.66,3.66,0,0,1,5.53,0l.87.87-4.07,4.07.34.34a1.8,1.8,0,0,0,2.72,0,1.71,1.71,0,0,0,.54-1.94Zm-6.07,2.06,2.56-2.56a1.78,1.78,0,0,0-2.71-.19A1.8,1.8,0,0,0,577.13,993.21Z" style="fill:#fff"/><path d="M580.26,985l1.51-1.52,1.06,1.06.1-.1a2.71,2.71,0,0,1,.71-3.09c1.37-1.37,2.92-1.28,4.46.26l4.08,4.08-1.57,1.57-3.7-3.71c-.93-.93-1.74-1-2.53-.2a1.82,1.82,0,0,0,.1,2.75l3.65,3.64-1.57,1.56Z" style="fill:#fff"/><path d="M590.15,974.84c1.52-1.53,3.14-1.78,4.4-.67l-1.47,1.48a1.37,1.37,0,0,0-1.75.39c-.59.6-.72,1.26-.32,1.66s.81.29,1.55-.2l1.18-.78c1.54-1,2.65-1,3.61-.07,1.27,1.28,1,3.12-.6,4.76s-3.3,1.92-4.57.82l1.54-1.54c.53.34,1.2.15,1.85-.5s.78-1.32.37-1.73-.77-.29-1.57.23l-1.15.75q-2.16,1.38-3.63-.07C588.37,978.15,588.59,976.4,590.15,974.84Z" style="fill:#fff"/><path d="M592.31,968.17l1.53-1.52,3.47,3.47.09-.09a2.76,2.76,0,0,1,.74-3.12c1.37-1.36,3-1.28,4.48.24l4.06,4.06-1.56,1.57-3.68-3.68c-.93-.92-1.77-1-2.56-.19a1.84,1.84,0,0,0,.07,2.78l3.63,3.63L601,976.88Z" style="fill:#fff"/><path d="M605.52,967.05l-1-1a4.1,4.1,0,0,1,5.8-5.8l1,1a4.1,4.1,0,0,1-5.8,5.8Zm.63-2.45.85.85a1.95,1.95,0,1,0,2.72-2.73l-.85-.84a1.95,1.95,0,1,0-2.72,2.72Z" style="fill:#fff"/><path d="M610.44,951.24l1.87,1.86,2.35-2.35,1.25,1.25-2.32,2.33,3,3c.48.47,1.08.4,1.68-.2.15-.14,1.24-1.24,1.3-1.32l1.24,1.24c-.05.07-1.29,1.33-1.41,1.46-1.72,1.71-2.92,1.83-4.39.36l-3-3-1.64,1.64-1.26-1.25,1.65-1.65-1.87-1.86Z" style="fill:#fff"/><path d="M624.62,957.33l-1.4-1.4,5.94-5.93,1.39,1.39Z" style="fill:#fff"/><path d="M630.38,948.64l1.52-1.52c.52.3,1.28,0,2-.64.91-.91,1-1.81.19-2.59l-1.24-1.24-.12.12a2.56,2.56,0,0,1-.68,3c-1.46,1.46-3.33,1.32-5-.39l-1-.95c-1.72-1.72-1.82-3.6-.31-5.11a2.51,2.51,0,0,1,3-.64l.11-.12-1.07-1.07,1.53-1.54,6.31,6.3c1.47,1.47,1.24,3.52-.6,5.36C633.36,949.29,631.6,949.66,630.38,948.64Zm.89-4.81a1.79,1.79,0,0,0,0-2.73l-.91-.91a1.9,1.9,0,1,0-2.68,2.68l.91.91A1.79,1.79,0,0,0,631.27,943.83Z" style="fill:#fff"/><path d="M635.39,938.9c-1.13-1.14-1-2.63.47-4.3l1.39-1.57-.51-.5c-.54-.55-1.24-.49-1.89.15a1.49,1.49,0,0,0-.44,1.72l-1.53,1.52c-1-1.26-.73-3,.77-4.53s3.3-1.75,4.68-.37l4.28,4.27-1.49,1.49-.84-.84-.14.14a2.73,2.73,0,0,1-.85,2.74A2.62,2.62,0,0,1,635.39,938.9Zm3.32-4.4-.46-.46-1.13,1.29c-.69.78-.78,1.43-.3,1.91s1.15.39,1.75-.21A1.72,1.72,0,0,0,638.71,934.5Z" style="fill:#fff"/><path d="M650.46,927.44l-1.33,1.32-4.36-4.36c-.46-.46-.95-.5-1.31-.14a.93.93,0,0,0,.14,1.38l4.33,4.32-1.31,1.31-4.36-4.36c-.46-.46-.94-.51-1.31-.14a.93.93,0,0,0,.14,1.38l4.33,4.33-1.33,1.33-6.31-6.31,1.37-1.37,1,1,.17-.16a1.7,1.7,0,0,1,.07-2.32,1.6,1.6,0,0,1,2.17,0l.17-.17a1.67,1.67,0,0,1,.1-2.24c.78-.78,1.75-.66,2.75.34Z" style="fill:#fff"/><path d="M655.58,918.77c1,1.25.67,3.16-.8,4.62-1.83,1.84-3.91,1.86-5.7.07l-1-1a3.75,3.75,0,0,1,.12-5.61,3.66,3.66,0,0,1,5.53,0l.87.87-4.07,4.07.34.34a1.79,1.79,0,0,0,2.71,0,1.69,1.69,0,0,0,.55-1.93Zm-6.07,2.06,2.56-2.56a1.78,1.78,0,0,0-2.71-.19A1.8,1.8,0,0,0,649.51,920.83Z" style="fill:#fff"/></g><g style="isolation:isolate"><path d="M629.23,1011c1.53-1.53,3.15-1.78,4.41-.67l-1.48,1.48a1.36,1.36,0,0,0-1.74.39c-.6.6-.73,1.26-.32,1.66s.81.29,1.55-.2l1.17-.78c1.54-1,2.65-1,3.61-.07,1.28,1.28,1,3.12-.6,4.76s-3.3,1.92-4.57.82l1.55-1.54c.53.33,1.19.15,1.84-.5s.79-1.32.38-1.73-.77-.29-1.58.23l-1.14.74c-1.44.93-2.66.91-3.63-.06C627.45,1014.34,627.67,1012.59,629.23,1011Z" style="fill:#fff"/><path d="M640.15,1004.81a1.57,1.57,0,0,0-2.26.16c-.84.84-.68,1.93.48,3.08l.42.43c1.16,1.15,2.25,1.32,3.09.48a1.55,1.55,0,0,0,.21-2.21l1.53-1.53c1.36,1.64,1.21,3.4-.42,5-1.86,1.86-4,1.84-5.86-.08l-.66-.66c-1.92-1.92-1.94-4-.08-5.86,1.63-1.63,3.39-1.77,5.08-.37Z" style="fill:#fff"/><path d="M648.9,1002l1.83-1.83,1.15,1.15-4.53,4.53-1.15-1.15,1.2-1.2-4-4-1.32,1.31-1.15-1.15,2.82-2.83,1.62,1.62.25-.25a2.73,2.73,0,0,1,.32-3.89,4.15,4.15,0,0,1,1-.77l1.7,1.7a4.7,4.7,0,0,0-1.23.87c-1.49,1.49-1.54,2.89-.19,4.24Z" style="fill:#fff"/><path d="M658.48,991.15c1,1.25.66,3.15-.8,4.62-1.84,1.83-3.92,1.86-5.71.07l-1-1a3.75,3.75,0,0,1,.11-5.61,3.66,3.66,0,0,1,5.53,0l.87.87-4.07,4.07.35.34a1.8,1.8,0,0,0,2.71,0,1.7,1.7,0,0,0,.54-1.94Zm-6.08,2.06,2.56-2.56a1.77,1.77,0,0,0-2.7-.19A1.79,1.79,0,0,0,652.4,993.21Z" style="fill:#fff"/><path d="M665.72,983.91c1,1.25.66,3.16-.8,4.62-1.84,1.84-3.92,1.86-5.71.07l-1-1a3.74,3.74,0,0,1,.11-5.61,3.66,3.66,0,0,1,5.53.06l.87.86L660.64,987l.35.34a1.79,1.79,0,0,0,2.71,0,1.68,1.68,0,0,0,.54-1.93ZM659.64,986l2.56-2.56a1.78,1.78,0,0,0-2.71-.19A1.8,1.8,0,0,0,659.64,986Z" style="fill:#fff"/><path d="M662.77,977.79l1.51-1.52,1.06,1.06.1-.1a2.71,2.71,0,0,1,.71-3.09c1.37-1.37,2.93-1.28,4.46.26l4.08,4.08-1.57,1.57-3.7-3.71c-.93-.93-1.74-1-2.53-.2a1.83,1.83,0,0,0,.1,2.75l3.65,3.64-1.56,1.56Z" style="fill:#fff"/><path d="M672.66,967.6c1.53-1.53,3.15-1.77,4.4-.67l-1.47,1.48a1.37,1.37,0,0,0-1.75.39c-.59.6-.72,1.26-.32,1.66s.82.29,1.55-.2l1.18-.77c1.54-1,2.65-1,3.61-.08,1.28,1.28,1,3.12-.6,4.76s-3.3,1.92-4.57.82l1.54-1.54c.54.34,1.2.15,1.85-.5s.78-1.32.37-1.73-.76-.29-1.57.23l-1.14.75c-1.44.92-2.66.91-3.63-.07C670.88,970.91,671.1,969.16,672.66,967.6Z" style="fill:#fff"/><path d="M674.82,960.93l1.53-1.52,3.47,3.47.1-.09a2.74,2.74,0,0,1,.73-3.12c1.37-1.36,3-1.28,4.48.24L689.2,964l-1.57,1.57L684,961.86c-.92-.92-1.76-1-2.56-.19a1.85,1.85,0,0,0,.08,2.79l3.62,3.62-1.56,1.56Z" style="fill:#fff"/><path d="M688,959.81l-1-1a4.1,4.1,0,0,1,5.8-5.8l1,1a4.1,4.1,0,0,1-5.8,5.8Zm.63-2.45.85.85a1.95,1.95,0,1,0,2.72-2.73l-.85-.84a1.93,1.93,0,0,0-2.94-.22C687.6,955.26,687.69,956.38,688.66,957.36Z" style="fill:#fff"/><path d="M693,944l1.86,1.86,2.35-2.35,1.25,1.25-2.32,2.32,3,3c.48.47,1.09.4,1.69-.2.14-.14,1.23-1.24,1.29-1.32l1.24,1.24c-.05.07-1.29,1.33-1.41,1.46-1.72,1.71-2.92,1.83-4.38.36l-3-3-1.64,1.64L691.65,949l1.64-1.65-1.87-1.86Z" style="fill:#fff"/><path d="M707.13,950.09l-1.39-1.4,5.93-5.93,1.4,1.39Z" style="fill:#fff"/><path d="M717.55,935.62,716.19,937l-5.08-3.38-.06.06,3.38,5.08-1.36,1.36-7.57-5,1.49-1.5,4.93,4,.2-.2-3.74-5.1,1.29-1.29,5.1,3.73.2-.2-4-4.92,1.5-1.49Z" style="fill:#fff"/><path d="M723.62,926c1,1.24.66,3.15-.8,4.62-1.84,1.83-3.92,1.86-5.71.07l-1-1a3.74,3.74,0,0,1,.11-5.6,3.66,3.66,0,0,1,5.53,0l.87.87-4.06,4.07.34.34a1.8,1.8,0,0,0,2.71,0,1.7,1.7,0,0,0,.54-1.94Zm-6.07,2.06,2.55-2.56a1.77,1.77,0,0,0-2.7-.19A1.8,1.8,0,0,0,717.55,928.07Z" style="fill:#fff"/><path d="M727.63,923.37l-.11.11,1.08,1.09L727,926.18l-8.71-8.71,1.63-1.63,3.48,3.48.12-.12a2.32,2.32,0,0,1,.57-2.92c1.44-1.45,3.29-1.31,5,.41l1.09,1.08c1.72,1.72,1.86,3.57.41,5A2.35,2.35,0,0,1,727.63,923.37Zm.9-4-1-1a1.85,1.85,0,1,0-2.61,2.61l1,1a1.85,1.85,0,1,0,2.61-2.61Z" style="fill:#fff"/></g><g style="isolation:isolate"><path d="M702.58,1009.14l1.87,1.86,2.35-2.34,1.25,1.25-2.32,2.32,3,3c.48.48,1.08.41,1.68-.19l1.3-1.32L713,1015c-.05.08-1.29,1.33-1.41,1.46-1.72,1.72-2.92,1.83-4.38.37l-3-3-1.64,1.64-1.26-1.25,1.65-1.64-1.87-1.87Z" style="fill:#fff"/><path d="M718.77,1005.63c1,1.24.67,3.15-.8,4.62-1.83,1.83-3.92,1.85-5.71.06l-1-1a3.74,3.74,0,0,1,.12-5.6,3.66,3.66,0,0,1,5.53,0l.87.87-4.07,4.07.34.34a1.8,1.8,0,0,0,2.71,0,1.72,1.72,0,0,0,.55-1.94Zm-6.07,2,2.56-2.55a1.82,1.82,0,1,0-2.56,2.55Z" style="fill:#fff"/><path d="M722.75,1001l.85,3.37-1.66,1.66-1.12-5.12-5.2-1.17,1.81-1.81,3.32.93.1-.09-.93-3.33,1.72-1.72,1.1,5.13L728,1000l-1.74,1.74-3.37-.85Z" style="fill:#fff"/><path d="M724.3,987.43l1.86,1.86,2.35-2.35,1.26,1.25-2.33,2.32,3,3c.47.47,1.08.4,1.68-.2.15-.14,1.23-1.24,1.3-1.32l1.23,1.24c0,.07-1.28,1.33-1.41,1.46-1.72,1.71-2.92,1.83-4.38.36l-3-3-1.64,1.64L723,992.46l1.64-1.64L722.77,989Z" style="fill:#fff"/><path d="M742.22,985.72l-1.51,1.51-1.06-1.05-.1.09a2.71,2.71,0,0,1-.7,3.1c-1.37,1.37-2.93,1.28-4.47-.26L730.3,985l1.57-1.57,3.7,3.71c.93.92,1.74,1,2.54.2a1.83,1.83,0,0,0-.11-2.75L734.36,981l1.56-1.56Z" style="fill:#fff"/><path d="M745.38,980.26l1.83-1.83,1.15,1.15-4.52,4.53L742.69,983l1.2-1.2-4-4-1.31,1.32-1.16-1.15,2.83-2.83,1.62,1.62.24-.25a2.73,2.73,0,0,1,.33-3.89,3.62,3.62,0,0,1,1-.77l1.7,1.7a4.52,4.52,0,0,0-1.24.87c-1.49,1.49-1.54,2.89-.18,4.24Z" style="fill:#fff"/><path d="M755,969.44c1,1.24.67,3.15-.8,4.62-1.83,1.83-3.92,1.86-5.71.06l-1-1a3.74,3.74,0,0,1,.12-5.6,3.66,3.66,0,0,1,5.53,0l.87.87-4.07,4.07.34.34a1.8,1.8,0,0,0,2.71,0,1.72,1.72,0,0,0,.55-1.94Zm-6.07,2.06,2.56-2.56a1.78,1.78,0,0,0-2.71-.19A1.8,1.8,0,0,0,748.89,971.5Z" style="fill:#fff"/><path d="M754.67,960.36c1.53-1.53,3.14-1.77,4.4-.66l-1.47,1.47c-.5-.34-1.16-.18-1.75.4s-.72,1.26-.32,1.66.81.28,1.55-.2l1.18-.78c1.54-1,2.65-1,3.61-.08,1.27,1.28,1,3.13-.6,4.77s-3.3,1.91-4.57.82l1.54-1.55c.53.34,1.2.16,1.85-.5s.78-1.32.37-1.73-.76-.28-1.57.24l-1.14.74q-2.18,1.39-3.64-.06C752.89,963.67,753.11,961.92,754.67,960.36Z" style="fill:#fff"/><path d="M767.43,964.57l-1.4-1.4,5.94-5.93,1.39,1.39Z" style="fill:#fff"/><path d="M774.91,945.64l1.09,1.09c1.72,1.72,1.87,3.56.42,5a2.32,2.32,0,0,1-2.93.57l-.11.12,3.16,3.17-1.63,1.63-8.4-8.41,1.61-1.61,1.08,1.09.12-.12a2.34,2.34,0,0,1,.59-2.95C771.35,943.78,773.2,943.92,774.91,945.64Zm-4.15,4.25,1,1.05a1.85,1.85,0,1,0,2.61-2.61l-1-1.05a1.85,1.85,0,1,0-2.61,2.61Z" style="fill:#fff"/><path d="M771.3,939.22l1.53-1.53,3.48,3.48.09-.09a2.76,2.76,0,0,1,.74-3.12c1.36-1.36,3-1.28,4.48.24l4.06,4.06-1.57,1.57-3.68-3.68c-.92-.92-1.76-1-2.55-.19a1.84,1.84,0,0,0,.07,2.78l3.63,3.63L780,947.93Z" style="fill:#fff"/><path d="M784.52,938.1l-1-1a4.1,4.1,0,0,1,5.79-5.8l1,1a4.1,4.1,0,0,1-5.8,5.8Zm.63-2.45.84.84c1,1,2.11,1.07,3,.23a2,2,0,0,0-.22-3l-.85-.84c-1-1-2.11-1.07-3-.23S784.17,934.67,785.15,935.65Z" style="fill:#fff"/><path d="M789.44,922.29l1.86,1.86,2.35-2.35,1.26,1.25-2.33,2.32,3,3c.47.47,1.08.4,1.68-.2.15-.15,1.24-1.24,1.3-1.32l1.23,1.24c0,.07-1.28,1.33-1.41,1.46-1.71,1.71-2.92,1.82-4.38.36l-3-3-1.64,1.65-1.25-1.26,1.64-1.64-1.86-1.86Z" style="fill:#fff"/><path d="M799,923.62l-1-1a4.1,4.1,0,0,1,5.8-5.8l1,1a4.1,4.1,0,0,1-5.8,5.8Zm.63-2.45.85.85a1.95,1.95,0,1,0,2.72-2.72l-.84-.85a2,2,0,0,0-3-.22C798.56,919.07,798.65,920.19,799.62,921.17Z" style="fill:#fff"/></g><g style="isolation:isolate"><path d="M801.58,987.43l1.87,1.86,2.35-2.35,1.25,1.25-2.32,2.32,3,3c.48.47,1.08.4,1.68-.2.15-.15,1.24-1.24,1.3-1.32l1.24,1.24c-.05.07-1.29,1.33-1.42,1.46-1.71,1.71-2.91,1.83-4.38.36l-3-3-1.64,1.65-1.26-1.26,1.65-1.64L800.05,989Z" style="fill:#fff"/><path d="M817.77,983.91c1,1.25.66,3.16-.8,4.62-1.84,1.84-3.92,1.86-5.71.07l-1-1a3.75,3.75,0,0,1,.12-5.61,3.66,3.66,0,0,1,5.53.06l.86.86L812.7,987l.34.34a1.79,1.79,0,0,0,2.71,0,1.71,1.71,0,0,0,.55-1.93ZM811.7,986l2.55-2.56a1.77,1.77,0,0,0-2.7-.19A1.79,1.79,0,0,0,811.7,986Z" style="fill:#fff"/><path d="M821.74,979.25l.86,3.37-1.66,1.66-1.12-5.12-5.2-1.17,1.81-1.8,3.32.93.09-.1-.92-3.33,1.71-1.71,1.11,5.13,5.21,1.16L825.21,980l-3.38-.86Z" style="fill:#fff"/><path d="M823.3,965.71l1.86,1.87,2.35-2.35,1.25,1.25-2.32,2.32,3,3c.47.48,1.08.41,1.68-.19l1.3-1.32,1.23,1.23c0,.08-1.29,1.34-1.41,1.46-1.72,1.72-2.92,1.83-4.38.37l-3-3L823.24,972,822,970.75l1.64-1.64-1.87-1.87Z" style="fill:#fff"/><path d="M841.22,964l-1.51,1.52-1.06-1.06-.1.1a2.71,2.71,0,0,1-.7,3.09c-1.37,1.38-2.93,1.28-4.47-.25l-4.08-4.09,1.57-1.56,3.7,3.7c.93.93,1.74,1,2.54.2a1.82,1.82,0,0,0-.11-2.74l-3.65-3.65,1.57-1.56Z" style="fill:#fff"/><path d="M844.38,958.54l1.83-1.83,1.15,1.15-4.53,4.53-1.15-1.15,1.2-1.2-4-4-1.31,1.32-1.16-1.16,2.83-2.82,1.61,1.61.25-.24a2.74,2.74,0,0,1,.33-3.9,3.56,3.56,0,0,1,1-.76l1.7,1.7a4.33,4.33,0,0,0-1.24.86c-1.49,1.49-1.54,2.89-.18,4.25Z" style="fill:#fff"/><path d="M854,947.72c1,1.25.66,3.16-.8,4.62-1.84,1.84-3.92,1.86-5.71.07l-1-1a3.75,3.75,0,0,1,.12-5.61,3.65,3.65,0,0,1,5.52.06l.87.86-4.06,4.07.34.34a1.79,1.79,0,0,0,2.71,0,1.71,1.71,0,0,0,.55-1.93Zm-6.07,2.06,2.55-2.56a1.77,1.77,0,0,0-2.7-.19A1.79,1.79,0,0,0,847.89,949.78Z" style="fill:#fff"/><path d="M853.67,938.65c1.52-1.53,3.14-1.78,4.4-.67l-1.48,1.48a1.36,1.36,0,0,0-1.74.39c-.59.6-.72,1.26-.32,1.66s.81.29,1.55-.2l1.18-.78c1.54-1,2.65-1,3.61-.07,1.27,1.28,1,3.12-.6,4.76s-3.3,1.92-4.57.82l1.54-1.54c.53.33,1.2.15,1.85-.5s.78-1.32.37-1.73-.77-.29-1.57.23l-1.15.74c-1.44.93-2.66.91-3.63-.06C851.89,942,852.11,940.21,853.67,938.65Z" style="fill:#fff"/><path d="M866.42,942.85,865,941.46l5.93-5.94,1.4,1.4Z" style="fill:#fff"/><path d="M873.91,923.92,875,925c1.72,1.72,1.86,3.57.42,5a2.33,2.33,0,0,1-2.93.57l-.11.11,3.16,3.17-1.63,1.63-8.4-8.41,1.6-1.6,1.09,1.08.12-.12a2.35,2.35,0,0,1,.58-3C870.35,922.07,872.2,922.21,873.91,923.92Zm-4.15,4.25,1,1.05a1.85,1.85,0,1,0,2.61-2.61l-1-1a1.84,1.84,0,1,0-2.6,2.6Z" style="fill:#fff"/><path d="M876.92,915.69l1.79-1.79.29,5,6.18,1.19-1.82,1.81-4.52-.86v1.2l2.09,2.09-1.56,1.56-8.71-8.71,1.56-1.56,4.94,4.94.1-.1Z" style="fill:#fff"/></g><g style="isolation:isolate"><path d="M863.57,1001.9l1.87,1.87,2.35-2.35,1.25,1.25-2.32,2.32,3,3c.48.48,1.08.41,1.68-.19l1.3-1.32,1.24,1.23c-.06.08-1.29,1.34-1.42,1.46-1.71,1.72-2.91,1.83-4.38.37l-3-3-1.64,1.64-1.26-1.25,1.64-1.64-1.86-1.86Z" style="fill:#fff"/><path d="M879.76,998.39c1,1.24.66,3.15-.8,4.62-1.84,1.83-3.92,1.86-5.71.07l-1-1a3.74,3.74,0,0,1,.11-5.6,3.66,3.66,0,0,1,5.53,0l.87.87-4.06,4.07.34.34a1.8,1.8,0,0,0,2.71,0,1.72,1.72,0,0,0,.55-1.94Zm-6.07,2.06,2.55-2.56a1.77,1.77,0,0,0-2.7-.19A1.8,1.8,0,0,0,873.69,1000.45Z" style="fill:#fff"/><path d="M883.73,993.73l.86,3.37-1.66,1.66-1.12-5.12-5.2-1.17,1.81-1.81,3.32.94.09-.1-.92-3.33,1.71-1.71,1.11,5.12,5.21,1.17-1.74,1.75-3.38-.86Z" style="fill:#fff"/><path d="M885.29,980.19l1.86,1.86,2.35-2.35,1.25,1.26-2.32,2.32,3,3c.47.48,1.08.41,1.68-.19l1.3-1.32,1.23,1.23c0,.07-1.29,1.33-1.41,1.46-1.72,1.71-2.92,1.83-4.38.36l-3-3-1.64,1.64L884,985.23l1.64-1.64-1.87-1.87Z" style="fill:#fff"/><path d="M903.21,978.48,901.7,980l-1.06-1.06-.1.1a2.71,2.71,0,0,1-.7,3.09c-1.37,1.37-2.93,1.28-4.47-.26l-4.08-4.08,1.57-1.57,3.7,3.71c.93.92,1.74,1,2.54.2a1.83,1.83,0,0,0-.11-2.75l-3.65-3.65,1.57-1.56Z" style="fill:#fff"/><path d="M906.37,973l1.83-1.83,1.15,1.15-4.53,4.53-1.15-1.15,1.21-1.2-4-4-1.31,1.31-1.16-1.15,2.83-2.83,1.61,1.62.25-.25a2.73,2.73,0,0,1,.33-3.89,3.82,3.82,0,0,1,1-.77l1.7,1.7a4.58,4.58,0,0,0-1.24.87c-1.49,1.49-1.54,2.89-.18,4.24Z" style="fill:#fff"/><path d="M916,962.2c1,1.25.66,3.16-.8,4.62-1.84,1.83-3.92,1.86-5.71.07l-1-1a3.75,3.75,0,0,1,.11-5.61,3.66,3.66,0,0,1,5.53.05l.87.87-4.06,4.07.34.34a1.8,1.8,0,0,0,2.71,0,1.7,1.7,0,0,0,.54-1.94Zm-6.07,2.06,2.55-2.56a1.77,1.77,0,0,0-2.7-.19A1.8,1.8,0,0,0,909.88,964.26Z" style="fill:#fff"/><path d="M915.66,953.12c1.52-1.52,3.14-1.77,4.4-.66l-1.48,1.48c-.49-.35-1.16-.19-1.74.39s-.72,1.26-.32,1.66.81.29,1.55-.2l1.18-.78c1.54-1,2.65-1,3.61-.07,1.27,1.27,1,3.12-.6,4.76s-3.3,1.92-4.57.82l1.54-1.55c.53.34,1.2.16,1.85-.49s.78-1.32.37-1.74-.77-.28-1.57.24l-1.15.74c-1.44.93-2.66.91-3.63-.06C913.88,956.44,914.1,954.69,915.66,953.12Z" style="fill:#fff"/><path d="M928.41,957.33l-1.39-1.4L933,950l1.4,1.39Z" style="fill:#fff"/><path d="M935.9,938.4l1.09,1.09c1.72,1.72,1.86,3.57.42,5a2.34,2.34,0,0,1-2.93.58l-.12.11,3.17,3.17L935.9,950l-8.4-8.41,1.6-1.6,1.09,1.08.12-.12a2.35,2.35,0,0,1,.58-3C932.34,936.54,934.19,936.69,935.9,938.4Zm-4.15,4.25,1,1.05a1.85,1.85,0,1,0,2.61-2.61l-1-1.05a1.85,1.85,0,1,0-2.6,2.61Z" style="fill:#fff"/><path d="M938.91,930.17l1.79-1.79.29,5,6.18,1.19-1.82,1.81-4.52-.86v1.2l2.09,2.09-1.56,1.56-8.71-8.71,1.56-1.56,4.94,4.94.1-.1Z" style="fill:#fff"/><path d="M943.84,929.59c-2.75-2.75-3.18-5.42-1.2-7.4s4.66-1.55,7.41,1.2,3.18,5.42,1.19,7.4S946.59,932.34,943.84,929.59Zm1.8-1.38,1-4.71c-1.08-.61-2-.61-2.61,0-1,1-.47,2.55,1.44,4.46Zm2.82-3.23-.2-.2-1,4.71c1.07.61,2,.6,2.6,0C950.88,928.47,950.38,926.9,948.46,925Z" style="fill:#fff"/><path d="M955.59,926.11l-1.36-1.36,2.23-2.22-5.29-5.29-.1.11-.72,3.54-1.53-1.54.74-3.72,1.59-1.59,6.9,6.9,2.11-2.11,1.35,1.35Z" style="fill:#fff"/></g><g style="isolation:isolate"><path d="M938.29,1001.9l1.87,1.87,2.35-2.35,1.25,1.25-2.32,2.32,3,3c.47.48,1.08.41,1.68-.19l1.3-1.32,1.23,1.23c0,.08-1.28,1.34-1.41,1.46-1.71,1.72-2.91,1.83-4.38.37l-3-3-1.65,1.64-1.25-1.25,1.64-1.64-1.86-1.87Z" style="fill:#fff"/><path d="M954.48,998.39c1,1.24.66,3.15-.8,4.62-1.84,1.83-3.92,1.86-5.71.07l-1-1a3.74,3.74,0,0,1,.11-5.6,3.66,3.66,0,0,1,5.53,0l.87.87-4.06,4.07.34.34a1.8,1.8,0,0,0,2.71,0,1.7,1.7,0,0,0,.54-1.94Zm-6.07,2.06,2.55-2.56a1.77,1.77,0,0,0-2.7-.19A1.79,1.79,0,0,0,948.41,1000.45Z" style="fill:#fff"/><path d="M958.45,993.73l.86,3.37-1.66,1.66-1.12-5.12-5.2-1.17,1.8-1.81,3.33.93.09-.09-.92-3.33,1.71-1.72,1.11,5.13,5.21,1.17-1.74,1.74-3.38-.85Z" style="fill:#fff"/><path d="M960,980.19l1.87,1.86,2.35-2.35,1.25,1.25-2.32,2.33,3,3c.48.47,1.08.41,1.69-.19.14-.15,1.23-1.25,1.29-1.33l1.24,1.24c0,.07-1.29,1.33-1.41,1.46-1.72,1.71-2.92,1.83-4.38.36l-3-3L960,986.48l-1.25-1.25,1.64-1.65-1.87-1.86Z" style="fill:#fff"/><path d="M977.93,978.48,976.42,980l-1.06-1.06-.1.1a2.71,2.71,0,0,1-.7,3.09c-1.38,1.37-2.93,1.28-4.47-.26L966,977.79l1.56-1.57,3.71,3.71c.93.92,1.74,1,2.53.2a1.83,1.83,0,0,0-.1-2.75l-3.65-3.65,1.56-1.56Z" style="fill:#fff"/><path d="M981.09,973l1.83-1.83,1.15,1.15-4.53,4.53-1.15-1.15,1.2-1.2-4-4-1.31,1.31-1.16-1.15,2.82-2.83,1.62,1.62.25-.25a2.73,2.73,0,0,1,.33-3.89,3.73,3.73,0,0,1,1-.77l1.7,1.7a4.7,4.7,0,0,0-1.23.87c-1.49,1.49-1.54,2.89-.19,4.24Z" style="fill:#fff"/><path d="M990.67,962.2c1,1.24.66,3.15-.8,4.62-1.84,1.83-3.92,1.86-5.71.07l-1-1a3.74,3.74,0,0,1,.11-5.6,3.66,3.66,0,0,1,5.53.05l.87.87-4.06,4.07.34.34a1.8,1.8,0,0,0,2.71,0,1.7,1.7,0,0,0,.54-1.94Zm-6.07,2.06,2.55-2.56a1.77,1.77,0,0,0-2.7-.19A1.79,1.79,0,0,0,984.6,964.26Z" style="fill:#fff"/><path d="M990.38,953.12c1.52-1.52,3.14-1.77,4.4-.66l-1.48,1.47a1.36,1.36,0,0,0-1.74.4c-.6.59-.72,1.26-.32,1.66s.81.28,1.55-.2L994,955c1.53-1,2.64-1,3.6-.07,1.28,1.27,1,3.12-.6,4.76s-3.3,1.92-4.57.82L994,959c.53.34,1.19.16,1.85-.49s.78-1.32.37-1.74-.77-.28-1.57.24l-1.15.74c-1.44.93-2.66.91-3.63-.06C988.6,956.43,988.81,954.68,990.38,953.12Z" style="fill:#fff"/><path d="M1003.13,957.33l-1.39-1.4,5.93-5.93,1.4,1.39Z" style="fill:#fff"/><path d="M1010.62,938.4l1.09,1.09c1.72,1.72,1.86,3.57.41,5a2.31,2.31,0,0,1-2.92.57l-.12.12,3.17,3.17-1.63,1.63-8.41-8.41,1.61-1.61,1.09,1.09.12-.12a2.35,2.35,0,0,1,.58-3C1007.06,936.54,1008.91,936.69,1010.62,938.4Zm-4.16,4.25,1,1.05a1.85,1.85,0,1,0,2.61-2.61l-1-1.05a1.85,1.85,0,1,0-2.61,2.61Z" style="fill:#fff"/><path d="M1013.63,930.17l1.79-1.79.29,5,6.17,1.19-1.81,1.81-4.52-.86v1.2l2.09,2.09-1.56,1.56-8.71-8.71,1.56-1.56,4.94,4.94.09-.1Z" style="fill:#fff"/><path d="M1018.56,929.59c-2.75-2.75-3.18-5.42-1.2-7.4s4.65-1.55,7.41,1.2,3.17,5.42,1.19,7.4S1021.31,932.34,1018.56,929.59Zm1.8-1.38,1-4.71c-1.08-.61-2-.61-2.62,0-1,1-.47,2.55,1.45,4.46Zm2.82-3.23-.2-.2-1,4.71c1.08.61,2,.6,2.61,0C1025.6,928.47,1025.1,926.9,1023.18,925Z" style="fill:#fff"/><path d="M1024.57,915c1.71-1.7,3.83-1.89,5.25-.46.91.91,1.21,2.15,1.15,4.89l-.08,3.15.11.1,3.61-3.61,1.36,1.37-5.81,5.81-1.14-1.13,0-5.35c0-2.25-.15-3-.7-3.53a1.67,1.67,0,0,0-2.51.13,1.83,1.83,0,0,0,0,2.7l0,0-1.51,1.51,0,0C1022.72,919,1022.84,916.73,1024.57,915Z" style="fill:#fff"/></g><g style="isolation:isolate"><path d="M999.22,1016.38l1.86,1.86,2.35-2.35,1.25,1.25-2.32,2.33,3,3c.48.48,1.08.41,1.69-.19.14-.15,1.23-1.25,1.29-1.33l1.24,1.24c-.05.07-1.29,1.33-1.41,1.46-1.72,1.71-2.92,1.83-4.38.36l-3-3-1.64,1.64-1.25-1.25,1.64-1.64-1.87-1.87Z" style="fill:#fff"/><path d="M1015.4,1012.86c1,1.25.67,3.16-.8,4.62-1.83,1.84-3.91,1.86-5.7.07l-1-1a3.74,3.74,0,0,1,.12-5.6,3.66,3.66,0,0,1,5.53,0l.87.87-4.07,4.06.34.35a1.81,1.81,0,0,0,2.71,0,1.72,1.72,0,0,0,.55-1.94Zm-6.07,2.06,2.56-2.55a1.77,1.77,0,0,0-2.71-.19A1.79,1.79,0,0,0,1009.33,1014.92Z" style="fill:#fff"/><path d="M1019.38,1008.2l.85,3.38-1.66,1.66-1.12-5.13-5.2-1.16,1.81-1.81,3.32.93.1-.1-.93-3.32,1.72-1.72,1.1,5.13,5.21,1.17-1.74,1.74-3.37-.86Z" style="fill:#fff"/><path d="M1020.93,994.66l1.86,1.87,2.35-2.35,1.26,1.25-2.33,2.32,3,3c.47.47,1.08.4,1.68-.2l1.3-1.32,1.23,1.24c0,.07-1.28,1.33-1.41,1.45-1.72,1.72-2.92,1.83-4.38.37l-3-3-1.64,1.64-1.25-1.25,1.64-1.64-1.86-1.86Z" style="fill:#fff"/><path d="M1038.85,993l-1.51,1.51-1.06-1.06-.09.1a2.73,2.73,0,0,1-.71,3.1c-1.37,1.37-2.93,1.28-4.46-.26l-4.09-4.09,1.57-1.56,3.7,3.7c.93.93,1.74,1,2.54.2a1.82,1.82,0,0,0-.11-2.74l-3.64-3.65,1.56-1.56Z" style="fill:#fff"/><path d="M1042,987.5l1.83-1.83,1.15,1.15-4.53,4.53-1.15-1.15,1.2-1.2-4-4-1.32,1.32-1.16-1.16,2.83-2.82,1.62,1.62.24-.25c-1-1.53-.86-2.7.33-3.89a3.62,3.62,0,0,1,1-.77l1.7,1.7a4.52,4.52,0,0,0-1.24.87q-2.22,2.22-.18,4.24Z" style="fill:#fff"/><path d="M1051.59,976.67c1,1.25.67,3.16-.8,4.62-1.83,1.84-3.91,1.86-5.71.07l-1-1a3.74,3.74,0,0,1,.12-5.6,3.66,3.66,0,0,1,5.53,0l.87.87-4.07,4.06.34.35a1.8,1.8,0,0,0,2.71,0,1.71,1.71,0,0,0,.55-1.94Zm-6.07,2.06,2.56-2.55a1.77,1.77,0,0,0-2.71-.19A1.79,1.79,0,0,0,1045.52,978.73Z" style="fill:#fff"/><path d="M1051.3,967.6c1.53-1.53,3.14-1.77,4.4-.66l-1.47,1.47a1.37,1.37,0,0,0-1.75.4c-.59.59-.72,1.25-.32,1.65s.82.29,1.55-.2l1.18-.77c1.54-1,2.65-1,3.61-.08,1.27,1.28,1,3.13-.6,4.77s-3.3,1.91-4.57.81l1.54-1.54c.54.34,1.2.15,1.85-.5s.78-1.32.37-1.73-.76-.29-1.57.23l-1.14.75c-1.44.92-2.66.91-3.64-.07C1049.52,970.91,1049.74,969.16,1051.3,967.6Z" style="fill:#fff"/><path d="M1064.06,971.8l-1.4-1.39,5.94-5.94,1.39,1.4Z" style="fill:#fff"/><path d="M1071.54,952.88l1.09,1.08c1.72,1.73,1.87,3.57.42,5a2.32,2.32,0,0,1-2.93.57l-.11.12,3.16,3.16-1.63,1.63-8.4-8.4,1.61-1.61,1.08,1.09.12-.12a2.37,2.37,0,0,1,.59-2.95C1068,951,1069.83,951.16,1071.54,952.88Zm-4.15,4.25,1,1a1.85,1.85,0,1,0,2.61-2.6l-1-1.05a1.85,1.85,0,1,0-2.61,2.61Z" style="fill:#fff"/><path d="M1076.81,955l-1.25-1.25,2-2-6.22-6.21-1.9,1.9-1.25-1.25,3.47-3.47,7.46,7.47,1.88-1.89,1.25,1.25Z" style="fill:#fff"/><path d="M1082.07,946.14c-1.14-1.14-1-2.64.47-4.3l1.38-1.57-.5-.5a1.23,1.23,0,0,0-1.89.15,1.49,1.49,0,0,0-.45,1.72l-1.52,1.52c-1-1.26-.73-3,.77-4.53s3.3-1.75,4.67-.38l4.28,4.28-1.49,1.49-.84-.84-.13.13a2.73,2.73,0,0,1-.86,2.74A2.6,2.6,0,0,1,1082.07,946.14Zm3.32-4.4-.46-.46-1.14,1.29c-.69.77-.78,1.42-.29,1.91s1.14.39,1.75-.22A1.72,1.72,0,0,0,1085.39,941.74Z" style="fill:#fff"/><path d="M1084.84,934.36l1.51-1.51,1.06,1,.1-.09a2.7,2.7,0,0,1,.71-3.09c1.37-1.37,2.92-1.28,4.46.25l4.08,4.08-1.57,1.57-3.7-3.71c-.93-.92-1.74-1-2.54-.2a1.83,1.83,0,0,0,.11,2.75l3.64,3.65-1.56,1.56Z" style="fill:#fff"/><path d="M1093.31,922.29l1.86,1.86,2.35-2.35,1.26,1.25-2.33,2.32,3,3c.47.47,1.08.4,1.68-.2l1.3-1.32,1.23,1.24c0,.07-1.28,1.33-1.41,1.45-1.72,1.72-2.92,1.83-4.38.37l-3-3-1.64,1.65-1.25-1.26,1.64-1.64-1.86-1.86Z" style="fill:#fff"/><path d="M1102,916.93c1.53-1.52,3.15-1.77,4.41-.66l-1.48,1.48c-.49-.35-1.16-.19-1.74.39s-.72,1.26-.32,1.66.81.28,1.55-.2l1.18-.78c1.53-1,2.64-1,3.6-.07,1.28,1.27,1,3.12-.6,4.76s-3.3,1.92-4.56.82l1.54-1.55c.53.34,1.19.16,1.85-.49s.78-1.33.37-1.74-.77-.28-1.57.24l-1.15.74c-1.44.93-2.66.91-3.63-.06C1100.19,920.25,1100.4,918.5,1102,916.93Z" style="fill:#fff"/></g></svg>