<svg xmlns="http://www.w3.org/2000/svg" viewBox="0 0 675.35 410.38"><rect x="153.24" y="316.71" width="7.99" height="17.91" style="fill:#8c4dfb"/><rect x="162.2" y="330.57" width="7.99" height="4.04" style="fill:#ffff5c"/><rect x="171.16" y="322.48" width="7.99" height="12.13" style="fill:#00cc70"/><rect x="62.6" y="334.04" width="7.99" height="0.58" style="fill:#8c4dfb"/><rect x="80.52" y="334.04" width="7.99" height="0.58" style="fill:#00cc70"/><rect x="334.53" y="286.66" width="7.99" height="47.96" style="fill:#8c4dfb"/><rect x="343.49" y="312.08" width="7.99" height="22.53" style="fill:#ffff5c"/><rect x="352.45" y="286.08" width="7.99" height="48.53" style="fill:#00cc70"/><rect x="561.14" y="167.64" width="7.99" height="166.98" style="fill:#8c4dfb"/><rect x="570.1" y="253.73" width="7.99" height="80.89" style="fill:#ffff5c"/><rect x="579.06" y="139.33" width="7.99" height="195.29" style="fill:#00cc70"/><rect x="515.82" y="200.57" width="7.99" height="134.04" style="fill:#8c4dfb"/><rect x="524.78" y="274.53" width="7.99" height="60.09" style="fill:#ffff5c"/><rect x="533.73" y="172.84" width="7.99" height="161.78" style="fill:#00cc70"/><rect x="425.17" y="162.44" width="7.99" height="172.18" style="fill:#8c4dfb"/><rect x="434.13" y="286.66" width="7.99" height="47.96" style="fill:#ffff5c"/><rect x="443.09" y="169.37" width="7.99" height="165.24" style="fill:#00cc70"/><rect x="289.21" y="278.57" width="7.99" height="56.04" style="fill:#8c4dfb"/><rect x="298.17" y="312.08" width="7.99" height="22.53" style="fill:#ffff5c"/><rect x="307.12" y="278" width="7.99" height="56.62" style="fill:#00cc70"/><rect x="606.46" y="91.95" width="7.99" height="242.67" style="fill:#8c4dfb"/><rect x="615.42" y="211.55" width="7.99" height="123.07" style="fill:#ffff5c"/><rect x="624.38" y="115.64" width="7.99" height="218.98" style="fill:#00cc70"/><rect x="470.5" y="206.35" width="7.99" height="128.27" style="fill:#8c4dfb"/><rect x="479.45" y="279.73" width="7.99" height="54.89" style="fill:#ffff5c"/><rect x="488.41" y="190.17" width="7.99" height="144.44" style="fill:#00cc70"/><rect x="107.92" y="330.57" width="7.99" height="4.04" style="fill:#8c4dfb"/><rect x="116.88" y="332.31" width="7.99" height="2.31" style="fill:#ffff5c"/><rect x="125.84" y="332.31" width="7.99" height="2.31" style="fill:#00cc70"/><rect x="198.56" y="318.44" width="7.99" height="16.18" style="fill:#8c4dfb"/><rect x="207.52" y="329.42" width="7.99" height="5.2" style="fill:#ffff5c"/><rect x="216.48" y="319.02" width="7.99" height="15.6" style="fill:#00cc70"/><rect x="243.89" y="298.8" width="7.99" height="35.82" style="fill:#8c4dfb"/><rect x="252.84" y="319.02" width="7.99" height="15.6" style="fill:#ffff5c"/><rect x="261.8" y="297.06" width="7.99" height="37.56" style="fill:#00cc70"/><rect x="379.85" y="238.71" width="7.99" height="95.91" style="fill:#8c4dfb"/><rect x="388.81" y="308.04" width="7.99" height="26.58" style="fill:#ffff5c"/><rect x="397.77" y="245.06" width="7.99" height="89.56" style="fill:#00cc70"/><rect x="44.65" y="334.62" width="606.67" height="1" style="fill:#fff"/><rect x="75.05" y="334.62" width="1" height="6" style="fill:#fff"/><path d="M51.69,368.19a.86.86,0,1,1,1.13-.08A.75.75,0,0,1,51.69,368.19Zm3.3,4.86-.71-.71.92-.92-1.59-1.59-.84.85-.71-.72,1.76-1.76,2.3,2.29.85-.84.71.71Z" style="fill:#fff"/><path d="M58.38,365.87c-.37-.29-.64-.29-.91,0s-.22.75.28,1.25l.16.16c.5.49.94.59,1.25.28s.29-.52,0-.88l.93-.93a1.68,1.68,0,0,1-.22,2.55,1.83,1.83,0,0,1-2.89,0l-.27-.27a1.83,1.83,0,0,1,0-2.89,1.7,1.7,0,0,1,2.59-.19Z" style="fill:#fff"/><path d="M60.47,365l-.47-.48a2.06,2.06,0,0,1,2.9-2.9l.47.47a2.06,2.06,0,0,1-2.9,2.91Zm.49-1.39.42.42c.4.4.84.45,1.16.13s.27-.76-.13-1.16l-.42-.42c-.4-.39-.84-.44-1.16-.13S60.57,363.26,61,363.65Z" style="fill:#fff"/><path d="M62.18,359.84l.93-.93.49.49,0,0a1.23,1.23,0,0,1,.31-1.43,1.36,1.36,0,0,1,2.14.13l2,1.95-1,1-1.73-1.74c-.39-.38-.72-.42-1-.11a.71.71,0,0,0,.09,1.07l1.73,1.72-1,1Z" style="fill:#fff"/><path d="M69.67,360.43l-.82-.81,2.81-2.81.82.81Z" style="fill:#fff"/><path d="M73.62,354.59a2.09,2.09,0,0,1-3.12.12,3.53,3.53,0,0,1-.92-2.07c-.07-.47-.19-1.44-.21-1.78l1.11-1.11.29,2.12a3.12,3.12,0,0,0,.1.53l.07-.06a1.25,1.25,0,0,1,.39-.83,1.69,1.69,0,0,1,2.45.08A2.1,2.1,0,0,1,73.62,354.59Zm-.8-2a.87.87,0,0,0-1.23,1.23.87.87,0,0,0,1.23-1.23Z" style="fill:#fff"/><path d="M76.41,350.26,74.69,352l-.76-.75-1.38-3.55,1-1,1.37,3.43.06.06.71-.7-.91-.91.87-.88.94.93.48-.48.73.74-.46.46L78,350l-.93.94Z" style="fill:#fff"/><rect x="120.38" y="334.62" width="1" height="6" style="fill:#fff"/><path d="M86.54,381.28l.93.94,1.06-1.06.71.72-1,1,1.29,1.3a.37.37,0,0,0,.56,0l.69-.68.7.7-.77.77c-.87.87-1.41.92-2.15.18l-1.28-1.28-.77.77-.71-.71.77-.77-.93-.94Z" style="fill:#fff"/><path d="M94.19,379.67a1.75,1.75,0,0,1-.41,2.33,1.79,1.79,0,0,1-2.78.1l-.5-.5a1.85,1.85,0,0,1,.13-2.76,1.79,1.79,0,0,1,2.66-.06l.49.49-1.87,1.87.18.19a.68.68,0,0,0,1,0,.67.67,0,0,0,.2-.76Zm-2.83.92,1-1a.68.68,0,1,0-1,1Z" style="fill:#fff"/><path d="M96.1,377.69l.45,1.4-1,1L95,377.71l-2.44-.63L93.62,376l1.38.5,0-.05-.49-1.39,1-1,.58,2.41,2.43.61-1,1-1.4-.44Z" style="fill:#fff"/><path d="M96.82,371l.93.94,1.06-1.06.71.71-1,1,1.29,1.3a.37.37,0,0,0,.56,0l.69-.68.7.7-.77.77c-.87.87-1.41.91-2.15.17l-1.27-1.27-.78.77-.71-.71.77-.77-.93-.94Z" style="fill:#fff"/><path d="M105.36,370.28l-.93.93-.49-.49,0,0a1.23,1.23,0,0,1-.31,1.43,1.37,1.37,0,0,1-2.15-.13l-1.94-1.95,1-1,1.73,1.74c.38.38.72.42,1,.11a.71.71,0,0,0-.1-1.07l-1.72-1.72,1-1Z" style="fill:#fff"/><path d="M106.7,367.64l.83-.83.65.65-2.29,2.29-.65-.65.55-.55-1.72-1.71-.6.6-.65-.65,1.52-1.52.78.77.16-.16c-.48-.77-.45-1.27.11-1.82a1.71,1.71,0,0,1,.49-.37l1,1a2.07,2.07,0,0,0-.59.42c-.75.75-.82,1.3-.24,1.88Z" style="fill:#fff"/><path d="M111.32,362.54a1.73,1.73,0,0,1-.41,2.32,1.78,1.78,0,0,1-2.78.1l-.5-.5a1.84,1.84,0,0,1,.13-2.75,1.79,1.79,0,0,1,2.66-.06l.49.49L109,364l.19.19a.68.68,0,0,0,1,0,.65.65,0,0,0,.2-.76Zm-2.83.92,1-1a.69.69,0,1,0-1,1Z" style="fill:#fff"/><path d="M111.1,358.34c.81-.8,1.61-.93,2.23-.34l-.89.89a.5.5,0,0,0-.66.13c-.21.22-.26.46-.12.6s.31.11.59-.08l.59-.4c.76-.51,1.29-.52,1.76-.05.64.64.52,1.56-.32,2.4s-1.67,1-2.3.44l.94-.94c.19.14.44.07.69-.18s.28-.47.14-.62-.28-.09-.6.12l-.55.36a1.31,1.31,0,0,1-1.8,0C110.18,360,110.3,359.15,111.1,358.34Z" style="fill:#fff"/><path d="M117.26,360.43l-.82-.81,2.82-2.81.81.81Z" style="fill:#fff"/><path d="M120.82,351.31l.5.5c.84.85.93,1.68.24,2.37a1,1,0,0,1-1.39.21l-.06.06,1.54,1.53-1,1-4-4,1-1,.56.55.06-.06a1,1,0,0,1,.2-1.4C119.14,350.38,120,350.46,120.82,351.31Zm-1.95,1.94.54.54a.68.68,0,1,0,1-1l-.53-.53a.69.69,0,1,0-1,1Z" style="fill:#fff"/><path d="M122,347.58l1.07-1.07.22,2.36,2.87.58-1.1,1.1-1.93-.4,0,.41.94.94-.95,1L119,348.32l.95-1,2.26,2.26,0-.06Z" style="fill:#fff"/><rect x="165.7" y="334.62" width="1" height="6" style="fill:#fff"/><path d="M141.16,371.62a.86.86,0,1,1,1.13-.08A.75.75,0,0,1,141.16,371.62Zm3.3,4.86-.71-.71.92-.93-1.59-1.58-.84.84-.72-.71,1.77-1.77,2.3,2.3.85-.85.71.72Z" style="fill:#fff"/><path d="M147.85,369.29c-.37-.29-.64-.28-.92,0s-.21.76.29,1.25l.16.16c.5.5.94.6,1.25.29a.57.57,0,0,0,0-.88l.94-.93a1.68,1.68,0,0,1-.22,2.55,1.84,1.84,0,0,1-2.9,0l-.27-.27a1.82,1.82,0,0,1,0-2.89,1.69,1.69,0,0,1,2.58-.19Z" style="fill:#fff"/><path d="M149.94,368.46l-.48-.47a2.06,2.06,0,0,1,2.91-2.9l.47.47a2.06,2.06,0,0,1-2.9,2.9Zm.49-1.38.42.42c.39.39.84.45,1.16.13a.79.79,0,0,0-.13-1.16l-.42-.42c-.4-.4-.84-.45-1.16-.13S150,366.68,150.43,367.08Z" style="fill:#fff"/><path d="M151.64,363.27l.93-.93.49.49.06-.05a1.24,1.24,0,0,1,.3-1.43,1.36,1.36,0,0,1,2.15.13l2,1.94-1,1-1.74-1.73c-.38-.39-.71-.42-1-.11a.7.7,0,0,0,.09,1.07l1.72,1.72-1,.95Z" style="fill:#fff"/><path d="M159.14,363.86l-.82-.82,2.81-2.81.82.82Z" style="fill:#fff"/><path d="M160.27,358.37l1-1a.75.75,0,0,0,1-.13.79.79,0,0,0,0-1.19.8.8,0,0,0-1.2,0,.79.79,0,0,0-.21.82l-1,1-2.12-2.47,2.58-2.58.78.78-1.8,1.79.84,1,.06-.05a1.29,1.29,0,0,1,.44-1.24,1.68,1.68,0,0,1,2.49.06,2,2,0,0,1-.1,3A1.88,1.88,0,0,1,160.27,358.37Z" style="fill:#fff"/><path d="M165.05,355.89l-.77-.77,1-1L163,351.91l0,0-.29,1.56-.85-.86.3-1.65,1-1,3.14,3.14.92-.93.78.77Z" style="fill:#fff"/><path d="M165.8,347.17c.87-.87,1.93-1,2.62-.3.44.44.57,1.09.49,2.38l-.08,1.21,0,.05,1.65-1.64.77.77-3,3-.66-.66.1-2.37c0-1.09,0-1.45-.24-1.68a.69.69,0,0,0-1,.05.76.76,0,0,0,0,1.12v0l-.9.91,0,0A1.9,1.9,0,0,1,165.8,347.17Z" style="fill:#fff"/><rect x="211.02" y="334.62" width="1" height="6" style="fill:#fff"/><path d="M169.19,388.14l.94.93,1.05-1.05.71.71-1,1,1.29,1.29a.36.36,0,0,0,.56,0l.69-.69.7.71-.77.76c-.87.87-1.41.92-2.15.18l-1.27-1.27-.78.77-.71-.71.77-.78-.93-.93Z" style="fill:#fff"/><path d="M176.84,386.53a1.74,1.74,0,0,1-.41,2.32,1.78,1.78,0,0,1-2.78.1l-.5-.5a1.84,1.84,0,0,1,.13-2.75,1.78,1.78,0,0,1,2.66-.06l.49.49L174.56,388l.18.18a.68.68,0,0,0,1,0,.67.67,0,0,0,.2-.76Zm-2.83.92,1-1a.68.68,0,0,0-1-.09A.69.69,0,0,0,174,387.45Z" style="fill:#fff"/><path d="M178.76,384.54l.44,1.41-1,1-.58-2.39-2.44-.62,1.09-1.09,1.38.49,0,0-.49-1.38,1-1,.58,2.4,2.43.61-1,1.05-1.41-.44Z" style="fill:#fff"/><path d="M179.47,377.86l.94.93,1.05-1.05.71.71-1,1,1.29,1.29a.36.36,0,0,0,.56,0l.69-.69.7.7-.77.77c-.87.87-1.41.92-2.15.18l-1.27-1.28-.78.78-.71-.71.77-.78-.93-.93Z" style="fill:#fff"/><path d="M188,377.13l-.93.93-.49-.49-.05.05a1.23,1.23,0,0,1-.31,1.43,1.37,1.37,0,0,1-2.15-.12L182.14,377l1-1,1.73,1.73c.38.39.72.42,1,.11s.26-.7-.1-1.06L184,375.07l1-.95Z" style="fill:#fff"/><path d="M189.35,374.5l.83-.84.65.65-2.29,2.29-.65-.65.55-.54-1.72-1.72-.6.6-.65-.65,1.52-1.52.78.78.16-.16c-.48-.78-.45-1.27.11-1.83a1.91,1.91,0,0,1,.49-.37l1,1a2,2,0,0,0-.59.42c-.75.74-.82,1.3-.24,1.88Z" style="fill:#fff"/><path d="M194,369.39a1.73,1.73,0,0,1-.4,2.33,1.8,1.8,0,0,1-2.79.1l-.5-.5a1.85,1.85,0,0,1,.13-2.76,1.8,1.8,0,0,1,2.67-.06l.48.49-1.87,1.87.19.19a.68.68,0,0,0,1,0,.66.66,0,0,0,.2-.76Zm-2.83.92,1-1a.69.69,0,1,0-1,1Z" style="fill:#fff"/><path d="M193.75,365.2c.81-.81,1.61-.94,2.23-.35l-.89.89c-.18-.14-.44-.09-.66.14s-.26.46-.12.6.31.1.59-.08l.59-.41c.76-.51,1.29-.52,1.76-.05.64.64.52,1.57-.32,2.41s-1.67,1-2.3.43l.94-.93c.19.13.44.07.69-.19s.28-.47.14-.61-.28-.1-.6.12l-.55.36a1.32,1.32,0,0,1-1.8,0C192.83,366.88,193,366,193.75,365.2Z" style="fill:#fff"/><path d="M199.91,367.29l-.81-.82,2.81-2.81.81.82Z" style="fill:#fff"/><path d="M203.47,358.17l.5.49c.85.85.93,1.68.24,2.37a1,1,0,0,1-1.38.21l-.06.06,1.53,1.54-1,1-4-4,1-1,.56.55.06-.06a1,1,0,0,1,.2-1.4C201.79,357.23,202.62,357.32,203.47,358.17Zm-1.95,1.94.54.53a.68.68,0,1,0,1-1l-.53-.54a.69.69,0,1,0-1,1Z" style="fill:#fff"/><path d="M204.68,354.44l1.07-1.08.22,2.37,2.87.57-1.1,1.11-1.93-.4,0,.4.95.95-1,.95-4.14-4.14.95-.95,2.26,2.25,0-.05Z" style="fill:#fff"/><path d="M207,354.2c-1.29-1.29-1.46-2.61-.45-3.62s2.32-.84,3.62.45,1.46,2.61.45,3.62S208.33,355.5,207,354.2Zm.86-1.06.52-1.8c-.44-.24-.81-.25-1.07,0S207.16,352.36,207.89,353.14Zm1.45-1-.52,1.78c.44.25.81.25,1.06,0S210.08,352.88,209.34,352.11Z" style="fill:#fff"/><path d="M212.68,352.47l-.77-.78,1-1-2.24-2.24,0,0-.29,1.56-.85-.86.3-1.65,1-1,3.14,3.13.92-.92.78.77Z" style="fill:#fff"/><rect x="256.34" y="334.62" width="1" height="6" style="fill:#fff"/><path d="M213.55,388.14l.93.93,1.06-1.05.71.71-1,1,1.29,1.29a.36.36,0,0,0,.56,0l.68-.69.7.71-.76.76c-.87.87-1.41.92-2.15.18l-1.28-1.27-.77.77-.71-.71.77-.78-.93-.93Z" style="fill:#fff"/><path d="M221.2,386.53a1.74,1.74,0,0,1-.41,2.32,1.79,1.79,0,0,1-2.79.1l-.5-.5a1.85,1.85,0,0,1,.13-2.75,1.79,1.79,0,0,1,2.67-.06l.48.49L218.91,388l.19.18a.67.67,0,0,0,1,0,.65.65,0,0,0,.2-.76Zm-2.84.92,1-1c-.35-.35-.73-.39-1-.09A.68.68,0,0,0,218.36,387.45Z" style="fill:#fff"/><path d="M223.11,384.54l.44,1.41-1,1-.58-2.39-2.44-.62,1.1-1.09,1.38.49.05,0-.49-1.38,1-1,.58,2.4,2.44.61-1.05,1.05-1.41-.44Z" style="fill:#fff"/><path d="M223.83,377.86l.93.93,1.06-1.05.71.71-1,1,1.29,1.29a.36.36,0,0,0,.56,0l.68-.69.71.7-.77.77c-.87.87-1.41.92-2.15.18l-1.28-1.28-.77.78-.71-.71.77-.78-.93-.93Z" style="fill:#fff"/><path d="M232.37,377.13l-.93.93-.49-.49-.06.06a1.23,1.23,0,0,1-.3,1.42,1.37,1.37,0,0,1-2.15-.12L226.49,377l1-1,1.74,1.73c.38.39.71.42,1,.11s.26-.7-.1-1.06l-1.72-1.73.95-.95Z" style="fill:#fff"/><path d="M233.7,374.5l.84-.83.65.64-2.29,2.29-.65-.65.54-.54-1.71-1.72-.6.6-.65-.65,1.52-1.52.78.78.15-.16c-.47-.78-.44-1.27.12-1.83a1.76,1.76,0,0,1,.48-.36l1,1a2.05,2.05,0,0,0-.6.42c-.74.74-.82,1.3-.24,1.88Z" style="fill:#fff"/><path d="M238.33,369.39a1.75,1.75,0,0,1-.41,2.33,1.79,1.79,0,0,1-2.78.1l-.5-.5a1.85,1.85,0,0,1,.13-2.76,1.79,1.79,0,0,1,2.66-.06l.49.49-1.87,1.87.18.19a.68.68,0,0,0,1,0,.67.67,0,0,0,.2-.76Zm-2.83.92,1-1a.69.69,0,0,0-1-.08A.68.68,0,0,0,235.5,370.31Z" style="fill:#fff"/><path d="M238.11,365.2c.81-.81,1.61-.94,2.23-.35l-.9.89c-.18-.14-.43-.09-.66.14s-.25.46-.11.6.31.1.58-.08l.6-.41c.75-.51,1.29-.52,1.76-.05.64.64.52,1.57-.32,2.41s-1.67,1-2.3.43l.93-.93c.2.13.44.07.7-.19s.28-.47.14-.61-.28-.1-.6.12l-.56.36a1.3,1.3,0,0,1-1.79,0C237.19,366.88,237.3,366,238.11,365.2Z" style="fill:#fff"/><path d="M244.27,367.29l-.82-.82,2.81-2.81.82.82Z" style="fill:#fff"/><path d="M247.83,358.17l.49.49c.85.85.94,1.68.25,2.37a1,1,0,0,1-1.39.21l-.06.06,1.54,1.54-1,1-4-4,1-1,.55.55.06-.06a1,1,0,0,1,.21-1.4C246.15,357.23,247,357.32,247.83,358.17Zm-2,1.94.54.53a.64.64,0,0,0,1,.05.65.65,0,0,0,0-1l-.54-.54a.64.64,0,0,0-1,0A.65.65,0,0,0,245.88,360.11Z" style="fill:#fff"/><path d="M249,354.44l1.07-1.08.22,2.37,2.87.58-1.11,1.1-1.92-.4,0,.4.94.95-.95.95L246,355.17l1-.95,2.25,2.25.06-.05Z" style="fill:#fff"/><path d="M251.39,354.2c-1.3-1.29-1.46-2.61-.45-3.62s2.32-.84,3.62.45,1.45,2.61.45,3.62S252.68,355.5,251.39,354.2Zm.86-1.06.52-1.8c-.45-.24-.81-.25-1.07,0S251.51,352.36,252.25,353.14Zm1.45-1-.52,1.78c.44.25.81.25,1.06,0S254.43,352.88,253.7,352.11Z" style="fill:#fff"/><path d="M254.36,347.17a1.79,1.79,0,0,1,2.62-.3c.44.44.57,1.09.49,2.38l-.08,1.21.05.05,1.64-1.64.78.77-3,3-.67-.66.11-2.37c0-1.09,0-1.45-.24-1.68a.69.69,0,0,0-1,.05.76.76,0,0,0,0,1.12v0l-.91.91v0A1.89,1.89,0,0,1,254.36,347.17Z" style="fill:#fff"/><rect x="301.66" y="334.62" width="1" height="6" style="fill:#fff"/><path d="M251.45,396c.81-.81,1.61-.93,2.23-.35l-.89.9c-.19-.15-.44-.09-.66.13s-.26.46-.12.6.31.1.58-.08l.6-.4c.75-.51,1.29-.53,1.76-.06.64.65.52,1.57-.32,2.41s-1.67,1-2.3.43l.93-.93c.2.14.44.07.7-.18s.28-.48.14-.62-.28-.1-.6.12l-.55.36a1.31,1.31,0,0,1-1.8,0C250.53,397.72,250.64,396.85,251.45,396Z" style="fill:#fff"/><path d="M256.6,393.28c-.37-.29-.63-.29-.91,0s-.21.75.28,1.25l.16.16c.5.5.94.6,1.25.29a.58.58,0,0,0,0-.88l.93-.94a1.67,1.67,0,0,1-.22,2.55,1.82,1.82,0,0,1-2.89,0l-.27-.27a1.83,1.83,0,0,1,0-2.89,1.7,1.7,0,0,1,2.59-.19Z" style="fill:#fff"/><path d="M260.75,391.63l.83-.83.65.65L260,393.74l-.65-.65.54-.55-1.71-1.71-.6.6-.65-.65,1.52-1.52.77.77.16-.16a1.27,1.27,0,0,1,.12-1.83,2,2,0,0,1,.48-.36l1,1a2.11,2.11,0,0,0-.6.42c-.75.75-.82,1.3-.24,1.88Z" style="fill:#fff"/><path d="M265.38,386.53a1.74,1.74,0,0,1-.41,2.32,1.78,1.78,0,0,1-2.78.1l-.5-.5a1.84,1.84,0,0,1,.12-2.75,1.79,1.79,0,0,1,2.67-.06l.49.49L263.1,388l.18.18a.68.68,0,0,0,1,0,.67.67,0,0,0,.2-.76Zm-2.83.92.95-1a.67.67,0,0,0-1-.09A.69.69,0,0,0,262.55,387.45Z" style="fill:#fff"/><path d="M268.81,383.1a1.75,1.75,0,0,1-.41,2.33,1.8,1.8,0,0,1-2.79.09l-.5-.49a1.86,1.86,0,0,1,.13-2.76,1.8,1.8,0,0,1,2.67-.06l.48.49-1.87,1.87.19.19a.68.68,0,0,0,1,0,.65.65,0,0,0,.2-.76ZM266,384l1-1a.69.69,0,1,0-1,1Z" style="fill:#fff"/><path d="M267.25,380.4l.93-.93.49.49.05,0a1.23,1.23,0,0,1,.31-1.43,1.38,1.38,0,0,1,2.15.13l1.94,1.95-.95,1-1.74-1.74c-.38-.38-.72-.42-1-.1s-.26.7.1,1.06l1.72,1.72-1,1Z" style="fill:#fff"/><path d="M272,375.48c.81-.81,1.61-.93,2.23-.35l-.89.89c-.18-.14-.44-.09-.66.14s-.26.46-.12.6.31.1.59-.08l.59-.41c.76-.51,1.29-.52,1.76,0,.64.64.52,1.57-.32,2.41s-1.67,1-2.3.43l.94-.93c.19.13.44.07.69-.19s.28-.47.14-.61-.28-.1-.6.12l-.55.36a1.32,1.32,0,0,1-1.8,0C271.09,377.16,271.2,376.29,272,375.48Z" style="fill:#fff"/><path d="M273,372.44l.94-.94,1.63,1.63.05-.05a1.26,1.26,0,0,1,.33-1.45,1.38,1.38,0,0,1,2.15.12l1.94,1.94-1,.95-1.72-1.72c-.38-.38-.73-.41-1-.1a.72.72,0,0,0,.07,1.1l1.71,1.7-1,1Z" style="fill:#fff"/><path d="M279.25,371.89l-.47-.47a2.06,2.06,0,0,1,2.9-2.91l.48.48a2.06,2.06,0,0,1-2.91,2.9Zm.49-1.39.43.43c.39.39.84.44,1.15.12s.27-.76-.13-1.15l-.42-.43a.78.78,0,0,0-1.16-.12C279.3,369.66,279.35,370.11,279.74,370.5Z" style="fill:#fff"/><path d="M281.72,364.15l.93.93,1.06-1.05.71.71-1,1,1.29,1.29a.36.36,0,0,0,.56,0l.68-.68.71.7-.77.76c-.87.88-1.41.92-2.15.18l-1.28-1.27-.77.77-.71-.71.77-.78-.93-.93Z" style="fill:#fff"/><path d="M288.45,367.29l-.82-.82,2.82-2.81.81.82Z" style="fill:#fff"/><path d="M291,363.18l.93-.94c.21.13.51,0,.79-.25s.38-.7.07-1l-.67-.66-.06.06a1.18,1.18,0,0,1-.28,1.48c-.7.69-1.55.61-2.39-.23l-.41-.41c-.85-.85-.91-1.7-.17-2.44a1.14,1.14,0,0,1,1.44-.26l.06-.06-.54-.54.94-.94,3,3c.7.7.55,1.73-.38,2.66S291.57,363.69,291,363.18Zm.41-2.52a.68.68,0,0,0,0-1l-.45-.44a.72.72,0,1,0-1,1l.45.45A.67.67,0,0,0,291.38,360.66Z" style="fill:#fff"/><path d="M293.38,358.57c-.55-.55-.46-1.28.27-2.13l.57-.66-.22-.23a.46.46,0,0,0-.69.06.56.56,0,0,0-.16.65l-.93.93c-.53-.64-.37-1.53.42-2.31s1.65-.91,2.33-.24l2,2-.9.9-.37-.37-.09.08a1.37,1.37,0,0,1-2.26,1.28Zm1.53-2.1-.14-.14-.4.47c-.27.32-.31.57-.13.76s.42.14.64-.08A.67.67,0,0,0,294.91,356.47Z" style="fill:#fff"/><path d="M300.69,353l-.8.8-2.09-2.09a.28.28,0,1,0-.39.39l2.09,2.09-.78.78-2.09-2.09a.28.28,0,1,0-.4.4l2.09,2.09-.79.79-3-3,.82-.83.5.5.1-.1a.81.81,0,0,1,0-1.14.77.77,0,0,1,1.05,0l.11-.1a.76.76,0,0,1,0-1.06c.33-.33.77-.28,1.2.15Z" style="fill:#fff"/><path d="M303.08,348.83a1.75,1.75,0,0,1-.41,2.33,1.8,1.8,0,0,1-2.79.1l-.5-.5a1.86,1.86,0,0,1,.13-2.76,1.8,1.8,0,0,1,2.67-.06l.48.49-1.87,1.87.19.19a.67.67,0,0,0,1,0,.65.65,0,0,0,.2-.76Zm-2.84.92,1-1a.69.69,0,1,0-1,1Z" style="fill:#fff"/><rect x="346.98" y="334.62" width="1" height="6" style="fill:#fff"/><path d="M316.59,382.16l.49.49c.85.85.94,1.68.25,2.37a1,1,0,0,1-1.39.21l-.06.06,1.54,1.53-1,1-4-4,1-1,.55.55.06-.06a1,1,0,0,1,.21-1.4C314.91,381.22,315.74,381.31,316.59,382.16Zm-1.95,1.93.54.54a.68.68,0,1,0,1-1l-.54-.54a.68.68,0,1,0-1,1Z" style="fill:#fff"/><path d="M314.67,379.29l.94-.94,1.63,1.63.05-.05a1.25,1.25,0,0,1,.33-1.44,1.37,1.37,0,0,1,2.15.11l1.94,1.94-1,1L319,379.78c-.38-.38-.73-.42-1-.1a.71.71,0,0,0,.07,1.09l1.71,1.71-1,.95Z" style="fill:#fff"/><path d="M321,378.74l-.48-.47a2.06,2.06,0,0,1,2.9-2.9l.48.47a2.06,2.06,0,0,1-2.9,2.9Zm.48-1.38.43.42c.39.39.84.45,1.15.13a.78.78,0,0,0-.12-1.16l-.43-.42c-.39-.4-.84-.45-1.15-.13S321.06,377,321.45,377.36Z" style="fill:#fff"/><path d="M323.43,371l.94.94,1.05-1.06.71.72-1,1,1.29,1.3a.37.37,0,0,0,.56,0l.69-.68.7.7-.77.77c-.87.87-1.41.91-2.15.18l-1.27-1.28-.78.77-.71-.71.77-.77-.93-.94Z" style="fill:#fff"/><path d="M327.82,371.89l-.47-.47a2.06,2.06,0,0,1,2.9-2.91l.47.48a2.06,2.06,0,0,1-2.9,2.9Zm.49-1.39.42.43a.79.79,0,0,0,1.16.13c.32-.32.26-.77-.13-1.16l-.42-.43c-.4-.39-.84-.44-1.16-.12S327.91,370.11,328.31,370.5Z" style="fill:#fff"/><path d="M333.59,370.72l-.82-.82,2.81-2.81.82.81Z" style="fill:#fff"/><path d="M334.93,361.29l1.07-1.07.22,2.36,2.87.58-1.1,1.1-1.93-.4,0,.41,1,.94-1,1L331.94,362l.95-.95,2.26,2.25.05-.05Z" style="fill:#fff"/><path d="M338.1,361.61l-.47-.48a2.06,2.06,0,0,1,2.9-2.9l.47.48a2.06,2.06,0,0,1-2.9,2.9Zm.49-1.39.42.43c.4.39.84.44,1.16.12s.26-.76-.13-1.15l-.42-.43c-.4-.39-.84-.44-1.16-.12S338.19,359.83,338.59,360.22Z" style="fill:#fff"/><path d="M341.48,358.24l-.49-.49c-.85-.85-.94-1.69-.25-2.37a1,1,0,0,1,1.39-.21l.06-.06-1.67-1.67,1-1,4.14,4.14-1,1-.55-.55-.06.06a1,1,0,0,1-.21,1.4C343.17,359.18,342.33,359.09,341.48,358.24Zm1.95-1.94-.53-.53a.69.69,0,1,0-1,1l.54.54a.69.69,0,1,0,1-1Z" style="fill:#fff"/><path d="M345.38,355.14c-.55-.55-.46-1.28.26-2.12l.57-.67-.22-.22a.47.47,0,0,0-.69.05.58.58,0,0,0-.16.65l-.93.93c-.53-.64-.37-1.52.42-2.31s1.66-.91,2.33-.23l2,2-.91.91-.37-.38-.08.08a1.3,1.3,0,0,1-.4,1.24A1.25,1.25,0,0,1,345.38,355.14Zm1.52-2.1-.14-.14-.4.47c-.27.32-.31.57-.12.76s.42.14.64-.08A.67.67,0,0,0,346.9,353Z" style="fill:#fff"/><path d="M348.64,347.58l1.07-1.07.22,2.36,2.87.58-1.1,1.1-1.93-.4,0,.41.94.94-.95,1-4.14-4.14,1-1,2.26,2.26.05-.06Z" style="fill:#fff"/><rect x="392.31" y="334.62" width="1" height="6" style="fill:#fff"/><path d="M343.52,395l.93.94,1.05-1.06.72.71-1,1,1.29,1.29a.36.36,0,0,0,.56,0l.68-.68.7.7-.76.77c-.88.87-1.41.91-2.15.17l-1.28-1.27-.77.77-.72-.71.78-.77-.94-.94Z" style="fill:#fff"/><path d="M351.17,393.38a1.75,1.75,0,0,1-.41,2.33,1.79,1.79,0,0,1-2.79.09l-.5-.49a1.86,1.86,0,0,1,.13-2.76,1.8,1.8,0,0,1,2.67-.06l.48.49-1.87,1.87.19.19a.67.67,0,0,0,1,0,.65.65,0,0,0,.2-.76Zm-2.84.92,1-1a.69.69,0,1,0-1,1Z" style="fill:#fff"/><path d="M353.08,391.39l.44,1.41-1,1-.58-2.38-2.44-.63,1.09-1.09,1.39.5,0-.05-.5-1.39,1-1,.58,2.41,2.44.6-1,1-1.41-.44Z" style="fill:#fff"/><path d="M353.8,384.71l.93.93,1-1.05.72.71-1,1,1.29,1.29a.36.36,0,0,0,.56,0l.68-.68.7.7-.76.76c-.87.88-1.41.92-2.15.18l-1.28-1.27-.77.77-.71-.71.77-.77-.93-.94Z" style="fill:#fff"/><path d="M362.34,384l-.93.93-.5-.49-.05.05a1.25,1.25,0,0,1-.3,1.43,1.38,1.38,0,0,1-2.15-.13l-2-1.95,1-1,1.73,1.74c.39.38.72.42,1,.1a.7.7,0,0,0-.09-1.06l-1.72-1.72.95-1Z" style="fill:#fff"/><path d="M363.67,381.35l.83-.83.65.65-2.28,2.29-.65-.65.54-.55-1.71-1.71-.6.6-.65-.65,1.52-1.53.77.78.16-.16a1.27,1.27,0,0,1,.12-1.83,2,2,0,0,1,.48-.36l1,1a2.26,2.26,0,0,0-.6.42c-.75.75-.82,1.3-.24,1.88Z" style="fill:#fff"/><path d="M368.3,376.25a1.74,1.74,0,0,1-.41,2.32,1.78,1.78,0,0,1-2.78.1l-.5-.5a1.84,1.84,0,0,1,.13-2.75,1.78,1.78,0,0,1,2.66-.06l.49.48L366,377.72l.18.18a.68.68,0,0,0,1,0,.67.67,0,0,0,.2-.76Zm-2.83.92,1-1a.68.68,0,0,0-1-.09A.69.69,0,0,0,365.47,377.17Z" style="fill:#fff"/><path d="M368.08,372.05c.81-.81,1.6-.93,2.23-.35l-.9.9c-.18-.15-.43-.09-.66.13s-.25.46-.11.6.31.1.58-.08l.6-.4c.75-.51,1.29-.53,1.76-.05.64.64.52,1.56-.32,2.4s-1.68,1-2.3.44l.93-.94c.2.14.44.07.7-.18s.28-.47.13-.62-.27-.1-.59.12l-.56.36a1.29,1.29,0,0,1-1.79,0C367.16,373.73,367.27,372.86,368.08,372.05Z" style="fill:#fff"/><path d="M374.24,374.14l-.82-.82,2.81-2.81.82.82Z" style="fill:#fff"/><path d="M377.8,365l.49.5c.85.84.94,1.68.25,2.37a1,1,0,0,1-1.39.2l-.06.06,1.54,1.54-1,1-4-4,1-1,.55.56.06-.06a1,1,0,0,1,.21-1.41C376.12,364.09,377,364.17,377.8,365ZM375.85,367l.53.54a.66.66,0,0,0,1,0,.65.65,0,0,0,0-1l-.54-.53a.68.68,0,1,0-1,1Z" style="fill:#fff"/><path d="M380.12,366.2l-.71-.71.9-.91-2.71-2.71-.83.82-.71-.71,1.78-1.78,3.43,3.42.83-.83.71.72Z" style="fill:#fff"/><path d="M382.6,362c-.55-.55-.46-1.28.26-2.12l.57-.66-.22-.23a.46.46,0,0,0-.69.06.58.58,0,0,0-.16.65l-.93.92c-.53-.63-.37-1.52.42-2.31s1.66-.91,2.33-.23l2,2-.91.9-.37-.37-.08.08a1.31,1.31,0,0,1-.4,1.24A1.25,1.25,0,0,1,382.6,362Zm1.52-2.1-.14-.13-.4.47c-.27.32-.31.57-.12.76s.42.13.64-.09A.67.67,0,0,0,384.12,359.89Z" style="fill:#fff"/><path d="M383.88,356.42l.93-.94.49.49.05-.05a1.23,1.23,0,0,1,.31-1.43,1.37,1.37,0,0,1,2.14.13l1.95,1.95-1,1-1.73-1.73c-.38-.39-.72-.42-1-.11s-.26.7.1,1.06l1.72,1.72-1,1Z" style="fill:#fff"/><path d="M388.07,350.44l.93.94,1.05-1.06.72.71-1,1,1.29,1.29a.36.36,0,0,0,.56,0l.68-.68.7.7-.76.77c-.87.87-1.41.91-2.15.17L388.78,353l-.77.77-.72-.71.78-.77-.94-.94Z" style="fill:#fff"/><path d="M392.07,348.06c.81-.81,1.6-.93,2.23-.34l-.9.89c-.18-.14-.43-.09-.66.13s-.26.46-.11.6.3.11.58-.08l.6-.4c.75-.51,1.29-.52,1.76-.05.64.64.52,1.56-.33,2.4s-1.67,1-2.29.44l.93-.94c.2.14.44.07.7-.18s.28-.47.13-.62-.27-.09-.6.12l-.55.36a1.29,1.29,0,0,1-1.79,0C391.15,349.74,391.26,348.87,392.07,348.06Z" style="fill:#fff"/><rect x="437.63" y="334.62" width="1" height="6" style="fill:#fff"/><path d="M422.53,365l.5.5c.85.84.93,1.68.24,2.37a1,1,0,0,1-1.39.2l-.05.06,1.53,1.54-1,1-4-4,1-1,.56.56.06-.06a1,1,0,0,1,.2-1.41C420.85,364.09,421.68,364.17,422.53,365ZM420.58,367l.54.54a.69.69,0,1,0,1-1l-.53-.53a.69.69,0,1,0-1,1Z" style="fill:#fff"/><path d="M421.76,363.27l.93-.93.49.49.05-.05a1.23,1.23,0,0,1,.31-1.43,1.35,1.35,0,0,1,2.14.13l1.95,1.94-1,1-1.73-1.73c-.38-.39-.72-.42-1-.11a.71.71,0,0,0,.1,1.07l1.72,1.72-1,.95Z" style="fill:#fff"/><path d="M428.35,363.18l.93-.94c.2.13.5,0,.78-.25s.39-.7.07-1l-.66-.66-.06.06a1.18,1.18,0,0,1-.29,1.48c-.69.69-1.55.61-2.39-.23l-.4-.41c-.85-.85-.92-1.7-.18-2.44a1.15,1.15,0,0,1,1.45-.26l.06-.06-.54-.54.93-.94,3,3c.7.7.55,1.73-.38,2.66S428.94,363.69,428.35,363.18Zm.41-2.52a.68.68,0,0,0,0-1l-.45-.44a.71.71,0,1,0-1,1l.44.45A.68.68,0,0,0,428.76,360.66Z" style="fill:#fff"/><path d="M428.41,354.48a.86.86,0,1,1,1.13-.08A.74.74,0,0,1,428.41,354.48Zm3.3,4.87-.71-.72.92-.92-1.59-1.58-.84.84-.72-.72,1.77-1.76,2.3,2.3.85-.85.71.71Z" style="fill:#fff"/><path d="M438.06,353l-.79.8-2.09-2.09a.29.29,0,0,0-.42,0,.28.28,0,0,0,0,.42l2.09,2.09-.78.78L434,352.87a.28.28,0,1,0-.39.4l2.09,2.09-.8.79-3-3,.83-.83.49.5.11-.1a.81.81,0,0,1,0-1.14c.26-.27.64-.26,1.05,0l.1-.1a.77.77,0,0,1,0-1.06c.34-.33.77-.28,1.2.15Z" style="fill:#fff"/><path d="M438.63,352.9l.93-.94c.2.13.5,0,.78-.25s.39-.7.07-1l-.66-.66-.06.06a1.18,1.18,0,0,1-.29,1.48c-.69.69-1.55.61-2.39-.23l-.4-.41c-.85-.85-.91-1.7-.18-2.44a1.15,1.15,0,0,1,1.45-.26l.06-.06-.54-.54.93-.94,3,3c.7.7.55,1.73-.38,2.66S439.22,353.41,438.63,352.9Zm.41-2.52a.68.68,0,0,0,0-1l-.45-.44a.71.71,0,1,0-1,1l.44.45A.68.68,0,0,0,439,350.38Z" style="fill:#fff"/><rect x="482.95" y="334.62" width="1" height="6" style="fill:#fff"/><path d="M436.16,391.56l.93.94,1.06-1.06.71.72-1,1,1.29,1.29a.36.36,0,0,0,.56,0l.69-.68.7.7-.77.77c-.87.87-1.41.92-2.15.18l-1.28-1.28-.77.78-.71-.72.77-.77-.93-.93Z" style="fill:#fff"/><path d="M443.81,390a1.75,1.75,0,0,1-.41,2.33,1.79,1.79,0,0,1-2.78.1l-.5-.5a1.84,1.84,0,0,1,.13-2.75,1.78,1.78,0,0,1,2.66-.06l.49.48-1.87,1.87.18.19a.68.68,0,0,0,1,0,.67.67,0,0,0,.2-.76Zm-2.83.92.95-.95a.67.67,0,0,0-1-.09A.68.68,0,0,0,441,390.87Z" style="fill:#fff"/><path d="M445.72,388l.45,1.4-1,1-.58-2.38-2.44-.63,1.09-1.09,1.38.5.05,0-.49-1.39,1-1,.58,2.4,2.43.61-1.05,1-1.4-.43Z" style="fill:#fff"/><path d="M446.44,381.28l.94.94,1.05-1.06.71.72-1,1,1.29,1.3a.37.37,0,0,0,.56,0l.69-.68.7.7-.77.77c-.87.87-1.41.92-2.15.18l-1.27-1.28-.78.77-.71-.71.77-.77-.93-.93Z" style="fill:#fff"/><path d="M455,380.56l-.93.93-.49-.49-.05.05a1.23,1.23,0,0,1-.31,1.43,1.37,1.37,0,0,1-2.15-.13l-1.94-2,1-.95,1.73,1.73c.38.38.72.42,1,.11a.71.71,0,0,0-.1-1.07L451,378.5l1-1Z" style="fill:#fff"/><path d="M456.32,377.92l.83-.83.65.65L455.51,380l-.65-.65.55-.55-1.72-1.71-.6.6-.65-.65,1.52-1.52.78.77.16-.16c-.48-.77-.45-1.27.11-1.82a1.91,1.91,0,0,1,.49-.37l1,1a1.85,1.85,0,0,0-.59.41c-.75.75-.82,1.3-.24,1.88Z" style="fill:#fff"/><path d="M460.94,372.82a1.74,1.74,0,0,1-.41,2.33,1.79,1.79,0,0,1-2.78.09l-.5-.49a1.85,1.85,0,0,1,.13-2.76,1.79,1.79,0,0,1,2.66-.06l.49.49-1.87,1.87.19.19a.68.68,0,0,0,1,0,.65.65,0,0,0,.2-.76Zm-2.83.92,1-1a.69.69,0,1,0-1,1Z" style="fill:#fff"/><path d="M460.72,368.63c.81-.81,1.61-.94,2.23-.35l-.89.89c-.18-.14-.44-.09-.66.14s-.26.45-.12.59.31.11.59-.08l.59-.4c.76-.51,1.29-.52,1.76-.05.64.64.52,1.56-.32,2.41s-1.67,1-2.3.43l.94-.94c.19.14.44.08.69-.18s.28-.47.14-.62-.28-.09-.6.12l-.55.37a1.32,1.32,0,0,1-1.8,0C459.8,370.3,459.92,369.43,460.72,368.63Z" style="fill:#fff"/><path d="M466.88,370.72l-.82-.82,2.82-2.81.81.81Z" style="fill:#fff"/><path d="M470.44,361.59l.5.5c.85.85.93,1.68.24,2.37a1,1,0,0,1-1.39.21l-.05.06,1.53,1.53-1,1-4-4,1-1,.56.55.06-.06a1,1,0,0,1,.2-1.4C468.76,360.66,469.59,360.75,470.44,361.59Zm-1.95,1.94.54.54a.69.69,0,1,0,1-1l-.53-.53a.65.65,0,0,0-1,0A.64.64,0,0,0,468.49,363.53Z" style="fill:#fff"/><path d="M468.52,358.73l.94-.94,1.63,1.63.05-.05a1.24,1.24,0,0,1,.33-1.44,1.38,1.38,0,0,1,2.16.11l1.93,1.94-.95.95-1.72-1.71c-.38-.38-.74-.42-1.05-.1a.72.72,0,0,0,.07,1.09l1.71,1.71-.95.95Z" style="fill:#fff"/><path d="M474.82,358.18l-.48-.47a2.06,2.06,0,0,1,2.91-2.91l.47.48a2.06,2.06,0,0,1-2.9,2.9Zm.49-1.38.42.42c.39.39.84.45,1.16.13a.79.79,0,0,0-.13-1.16l-.43-.42c-.39-.4-.84-.45-1.15-.13S474.91,356.4,475.31,356.8Z" style="fill:#fff"/><path d="M477.28,350.44l.94.94,1-1.06.71.71-1,1,1.3,1.29a.36.36,0,0,0,.56,0l.68-.68.7.7-.77.77c-.87.87-1.41.91-2.15.17L478,353l-.78.77-.71-.71.78-.77-.94-.94Z" style="fill:#fff"/><path d="M481.67,351.33l-.47-.48a2.06,2.06,0,0,1,2.9-2.9l.47.48a2.06,2.06,0,0,1-2.9,2.9Zm.49-1.39.42.43c.4.39.84.44,1.16.12s.27-.76-.13-1.15l-.42-.43a.79.79,0,0,0-1.16-.13C481.71,349.1,481.77,349.55,482.16,349.94Z" style="fill:#fff"/><rect x="528.27" y="334.62" width="1" height="6" style="fill:#fff"/><path d="M480.93,395.86l.49.5c.85.85.94,1.68.25,2.37a1,1,0,0,1-1.39.21l-.06.06,1.53,1.53-1,1-4-4,1-1,.55.55.06-.06a1,1,0,0,1,.21-1.4C479.24,394.93,480.08,395,480.93,395.86ZM479,397.8l.53.54a.69.69,0,1,0,1-1l-.54-.53a.68.68,0,1,0-1,1Z" style="fill:#fff"/><path d="M479,393l.93-.94,1.63,1.63.05-.05a1.28,1.28,0,0,1,.34-1.45,1.38,1.38,0,0,1,2.15.12l1.93,1.94-1,.95-1.72-1.72q-.57-.57-1.05-.09a.72.72,0,0,0,.08,1.09l1.71,1.71-1,.95Z" style="fill:#fff"/><path d="M485.3,392.45l-.47-.47a2.06,2.06,0,0,1,2.9-2.91l.47.48a2.06,2.06,0,0,1-2.9,2.9Zm.49-1.39.42.43c.4.39.84.44,1.16.13s.27-.77-.13-1.16l-.42-.42c-.39-.4-.84-.45-1.16-.13S485.4,390.67,485.79,391.06Z" style="fill:#fff"/><path d="M487.77,384.71l.93.93,1.05-1.05.72.71-1,1,1.29,1.29a.36.36,0,0,0,.56,0l.68-.68.7.7-.76.76c-.87.88-1.41.92-2.15.18l-1.28-1.27-.77.77-.72-.71.78-.77-.93-.94Z" style="fill:#fff"/><path d="M492.16,385.6l-.48-.48a2.06,2.06,0,0,1,2.9-2.9l.48.47a2.06,2.06,0,0,1-2.9,2.91Zm.48-1.39.43.43c.39.39.84.44,1.15.12s.27-.76-.12-1.15l-.43-.43c-.39-.39-.84-.44-1.15-.13A.78.78,0,0,0,492.64,384.21Z" style="fill:#fff"/><path d="M497.93,384.42l-.82-.81,2.81-2.82.82.82Z" style="fill:#fff"/><path d="M502.87,377.42l-.8.8-2.16-1.5,0,0,1.5,2.17-.8.79L497,377.26l.91-.9,2,1.85.13-.13-1.73-2.14.76-.76,2.14,1.73.13-.13-1.86-2,.91-.91Z" style="fill:#fff"/><path d="M500.51,371.62a.86.86,0,1,1,1.13-.08A.75.75,0,0,1,500.51,371.62Zm3.3,4.86-.71-.71.92-.92-1.59-1.59-.84.84-.71-.71,1.76-1.77,2.3,2.3.85-.85.71.72Z" style="fill:#fff"/><path d="M506.12,368.14l1.07-1.07.22,2.37,2.87.57-1.1,1.1-1.92-.39,0,.4,1,.95-1,.95-4.14-4.14.95-1,2.26,2.26.05-.05Z" style="fill:#fff"/><path d="M507.36,364.77a.87.87,0,1,1,1.13-.09A.75.75,0,0,1,507.36,364.77Zm3.31,4.86-.72-.72.92-.92-1.58-1.58-.85.84-.71-.72,1.77-1.76,2.3,2.3.84-.85.72.71Z" style="fill:#fff"/><path d="M515.19,361.59l.5.5c.85.85.93,1.68.25,2.37a1,1,0,0,1-1.39.21l-.06.06,1.53,1.53-1,1-4-4,1-1,.55.55.06-.06a1,1,0,0,1,.2-1.4C513.51,360.66,514.35,360.75,515.19,361.59Zm-2,1.94.54.54a.69.69,0,1,0,1-1l-.53-.53a.68.68,0,1,0-1,1Z" style="fill:#fff"/><path d="M519.4,359.11a1.73,1.73,0,0,1-.4,2.33,1.8,1.8,0,0,1-2.79.1l-.5-.5a1.85,1.85,0,0,1,.13-2.76,1.79,1.79,0,0,1,2.66-.06l.49.49-1.87,1.87.19.19a.67.67,0,0,0,1,0,.64.64,0,0,0,.2-.75Zm-2.83.92,1-1a.69.69,0,1,0-1,1Z" style="fill:#fff"/><path d="M519.53,358.24l-.5-.49c-.85-.85-.93-1.69-.25-2.37a1,1,0,0,1,1.39-.21l.06-.06-1.66-1.67,1-1,4.14,4.14-1,1-.55-.55-.06.06a1,1,0,0,1-.2,1.4C521.21,359.18,520.37,359.09,519.53,358.24Zm2-1.94-.54-.53a.68.68,0,1,0-1,1l.53.54a.69.69,0,1,0,1-1Z" style="fill:#fff"/><path d="M521.07,351.06a.86.86,0,1,1,1.13-.08A.75.75,0,0,1,521.07,351.06Zm3.3,4.86-.71-.71.92-.93L523,352.7l-.84.84-.71-.71,1.76-1.77,2.3,2.3.85-.85.71.72Z" style="fill:#fff"/><path d="M526.85,351.71c-.55-.55-.46-1.28.26-2.12l.57-.66-.22-.23a.46.46,0,0,0-.69.06.58.58,0,0,0-.16.65l-.92.92c-.54-.63-.38-1.52.41-2.31s1.66-.91,2.33-.23l2,2-.91.91-.37-.37-.08.08a1.31,1.31,0,0,1-.4,1.24A1.25,1.25,0,0,1,526.85,351.71Zm1.52-2.1-.14-.14-.4.48c-.27.32-.31.57-.12.76s.42.13.64-.09A.67.67,0,0,0,528.37,349.61Z" style="fill:#fff"/><rect x="573.59" y="334.62" width="1" height="6" style="fill:#fff"/><path d="M535.21,389l.49.49c.85.85.94,1.69.25,2.37a1,1,0,0,1-1.39.21l-.06.06,1.53,1.54-1,1-4-4,1-1,.55.55.06-.05a1,1,0,0,1,.21-1.41C533.52,388.07,534.36,388.16,535.21,389Zm-2,1.94.53.53a.69.69,0,1,0,1-1l-.54-.54a.69.69,0,1,0-1,1Z" style="fill:#fff"/><path d="M533.29,386.15l.93-.94,1.63,1.63.06,0a1.26,1.26,0,0,1,.33-1.45,1.38,1.38,0,0,1,2.15.12l1.94,1.93-1,1-1.72-1.72c-.38-.38-.73-.41-1-.1a.72.72,0,0,0,.08,1.09l1.71,1.71-1,1Z" style="fill:#fff"/><path d="M539.58,385.6l-.47-.48a2.06,2.06,0,0,1,2.9-2.9l.47.47a2.06,2.06,0,0,1-2.9,2.91Zm.49-1.39.42.42c.4.4.84.45,1.16.13s.27-.76-.13-1.15l-.42-.43a.79.79,0,0,0-1.16-.13C539.62,383.37,539.68,383.82,540.07,384.21Z" style="fill:#fff"/><path d="M542.05,377.86l.93.93,1-1.05.72.71-1,1,1.29,1.29a.36.36,0,0,0,.56,0l.68-.69.7.7-.76.77c-.87.87-1.41.92-2.15.18l-1.28-1.28-.77.78-.71-.71.77-.78-.93-.93Z" style="fill:#fff"/><path d="M546.44,378.74l-.48-.47a2.06,2.06,0,0,1,2.9-2.9l.48.47a2.06,2.06,0,0,1-2.9,2.9Zm.48-1.38.43.42c.39.4.84.45,1.15.13s.27-.76-.12-1.16l-.43-.42c-.39-.4-.84-.45-1.16-.13S546.53,377,546.92,377.36Z" style="fill:#fff"/><path d="M552.21,377.57l-.82-.82,2.81-2.81.82.82Z" style="fill:#fff"/><path d="M552.33,367.58l.93.93,1.06-1.05.71.71-1,1,1.29,1.29a.36.36,0,0,0,.56,0l.68-.69.71.7-.77.77c-.87.87-1.41.92-2.15.18L553,370.15l-.77.78-.71-.71.77-.78-.93-.93Z" style="fill:#fff"/><path d="M560,366a1.74,1.74,0,0,1-.41,2.32,1.79,1.79,0,0,1-2.79.1l-.49-.5a1.84,1.84,0,0,1,.12-2.75,1.79,1.79,0,0,1,2.67-.06l.48.48-1.87,1.88.19.18a.67.67,0,0,0,1,0,.65.65,0,0,0,.2-.76Zm-2.84.92,1-1c-.35-.35-.73-.39-1-.09A.68.68,0,0,0,557.14,366.89Z" style="fill:#fff"/><path d="M561.48,362.44c-.37-.29-.64-.29-.91,0s-.22.75.28,1.25l.16.16c.5.5.94.6,1.25.29a.58.58,0,0,0,0-.88l.93-.94a1.68,1.68,0,0,1-.22,2.55,1.84,1.84,0,0,1-2.9,0l-.27-.27a1.84,1.84,0,0,1,0-2.9,1.68,1.68,0,0,1,2.58-.18Z" style="fill:#fff"/><path d="M561.85,359.84l.93-.93.49.49.05,0a1.23,1.23,0,0,1,.31-1.43,1.36,1.36,0,0,1,2.14.13l2,1.95-1,1L565,359.22c-.38-.38-.72-.42-1-.11a.71.71,0,0,0,.1,1.07l1.72,1.72-1,1Z" style="fill:#fff"/><path d="M565.07,354.49a.86.86,0,0,1,1.21-1.21.87.87,0,0,1-1.21,1.21Zm3.3,4.86-.71-.72.92-.92L567,356.13l-.84.84-.71-.72,1.76-1.76,2.3,2.3.85-.85.71.71Z" style="fill:#fff"/><path d="M571.76,352.16c-.37-.29-.64-.29-.91,0s-.22.75.28,1.25l.16.16c.5.5.94.6,1.25.28a.57.57,0,0,0,0-.87l.93-.94a1.68,1.68,0,0,1-.22,2.55,1.83,1.83,0,0,1-2.89,0l-.27-.27a1.84,1.84,0,0,1,0-2.9,1.69,1.69,0,0,1,2.59-.18Z" style="fill:#fff"/><path d="M574.11,347.58l1.07-1.07.22,2.36,2.87.58-1.1,1.1-1.93-.4,0,.41.94.94-1,1-4.14-4.14,1-1,2.26,2.26,0-.06Z" style="fill:#fff"/><rect x="618.92" y="334.62" width="1" height="6" style="fill:#fff"/><path d="M572.7,392.61c.81-.81,1.61-.93,2.23-.35l-.89.9c-.19-.15-.44-.09-.67.13s-.25.46-.11.6.31.11.58-.08l.6-.4c.75-.51,1.29-.53,1.76-.05.64.64.52,1.56-.32,2.4s-1.67,1-2.3.44l.94-.94c.19.14.43.07.69-.18s.28-.47.14-.62-.28-.09-.6.12l-.55.36a1.31,1.31,0,0,1-1.8,0C571.78,394.29,571.89,393.42,572.7,392.61Z" style="fill:#fff"/><path d="M577.85,389.86c-.37-.29-.63-.29-.91,0s-.21.76.28,1.25l.16.17c.5.49.94.59,1.25.28s.29-.52,0-.88l.93-.93a1.68,1.68,0,0,1-.22,2.55,1.83,1.83,0,0,1-2.89,0l-.27-.27a1.83,1.83,0,0,1,0-2.89,1.7,1.7,0,0,1,2.59-.19Z" style="fill:#fff"/><path d="M582,388.2l.83-.83.65.65-2.28,2.29-.65-.65.54-.55-1.71-1.71-.6.6-.65-.65,1.52-1.52.77.77.16-.16c-.47-.77-.44-1.26.12-1.82a2.07,2.07,0,0,1,.48-.37l1,1a1.89,1.89,0,0,0-.6.41c-.75.75-.82,1.3-.24,1.88Z" style="fill:#fff"/><path d="M586.63,383.1a1.75,1.75,0,0,1-.41,2.33,1.79,1.79,0,0,1-2.78.09l-.5-.5a1.84,1.84,0,0,1,.13-2.75,1.79,1.79,0,0,1,2.66-.06l.49.49-1.87,1.87.18.19a.69.69,0,0,0,1,0,.66.66,0,0,0,.2-.76Zm-2.83.92,1-1a.69.69,0,1,0-1,1Z" style="fill:#fff"/><path d="M590.06,379.67a1.75,1.75,0,0,1-.41,2.33,1.8,1.8,0,0,1-2.79.1l-.49-.5a1.85,1.85,0,0,1,.12-2.76,1.8,1.8,0,0,1,2.67-.06l.48.49-1.87,1.87.19.19a.67.67,0,0,0,1,0,.66.66,0,0,0,.2-.76Zm-2.84.92,1-1a.69.69,0,1,0-1,1Z" style="fill:#fff"/><path d="M588.5,377l.93-.93.49.49.05-.06a1.25,1.25,0,0,1,.31-1.43,1.38,1.38,0,0,1,2.15.13l1.94,1.95-1,1-1.74-1.73c-.38-.39-.72-.42-1-.11s-.26.7.1,1.06l1.72,1.73-1,.95Z" style="fill:#fff"/><path d="M593.26,372.05c.81-.81,1.61-.93,2.23-.35l-.89.9c-.18-.15-.44-.09-.66.13s-.26.46-.12.6.31.1.59-.08l.59-.4c.76-.51,1.29-.53,1.76-.06.64.65.52,1.57-.32,2.41s-1.67,1-2.3.44l.94-.94c.19.14.44.07.69-.18s.28-.47.14-.62-.28-.1-.6.12l-.55.36a1.31,1.31,0,0,1-1.8,0C592.34,373.73,592.45,372.86,593.26,372.05Z" style="fill:#fff"/><path d="M594.21,369l.94-.94,1.63,1.63.05-.05a1.24,1.24,0,0,1,.33-1.44,1.37,1.37,0,0,1,2.15.11l1.94,1.94-1,1-1.72-1.72c-.38-.38-.73-.42-1-.1a.71.71,0,0,0,.07,1.09l1.71,1.71-1,.95Z" style="fill:#fff"/><path d="M600.5,368.46,600,368a2.06,2.06,0,0,1,2.9-2.9l.48.47a2.06,2.06,0,0,1-2.91,2.9Zm.49-1.38.43.42c.39.39.84.44,1.15.13s.27-.77-.13-1.16l-.42-.42c-.39-.4-.84-.45-1.16-.13S600.6,366.68,601,367.08Z" style="fill:#fff"/><path d="M603,360.72l.93.94L605,360.6l.71.71-1,1,1.29,1.29a.36.36,0,0,0,.56,0l.68-.68.71.7-.77.77c-.87.87-1.41.91-2.15.17l-1.28-1.27-.77.77-.71-.71.77-.77-.93-.94Z" style="fill:#fff"/><path d="M609.7,363.86l-.82-.82,2.82-2.81.81.82Z" style="fill:#fff"/><path d="M614.65,356.86l-.8.8-2.17-1.5,0,0,1.5,2.16-.8.8-3.58-2.44.9-.9,2.05,1.85.13-.13-1.73-2.14.75-.76,2.14,1.73.13-.13-1.85-2,.91-.91Z" style="fill:#fff"/><path d="M617.47,352.26a1.74,1.74,0,0,1-.41,2.32,1.78,1.78,0,0,1-2.78.1l-.5-.5a1.84,1.84,0,0,1,.13-2.75,1.78,1.78,0,0,1,2.66-.06l.49.49-1.87,1.87.19.19a.68.68,0,0,0,1,0,.65.65,0,0,0,.2-.76Zm-2.83.92,1-1c-.35-.35-.74-.39-1-.09A.68.68,0,0,0,614.64,353.18Z" style="fill:#fff"/><path d="M619.45,351l-.06.06.55.56-1,1-4.14-4.15,1-1,1.67,1.67.06-.06a1,1,0,0,1,.21-1.39c.69-.69,1.52-.6,2.37.24l.49.5c.85.85.94,1.68.25,2.37A1,1,0,0,1,619.45,351Zm.18-1.59-.54-.53a.65.65,0,0,0-1-.05.66.66,0,0,0,0,1l.53.54a.69.69,0,1,0,1-1Z" style="fill:#fff"/><rect x="44.15" y="75.12" width="1" height="260" style="fill:#fff"/><rect x="38.15" y="334.62" width="6" height="1" style="fill:#fff"/><g style="isolation:isolate"><path d="M30,334.79c0-2.35,1-3.67,2.65-3.67s2.65,1.32,2.65,3.67-1,3.68-2.65,3.68S30,337.14,30,334.79Zm1.36.18,2.42-1.6c-.2-.72-.58-1.1-1.13-1.1-.83,0-1.29.89-1.29,2.52Zm2.58-.18v-.17l-2.42,1.6c.2.72.58,1.1,1.13,1.1C33.52,337.32,34,336.43,34,334.79Z" style="fill:#fff"/></g><rect x="38.15" y="305.73" width="6" height="1" style="fill:#fff"/><g style="isolation:isolate"><path d="M30.1,307.43h1.34a1.16,1.16,0,0,0,1.23.94,1.28,1.28,0,0,0,0-2.55,1.25,1.25,0,0,0-1.15.64H30.18l.34-4.08h4.3v1.17h-3.2l-.16,1.88h.09a1.75,1.75,0,0,1,1.5-.69,2.16,2.16,0,0,1,2.2,2.33,2.42,2.42,0,0,1-2.61,2.5A2.29,2.29,0,0,1,30.1,307.43Z" style="fill:#fff"/></g><rect x="38.15" y="276.84" width="6" height="1" style="fill:#fff"/><g style="isolation:isolate"><path d="M24.79,280.54v-1.16h1.9v-4.51h-.08l-1.82,1.21v-1.31l1.9-1.28h1.36v5.89h1.8v1.16Z" style="fill:#fff"/><path d="M30.65,277c0-2.34,1-3.67,2.65-3.67S36,274.67,36,277s-1,3.68-2.65,3.68S30.65,279.36,30.65,277Zm1.36.19,2.42-1.61c-.2-.72-.58-1.1-1.13-1.1-.83,0-1.29.89-1.29,2.52Zm2.58-.19v-.17l-2.42,1.61c.2.71.58,1.09,1.13,1.09C34.14,279.54,34.59,278.66,34.59,277Z" style="fill:#fff"/></g><rect x="38.15" y="247.95" width="6" height="1" style="fill:#fff"/><g style="isolation:isolate"><path d="M24.79,251.65v-1.16h1.9V246h-.08l-1.82,1.21v-1.31l1.9-1.27h1.36v5.88h1.8v1.16Z" style="fill:#fff"/><path d="M30.72,249.65h1.34a1.16,1.16,0,0,0,1.23.95,1.28,1.28,0,0,0,0-2.56,1.25,1.25,0,0,0-1.15.64H30.81l.33-4.07h4.3v1.16h-3.2l-.16,1.88h.09a1.75,1.75,0,0,1,1.5-.69,2.17,2.17,0,0,1,2.2,2.33,2.42,2.42,0,0,1-2.61,2.5A2.29,2.29,0,0,1,30.72,249.65Z" style="fill:#fff"/></g><rect x="38.15" y="219.06" width="6" height="1" style="fill:#fff"/><g style="isolation:isolate"><path d="M27.09,215.58c1.45,0,2.44.82,2.44,2,0,.77-.41,1.43-1.6,2.57l-1.38,1.32v.09h3.08v1.16h-5v-1L27,219.52c1-1,1.21-1.33,1.21-1.81a1,1,0,0,0-1.12-1,1.09,1.09,0,0,0-1.17,1.14v0H24.59v0A2.27,2.27,0,0,1,27.09,215.58Z" style="fill:#fff"/><path d="M30.65,219.24c0-2.35,1-3.67,2.65-3.67S36,216.89,36,219.24s-1,3.67-2.65,3.67S30.65,221.59,30.65,219.24Zm1.36.18,2.42-1.6c-.2-.73-.58-1.11-1.13-1.11-.83,0-1.29.89-1.29,2.53Zm2.58-.18v-.17l-2.42,1.6c.2.72.58,1.09,1.13,1.09C34.14,221.76,34.59,220.88,34.59,219.24Z" style="fill:#fff"/></g><rect x="38.15" y="190.17" width="6" height="1" style="fill:#fff"/><g style="isolation:isolate"><path d="M27.09,186.69c1.45,0,2.44.82,2.44,2,0,.77-.41,1.43-1.6,2.58l-1.38,1.31v.09h3.08v1.16h-5v-1L27,190.63c1-1,1.21-1.33,1.21-1.8a1,1,0,0,0-1.12-1A1.09,1.09,0,0,0,25.88,189v0H24.59v0A2.27,2.27,0,0,1,27.09,186.69Z" style="fill:#fff"/><path d="M30.72,191.87h1.34a1.16,1.16,0,0,0,1.23.95,1.2,1.2,0,0,0,1.27-1.27,1.22,1.22,0,0,0-1.27-1.29,1.27,1.27,0,0,0-1.15.64H30.81l.33-4.07h4.3V188h-3.2l-.16,1.88h.09a1.72,1.72,0,0,1,1.5-.69,2.16,2.16,0,0,1,2.2,2.32A2.43,2.43,0,0,1,33.26,194,2.29,2.29,0,0,1,30.72,191.87Z" style="fill:#fff"/></g><rect x="38.15" y="161.29" width="6" height="1" style="fill:#fff"/><g style="isolation:isolate"><path d="M26.26,160.85h.82c.71,0,1.17-.39,1.17-1s-.45-1-1.16-1a1.08,1.08,0,0,0-1.2,1H24.65a2.2,2.2,0,0,1,2.48-2.13c1.43,0,2.41.75,2.41,1.87a1.52,1.52,0,0,1-1.25,1.59v.09A1.59,1.59,0,0,1,29.81,163c0,1.25-1.08,2.11-2.66,2.11A2.34,2.34,0,0,1,24.52,163H25.8c.05.6.56,1,1.31,1s1.32-.39,1.32-1-.52-1-1.33-1h-.84Z" style="fill:#fff"/><path d="M30.65,161.46c0-2.35,1-3.67,2.65-3.67S36,159.11,36,161.46s-1,3.67-2.65,3.67S30.65,163.81,30.65,161.46Zm1.36.18,2.42-1.6c-.2-.72-.58-1.11-1.13-1.11-.83,0-1.29.89-1.29,2.53Zm2.58-.18v-.17l-2.42,1.6c.2.72.58,1.09,1.13,1.09C34.14,164,34.59,163.1,34.59,161.46Z" style="fill:#fff"/></g><rect x="38.15" y="132.4" width="6" height="1" style="fill:#fff"/><g style="isolation:isolate"><path d="M26.26,132h.82c.71,0,1.17-.39,1.17-1s-.45-.95-1.16-.95a1.08,1.08,0,0,0-1.2,1H24.65a2.2,2.2,0,0,1,2.48-2.13c1.43,0,2.41.76,2.41,1.87a1.54,1.54,0,0,1-1.25,1.6v.08a1.6,1.6,0,0,1,1.52,1.67c0,1.25-1.08,2.11-2.66,2.11a2.34,2.34,0,0,1-2.63-2.17H25.8c.05.61.56,1,1.31,1s1.32-.4,1.32-1-.52-1-1.33-1h-.84Z" style="fill:#fff"/><path d="M30.72,134.09h1.34a1.16,1.16,0,0,0,1.23.95,1.2,1.2,0,0,0,1.27-1.27,1.22,1.22,0,0,0-1.27-1.29,1.27,1.27,0,0,0-1.15.64H30.81l.33-4.07h4.3v1.17h-3.2l-.16,1.88h.09a1.72,1.72,0,0,1,1.5-.69,2.16,2.16,0,0,1,2.2,2.32,2.42,2.42,0,0,1-2.61,2.51A2.29,2.29,0,0,1,30.72,134.09Z" style="fill:#fff"/></g><rect x="38.15" y="103.51" width="6" height="1" style="fill:#fff"/><g style="isolation:isolate"><path d="M27.68,105.87H24.53v-1.11l2.14-4.6h1.4L26,104.65v.09h1.72V103H29v1.8h1v1.11H29v1.34H27.68Z" style="fill:#fff"/><path d="M30.65,103.68c0-2.35,1-3.67,2.65-3.67S36,101.33,36,103.68s-1,3.67-2.65,3.67S30.65,106,30.65,103.68Zm1.36.18,2.42-1.6c-.2-.72-.58-1.1-1.13-1.1-.83,0-1.29.89-1.29,2.52Zm2.58-.18v-.17l-2.42,1.6c.2.72.58,1.1,1.13,1.1C34.14,106.21,34.59,105.32,34.59,103.68Z" style="fill:#fff"/></g><rect x="38.15" y="74.62" width="6" height="1" style="fill:#fff"/><g style="isolation:isolate"><path d="M27.68,77H24.53V75.87l2.14-4.6h1.4L26,75.76v.09h1.72V74.07H29v1.8h1V77H29v1.33H27.68Z" style="fill:#fff"/><path d="M30.72,76.32h1.34a1.16,1.16,0,0,0,1.23.94,1.28,1.28,0,0,0,0-2.55,1.26,1.26,0,0,0-1.15.63H30.81l.33-4.07h4.3v1.17h-3.2l-.16,1.88h.09a1.75,1.75,0,0,1,1.5-.69A2.16,2.16,0,0,1,35.87,76a2.42,2.42,0,0,1-2.61,2.5A2.29,2.29,0,0,1,30.72,76.32Z" style="fill:#fff"/></g><path d="M24.93,36.46v-.8h1.84V25.59H24.93V24.8h7.31a5.89,5.89,0,0,1,4.25,1.59,5.73,5.73,0,0,1,1.66,4.34,5.45,5.45,0,0,1-1.65,4.2,6,6,0,0,1-4.24,1.53Zm4.15-.8h2.48a3.48,3.48,0,0,0,3.93-2.79,10.92,10.92,0,0,0,.17-2.16,6.73,6.73,0,0,0-.73-3.6,3.86,3.86,0,0,0-3.37-1.52H29.08Z" style="fill:#fff"/><path d="M39.79,32.63a3.74,3.74,0,0,1,1.11-2.77A4.16,4.16,0,0,1,44,28.76a3.73,3.73,0,0,1,2.71.92,3.53,3.53,0,0,1,1,2.61c0,.22,0,.35-.11.4a1,1,0,0,1-.44.07H42c0,2.08.8,3.12,2.39,3.12h0a2.86,2.86,0,0,0,1.46-.38,2,2,0,0,0,.91-1,.89.89,0,0,1,.16-.29.52.52,0,0,1,.3-.06c.3,0,.44.1.44.3a1,1,0,0,1-.09.33,3.43,3.43,0,0,1-.34.53,3.39,3.39,0,0,1-.61.58,3.26,3.26,0,0,1-1,.46A5.26,5.26,0,0,1,41,35.46,3.65,3.65,0,0,1,39.79,32.63ZM42,32.19H46q-.08-2.82-2-2.82a1.81,1.81,0,0,0-1.61.88A4.27,4.27,0,0,0,42,32.19Z" style="fill:#fff"/><path d="M48.85,32.68a3.9,3.9,0,0,1,1.08-2.78,4.21,4.21,0,0,1,3.22-1.14q3,0,3,1.56a1,1,0,0,1-.33.79,1.12,1.12,0,0,1-.76.28,1.14,1.14,0,0,1-.74-.28,1,1,0,0,1-.34-.79,1,1,0,0,1,.35-.78,5,5,0,0,0-1.12-.1,2.09,2.09,0,0,0-1.07.25,2,2,0,0,0-.65.57,2.36,2.36,0,0,0-.32.83,4.93,4.93,0,0,0-.13.8c0,.19,0,.43,0,.71,0,2.18.79,3.28,2.37,3.28a2.17,2.17,0,0,0,2.17-1.4.58.58,0,0,1,.13-.21.66.66,0,0,1,.28,0c.27,0,.4.08.4.24a1.18,1.18,0,0,1-.06.26,2.83,2.83,0,0,1-.3.53,3.19,3.19,0,0,1-.57.6,3.36,3.36,0,0,1-1,.49,4.44,4.44,0,0,1-1.41.21A4.28,4.28,0,0,1,50,35.48,3.68,3.68,0,0,1,48.85,32.68Z" style="fill:#fff"/><path d="M57.43,32.76a3.87,3.87,0,0,1,1.14-2.88,5.09,5.09,0,0,1,6.37,0,3.85,3.85,0,0,1,1.16,2.88A3.56,3.56,0,0,1,65,35.48a5.27,5.27,0,0,1-6.39,0A3.56,3.56,0,0,1,57.43,32.76Zm2.17-.19c0,.33,0,.59,0,.77s0,.42.07.73a2.11,2.11,0,0,0,.19.72,5.9,5.9,0,0,0,.37.55,1.21,1.21,0,0,0,.61.41,2.73,2.73,0,0,0,.91.13,2.77,2.77,0,0,0,.91-.13,1.25,1.25,0,0,0,.61-.41,3.53,3.53,0,0,0,.37-.55,2.37,2.37,0,0,0,.19-.72,6.64,6.64,0,0,0,.07-.73c0-.18,0-.44,0-.77a5,5,0,0,0-.36-2.34,2,2,0,0,0-1.8-.86,1.91,1.91,0,0,0-1.87,1A5.61,5.61,0,0,0,59.6,32.57Z" style="fill:#fff"/><path d="M67.85,32.7A3.59,3.59,0,0,1,69,29.87a4.43,4.43,0,0,1,3.07-1.07,3.55,3.55,0,0,1,2.29.78V26.26q0-.48-.18-.57a2.62,2.62,0,0,0-1-.1V24.8l3-.14V35q0,.47.18.57a3,3,0,0,0,1,.09v.8l-3.12.1v-.83a3.71,3.71,0,0,1-2.38.83,4.08,4.08,0,0,1-3-1.08A3.71,3.71,0,0,1,67.85,32.7Zm2.17,0c0,.28,0,.5,0,.67a5.64,5.64,0,0,0,.06.69,2.23,2.23,0,0,0,.18.72,4.86,4.86,0,0,0,.36.58,1.46,1.46,0,0,0,.59.44,2.36,2.36,0,0,0,.88.14,2.64,2.64,0,0,0,2.2-1.23V30.46a2.39,2.39,0,0,0-2-1,2.08,2.08,0,0,0-1.82.89A4.6,4.6,0,0,0,70,32.7Z" style="fill:#fff"/><path d="M78.59,32.63a3.74,3.74,0,0,1,1.11-2.77,4.16,4.16,0,0,1,3.08-1.1,3.73,3.73,0,0,1,2.71.92,3.53,3.53,0,0,1,1,2.61c0,.22,0,.35-.11.4a1,1,0,0,1-.44.07H80.76c0,2.08.8,3.12,2.39,3.12h0a2.89,2.89,0,0,0,1.46-.38,2,2,0,0,0,.91-1,.89.89,0,0,1,.16-.29.52.52,0,0,1,.3-.06c.29,0,.44.1.44.3a.87.87,0,0,1-.1.33,2.38,2.38,0,0,1-.34.53,2.83,2.83,0,0,1-.61.58,3.09,3.09,0,0,1-1,.46,4.67,4.67,0,0,1-1.39.19,4.62,4.62,0,0,1-3.23-1.1A3.65,3.65,0,0,1,78.59,32.63Zm2.17-.44h4.06q-.07-2.82-2-2.82a1.81,1.81,0,0,0-1.61.88A4.27,4.27,0,0,0,80.76,32.19Z" style="fill:#fff"/><path d="M93.87,29.71v-.62a2.17,2.17,0,0,0,1.85-1,4.37,4.37,0,0,0,.68-2.38h.8v3.24h2.48v.8H97.2V34.4c0,1,.33,1.48,1,1.48a.9.9,0,0,0,.71-.38,1.85,1.85,0,0,0,.31-1.18v-.87h.8v.9a2.29,2.29,0,0,1-.56,1.58,1.86,1.86,0,0,1-1.49.63c-1.8,0-2.69-.73-2.69-2.19V29.71Z" style="fill:#fff"/><path d="M101.9,36.46v-.8h1.17V30.41c0-.32,0-.51-.17-.57a2.46,2.46,0,0,0-1-.1V29l3-.15v6.86h1v.8l-2-.05Zm.95-9.56a1.38,1.38,0,0,1,0-1.86,1.2,1.2,0,0,1,.91-.39,1.32,1.32,0,0,1,0,2.64A1.2,1.2,0,0,1,102.85,26.9Z" style="fill:#fff"/><path d="M107.37,36.46v-.8h1.08V30.41c0-.32,0-.51-.16-.57a2.34,2.34,0,0,0-.92-.1V29l2.92-.15v1.85a3.12,3.12,0,0,1,2.95-1.85c1.45,0,2.28.55,2.52,1.64a3.06,3.06,0,0,1,2.86-1.64,2.88,2.88,0,0,1,2,.59,2.42,2.42,0,0,1,.64,1.86v4.41h1.17v.8c-1,0-1.67-.05-2.15-.05s-1.19,0-2.14.05v-.8h1.17V31.07a2.58,2.58,0,0,0-.23-1.29.81.81,0,0,0-.72-.36,2.55,2.55,0,0,0-1.72.7,2.51,2.51,0,0,0-.81,2v3.55H117v.8c-1,0-1.66-.05-2.14-.05s-1.19,0-2.15.05v-.8h1.17V31.07a2.45,2.45,0,0,0-.24-1.29.8.8,0,0,0-.71-.36,2.58,2.58,0,0,0-1.73.7,2.5,2.5,0,0,0-.8,2v3.55h1.17v.8c-1,0-1.67-.05-2.14-.05S108.26,36.43,107.37,36.46Z" style="fill:#fff"/><path d="M123.35,32.63a3.74,3.74,0,0,1,1.11-2.77,4.16,4.16,0,0,1,3.08-1.1,3.7,3.7,0,0,1,2.7.92,3.5,3.5,0,0,1,1,2.61c0,.22,0,.35-.11.4a1,1,0,0,1-.44.07h-5.13c0,2.08.8,3.12,2.39,3.12h0a2.89,2.89,0,0,0,1.46-.38,2,2,0,0,0,.9-1,.87.87,0,0,1,.17-.29.52.52,0,0,1,.3-.06c.29,0,.44.1.44.3a.87.87,0,0,1-.1.33,2.38,2.38,0,0,1-.34.53,2.83,2.83,0,0,1-.61.58,3,3,0,0,1-1,.46,4.56,4.56,0,0,1-1.38.19,4.62,4.62,0,0,1-3.23-1.1A3.65,3.65,0,0,1,123.35,32.63Zm2.17-.44h4.06q-.09-2.82-2-2.82a1.81,1.81,0,0,0-1.61.88A4.14,4.14,0,0,0,125.52,32.19Z" style="fill:#fff"/><path d="M140.1,32.19a10.2,10.2,0,0,1,3-7.56c.65-.62,1.08-.92,1.31-.92s.3.08.3.24-.08.17-.25.36c-1.71,1.83-2.57,4.47-2.57,7.9a14.62,14.62,0,0,0,.61,4.4,8.63,8.63,0,0,0,2.17,3.67v.06a.26.26,0,0,1,0,.11q0,.24-.3.24a1.38,1.38,0,0,1-.66-.35,8.86,8.86,0,0,1-1.15-1.09,9,9,0,0,1-1.18-1.66A10.7,10.7,0,0,1,140.1,32.19Z" style="fill:#fff"/><path d="M146.7,36.46v-.8h1.09V30.41c0-.32,0-.51-.16-.57a2.4,2.4,0,0,0-.93-.1V29l2.93-.15v1.85a3.12,3.12,0,0,1,3-1.85c1.44,0,2.28.55,2.52,1.64A3.05,3.05,0,0,1,158,28.8a2.84,2.84,0,0,1,2,.59,2.38,2.38,0,0,1,.64,1.86v4.41h1.17v.8c-.95,0-1.66-.05-2.14-.05s-1.19,0-2.14.05v-.8h1.17V31.07a2.45,2.45,0,0,0-.24-1.29.78.78,0,0,0-.71-.36,2.53,2.53,0,0,0-1.72.7,2.51,2.51,0,0,0-.81,2v3.55h1.17v.8c-.94,0-1.65-.05-2.13-.05s-1.19,0-2.15.05v-.8h1.17V31.07a2.45,2.45,0,0,0-.24-1.29.81.81,0,0,0-.72-.36,2.57,2.57,0,0,0-1.72.7,2.51,2.51,0,0,0-.81,2v3.55h1.17v.8c-1,0-1.66-.05-2.14-.05S147.6,36.43,146.7,36.46Z" style="fill:#fff"/><path d="M162.78,36.09V34.23a.88.88,0,0,1,.06-.41c0-.06.16-.08.35-.08a.85.85,0,0,1,.28,0,.4.4,0,0,1,.13.21,4.05,4.05,0,0,0,.22.62,3.35,3.35,0,0,0,.4.62,1.69,1.69,0,0,0,.73.54,3,3,0,0,0,1.09.18c1.29,0,1.94-.42,2-1.27a1,1,0,0,0-.19-.61,1.32,1.32,0,0,0-.56-.4,3.18,3.18,0,0,0-.58-.19l-.57-.12L165,33.13a4.38,4.38,0,0,1-.75-.25,3,3,0,0,1-.74-.46,1.81,1.81,0,0,1-.68-1.42,2.35,2.35,0,0,1,.19-.94,1.6,1.6,0,0,1,.52-.65,4,4,0,0,1,.65-.37,2.77,2.77,0,0,1,.74-.2l.61-.07h.42a3.79,3.79,0,0,1,1.72.33,3.84,3.84,0,0,1,.76-.33c.14,0,.23,0,.26.09a1,1,0,0,1,0,.39v1.35a.78.78,0,0,1-.06.4c0,.06-.16.08-.35.08s-.28,0-.32-.07a.49.49,0,0,1-.07-.27q-.14-1.41-2-1.41c-1.26,0-1.9.38-1.9,1.15a1,1,0,0,0,.13.54c.09.14,0,.19-.13.13l-.27-.09,2,.42c.43.11.89.22,1.36.32a3,3,0,0,1,1.17.49,2.23,2.23,0,0,1,.94,1.79,2.71,2.71,0,0,1-.19,1.06,1.56,1.56,0,0,1-.52.7,4,4,0,0,1-.65.42,2.74,2.74,0,0,1-.75.22l-.61.07-.43,0a3.37,3.37,0,0,1-2-.55l-.44.3a1.22,1.22,0,0,1-.5.25h0a.29.29,0,0,1-.26-.1A1,1,0,0,1,162.78,36.09Z" style="fill:#fff"/><path d="M170.92,40.45q0-.08.27-.36c1.83-1.83,2.74-4.47,2.74-7.9s-.91-6-2.72-7.85c-.2-.18-.29-.31-.29-.39s.1-.24.3-.24a1.38,1.38,0,0,1,.66.35,9.46,9.46,0,0,1,2.33,2.74,10.76,10.76,0,0,1,1.36,5.41,10.23,10.23,0,0,1-3,7.56c-.65.61-1.09.92-1.32.92S170.92,40.61,170.92,40.45Z" style="fill:#fff"/></svg>