<svg xmlns="http://www.w3.org/2000/svg" viewBox="0 0 1264 1080"><path d="M112.73,70.8V69.11h3.89V47.79h-3.89V46.1h15.49a12.48,12.48,0,0,1,9,3.38,12.15,12.15,0,0,1,3.53,9.19q0,5.65-3.51,8.89a12.71,12.71,0,0,1-9,3.24Zm8.79-1.69h5.26q5,0,7.08-3a7.79,7.79,0,0,0,1.22-2.88,22.53,22.53,0,0,0,.36-4.57c0-3.57-.51-6.12-1.54-7.63q-2.24-3.2-7.12-3.21h-5.26Z" style="fill:#fff"/><path d="M144.2,62.69a7.94,7.94,0,0,1,2.35-5.87,8.86,8.86,0,0,1,6.53-2.34,7.93,7.93,0,0,1,5.73,2,7.53,7.53,0,0,1,2,5.54q0,.69-.24.84a1.93,1.93,0,0,1-.92.15H148.8c0,4.4,1.69,6.61,5.07,6.61h0a6.08,6.08,0,0,0,3.09-.8,4.26,4.26,0,0,0,1.92-2.07,1.8,1.8,0,0,1,.35-.62,1.06,1.06,0,0,1,.64-.14c.62,0,.93.22.93.64a2,2,0,0,1-.2.7,6.26,6.26,0,0,1-.73,1.13,6.34,6.34,0,0,1-1.29,1.23,6.46,6.46,0,0,1-2.09,1,10,10,0,0,1-2.93.4,9.81,9.81,0,0,1-6.84-2.32A7.75,7.75,0,0,1,144.2,62.69Zm4.6-.93h8.6c-.12-4-1.56-6-4.32-6a3.84,3.84,0,0,0-3.41,1.87A9.1,9.1,0,0,0,148.8,61.76Z" style="fill:#fff"/><path d="M163.38,62.8a8.29,8.29,0,0,1,2.28-5.89q2.29-2.43,6.82-2.43c4.24,0,6.37,1.11,6.37,3.33a2.11,2.11,0,0,1-.7,1.67,2.42,2.42,0,0,1-1.61.59,2.46,2.46,0,0,1-1.57-.59,2,2,0,0,1-.73-1.67,2.16,2.16,0,0,1,.74-1.67,10.94,10.94,0,0,0-2.36-.22,4.49,4.49,0,0,0-2.27.55,4,4,0,0,0-1.37,1.2,5.05,5.05,0,0,0-.69,1.76,11.17,11.17,0,0,0-.27,1.7c0,.4,0,.89,0,1.49q0,6.95,5,6.95a4.6,4.6,0,0,0,4.61-3,1.08,1.08,0,0,1,.26-.44,1.21,1.21,0,0,1,.6-.09c.57,0,.86.17.86.5a2.51,2.51,0,0,1-.14.56,5.19,5.19,0,0,1-.63,1.11,6.26,6.26,0,0,1-1.21,1.27,6.91,6.91,0,0,1-2.06,1,9.26,9.26,0,0,1-3,.45,9.08,9.08,0,0,1-6.52-2.29A7.78,7.78,0,0,1,163.38,62.8Z" style="fill:#fff"/><path d="M181.55,63A8.14,8.14,0,0,1,184,56.87a10.7,10.7,0,0,1,13.48,0A8.11,8.11,0,0,1,199.9,63a7.61,7.61,0,0,1-2.4,5.77,11.19,11.19,0,0,1-13.54,0A7.59,7.59,0,0,1,181.55,63Zm4.61-.41c0,.72,0,1.26,0,1.64a14.77,14.77,0,0,0,.14,1.55,4.51,4.51,0,0,0,.41,1.53,8,8,0,0,0,.77,1.15,2.63,2.63,0,0,0,1.29.88,6.16,6.16,0,0,0,1.93.27,6.09,6.09,0,0,0,1.92-.27,2.61,2.61,0,0,0,1.3-.88,7.32,7.32,0,0,0,.78-1.15,4.76,4.76,0,0,0,.41-1.53,15.33,15.33,0,0,0,.15-1.55c0-.38,0-.92,0-1.64,0-2.47-.25-4.12-.76-4.94a4.16,4.16,0,0,0-3.81-1.83,4.06,4.06,0,0,0-4,2.1A12,12,0,0,0,186.16,62.55Z" style="fill:#fff"/><path d="M203.61,62.83a7.62,7.62,0,0,1,2.53-6,9.41,9.41,0,0,1,6.51-2.25,7.6,7.6,0,0,1,4.85,1.63v-7c0-.67-.13-1.07-.38-1.2a6,6,0,0,0-2.1-.2V46.1l6.38-.28V67.7c0,.67.13,1.07.38,1.21a6.27,6.27,0,0,0,2.1.2V70.8l-6.59.21V69.25a7.88,7.88,0,0,1-5,1.76A8.6,8.6,0,0,1,206,68.72,7.86,7.86,0,0,1,203.61,62.83Zm4.61,0c0,.6,0,1.07,0,1.42s0,.84.12,1.46a4.73,4.73,0,0,0,.39,1.52,8.39,8.39,0,0,0,.76,1.23,2.8,2.8,0,0,0,1.26.94,5.14,5.14,0,0,0,1.84.31,5.65,5.65,0,0,0,4.68-2.62v-9a5.12,5.12,0,0,0-4.29-2.2,4.39,4.39,0,0,0-3.85,1.88C208.53,58.7,208.22,60.38,208.22,62.83Z" style="fill:#fff"/><path d="M226.36,62.69a7.94,7.94,0,0,1,2.35-5.87,8.86,8.86,0,0,1,6.53-2.34,7.93,7.93,0,0,1,5.73,2A7.53,7.53,0,0,1,243,62q0,.69-.24.84a1.93,1.93,0,0,1-.92.15H231c0,4.4,1.69,6.61,5.07,6.61h0a6.08,6.08,0,0,0,3.09-.8,4.26,4.26,0,0,0,1.92-2.07,1.8,1.8,0,0,1,.35-.62,1.06,1.06,0,0,1,.64-.14c.62,0,.93.22.93.64a2,2,0,0,1-.2.7,6.26,6.26,0,0,1-.73,1.13,6.34,6.34,0,0,1-1.29,1.23,6.46,6.46,0,0,1-2.09,1,10,10,0,0,1-2.93.4,9.81,9.81,0,0,1-6.84-2.32A7.75,7.75,0,0,1,226.36,62.69Zm4.6-.93h8.6c-.12-4-1.56-6-4.32-6a3.84,3.84,0,0,0-3.41,1.87A9.1,9.1,0,0,0,231,61.76Z" style="fill:#fff"/><path d="M258.72,56.5V55.2A4.58,4.58,0,0,0,262.64,53a9.15,9.15,0,0,0,1.44-5.05h1.69v6.88H271V56.5h-5.25v9.94c0,2.08.69,3.13,2.08,3.13a1.9,1.9,0,0,0,1.51-.81,4,4,0,0,0,.65-2.5V64.43h1.68v1.9a4.93,4.93,0,0,1-1.16,3.35A4,4,0,0,1,267.36,71q-5.7,0-5.7-4.64V56.5Z" style="fill:#fff"/><path d="M275.72,70.8V69.11h2.49V58q0-1-.36-1.2a5.58,5.58,0,0,0-2-.2V54.89l6.28-.3V69.11h2.23V70.8l-4.22-.11C279.41,70.69,277.94,70.73,275.72,70.8Zm2-20.24a2.92,2.92,0,0,1,0-4,2.51,2.51,0,0,1,1.92-.83,2.83,2.83,0,0,1,2.81,2.81,2.67,2.67,0,0,1-.84,2,2.7,2.7,0,0,1-2,.83A2.51,2.51,0,0,1,277.74,50.56Z" style="fill:#fff"/><path d="M287.3,70.8V69.11h2.3V58c0-.67-.11-1.07-.35-1.2a5.18,5.18,0,0,0-1.95-.2V54.89l6.19-.3v3.9a6.58,6.58,0,0,1,6.26-3.9c3.05,0,4.83,1.15,5.32,3.46a6.48,6.48,0,0,1,6.07-3.46,6.09,6.09,0,0,1,4.2,1.23,5.12,5.12,0,0,1,1.35,4v9.34h2.48V70.8c-2-.07-3.53-.11-4.53-.11s-2.52,0-4.54.11V69.11h2.48V59.39a5.33,5.33,0,0,0-.5-2.74,1.68,1.68,0,0,0-1.52-.76,5.45,5.45,0,0,0-3.64,1.49,5.29,5.29,0,0,0-1.71,4.2v7.53h2.48V70.8c-2-.07-3.51-.11-4.52-.11s-2.52,0-4.55.11V69.11h2.48V59.39a5.21,5.21,0,0,0-.51-2.74,1.69,1.69,0,0,0-1.51-.76,5.5,5.5,0,0,0-3.66,1.49,5.32,5.32,0,0,0-1.7,4.2v7.53h2.48V70.8c-2-.07-3.53-.11-4.54-.11S289.2,70.73,287.3,70.8Z" style="fill:#fff"/><path d="M321.14,62.69a7.94,7.94,0,0,1,2.36-5.87A8.84,8.84,0,0,1,330,54.48a7.93,7.93,0,0,1,5.73,2,7.49,7.49,0,0,1,2,5.54q0,.69-.24.84a1.9,1.9,0,0,1-.92.15H325.75c0,4.4,1.68,6.61,5.06,6.61h0a6.08,6.08,0,0,0,3.09-.8,4.26,4.26,0,0,0,1.92-2.07,2,2,0,0,1,.35-.62,1.06,1.06,0,0,1,.64-.14c.62,0,.93.22.93.64a2,2,0,0,1-.2.7,6.38,6.38,0,0,1-2,2.36,6.46,6.46,0,0,1-2.09,1,10,10,0,0,1-2.93.4,9.81,9.81,0,0,1-6.84-2.32A7.75,7.75,0,0,1,321.14,62.69Zm4.61-.93h8.59c-.12-4-1.56-6-4.32-6a3.85,3.85,0,0,0-3.41,1.87A9,9,0,0,0,325.75,61.76Z" style="fill:#fff"/><path d="M356.61,61.76a21.62,21.62,0,0,1,6.45-16c1.38-1.3,2.29-2,2.76-2s.65.17.65.51c0,.11-.17.36-.52.75q-5.46,5.84-5.45,16.74a31.18,31.18,0,0,0,1.29,9.31,18.16,18.16,0,0,0,4.59,7.79l0,.1a.69.69,0,0,1,.06.25c0,.34-.21.51-.65.51a3.06,3.06,0,0,1-1.38-.74A18,18,0,0,1,362,76.7a18.4,18.4,0,0,1-2.51-3.5A22.67,22.67,0,0,1,356.61,61.76Z" style="fill:#fff"/><path d="M370.6,70.8V69.11h2.31V58c0-.67-.12-1.07-.35-1.2a5.29,5.29,0,0,0-2-.2V54.89l6.19-.3v3.9a6.59,6.59,0,0,1,6.26-3.9q4.57,0,5.33,3.46a6.47,6.47,0,0,1,6.06-3.46,6.09,6.09,0,0,1,4.2,1.23,5.12,5.12,0,0,1,1.36,4v9.34h2.47V70.8c-2-.07-3.52-.11-4.53-.11s-2.52,0-4.54.11V69.11h2.48V59.39a5.23,5.23,0,0,0-.5-2.74,1.68,1.68,0,0,0-1.51-.76,5.46,5.46,0,0,0-3.65,1.49,5.29,5.29,0,0,0-1.7,4.2v7.53H391V70.8c-2-.07-3.51-.11-4.52-.11s-2.53,0-4.55.11V69.11h2.47V59.39a5.21,5.21,0,0,0-.51-2.74,1.69,1.69,0,0,0-1.51-.76,5.46,5.46,0,0,0-3.65,1.49,5.29,5.29,0,0,0-1.71,4.2v7.53h2.48V70.8c-2-.07-3.53-.11-4.54-.11S372.5,70.73,370.6,70.8Z" style="fill:#fff"/><path d="M404.65,70V66.08a1.8,1.8,0,0,1,.13-.87c.08-.12.32-.18.74-.18a1.51,1.51,0,0,1,.59.08c.11,0,.2.19.27.43a8.88,8.88,0,0,0,.48,1.33,7.84,7.84,0,0,0,.83,1.31,3.62,3.62,0,0,0,1.55,1.13,6.29,6.29,0,0,0,2.32.4c2.73,0,4.1-.91,4.12-2.71a2.09,2.09,0,0,0-.41-1.29,2.61,2.61,0,0,0-1.17-.84,6.6,6.6,0,0,0-1.24-.4l-1.19-.26c-1.16-.21-2-.37-2.43-.47a8.87,8.87,0,0,1-1.58-.53,5.62,5.62,0,0,1-1.56-1,3.78,3.78,0,0,1-1.45-3,4.79,4.79,0,0,1,.4-2,3.21,3.21,0,0,1,1.1-1.37,8,8,0,0,1,1.39-.8,5.83,5.83,0,0,1,1.56-.41q.88-.12,1.29-.15c.28,0,.57,0,.89,0a8,8,0,0,1,3.64.71,8.11,8.11,0,0,1,1.62-.71q.43,0,.54.21a2,2,0,0,1,.11.81v2.87a1.74,1.74,0,0,1-.13.85c-.09.11-.34.17-.75.17s-.59,0-.67-.15a1.18,1.18,0,0,1-.16-.57q-.28-3-4.23-3t-4.05,2.43a2.14,2.14,0,0,0,.29,1.14c.19.31.1.41-.28.28l-.56-.18,4.22.88c.92.23,1.88.46,2.89.68A6.36,6.36,0,0,1,416.23,62a4.67,4.67,0,0,1,2,3.79,5.87,5.87,0,0,1-.39,2.22,3.58,3.58,0,0,1-1.1,1.5,8.64,8.64,0,0,1-1.39.88,5,5,0,0,1-1.58.46c-.6.09-1,.14-1.29.16a8.35,8.35,0,0,1-.91,0,7.3,7.3,0,0,1-4.25-1.16l-.93.62a2.36,2.36,0,0,1-1.06.54h0q-.44,0-.54-.21A2,2,0,0,1,404.65,70Z" style="fill:#fff"/><path d="M421.88,79.25c0-.12.19-.37.58-.75q5.81-5.85,5.8-16.74T422.5,45.13c-.41-.38-.62-.66-.62-.82,0-.34.22-.51.65-.51a3.07,3.07,0,0,1,1.39.73,20.14,20.14,0,0,1,2.43,2.32,19.54,19.54,0,0,1,2.51,3.5,22.8,22.8,0,0,1,2.88,11.45,21.65,21.65,0,0,1-6.43,16c-1.37,1.3-2.3,2-2.78,2S421.88,79.59,421.88,79.25Z" style="fill:#fff"/><rect x="172.19" y="879.19" width="23.33" height="11.92" style="fill:#ffff5c"/><rect x="197.13" y="838.3" width="23.33" height="52.81" style="fill:#8c4dfb"/><rect x="273.02" y="889.41" width="23.33" height="1.7" style="fill:#8c4dfb"/><rect x="323.97" y="824.67" width="23.33" height="66.44" style="fill:#ffff5c"/><rect x="348.91" y="749.72" width="23.33" height="141.39" style="fill:#8c4dfb"/><rect x="399.86" y="652.62" width="23.33" height="238.49" style="fill:#ffff5c"/><rect x="424.81" y="398.8" width="23.33" height="492.31" style="fill:#8c4dfb"/><rect x="475.76" y="713.95" width="23.33" height="177.16" style="fill:#ffff5c"/><rect x="500.7" y="495.9" width="23.33" height="395.21" style="fill:#8c4dfb"/><rect x="551.65" y="749.72" width="23.33" height="141.39" style="fill:#ffff5c"/><rect x="576.59" y="383.47" width="23.33" height="507.64" style="fill:#8c4dfb"/><rect x="627.54" y="824.67" width="23.33" height="66.44" style="fill:#ffff5c"/><rect x="652.48" y="725.87" width="23.33" height="165.24" style="fill:#8c4dfb"/><rect x="703.43" y="528.27" width="23.33" height="362.84" style="fill:#ffff5c"/><rect x="728.37" y="175.64" width="23.33" height="715.47" style="fill:#8c4dfb"/><rect x="779.32" y="729.28" width="23.33" height="161.83" style="fill:#ffff5c"/><rect x="804.26" y="512.93" width="23.33" height="378.18" style="fill:#8c4dfb"/><rect x="855.21" y="884.3" width="23.33" height="6.81" style="fill:#ffff5c"/><rect x="880.16" y="879.19" width="23.33" height="11.92" style="fill:#8c4dfb"/><rect x="931.11" y="875.78" width="23.33" height="15.33" style="fill:#ffff5c"/><rect x="956.05" y="843.41" width="23.33" height="47.7" style="fill:#8c4dfb"/><rect x="1007" y="845.12" width="23.33" height="45.99" style="fill:#ffff5c"/><rect x="1031.94" y="785.49" width="23.33" height="105.62" style="fill:#8c4dfb"/><rect x="1082.89" y="812.75" width="23.33" height="78.36" style="fill:#ffff5c"/><rect x="1107.83" y="608.33" width="23.33" height="282.78" style="fill:#8c4dfb"/><rect x="147.01" y="891.44" width="1010.99" height="1" style="fill:#fff"/><rect x="195.82" y="891.11" width="1" height="10" style="fill:#fcfcfc"/><rect x="271.71" y="891.11" width="1" height="10" style="fill:#fcfcfc"/><rect x="347.61" y="891.11" width="1" height="10" style="fill:#fcfcfc"/><rect x="423.5" y="891.11" width="1" height="10" style="fill:#fcfcfc"/><rect x="499.39" y="891.11" width="1" height="10" style="fill:#fcfcfc"/><rect x="575.28" y="891.11" width="1" height="10" style="fill:#fcfcfc"/><rect x="651.17" y="891.11" width="1" height="10" style="fill:#fcfcfc"/><rect x="727.07" y="891.11" width="1" height="10" style="fill:#fcfcfc"/><rect x="802.96" y="891.11" width="1" height="10" style="fill:#fcfcfc"/><rect x="878.85" y="891.11" width="1" height="10" style="fill:#fcfcfc"/><rect x="954.74" y="891.11" width="1" height="10" style="fill:#fcfcfc"/><rect x="1030.63" y="891.11" width="1" height="10" style="fill:#fcfcfc"/><rect x="1106.52" y="891.11" width="1" height="10" style="fill:#fcfcfc"/><rect x="146.51" y="125.37" width="1" height="766.57" style="fill:#fff"/><rect x="136.18" y="891.44" width="10" height="1" style="fill:#fff"/><path d="M119.87,889.9c0-4.92,2-7.69,5.54-7.69S131,885,131,889.9s-2,7.68-5.55,7.68S119.87,894.81,119.87,889.9Zm2.84.37,5.07-3.35c-.41-1.51-1.21-2.31-2.37-2.31-1.75,0-2.7,1.86-2.7,5.29Zm5.41-.37v-.36l-5.07,3.35c.42,1.5,1.22,2.29,2.36,2.29C127.17,895.18,128.12,893.33,128.12,889.9Z" style="fill:#fff"/><rect x="136.18" y="806.27" width="10" height="1" style="fill:#fff"/><path d="M120,807.91h2.81a2.4,2.4,0,0,0,2.57,2,2.68,2.68,0,0,0,0-5.35,2.63,2.63,0,0,0-2.4,1.34h-2.8l.69-8.53h9v2.44h-6.72l-.31,3.94h.18a3.63,3.63,0,0,1,3.13-1.44,4.53,4.53,0,0,1,4.62,4.86c0,3.15-2.2,5.25-5.47,5.25C122.24,812.4,120.1,810.58,120,807.91Z" style="fill:#fff"/><rect x="136.18" y="721.09" width="10" height="1" style="fill:#fff"/><path d="M107.6,726.93V724.5h4v-9.44h-.18l-3.81,2.52v-2.74l4-2.66h2.84V724.5h3.78v2.43Z" style="fill:#fff"/><path d="M119.87,719.55c0-4.92,2-7.69,5.54-7.69s5.55,2.77,5.55,7.69-2,7.68-5.55,7.68S119.87,724.46,119.87,719.55Zm2.84.37,5.07-3.35c-.41-1.51-1.21-2.31-2.37-2.31-1.75,0-2.7,1.86-2.7,5.29Zm5.41-.37v-.36l-5.07,3.35c.42,1.5,1.22,2.29,2.36,2.29C127.17,724.83,128.12,723,128.12,719.55Z" style="fill:#fff"/><rect x="136.18" y="635.92" width="10" height="1" style="fill:#fff"/><path d="M107.6,641.75v-2.42h4v-9.45h-.18l-3.81,2.53v-2.74l4-2.67h2.84v12.33h3.78v2.42Z" style="fill:#fff"/><path d="M120,637.56h2.81a2.4,2.4,0,0,0,2.57,2,2.68,2.68,0,0,0,0-5.35,2.63,2.63,0,0,0-2.4,1.34h-2.8l.69-8.53h9v2.44h-6.72l-.31,3.94h.18a3.63,3.63,0,0,1,3.13-1.44,4.53,4.53,0,0,1,4.62,4.86c0,3.15-2.2,5.25-5.47,5.25C122.24,642.05,120.1,640.23,120,637.56Z" style="fill:#fff"/><rect x="136.18" y="550.74" width="10" height="1" style="fill:#fff"/><path d="M112.41,541.53c3,0,5.1,1.73,5.1,4.28,0,1.62-.85,3-3.34,5.39L111.29,554v.18h6.45v2.45h-10.4v-2l4.8-4.75c2-2,2.54-2.79,2.54-3.78a2.11,2.11,0,0,0-2.36-2.12,2.29,2.29,0,0,0-2.45,2.37v.07h-2.69v-.06C107.18,543.45,109.31,541.53,112.41,541.53Z" style="fill:#fff"/><path d="M119.87,549.2c0-4.92,2-7.69,5.54-7.69s5.55,2.77,5.55,7.69-2,7.68-5.55,7.68S119.87,554.11,119.87,549.2Zm2.84.38,5.07-3.36c-.41-1.51-1.21-2.31-2.37-2.31-1.75,0-2.7,1.86-2.7,5.29Zm5.41-.38v-.36l-5.07,3.35c.42,1.51,1.22,2.29,2.36,2.29C127.17,554.48,128.12,552.63,128.12,549.2Z" style="fill:#fff"/><rect x="136.18" y="465.57" width="10" height="1" style="fill:#fff"/><path d="M112.41,456.35c3,0,5.1,1.73,5.1,4.29,0,1.61-.85,3-3.34,5.39l-2.88,2.75V469h6.45v2.44h-10.4v-2l4.8-4.76c2-2,2.54-2.79,2.54-3.78a2.11,2.11,0,0,0-2.36-2.11,2.29,2.29,0,0,0-2.45,2.37v.07h-2.69v-.06C107.18,458.28,109.31,456.35,112.41,456.35Z" style="fill:#fff"/><path d="M120,467.21h2.81a2.4,2.4,0,0,0,2.57,2,2.68,2.68,0,0,0,0-5.35,2.63,2.63,0,0,0-2.4,1.34h-2.8l.69-8.53h9v2.44h-6.72l-.31,3.94h.18a3.63,3.63,0,0,1,3.13-1.44,4.53,4.53,0,0,1,4.62,4.86c0,3.15-2.2,5.25-5.47,5.25C122.24,471.7,120.1,469.88,120,467.21Z" style="fill:#fff"/><rect x="136.18" y="380.4" width="10" height="1" style="fill:#fff"/><path d="M110.67,377.57h1.73c1.47,0,2.43-.81,2.43-2.05s-.94-2-2.42-2a2.28,2.28,0,0,0-2.51,2.13h-2.59c.1-2.77,2.07-4.47,5.19-4.47s5,1.58,5,3.92a3.2,3.2,0,0,1-2.61,3.34v.18a3.33,3.33,0,0,1,3.18,3.5c0,2.62-2.25,4.4-5.56,4.4s-5.38-1.76-5.52-4.52h2.69c.1,1.25,1.17,2.05,2.75,2.05s2.76-.83,2.76-2.13-1.09-2.16-2.79-2.16h-1.76Z" style="fill:#fff"/><path d="M119.87,378.85c0-4.92,2-7.69,5.54-7.69s5.55,2.77,5.55,7.69-2,7.69-5.55,7.69S119.87,383.76,119.87,378.85Zm2.84.38,5.07-3.36c-.41-1.51-1.21-2.31-2.37-2.31-1.75,0-2.7,1.86-2.7,5.29Zm5.41-.38v-.36l-5.07,3.35c.42,1.51,1.22,2.29,2.36,2.29C127.17,384.13,128.12,382.28,128.12,378.85Z" style="fill:#fff"/><rect x="136.18" y="295.22" width="10" height="1" style="fill:#fff"/><path d="M110.67,292.39h1.73c1.47,0,2.43-.8,2.43-2s-.94-2-2.42-2a2.27,2.27,0,0,0-2.51,2.12h-2.59c.1-2.77,2.07-4.47,5.19-4.47s5,1.59,5,3.92a3.19,3.19,0,0,1-2.61,3.34v.19a3.31,3.31,0,0,1,3.18,3.49c0,2.62-2.25,4.41-5.56,4.41s-5.38-1.77-5.52-4.53h2.69c.1,1.26,1.17,2.06,2.75,2.06s2.76-.83,2.76-2.13-1.09-2.17-2.79-2.17h-1.76Z" style="fill:#fff"/><path d="M120,296.86h2.81a2.4,2.4,0,0,0,2.57,2,2.68,2.68,0,0,0,0-5.35,2.63,2.63,0,0,0-2.4,1.34h-2.8l.69-8.53h9v2.44h-6.72l-.31,3.94h.18a3.63,3.63,0,0,1,3.13-1.44,4.53,4.53,0,0,1,4.62,4.86c0,3.15-2.2,5.25-5.47,5.25C122.24,301.35,120.1,299.53,120,296.86Z" style="fill:#fff"/><rect x="136.18" y="210.05" width="10" height="1" style="fill:#fff"/><path d="M113.64,213.09H107v-2.33l4.49-9.63h2.93l-4.33,9.39v.19h3.6V207h2.59v3.78h2v2.33h-2v2.79h-2.72Z" style="fill:#fff"/><path d="M119.87,208.5c0-4.92,2-7.69,5.54-7.69s5.55,2.77,5.55,7.69-2,7.69-5.55,7.69S119.87,213.42,119.87,208.5Zm2.84.38,5.07-3.36c-.41-1.51-1.21-2.31-2.37-2.31-1.75,0-2.7,1.86-2.7,5.29Zm5.41-.38v-.36l-5.07,3.35c.42,1.51,1.22,2.29,2.36,2.29C127.17,213.78,128.12,211.93,128.12,208.5Z" style="fill:#fff"/><rect x="136.18" y="124.87" width="10" height="1" style="fill:#fff"/><path d="M113.64,127.91H107v-2.33l4.49-9.63h2.93l-4.33,9.4v.18h3.6v-3.72h2.59v3.77h2v2.33h-2v2.79h-2.72Z" style="fill:#fff"/><path d="M120,126.51h2.81a2.41,2.41,0,0,0,2.57,2,2.68,2.68,0,0,0,0-5.36,2.63,2.63,0,0,0-2.4,1.34h-2.8l.69-8.53h9v2.44h-6.72l-.31,3.94h.18a3.63,3.63,0,0,1,3.13-1.44,4.54,4.54,0,0,1,4.62,4.87c0,3.14-2.2,5.24-5.47,5.24C122.24,131,120.1,129.18,120,126.51Z" style="fill:#fff"/><g style="isolation:isolate"><path d="M142.39,966.63a1.82,1.82,0,1,1,2.38-.17A1.58,1.58,0,0,1,142.39,966.63Zm7,10.26-1.51-1.51,2-1.94-3.35-3.35-1.78,1.78-1.51-1.51,3.73-3.73,4.86,4.86,1.79-1.79,1.51,1.51Z" style="fill:#fff"/><path d="M156.52,961.72c-.78-.61-1.34-.61-1.93,0s-.45,1.59.6,2.63l.34.34c1.05,1.05,2,1.26,2.64.61s.6-1.11.05-1.86l2-2c1.52,1.77,1.36,3.56-.47,5.39-2,2-4.1,2-6.1,0l-.58-.57c-2-2-2-4.12,0-6.11,1.84-1.84,3.62-2,5.46-.39Z" style="fill:#fff"/><path d="M160.93,960l-1-1c-1.74-1.75-1.65-4,.24-5.9s4.15-2,5.89-.23l1,1c1.75,1.74,1.66,4-.23,5.89S162.68,961.7,160.93,960Zm1-2.93.9.9c.83.83,1.77.94,2.44.27s.56-1.62-.27-2.44l-.89-.9c-.83-.83-1.78-.94-2.44-.27S161.13,956.2,162,957Z" style="fill:#fff"/><path d="M164.54,949l2-2,1,1,.11-.11a2.6,2.6,0,0,1,.65-3c1.38-1.38,3-1.29,4.53.28l4.11,4.11-2,2-3.66-3.66c-.81-.81-1.51-.88-2.17-.23a1.49,1.49,0,0,0,.2,2.25l3.64,3.64-2,2Z" style="fill:#fff"/><path d="M180.36,950.24l-1.72-1.73,5.93-5.93,1.73,1.72Z" style="fill:#fff"/><path d="M182.76,938.64l2-2a1.57,1.57,0,0,0,2.07-.26,1.8,1.8,0,0,0-2.54-2.54,1.66,1.66,0,0,0-.44,1.73l-2,2-4.46-5.2,5.45-5.45,1.63,1.63-3.78,3.79,1.76,2,.12-.11a2.78,2.78,0,0,1,.93-2.62,3.56,3.56,0,0,1,5.27.13c1.81,1.81,1.72,4.31-.23,6.26S184.31,940.16,182.76,938.64Z" style="fill:#fff"/><path d="M192.85,933.41l-1.63-1.63,2.06-2.06L188.55,925l-.11.11-.61,3.29-1.8-1.8.63-3.49,2-2,6.62,6.62,2-2,1.63,1.63Z" style="fill:#fff"/><path d="M194.44,915c1.84-1.84,4.06-2.09,5.53-.63.92.93,1.2,2.31,1,5l-.17,2.56.11.11,3.48-3.48,1.63,1.64-6.27,6.27-1.4-1.4.21-5c.09-2.29,0-3-.51-3.54a1.43,1.43,0,0,0-2.13.11,1.6,1.6,0,0,0,0,2.36l0,0L194,921l0,0C192.34,919.29,192.53,916.89,194.44,915Z" style="fill:#fff"/></g><g style="isolation:isolate"><path d="M225,959.39a1.82,1.82,0,1,1,2.38-.17A1.57,1.57,0,0,1,225,959.39Zm7,10.26-1.51-1.51,1.94-1.94-3.35-3.35-1.77,1.78-1.51-1.51,3.72-3.72,4.86,4.85,1.79-1.79,1.51,1.51Z" style="fill:#fff"/><path d="M239.14,954.48c-.78-.61-1.34-.61-1.93,0s-.45,1.59.6,2.63l.34.35c1,1,2,1.25,2.64.6s.61-1.11.05-1.86l2-2c1.52,1.76,1.36,3.55-.46,5.38-2,2-4.11,2-6.11,0l-.57-.57c-2-2-2-4.12,0-6.11,1.84-1.84,3.62-2,5.47-.39Z" style="fill:#fff"/><path d="M243.56,952.72l-1-1c-1.75-1.75-1.66-4,.23-5.9s4.15-2,5.9-.23l1,1c1.74,1.74,1.65,4-.24,5.9S245.3,954.46,243.56,952.72Zm1-2.93.9.9c.83.83,1.78.94,2.44.27s.56-1.61-.26-2.44l-.9-.9c-.83-.83-1.77-.94-2.44-.27S243.76,949,244.58,949.79Z" style="fill:#fff"/><path d="M247.16,941.75l2-2,1,1,.11-.11a2.6,2.6,0,0,1,.65-3c1.38-1.38,3-1.29,4.53.28l4.11,4.11-2,2-3.66-3.66c-.82-.81-1.52-.88-2.18-.23a1.49,1.49,0,0,0,.2,2.25l3.64,3.64-2,2Z" style="fill:#fff"/><path d="M263,943l-1.72-1.73,5.93-5.93,1.73,1.73Z" style="fill:#fff"/><path d="M271.32,930.65c-2.05,2.05-4.68,2.16-6.59.25a7.38,7.38,0,0,1-1.93-4.37c-.15-1-.4-3-.45-3.75l2.35-2.35.61,4.49a5.14,5.14,0,0,0,.22,1.12l.13-.14a2.63,2.63,0,0,1,.83-1.75,3.55,3.55,0,0,1,5.17.17A4.41,4.41,0,0,1,271.32,930.65Zm-1.69-4.18a1.84,1.84,0,1,0,0,2.57A1.75,1.75,0,0,0,269.63,926.47Z" style="fill:#fff"/><path d="M277.21,921.52l-3.63,3.63L272,923.56l-2.92-7.5,2.11-2.1,2.9,7.24.13.13,1.48-1.49-1.92-1.92,1.85-1.86,2,2,1-1,1.56,1.56-1,1,1.46,1.45-2,2Z" style="fill:#fff"/></g><g style="isolation:isolate"><path d="M280.71,988.88l1.05,1c1.79,1.79,2,3.56.52,5a2.19,2.19,0,0,1-2.93.44l-.13.12,3.24,3.25-2.12,2.12-8.47-8.47,2.11-2.11,1.17,1.17.12-.13a2.16,2.16,0,0,1,.44-3C277.16,986.91,278.92,987.09,280.71,988.88ZM276.59,993l1.14,1.13a1.44,1.44,0,1,0,2-2l-1.13-1.13a1.44,1.44,0,1,0-2,2Z" style="fill:#fff"/><path d="M276.66,982.83l2-2,3.44,3.44.11-.1a2.68,2.68,0,0,1,.7-3.06c1.38-1.38,3-1.3,4.55.25l4.08,4.09-2,2-3.64-3.63c-.8-.8-1.54-.87-2.2-.2a1.51,1.51,0,0,0,.15,2.3l3.61,3.61-2,2Z" style="fill:#fff"/><path d="M290,981.67l-1-1c-1.75-1.74-1.66-4,.23-5.9s4.15-2,5.9-.23l1,1c1.74,1.75,1.65,4-.24,5.9S291.7,983.42,290,981.67Zm1-2.93.89.9c.83.83,1.78.94,2.44.27s.57-1.61-.26-2.44l-.9-.9c-.83-.83-1.77-.94-2.44-.27S290.16,977.91,291,978.74Z" style="fill:#fff"/><path d="M295.16,965.32l2,2,2.22-2.23,1.51,1.51-2.18,2.17,2.73,2.73a.77.77,0,0,0,1.18-.06L304,970l1.49,1.48-1.62,1.62c-1.84,1.84-3,1.94-4.54.38l-2.7-2.69L295,972.4l-1.51-1.5,1.64-1.64-2-2Z" style="fill:#fff"/><path d="M304.43,967.19l-1-1c-1.74-1.74-1.65-4,.24-5.89s4.15-2,5.89-.24l1,1c1.75,1.75,1.65,4-.23,5.9S306.18,968.94,304.43,967.19Zm1-2.92.9.9c.83.82,1.77.93,2.44.26s.56-1.61-.27-2.44l-.9-.9a1.63,1.63,0,0,0-2.44-.26C304.52,962.49,304.63,963.44,305.46,964.27Z" style="fill:#fff"/><path d="M316.62,964.71,314.9,963l5.93-5.94,1.73,1.73Z" style="fill:#fff"/><path d="M319.45,944.81l2.27-2.27.46,5,6.05,1.22-2.32,2.32-4.06-.84,0,.85,2,2-2,2-8.75-8.75,2-2,4.76,4.76.11-.1Z" style="fill:#fff"/><path d="M326.15,945.48l-1-1c-1.75-1.74-1.66-4,.23-5.9s4.15-2,5.9-.23l1,1c1.74,1.74,1.65,4-.24,5.9S327.89,947.22,326.15,945.48Zm1-2.93.9.9c.83.83,1.78.94,2.44.27s.57-1.61-.26-2.44l-.9-.9c-.83-.83-1.77-.94-2.44-.27S326.35,941.72,327.17,942.55Z" style="fill:#fff"/><path d="M333.29,938.37l-1-1c-1.79-1.79-2-3.55-.52-5a2.17,2.17,0,0,1,2.93-.44l.13-.13-3.53-3.52,2.12-2.12,8.75,8.75L340,937l-1.16-1.17-.13.13a2.16,2.16,0,0,1-.43,3C336.84,940.34,335.08,940.16,333.29,938.37Zm4.12-4.1-1.13-1.13a1.45,1.45,0,1,0-2,2l1.13,1.13a1.45,1.45,0,1,0,2-2Z" style="fill:#fff"/><path d="M341.51,931.82c-1.16-1.16-1-2.7.56-4.49l1.21-1.4-.47-.47a1,1,0,0,0-1.45.12,1.18,1.18,0,0,0-.34,1.36l-2,2c-1.12-1.35-.78-3.22.88-4.89s3.49-1.91,4.92-.49l4.3,4.3-1.91,1.91-.79-.79-.17.17a2.74,2.74,0,0,1-.85,2.62A2.63,2.63,0,0,1,341.51,931.82Zm3.22-4.44-.29-.29-.85,1c-.57.67-.65,1.2-.26,1.6s.89.29,1.35-.17A1.42,1.42,0,0,0,344.73,927.38Z" style="fill:#fff"/><path d="M348.4,915.86l2.27-2.27.46,5,6.06,1.22-2.33,2.33-4.06-.85.06.86,2,2-2,2-8.75-8.75,2-2,4.77,4.76.1-.11Z" style="fill:#fff"/></g><g style="isolation:isolate"><path d="M340.22,1003.35l1,1c1.79,1.79,2,3.55.52,5a2.17,2.17,0,0,1-2.93.44l-.13.13,3.25,3.24-2.13,2.12-8.46-8.46,2.11-2.12,1.16,1.17.13-.12a2.17,2.17,0,0,1,.43-3C336.66,1001.38,338.43,1001.56,340.22,1003.35Zm-4.12,4.1,1.13,1.13a1.45,1.45,0,1,0,2-2l-1.14-1.13a1.44,1.44,0,1,0-2,2Z" style="fill:#fff"/><path d="M336.17,997.31l2-2,3.45,3.44.11-.11a2.64,2.64,0,0,1,.69-3c1.39-1.39,3-1.3,4.55.24l4.09,4.09-2,2-3.63-3.63c-.8-.8-1.55-.87-2.21-.21a1.52,1.52,0,0,0,.16,2.31l3.6,3.61-2,2Z" style="fill:#fff"/><path d="M349.46,996.15l-1-1c-1.75-1.75-1.65-4,.23-5.9s4.15-2,5.9-.23l1,1c1.74,1.74,1.65,4-.24,5.89S351.2,997.89,349.46,996.15Zm1-2.93.9.9c.83.83,1.77.93,2.44.26s.56-1.61-.27-2.44l-.9-.9c-.83-.82-1.77-.93-2.44-.26S349.66,992.39,350.49,993.22Z" style="fill:#fff"/><path d="M354.67,979.8l2,2,2.22-2.22,1.51,1.5-2.17,2.17,2.72,2.73a.77.77,0,0,0,1.19-.05l1.44-1.44,1.48,1.48-1.62,1.62c-1.84,1.84-3,1.94-4.54.38l-2.69-2.7-1.64,1.64-1.5-1.5,1.63-1.64-2-2Z" style="fill:#fff"/><path d="M363.94,981.67l-1-1c-1.74-1.74-1.65-4,.24-5.9s4.15-2,5.89-.23l1,1c1.74,1.75,1.65,4-.24,5.9S365.68,983.42,363.94,981.67Zm1-2.93.9.9c.83.83,1.77.94,2.44.27s.56-1.61-.26-2.44l-.9-.9c-.83-.83-1.77-.94-2.44-.27S364.14,977.91,365,978.74Z" style="fill:#fff"/><path d="M376.13,979.19l-1.73-1.73,5.93-5.93,1.73,1.72Z" style="fill:#fff"/><path d="M376.38,958.08l2,2,2.23-2.23,1.5,1.51-2.17,2.17,2.73,2.73a.77.77,0,0,0,1.18,0l1.44-1.44,1.48,1.48-1.62,1.61c-1.84,1.85-3,1.94-4.54.38l-2.69-2.69-1.63,1.63-1.51-1.5,1.64-1.63-2-2Z" style="fill:#fff"/><path d="M392.53,954.68c1.09,1.26.72,3.33-.86,4.92-1.94,1.93-4.07,2-5.88.2l-1.05-1c-1.66-1.66-1.56-4,.27-5.82a3.78,3.78,0,0,1,5.63-.12l1,1-4,3.95.4.39a1.41,1.41,0,0,0,2.11,0,1.38,1.38,0,0,0,.43-1.6Zm-6,2,2-2a1.43,1.43,0,0,0-2.18-.18A1.45,1.45,0,0,0,386.55,956.63Z" style="fill:#fff"/><path d="M395.71,947.24c-.78-.61-1.34-.61-1.93,0s-.45,1.59.6,2.63l.34.35c1,1,2,1.26,2.64.6s.6-1.11.05-1.86l2-2q2.28,2.64-.47,5.38c-2,2-4.1,2-6.1,0l-.57-.57c-2-2-2-4.12,0-6.11,1.84-1.83,3.62-2,5.47-.39Z" style="fill:#fff"/><path d="M396.49,941.75l2-2,1,1,.11-.11a2.62,2.62,0,0,1,.65-3c1.39-1.38,3-1.29,4.53.28l4.11,4.11-2,2-3.66-3.66c-.81-.81-1.52-.88-2.18-.23a1.49,1.49,0,0,0,.2,2.25l3.64,3.64-2,2Z" style="fill:#fff"/><path d="M403.3,930.44a1.82,1.82,0,1,1,2.38-.17A1.58,1.58,0,0,1,403.3,930.44Zm7,10.26-1.51-1.51,1.94-1.94-3.34-3.35-1.78,1.78-1.51-1.51,3.73-3.73,4.85,4.86,1.79-1.79L416,935Z" style="fill:#fff"/><path d="M417.43,925.53c-.79-.61-1.35-.62-1.94,0s-.44,1.59.6,2.64l.35.34c1,1,2,1.26,2.63.6s.61-1.11.05-1.86l2-2c1.51,1.77,1.36,3.56-.47,5.39-2,2-4.11,2-6.11,0l-.57-.57c-2-2-2-4.12,0-6.11,1.83-1.84,3.62-2,5.46-.4Z" style="fill:#fff"/><path d="M422.38,915.86l2.27-2.27.46,5,6.06,1.21-2.33,2.33-4.06-.84.06.85,2,2-2,2-8.75-8.75,2-2,4.77,4.76.1-.11Z" style="fill:#fff"/></g><g style="isolation:isolate"><path d="M401.1,1017.83l1,1c1.79,1.79,2,3.55.52,5a2.19,2.19,0,0,1-2.94.44l-.12.13,3.24,3.24-2.12,2.12-8.47-8.47,2.11-2.11,1.16,1.17.13-.13a2.17,2.17,0,0,1,.43-3C397.55,1015.86,399.31,1016,401.1,1017.83Zm-4.12,4.1,1.13,1.13a1.45,1.45,0,1,0,2-2l-1.13-1.13a1.45,1.45,0,1,0-2,2Z" style="fill:#fff"/><path d="M397.05,1011.78l2-2,3.44,3.45.11-.11a2.65,2.65,0,0,1,.7-3.06c1.38-1.38,3-1.29,4.54.25l4.09,4.09-2,2-3.63-3.63c-.8-.8-1.54-.87-2.21-.21a1.53,1.53,0,0,0,.16,2.31l3.61,3.6-2,2Z" style="fill:#fff"/><path d="M410.34,1010.62l-1-1c-1.74-1.74-1.65-4,.24-5.89s4.15-2,5.89-.24l1,1c1.75,1.75,1.65,4-.23,5.9S412.09,1012.37,410.34,1010.62Zm1-2.92.9.89c.83.83,1.77.94,2.44.27s.56-1.61-.27-2.44l-.9-.9c-.82-.83-1.77-.94-2.44-.27S410.54,1006.87,411.37,1007.7Z" style="fill:#fff"/><path d="M415.55,994.28l2,2,2.23-2.23,1.5,1.51-2.17,2.17,2.73,2.73a.77.77,0,0,0,1.18,0l1.44-1.44,1.48,1.48-1.62,1.62c-1.84,1.84-3,1.93-4.54.37l-2.69-2.69-1.64,1.64-1.5-1.51,1.64-1.63-2-2Z" style="fill:#fff"/><path d="M424.82,996.15l-1-1c-1.75-1.75-1.66-4,.23-5.9s4.15-2,5.9-.23l1,1c1.74,1.74,1.65,4-.24,5.89S426.56,997.89,424.82,996.15Zm1-2.93.9.9a1.64,1.64,0,0,0,2.44.27c.67-.67.56-1.62-.27-2.45l-.9-.89c-.83-.83-1.77-.94-2.44-.27S425,992.39,425.85,993.22Z" style="fill:#fff"/><path d="M437,993.67l-1.73-1.73,5.94-5.94,1.72,1.73Z" style="fill:#fff"/><path d="M447.45,978.88l-1.68,1.68-4.58-3.17,0,.05,3.16,4.57-1.68,1.69-7.57-5.16,1.91-1.91,4.31,3.91.28-.28-3.65-4.51,1.59-1.59,4.52,3.65.27-.28-3.91-4.31,1.92-1.92Z" style="fill:#fff"/><path d="M442.47,966.63a1.82,1.82,0,1,1,2.37-.17A1.57,1.57,0,0,1,442.47,966.63Zm7,10.26-1.51-1.51,1.94-1.94-3.34-3.35-1.78,1.78-1.51-1.51,3.73-3.73,4.85,4.86,1.79-1.79,1.51,1.51Z" style="fill:#fff"/><path d="M454.31,959.29l2.27-2.27.46,5,6.06,1.22-2.33,2.33-4.06-.85.06.86,2,2-2,2L448,960.84l2-2,4.77,4.76.1-.11Z" style="fill:#fff"/><path d="M456.94,952.15a1.82,1.82,0,1,1,2.38-.17A1.58,1.58,0,0,1,456.94,952.15Zm7,10.27-1.51-1.51,2-1.95L461,955.62l-1.78,1.78-1.51-1.51,3.73-3.73L466.3,957l1.79-1.79,1.51,1.51Z" style="fill:#fff"/><path d="M473.48,945.45l1,1c1.78,1.79,2,3.55.51,5a2.18,2.18,0,0,1-2.93.44l-.12.13,3.24,3.24-2.12,2.12L464.64,949l2.11-2.11,1.16,1.17.13-.13a2.17,2.17,0,0,1,.43-3C469.93,943.48,471.69,943.66,473.48,945.45Zm-4.12,4.1,1.13,1.13a1.45,1.45,0,1,0,2-2l-1.13-1.13a1.45,1.45,0,1,0-2,2Z" style="fill:#fff"/><path d="M482.37,940.21c1.08,1.25.72,3.33-.87,4.91-1.93,1.94-4.07,2-5.87.21l-1.06-1.05c-1.66-1.67-1.55-4,.27-5.82a3.79,3.79,0,0,1,5.63-.13l1,1-3.95,3.95.39.4a1.43,1.43,0,0,0,2.12,0,1.37,1.37,0,0,0,.42-1.6Zm-6,1.94,2-2a1.45,1.45,0,1,0-2,2Z" style="fill:#fff"/><path d="M482.63,938.37l-1.05-1c-1.79-1.79-2-3.55-.52-5a2.19,2.19,0,0,1,2.94-.44l.12-.13-3.52-3.52,2.12-2.12,8.75,8.75L489.36,937l-1.17-1.17-.12.13a2.16,2.16,0,0,1-.44,3C486.18,940.34,484.42,940.16,482.63,938.37Zm4.12-4.09-1.13-1.14a1.45,1.45,0,1,0-2,2l1.13,1.13a1.44,1.44,0,1,0,2-2Z" style="fill:#fff"/><path d="M485.89,923.2a1.82,1.82,0,1,1,2.38-.17A1.57,1.57,0,0,1,485.89,923.2Zm7,10.26-1.5-1.5,1.94-2L490,926.67l-1.77,1.77-1.51-1.51,3.72-3.72,4.86,4.85,1.79-1.79,1.51,1.51Z" style="fill:#fff"/><path d="M498.09,924.58c-1.16-1.16-1-2.7.56-4.48l1.21-1.4-.48-.48a1,1,0,0,0-1.44.12,1.2,1.2,0,0,0-.34,1.37l-2,2c-1.12-1.35-.79-3.22.88-4.88s3.49-1.92,4.92-.5l4.3,4.3-1.91,1.91-.79-.79-.18.18a2.72,2.72,0,0,1-.84,2.62A2.64,2.64,0,0,1,498.09,924.58Zm3.22-4.43-.29-.29-.85,1c-.57.68-.66,1.21-.26,1.6s.88.29,1.35-.17A1.42,1.42,0,0,0,501.31,920.15Z" style="fill:#fff"/></g><g style="isolation:isolate"><path d="M542.53,952.69l1,1c1.79,1.79,2,3.55.52,5a2.18,2.18,0,0,1-2.93.44l-.13.13,3.25,3.24-2.13,2.12-8.46-8.47,2.11-2.11,1.16,1.17.13-.13a2.16,2.16,0,0,1,.43-3C539,950.72,540.74,950.9,542.53,952.69Zm-4.12,4.1,1.13,1.13a1.45,1.45,0,1,0,2-2l-1.14-1.13a1.44,1.44,0,1,0-2,2Z" style="fill:#fff"/><path d="M540.9,949l2-2,1,1L544,948a2.6,2.6,0,0,1,.65-3c1.38-1.38,3-1.29,4.53.28l4.11,4.11-2,2-3.66-3.66c-.81-.81-1.51-.88-2.17-.23a1.49,1.49,0,0,0,.2,2.25l3.64,3.64-2,2Z" style="fill:#fff"/><path d="M554.81,948.79l2-2c.44.26,1.06.06,1.66-.54.76-.76.81-1.49.14-2.16l-1.4-1.4-.12.13a2.49,2.49,0,0,1-.61,3.13c-1.46,1.47-3.26,1.29-5-.48l-.85-.86c-1.8-1.8-1.93-3.6-.38-5.15a2.44,2.44,0,0,1,3.06-.56l.12-.13-1.13-1.14,2-2,6.35,6.35c1.48,1.48,1.17,3.65-.8,5.62C558,949.46,556.07,949.89,554.81,948.79Zm.87-5.31a1.44,1.44,0,0,0,0-2.19l-.94-.94a1.52,1.52,0,1,0-2.15,2.15l.94.94A1.44,1.44,0,0,0,555.68,943.48Z" style="fill:#fff"/><path d="M554.94,930.44a1.82,1.82,0,1,1,2.38-.17A1.58,1.58,0,0,1,554.94,930.44Zm7,10.26-1.51-1.51,2-1.94L559,933.9l-1.78,1.78-1.51-1.51,3.73-3.72,4.86,4.85,1.79-1.79L567.6,935Z" style="fill:#fff"/><path d="M575.33,927.29,573.65,929l-4.41-4.42a.6.6,0,1,0-.84.84l4.42,4.41-1.65,1.65L566.75,927a.59.59,0,1,0-.83.84l4.41,4.41L568.66,934l-6.37-6.37,1.75-1.74,1.05,1,.22-.22a1.7,1.7,0,0,1,0-2.4,1.63,1.63,0,0,1,2.22.05l.21-.22a1.61,1.61,0,0,1,0-2.22c.71-.71,1.63-.6,2.54.31Z" style="fill:#fff"/><path d="M576.52,927.08l2-2c.43.27,1.06.07,1.65-.53.77-.76.82-1.49.15-2.16l-1.4-1.4-.13.12a2.5,2.5,0,0,1-.6,3.14c-1.47,1.46-3.27,1.28-5-.49l-.86-.86c-1.8-1.79-1.93-3.59-.37-5.15a2.43,2.43,0,0,1,3.05-.56l.13-.12L573.93,916l2-2,6.36,6.36c1.47,1.47,1.16,3.65-.8,5.61C579.67,927.74,577.78,928.17,576.52,927.08Zm.87-5.32a1.43,1.43,0,0,0,0-2.18l-1-1a1.52,1.52,0,1,0-2.15,2.15l1,1A1.43,1.43,0,0,0,577.39,921.76Z" style="fill:#fff"/></g><g style="isolation:isolate"><path d="M546.62,1018.21c1.71-1.71,3.39-2,4.7-.74l-1.88,1.89c-.39-.31-.92-.19-1.4.28s-.54,1-.24,1.27.65.21,1.23-.17l1.26-.86c1.59-1.07,2.72-1.1,3.72-.1,1.35,1.35,1.09,3.3-.68,5.08s-3.53,2.1-4.85.91l2-2c.41.29.93.15,1.46-.39s.6-1,.29-1.3-.58-.2-1.26.25l-1.17.77c-1.48,1-2.76,1-3.79-.07C544.67,1021.75,544.91,1019.91,546.62,1018.21Z" style="fill:#fff"/><path d="M557.5,1012.38c-.79-.61-1.35-.61-1.93,0s-.45,1.59.6,2.64l.34.34c1,1,2,1.26,2.64.6s.6-1.11.05-1.86l2-2c1.52,1.77,1.36,3.56-.47,5.39-2,2-4.11,2-6.11,0l-.57-.57c-2-2-2-4.12,0-6.11,1.84-1.83,3.62-2,5.46-.39Z" style="fill:#fff"/><path d="M566.26,1008.89l1.76-1.76,1.37,1.38-4.83,4.83-1.37-1.37,1.15-1.16-3.62-3.62-1.27,1.27-1.37-1.37,3.21-3.21,1.64,1.63.34-.34c-1-1.63-.94-2.67.24-3.85a3.69,3.69,0,0,1,1-.77l2.06,2.06a4.18,4.18,0,0,0-1.26.88c-1.58,1.58-1.73,2.74-.5,4Z" style="fill:#fff"/><path d="M576,998.11c1.09,1.26.72,3.33-.86,4.91-1.94,1.94-4.07,2-5.88.21l-1-1.05c-1.66-1.67-1.56-4,.27-5.82a3.78,3.78,0,0,1,5.63-.12l1,1-4,4,.4.39a1.41,1.41,0,0,0,2.11,0,1.38,1.38,0,0,0,.43-1.6Zm-6,1.95,2-2a1.43,1.43,0,0,0-2.18-.19A1.45,1.45,0,0,0,570.05,1000.06Z" style="fill:#fff"/><path d="M583.27,990.88c1.08,1.25.72,3.32-.86,4.91-1.94,1.94-4.07,2-5.88.2l-1-1c-1.67-1.66-1.56-4,.27-5.82a3.78,3.78,0,0,1,5.62-.12l1,1-3.95,4,.4.4a1.41,1.41,0,0,0,2.11,0,1.39,1.39,0,0,0,.43-1.6Zm-6,1.94,2-2a1.42,1.42,0,0,0-2.17-.18A1.44,1.44,0,0,0,577.29,992.82Z" style="fill:#fff"/><path d="M580,985.18l2-2,1,1,.11-.11a2.61,2.61,0,0,1,.65-3c1.38-1.38,3-1.29,4.53.28l4.11,4.11-2,2-3.66-3.66c-.81-.81-1.52-.88-2.18-.23a1.49,1.49,0,0,0,.2,2.25l3.64,3.64-2,2Z" style="fill:#fff"/><path d="M590.05,974.78c1.71-1.71,3.39-2,4.7-.74l-1.89,1.89c-.38-.3-.92-.19-1.39.29s-.54,1-.25,1.26.66.22,1.24-.17l1.26-.85c1.59-1.08,2.72-1.11,3.71-.11,1.36,1.35,1.1,3.3-.68,5.08s-3.52,2.1-4.85.92l2-2c.41.29.92.15,1.46-.38s.6-1,.29-1.3-.58-.21-1.26.24l-1.17.77c-1.48,1-2.76,1-3.79-.06C588.1,978.33,588.34,976.49,590.05,974.78Z" style="fill:#fff"/><path d="M592.05,968.35l2-2,3.45,3.44.11-.11a2.64,2.64,0,0,1,.69-3.05c1.39-1.39,3-1.3,4.55.24l4.09,4.09-2,2-3.63-3.63c-.8-.8-1.55-.87-2.21-.21a1.52,1.52,0,0,0,.16,2.31l3.6,3.6-2,2Z" style="fill:#fff"/><path d="M605.34,967.2l-1-1c-1.75-1.75-1.65-4,.23-5.9s4.15-2,5.9-.24l1,1c1.74,1.74,1.65,4-.24,5.89S607.08,968.94,605.34,967.2Zm1-2.93.9.9c.83.82,1.77.93,2.44.26s.56-1.61-.27-2.44l-.9-.9c-.83-.82-1.77-.93-2.44-.26S605.54,963.44,606.37,964.27Z" style="fill:#fff"/><path d="M610.55,950.85l2,2,2.22-2.22,1.51,1.5-2.17,2.17L616.8,957a.77.77,0,0,0,1.19,0l1.44-1.44,1.48,1.48-1.62,1.62c-1.84,1.84-3,1.94-4.54.38l-2.69-2.7-1.64,1.64-1.5-1.51,1.63-1.63-2-2Z" style="fill:#fff"/><path d="M624.77,957.48,623,955.75l5.94-5.94,1.72,1.73Z" style="fill:#fff"/><path d="M630.09,948.79l2-2c.43.26,1.06.06,1.65-.54.77-.76.82-1.49.15-2.16l-1.4-1.4-.13.13a2.49,2.49,0,0,1-.6,3.13c-1.47,1.47-3.27,1.29-5-.49l-.86-.85c-1.8-1.8-1.93-3.6-.37-5.15a2.42,2.42,0,0,1,3-.57l.13-.12-1.14-1.14,2-2,6.35,6.35c1.48,1.48,1.17,3.65-.8,5.62C633.23,949.46,631.35,949.88,630.09,948.79Zm.87-5.32a1.43,1.43,0,0,0,0-2.18l-.94-.94a1.52,1.52,0,1,0-2.15,2.15l.94.94A1.43,1.43,0,0,0,631,943.47Z" style="fill:#fff"/><path d="M635.18,939.06c-1.16-1.17-1-2.7.56-4.49l1.21-1.4-.47-.47a1,1,0,0,0-1.45.12,1.18,1.18,0,0,0-.34,1.36l-2,2c-1.12-1.35-.78-3.21.88-4.88s3.49-1.91,4.92-.49l4.3,4.3L640.92,937l-.79-.79-.17.17a2.74,2.74,0,0,1-.85,2.62A2.63,2.63,0,0,1,635.18,939.06Zm3.22-4.44-.29-.29-.84,1c-.58.67-.66,1.2-.27,1.6s.89.29,1.35-.17A1.42,1.42,0,0,0,638.4,934.62Z" style="fill:#fff"/><path d="M650.61,927.29,648.93,929l-4.41-4.41a.61.61,0,0,0-.89,0,.6.6,0,0,0,.06.88l4.41,4.42-1.65,1.65L642,927a.6.6,0,0,0-.89,0,.61.61,0,0,0,.05.89l4.42,4.41L643.94,934l-6.36-6.37,1.74-1.74,1,1,.22-.22a1.7,1.7,0,0,1,0-2.4,1.62,1.62,0,0,1,2.22.05l.22-.22a1.6,1.6,0,0,1,0-2.23c.71-.7,1.62-.59,2.53.32Z" style="fill:#fff"/><path d="M655.65,918.5c1.08,1.25.72,3.32-.86,4.91-1.94,1.94-4.07,2-5.88.2l-1-1.05c-1.67-1.66-1.56-4,.27-5.81a3.77,3.77,0,0,1,5.62-.13l1,1-3.95,4,.4.4a1.41,1.41,0,0,0,2.11,0,1.39,1.39,0,0,0,.43-1.6Zm-6,1.94,2-2a1.42,1.42,0,0,0-2.17-.19A1.44,1.44,0,0,0,649.67,920.44Z" style="fill:#fff"/></g><g style="isolation:isolate"><path d="M629.13,1011c1.71-1.71,3.39-2,4.71-.74l-1.89,1.89c-.38-.3-.92-.19-1.4.28s-.54,1-.24,1.27.65.22,1.23-.17l1.27-.86c1.59-1.07,2.71-1.1,3.71-.1,1.35,1.35,1.1,3.3-.68,5.08s-3.53,2.1-4.85.92l2-2c.41.29.93.15,1.47-.39s.59-1,.29-1.29-.59-.21-1.27.24l-1.16.77c-1.49,1-2.77,1-3.8-.07C627.19,1014.51,627.43,1012.67,629.13,1011Z" style="fill:#fff"/><path d="M640,1005.14c-.78-.61-1.34-.61-1.93,0s-.45,1.59.6,2.64l.34.34c1.05,1,2,1.26,2.64.6s.6-1.11.05-1.86l2-2c1.52,1.77,1.36,3.56-.47,5.39-2,2-4.1,2-6.11,0l-.57-.57c-2-2-2-4.11,0-6.1s3.62-2,5.46-.4Z" style="fill:#fff"/><path d="M648.77,1001.65l1.76-1.75,1.37,1.37-4.83,4.83-1.37-1.37,1.15-1.16-3.62-3.62-1.27,1.27-1.37-1.37,3.22-3.21,1.63,1.63.34-.34c-1-1.63-.94-2.67.24-3.85a3.85,3.85,0,0,1,1-.77l2.06,2.06a4.31,4.31,0,0,0-1.26.88c-1.58,1.58-1.72,2.74-.5,4Z" style="fill:#fff"/><path d="M658.55,990.87c1.08,1.26.72,3.33-.87,4.92-1.94,1.93-4.07,2-5.88.2l-1-1c-1.66-1.66-1.55-4,.27-5.82a3.78,3.78,0,0,1,5.63-.12l1,1-3.95,4,.39.39a1.42,1.42,0,0,0,2.12,0,1.37,1.37,0,0,0,.42-1.6Zm-6,2,2-2a1.44,1.44,0,0,0-2.18-.19A1.46,1.46,0,0,0,652.56,992.82Z" style="fill:#fff"/><path d="M665.78,983.64c1.08,1.25.72,3.32-.86,4.91-1.94,1.94-4.07,2-5.88.2l-1-1c-1.66-1.66-1.56-4,.27-5.81a3.78,3.78,0,0,1,5.63-.13l1,1-4,4,.4.39a1.41,1.41,0,0,0,2.11,0,1.37,1.37,0,0,0,.43-1.6Zm-6,1.94,2-2c-.74-.74-1.56-.82-2.18-.19A1.44,1.44,0,0,0,659.8,985.58Z" style="fill:#fff"/><path d="M662.5,977.94l2-2,1,1,.11-.11a2.61,2.61,0,0,1,.65-3c1.39-1.38,3-1.29,4.53.28l4.11,4.11-2,2-3.66-3.66c-.81-.81-1.52-.88-2.17-.23a1.48,1.48,0,0,0,.2,2.25l3.63,3.64-2,2Z" style="fill:#fff"/><path d="M672.56,967.54c1.71-1.71,3.39-2,4.7-.74l-1.88,1.89c-.39-.3-.92-.19-1.4.29s-.54,1-.24,1.26.65.22,1.23-.17l1.26-.85c1.59-1.08,2.72-1.11,3.72-.11,1.35,1.35,1.09,3.3-.68,5.08s-3.53,2.1-4.85.92l2-2c.41.29.93.15,1.46-.38s.6-1,.29-1.3-.58-.21-1.26.24l-1.17.77c-1.48,1-2.76,1-3.79-.06C670.61,971.09,670.85,969.25,672.56,967.54Z" style="fill:#fff"/><path d="M674.56,961.12l2-2,3.44,3.44.11-.11a2.64,2.64,0,0,1,.69-3.05c1.39-1.39,3-1.3,4.55.24l4.09,4.09-2,2-3.63-3.63c-.8-.8-1.54-.87-2.21-.21a1.53,1.53,0,0,0,.16,2.31l3.6,3.61-2,2Z" style="fill:#fff"/><path d="M687.85,960l-1-1c-1.74-1.75-1.65-4,.23-5.9s4.16-2,5.9-.23l1,1c1.75,1.74,1.65,4-.23,5.89S689.6,961.7,687.85,960Zm1-2.93.9.9c.83.82,1.77.93,2.44.26s.56-1.61-.27-2.44l-.9-.89c-.83-.83-1.77-.94-2.44-.27S688.05,956.2,688.88,957Z" style="fill:#fff"/><path d="M693.06,943.61l2,2,2.23-2.22,1.5,1.5L696.59,947l2.72,2.73a.77.77,0,0,0,1.19,0l1.44-1.44,1.48,1.48-1.62,1.62c-1.84,1.84-3,1.94-4.54.38l-2.69-2.7-1.64,1.64-1.5-1.51,1.63-1.63-2-2Z" style="fill:#fff"/><path d="M707.28,950.24l-1.73-1.73,5.94-5.93,1.72,1.72Z" style="fill:#fff"/><path d="M717.73,935.45,716,937.13,711.46,934l0,0,3.17,4.57-1.69,1.69-7.57-5.16,1.91-1.91,4.31,3.91.28-.27-3.65-4.52,1.59-1.59,4.52,3.65.27-.28-3.91-4.31,1.92-1.91Z" style="fill:#fff"/><path d="M723.69,925.73c1.08,1.25.72,3.33-.87,4.91-1.93,1.94-4.07,2-5.87.21l-1.06-1.05c-1.66-1.67-1.55-4,.27-5.82a3.78,3.78,0,0,1,5.63-.12l1,1-4,4,.39.39a1.42,1.42,0,0,0,2.12,0,1.37,1.37,0,0,0,.42-1.6Zm-6,1.95,2-2a1.43,1.43,0,0,0-2.18-.19A1.46,1.46,0,0,0,717.71,927.68Z" style="fill:#fff"/><path d="M727.86,923l-.12.12,1.16,1.17-2.11,2.11L718,917.63l2.12-2.12,3.53,3.52.12-.12a2.21,2.21,0,0,1,.44-2.94c1.46-1.45,3.22-1.27,5,.52l1,1c1.79,1.79,2,3.55.52,5A2.16,2.16,0,0,1,727.86,923Zm.38-3.36-1.13-1.13a1.44,1.44,0,1,0-2,2l1.13,1.14a1.44,1.44,0,1,0,2-2Z" style="fill:#fff"/></g><g style="isolation:isolate"><path d="M702.69,1008.75l2,2,2.22-2.23,1.51,1.5-2.17,2.18,2.72,2.73a.78.78,0,0,0,1.19-.06l1.44-1.44,1.48,1.48-1.62,1.62c-1.84,1.84-3,1.94-4.54.38l-2.69-2.69-1.64,1.63-1.5-1.5,1.63-1.64-2-2Z" style="fill:#fff"/><path d="M718.84,1005.35c1.08,1.25.72,3.33-.86,4.91-1.94,1.94-4.07,2-5.88.21l-1.05-1.05c-1.67-1.67-1.56-4,.27-5.82a3.77,3.77,0,0,1,5.62-.12l1,1-4,4,.39.39a1.43,1.43,0,0,0,2.12,0,1.37,1.37,0,0,0,.42-1.6Zm-6,1.94,2-2a1.45,1.45,0,1,0-2,2Z" style="fill:#fff"/><path d="M722.89,1001.16l.93,3-2.11,2.11-1.22-5-5.16-1.32,2.31-2.3,2.92,1,.1-.11-1-2.93,2.19-2.19,1.23,5.08,5.14,1.28L726,1002l-3-.92Z" style="fill:#fff"/><path d="M724.4,987l2,2,2.23-2.22,1.5,1.5-2.17,2.17,2.73,2.73a.76.76,0,0,0,1.18-.05l1.44-1.44,1.48,1.48-1.61,1.62c-1.85,1.84-3,1.94-4.55.38l-2.69-2.7-1.63,1.64-1.51-1.51,1.64-1.63-2-2Z" style="fill:#fff"/><path d="M742.44,985.51l-2,2-1-1-.1.11a2.62,2.62,0,0,1-.66,3c-1.38,1.38-3,1.29-4.53-.28L730,985.18l2-2,3.66,3.66c.81.81,1.51.88,2.17.23a1.49,1.49,0,0,0-.2-2.25l-3.64-3.64,2-2Z" style="fill:#fff"/><path d="M745.26,979.94l1.75-1.76,1.38,1.38-4.83,4.83L742.18,983l1.16-1.16-3.62-3.62-1.27,1.27-1.37-1.37,3.21-3.22,1.64,1.64.33-.34c-1-1.63-.93-2.67.24-3.85a3.67,3.67,0,0,1,1-.77l2.06,2a4.28,4.28,0,0,0-1.26.89c-1.58,1.57-1.73,2.74-.51,4Z" style="fill:#fff"/><path d="M755,969.16c1.08,1.25.72,3.33-.86,4.91-1.94,1.94-4.07,2-5.88.21l-1-1c-1.67-1.67-1.56-4,.27-5.82a3.77,3.77,0,0,1,5.62-.12l1,1-3.95,3.95.39.39a1.43,1.43,0,0,0,2.12,0,1.37,1.37,0,0,0,.42-1.6Zm-6,2,2-2a1.43,1.43,0,0,0-2.18-.19A1.46,1.46,0,0,0,749.05,971.11Z" style="fill:#fff"/><path d="M754.57,960.31c1.71-1.71,3.39-2,4.7-.74l-1.88,1.89c-.39-.31-.93-.19-1.4.28s-.54,1-.25,1.26.66.22,1.24-.17l1.26-.85c1.59-1.07,2.72-1.1,3.71-.11,1.36,1.36,1.1,3.31-.68,5.09s-3.52,2.09-4.85.91l2-2c.41.28.92.15,1.46-.39s.6-1,.29-1.3-.58-.2-1.26.25l-1.17.76c-1.48,1-2.77,1-3.79-.06C752.62,963.85,752.86,962,754.57,960.31Z" style="fill:#fff"/><path d="M767.57,964.72,765.85,963l5.93-5.94,1.73,1.73Z" style="fill:#fff"/><path d="M775.09,945.45l1,1c1.79,1.79,2,3.55.52,5a2.18,2.18,0,0,1-2.93.44l-.13.13,3.24,3.24-2.12,2.12L766.25,949l2.11-2.11,1.17,1.17.12-.13a2.16,2.16,0,0,1,.44-3C771.54,943.48,773.3,943.66,775.09,945.45Zm-4.12,4.1,1.14,1.13a1.44,1.44,0,1,0,2-2L773,947.51a1.45,1.45,0,1,0-2,2Z" style="fill:#fff"/><path d="M771,939.4l2-2,3.44,3.45.11-.11a2.66,2.66,0,0,1,.7-3c1.38-1.39,3-1.3,4.55.24L785.9,942l-2,2-3.64-3.63c-.8-.8-1.54-.87-2.2-.21a1.52,1.52,0,0,0,.15,2.31l3.61,3.6-2,2Z" style="fill:#fff"/><path d="M784.33,938.24l-1-1c-1.74-1.74-1.65-4,.24-5.89s4.15-2,5.89-.24l1,1c1.74,1.75,1.65,4-.24,5.9S786.08,940,784.33,938.24Zm1-2.92.9.89c.83.83,1.78.94,2.44.27s.56-1.61-.26-2.44l-.9-.9c-.83-.83-1.77-.93-2.44-.26S784.54,934.49,785.36,935.32Z" style="fill:#fff"/><path d="M789.54,921.9l2,2,2.22-2.23,1.5,1.51-2.17,2.17,2.73,2.73a.77.77,0,0,0,1.18,0l1.44-1.44,1.49,1.48-1.62,1.62c-1.84,1.84-3,1.93-4.54.37l-2.7-2.69L789.42,929l-1.51-1.51,1.64-1.63-2-2Z" style="fill:#fff"/><path d="M798.81,923.77l-1-1c-1.74-1.75-1.65-4,.24-5.9s4.15-2,5.89-.23l1,1c1.75,1.74,1.65,4-.23,5.89S800.56,925.51,798.81,923.77Zm1-2.93.9.9c.83.83,1.77.94,2.44.27s.56-1.62-.27-2.44l-.9-.9c-.82-.83-1.77-.94-2.44-.27S799,920,799.84,920.84Z" style="fill:#fff"/></g><g style="isolation:isolate"><path d="M801.69,987l2,2,2.22-2.22,1.51,1.5-2.18,2.17,2.73,2.73a.78.78,0,0,0,1.19-.05l1.44-1.44,1.48,1.48-1.62,1.62c-1.84,1.84-3,1.94-4.54.37l-2.69-2.69-1.64,1.64-1.5-1.51,1.63-1.63-2-2Z" style="fill:#fff"/><path d="M817.84,983.64c1.08,1.25.72,3.32-.86,4.91-1.94,1.94-4.08,2-5.88.2l-1.06-1c-1.66-1.66-1.55-4,.27-5.81a3.78,3.78,0,0,1,5.63-.13l1,1-4,4,.39.4a1.43,1.43,0,0,0,2.12,0,1.37,1.37,0,0,0,.42-1.6Zm-6,1.94,2-2a1.43,1.43,0,0,0-2.18-.19A1.45,1.45,0,0,0,811.86,985.58Z" style="fill:#fff"/><path d="M821.89,979.44l.93,3-2.11,2.11-1.23-5-5.15-1.32,2.31-2.31,2.91,1,.11-.11-1-2.92,2.19-2.19,1.23,5.07,5.14,1.28L825,980.26l-3-.93Z" style="fill:#fff"/><path d="M823.4,965.32l2,2,2.23-2.23,1.5,1.51-2.17,2.17,2.73,2.73a.77.77,0,0,0,1.18-.06l1.44-1.44,1.48,1.48-1.62,1.62c-1.84,1.84-3,1.94-4.54.38l-2.69-2.69-1.64,1.63-1.5-1.5,1.64-1.64-2-2Z" style="fill:#fff"/><path d="M841.43,963.79l-2,2-1-1-.11.11a2.6,2.6,0,0,1-.65,3c-1.38,1.39-3,1.29-4.53-.27L829,963.47l2-2,3.66,3.66c.81.81,1.51.89,2.17.23a1.49,1.49,0,0,0-.2-2.25l-3.64-3.63,2-2Z" style="fill:#fff"/><path d="M844.26,958.22l1.75-1.75,1.38,1.37-4.84,4.83-1.37-1.37,1.16-1.15-3.62-3.62-1.27,1.26-1.38-1.37,3.22-3.21,1.63,1.63.34-.33c-1-1.63-.94-2.68.24-3.86a4.11,4.11,0,0,1,1-.77l2.05,2.06a4.15,4.15,0,0,0-1.25.88c-1.58,1.58-1.73,2.75-.51,4Z" style="fill:#fff"/><path d="M854,947.45c1.08,1.25.72,3.32-.86,4.91-1.94,1.94-4.08,2-5.88.2l-1.06-1c-1.66-1.66-1.55-4,.27-5.81a3.79,3.79,0,0,1,5.63-.13l1,1-3.95,3.95.39.4a1.42,1.42,0,0,0,2.12,0,1.37,1.37,0,0,0,.42-1.6Zm-6,1.94,2-2a1.43,1.43,0,0,0-2.18-.19A1.45,1.45,0,0,0,848.05,949.39Z" style="fill:#fff"/><path d="M853.56,938.59c1.71-1.71,3.4-2,4.71-.74l-1.89,1.89c-.38-.3-.92-.19-1.39.29s-.55,1-.25,1.26.65.22,1.24-.17l1.26-.85c1.59-1.08,2.72-1.11,3.71-.11,1.36,1.35,1.1,3.3-.68,5.08s-3.53,2.1-4.85.92l2-2c.41.29.92.15,1.46-.39s.59-1,.29-1.29-.58-.21-1.26.24l-1.17.77c-1.49,1-2.77,1-3.79-.07C851.62,942.14,851.86,940.29,853.56,938.59Z" style="fill:#fff"/><path d="M866.57,943l-1.72-1.73,5.93-5.93,1.73,1.72Z" style="fill:#fff"/><path d="M874.09,923.74l1,1c1.79,1.79,2,3.55.52,5a2.2,2.2,0,0,1-2.94.44l-.12.12,3.24,3.24-2.12,2.13-8.47-8.47,2.11-2.11,1.17,1.16.12-.12a2.16,2.16,0,0,1,.44-3C870.54,921.76,872.3,922,874.09,923.74ZM870,927.83l1.14,1.13a1.44,1.44,0,1,0,2-2L872,925.79a1.45,1.45,0,1,0-2,2Z" style="fill:#fff"/><path d="M876.64,915.86l2.26-2.27.47,5,6,1.22-2.32,2.33-4.06-.85.05.86,2,2-2,2-8.75-8.75,2-2,4.76,4.76.11-.11Z" style="fill:#fff"/></g><g style="isolation:isolate"><path d="M863.68,1001.51l2,2,2.22-2.23,1.51,1.51-2.18,2.17,2.73,2.73a.79.79,0,0,0,1.19,0l1.44-1.45,1.48,1.49-1.62,1.61c-1.84,1.85-3,1.94-4.54.38l-2.69-2.69-1.64,1.63-1.5-1.5,1.63-1.64-2-2Z" style="fill:#fff"/><path d="M879.83,998.11c1.08,1.26.72,3.33-.87,4.92-1.93,1.93-4.07,2-5.87.2l-1.06-1.05c-1.66-1.66-1.55-4,.27-5.82a3.78,3.78,0,0,1,5.63-.12l1,1-4,4,.39.39a1.42,1.42,0,0,0,2.12,0,1.37,1.37,0,0,0,.42-1.6Zm-6,1.95,2-2a1.44,1.44,0,0,0-2.18-.19A1.46,1.46,0,0,0,873.85,1000.06Z" style="fill:#fff"/><path d="M883.88,993.92l.93,3L882.7,999l-1.23-5-5.15-1.32,2.31-2.3,2.91,1,.11-.11-1-2.93,2.19-2.19,1.22,5.08,5.15,1.28L887,994.74l-3-.93Z" style="fill:#fff"/><path d="M885.39,979.8l2,2,2.23-2.22,1.5,1.5-2.17,2.18,2.73,2.72a.76.76,0,0,0,1.18-.05l1.44-1.44,1.48,1.48-1.62,1.62c-1.84,1.84-3,1.94-4.54.38l-2.69-2.7-1.64,1.64-1.5-1.5,1.64-1.64-2-2Z" style="fill:#fff"/><path d="M903.42,978.27l-2,2-1-1-.11.11a2.6,2.6,0,0,1-.65,3c-1.38,1.38-3,1.29-4.53-.28L891,977.94l2-2,3.66,3.66c.81.81,1.51.88,2.17.23a1.49,1.49,0,0,0-.2-2.25L895,973.92l2-2Z" style="fill:#fff"/><path d="M906.25,972.7,908,971l1.38,1.37-4.84,4.83-1.37-1.37,1.16-1.16L900.71,971l-1.27,1.27-1.38-1.37,3.22-3.21,1.63,1.63.34-.34c-1-1.63-.94-2.67.24-3.85a3.88,3.88,0,0,1,1-.77l2.05,2.06a4.15,4.15,0,0,0-1.25.88c-1.58,1.58-1.73,2.74-.51,4Z" style="fill:#fff"/><path d="M916,961.92c1.08,1.26.72,3.33-.87,4.91-1.93,1.94-4.07,2-5.87.21l-1.06-1c-1.66-1.66-1.55-4,.27-5.82a3.78,3.78,0,0,1,5.63-.12l1,1L911.2,965l.39.39a1.42,1.42,0,0,0,2.12,0,1.37,1.37,0,0,0,.42-1.6Zm-6,2,2-2a1.44,1.44,0,0,0-2.18-.19A1.46,1.46,0,0,0,910,963.87Z" style="fill:#fff"/><path d="M915.55,953.07c1.71-1.71,3.39-2,4.71-.74l-1.89,1.89c-.38-.31-.92-.19-1.39.28s-.55,1-.25,1.27.65.21,1.24-.18l1.26-.85c1.59-1.07,2.72-1.1,3.71-.11,1.36,1.36,1.1,3.31-.68,5.09s-3.53,2.1-4.85.91l2-2c.41.29.92.15,1.46-.39s.59-1,.29-1.3-.58-.2-1.26.25l-1.17.77c-1.49,1-2.77,1-3.79-.07C913.61,956.61,913.85,954.77,915.55,953.07Z" style="fill:#fff"/><path d="M928.56,957.48l-1.73-1.73,5.94-5.93,1.73,1.72Z" style="fill:#fff"/><path d="M936.08,938.21l1,1c1.79,1.79,2,3.55.52,5a2.19,2.19,0,0,1-2.94.44l-.12.13,3.24,3.24-2.12,2.12-8.47-8.46,2.11-2.11,1.17,1.16.12-.12a2.17,2.17,0,0,1,.44-3C932.53,936.24,934.29,936.42,936.08,938.21Zm-4.12,4.1,1.13,1.13a1.45,1.45,0,1,0,2-2L934,940.27a1.45,1.45,0,1,0-2,2Z" style="fill:#fff"/><path d="M938.63,930.34l2.26-2.27.47,5,6,1.22-2.33,2.33-4.06-.85.06.86,2,2-2,2-8.75-8.75,2-2,4.76,4.76.11-.11Z" style="fill:#fff"/><path d="M943.6,929.84c-2.74-2.73-3.08-5.51-1-7.64s4.9-1.78,7.64.95,3.07,5.51,1,7.64S946.33,932.57,943.6,929.84Zm1.82-2.25,1.09-3.79c-.94-.52-1.71-.53-2.25,0C943.45,924.62,943.87,926,945.42,927.59Zm3.06-2.18-1.1,3.78c.93.52,1.71.52,2.24,0C950.42,928.38,950,927,948.48,925.41Z" style="fill:#fff"/><path d="M955.52,926.17l-1.63-1.63,2.06-2.06-4.73-4.73-.11.11-.6,3.29-1.81-1.8.63-3.49,2-2,6.62,6.62,2-2,1.63,1.63Z" style="fill:#fff"/></g><g style="isolation:isolate"><path d="M938.39,1001.51l2,2,2.22-2.23,1.5,1.51-2.17,2.17,2.73,2.73a.77.77,0,0,0,1.18,0l1.44-1.45,1.49,1.49-1.62,1.61c-1.84,1.85-3,1.94-4.54.38l-2.7-2.69-1.63,1.63-1.51-1.5,1.64-1.64-2-2Z" style="fill:#fff"/><path d="M954.55,998.11c1.08,1.25.72,3.33-.87,4.91-1.93,1.94-4.07,2-5.87.21l-1.06-1.05c-1.66-1.67-1.55-4,.27-5.82a3.78,3.78,0,0,1,5.63-.12l1,1-3.95,4,.39.39a1.42,1.42,0,0,0,2.12,0,1.37,1.37,0,0,0,.42-1.6Zm-6,1.95,2-2a1.43,1.43,0,0,0-2.18-.19A1.46,1.46,0,0,0,948.57,1000.06Z" style="fill:#fff"/><path d="M958.59,993.92l.94,3L957.42,999l-1.23-5L951,992.64l2.3-2.3,2.92,1,.11-.11-1-2.93,2.19-2.19,1.22,5.08,5.15,1.28-2.21,2.21-3-.92Z" style="fill:#fff"/><path d="M960.11,979.8l2,2,2.23-2.22,1.5,1.5-2.17,2.17,2.72,2.73a.77.77,0,0,0,1.19-.05l1.44-1.44,1.48,1.48-1.62,1.62c-1.84,1.84-3,1.94-4.54.38l-2.69-2.7L960,986.88l-1.5-1.5,1.63-1.64-2-2Z" style="fill:#fff"/><path d="M978.14,978.27l-2,2-1-1-.11.11a2.6,2.6,0,0,1-.65,3c-1.38,1.38-3,1.29-4.53-.28l-4.11-4.11,2-2,3.66,3.66c.82.81,1.52.88,2.18.23a1.49,1.49,0,0,0-.2-2.25l-3.64-3.64,2-2Z" style="fill:#fff"/><path d="M981,972.7l1.75-1.76,1.37,1.38-4.83,4.83-1.37-1.37,1.15-1.16L975.42,971l-1.27,1.27-1.37-1.37,3.22-3.21,1.63,1.63L978,969c-1-1.63-.94-2.67.24-3.85a3.64,3.64,0,0,1,1-.77l2.06,2.06a4.31,4.31,0,0,0-1.26.88c-1.57,1.58-1.72,2.74-.5,4Z" style="fill:#fff"/><path d="M990.74,961.92c1.08,1.25.72,3.33-.87,4.91-1.94,1.94-4.07,2-5.87.21l-1.06-1c-1.66-1.67-1.55-4,.27-5.82a3.78,3.78,0,0,1,5.63-.12l1,1-4,3.95.39.39a1.42,1.42,0,0,0,2.12,0,1.37,1.37,0,0,0,.42-1.6Zm-6,2,2-2a1.43,1.43,0,0,0-2.18-.19A1.46,1.46,0,0,0,984.76,963.87Z" style="fill:#fff"/><path d="M990.27,953.07c1.71-1.71,3.39-2,4.71-.74l-1.89,1.89c-.38-.31-.92-.19-1.39.28s-.55,1-.25,1.27.65.21,1.24-.18l1.26-.85c1.59-1.07,2.72-1.1,3.71-.11,1.36,1.36,1.1,3.31-.68,5.09s-3.53,2.1-4.85.91l2-2c.41.28.93.15,1.47-.39s.59-1,.29-1.3-.58-.2-1.26.25l-1.17.76c-1.49,1-2.77,1-3.79-.06C988.33,956.61,988.57,954.77,990.27,953.07Z" style="fill:#fff"/><path d="M1003.28,957.48l-1.73-1.73,5.94-5.94,1.73,1.73Z" style="fill:#fff"/><path d="M1010.8,938.21l1.05,1c1.79,1.79,2,3.55.52,5a2.19,2.19,0,0,1-2.94.44l-.12.13,3.24,3.24-2.12,2.12-8.47-8.47,2.11-2.11,1.16,1.17.13-.13a2.17,2.17,0,0,1,.43-3C1007.25,936.24,1009,936.42,1010.8,938.21Zm-4.12,4.1,1.13,1.13a1.45,1.45,0,1,0,2-2l-1.13-1.13a1.45,1.45,0,1,0-2,2Z" style="fill:#fff"/><path d="M1013.35,930.33l2.26-2.26.46,5,6.06,1.22-2.33,2.33-4.06-.85.06.86,2,2-2,2-8.75-8.75,2-2,4.76,4.76.11-.11Z" style="fill:#fff"/><path d="M1018.31,929.84c-2.73-2.74-3.07-5.51-.94-7.64s4.9-1.79,7.64.95,3.07,5.51.94,7.64S1021.05,932.57,1018.31,929.84Zm1.83-2.25,1.09-3.79c-.94-.52-1.71-.53-2.25,0C1018.17,924.62,1018.58,926,1020.14,927.59Zm3.06-2.18-1.1,3.78c.93.52,1.7.52,2.24,0C1025.14,928.38,1024.74,927,1023.2,925.41Z" style="fill:#fff"/><path d="M1024.59,915c1.84-1.84,4.07-2.1,5.53-.63.93.93,1.21,2.3,1,5l-.17,2.56.11.11,3.48-3.48,1.64,1.64-6.28,6.27-1.4-1.4.21-5c.1-2.29,0-3.05-.5-3.54a1.44,1.44,0,0,0-2.14.11,1.6,1.6,0,0,0,0,2.36l0,0-1.92,1.92,0,0C1022.5,919.28,1022.68,916.89,1024.59,915Z" style="fill:#fff"/></g><g style="isolation:isolate"><path d="M999.32,1016l2,2,2.23-2.22,1.5,1.5-2.17,2.18,2.72,2.72a.77.77,0,0,0,1.19,0l1.44-1.44,1.48,1.48-1.62,1.62c-1.84,1.84-3,1.94-4.54.38l-2.69-2.7-1.64,1.64-1.5-1.5,1.63-1.64-2-2Z" style="fill:#fff"/><path d="M1015.47,1012.59c1.08,1.25.72,3.33-.86,4.91-1.94,1.94-4.07,2-5.88.21l-1.05-1.05c-1.67-1.67-1.56-4,.27-5.82a3.78,3.78,0,0,1,5.62-.13l1,1-4,4,.4.4a1.41,1.41,0,0,0,2.11,0,1.37,1.37,0,0,0,.42-1.6Zm-6,1.94,2-2a1.42,1.42,0,0,0-2.17-.19A1.44,1.44,0,0,0,1009.49,1014.53Z" style="fill:#fff"/><path d="M1019.52,1008.39l.93,3-2.11,2.11-1.22-5-5.16-1.32,2.31-2.31,2.92,1.06.1-.11-1-2.93,2.19-2.19,1.23,5.08,5.14,1.28-2.21,2.21-3-.93Z" style="fill:#fff"/><path d="M1021,994.28l2,2,2.22-2.23,1.5,1.51-2.17,2.17,2.73,2.73a.77.77,0,0,0,1.18,0l1.44-1.44,1.48,1.48-1.61,1.62c-1.85,1.84-3,1.93-4.54.37l-2.7-2.69-1.63,1.64-1.51-1.51,1.64-1.63-2-2Z" style="fill:#fff"/><path d="M1039.07,992.75l-2,2-1-1-.1.11a2.61,2.61,0,0,1-.66,3c-1.38,1.39-3,1.3-4.53-.27l-4.11-4.11,2-2,3.66,3.66c.81.82,1.51.89,2.17.23a1.47,1.47,0,0,0-.2-2.24l-3.64-3.64,2-2Z" style="fill:#fff"/><path d="M1041.89,987.18l1.76-1.76,1.37,1.37-4.83,4.84-1.38-1.38,1.16-1.15-3.62-3.62-1.27,1.27-1.37-1.37,3.21-3.22,1.64,1.64.33-.34c-1-1.63-.93-2.68.24-3.85a3.94,3.94,0,0,1,1-.78l2.06,2.06a4.43,4.43,0,0,0-1.26.88c-1.58,1.58-1.73,2.75-.51,4Z" style="fill:#fff"/><path d="M1051.66,976.4c1.08,1.25.72,3.33-.86,4.91-1.94,1.94-4.07,2-5.88.21l-1.05-1.06c-1.67-1.66-1.56-4,.27-5.81a3.78,3.78,0,0,1,5.62-.13l1,1-4,4,.4.4a1.41,1.41,0,0,0,2.11,0,1.37,1.37,0,0,0,.42-1.6Zm-6,1.94,2-2a1.42,1.42,0,0,0-2.17-.19A1.44,1.44,0,0,0,1045.68,978.34Z" style="fill:#fff"/><path d="M1051.2,967.54c1.71-1.71,3.39-2,4.7-.74l-1.88,1.89c-.39-.3-.92-.19-1.4.29s-.54,1-.25,1.26.66.22,1.24-.17l1.26-.85c1.59-1.08,2.72-1.11,3.71-.11,1.36,1.35,1.1,3.31-.68,5.08s-3.52,2.1-4.85.92l2-2c.41.29.92.15,1.46-.38s.6-1,.29-1.3-.58-.21-1.26.24l-1.17.77c-1.48,1-2.76,1-3.79-.06C1049.25,971.09,1049.49,969.25,1051.2,967.54Z" style="fill:#fff"/><path d="M1064.2,972l-1.72-1.72,5.93-5.94,1.73,1.73Z" style="fill:#fff"/><path d="M1071.72,952.69l1,1c1.79,1.79,2,3.55.52,5a2.19,2.19,0,0,1-2.93.44l-.13.13,3.24,3.24-2.12,2.12-8.47-8.47,2.11-2.11,1.17,1.17.12-.13a2.17,2.17,0,0,1,.44-3C1068.17,950.72,1069.93,950.9,1071.72,952.69Zm-4.12,4.09,1.14,1.14a1.44,1.44,0,1,0,2-2l-1.13-1.13a1.44,1.44,0,1,0-2,2Z" style="fill:#fff"/><path d="M1076.63,955.18l-1.51-1.51,1.91-1.91L1071.3,946l-1.74,1.74-1.51-1.51,3.76-3.76,7.24,7.24,1.76-1.75,1.51,1.5Z" style="fill:#fff"/><path d="M1081.86,946.29c-1.16-1.16-1-2.7.56-4.48l1.21-1.4-.48-.48a1,1,0,0,0-1.45.12,1.21,1.21,0,0,0-.33,1.37l-2,2c-1.13-1.35-.79-3.22.88-4.88s3.49-1.92,4.91-.49l4.3,4.3-1.91,1.91-.79-.79-.17.17a2.74,2.74,0,0,1-.84,2.62A2.64,2.64,0,0,1,1081.86,946.29Zm3.22-4.43-.29-.29-.85,1c-.57.67-.66,1.2-.26,1.6s.88.29,1.35-.18A1.42,1.42,0,0,0,1085.08,941.86Z" style="fill:#fff"/><path d="M1084.57,934.51l2-2,1,1,.11-.11a2.59,2.59,0,0,1,.65-3c1.38-1.39,3-1.3,4.53.27l4.11,4.11-2,2-3.66-3.66c-.82-.82-1.52-.89-2.18-.23a1.48,1.48,0,0,0,.2,2.24l3.64,3.64-2,2Z" style="fill:#fff"/><path d="M1093.41,921.9l2,2,2.23-2.23,1.5,1.51-2.17,2.17,2.73,2.73a.77.77,0,0,0,1.18,0l1.44-1.44,1.48,1.48-1.61,1.62c-1.85,1.84-3,1.93-4.54.37l-2.7-2.69-1.63,1.64-1.51-1.51,1.64-1.63-2-2Z" style="fill:#fff"/><path d="M1101.86,916.88c1.71-1.71,3.39-2,4.71-.74l-1.89,1.89c-.38-.31-.92-.19-1.39.28s-.55,1-.25,1.27.65.21,1.24-.18l1.26-.85c1.59-1.07,2.72-1.1,3.71-.11,1.36,1.36,1.1,3.31-.68,5.09s-3.53,2.1-4.85.91l2-2c.41.28.93.15,1.47-.39s.59-1,.29-1.3-.58-.2-1.26.25l-1.17.76c-1.49,1-2.77,1-3.79-.06C1099.92,920.42,1100.16,918.58,1101.86,916.88Z" style="fill:#fff"/></g></svg>