<svg xmlns="http://www.w3.org/2000/svg" viewBox="0 0 17.5 21.5"><path d="M9.75.75h-7a2,2,0,0,0-2,2v16a2,2,0,0,0,2,2h12a2,2,0,0,0,2-2v-11Zm0,0v7h7Z" style="fill:#fff"/><path d="M14.75,21.5h-12A2.75,2.75,0,0,1,0,18.75v-16A2.75,2.75,0,0,1,2.75,0h7a.72.72,0,0,1,.54.21h0l7,7h0a.71.71,0,0,1,.19.35h0a.29.29,0,0,1,0,.13V18.75A2.75,2.75,0,0,1,14.75,21.5Zm-12-20A1.25,1.25,0,0,0,1.5,2.75v16A1.25,1.25,0,0,0,2.75,20h12A1.25,1.25,0,0,0,16,18.75V8.5H9.75A.77.77,0,0,1,9,7.75V1.5ZM10.5,7h4.44L10.5,2.56Z"/></svg>