<svg xmlns="http://www.w3.org/2000/svg" viewBox="0 0 675.35 432.84"><path d="M22.85,42.55v-.8h1.83v-10H22.85V31H33.41l.52,4.1h-.8a9.45,9.45,0,0,0-.19-1.15,3.81,3.81,0,0,0-.35-.9,2.06,2.06,0,0,0-.6-.7,2.77,2.77,0,0,0-.93-.41,5.6,5.6,0,0,0-1.38-.15H27.1v4.38H28c.75,0,1.24-.15,1.46-.46a2.62,2.62,0,0,0,.34-1.53h.79V39h-.79a2.58,2.58,0,0,0-.34-1.53c-.22-.31-.71-.46-1.46-.46H27.1v4.79h2.58A6.82,6.82,0,0,0,31,41.64a2.82,2.82,0,0,0,1-.37,4,4,0,0,0,.69-.56,2.39,2.39,0,0,0,.46-.79,5.14,5.14,0,0,0,.28-.93c0-.29.13-.66.21-1.1h.81l-.79,4.66Z" style="fill:#fff"/><path d="M35.86,42.55v-.8H37V36.5c0-.32-.05-.51-.17-.57a2.62,2.62,0,0,0-.92-.09V35l2.92-.14v1.84a3.1,3.1,0,0,1,2.94-1.84,2.85,2.85,0,0,1,1.94.57,2.4,2.4,0,0,1,.65,1.88v4.4h1.16v.8c-.94,0-1.66,0-2.14,0s-1.19,0-2.14,0v-.8h1.17V37.16a2.46,2.46,0,0,0-.24-1.28.77.77,0,0,0-.7-.37,2.57,2.57,0,0,0-1.73.71,2.51,2.51,0,0,0-.8,2v3.55h1.17v.8c-.9,0-1.59,0-2.09,0S36.77,42.52,35.86,42.55Z" style="fill:#fff"/><path d="M46.5,38.77A3.91,3.91,0,0,1,47.58,36a4.24,4.24,0,0,1,3.22-1.14c2,0,3,.52,3,1.57a1,1,0,0,1-.33.78,1.11,1.11,0,0,1-1.5,0,1,1,0,0,1-.35-.78,1,1,0,0,1,.36-.79,5,5,0,0,0-1.12-.1,2.09,2.09,0,0,0-1.07.25,2.19,2.19,0,0,0-.65.57,2.56,2.56,0,0,0-.33.83,6.23,6.23,0,0,0-.12.8c0,.19,0,.43,0,.71,0,2.19.79,3.28,2.37,3.28a2.17,2.17,0,0,0,2.17-1.4.46.46,0,0,1,.12-.2.6.6,0,0,1,.29,0c.27,0,.4.07.4.23a1.18,1.18,0,0,1-.06.26,2.55,2.55,0,0,1-.3.53,3.19,3.19,0,0,1-.57.6,3.3,3.3,0,0,1-1,.49,4.34,4.34,0,0,1-1.4.21,4.28,4.28,0,0,1-3.07-1.08A3.69,3.69,0,0,1,46.5,38.77Z" style="fill:#fff"/><path d="M55.09,38.85A3.87,3.87,0,0,1,56.23,36a5.09,5.09,0,0,1,6.37,0,3.84,3.84,0,0,1,1.15,2.88,3.59,3.59,0,0,1-1.13,2.72,5.28,5.28,0,0,1-6.4,0A3.59,3.59,0,0,1,55.09,38.85Zm2.17-.19c0,.33,0,.59,0,.77s0,.42.07.73a2.18,2.18,0,0,0,.19.73,3.73,3.73,0,0,0,.37.54,1.29,1.29,0,0,0,.61.42,3,3,0,0,0,.91.12,3.09,3.09,0,0,0,.91-.12,1.4,1.4,0,0,0,.61-.42,3.73,3.73,0,0,0,.37-.54,2.45,2.45,0,0,0,.19-.73c0-.31.06-.55.07-.73s0-.44,0-.77a5,5,0,0,0-.36-2.34,2,2,0,0,0-1.8-.86,1.93,1.93,0,0,0-1.88,1A5.91,5.91,0,0,0,57.26,38.66Z" style="fill:#fff"/><path d="M65.51,38.79A3.59,3.59,0,0,1,66.7,36a4.41,4.41,0,0,1,3.07-1.06,3.54,3.54,0,0,1,2.29.77V32.35q0-.48-.18-.57a3.06,3.06,0,0,0-1-.09v-.8l3-.13V41.09c0,.31.06.5.17.57a3.1,3.1,0,0,0,1,.09v.8l-3.12.1v-.83a3.71,3.71,0,0,1-2.38.83,4.08,4.08,0,0,1-3-1.08A3.71,3.71,0,0,1,65.51,38.79Zm2.17,0c0,.28,0,.51,0,.67a5.48,5.48,0,0,0,.06.69,2.23,2.23,0,0,0,.18.72,3.4,3.4,0,0,0,.36.58,1.32,1.32,0,0,0,.59.44,2.35,2.35,0,0,0,.88.15A2.65,2.65,0,0,0,72,40.8V36.55a2.42,2.42,0,0,0-2-1,2.08,2.08,0,0,0-1.82.89A4.63,4.63,0,0,0,67.68,38.79Z" style="fill:#fff"/><path d="M76.25,38.72A3.75,3.75,0,0,1,77.36,36a4.2,4.2,0,0,1,3.08-1.1,3.68,3.68,0,0,1,2.7.92,3.51,3.51,0,0,1,1,2.61c0,.22,0,.35-.11.4a1,1,0,0,1-.44.07H78.42c0,2.08.8,3.12,2.39,3.12h0a2.88,2.88,0,0,0,1.46-.37,2.07,2.07,0,0,0,.9-1,.77.77,0,0,1,.17-.29.44.44,0,0,1,.3-.07c.29,0,.44.1.44.3a.79.79,0,0,1-.1.33,2.38,2.38,0,0,1-.34.53,2.86,2.86,0,0,1-.61.59,3,3,0,0,1-1,.45,4.56,4.56,0,0,1-1.38.19,4.62,4.62,0,0,1-3.23-1.1A3.65,3.65,0,0,1,76.25,38.72Zm2.17-.44h4.06c0-1.88-.74-2.82-2-2.82a1.81,1.81,0,0,0-1.61.88A4.31,4.31,0,0,0,78.42,38.28Z" style="fill:#fff"/><path d="M91.53,35.8v-.61a2.16,2.16,0,0,0,1.85-1,4.35,4.35,0,0,0,.68-2.38h.8V35h2.48v.79H94.86v4.69c0,1,.32,1.48,1,1.48a.9.9,0,0,0,.71-.38,1.85,1.85,0,0,0,.31-1.18v-.86h.79v.89A2.29,2.29,0,0,1,97.1,42a1.86,1.86,0,0,1-1.49.63q-2.7,0-2.7-2.19V35.8Z" style="fill:#fff"/><path d="M99.56,42.55v-.8h1.17V36.5c0-.32,0-.51-.17-.57a2.83,2.83,0,0,0-1-.09V35l3-.14v6.85h1.05v.8l-2,0Zm1-9.55a1.36,1.36,0,0,1-.37-.94,1.33,1.33,0,0,1,.37-.93,1.17,1.17,0,0,1,.9-.39,1.33,1.33,0,0,1,1.33,1.32,1.33,1.33,0,0,1-1.33,1.33A1.17,1.17,0,0,1,100.51,33Z" style="fill:#fff"/><path d="M105,42.55v-.8h1.09V36.5c0-.32,0-.51-.16-.57a2.69,2.69,0,0,0-.93-.09V35L108,34.9v1.84a3.09,3.09,0,0,1,3-1.84c1.44,0,2.28.54,2.52,1.63a3,3,0,0,1,2.86-1.63,2.84,2.84,0,0,1,2,.58,2.41,2.41,0,0,1,.64,1.87v4.4h1.17v.8c-.95,0-1.66,0-2.14,0s-1.19,0-2.14,0v-.8H117V37.16a2.61,2.61,0,0,0-.23-1.29.81.81,0,0,0-.72-.36,2.57,2.57,0,0,0-1.72.71,2.48,2.48,0,0,0-.81,2v3.55h1.17v.8c-.94,0-1.65,0-2.13,0s-1.19,0-2.15,0v-.8h1.17V37.16a2.48,2.48,0,0,0-.24-1.29.8.8,0,0,0-.71-.36,2.59,2.59,0,0,0-1.73.71,2.48,2.48,0,0,0-.8,2v3.55h1.16v.8c-1,0-1.66,0-2.14,0S105.92,42.52,105,42.55Z" style="fill:#fff"/><path d="M121,38.72A3.72,3.72,0,0,1,122.12,36a4.19,4.19,0,0,1,3.08-1.1,3.7,3.7,0,0,1,2.7.92,3.51,3.51,0,0,1,1,2.61c0,.22,0,.35-.12.4a1,1,0,0,1-.43.07h-5.13c0,2.08.8,3.12,2.39,3.12h0A2.85,2.85,0,0,0,127,41.6a2,2,0,0,0,.91-1,.77.77,0,0,1,.17-.29.44.44,0,0,1,.3-.07c.29,0,.44.1.44.3a1,1,0,0,1-.1.33,2.81,2.81,0,0,1-.34.53,3.12,3.12,0,0,1-.61.59,3,3,0,0,1-1,.45,4.56,4.56,0,0,1-1.38.19,4.62,4.62,0,0,1-3.23-1.1A3.66,3.66,0,0,1,121,38.72Zm2.18-.44h4.06q-.09-2.82-2-2.82a1.8,1.8,0,0,0-1.61.88A4.18,4.18,0,0,0,123.18,38.28Z" style="fill:#fff"/><path d="M137.76,38.28a10.23,10.23,0,0,1,3-7.56c.65-.61,1.08-.92,1.3-.92s.31.08.31.24-.08.18-.25.36c-1.71,1.83-2.57,4.47-2.57,7.9a14.62,14.62,0,0,0,.61,4.4,8.65,8.65,0,0,0,2.16,3.68l0,0a.26.26,0,0,1,0,.11c0,.16-.1.24-.31.24a1.45,1.45,0,0,1-.65-.34,9.86,9.86,0,0,1-1.15-1.1,8.83,8.83,0,0,1-1.18-1.65A10.74,10.74,0,0,1,137.76,38.28Z" style="fill:#fff"/><path d="M144.36,42.55v-.8h1.09V36.5c0-.32-.06-.51-.17-.57a2.62,2.62,0,0,0-.92-.09V35l2.92-.14v1.84a3.11,3.11,0,0,1,3-1.84c1.44,0,2.28.54,2.51,1.63a3.07,3.07,0,0,1,2.87-1.63,2.84,2.84,0,0,1,2,.58,2.41,2.41,0,0,1,.64,1.87v4.4h1.17v.8c-.95,0-1.66,0-2.14,0s-1.19,0-2.14,0v-.8h1.17V37.16a2.48,2.48,0,0,0-.24-1.29.78.78,0,0,0-.71-.36,2.59,2.59,0,0,0-1.73.71,2.51,2.51,0,0,0-.8,2v3.55H154v.8c-1,0-1.66,0-2.13,0s-1.19,0-2.15,0v-.8h1.17V37.16a2.48,2.48,0,0,0-.24-1.29.81.81,0,0,0-.72-.36,2.57,2.57,0,0,0-1.72.71,2.48,2.48,0,0,0-.81,2v3.55h1.17v.8c-.95,0-1.66,0-2.14,0S145.26,42.52,144.36,42.55Z" style="fill:#fff"/><path d="M160.44,42.18V40.33a.91.91,0,0,1,.06-.42s.15-.08.35-.08a.85.85,0,0,1,.28,0,.34.34,0,0,1,.12.21,6.48,6.48,0,0,0,.23.63,4.18,4.18,0,0,0,.4.62,1.61,1.61,0,0,0,.73.53,3,3,0,0,0,1.09.19c1.29,0,1.94-.43,2-1.28a1,1,0,0,0-.2-.61,1.23,1.23,0,0,0-.55-.4,3.18,3.18,0,0,0-.58-.19l-.57-.12-1.15-.22a4.61,4.61,0,0,1-.74-.25,2.79,2.79,0,0,1-.74-.46,1.8,1.8,0,0,1-.68-1.42,2.19,2.19,0,0,1,.19-.94,1.51,1.51,0,0,1,.52-.64,4,4,0,0,1,.65-.38,2.67,2.67,0,0,1,.74-.19l.61-.08h.42a3.82,3.82,0,0,1,1.72.33,3.84,3.84,0,0,1,.76-.33c.14,0,.23,0,.26.09a1.1,1.1,0,0,1,.05.39v1.35a.78.78,0,0,1-.06.4c0,.06-.16.08-.36.08s-.27,0-.31-.07a.52.52,0,0,1-.08-.26c-.08-.95-.75-1.42-2-1.42s-1.9.38-1.91,1.15a1,1,0,0,0,.14.54c.09.15.05.19-.13.13l-.27-.09,2,.42c.43.11.89.22,1.36.32a3.07,3.07,0,0,1,1.17.5,2.2,2.2,0,0,1,.94,1.79,2.66,2.66,0,0,1-.19,1,1.63,1.63,0,0,1-.52.7,4.44,4.44,0,0,1-.65.42,2.44,2.44,0,0,1-.75.22l-.61.07-.43,0a3.43,3.43,0,0,1-2-.55l-.44.3a1,1,0,0,1-.49.25h0c-.14,0-.23,0-.26-.1A1,1,0,0,1,160.44,42.18Z" style="fill:#fff"/><path d="M168.58,46.54s.09-.17.27-.35q2.75-2.76,2.74-7.91t-2.72-7.85c-.2-.18-.29-.31-.29-.39s.1-.24.3-.24a1.48,1.48,0,0,1,.66.35,9,9,0,0,1,1.14,1.09,8.63,8.63,0,0,1,1.19,1.66,10.72,10.72,0,0,1,1.36,5.4,10.2,10.2,0,0,1-3,7.56c-.64.62-1.08.92-1.31.92S168.58,46.7,168.58,46.54Z" style="fill:#fff"/><rect x="156.02" y="330.17" width="7.99" height="8.45" style="fill:#8c4dfb"/><rect x="164.98" y="338.15" width="7.99" height="0.48" style="fill:#ffff5c"/><rect x="173.94" y="333.42" width="7.99" height="5.2" style="fill:#00cc70"/><rect x="65.38" y="338.41" width="7.99" height="0.22" style="fill:#8c4dfb"/><rect x="83.3" y="338.45" width="7.99" height="0.17" style="fill:#00cc70"/><rect x="337.31" y="297.89" width="7.99" height="40.73" style="fill:#8c4dfb"/><rect x="346.27" y="337.02" width="7.99" height="1.6" style="fill:#ffff5c"/><rect x="355.23" y="315.18" width="7.99" height="23.44" style="fill:#00cc70"/><rect x="563.92" y="160.74" width="7.99" height="177.88" style="fill:#8c4dfb"/><rect x="572.88" y="332.51" width="7.99" height="6.11" style="fill:#ffff5c"/><rect x="581.84" y="256.07" width="7.99" height="82.55" style="fill:#00cc70"/><rect x="518.6" y="214.95" width="7.99" height="123.67" style="fill:#8c4dfb"/><rect x="527.56" y="333.9" width="7.99" height="4.72" style="fill:#ffff5c"/><rect x="536.52" y="275.18" width="7.99" height="63.44" style="fill:#00cc70"/><rect x="427.95" y="216.34" width="7.99" height="122.29" style="fill:#8c4dfb"/><rect x="436.91" y="334.03" width="7.99" height="4.59" style="fill:#ffff5c"/><rect x="445.87" y="273.62" width="7.99" height="65" style="fill:#00cc70"/><rect x="291.99" y="291.3" width="7.99" height="47.32" style="fill:#8c4dfb"/><rect x="300.95" y="336.76" width="7.99" height="1.86" style="fill:#ffff5c"/><rect x="309.91" y="315.79" width="7.99" height="22.84" style="fill:#00cc70"/><rect x="609.24" y="86.03" width="7.99" height="252.59" style="fill:#8c4dfb"/><rect x="618.2" y="323.8" width="7.99" height="14.82" style="fill:#ffff5c"/><rect x="627.16" y="155.24" width="7.99" height="183.39" style="fill:#00cc70"/><rect x="473.28" y="247.71" width="7.99" height="90.91" style="fill:#8c4dfb"/><rect x="482.23" y="334.38" width="7.99" height="4.25" style="fill:#ffff5c"/><rect x="491.19" y="281.77" width="7.99" height="56.85" style="fill:#00cc70"/><rect x="110.7" y="335.5" width="7.99" height="3.12" style="fill:#8c4dfb"/><rect x="119.66" y="338.45" width="7.99" height="0.17" style="fill:#ffff5c"/><rect x="128.62" y="335.72" width="7.99" height="2.9" style="fill:#00cc70"/><rect x="201.34" y="325.71" width="7.99" height="12.91" style="fill:#8c4dfb"/><rect x="210.3" y="338.19" width="7.99" height="0.43" style="fill:#ffff5c"/><rect x="219.26" y="331.99" width="7.99" height="6.63" style="fill:#00cc70"/><rect x="246.67" y="298.11" width="7.99" height="40.52" style="fill:#8c4dfb"/><rect x="255.63" y="337.5" width="7.99" height="1.13" style="fill:#ffff5c"/><rect x="264.58" y="321.77" width="7.99" height="16.86" style="fill:#00cc70"/><rect x="382.63" y="263.92" width="7.99" height="74.71" style="fill:#8c4dfb"/><rect x="391.59" y="335.98" width="7.99" height="2.64" style="fill:#ffff5c"/><rect x="400.55" y="298.63" width="7.99" height="40" style="fill:#00cc70"/><rect x="47.43" y="338.62" width="606.67" height="1" style="fill:#fff"/><rect x="77.83" y="338.62" width="1" height="6" style="fill:#fff"/><path d="M51.34,376.13a1,1,0,1,1,1.35-.1A.89.89,0,0,1,51.34,376.13Zm4,5.83-.86-.86,1.11-1.1-1.9-1.9-1,1-.86-.86,2.12-2.12,2.75,2.76,1-1,.86.86Z" style="fill:#fff"/><path d="M59.37,373.34c-.45-.35-.77-.35-1.1,0s-.25.9.34,1.5l.2.19c.59.59,1.12.71,1.49.34s.35-.63,0-1.06l1.12-1.12a2,2,0,0,1-.26,3.06,2.2,2.2,0,0,1-3.47,0l-.33-.33a2.2,2.2,0,0,1,0-3.47,2,2,0,0,1,3.1-.22Z" style="fill:#fff"/><path d="M61.88,372.34l-.57-.57a2.47,2.47,0,0,1,3.48-3.48l.57.57a2.47,2.47,0,0,1-3.48,3.48Zm.58-1.66.51.51c.47.47,1,.53,1.39.15s.32-.92-.16-1.39l-.51-.51c-.47-.47-1-.53-1.38-.15S62,370.21,62.46,370.68Z" style="fill:#fff"/><path d="M63.92,366.11,65,365l.59.59.06-.06a1.49,1.49,0,0,1,.37-1.72,1.64,1.64,0,0,1,2.57.16L71,366.29l-1.15,1.15-2.08-2.07c-.46-.46-.86-.51-1.24-.13s-.31.84.12,1.27l2.06,2.07-1.14,1.14Z" style="fill:#fff"/><path d="M72.91,366.82l-1-1,3.37-3.38,1,1Z" style="fill:#fff"/><path d="M77.65,359.8a2.49,2.49,0,0,1-3.74.14,4.13,4.13,0,0,1-1.1-2.48c-.09-.55-.23-1.72-.25-2.13L73.89,354l.34,2.54a3.59,3.59,0,0,0,.13.64l.08-.08a1.5,1.5,0,0,1,.46-1,2,2,0,0,1,2.94.09A2.52,2.52,0,0,1,77.65,359.8Zm-1-2.37a1,1,0,0,0-1.47,1.47,1,1,0,0,0,1.47-1.47Z" style="fill:#fff"/><path d="M81,354.61l-2.07,2.07-.9-.91-1.66-4.25,1.2-1.2,1.65,4.11.07.07.84-.84L79,352.57l1-1.05,1.12,1.11.58-.58.88.89-.55.55.83.83-1.13,1.12Z" style="fill:#fff"/><rect x="123.16" y="338.62" width="1" height="6" style="fill:#fff"/><path d="M80,391.84,81.09,393l1.26-1.26.86.85L82,393.79l1.55,1.54a.44.44,0,0,0,.68,0l.81-.82.84.84-.91.92c-1,1-1.7,1.1-2.58.21l-1.53-1.53-.93.93L79,395l.93-.93L78.85,393Z" style="fill:#fff"/><path d="M89.15,389.91a2.1,2.1,0,0,1-.5,2.79,2.14,2.14,0,0,1-3.33.11l-.6-.59a2.22,2.22,0,0,1,.15-3.31,2.15,2.15,0,0,1,3.2-.07l.58.59-2.24,2.24.22.22a.8.8,0,0,0,1.2,0,.77.77,0,0,0,.24-.91Zm-3.4,1.1,1.15-1.15A.82.82,0,1,0,85.75,391Z" style="fill:#fff"/><path d="M91.45,387.52l.52,1.69-1.19,1.2-.7-2.86-2.92-.75,1.3-1.31,1.66.6.06-.06-.59-1.67,1.24-1.24.7,2.88,2.92.73L93.2,388l-1.69-.53Z" style="fill:#fff"/><path d="M92.31,379.5l1.12,1.12,1.26-1.26.85.85-1.23,1.24L95.86,383a.44.44,0,0,0,.67,0l.82-.82.84.84-.92.92c-1,1-1.69,1.1-2.58.21l-1.53-1.52-.92.92-.86-.85.93-.93-1.12-1.12Z" style="fill:#fff"/><path d="M102.55,378.63l-1.12,1.12-.58-.59-.07.06a1.48,1.48,0,0,1-.37,1.72,1.64,1.64,0,0,1-2.57-.16l-2.33-2.33,1.15-1.15,2.07,2.08c.47.46.87.5,1.24.13a.85.85,0,0,0-.11-1.28l-2.07-2.07L98.94,375Z" style="fill:#fff"/><path d="M104.16,375.47l1-1,.78.78L103.19,378l-.78-.78.65-.65-2-2.06-.72.72-.78-.78,1.82-1.82.93.93.19-.19c-.56-.93-.53-1.52.14-2.19a2.34,2.34,0,0,1,.58-.44l1.17,1.17a2.31,2.31,0,0,0-.71.5c-.9.9-1,1.56-.29,2.25Z" style="fill:#fff"/><path d="M109.71,369.35a2.08,2.08,0,0,1-.49,2.78,2.14,2.14,0,0,1-3.34.12l-.6-.6a2.22,2.22,0,0,1,.15-3.3,2.15,2.15,0,0,1,3.2-.07l.58.59L107,371.11l.22.22a.8.8,0,0,0,1.2,0,.77.77,0,0,0,.24-.91Zm-3.4,1.1,1.15-1.15a.82.82,0,0,0-1.24-.11A.83.83,0,0,0,106.31,370.45Z" style="fill:#fff"/><path d="M109.44,364.31c1-1,1.93-1.12,2.68-.41L111.05,365c-.22-.18-.53-.11-.8.16s-.31.55-.14.72.37.12.7-.1l.72-.48c.91-.61,1.55-.63,2.11-.07.77.77.62,1.88-.39,2.89s-2,1.19-2.75.52l1.12-1.12c.23.16.53.09.83-.22s.34-.57.17-.74-.33-.12-.72.14l-.66.44a1.58,1.58,0,0,1-2.16,0C108.34,366.33,108.48,365.28,109.44,364.31Z" style="fill:#fff"/><path d="M116.83,366.82l-1-1,3.37-3.38,1,1Z" style="fill:#fff"/><path d="M121.11,355.87l.59.6c1,1,1.12,2,.29,2.84a1.24,1.24,0,0,1-1.66.25l-.07.07,1.84,1.84-1.21,1.21-4.81-4.81,1.2-1.2.67.66.07-.07a1.22,1.22,0,0,1,.24-1.68C119.09,354.75,120.09,354.86,121.11,355.87Zm-2.34,2.33.64.64a.82.82,0,1,0,1.16-1.15l-.65-.65a.82.82,0,1,0-1.15,1.16Z" style="fill:#fff"/><path d="M122.55,351.4l1.29-1.29.26,2.84,3.44.69L126.22,355l-2.3-.48,0,.49,1.13,1.13-1.15,1.15-5-5,1.14-1.15,2.71,2.71.06-.06Z" style="fill:#fff"/><rect x="168.48" y="338.62" width="1" height="6" style="fill:#fff"/><path d="M137.57,380.24a1,1,0,1,1,1.35-.09A.89.89,0,0,1,137.57,380.24Zm4,5.83-.86-.85,1.11-1.11-1.9-1.9-1,1-.86-.86,2.12-2.11,2.76,2.75,1-1,.86.85Z" style="fill:#fff"/><path d="M145.6,377.45c-.45-.34-.77-.34-1.1,0s-.25.9.34,1.5l.2.19c.59.6,1.12.72,1.49.34s.35-.63,0-1.05l1.12-1.12c.86,1,.78,2-.26,3.06a2.19,2.19,0,0,1-3.47,0l-.33-.32a2.2,2.2,0,0,1,0-3.47,2,2,0,0,1,3.1-.23Z" style="fill:#fff"/><path d="M148.11,376.45l-.57-.57A2.47,2.47,0,0,1,151,372.4l.57.57a2.47,2.47,0,0,1-3.48,3.48Zm.58-1.66.51.51c.47.47,1,.53,1.39.15s.32-.91-.16-1.38l-.51-.51c-.47-.48-1-.54-1.38-.16S148.22,374.32,148.69,374.79Z" style="fill:#fff"/><path d="M150.15,370.22l1.12-1.12.59.59.06-.06a1.48,1.48,0,0,1,.37-1.71,1.63,1.63,0,0,1,2.57.15l2.34,2.34-1.15,1.15L154,369.48c-.46-.46-.86-.51-1.24-.13s-.31.84.12,1.27l2.06,2.07-1.14,1.15Z" style="fill:#fff"/><path d="M159.14,370.93l-1-1,3.37-3.37,1,1Z" style="fill:#fff"/><path d="M160.5,364.34l1.16-1.15a.9.9,0,0,0,1.17-.15,1,1,0,1,0-1.69-.46L160,363.74l-2.53-3,3.09-3.09.93.93-2.15,2.15,1,1.16.06-.06a1.58,1.58,0,0,1,.53-1.49,2,2,0,0,1,3,.08,2.37,2.37,0,0,1-.13,3.55C162.72,365.07,161.39,365.2,160.5,364.34Z" style="fill:#fff"/><path d="M166.24,361.37l-.93-.93,1.17-1.17-2.69-2.68-.06.06-.34,1.87-1-1,.36-2,1.16-1.16,3.76,3.76,1.11-1.11.93.93Z" style="fill:#fff"/><path d="M167.14,350.9c1.05-1,2.31-1.19,3.14-.36.53.53.69,1.31.59,2.86l-.1,1.45.06.06,2-2,.93.93-3.57,3.56-.79-.8.12-2.84c.05-1.3,0-1.73-.29-2a.81.81,0,0,0-1.21.06.91.91,0,0,0,0,1.34l0,0-1.09,1.09,0,0A2.28,2.28,0,0,1,167.14,350.9Z" style="fill:#fff"/><rect x="213.8" y="338.62" width="1" height="6" style="fill:#fff"/><path d="M164.69,400.06l1.12,1.13,1.26-1.27.86.86L166.69,402l1.55,1.55a.44.44,0,0,0,.67,0l.82-.82.84.84-.92.92c-1,1-1.69,1.1-2.57.22l-1.53-1.53-.93.93-.86-.86.93-.93-1.12-1.12Z" style="fill:#fff"/><path d="M173.86,398.13a2.08,2.08,0,0,1-.49,2.79A2.14,2.14,0,0,1,170,401l-.6-.6a2.2,2.2,0,0,1,.15-3.3,2.15,2.15,0,0,1,3.2-.07l.58.58-2.24,2.25.22.22a.8.8,0,0,0,1.2,0,.77.77,0,0,0,.24-.91Zm-3.39,1.11,1.15-1.15c-.42-.42-.89-.47-1.24-.11A.82.82,0,0,0,170.47,399.24Z" style="fill:#fff"/><path d="M176.16,395.75l.53,1.68-1.2,1.2-.69-2.86-2.93-.75,1.31-1.31,1.66.6.06-.06-.59-1.66,1.24-1.25.7,2.89,2.92.73-1.26,1.25-1.68-.52Z" style="fill:#fff"/><path d="M177,387.73l1.12,1.12,1.26-1.27.85.86L179,389.67l1.55,1.55a.44.44,0,0,0,.67,0l.82-.82.84.85-.92.91c-1,1.05-1.69,1.11-2.58.22l-1.53-1.53-.93.93-.85-.86L177,390l-1.12-1.12Z" style="fill:#fff"/><path d="M187.27,386.86,186.15,388l-.59-.58-.06.06a1.47,1.47,0,0,1-.37,1.71,1.63,1.63,0,0,1-2.57-.15l-2.34-2.34,1.15-1.15,2.08,2.08c.46.46.86.5,1.24.13a.83.83,0,0,0-.12-1.27l-2.06-2.07,1.14-1.15Z" style="fill:#fff"/><path d="M188.87,383.69l1-1,.78.78-2.74,2.74-.78-.78.65-.66-2.05-2-.72.72-.78-.78,1.82-1.83.93.93.19-.19a1.51,1.51,0,0,1,.14-2.19,2.06,2.06,0,0,1,.58-.43l1.17,1.16a2.71,2.71,0,0,0-.71.5c-.9.9-1,1.56-.29,2.26Z" style="fill:#fff"/><path d="M194.43,377.57a2.1,2.1,0,0,1-.5,2.79,2.14,2.14,0,0,1-3.33.12l-.6-.6a2.21,2.21,0,0,1,.15-3.3,2.16,2.16,0,0,1,3.2-.08l.58.59-2.24,2.24.22.23a.8.8,0,0,0,1.2,0,.77.77,0,0,0,.24-.91Zm-3.4,1.1,1.15-1.15a.82.82,0,1,0-1.15,1.15Z" style="fill:#fff"/><path d="M194.16,372.54c1-1,1.93-1.12,2.68-.42l-1.08,1.07c-.21-.17-.52-.11-.79.16s-.31.55-.14.72.37.13.7-.1l.72-.48c.9-.61,1.54-.63,2.11-.06.77.77.62,1.88-.39,2.89s-2,1.19-2.75.52l1.12-1.12c.23.16.53.08.83-.23s.34-.56.17-.73-.34-.12-.72.14l-.66.43a1.58,1.58,0,0,1-2.16,0C193.06,374.55,193.2,373.51,194.16,372.54Z" style="fill:#fff"/><path d="M201.55,375l-1-1,3.37-3.37,1,1Z" style="fill:#fff"/><path d="M205.82,364.1l.6.59c1,1,1.12,2,.29,2.85a1.24,1.24,0,0,1-1.66.25l-.07.07,1.84,1.84-1.21,1.2-4.81-4.81,1.2-1.19.66.66.08-.07a1.23,1.23,0,0,1,.24-1.69C203.81,363,204.81,363.08,205.82,364.1Zm-2.33,2.33.64.64a.82.82,0,1,0,1.15-1.16l-.64-.64a.82.82,0,1,0-1.15,1.16Z" style="fill:#fff"/><path d="M207.27,359.62l1.29-1.28.26,2.83,3.44.69-1.32,1.33-2.31-.48,0,.48,1.13,1.14-1.15,1.14-5-5,1.15-1.14,2.71,2.7.06-.06Z" style="fill:#fff"/><path d="M210.1,359.34c-1.56-1.55-1.75-3.13-.54-4.34s2.78-1,4.34.54,1.74,3.13.53,4.34S211.65,360.89,210.1,359.34Zm1-1.28.62-2.15c-.53-.29-1-.3-1.28,0S210.25,357.13,211.13,358.06Zm1.74-1.23-.62,2.14c.53.3,1,.3,1.27,0S213.75,357.75,212.87,356.83Z" style="fill:#fff"/><path d="M216.87,357.25l-.92-.92,1.17-1.17-2.69-2.69-.06.07-.35,1.87-1-1,.35-2,1.16-1.16,3.76,3.76,1.12-1.11.92.93Z" style="fill:#fff"/><rect x="259.12" y="338.62" width="1" height="6" style="fill:#fff"/><path d="M207.94,400.06l1.12,1.12,1.27-1.26.85.86L210,402l1.54,1.55a.45.45,0,0,0,.68,0l.82-.82.84.84-.92.92c-1,1-1.69,1.1-2.58.22l-1.53-1.53-.93.92-.85-.85.93-.93-1.12-1.12Z" style="fill:#fff"/><path d="M217.12,398.13a2.09,2.09,0,0,1-.49,2.79,2.16,2.16,0,0,1-3.34.12l-.6-.6a2.22,2.22,0,0,1,.15-3.3,2.15,2.15,0,0,1,3.2-.07l.58.58-2.24,2.25.22.22a.81.81,0,0,0,1.21,0,.79.79,0,0,0,.24-.91Zm-3.4,1.11,1.15-1.15c-.42-.42-.88-.47-1.24-.11A.83.83,0,0,0,213.72,399.24Z" style="fill:#fff"/><path d="M219.42,395.75l.53,1.68-1.2,1.2-.7-2.86-2.92-.75,1.31-1.31,1.65.6.06-.06-.59-1.66,1.25-1.25.69,2.89,2.93.72-1.26,1.26-1.69-.53Z" style="fill:#fff"/><path d="M220.28,387.73l1.12,1.12,1.26-1.27.86.86-1.24,1.23,1.55,1.55a.44.44,0,0,0,.67,0l.82-.82.84.85-.92.91c-1,1.05-1.69,1.11-2.57.22l-1.53-1.53-.93.93-.86-.86.93-.92-1.12-1.13Z" style="fill:#fff"/><path d="M230.52,386.86,229.41,388l-.59-.58-.06.06a1.48,1.48,0,0,1-.37,1.71,1.64,1.64,0,0,1-2.58-.15l-2.33-2.34,1.15-1.15,2.08,2.08c.46.46.86.5,1.23.13a.85.85,0,0,0-.11-1.28l-2.07-2.06,1.15-1.15Z" style="fill:#fff"/><path d="M232.13,383.69l1-1,.78.77-2.74,2.75-.78-.78.66-.66-2.06-2-.72.72-.78-.78,1.83-1.83.93.93.19-.19c-.57-.92-.54-1.52.13-2.19a2.34,2.34,0,0,1,.58-.44l1.17,1.17a2.88,2.88,0,0,0-.71.5c-.9.9-1,1.56-.29,2.26Z" style="fill:#fff"/><path d="M237.68,377.57a2.09,2.09,0,0,1-.49,2.79,2.16,2.16,0,0,1-3.34.12l-.6-.6a2.21,2.21,0,0,1,.16-3.3,2.15,2.15,0,0,1,3.19-.08l.59.59-2.25,2.24.22.23a.82.82,0,0,0,1.21,0,.79.79,0,0,0,.24-.91Zm-3.4,1.1,1.15-1.15a.82.82,0,1,0-1.15,1.15Z" style="fill:#fff"/><path d="M237.42,372.54c1-1,1.92-1.12,2.67-.42L239,373.19a.59.59,0,0,0-.79.16c-.26.26-.31.55-.14.72s.37.13.7-.1l.71-.48c.91-.61,1.55-.63,2.11-.06.77.77.63,1.88-.38,2.89s-2,1.19-2.76.51l1.12-1.12c.24.17.53.09.83-.22s.34-.56.17-.73-.33-.12-.72.14l-.66.43a1.56,1.56,0,0,1-2.15,0C236.31,374.55,236.45,373.51,237.42,372.54Z" style="fill:#fff"/><path d="M244.81,375l-1-1,3.37-3.37,1,1Z" style="fill:#fff"/><path d="M249.08,364.1l.59.59c1,1,1.12,2,.3,2.85a1.25,1.25,0,0,1-1.67.25l-.07.07,1.84,1.84-1.2,1.2-4.81-4.81,1.19-1.2.67.67.07-.07a1.24,1.24,0,0,1,.25-1.69C247.06,363,248.06,363.08,249.08,364.1Zm-2.34,2.32.64.65a.82.82,0,1,0,1.16-1.16l-.64-.64a.78.78,0,0,0-1.21,0A.77.77,0,0,0,246.74,366.42Z" style="fill:#fff"/><path d="M250.53,359.62l1.28-1.28.27,2.83,3.44.69-1.33,1.33-2.3-.48,0,.48,1.13,1.14-1.14,1.14-5-5,1.14-1.14,2.71,2.7.06-.06Z" style="fill:#fff"/><path d="M253.35,359.34c-1.55-1.55-1.75-3.13-.54-4.34s2.79-1,4.34.54,1.75,3.13.54,4.34S254.9,360.89,253.35,359.34Zm1-1.28.62-2.15c-.54-.3-1-.3-1.28,0C253.27,356.37,253.5,357.13,254.39,358.06Zm1.73-1.23L255.5,359c.53.29,1,.3,1.27,0C257.23,358.51,257,357.75,256.12,356.83Z" style="fill:#fff"/><path d="M256.92,350.9c1-1,2.31-1.19,3.14-.36.52.53.68,1.31.58,2.86l-.09,1.45.06.06,2-2,.93.93L260,357.43l-.8-.8.12-2.84c.06-1.3,0-1.73-.28-2a.82.82,0,0,0-1.22.06.91.91,0,0,0,0,1.34l0,0-1.09,1.09,0,0A2.28,2.28,0,0,1,256.92,350.9Z" style="fill:#fff"/><rect x="304.44" y="338.62" width="1" height="6" style="fill:#fff"/><path d="M245,409.55c1-1,1.93-1.12,2.68-.42l-1.07,1.07c-.22-.17-.53-.11-.8.16s-.31.55-.14.72.37.13.7-.1l.72-.48c.91-.61,1.55-.63,2.11-.06.77.77.62,1.88-.39,2.89s-2,1.19-2.75.52l1.12-1.12c.23.16.53.08.83-.23s.34-.56.17-.73-.33-.12-.72.14l-.66.43a1.58,1.58,0,0,1-2.16,0C243.89,411.56,244,410.52,245,409.55Z" style="fill:#fff"/><path d="M251.18,406.24c-.45-.35-.77-.35-1.1,0s-.26.9.34,1.49l.19.2c.6.59,1.13.71,1.5.34s.35-.63,0-1.06l1.12-1.12c.86,1,.77,2-.27,3.06a2.19,2.19,0,0,1-3.46,0l-.33-.33a2.19,2.19,0,0,1,0-3.47,2,2,0,0,1,3.11-.22Z" style="fill:#fff"/><path d="M256.15,404.25l1-1,.78.78-2.74,2.74-.78-.78.65-.66-2.05-2-.72.72-.78-.78,1.82-1.82.93.92.19-.19a1.52,1.52,0,0,1,.14-2.19,2.06,2.06,0,0,1,.58-.43l1.17,1.16a2.71,2.71,0,0,0-.71.5c-.9.9-1,1.56-.29,2.26Z" style="fill:#fff"/><path d="M261.71,398.13a2.1,2.1,0,0,1-.49,2.79,2.16,2.16,0,0,1-3.34.12l-.6-.6a2.21,2.21,0,0,1,.15-3.3,2.15,2.15,0,0,1,3.2-.07l.58.58L259,399.9l.22.22a.8.8,0,0,0,1.2,0,.77.77,0,0,0,.24-.91Zm-3.4,1.11,1.15-1.15c-.42-.42-.88-.47-1.24-.11A.82.82,0,0,0,258.31,399.24Z" style="fill:#fff"/><path d="M265.82,394a2.09,2.09,0,0,1-.49,2.79,2.16,2.16,0,0,1-3.34.12l-.6-.6a2.22,2.22,0,0,1,.15-3.3,2.15,2.15,0,0,1,3.2-.08l.58.59-2.24,2.24.22.23a.82.82,0,0,0,1.21,0,.79.79,0,0,0,.24-.91Zm-3.4,1.1,1.15-1.15a.81.81,0,0,0-1.24-.1A.82.82,0,0,0,262.42,395.12Z" style="fill:#fff"/><path d="M264,390.78l1.12-1.11.59.58.06-.06a1.48,1.48,0,0,1,.37-1.71,1.63,1.63,0,0,1,2.57.15L271,391l-1.15,1.15L267.77,390c-.46-.46-.86-.5-1.23-.13a.85.85,0,0,0,.11,1.28l2.07,2.06-1.15,1.15Z" style="fill:#fff"/><path d="M269.67,384.87c1-1,1.92-1.12,2.67-.41l-1.07,1.07c-.22-.17-.52-.11-.79.16s-.31.55-.14.72.37.12.7-.1l.72-.48c.9-.61,1.54-.63,2.1-.07.77.78.63,1.88-.38,2.89s-2,1.19-2.76.52l1.12-1.12c.24.16.53.09.84-.22s.33-.56.16-.74-.33-.11-.72.14l-.66.44a1.56,1.56,0,0,1-2.15,0C268.56,386.89,268.7,385.84,269.67,384.87Z" style="fill:#fff"/><path d="M270.81,381.22l1.12-1.12,2,2L274,382a1.49,1.49,0,0,1,.39-1.73,1.65,1.65,0,0,1,2.58.14l2.33,2.32-1.15,1.15L276,381.81q-.69-.69-1.26-.12a.87.87,0,0,0,.09,1.31l2.05,2.05-1.15,1.14Z" style="fill:#fff"/><path d="M278.36,380.56l-.57-.56a2.47,2.47,0,0,1,3.48-3.49l.57.57a2.47,2.47,0,0,1-3.48,3.48Zm.58-1.66.51.51c.47.47,1,.53,1.39.15s.32-.91-.15-1.38l-.51-.51c-.47-.47-1-.54-1.39-.16S278.47,378.43,278.94,378.9Z" style="fill:#fff"/><path d="M281.32,371.28l1.12,1.12,1.26-1.26.86.85-1.24,1.23,1.55,1.55a.44.44,0,0,0,.67,0l.82-.82.84.85-.92.92c-1,1-1.69,1.1-2.58.21l-1.53-1.53-.92.93-.86-.86.93-.92-1.12-1.13Z" style="fill:#fff"/><path d="M289.39,375l-1-1,3.37-3.37,1,1Z" style="fill:#fff"/><path d="M292.42,370.11l1.12-1.12c.24.15.6,0,.93-.3s.47-.85.09-1.23l-.8-.8-.07.08a1.41,1.41,0,0,1-.34,1.78c-.83.83-1.86.73-2.86-.28l-.49-.49c-1-1-1.1-2-.21-2.92a1.36,1.36,0,0,1,1.73-.32l.07-.07-.64-.65,1.12-1.12,3.61,3.61c.83.84.66,2.07-.46,3.19S293.14,370.73,292.42,370.11Zm.49-3a.81.81,0,0,0,0-1.24l-.53-.54a.86.86,0,1,0-1.22,1.22l.53.54A.82.82,0,0,0,292.91,367.09Z" style="fill:#fff"/><path d="M295.31,364.58c-.66-.66-.55-1.54.32-2.55l.69-.8-.27-.27a.56.56,0,0,0-.83.07.69.69,0,0,0-.19.78l-1.11,1.11c-.64-.76-.45-1.83.5-2.77s2-1.09,2.79-.28l2.45,2.44-1.09,1.09-.45-.45-.1.1a1.52,1.52,0,0,1-.48,1.48A1.5,1.5,0,0,1,295.31,364.58Zm1.83-2.52-.16-.17-.48.57c-.33.38-.38.68-.15.91s.5.16.76-.1A.8.8,0,0,0,297.14,362.06Z" style="fill:#fff"/><path d="M304.08,357.89l-1,.95-2.5-2.5a.35.35,0,0,0-.51,0,.35.35,0,0,0,0,.5l2.51,2.51-.93.93-2.51-2.5a.35.35,0,0,0-.51,0,.34.34,0,0,0,0,.5l2.51,2.51-.95.95-3.62-3.62,1-1,.6.6.13-.12a1,1,0,0,1,0-1.37.92.92,0,0,1,1.26,0l.12-.13a.91.91,0,0,1,0-1.26c.4-.4.92-.34,1.44.18Z" style="fill:#fff"/><path d="M306.94,352.9a2.08,2.08,0,0,1-.49,2.79,2.15,2.15,0,0,1-3.34.11l-.6-.59a2.22,2.22,0,0,1,.16-3.31,2.14,2.14,0,0,1,3.19-.07l.59.58-2.25,2.25.23.22a.8.8,0,0,0,1.2,0,.79.79,0,0,0,.24-.91Zm-3.4,1.1,1.15-1.15a.81.81,0,0,0-1.23-.11A.83.83,0,0,0,303.54,354Z" style="fill:#fff"/><rect x="349.77" y="338.62" width="1" height="6" style="fill:#fff"/><path d="M310.7,392.89l.6.59c1,1,1.12,2,.29,2.84a1.24,1.24,0,0,1-1.66.25l-.07.07,1.84,1.85-1.21,1.2-4.81-4.81,1.2-1.2.66.66.08-.07a1.22,1.22,0,0,1,.24-1.68C308.69,391.76,309.69,391.87,310.7,392.89Zm-2.33,2.32.64.64a.82.82,0,1,0,1.15-1.15l-.64-.65a.82.82,0,1,0-1.15,1.16Z" style="fill:#fff"/><path d="M308.41,389.45l1.12-1.12,2,1.95.07-.06a1.49,1.49,0,0,1,.39-1.73,1.65,1.65,0,0,1,2.58.13l2.33,2.33-1.15,1.14L313.64,390q-.69-.67-1.26-.12a.87.87,0,0,0,.09,1.31l2,2-1.15,1.15Z" style="fill:#fff"/><path d="M316,388.79l-.57-.57a2.47,2.47,0,0,1,3.48-3.48l.57.57a2.47,2.47,0,0,1-3.48,3.48Zm.58-1.66.51.51c.47.47,1,.53,1.39.15s.32-.92-.15-1.39l-.51-.51c-.47-.47-1-.53-1.39-.15S316.07,386.66,316.54,387.13Z" style="fill:#fff"/><path d="M318.92,379.5l1.12,1.12,1.26-1.26.85.85-1.23,1.24,1.55,1.55a.44.44,0,0,0,.67,0l.82-.82.84.84-.92.92c-1,1-1.69,1.1-2.58.21l-1.53-1.53-.92.93-.86-.85.93-.93-1.12-1.12Z" style="fill:#fff"/><path d="M324.18,380.56l-.57-.56a2.47,2.47,0,0,1,3.48-3.49l.57.57a2.47,2.47,0,0,1-3.48,3.48Zm.59-1.66.51.51c.47.47,1,.53,1.38.15s.32-.91-.15-1.38l-.51-.51c-.47-.47-1-.54-1.39-.15S324.3,378.43,324.77,378.9Z" style="fill:#fff"/><path d="M331.11,379.15l-1-1,3.37-3.37,1,1Z" style="fill:#fff"/><path d="M332.71,367.85l1.29-1.29.26,2.84,3.44.69-1.32,1.32-2.3-.48,0,.49,1.13,1.13-1.14,1.15-5-5,1.14-1.15,2.71,2.71.06-.06Z" style="fill:#fff"/><path d="M336.52,368.23l-.57-.57a2.47,2.47,0,0,1,3.48-3.48l.57.57a2.47,2.47,0,0,1-3.48,3.48Zm.58-1.66.51.5c.47.48,1,.54,1.39.16s.32-.92-.15-1.39l-.51-.51c-.47-.47-1-.53-1.39-.15S336.63,366.09,337.1,366.57Z" style="fill:#fff"/><path d="M340.58,364.19l-.6-.6c-1-1-1.12-2-.29-2.84a1.24,1.24,0,0,1,1.66-.25l.08-.07-2-2,1.2-1.21,5,5-1.2,1.2-.66-.66-.07.07a1.22,1.22,0,0,1-.25,1.68C342.6,365.31,341.59,365.2,340.58,364.19Zm2.34-2.33-.65-.64a.82.82,0,1,0-1.15,1.15l.64.65a.82.82,0,1,0,1.16-1.16Z" style="fill:#fff"/><path d="M345.25,360.46c-.66-.66-.55-1.53.32-2.54l.68-.8-.27-.27a.55.55,0,0,0-.82.07.69.69,0,0,0-.19.78l-1.11,1.11c-.64-.77-.45-1.83.5-2.77s2-1.09,2.79-.28l2.44,2.44-1.08,1.09-.45-.45-.1.09a1.53,1.53,0,0,1-.48,1.49A1.49,1.49,0,0,1,345.25,360.46Zm1.83-2.51-.17-.17-.48.57c-.32.38-.37.68-.15.91s.51.16.77-.1A.8.8,0,0,0,347.08,358Z" style="fill:#fff"/><path d="M349.16,351.4l1.29-1.29.26,2.84,3.44.69L352.83,355l-2.31-.48,0,.49,1.13,1.13-1.15,1.15-5-5,1.14-1.15,2.71,2.71.06-.06Z" style="fill:#fff"/><rect x="395.09" y="338.62" width="1" height="6" style="fill:#fff"/><path d="M335.31,408.29l1.12,1.12,1.27-1.26.85.85-1.23,1.24,1.55,1.54a.42.42,0,0,0,.67,0l.82-.81.84.84-.92.92c-1,1-1.69,1.1-2.58.21l-1.53-1.53-.93.93-.85-.85.93-.93-1.12-1.12Z" style="fill:#fff"/><path d="M344.49,406.36a2.09,2.09,0,0,1-.49,2.79,2.15,2.15,0,0,1-3.34.11l-.6-.6a2.22,2.22,0,0,1,.15-3.3,2.15,2.15,0,0,1,3.2-.07l.58.59-2.24,2.24.22.22a.81.81,0,0,0,1.21,0,.79.79,0,0,0,.24-.91Zm-3.4,1.1,1.15-1.15a.82.82,0,0,0-1.24-.11A.83.83,0,0,0,341.09,407.46Z" style="fill:#fff"/><path d="M346.79,404l.53,1.69-1.2,1.2-.7-2.86-2.92-.75,1.31-1.31,1.65.6.06-.07-.59-1.66,1.25-1.24.69,2.88,2.93.73-1.26,1.26-1.69-.53Z" style="fill:#fff"/><path d="M347.65,396l1.12,1.12,1.26-1.26.86.85-1.24,1.24,1.55,1.55a.45.45,0,0,0,.68,0l.81-.82.84.84-.91.92c-1.05,1.05-1.7,1.1-2.58.21L348.51,399l-.93.93-.86-.85.93-.93-1.12-1.12Z" style="fill:#fff"/><path d="M357.89,395.08l-1.11,1.12-.59-.59-.06.06a1.49,1.49,0,0,1-.37,1.72,1.65,1.65,0,0,1-2.58-.16l-2.33-2.33,1.15-1.15,2.08,2.08c.46.46.86.5,1.23.13a.85.85,0,0,0-.11-1.28l-2.07-2.07,1.15-1.14Z" style="fill:#fff"/><path d="M359.5,391.92l1-1,.78.78-2.75,2.74-.78-.78.66-.65L356.35,391l-.72.72-.78-.78,1.83-1.82.93.93.19-.19c-.57-.93-.54-1.52.13-2.19a2.34,2.34,0,0,1,.58-.44l1.17,1.17a2.43,2.43,0,0,0-.71.5c-.9.9-1,1.56-.29,2.25Z" style="fill:#fff"/><path d="M365.05,385.79a2.09,2.09,0,0,1-.49,2.79,2.14,2.14,0,0,1-3.34.12l-.6-.6a2.21,2.21,0,0,1,.16-3.3,2.14,2.14,0,0,1,3.19-.07l.59.58-2.25,2.25.23.22a.8.8,0,0,0,1.2,0,.79.79,0,0,0,.24-.91Zm-3.4,1.11,1.15-1.15a.81.81,0,0,0-1.23-.11A.82.82,0,0,0,361.65,386.9Z" style="fill:#fff"/><path d="M364.79,380.76c1-1,1.92-1.12,2.67-.42l-1.07,1.08c-.22-.18-.52-.11-.79.16s-.31.55-.14.72.37.12.7-.1l.72-.49c.9-.61,1.54-.62,2.1-.06.77.77.63,1.88-.38,2.89s-2,1.19-2.76.52l1.12-1.12c.24.16.53.08.84-.22s.33-.57.16-.74-.33-.12-.72.14l-.66.44a1.56,1.56,0,0,1-2.15,0C363.68,382.78,363.82,381.73,364.79,380.76Z" style="fill:#fff"/><path d="M372.18,383.27l-1-1,3.37-3.38,1,1Z" style="fill:#fff"/><path d="M376.45,372.32l.59.6c1,1,1.12,2,.3,2.84a1.25,1.25,0,0,1-1.67.25l-.07.07,1.84,1.84-1.2,1.21-4.81-4.81,1.2-1.2.66.66.07-.07a1.22,1.22,0,0,1,.25-1.68C374.43,371.2,375.43,371.31,376.45,372.32Zm-2.34,2.33.64.64a.78.78,0,0,0,1.21,0,.77.77,0,0,0,0-1.2l-.64-.65a.82.82,0,1,0-1.16,1.16Z" style="fill:#fff"/><path d="M379.24,373.74l-.86-.86,1.09-1.09-3.26-3.25-1,1-.86-.86,2.14-2.13,4.11,4.11,1-1,.86.86Z" style="fill:#fff"/><path d="M382.21,368.69c-.66-.66-.55-1.53.32-2.55l.68-.79-.27-.27a.54.54,0,0,0-.82.07.66.66,0,0,0-.19.77L380.81,367c-.63-.77-.44-1.83.5-2.78s2-1.09,2.8-.28l2.44,2.44-1.08,1.09-.45-.45-.1.1a1.58,1.58,0,0,1-.48,1.49A1.5,1.5,0,0,1,382.21,368.69Zm1.83-2.52-.17-.16-.48.56c-.32.39-.37.69-.15.91s.5.17.77-.1A.81.81,0,0,0,384,366.17Z" style="fill:#fff"/><path d="M383.75,362l1.12-1.12.58.59.06-.06a1.5,1.5,0,0,1,.38-1.72,1.64,1.64,0,0,1,2.57.16l2.33,2.33-1.15,1.15-2.08-2.08c-.46-.46-.86-.5-1.23-.13a.85.85,0,0,0,.11,1.28l2.07,2.07-1.15,1.14Z" style="fill:#fff"/><path d="M388.77,354.83l1.12,1.12,1.27-1.26.85.85-1.23,1.24,1.55,1.54a.42.42,0,0,0,.67,0l.82-.81.84.84-.92.92c-1.05,1-1.69,1.1-2.58.21l-1.53-1.53-.93.93-.85-.85.93-.93L387.66,356Z" style="fill:#fff"/><path d="M393.57,352c1-1,1.93-1.12,2.68-.42l-1.08,1.07c-.21-.17-.52-.11-.79.16s-.31.55-.14.72.37.12.7-.1l.72-.48c.9-.61,1.55-.63,2.11-.06.77.77.62,1.87-.39,2.88s-2,1.2-2.75.52l1.12-1.12c.23.17.53.09.83-.22s.34-.56.17-.73-.33-.12-.72.13l-.66.44a1.58,1.58,0,0,1-2.16,0C392.47,354,392.61,352.94,393.57,352Z" style="fill:#fff"/><rect x="440.41" y="338.62" width="1" height="6" style="fill:#fff"/><path d="M422.82,372.32l.6.6c1,1,1.12,2,.29,2.84a1.24,1.24,0,0,1-1.66.25l-.07.07,1.84,1.84-1.21,1.21-4.81-4.81,1.2-1.2.66.66.08-.07A1.22,1.22,0,0,1,420,372C420.81,371.2,421.81,371.31,422.82,372.32Zm-2.33,2.33.64.64a.82.82,0,1,0,1.16-1.15l-.65-.65a.82.82,0,1,0-1.15,1.16Z" style="fill:#fff"/><path d="M421.9,370.22,423,369.1l.58.59.07-.06a1.47,1.47,0,0,1,.37-1.71,1.63,1.63,0,0,1,2.57.15l2.33,2.34-1.15,1.15-2.07-2.08c-.47-.46-.87-.51-1.24-.13a.83.83,0,0,0,.12,1.27l2.06,2.07-1.15,1.15Z" style="fill:#fff"/><path d="M429.8,370.11l1.12-1.12c.25.15.6,0,.94-.3s.46-.85.08-1.23l-.79-.8-.08.08a1.41,1.41,0,0,1-.34,1.78c-.83.83-1.85.73-2.86-.28l-.49-.49c-1-1-1.09-2-.21-2.92a1.38,1.38,0,0,1,1.74-.32l.07-.07-.65-.65,1.12-1.12,3.61,3.61c.84.84.66,2.07-.46,3.19S430.52,370.73,429.8,370.11Zm.5-3a.82.82,0,0,0,0-1.24l-.54-.54a.86.86,0,1,0-1.22,1.22l.54.54A.82.82,0,0,0,430.3,367.09Z" style="fill:#fff"/><path d="M429.88,359.68a.89.89,0,0,1,.1-1.35.9.9,0,0,1,1.35-.1,1,1,0,0,1-1.45,1.45Zm4,5.83-.86-.86,1.11-1.1-1.9-1.9-1,1-.86-.86,2.12-2.12,2.75,2.76,1-1,.86.85Z" style="fill:#fff"/><path d="M441.46,357.89l-.95.95-2.51-2.5a.33.33,0,1,0-.47.47l2.5,2.51-.93.93-2.51-2.5a.33.33,0,1,0-.47.47l2.5,2.51-.95.95-3.61-3.62,1-1,.6.6.12-.12a1,1,0,0,1,0-1.37.92.92,0,0,1,1.26,0l.12-.13a.91.91,0,0,1,0-1.26c.4-.4.92-.34,1.44.18Z" style="fill:#fff"/><path d="M442.14,357.77l1.12-1.12c.24.15.6,0,.93-.3s.47-.85.09-1.23l-.8-.79-.07.07a1.41,1.41,0,0,1-.34,1.78c-.83.83-1.86.73-2.86-.28l-.49-.48c-1-1-1.1-2.05-.21-2.93a1.38,1.38,0,0,1,1.73-.32l.07-.07-.64-.65,1.12-1.12,3.61,3.61c.83.84.66,2.07-.46,3.19S442.86,358.39,442.14,357.77Zm.49-3a.81.81,0,0,0,0-1.24l-.53-.54a.87.87,0,1,0-1.22,1.23l.53.53A.81.81,0,0,0,442.63,354.75Z" style="fill:#fff"/><rect x="485.73" y="338.62" width="1" height="6" style="fill:#fff"/><path d="M429.59,404.18l1.12,1.12L432,404l.86.86-1.24,1.23,1.55,1.55a.45.45,0,0,0,.68,0l.81-.82.84.84-.91.92c-1.05,1.05-1.7,1.1-2.58.22l-1.53-1.53-.93.93-.86-.86.93-.93-1.12-1.12Z" style="fill:#fff"/><path d="M438.77,402.24a2.09,2.09,0,0,1-.49,2.79,2.15,2.15,0,0,1-3.34.12l-.6-.6a2.21,2.21,0,0,1,.15-3.3,2.15,2.15,0,0,1,3.2-.07l.58.58L436,404l.22.22a.79.79,0,0,0,1.2,0,.76.76,0,0,0,.24-.9Zm-3.4,1.11,1.15-1.15a.82.82,0,1,0-1.15,1.15Z" style="fill:#fff"/><path d="M441.07,399.86l.53,1.68-1.2,1.2-.7-2.85-2.92-.76,1.3-1.3,1.66.59.06-.06-.59-1.66,1.25-1.24.69,2.88,2.92.73-1.25,1.25-1.69-.52Z" style="fill:#fff"/><path d="M441.93,391.84l1.12,1.12,1.26-1.26.86.85-1.24,1.24,1.55,1.54a.43.43,0,0,0,.67,0l.82-.82.84.84-.92.92c-1,1-1.69,1.1-2.58.21l-1.53-1.53-.92.93L441,395l.93-.93L440.81,393Z" style="fill:#fff"/><path d="M452.17,391l-1.12,1.12-.58-.59-.07.06a1.47,1.47,0,0,1-.37,1.71,1.63,1.63,0,0,1-2.57-.15l-2.33-2.34,1.15-1.15,2.08,2.08c.46.46.86.51,1.23.13a.84.84,0,0,0-.11-1.27l-2.07-2.07,1.15-1.15Z" style="fill:#fff"/><path d="M453.78,387.8l1-1,.78.78-2.74,2.74-.78-.78.65-.65-2.05-2.06-.72.72-.78-.78L451,385l.93.93.19-.2a1.52,1.52,0,0,1,.14-2.19,2.06,2.06,0,0,1,.58-.43l1.17,1.17a2.43,2.43,0,0,0-.71.5c-.9.89-1,1.55-.29,2.25Z" style="fill:#fff"/><path d="M459.33,381.68a2.09,2.09,0,0,1-.49,2.79,2.15,2.15,0,0,1-3.34.12l-.6-.6a2.22,2.22,0,0,1,.15-3.3,2.15,2.15,0,0,1,3.2-.07l.58.58-2.24,2.25.22.22a.81.81,0,0,0,1.21,0,.8.8,0,0,0,.24-.91Zm-3.4,1.11,1.15-1.15a.82.82,0,0,0-1.24-.11A.83.83,0,0,0,455.93,382.79Z" style="fill:#fff"/><path d="M459.07,376.65c1-1,1.92-1.12,2.67-.42l-1.07,1.07c-.22-.17-.53-.1-.8.17s-.3.54-.14.71.37.13.71-.09l.71-.49c.91-.61,1.55-.62,2.11-.06.77.77.63,1.88-.39,2.89s-2,1.19-2.75.52l1.12-1.12c.23.16.53.08.83-.22s.34-.57.17-.74-.33-.12-.72.14l-.66.43a1.57,1.57,0,0,1-2.16,0C458,378.66,458.1,377.62,459.07,376.65Z" style="fill:#fff"/><path d="M466.45,379.15l-1-1,3.37-3.37,1,1Z" style="fill:#fff"/><path d="M470.73,368.21l.59.6c1,1,1.12,2,.3,2.84a1.25,1.25,0,0,1-1.67.25l-.07.07,1.84,1.84L470.51,375l-4.81-4.81,1.2-1.2.67.66.07-.07a1.23,1.23,0,0,1,.24-1.68C468.71,367.09,469.71,367.2,470.73,368.21Zm-2.34,2.33.64.64a.82.82,0,1,0,1.16-1.16l-.65-.64a.77.77,0,0,0-1.2-.05A.78.78,0,0,0,468.39,370.54Z" style="fill:#fff"/><path d="M468.43,364.78l1.12-1.13,2,2,.06-.07a1.49,1.49,0,0,1,.39-1.73,1.66,1.66,0,0,1,2.59.14l2.32,2.32-1.15,1.15-2.06-2.06c-.46-.46-.88-.5-1.25-.12a.86.86,0,0,0,.08,1.31l2.05,2.05-1.14,1.14Z" style="fill:#fff"/><path d="M476,364.12l-.57-.57a2.47,2.47,0,0,1,3.48-3.48l.57.56a2.47,2.47,0,0,1-3.48,3.49Zm.58-1.67.51.51c.47.47,1,.54,1.39.16s.32-.92-.15-1.39l-.51-.51c-.47-.47-1-.53-1.39-.15S476.09,362,476.56,362.45Z" style="fill:#fff"/><path d="M478.94,354.83l1.12,1.12,1.26-1.26.86.85-1.24,1.23,1.55,1.55a.42.42,0,0,0,.67,0l.82-.81.84.84-.92.92c-1,1-1.69,1.1-2.57.21l-1.53-1.53-.93.93L478,358l.93-.93L477.82,356Z" style="fill:#fff"/><path d="M484.2,355.89l-.56-.57a2.47,2.47,0,0,1,3.48-3.48l.56.57a2.47,2.47,0,0,1-3.48,3.48Zm.59-1.66.51.51c.47.47,1,.53,1.38.15s.32-.92-.15-1.39L486,353c-.47-.47-1-.53-1.38-.15S484.32,353.76,484.79,354.23Z" style="fill:#fff"/><rect x="531.05" y="338.62" width="1" height="6" style="fill:#fff"/><path d="M475,409.33l.6.6c1,1,1.11,2,.29,2.84a1.25,1.25,0,0,1-1.67.25l-.07.07,1.84,1.84-1.2,1.21L470,411.33l1.2-1.2.66.66.07-.07a1.22,1.22,0,0,1,.25-1.68C473,408.21,474,408.32,475,409.33Zm-2.34,2.33.65.64a.82.82,0,1,0,1.15-1.15l-.64-.65a.82.82,0,1,0-1.16,1.16Z" style="fill:#fff"/><path d="M472.74,405.9l1.13-1.13,1.95,2,.06-.06a1.53,1.53,0,0,1,.4-1.74,1.66,1.66,0,0,1,2.58.14l2.32,2.33L480,408.54,478,406.48c-.45-.45-.87-.49-1.25-.12a.86.86,0,0,0,.09,1.31l2.05,2.05-1.15,1.15Z" style="fill:#fff"/><path d="M480.29,405.24l-.57-.57a2.47,2.47,0,0,1,3.49-3.48l.56.57a2.47,2.47,0,0,1-3.48,3.48Zm.59-1.66.51.5c.47.48,1,.54,1.38.16s.32-.92-.15-1.39l-.51-.51c-.47-.47-1-.53-1.38-.15S480.41,403.1,480.88,403.58Z" style="fill:#fff"/><path d="M483.25,396l1.12,1.12,1.27-1.26.85.85-1.23,1.24,1.55,1.55a.44.44,0,0,0,.67,0l.82-.82.84.84-.92.92c-1.05,1.05-1.69,1.1-2.58.21L484.11,399l-.93.93-.85-.85.93-.93-1.12-1.12Z" style="fill:#fff"/><path d="M488.52,397l-.57-.56a2.47,2.47,0,0,1,3.48-3.49l.57.57a2.47,2.47,0,0,1-3.48,3.48Zm.58-1.66.51.51c.47.47,1,.53,1.39.15s.32-.91-.15-1.38l-.51-.51c-.47-.47-1-.54-1.39-.16S488.63,394.88,489.1,395.35Z" style="fill:#fff"/><path d="M495.44,395.6l-1-1,3.37-3.37,1,1Z" style="fill:#fff"/><path d="M501.38,387.2l-1,1-2.6-1.8,0,0,1.8,2.59-.95,1-4.3-2.93,1.08-1.08,2.45,2.22L498,388,496,385.42l.9-.9,2.57,2.07.15-.15L497.36,384l1.09-1.09Z" style="fill:#fff"/><path d="M498.55,380.24a1,1,0,0,1,1.44-1.45.9.9,0,0,1-.09,1.36A.89.89,0,0,1,498.55,380.24Zm3.95,5.83-.85-.85,1.1-1.11-1.9-1.9-1,1-.86-.86,2.12-2.11,2.76,2.75,1-1,.85.85Z" style="fill:#fff"/><path d="M505.28,376.07l1.28-1.28.27,2.83,3.43.69-1.32,1.33-2.3-.49,0,.49,1.13,1.14-1.14,1.14-5-5,1.14-1.14,2.71,2.7.06-.06Z" style="fill:#fff"/><path d="M506.77,372a1,1,0,1,1,1.35-.1A.89.89,0,0,1,506.77,372Zm4,5.83-.86-.86,1.11-1.1-1.9-1.9-1,1-.86-.86,2.12-2.12,2.75,2.76,1-1,.86.86Z" style="fill:#fff"/><path d="M516.16,368.21l.6.6c1,1,1.12,2,.29,2.84a1.24,1.24,0,0,1-1.66.25l-.07.07,1.84,1.84L516,375l-4.81-4.81,1.2-1.2.66.66.08-.07a1.22,1.22,0,0,1,.24-1.68C514.15,367.09,515.15,367.2,516.16,368.21Zm-2.33,2.33.64.64a.82.82,0,1,0,1.15-1.16l-.64-.64a.82.82,0,1,0-1.15,1.16Z" style="fill:#fff"/><path d="M521.21,365.23a2.08,2.08,0,0,1-.49,2.79,2.14,2.14,0,0,1-3.33.12l-.6-.6a2.2,2.2,0,0,1,.15-3.3,2.15,2.15,0,0,1,3.2-.07l.58.58L518.48,367l.22.22a.8.8,0,0,0,1.2,0,.77.77,0,0,0,.24-.91Zm-3.39,1.11,1.15-1.15a.82.82,0,1,0-1.15,1.15Z" style="fill:#fff"/><path d="M521.36,364.19l-.59-.6c-1-1-1.12-2-.3-2.84a1.25,1.25,0,0,1,1.67-.25l.07-.07-2-2,1.21-1.21,5,5-1.2,1.2-.67-.66-.07.07a1.22,1.22,0,0,1-.24,1.68C523.38,365.31,522.38,365.2,521.36,364.19Zm2.34-2.33-.64-.64a.78.78,0,0,0-1.21-.05.77.77,0,0,0,0,1.2l.65.65a.77.77,0,0,0,1.2.05A.78.78,0,0,0,523.7,361.86Z" style="fill:#fff"/><path d="M523.22,355.57a1,1,0,1,1,1.35-.1A.89.89,0,0,1,523.22,355.57Zm4,5.83-.86-.86,1.11-1.1-1.9-1.9-1,1-.86-.86,2.12-2.12,2.75,2.76,1-1,.86.86Z" style="fill:#fff"/><path d="M530.15,356.35c-.66-.66-.55-1.53.32-2.54l.68-.8-.27-.27a.55.55,0,0,0-.82.07.67.67,0,0,0-.19.77l-1.12,1.12c-.63-.77-.44-1.83.5-2.78s2-1.08,2.8-.27l2.44,2.44-1.08,1.08-.45-.45-.1.1a1.58,1.58,0,0,1-.48,1.49A1.5,1.5,0,0,1,530.15,356.35Zm1.83-2.52-.17-.16-.48.56c-.32.39-.37.69-.15.91s.5.17.77-.09A.82.82,0,0,0,532,353.83Z" style="fill:#fff"/><rect x="576.38" y="338.62" width="1" height="6" style="fill:#fff"/><path d="M529.32,401.11l.6.59c1,1,1.12,2,.29,2.85a1.25,1.25,0,0,1-1.67.25l-.07.07,1.84,1.84-1.2,1.2-4.81-4.81,1.2-1.19.66.66.07-.07a1.24,1.24,0,0,1,.25-1.69C527.3,400,528.3,400.09,529.32,401.11ZM527,403.44l.65.64a.77.77,0,0,0,1.2.05.78.78,0,0,0-.05-1.21l-.64-.64a.82.82,0,1,0-1.16,1.16Z" style="fill:#fff"/><path d="M527,397.67l1.13-1.12,2,1.95.06-.06a1.51,1.51,0,0,1,.4-1.73,1.65,1.65,0,0,1,2.58.14l2.32,2.32-1.14,1.15-2.07-2.07c-.45-.45-.87-.49-1.25-.11a.86.86,0,0,0,.09,1.31l2,2.05L532,402.64Z" style="fill:#fff"/><path d="M534.57,397l-.56-.56a2.47,2.47,0,0,1,3.48-3.49l.57.57a2.47,2.47,0,0,1-3.49,3.48Zm.59-1.66.51.51c.47.47,1,.53,1.39.15s.31-.91-.16-1.38l-.51-.51c-.47-.47-1-.54-1.38-.16S534.69,394.88,535.16,395.35Z" style="fill:#fff"/><path d="M537.53,387.73l1.12,1.12,1.27-1.27.85.86-1.23,1.23,1.55,1.55a.44.44,0,0,0,.67,0l.82-.82.84.84-.92.92c-1,1.05-1.69,1.11-2.58.22l-1.53-1.53-.93.93-.85-.86.93-.93-1.12-1.12Z" style="fill:#fff"/><path d="M542.8,388.79l-.57-.57a2.47,2.47,0,0,1,3.48-3.48l.57.57a2.47,2.47,0,0,1-3.48,3.48Zm.58-1.66.51.51c.47.47,1,.53,1.39.15s.32-.92-.15-1.39l-.51-.51c-.47-.47-1-.53-1.39-.15S542.91,386.66,543.38,387.13Z" style="fill:#fff"/><path d="M549.72,387.38l-1-1,3.37-3.37,1,1Z" style="fill:#fff"/><path d="M549.87,375.39l1.12,1.12,1.26-1.26.86.85-1.24,1.24,1.55,1.54a.44.44,0,0,0,.68,0l.81-.82.85.84-.92.92c-1.05,1-1.7,1.1-2.58.21l-1.53-1.53-.93.93-.86-.85.93-.93-1.12-1.12Z" style="fill:#fff"/><path d="M559.05,373.46a2.1,2.1,0,0,1-.49,2.79,2.15,2.15,0,0,1-3.34.11l-.6-.59a2.22,2.22,0,0,1,.15-3.31,2.15,2.15,0,0,1,3.2-.07l.58.59-2.24,2.24.22.22a.8.8,0,0,0,1.2,0,.77.77,0,0,0,.24-.91Zm-3.4,1.1,1.15-1.15a.82.82,0,1,0-1.15,1.15Z" style="fill:#fff"/><path d="M560.85,369.23c-.44-.35-.76-.35-1.09,0s-.26.9.34,1.49l.19.2c.6.59,1.12.71,1.5.34s.34-.63,0-1.06l1.12-1.12c.86,1,.77,2-.27,3.06a2.19,2.19,0,0,1-3.47,0l-.32-.32a2.19,2.19,0,0,1,0-3.47,2,2,0,0,1,3.1-.22Z" style="fill:#fff"/><path d="M561.29,366.11l1.12-1.12.59.59.06-.06a1.49,1.49,0,0,1,.37-1.72A1.64,1.64,0,0,1,566,364l2.34,2.33-1.15,1.15-2.08-2.07c-.46-.47-.86-.51-1.23-.13a.84.84,0,0,0,.11,1.27l2.07,2.07-1.15,1.14Z" style="fill:#fff"/><path d="M565.16,359.68a1,1,0,0,1,1.45-1.45,1,1,0,0,1-1.45,1.45Zm4,5.83-.86-.86,1.11-1.1-1.9-1.9-1,1-.86-.86,2.12-2.12,2.76,2.76,1-1,.86.85Z" style="fill:#fff"/><path d="M573.19,356.89c-.45-.35-.76-.35-1.1,0s-.25.9.34,1.49l.2.2c.59.59,1.12.71,1.49.34s.35-.63,0-1.05l1.12-1.12c.87,1,.78,2-.26,3.05a2.2,2.2,0,0,1-3.47,0l-.32-.33a2.18,2.18,0,0,1,0-3.46,2,2,0,0,1,3.1-.23Z" style="fill:#fff"/><path d="M576,351.4l1.28-1.29.27,2.84,3.43.69L579.67,355l-2.3-.48,0,.49,1.13,1.13-1.14,1.15-5-5,1.14-1.15,2.71,2.71.06-.06Z" style="fill:#fff"/><rect x="621.7" y="338.62" width="1" height="6" style="fill:#fff"/><path d="M566.24,405.44c1-1,1.93-1.12,2.68-.42l-1.07,1.07c-.22-.17-.53-.11-.8.16s-.31.55-.14.72.37.12.71-.1l.71-.48c.91-.61,1.55-.63,2.11-.06.77.77.62,1.87-.39,2.88s-2,1.2-2.75.52l1.12-1.12c.23.17.53.09.83-.22s.34-.56.17-.73-.33-.12-.72.13l-.66.44a1.57,1.57,0,0,1-2.16,0C565.14,407.45,565.28,406.41,566.24,405.44Z" style="fill:#fff"/><path d="M572.43,402.13c-.45-.35-.77-.35-1.1,0s-.26.91.34,1.5l.19.2c.6.59,1.13.71,1.5.34s.35-.63,0-1.06l1.12-1.12q1.29,1.5-.27,3.06a2.18,2.18,0,0,1-3.46,0l-.33-.32a2.19,2.19,0,0,1,0-3.47,2,2,0,0,1,3.11-.22Z" style="fill:#fff"/><path d="M577.41,400.14l1-1,.78.78-2.74,2.75-.78-.78.65-.66-2-2.05-.72.72-.78-.78,1.82-1.83.93.93.19-.19a1.52,1.52,0,0,1,.14-2.19,2.34,2.34,0,0,1,.58-.44l1.17,1.17a2.71,2.71,0,0,0-.71.5c-.9.9-1,1.56-.29,2.26Z" style="fill:#fff"/><path d="M583,394a2.09,2.09,0,0,1-.49,2.79,2.16,2.16,0,0,1-3.34.12l-.6-.6a2.21,2.21,0,0,1,.15-3.3,2.15,2.15,0,0,1,3.2-.08l.58.59-2.24,2.24.22.23a.81.81,0,0,0,1.2,0,.77.77,0,0,0,.24-.91Zm-3.4,1.1,1.15-1.15a.82.82,0,1,0-1.15,1.15Z" style="fill:#fff"/><path d="M587.07,389.91a2.09,2.09,0,0,1-.49,2.79,2.15,2.15,0,0,1-3.34.11l-.6-.59a2.23,2.23,0,0,1,.15-3.31,2.15,2.15,0,0,1,3.2-.07l.58.59-2.24,2.24.22.22a.81.81,0,0,0,1.21,0A.79.79,0,0,0,586,391Zm-3.4,1.1,1.15-1.15a.82.82,0,0,0-1.24-.11A.83.83,0,0,0,583.67,391Z" style="fill:#fff"/><path d="M585.2,386.67l1.12-1.12.59.59.06-.06a1.48,1.48,0,0,1,.37-1.71,1.63,1.63,0,0,1,2.57.15l2.34,2.34L591.1,388,589,385.93c-.46-.46-.86-.51-1.23-.13a.84.84,0,0,0,.11,1.27l2.07,2.07-1.15,1.15Z" style="fill:#fff"/><path d="M590.92,380.76c1-1,1.92-1.12,2.67-.42l-1.07,1.08c-.22-.18-.52-.11-.79.16s-.31.55-.14.72.37.12.7-.1l.72-.49c.9-.61,1.54-.62,2.1-.06.77.77.63,1.88-.38,2.89s-2,1.19-2.76.52l1.12-1.12c.24.16.53.08.84-.22s.33-.57.16-.74-.33-.12-.72.14l-.66.44a1.56,1.56,0,0,1-2.15,0C589.81,382.78,590,381.73,590.92,380.76Z" style="fill:#fff"/><path d="M592.06,377.11l1.12-1.12,2,1.95.06-.06a1.49,1.49,0,0,1,.39-1.73,1.65,1.65,0,0,1,2.58.14l2.33,2.32-1.15,1.15-2.06-2.07c-.46-.45-.88-.49-1.26-.11a.86.86,0,0,0,.09,1.3l2,2.05L597,382.08Z" style="fill:#fff"/><path d="M599.61,376.45l-.57-.57a2.47,2.47,0,0,1,3.48-3.48l.57.57a2.47,2.47,0,0,1-3.48,3.48Zm.58-1.66.51.51c.47.47,1,.53,1.39.15s.32-.91-.15-1.38l-.51-.51c-.47-.48-1-.54-1.39-.16S599.72,374.32,600.19,374.79Z" style="fill:#fff"/><path d="M602.57,367.17l1.12,1.12L605,367l.86.86-1.24,1.23,1.55,1.55a.44.44,0,0,0,.67,0l.82-.82.84.84-.92.92c-1,1.05-1.69,1.1-2.58.22l-1.53-1.53-.92.93-.86-.86.93-.93-1.12-1.12Z" style="fill:#fff"/><path d="M610.64,370.93l-1-1,3.37-3.37,1,1Z" style="fill:#fff"/><path d="M616.58,362.53l-1,1-2.6-1.8,0,0,1.8,2.6-1,1-4.3-2.93,1.08-1.09,2.46,2.22.15-.15-2.07-2.57.9-.9,2.57,2.07.15-.16-2.22-2.45,1.09-1.08Z" style="fill:#fff"/><path d="M620,357a2.09,2.09,0,0,1-.49,2.79,2.15,2.15,0,0,1-3.34.11l-.6-.59a2.23,2.23,0,0,1,.15-3.31,2.15,2.15,0,0,1,3.2-.07l.58.59-2.24,2.24.22.23a.82.82,0,0,0,1.21,0,.78.78,0,0,0,.23-.91Zm-3.4,1.1,1.15-1.15a.81.81,0,0,0-1.24-.1A.82.82,0,0,0,616.57,358.11Z" style="fill:#fff"/><path d="M622.34,355.44l-.07.07.66.67-1.2,1.19-5-5L618,351.2l2,2,.07-.07a1.25,1.25,0,0,1,.25-1.67c.82-.82,1.83-.72,2.84.3l.6.59c1,1,1.12,2,.29,2.85A1.23,1.23,0,0,1,622.34,355.44Zm.22-1.9-.65-.65a.82.82,0,1,0-1.15,1.16l.64.64a.78.78,0,0,0,1.21.05A.77.77,0,0,0,622.56,353.54Z" style="fill:#fff"/><rect x="46.93" y="79.12" width="1" height="260" style="fill:#fff"/><rect x="40.93" y="338.62" width="6" height="1" style="fill:#fff"/><path d="M32.82,338.8c0-2.35,1-3.68,2.64-3.68s2.65,1.33,2.65,3.68-1,3.67-2.65,3.67S32.82,341.15,32.82,338.8Zm1.35.18,2.43-1.6c-.21-.73-.59-1.11-1.14-1.11-.83,0-1.29.89-1.29,2.53Zm2.59-.18v-.17l-2.43,1.6c.2.72.59,1.09,1.13,1.09C36.3,341.32,36.76,340.44,36.76,338.8Z" style="fill:#fff"/><rect x="40.93" y="316.96" width="6" height="1" style="fill:#fff"/><path d="M27.32,318.65h1.34a1.16,1.16,0,0,0,1.23,1,1.2,1.2,0,0,0,1.27-1.27A1.22,1.22,0,0,0,29.89,317a1.27,1.27,0,0,0-1.15.64H27.41l.33-4.07H32v1.17h-3.2l-.16,1.88h.09a1.74,1.74,0,0,1,1.5-.69,2.16,2.16,0,0,1,2.2,2.32,2.42,2.42,0,0,1-2.61,2.51A2.29,2.29,0,0,1,27.32,318.65Z" style="fill:#fff"/><path d="M33.44,317.13c0-2.35,1-3.67,2.64-3.67s2.65,1.32,2.65,3.67-.95,3.67-2.65,3.67S33.44,319.48,33.44,317.13Zm1.35.18,2.43-1.6c-.21-.72-.59-1.1-1.14-1.1-.83,0-1.29.88-1.29,2.52Zm2.59-.18V317L35,318.56c.2.72.59,1.09,1.13,1.09C36.92,319.65,37.38,318.77,37.38,317.13Z" style="fill:#fff"/><rect x="40.93" y="295.29" width="6" height="1" style="fill:#fff"/><path d="M22,299v-1.16h1.9v-4.51h-.08L22,294.53v-1.31l1.9-1.28h1.36v5.89h1.8V299Z" style="fill:#fff"/><path d="M27.87,295.46c0-2.34,1-3.67,2.65-3.67s2.65,1.33,2.65,3.67-1,3.67-2.65,3.67S27.87,297.81,27.87,295.46Zm1.36.18,2.42-1.6c-.2-.72-.58-1.1-1.13-1.1-.83,0-1.29.89-1.29,2.52Zm2.58-.18v-.17l-2.42,1.6c.2.72.58,1.1,1.13,1.1C31.36,298,31.81,297.1,31.81,295.46Z" style="fill:#fff"/><path d="M34.06,295.46c0-2.34.95-3.67,2.64-3.67s2.65,1.33,2.65,3.67-1,3.67-2.65,3.67S34.06,297.81,34.06,295.46Zm1.35.18,2.43-1.6c-.2-.72-.59-1.1-1.14-1.1-.83,0-1.29.89-1.29,2.52Zm2.59-.18v-.17l-2.43,1.6c.2.72.59,1.1,1.13,1.1C37.54,298,38,297.1,38,295.46Z" style="fill:#fff"/><rect x="40.93" y="273.62" width="6" height="1" style="fill:#fff"/><path d="M22,277.32v-1.16h1.9v-4.51h-.08L22,272.86v-1.31l1.9-1.27h1.36v5.88h1.8v1.16Z" style="fill:#fff"/><path d="M27.94,275.32h1.34a1.16,1.16,0,0,0,1.23.95,1.28,1.28,0,0,0,0-2.56,1.25,1.25,0,0,0-1.15.64H28l.33-4.07h4.3v1.16h-3.2l-.15,1.88h.08a1.76,1.76,0,0,1,1.5-.69,2.17,2.17,0,0,1,2.2,2.33,2.42,2.42,0,0,1-2.61,2.5A2.29,2.29,0,0,1,27.94,275.32Z" style="fill:#fff"/><path d="M34.06,273.8c0-2.35.95-3.68,2.64-3.68s2.65,1.33,2.65,3.68-1,3.67-2.65,3.67S34.06,276.15,34.06,273.8Zm1.35.18,2.43-1.6c-.2-.73-.59-1.11-1.14-1.11-.83,0-1.29.89-1.29,2.53ZM38,273.8v-.17l-2.43,1.6c.2.72.59,1.09,1.13,1.09C37.54,276.32,38,275.44,38,273.8Z" style="fill:#fff"/><rect x="40.93" y="251.96" width="6" height="1" style="fill:#fff"/><path d="M24.31,248.47c1.45,0,2.44.82,2.44,2,0,.78-.41,1.43-1.6,2.58l-1.38,1.31v.09h3.08v1.17h-5v-1l2.29-2.27c1-1,1.21-1.33,1.21-1.8a1,1,0,0,0-1.12-1,1.09,1.09,0,0,0-1.17,1.13v0H21.81v0A2.28,2.28,0,0,1,24.31,248.47Z" style="fill:#fff"/><path d="M27.87,252.13c0-2.35,1-3.67,2.65-3.67s2.65,1.32,2.65,3.67-1,3.67-2.65,3.67S27.87,254.48,27.87,252.13Zm1.36.18,2.42-1.6c-.2-.72-.58-1.1-1.13-1.1-.83,0-1.29.88-1.29,2.52Zm2.58-.18V252l-2.42,1.6c.2.72.58,1.09,1.13,1.09C31.36,254.65,31.81,253.77,31.81,252.13Z" style="fill:#fff"/><path d="M34.06,252.13c0-2.35.95-3.67,2.64-3.67s2.65,1.32,2.65,3.67-1,3.67-2.65,3.67S34.06,254.48,34.06,252.13Zm1.35.18,2.43-1.6c-.2-.72-.59-1.1-1.14-1.1-.83,0-1.29.88-1.29,2.52Zm2.59-.18V252l-2.43,1.6c.2.72.59,1.09,1.13,1.09C37.54,254.65,38,253.77,38,252.13Z" style="fill:#fff"/><rect x="40.93" y="230.29" width="6" height="1" style="fill:#fff"/><path d="M24.31,226.8a2.16,2.16,0,0,1,2.44,2c0,.77-.41,1.43-1.6,2.57l-1.38,1.31v.09h3.08V234h-5v-1l2.29-2.27c1-1,1.21-1.34,1.21-1.81a1,1,0,0,0-1.12-1,1.09,1.09,0,0,0-1.17,1.13v0H21.81v0A2.28,2.28,0,0,1,24.31,226.8Z" style="fill:#fff"/><path d="M27.94,232h1.34a1.16,1.16,0,0,0,1.23.94,1.2,1.2,0,0,0,1.27-1.27,1.22,1.22,0,0,0-1.27-1.29,1.26,1.26,0,0,0-1.15.65H28l.33-4.08h4.3v1.17h-3.2L29.31,230h.08a1.74,1.74,0,0,1,1.5-.69,2.16,2.16,0,0,1,2.2,2.32,2.42,2.42,0,0,1-2.61,2.51A2.29,2.29,0,0,1,27.94,232Z" style="fill:#fff"/><path d="M34.06,230.46c0-2.34.95-3.67,2.64-3.67s2.65,1.33,2.65,3.67-1,3.67-2.65,3.67S34.06,232.81,34.06,230.46Zm1.35.18,2.43-1.6c-.2-.72-.59-1.1-1.14-1.1-.83,0-1.29.89-1.29,2.52Zm2.59-.18v-.17l-2.43,1.6c.2.72.59,1.1,1.13,1.1C37.54,233,38,232.1,38,230.46Z" style="fill:#fff"/><rect x="40.93" y="208.62" width="6" height="1" style="fill:#fff"/><path d="M23.48,208.19h.83c.7,0,1.16-.39,1.16-1s-.45-1-1.16-1a1.09,1.09,0,0,0-1.2,1H21.87a2.2,2.2,0,0,1,2.48-2.14c1.43,0,2.41.76,2.41,1.87a1.53,1.53,0,0,1-1.25,1.6v.09A1.59,1.59,0,0,1,27,210.36c0,1.25-1.08,2.1-2.66,2.1a2.34,2.34,0,0,1-2.63-2.16H23c.05.6.56,1,1.31,1s1.32-.39,1.32-1-.52-1-1.33-1h-.84Z" style="fill:#fff"/><path d="M27.87,208.8c0-2.35,1-3.68,2.65-3.68s2.65,1.33,2.65,3.68-1,3.67-2.65,3.67S27.87,211.15,27.87,208.8Zm1.36.18,2.42-1.6c-.2-.73-.58-1.11-1.13-1.11-.83,0-1.29.89-1.29,2.53Zm2.58-.18v-.17l-2.42,1.6c.2.72.58,1.09,1.13,1.09C31.36,211.32,31.81,210.44,31.81,208.8Z" style="fill:#fff"/><path d="M34.06,208.8c0-2.35.95-3.68,2.64-3.68s2.65,1.33,2.65,3.68-1,3.67-2.65,3.67S34.06,211.15,34.06,208.8Zm1.35.18,2.43-1.6c-.2-.73-.59-1.11-1.14-1.11-.83,0-1.29.89-1.29,2.53ZM38,208.8v-.17l-2.43,1.6c.2.72.59,1.09,1.13,1.09C37.54,211.32,38,210.44,38,208.8Z" style="fill:#fff"/><rect x="40.93" y="186.96" width="6" height="1" style="fill:#fff"/><path d="M23.48,186.52h.83c.7,0,1.16-.39,1.16-1s-.45-.95-1.16-.95a1.08,1.08,0,0,0-1.2,1H21.87a2.2,2.2,0,0,1,2.48-2.13c1.43,0,2.41.75,2.41,1.87a1.52,1.52,0,0,1-1.25,1.59V187A1.59,1.59,0,0,1,27,188.69c0,1.25-1.08,2.11-2.66,2.11a2.34,2.34,0,0,1-2.63-2.17H23c.05.6.56,1,1.31,1s1.32-.4,1.32-1-.52-1-1.33-1h-.84Z" style="fill:#fff"/><path d="M27.94,188.65h1.34a1.16,1.16,0,0,0,1.23.95,1.2,1.2,0,0,0,1.27-1.27A1.22,1.22,0,0,0,30.51,187a1.27,1.27,0,0,0-1.15.64H28l.33-4.07h4.3v1.17h-3.2l-.15,1.88h.08a1.74,1.74,0,0,1,1.5-.69,2.16,2.16,0,0,1,2.2,2.32,2.42,2.42,0,0,1-2.61,2.51A2.29,2.29,0,0,1,27.94,188.65Z" style="fill:#fff"/><path d="M34.06,187.13c0-2.35.95-3.67,2.64-3.67s2.65,1.32,2.65,3.67-1,3.67-2.65,3.67S34.06,189.48,34.06,187.13Zm1.35.18,2.43-1.6c-.2-.72-.59-1.1-1.14-1.1-.83,0-1.29.88-1.29,2.52Zm2.59-.18V187l-2.43,1.6c.2.72.59,1.09,1.13,1.09C37.54,189.65,38,188.77,38,187.13Z" style="fill:#fff"/><rect x="40.93" y="165.29" width="6" height="1" style="fill:#fff"/><path d="M24.9,167.66H21.75v-1.12l2.14-4.6h1.4l-2.07,4.49v.09h1.72v-1.78h1.24v1.8h.95v1.12h-.94V169H24.9Z" style="fill:#fff"/><path d="M27.87,165.46c0-2.35,1-3.67,2.65-3.67s2.65,1.32,2.65,3.67-1,3.68-2.65,3.68S27.87,167.81,27.87,165.46Zm1.36.18,2.42-1.6c-.2-.72-.58-1.1-1.13-1.1-.83,0-1.29.89-1.29,2.52Zm2.58-.18v-.17l-2.42,1.6c.2.72.58,1.1,1.13,1.1C31.36,168,31.81,167.1,31.81,165.46Z" style="fill:#fff"/><path d="M34.06,165.46c0-2.35.95-3.67,2.64-3.67s2.65,1.32,2.65,3.67-1,3.68-2.65,3.68S34.06,167.81,34.06,165.46Zm1.35.18,2.43-1.6c-.2-.72-.59-1.1-1.14-1.1-.83,0-1.29.89-1.29,2.52Zm2.59-.18v-.17l-2.43,1.6c.2.72.59,1.1,1.13,1.1C37.54,168,38,167.1,38,165.46Z" style="fill:#fff"/><rect x="40.93" y="143.62" width="6" height="1" style="fill:#fff"/><path d="M24.9,146H21.75v-1.11l2.14-4.6h1.4l-2.07,4.48v.09h1.72v-1.78h1.24v1.81h.95V146h-.94v1.33H24.9Z" style="fill:#fff"/><path d="M27.94,145.32h1.34a1.16,1.16,0,0,0,1.23,1,1.28,1.28,0,0,0,0-2.56,1.25,1.25,0,0,0-1.15.64H28l.33-4.07h4.3v1.16h-3.2l-.15,1.88h.08a1.76,1.76,0,0,1,1.5-.69,2.17,2.17,0,0,1,2.2,2.33,2.42,2.42,0,0,1-2.61,2.5A2.29,2.29,0,0,1,27.94,145.32Z" style="fill:#fff"/><path d="M34.06,143.8c0-2.35.95-3.68,2.64-3.68s2.65,1.33,2.65,3.68-1,3.67-2.65,3.67S34.06,146.15,34.06,143.8Zm1.35.18,2.43-1.6c-.2-.73-.59-1.11-1.14-1.11-.83,0-1.29.89-1.29,2.53ZM38,143.8v-.17l-2.43,1.6c.2.72.59,1.09,1.13,1.09C37.54,146.32,38,145.44,38,143.8Z" style="fill:#fff"/><rect x="40.93" y="121.96" width="6" height="1" style="fill:#fff"/><path d="M21.76,123.65H23.1a1.16,1.16,0,0,0,1.23.95,1.19,1.19,0,0,0,1.26-1.27A1.21,1.21,0,0,0,24.33,122a1.27,1.27,0,0,0-1.15.64H21.84l.34-4.07h4.3v1.17H23.27l-.15,1.88h.09a1.72,1.72,0,0,1,1.5-.69,2.17,2.17,0,0,1,2.2,2.32,2.42,2.42,0,0,1-2.61,2.51A2.29,2.29,0,0,1,21.76,123.65Z" style="fill:#fff"/><path d="M27.87,122.13c0-2.35,1-3.67,2.65-3.67s2.65,1.32,2.65,3.67-1,3.67-2.65,3.67S27.87,124.48,27.87,122.13Zm1.36.18,2.42-1.6c-.2-.72-.58-1.1-1.13-1.1-.83,0-1.29.88-1.29,2.52Zm2.58-.18V122l-2.42,1.6c.2.72.58,1.09,1.13,1.09C31.36,124.65,31.81,123.77,31.81,122.13Z" style="fill:#fff"/><path d="M34.06,122.13c0-2.35.95-3.67,2.64-3.67s2.65,1.32,2.65,3.67-1,3.67-2.65,3.67S34.06,124.48,34.06,122.13Zm1.35.18,2.43-1.6c-.2-.72-.59-1.1-1.14-1.1-.83,0-1.29.88-1.29,2.52Zm2.59-.18V122l-2.43,1.6c.2.72.59,1.09,1.13,1.09C37.54,124.65,38,123.77,38,122.13Z" style="fill:#fff"/><rect x="40.93" y="100.29" width="6" height="1" style="fill:#fff"/><path d="M21.76,102H23.1a1.16,1.16,0,0,0,1.23.94,1.28,1.28,0,0,0,0-2.55,1.25,1.25,0,0,0-1.15.64H21.84l.34-4.08h4.3v1.17H23.27L23.12,100h.09a1.75,1.75,0,0,1,1.5-.69,2.17,2.17,0,0,1,2.2,2.33,2.42,2.42,0,0,1-2.61,2.5A2.29,2.29,0,0,1,21.76,102Z" style="fill:#fff"/><path d="M27.94,102h1.34a1.16,1.16,0,0,0,1.23.94,1.28,1.28,0,0,0,0-2.55,1.25,1.25,0,0,0-1.15.64H28l.33-4.08h4.3v1.17h-3.2L29.31,100h.08a1.76,1.76,0,0,1,1.5-.69,2.16,2.16,0,0,1,2.2,2.33,2.42,2.42,0,0,1-2.61,2.5A2.29,2.29,0,0,1,27.94,102Z" style="fill:#fff"/><path d="M34.06,100.46c0-2.35.95-3.67,2.64-3.67s2.65,1.32,2.65,3.67-1,3.68-2.65,3.68S34.06,102.81,34.06,100.46Zm1.35.18L37.84,99c-.2-.72-.59-1.1-1.14-1.1-.83,0-1.29.89-1.29,2.52Zm2.59-.18v-.17l-2.43,1.6c.2.72.59,1.1,1.13,1.1C37.54,103,38,102.1,38,100.46Z" style="fill:#fff"/><rect x="40.93" y="78.62" width="6" height="1" style="fill:#fff"/><path d="M24.41,82.46a2.52,2.52,0,0,1-2.69-2.59,4.48,4.48,0,0,1,1-2.64c.23-.34,1.3-1.72,1.49-2h1.56L24,77.62a3.12,3.12,0,0,0-.32.5h.1a1.6,1.6,0,0,1,1.13-.43A2.15,2.15,0,0,1,27.07,80,2.52,2.52,0,0,1,24.41,82.46ZM25.69,80a1.25,1.25,0,0,0-1.3-1.27A1.28,1.28,0,1,0,25.69,80Z" style="fill:#fff"/><path d="M27.87,78.8c0-2.35,1-3.68,2.65-3.68s2.65,1.33,2.65,3.68-1,3.67-2.65,3.67S27.87,81.15,27.87,78.8Zm1.36.18,2.42-1.6c-.2-.73-.58-1.11-1.13-1.11-.83,0-1.29.89-1.29,2.53Zm2.58-.18v-.17l-2.42,1.6c.2.72.58,1.09,1.13,1.09C31.36,81.32,31.81,80.44,31.81,78.8Z" style="fill:#fff"/><path d="M34.06,78.8c0-2.35.95-3.68,2.64-3.68s2.65,1.33,2.65,3.68-1,3.67-2.65,3.67S34.06,81.15,34.06,78.8Zm1.35.18,2.43-1.6c-.2-.73-.59-1.11-1.14-1.11-.83,0-1.29.89-1.29,2.53ZM38,78.8v-.17l-2.43,1.6c.2.72.59,1.09,1.13,1.09C37.54,81.32,38,80.44,38,78.8Z" style="fill:#fff"/></svg>