<svg xmlns="http://www.w3.org/2000/svg" viewBox="0 0 1264 1080"><rect width="1264" height="1080"/><rect x="188.16" y="889.7" width="22.58" height="1.36" style="fill:#ffff5c"/><rect x="212.3" y="866.94" width="22.58" height="24.12" style="fill:#8c4dfb"/><rect x="285.77" y="890.44" width="22.58" height="0.62" style="fill:#8c4dfb"/><rect x="335.09" y="886.48" width="22.58" height="4.58" style="fill:#ffff5c"/><rect x="359.23" y="774.8" width="22.58" height="116.26" style="fill:#8c4dfb"/><rect x="408.56" y="873.62" width="22.58" height="17.44" style="fill:#ffff5c"/><rect x="432.7" y="383.37" width="22.58" height="507.69" style="fill:#8c4dfb"/><rect x="482.02" y="877.58" width="22.58" height="13.48" style="fill:#ffff5c"/><rect x="506.16" y="538.09" width="22.58" height="352.97" style="fill:#8c4dfb"/><rect x="555.49" y="877.95" width="22.58" height="13.11" style="fill:#ffff5c"/><rect x="579.63" y="542.04" width="22.58" height="349.02" style="fill:#8c4dfb"/><rect x="628.95" y="885.74" width="22.58" height="5.32" style="fill:#ffff5c"/><rect x="653.09" y="756.01" width="22.58" height="135.06" style="fill:#8c4dfb"/><rect x="702.42" y="848.76" width="22.58" height="42.3" style="fill:#ffff5c"/><rect x="726.56" y="170.15" width="22.58" height="720.91" style="fill:#8c4dfb"/><rect x="775.88" y="878.94" width="22.58" height="12.12" style="fill:#ffff5c"/><rect x="800.03" y="631.59" width="22.58" height="259.47" style="fill:#8c4dfb"/><rect x="849.35" y="890.57" width="22.58" height="0.49" style="fill:#ffff5c"/><rect x="873.49" y="882.16" width="22.58" height="8.9" style="fill:#8c4dfb"/><rect x="922.81" y="889.82" width="22.58" height="1.24" style="fill:#ffff5c"/><rect x="946.96" y="854.21" width="22.58" height="36.86" style="fill:#8c4dfb"/><rect x="996.28" y="887.85" width="22.58" height="3.22" style="fill:#ffff5c"/><rect x="1020.42" y="775.42" width="22.58" height="115.64" style="fill:#8c4dfb"/><rect x="1069.74" y="883.52" width="22.58" height="7.54" style="fill:#ffff5c"/><rect x="1093.89" y="677.84" width="22.58" height="213.22" style="fill:#8c4dfb"/><path d="M163.79,891.87h978.66" style="fill:#fff;stroke:#fff"/><line x1="211.52" y1="891.06" x2="211.52" y2="900.74" style="fill:none;stroke:#fff"/><line x1="284.99" y1="891.06" x2="284.99" y2="900.74" style="fill:#fff;stroke:#fff"/><line x1="358.45" y1="891.06" x2="358.45" y2="900.74" style="fill:#fff;stroke:#fff"/><line x1="431.92" y1="891.06" x2="431.92" y2="900.74" style="fill:#fff;stroke:#fff"/><line x1="505.38" y1="891.06" x2="505.38" y2="900.74" style="fill:#fff;stroke:#fff"/><line x1="578.85" y1="891.06" x2="578.85" y2="900.74" style="fill:#fff;stroke:#fff"/><line x1="652.31" y1="891.06" x2="652.31" y2="900.74" style="fill:#fff;stroke:#fff"/><line x1="725.78" y1="891.06" x2="725.78" y2="900.74" style="fill:#fff;stroke:#fff"/><line x1="799.24" y1="891.06" x2="799.24" y2="900.74" style="fill:#fff;stroke:#fff"/><line x1="872.71" y1="891.06" x2="872.71" y2="900.74" style="fill:#fff;stroke:#fff"/><line x1="946.17" y1="891.06" x2="946.17" y2="900.74" style="fill:#fff;stroke:#fff"/><line x1="1019.64" y1="891.06" x2="1019.64" y2="900.74" style="fill:#fff;stroke:#fff"/><line x1="1093.1" y1="891.06" x2="1093.1" y2="900.74" style="fill:#fff;stroke:#fff"/><g style="isolation:isolate"><path d="M157.2,964.58a1.48,1.48,0,1,1,2-.07A1.34,1.34,0,0,1,157.2,964.58Zm6.72,10-1.22-1.21,2-2-3.7-3.71-1.87,1.87-1.22-1.22,3.35-3.35,4.92,4.93,1.86-1.86,1.21,1.22Z" style="fill:#fff"/><path d="M170.85,959.65a1.52,1.52,0,0,0-2.2.16c-.82.81-.66,1.88.47,3l.41.41c1.13,1.13,2.19,1.29,3,.47a1.5,1.5,0,0,0,.2-2.15l1.49-1.49c1.33,1.6,1.18,3.31-.41,4.9-1.81,1.81-3.84,1.79-5.7-.08l-.65-.64c-1.86-1.87-1.89-3.9-.08-5.71,1.59-1.58,3.31-1.72,5-.36Z" style="fill:#fff"/><path d="M175.2,958.12l-.95-1a4,4,0,0,1,5.65-5.65l.94,1a4,4,0,0,1-5.64,5.65Zm.61-2.39.82.83a1.9,1.9,0,1,0,2.65-2.65l-.82-.83a1.9,1.9,0,1,0-2.65,2.65Z" style="fill:#fff"/><path d="M178.79,947.43l1.48-1.48,1,1,.09-.09a2.65,2.65,0,0,1,.69-3c1.34-1.33,2.85-1.24,4.35.25l4,4-1.53,1.53-3.6-3.61c-.91-.9-1.7-1-2.47-.19a1.77,1.77,0,0,0,.1,2.67l3.55,3.55-1.52,1.52Z" style="fill:#fff"/><path d="M193.8,948.64l-1.36-1.35,5.78-5.78,1.36,1.36Z" style="fill:#fff"/><path d="M196.55,937.39l1.52-1.53a1.84,1.84,0,0,0,2.48-.32,2.06,2.06,0,0,0-2.91-2.92,2,2,0,0,0-.58,2l-1.53,1.53-4.26-5,4.91-4.91,1.33,1.33-3.66,3.65,2,2.32.1-.1a2.8,2.8,0,0,1,.92-2.49,3.5,3.5,0,0,1,5.17.14,3.9,3.9,0,0,1-.12,5.83C200.2,938.62,198,938.8,196.55,937.39Z" style="fill:#fff"/><path d="M206.17,932.33,204.85,931l2.17-2.16-5.15-5.15-.1.1-.7,3.45-1.49-1.49.72-3.63,1.55-1.55,6.71,6.72,2.06-2.06,1.32,1.32Z" style="fill:#fff"/><path d="M207.64,914.47c1.66-1.66,3.72-1.84,5.11-.45.88.88,1.17,2.1,1.12,4.76l-.08,3.07.11.1,3.51-3.52,1.33,1.33-5.66,5.67L212,924.32l0-5.21c0-2.19-.14-2.9-.68-3.44a1.64,1.64,0,0,0-2.44.13,1.76,1.76,0,0,0,0,2.63l0,0-1.47,1.47,0,0C205.84,918.37,206,916.16,207.64,914.47Z" style="fill:#fff"/></g><g style="isolation:isolate"><path d="M237.69,957.53a1.48,1.48,0,1,1,2-.07A1.34,1.34,0,0,1,237.69,957.53Zm6.72,10-1.22-1.21,2-2-3.7-3.71-1.87,1.87-1.22-1.22,3.35-3.35,4.92,4.93L248.5,961l1.21,1.22Z" style="fill:#fff"/><path d="M251.34,952.6a1.53,1.53,0,0,0-2.2.15c-.82.82-.65,1.88.47,3l.41.41c1.13,1.13,2.19,1.29,3,.47a1.5,1.5,0,0,0,.2-2.15l1.49-1.49c1.33,1.6,1.18,3.31-.41,4.9-1.81,1.81-3.84,1.79-5.7-.08l-.65-.65c-1.86-1.86-1.89-3.89-.08-5.7,1.59-1.58,3.31-1.72,5-.36Z" style="fill:#fff"/><path d="M255.69,951.06l-.95-.94a4,4,0,0,1,5.65-5.65l.94.95a4,4,0,0,1-5.64,5.64Zm.61-2.38.82.82a1.9,1.9,0,1,0,2.65-2.65L259,946a1.9,1.9,0,1,0-2.65,2.65Z" style="fill:#fff"/><path d="M259.28,940.38l1.48-1.48,1,1,.09-.09a2.65,2.65,0,0,1,.69-3c1.34-1.34,2.85-1.25,4.35.25l4,4-1.53,1.53-3.6-3.61c-.91-.9-1.7-1-2.47-.2a1.78,1.78,0,0,0,.1,2.68l3.55,3.55-1.52,1.52Z" style="fill:#fff"/><path d="M274.29,941.59l-1.36-1.36,5.78-5.77,1.36,1.35Z" style="fill:#fff"/><path d="M282.5,929.76a4,4,0,0,1-6,.11,7.21,7.21,0,0,1-1.87-4.15c-.13-.65-.48-3.44-.54-3.92l1.79-1.79.66,4.7a3.81,3.81,0,0,0,.2.92l.13-.09a2.52,2.52,0,0,1,.79-1.78,3.47,3.47,0,0,1,5,.12A4.07,4.07,0,0,1,282.5,929.76Zm-1.33-4.25a2.1,2.1,0,1,0,0,2.94A2,2,0,0,0,281.17,925.51Z" style="fill:#fff"/><path d="M288.42,920.48l-3.59,3.59-1.27-1.27-2.8-7.69,1.6-1.6,2.76,7.48.1.1,2-2-2-2,1.41-1.41,2.05,2.06,1.1-1.09,1.26,1.27L289.91,919l1.52,1.52L289.94,922Z" style="fill:#fff"/></g><g style="isolation:isolate"><path d="M291.53,986.62l1.06,1.06c1.68,1.68,1.81,3.48.41,4.88a2.26,2.26,0,0,1-2.85.56l-.12.11,3.09,3.09-1.59,1.58-8.18-8.18,1.56-1.57,1.06,1.06.12-.11a2.3,2.3,0,0,1,.56-2.88C288.06,984.81,289.86,985,291.53,986.62Zm-4,4.14,1,1a1.8,1.8,0,1,0,2.54-2.54l-1-1a1.8,1.8,0,1,0-2.54,2.54Z" style="fill:#fff"/><path d="M288,980.37l1.49-1.49,3.38,3.39.09-.09a2.69,2.69,0,0,1,.72-3c1.33-1.33,2.88-1.25,4.36.23l4,4-1.53,1.53-3.58-3.59c-.9-.9-1.72-1-2.49-.18a1.79,1.79,0,0,0,.07,2.71l3.53,3.53-1.52,1.52Z" style="fill:#fff"/><path d="M300.89,979.27l-.95-.95a4,4,0,0,1,5.65-5.64l1,.94a4,4,0,0,1-5.65,5.65Zm.61-2.38.83.82a1.9,1.9,0,1,0,2.65-2.65l-.83-.82a1.9,1.9,0,1,0-2.65,2.65Z" style="fill:#fff"/><path d="M305.69,963.87l1.81,1.82,2.29-2.29,1.22,1.22-2.26,2.26,2.93,2.93c.47.46,1.05.4,1.64-.19l1.26-1.28,1.21,1.2c-.05.07-1.26,1.3-1.38,1.42-1.67,1.67-2.84,1.78-4.26.35l-2.92-2.91-1.6,1.6-1.22-1.22,1.6-1.6-1.82-1.82Z" style="fill:#fff"/><path d="M315,965.17l-.94-.95a4,4,0,0,1,5.64-5.65l.95.95a4,4,0,0,1-5.65,5.65Zm.62-2.39.82.83a1.9,1.9,0,1,0,2.65-2.65l-.82-.83a1.9,1.9,0,1,0-2.65,2.65Z" style="fill:#fff"/><path d="M326.54,962.75l-1.35-1.36,5.77-5.78,1.36,1.36Z" style="fill:#fff"/><path d="M329.72,943.35l1.74-1.75.29,4.83,6,1.16L336,949.35l-4.4-.84v1.17l2,2-1.52,1.52-8.48-8.48,1.52-1.52,4.8,4.81.1-.1Z" style="fill:#fff"/><path d="M336.15,944l-.95-1a4,4,0,0,1,5.65-5.64l.94,1a4,4,0,0,1-5.64,5.64Zm.61-2.38.82.82a1.9,1.9,0,1,0,2.65-2.65l-.82-.82a1.9,1.9,0,1,0-2.65,2.65Z" style="fill:#fff"/><path d="M343.15,937.11l-1-1.06c-1.67-1.67-1.81-3.48-.41-4.88a2.29,2.29,0,0,1,2.86-.56l.11-.11-3.39-3.38,1.59-1.59,8.48,8.47-1.57,1.57-1-1.05-.12.11a2.29,2.29,0,0,1-.57,2.88C346.63,938.91,344.82,938.78,343.15,937.11ZM347.2,933l-1-1a1.8,1.8,0,1,0-2.54,2.53l1,1A1.8,1.8,0,1,0,347.2,933Z" style="fill:#fff"/><path d="M351.15,930.69c-1.11-1.1-1-2.56.45-4.18L353,925l-.49-.49a1.2,1.2,0,0,0-1.84.15,1.46,1.46,0,0,0-.44,1.67l-1.48,1.48c-1-1.22-.71-2.95.75-4.41s3.21-1.7,4.55-.36l4.17,4.16-1.45,1.45-.82-.82-.13.13a2.66,2.66,0,0,1-.83,2.67A2.54,2.54,0,0,1,351.15,930.69Zm3.22-4.28-.44-.45-1.11,1.25c-.67.76-.76,1.4-.28,1.87s1.11.38,1.7-.21A1.67,1.67,0,0,0,354.37,926.41Z" style="fill:#fff"/><path d="M357.92,915.14l1.75-1.74.28,4.83,6,1.15-1.76,1.77-4.4-.84v1.17l2,2L360.31,925l-8.48-8.48,1.52-1.52,4.81,4.8.09-.09Z" style="fill:#fff"/></g><g style="isolation:isolate"><path d="M349.5,1000.73l1.06,1c1.67,1.68,1.81,3.48.41,4.89a2.28,2.28,0,0,1-2.86.55l-.11.11,3.09,3.09L349.5,1012l-8.18-8.19,1.56-1.56,1.06,1,.12-.11a2.29,2.29,0,0,1,.56-2.87C346,998.92,347.83,999.06,349.5,1000.73Zm-4.05,4.13,1,1a1.8,1.8,0,1,0,2.54-2.54l-1-1a1.8,1.8,0,1,0-2.54,2.54Z" style="fill:#fff"/><path d="M346,994.47l1.49-1.49,3.38,3.39.09-.09a2.67,2.67,0,0,1,.72-3c1.33-1.33,2.88-1.26,4.36.22l4,4L358.46,999l-3.58-3.59c-.9-.89-1.72-1-2.49-.18a1.79,1.79,0,0,0,.07,2.71l3.53,3.53-1.52,1.52Z" style="fill:#fff"/><path d="M358.86,993.37l-.95-1a4,4,0,0,1,5.65-5.64l.95,1a4,4,0,0,1-5.65,5.64Zm.61-2.38.83.82a1.9,1.9,0,1,0,2.65-2.65l-.83-.82a1.9,1.9,0,1,0-2.65,2.65Z" style="fill:#fff"/><path d="M363.66,978l1.81,1.82,2.29-2.29,1.22,1.22L366.72,981l2.93,2.93c.47.47,1.05.4,1.64-.19l1.26-1.28,1.21,1.2c-.05.07-1.26,1.3-1.38,1.42-1.67,1.67-2.84,1.78-4.26.36l-2.92-2.92-1.6,1.6-1.22-1.22,1.6-1.6-1.82-1.81Z" style="fill:#fff"/><path d="M373,979.27l-.94-.95a4,4,0,0,1,5.64-5.64l.95.94a4,4,0,0,1-5.65,5.65Zm.62-2.38.82.82a1.9,1.9,0,1,0,2.65-2.65l-.82-.82a1.9,1.9,0,1,0-2.65,2.65Z" style="fill:#fff"/><path d="M384.51,976.85l-1.36-1.36,5.78-5.78,1.36,1.36Z" style="fill:#fff"/><path d="M384.81,956.82l1.82,1.81,2.28-2.28,1.22,1.22-2.26,2.26,2.94,2.93c.46.46,1.05.4,1.63-.19.15-.14,1.21-1.21,1.27-1.28l1.2,1.2c-.05.07-1.25,1.3-1.37,1.42-1.68,1.67-2.84,1.78-4.27.35l-2.92-2.91-1.6,1.59-1.21-1.22,1.59-1.59-1.81-1.82Z" style="fill:#fff"/><path d="M400.58,953.39c.95,1.22.64,3.08-.78,4.5-1.79,1.79-3.82,1.81-5.56.07l-1-1a3.64,3.64,0,0,1,.12-5.45,3.56,3.56,0,0,1,5.38.05l.85.84-4,4,.33.34a1.76,1.76,0,0,0,2.64,0,1.67,1.67,0,0,0,.53-1.89Zm-5.92,2,2.49-2.49a1.73,1.73,0,0,0-2.63-.19A1.75,1.75,0,0,0,394.66,955.4Z" style="fill:#fff"/><path d="M403.87,945.55a1.51,1.51,0,0,0-2.19.15c-.82.82-.66,1.88.46,3l.42.41c1.12,1.12,2.18,1.29,3,.47a1.5,1.5,0,0,0,.2-2.15l1.49-1.49c1.33,1.59,1.18,3.31-.41,4.9-1.81,1.81-3.83,1.78-5.7-.08l-.65-.65c-1.86-1.86-1.88-3.89-.07-5.7,1.58-1.59,3.3-1.72,4.95-.36Z" style="fill:#fff"/><path d="M404.76,940.38l1.48-1.48,1,1,.09-.09a2.65,2.65,0,0,1,.69-3c1.34-1.34,2.85-1.25,4.35.25l4,4-1.53,1.53-3.6-3.61c-.91-.9-1.69-1-2.47-.2a1.77,1.77,0,0,0,.11,2.68l3.54,3.55-1.52,1.52Z" style="fill:#fff"/><path d="M411.38,929.33a1.48,1.48,0,1,1,2-.08A1.34,1.34,0,0,1,411.38,929.33Zm6.71,10-1.21-1.22,2-2-3.71-3.71-1.87,1.87-1.22-1.21,3.35-3.36,4.93,4.93,1.86-1.85L423.4,934Z" style="fill:#fff"/><path d="M425,924.4a1.52,1.52,0,0,0-2.2.15c-.82.82-.66,1.88.47,3l.41.42c1.12,1.12,2.19,1.28,3,.46a1.49,1.49,0,0,0,.19-2.14l1.5-1.5c1.33,1.6,1.17,3.32-.41,4.9-1.81,1.81-3.84,1.79-5.7-.08l-.65-.64c-1.87-1.87-1.89-3.89-.08-5.7,1.59-1.59,3.3-1.72,4.95-.36Z" style="fill:#fff"/><path d="M430,915.14l1.74-1.74.28,4.83,6,1.15-1.77,1.77-4.4-.84v1.17l2,2L432.39,925l-8.48-8.48,1.52-1.52,4.8,4.8.1-.09Z" style="fill:#fff"/></g><g style="isolation:isolate"><path d="M408.81,1014.83l1.06,1.06c1.68,1.67,1.82,3.47.41,4.88a2.27,2.27,0,0,1-2.85.56l-.11.11,3.08,3.08-1.59,1.59-8.18-8.19,1.56-1.56,1.06,1.06.12-.12a2.29,2.29,0,0,1,.57-2.87C405.35,1013,407.14,1013.16,408.81,1014.83Zm-4,4.13,1,1a1.79,1.79,0,1,0,2.53-2.53l-1-1a1.79,1.79,0,1,0-2.53,2.53Z" style="fill:#fff"/><path d="M405.3,1008.57l1.49-1.48,3.39,3.38.08-.09a2.69,2.69,0,0,1,.72-3c1.33-1.33,2.88-1.25,4.36.23l4,4-1.52,1.52-3.59-3.58c-.9-.9-1.72-1-2.49-.19a1.8,1.8,0,0,0,.07,2.71l3.53,3.53-1.52,1.52Z" style="fill:#fff"/><path d="M418.17,1007.47l-.94-.94a4,4,0,0,1,5.64-5.65l.95,1a4,4,0,0,1-5.65,5.64Zm.62-2.38.82.83a1.9,1.9,0,1,0,2.65-2.66l-.82-.82a1.9,1.9,0,1,0-2.65,2.65Z" style="fill:#fff"/><path d="M423,992.08l1.81,1.81,2.29-2.29,1.22,1.22L426,995.08,429,998c.47.46,1.06.39,1.64-.19l1.27-1.29,1.2,1.2c-.05.08-1.25,1.3-1.38,1.42-1.67,1.67-2.84,1.79-4.26.36l-2.92-2.92-1.6,1.6L421.7,997l1.59-1.6-1.81-1.81Z" style="fill:#fff"/><path d="M432.28,993.37l-.95-1a4,4,0,0,1,5.64-5.64l.95,1a4,4,0,0,1-5.64,5.64Zm.61-2.38.82.82a1.9,1.9,0,1,0,2.65-2.65l-.82-.82a1.9,1.9,0,1,0-2.65,2.65Z" style="fill:#fff"/><path d="M443.83,991l-1.36-1.36,5.78-5.78,1.35,1.36Z" style="fill:#fff"/><path d="M454,976.86l-1.33,1.32-4.95-3.29-.05.06,3.29,4.95-1.33,1.32-7.37-4.91,1.46-1.45,4.79,3.85.19-.2-3.63-5,1.25-1.26,5,3.64.19-.2L447.61,971l1.46-1.46Z" style="fill:#fff"/><path d="M449.54,964.58a1.33,1.33,0,0,1,.08-2,1.37,1.37,0,1,1-.08,2Zm6.71,10L455,973.37l2-2-3.71-3.71-1.87,1.87-1.22-1.22,3.35-3.35,4.93,4.93,1.85-1.86,1.22,1.22Z" style="fill:#fff"/><path d="M461.1,957.45l1.75-1.74.28,4.82,6,1.16-1.76,1.77-4.41-.84v1.17l2,2-1.52,1.52L455,958.86l1.52-1.52,4.81,4.81.09-.1Z" style="fill:#fff"/><path d="M463.64,950.48a1.48,1.48,0,1,1,2-.08A1.33,1.33,0,0,1,463.64,950.48Zm6.72,10-1.22-1.21,2-2-3.71-3.71-1.87,1.87-1.22-1.22,3.36-3.35,4.92,4.93,1.86-1.86,1.21,1.22Z" style="fill:#fff"/><path d="M479.33,944.32l1.05,1c1.68,1.68,1.82,3.48.41,4.89a2.27,2.27,0,0,1-2.85.55l-.11.11,3.08,3.09-1.58,1.59-8.19-8.19,1.57-1.56,1.06,1,.11-.11a2.3,2.3,0,0,1,.57-2.88C475.86,942.51,477.66,942.65,479.33,944.32Zm-4.05,4.13,1,1a1.8,1.8,0,1,0,2.54-2.54l-1-1a1.8,1.8,0,1,0-2.54,2.54Z" style="fill:#fff"/><path d="M488.09,939.29c1,1.21.65,3.07-.78,4.5-1.78,1.79-3.81,1.81-5.55.07l-1-1a3.64,3.64,0,0,1,.11-5.45,3.57,3.57,0,0,1,5.39,0l.84.85-4,4,.34.33a1.74,1.74,0,0,0,2.64,0,1.65,1.65,0,0,0,.53-1.88Zm-5.91,2,2.49-2.48a1.72,1.72,0,0,0-2.63-.19A1.74,1.74,0,0,0,482.18,941.29Z" style="fill:#fff"/><path d="M488.64,937.1l-1.06-1.05c-1.67-1.67-1.8-3.48-.4-4.88a2.27,2.27,0,0,1,2.85-.56l.11-.11-3.38-3.38,1.59-1.59,8.48,8.47-1.57,1.57-1.06-1.05-.11.11a2.29,2.29,0,0,1-.57,2.88C492.12,938.91,490.31,938.78,488.64,937.1Zm4.05-4.13-1-1a1.8,1.8,0,1,0-2.54,2.53l1,1a1.8,1.8,0,1,0,2.54-2.54Z" style="fill:#fff"/><path d="M491.85,922.28a1.48,1.48,0,1,1,2-.08A1.35,1.35,0,0,1,491.85,922.28Zm6.71,10-1.21-1.22,2-2-3.71-3.71-1.87,1.87L492.52,926l3.35-3.35,4.93,4.93,1.85-1.85,1.22,1.21Z" style="fill:#fff"/><path d="M503.69,923.64c-1.11-1.1-1-2.56.45-4.18l1.35-1.53-.49-.49a1.2,1.2,0,0,0-1.84.15,1.44,1.44,0,0,0-.44,1.67l-1.48,1.48c-1-1.22-.71-3,.75-4.41s3.21-1.71,4.55-.36l4.17,4.16-1.45,1.45-.82-.82-.13.13a2.68,2.68,0,0,1-.83,2.67A2.54,2.54,0,0,1,503.69,923.64Zm3.22-4.28-.44-.45-1.11,1.25c-.67.76-.76,1.39-.28,1.87s1.11.38,1.7-.21A1.67,1.67,0,0,0,506.91,919.36Z" style="fill:#fff"/></g><g style="isolation:isolate"><path d="M546.59,951.37l1.06,1.06c1.68,1.67,1.82,3.47.41,4.88a2.27,2.27,0,0,1-2.85.55l-.11.12,3.08,3.08-1.59,1.59-8.18-8.19L540,952.9,541,954l.12-.12a2.29,2.29,0,0,1,.57-2.87C543.12,949.56,544.92,949.7,546.59,951.37Zm-4,4.13,1,1A1.8,1.8,0,1,0,546.1,954l-1-1a1.8,1.8,0,1,0-2.53,2.54Z" style="fill:#fff"/><path d="M545.44,947.43l1.48-1.48,1,1,.09-.09a2.65,2.65,0,0,1,.69-3c1.34-1.33,2.86-1.25,4.35.25l4,4-1.52,1.53L551.92,946c-.9-.9-1.69-1-2.47-.19a1.77,1.77,0,0,0,.11,2.67l3.54,3.55-1.52,1.52Z" style="fill:#fff"/><path d="M559,947.24l1.48-1.49c.51.29,1.25,0,1.92-.63.89-.88,1-1.75.18-2.52l-1.2-1.2-.12.11a2.5,2.5,0,0,1-.66,3c-1.42,1.41-3.24,1.28-4.9-.38l-.93-.93c-1.68-1.67-1.78-3.5-.31-5a2.46,2.46,0,0,1,2.93-.63l.11-.11-1-1.05,1.5-1.49,6.13,6.13c1.43,1.43,1.21,3.42-.58,5.22C561.92,947.86,560.2,948.23,559,947.24Zm.87-4.69a1.74,1.74,0,0,0,0-2.66L559,939a1.85,1.85,0,1,0-2.61,2.61l.88.89A1.75,1.75,0,0,0,559.88,942.55Z" style="fill:#fff"/><path d="M559.11,929.33a1.48,1.48,0,1,1,2-.08A1.35,1.35,0,0,1,559.11,929.33Zm6.72,10-1.22-1.22,2-2-3.7-3.7L561,934.31l-1.21-1.22,3.35-3.36,4.92,4.93,1.86-1.85,1.21,1.21Z" style="fill:#fff"/><path d="M578.57,926.58l-1.29,1.29L573,923.62c-.44-.44-.92-.49-1.27-.14a.92.92,0,0,0,.14,1.35l4.21,4.21-1.27,1.28-4.26-4.26c-.44-.44-.9-.49-1.27-.13a.92.92,0,0,0,.14,1.35l4.21,4.21-1.29,1.29-6.14-6.14,1.33-1.33,1,1,.17-.16a1.64,1.64,0,0,1,.07-2.25,1.56,1.56,0,0,1,2.11,0l.16-.16a1.63,1.63,0,0,1,.11-2.18c.75-.76,1.69-.64,2.67.33Z" style="fill:#fff"/><path d="M580.16,926.08l1.49-1.48c.5.28,1.24,0,1.91-.63.89-.88,1-1.75.19-2.52l-1.21-1.21-.12.12a2.5,2.5,0,0,1-.66,3c-1.41,1.41-3.24,1.28-4.9-.38l-.93-.93c-1.67-1.68-1.78-3.5-.3-5a2.43,2.43,0,0,1,2.92-.63l.11-.11-1-1,1.5-1.5,6.14,6.14c1.43,1.43,1.2,3.42-.59,5.21C583.07,926.71,581.35,927.07,580.16,926.08Zm.88-4.68a1.76,1.76,0,0,0,0-2.67l-.89-.88a1.85,1.85,0,1,0-2.61,2.61l.89.88A1.75,1.75,0,0,0,581,921.4Z" style="fill:#fff"/></g><g style="isolation:isolate"><path d="M550.86,1015.07c1.48-1.49,3.06-1.73,4.28-.65l-1.43,1.44a1.33,1.33,0,0,0-1.7.38c-.58.58-.7,1.23-.31,1.62s.79.28,1.51-.2l1.14-.75c1.5-1,2.58-1,3.52-.08,1.24,1.25,1,3-.59,4.64s-3.21,1.87-4.45.8l1.51-1.51c.51.33,1.16.15,1.79-.48s.77-1.29.37-1.69-.75-.28-1.53.23l-1.12.72c-1.4.91-2.59.89-3.53-.06C549.12,1018.29,549.34,1016.59,550.86,1015.07Z" style="fill:#fff"/><path d="M561.49,1009a1.53,1.53,0,0,0-2.2.15c-.82.82-.66,1.88.47,3l.41.41c1.12,1.13,2.19,1.29,3,.47a1.49,1.49,0,0,0,.2-2.15l1.5-1.49c1.33,1.6,1.17,3.31-.41,4.9-1.81,1.81-3.84,1.79-5.71-.08l-.64-.65c-1.87-1.86-1.89-3.89-.08-5.7,1.59-1.58,3.3-1.72,5-.36Z" style="fill:#fff"/><path d="M570,1006.24l1.78-1.78,1.13,1.12-4.41,4.41-1.12-1.12,1.17-1.17-3.9-3.9-1.28,1.29-1.13-1.13,2.75-2.75,1.58,1.58.24-.24a2.66,2.66,0,0,1,.32-3.79,3.42,3.42,0,0,1,1-.75l1.65,1.65a4.48,4.48,0,0,0-1.2.85c-1.45,1.45-1.5,2.81-.18,4.13Z" style="fill:#fff"/><path d="M579.34,995.7c1,1.22.65,3.08-.78,4.5-1.78,1.79-3.81,1.81-5.55.07l-1-1a3.64,3.64,0,0,1,.11-5.45,3.57,3.57,0,0,1,5.39,0l.84.84-4,4,.34.33a1.75,1.75,0,0,0,2.64,0,1.67,1.67,0,0,0,.53-1.89Zm-5.91,2,2.49-2.49a1.73,1.73,0,0,0-2.63-.19A1.75,1.75,0,0,0,573.43,997.71Z" style="fill:#fff"/><path d="M586.39,988.65c1,1.21.65,3.07-.78,4.5-1.78,1.79-3.81,1.81-5.55.07l-1-1a3.64,3.64,0,0,1,.11-5.45,3.57,3.57,0,0,1,5.39,0l.84.85-3.95,4,.33.33a1.75,1.75,0,0,0,2.64,0,1.65,1.65,0,0,0,.53-1.88Zm-5.91,2,2.49-2.48a1.72,1.72,0,0,0-2.63-.19A1.74,1.74,0,0,0,580.48,990.65Z" style="fill:#fff"/><path d="M583.53,982.68l1.47-1.47,1,1,.09-.1a2.62,2.62,0,0,1,.69-3c1.34-1.34,2.85-1.25,4.35.25l4,4-1.53,1.52-3.61-3.6c-.9-.91-1.69-1-2.46-.2a1.78,1.78,0,0,0,.1,2.68l3.55,3.55-1.52,1.52Z" style="fill:#fff"/><path d="M593.16,972.76c1.49-1.49,3.07-1.73,4.29-.64L596,973.55a1.32,1.32,0,0,0-1.69.38c-.58.58-.71,1.23-.32,1.62s.8.28,1.51-.19l1.15-.76c1.5-1,2.58-1,3.51-.07,1.25,1.24,1,3-.58,4.63s-3.21,1.87-4.45.8l1.5-1.5c.52.33,1.17.15,1.8-.49s.76-1.28.36-1.68-.74-.28-1.53.22l-1.11.73c-1.4.9-2.59.88-3.54-.06C591.43,976,591.64,974.28,593.16,972.76Z" style="fill:#fff"/><path d="M595.27,966.27l1.49-1.49,3.38,3.38.09-.08a2.68,2.68,0,0,1,.72-3c1.33-1.33,2.88-1.25,4.36.23l4,4-1.53,1.52-3.58-3.58c-.9-.9-1.72-1-2.49-.19a1.81,1.81,0,0,0,.07,2.72l3.53,3.52-1.52,1.53Z" style="fill:#fff"/><path d="M608.14,965.17l-.95-.95a4,4,0,0,1,5.65-5.65l.95.95a4,4,0,0,1-5.65,5.65Zm.61-2.39.83.83a1.89,1.89,0,1,0,2.65-2.65l-.83-.83a1.89,1.89,0,1,0-2.65,2.65Z" style="fill:#fff"/><path d="M612.94,949.77l1.81,1.81L617,949.3l1.22,1.22L616,952.78l2.93,2.93c.47.46,1.06.39,1.64-.19.14-.14,1.2-1.21,1.26-1.29l1.21,1.21c0,.07-1.26,1.29-1.38,1.42-1.67,1.67-2.84,1.78-4.26.35l-2.92-2.92-1.6,1.6-1.22-1.22,1.6-1.59-1.82-1.82Z" style="fill:#fff"/><path d="M626.74,955.7l-1.36-1.36,5.78-5.78,1.36,1.36Z" style="fill:#fff"/><path d="M632.35,947.24l1.49-1.49c.5.29,1.24,0,1.91-.63.89-.88,1-1.75.19-2.52l-1.21-1.2-.12.11a2.5,2.5,0,0,1-.66,3c-1.41,1.41-3.24,1.28-4.9-.38l-.93-.93c-1.68-1.67-1.78-3.5-.31-5a2.46,2.46,0,0,1,2.93-.63l.11-.11-1.05-1.05,1.5-1.49,6.13,6.13c1.44,1.43,1.21,3.42-.58,5.22C635.26,947.86,633.54,948.23,632.35,947.24Zm.88-4.69a1.75,1.75,0,0,0-.05-2.66l-.89-.89a1.85,1.85,0,1,0-2.61,2.61l.88.89A1.76,1.76,0,0,0,633.23,942.55Z" style="fill:#fff"/><path d="M637.24,937.75c-1.11-1.11-1-2.57.46-4.19l1.35-1.53-.49-.49a1.21,1.21,0,0,0-1.85.15,1.44,1.44,0,0,0-.43,1.67l-1.48,1.49c-1-1.23-.71-3,.74-4.41s3.22-1.71,4.56-.37l4.16,4.16-1.44,1.45-.82-.82-.14.14a2.64,2.64,0,0,1-.83,2.66A2.54,2.54,0,0,1,637.24,937.75Zm3.23-4.29L640,933l-1.11,1.26c-.67.75-.76,1.39-.29,1.86s1.12.38,1.71-.21A1.68,1.68,0,0,0,640.47,933.46Z" style="fill:#fff"/><path d="M651.92,926.58l-1.3,1.29-4.25-4.25c-.44-.44-.92-.49-1.27-.14a.92.92,0,0,0,.14,1.35l4.22,4.21-1.28,1.28-4.25-4.26c-.44-.44-.91-.49-1.27-.13a.91.91,0,0,0,.13,1.35l4.21,4.21-1.29,1.29-6.14-6.14,1.33-1.33,1,1,.16-.16a1.64,1.64,0,0,1,.07-2.25,1.57,1.57,0,0,1,2.12,0l.16-.16a1.62,1.62,0,0,1,.1-2.18c.76-.76,1.7-.64,2.67.33Z" style="fill:#fff"/><path d="M656.91,918.14c1,1.21.64,3.07-.78,4.5-1.79,1.78-3.82,1.81-5.56.06l-1-1a3.65,3.65,0,0,1,.11-5.46,3.56,3.56,0,0,1,5.38,0l.85.85-4,4,.33.33a1.75,1.75,0,0,0,2.64,0,1.66,1.66,0,0,0,.53-1.89Zm-5.91,2,2.48-2.49a1.72,1.72,0,0,0-2.63-.18A1.74,1.74,0,0,0,651,920.14Z" style="fill:#fff"/></g><g style="isolation:isolate"><path d="M631.24,1008c1.49-1.49,3.06-1.73,4.29-.65l-1.44,1.44c-.48-.34-1.13-.19-1.7.38s-.7,1.23-.31,1.62.79.27,1.51-.2l1.15-.76c1.5-1,2.58-1,3.51-.07,1.24,1.24,1,3-.58,4.64s-3.22,1.87-4.45.79l1.5-1.5c.52.33,1.16.15,1.8-.48s.76-1.29.36-1.69-.75-.28-1.53.23l-1.11.72c-1.41.9-2.59.89-3.54-.06C629.51,1011.24,629.72,1009.54,631.24,1008Z" style="fill:#fff"/><path d="M641.87,1002a1.53,1.53,0,0,0-2.2.15c-.82.82-.65,1.88.47,3l.41.41c1.13,1.12,2.19,1.29,3,.47a1.5,1.5,0,0,0,.2-2.15l1.49-1.49c1.33,1.6,1.18,3.31-.41,4.9-1.81,1.81-3.84,1.78-5.7-.08l-.65-.65c-1.86-1.86-1.89-3.89-.07-5.7,1.58-1.59,3.3-1.72,4.94-.36Z" style="fill:#fff"/><path d="M650.4,999.19l1.78-1.78,1.12,1.12-4.41,4.41-1.12-1.12,1.17-1.17-3.9-3.9L643.76,998l-1.12-1.12,2.75-2.75,1.57,1.57.24-.23a2.67,2.67,0,0,1,.32-3.8,3.7,3.7,0,0,1,1-.74l1.66,1.65a4.31,4.31,0,0,0-1.21.85c-1.44,1.44-1.49,2.81-.17,4.13Z" style="fill:#fff"/><path d="M659.73,988.65c.95,1.21.64,3.07-.78,4.5-1.79,1.79-3.82,1.81-5.56.07l-1-1a3.65,3.65,0,0,1,.11-5.46,3.57,3.57,0,0,1,5.38.05l.85.85-4,4,.33.33a1.75,1.75,0,0,0,2.64,0,1.65,1.65,0,0,0,.53-1.88Zm-5.92,2,2.49-2.48a1.72,1.72,0,0,0-2.63-.19A1.74,1.74,0,0,0,653.81,990.65Z" style="fill:#fff"/><path d="M666.78,981.6c1,1.21.64,3.07-.78,4.5-1.79,1.78-3.81,1.81-5.56.06l-1-1a3.65,3.65,0,0,1,.11-5.46,3.56,3.56,0,0,1,5.38,0l.85.85-4,4,.33.33a1.75,1.75,0,0,0,2.64,0,1.64,1.64,0,0,0,.53-1.88Zm-5.91,2,2.48-2.49a1.72,1.72,0,0,0-2.63-.18A1.74,1.74,0,0,0,660.87,983.6Z" style="fill:#fff"/><path d="M663.92,975.63l1.47-1.47,1,1,.09-.1a2.64,2.64,0,0,1,.7-3c1.33-1.34,2.85-1.25,4.34.25l4,4L674,977.83l-3.61-3.61c-.9-.9-1.69-1-2.47-.19a1.78,1.78,0,0,0,.11,2.68l3.55,3.54-1.52,1.52Z" style="fill:#fff"/><path d="M673.55,965.71c1.49-1.49,3.06-1.73,4.29-.65l-1.44,1.44a1.33,1.33,0,0,0-1.7.38c-.58.58-.7,1.23-.31,1.62s.79.28,1.51-.2l1.15-.76c1.49-1,2.57-1,3.51-.07,1.24,1.24,1,3-.59,4.64s-3.21,1.87-4.44.8l1.5-1.51c.52.33,1.16.15,1.8-.48s.76-1.29.36-1.69-.75-.27-1.53.23l-1.12.72q-2.1,1.37-3.53-.06C671.82,968.93,672,967.23,673.55,965.71Z" style="fill:#fff"/><path d="M675.66,959.21l1.48-1.48,3.39,3.38.09-.09a2.68,2.68,0,0,1,.71-3c1.34-1.33,2.88-1.25,4.37.23l3.95,4-1.52,1.52-3.59-3.58c-.89-.9-1.71-1-2.49-.19a1.8,1.8,0,0,0,.08,2.71l3.53,3.53-1.52,1.52Z" style="fill:#fff"/><path d="M688.53,958.11l-.95-.94a4,4,0,0,1,5.64-5.65l.95,1a4,4,0,0,1-5.64,5.64Zm.61-2.38.82.82a1.89,1.89,0,1,0,2.65-2.64l-.82-.83a1.9,1.9,0,1,0-2.65,2.65Z" style="fill:#fff"/><path d="M693.32,942.72l1.82,1.81,2.29-2.29,1.21,1.22-2.26,2.26,2.94,2.94c.46.46,1,.39,1.64-.19l1.26-1.29,1.2,1.2c0,.08-1.25,1.3-1.37,1.42-1.67,1.67-2.84,1.79-4.27.36l-2.92-2.92-1.59,1.6-1.22-1.22,1.6-1.59-1.82-1.82Z" style="fill:#fff"/><path d="M707.13,948.64l-1.36-1.35,5.78-5.78,1.36,1.35Z" style="fill:#fff"/><path d="M717.28,934.55,716,935.88l-5-3.3,0,.06,3.29,5-1.32,1.32L705.54,934l1.46-1.45,4.79,3.85.2-.2-3.64-5,1.26-1.26,5,3.64.19-.19-3.85-4.79,1.46-1.46Z" style="fill:#fff"/><path d="M723.19,925.19c1,1.21.64,3.07-.78,4.5-1.79,1.78-3.81,1.81-5.56.06l-1-1a3.65,3.65,0,0,1,.11-5.46,3.56,3.56,0,0,1,5.38.05l.85.85-4,4,.33.33a1.75,1.75,0,0,0,2.64,0,1.65,1.65,0,0,0,.53-1.89Zm-5.91,2,2.48-2.49a1.72,1.72,0,0,0-2.63-.18A1.74,1.74,0,0,0,717.28,927.19Z" style="fill:#fff"/><path d="M727.1,922.61l-.11.11,1.06,1.06-1.57,1.57L718,916.87l1.58-1.58,3.39,3.38.12-.12a2.26,2.26,0,0,1,.55-2.84c1.41-1.41,3.2-1.27,4.87.4l1.06,1.06c1.67,1.67,1.81,3.47.4,4.87A2.28,2.28,0,0,1,727.1,922.61Zm.88-3.93-1-1a1.8,1.8,0,1,0-2.54,2.54l1,1a1.8,1.8,0,1,0,2.54-2.53Z" style="fill:#fff"/></g><g style="isolation:isolate"><path d="M702.7,1006.18l1.82,1.82,2.28-2.29,1.22,1.22-2.26,2.26,2.94,2.93c.46.46,1,.4,1.63-.19.15-.14,1.21-1.21,1.27-1.29l1.2,1.21c0,.07-1.25,1.29-1.38,1.42-1.67,1.67-2.84,1.78-4.26.35l-2.92-2.91-1.59,1.59-1.22-1.21,1.59-1.6-1.81-1.82Z" style="fill:#fff"/><path d="M718.47,1002.75c.95,1.22.64,3.08-.78,4.5-1.79,1.79-3.82,1.81-5.56.07l-1-1a3.64,3.64,0,0,1,.12-5.45,3.56,3.56,0,0,1,5.38,0l.85.84-4,4,.33.34a1.76,1.76,0,0,0,2.64,0,1.67,1.67,0,0,0,.53-1.89Zm-5.92,2,2.49-2.49a1.72,1.72,0,0,0-2.63-.18A1.74,1.74,0,0,0,712.55,1004.76Z" style="fill:#fff"/><path d="M722.34,998.21l.83,3.29-1.61,1.61-1.09-5L715.4,997l1.76-1.76,3.23.91.1-.1-.9-3.24,1.67-1.67,1.07,5,5.08,1.14-1.7,1.7-3.28-.84Z" style="fill:#fff"/><path d="M723.85,985l1.82,1.81,2.29-2.29,1.22,1.22L726.92,988l2.93,2.94c.46.46,1,.39,1.64-.19l1.26-1.29,1.2,1.2c-.05.08-1.25,1.3-1.37,1.42-1.67,1.67-2.84,1.79-4.27.36l-2.91-2.92-1.6,1.6-1.22-1.22,1.6-1.6-1.82-1.81Z" style="fill:#fff"/><path d="M741.31,983.36l-1.47,1.47-1-1-.1.1a2.65,2.65,0,0,1-.68,3c-1.34,1.34-2.85,1.25-4.35-.25l-4-4,1.53-1.52,3.61,3.61c.9.9,1.69,1,2.46.19a1.77,1.77,0,0,0-.1-2.67l-3.55-3.55,1.52-1.52Z" style="fill:#fff"/><path d="M744.39,978l1.78-1.78,1.12,1.12-4.4,4.41-1.12-1.12,1.16-1.17L739,975.6l-1.28,1.28-1.13-1.12,2.75-2.75,1.58,1.57.24-.24a2.67,2.67,0,0,1,.31-3.79,4,4,0,0,1,1-.75l1.65,1.66a4.43,4.43,0,0,0-1.2.84c-1.45,1.45-1.5,2.82-.18,4.14Z" style="fill:#fff"/><path d="M753.72,967.5c1,1.21.65,3.07-.78,4.5-1.78,1.78-3.81,1.8-5.55.06l-1-1a3.65,3.65,0,0,1,.11-5.46,3.57,3.57,0,0,1,5.39,0l.84.85-4,4,.34.33a1.75,1.75,0,0,0,2.64,0,1.66,1.66,0,0,0,.53-1.89Zm-5.91,2L750.3,967a1.77,1.77,0,1,0-2.49,2.49Z" style="fill:#fff"/><path d="M753.44,958.66c1.49-1.49,3.06-1.73,4.29-.65l-1.44,1.44a1.33,1.33,0,0,0-1.7.38c-.58.58-.7,1.23-.31,1.62s.79.28,1.51-.2l1.15-.75c1.5-1,2.58-1,3.51-.08,1.24,1.24,1,3-.58,4.64s-3.22,1.87-4.45.8l1.5-1.51c.52.33,1.16.15,1.8-.48s.76-1.29.36-1.69-.75-.28-1.53.23l-1.11.72q-2.12,1.36-3.54-.06C751.71,961.88,751.92,960.18,753.44,958.66Z" style="fill:#fff"/><path d="M765.86,962.75l-1.35-1.36,5.78-5.78,1.35,1.36Z" style="fill:#fff"/><path d="M773.16,944.32l1.06,1c1.68,1.68,1.81,3.48.41,4.89a2.28,2.28,0,0,1-2.86.55l-.11.11,3.09,3.09-1.59,1.59L765,947.41l1.56-1.56,1.06,1,.12-.11a2.29,2.29,0,0,1,.56-2.87C769.69,942.51,771.49,942.65,773.16,944.32Zm-4,4.13,1,1a1.8,1.8,0,1,0,2.54-2.54l-1-1a1.8,1.8,0,1,0-2.54,2.54Z" style="fill:#fff"/><path d="M769.65,938.06l1.49-1.48,3.38,3.38.09-.09a2.67,2.67,0,0,1,.72-3c1.33-1.33,2.88-1.26,4.36.22l4,4-1.53,1.53L778.54,939c-.9-.89-1.72-1-2.49-.18a1.79,1.79,0,0,0,.07,2.71l3.53,3.53-1.52,1.52Z" style="fill:#fff"/><path d="M782.52,937l-.95-.94a4,4,0,0,1,5.65-5.65l.95,1a4,4,0,0,1-5.65,5.64Zm.61-2.38.83.82a1.9,1.9,0,1,0,2.65-2.65l-.83-.82a1.9,1.9,0,1,0-2.65,2.65Z" style="fill:#fff"/><path d="M787.32,921.56l1.81,1.82,2.29-2.29,1.22,1.22-2.26,2.26,2.93,2.93c.47.47,1.06.4,1.64-.19l1.26-1.28,1.21,1.2c0,.07-1.26,1.3-1.38,1.42-1.67,1.67-2.84,1.78-4.26.36l-2.92-2.92-1.6,1.6L786,926.47l1.6-1.6-1.81-1.81Z" style="fill:#fff"/><path d="M796.62,922.86l-.94-1a4,4,0,0,1,5.64-5.64l.95.94a4,4,0,0,1-5.65,5.65Zm.62-2.38.82.82a1.9,1.9,0,1,0,2.65-2.65l-.82-.82a1.9,1.9,0,1,0-2.65,2.65Z" style="fill:#fff"/></g><g style="isolation:isolate"><path d="M799.15,985l1.81,1.81,2.29-2.29,1.22,1.22L802.21,988l2.93,2.94c.47.46,1.06.39,1.64-.19l1.26-1.29,1.21,1.2c0,.08-1.26,1.3-1.38,1.42-1.67,1.67-2.84,1.78-4.26.36l-2.92-2.92-1.6,1.6-1.22-1.22,1.6-1.6-1.82-1.81Z" style="fill:#fff"/><path d="M814.91,981.6c1,1.21.65,3.07-.78,4.5-1.79,1.78-3.81,1.81-5.55.07l-1-1a3.65,3.65,0,0,1,.11-5.46,3.56,3.56,0,0,1,5.38,0l.85.85-4,4,.34.33a1.75,1.75,0,0,0,2.64,0,1.67,1.67,0,0,0,.53-1.88Zm-5.91,2,2.49-2.48A1.77,1.77,0,1,0,809,983.6Z" style="fill:#fff"/><path d="M818.78,977.06l.84,3.28L818,982l-1.09-5-5.06-1.14,1.76-1.76,3.23.91.1-.09-.91-3.24L817.7,970l1.08,5,5.08,1.14-1.7,1.69-3.29-.83Z" style="fill:#fff"/><path d="M820.3,963.87l1.82,1.82,2.28-2.29,1.22,1.22-2.26,2.26,2.94,2.93c.46.47,1.05.4,1.63-.19.15-.14,1.21-1.21,1.27-1.28l1.2,1.2c0,.07-1.25,1.3-1.38,1.42-1.67,1.67-2.83,1.78-4.26.36l-2.92-2.92-1.6,1.6L819,968.78l1.59-1.6-1.81-1.82Z" style="fill:#fff"/><path d="M837.76,962.2l-1.48,1.48-1-1-.09.09a2.65,2.65,0,0,1-.69,3c-1.33,1.33-2.85,1.24-4.35-.25l-4-4,1.53-1.53,3.6,3.61c.91.9,1.69,1,2.47.2a1.78,1.78,0,0,0-.1-2.68l-3.55-3.55,1.52-1.52Z" style="fill:#fff"/><path d="M840.84,956.88l1.78-1.78,1.12,1.12-4.41,4.41-1.12-1.12,1.17-1.17-3.9-3.89-1.28,1.28-1.12-1.13,2.75-2.75,1.57,1.58.24-.24a2.66,2.66,0,0,1,.32-3.79,3.56,3.56,0,0,1,1-.75l1.66,1.65a4.52,4.52,0,0,0-1.21.85c-1.44,1.45-1.49,2.81-.17,4.13Z" style="fill:#fff"/><path d="M850.17,946.34c1,1.22.64,3.08-.78,4.5-1.79,1.79-3.82,1.81-5.56.07l-1-1a3.64,3.64,0,0,1,.11-5.45,3.56,3.56,0,0,1,5.38,0l.85.84-4,4,.33.33a1.75,1.75,0,0,0,2.64,0,1.67,1.67,0,0,0,.53-1.89Zm-5.92,2,2.49-2.49a1.73,1.73,0,0,0-2.63-.19A1.76,1.76,0,0,0,844.25,948.35Z" style="fill:#fff"/><path d="M849.89,937.5c1.48-1.48,3.06-1.72,4.28-.64l-1.43,1.43a1.33,1.33,0,0,0-1.7.39c-.58.58-.7,1.22-.31,1.61s.79.28,1.51-.19l1.14-.76c1.5-1,2.58-1,3.52-.07,1.24,1.24,1,3-.59,4.64s-3.21,1.86-4.45.79l1.51-1.5c.51.33,1.16.15,1.79-.49s.77-1.28.37-1.68-.75-.28-1.53.23l-1.12.72c-1.4.9-2.59.89-3.53-.06C848.16,940.73,848.37,939,849.89,937.5Z" style="fill:#fff"/><path d="M862.31,941.59,861,940.23l5.78-5.77,1.36,1.35Z" style="fill:#fff"/><path d="M869.61,923.16l1.06,1.06c1.67,1.67,1.81,3.47.4,4.88a2.26,2.26,0,0,1-2.85.56l-.11.11,3.08,3.08-1.58,1.59-8.19-8.18,1.57-1.57,1.06,1.06.11-.12a2.29,2.29,0,0,1,.57-2.87C866.14,921.35,867.94,921.49,869.61,923.16Zm-4.05,4.14,1,1a1.8,1.8,0,1,0,2.54-2.54l-1-1a1.8,1.8,0,1,0-2.54,2.54Z" style="fill:#fff"/><path d="M872.54,915.14l1.74-1.74.29,4.83,6,1.15-1.77,1.77-4.4-.84v1.17l2,2L874.93,925l-8.48-8.48L868,915l4.8,4.8.1-.09Z" style="fill:#fff"/></g><g style="isolation:isolate"><path d="M859.54,999.13l1.81,1.81,2.29-2.28,1.22,1.22-2.26,2.25,2.93,2.94c.47.46,1.06.39,1.64-.19.15-.14,1.2-1.21,1.27-1.29l1.2,1.21c0,.07-1.25,1.29-1.38,1.42-1.67,1.67-2.84,1.78-4.26.35l-2.92-2.91-1.6,1.59-1.22-1.22,1.6-1.59-1.81-1.82Z" style="fill:#fff"/><path d="M875.3,995.7c1,1.22.65,3.08-.78,4.5-1.78,1.79-3.81,1.81-5.55.07l-1-1a3.64,3.64,0,0,1,.11-5.45,3.57,3.57,0,0,1,5.39,0l.84.84-4,4,.34.33a1.75,1.75,0,0,0,2.64,0,1.67,1.67,0,0,0,.53-1.89Zm-5.91,2,2.49-2.49a1.73,1.73,0,0,0-2.63-.19A1.75,1.75,0,0,0,869.39,997.71Z" style="fill:#fff"/><path d="M879.18,991.16l.83,3.29-1.61,1.61-1.1-5-5.06-1.13,1.76-1.76,3.23.9.1-.09-.91-3.24,1.67-1.67,1.08,5,5.08,1.14-1.7,1.7-3.29-.84Z" style="fill:#fff"/><path d="M880.69,978l1.82,1.82,2.29-2.29,1.21,1.22L883.75,981l2.94,2.94c.46.46,1,.39,1.64-.19l1.26-1.29,1.2,1.2c0,.07-1.25,1.3-1.37,1.42-1.67,1.67-2.84,1.78-4.27.36l-2.92-2.92-1.59,1.6-1.22-1.22,1.59-1.6-1.81-1.81Z" style="fill:#fff"/><path d="M898.15,976.31l-1.48,1.47-1-1-.09.1a2.65,2.65,0,0,1-.68,3c-1.34,1.34-2.86,1.25-4.35-.25l-4-4,1.53-1.52,3.6,3.61c.91.9,1.7,1,2.47.19a1.77,1.77,0,0,0-.1-2.67l-3.55-3.55,1.52-1.52Z" style="fill:#fff"/><path d="M901.23,971l1.78-1.78,1.12,1.12-4.41,4.4-1.12-1.11,1.17-1.17-3.89-3.9-1.29,1.28-1.12-1.12,2.75-2.75,1.58,1.57.24-.24a2.65,2.65,0,0,1,.31-3.79,3.76,3.76,0,0,1,1-.75l1.66,1.66a4.29,4.29,0,0,0-1.2.84c-1.45,1.45-1.5,2.81-.18,4.13Z" style="fill:#fff"/><path d="M910.56,960.45c1,1.21.65,3.07-.78,4.49-1.79,1.79-3.81,1.81-5.56.07l-1-1a3.65,3.65,0,0,1,.11-5.46,3.56,3.56,0,0,1,5.38,0l.85.85-4,3.95.33.34a1.75,1.75,0,0,0,2.64,0,1.65,1.65,0,0,0,.53-1.89Zm-5.91,2,2.49-2.49a1.77,1.77,0,1,0-2.49,2.49Z" style="fill:#fff"/><path d="M910.28,951.61c1.48-1.49,3.06-1.73,4.29-.65l-1.44,1.44c-.48-.34-1.13-.19-1.7.38s-.7,1.23-.31,1.62.79.28,1.51-.2l1.14-.76c1.5-1,2.58-1,3.52-.07,1.24,1.24,1,3-.59,4.64s-3.21,1.87-4.45.8l1.51-1.51c.52.33,1.16.15,1.8-.48s.76-1.29.36-1.69-.75-.28-1.53.23l-1.12.72c-1.4.91-2.59.89-3.53-.06C908.55,954.83,908.76,953.13,910.28,951.61Z" style="fill:#fff"/><path d="M922.7,955.7l-1.36-1.36,5.78-5.78,1.36,1.36Z" style="fill:#fff"/><path d="M930,937.27l1.06,1.05c1.67,1.68,1.81,3.48.4,4.89a2.27,2.27,0,0,1-2.85.55l-.11.11,3.08,3.09L930,948.54l-8.19-8.18,1.57-1.57,1.06,1.06.11-.11a2.32,2.32,0,0,1,.57-2.88C926.53,935.46,928.33,935.6,930,937.27Zm-4,4.13,1,1a1.8,1.8,0,1,0,2.54-2.54l-1-1A1.8,1.8,0,1,0,926,941.4Z" style="fill:#fff"/><path d="M932.93,929.24l1.74-1.74.29,4.83,6,1.16-1.77,1.76-4.4-.84v1.17l2,2-1.52,1.52-8.48-8.48,1.52-1.52,4.81,4.8.09-.09Z" style="fill:#fff"/><path d="M937.74,928.68c-2.68-2.68-3.1-5.28-1.17-7.2s4.53-1.52,7.21,1.16,3.09,5.28,1.16,7.21S940.42,931.36,937.74,928.68Zm1.75-1.34.94-4.59c-1.06-.6-1.92-.6-2.55,0-1,1-.46,2.49,1.41,4.35Zm2.74-3.15L942,924l-.94,4.59c1,.59,1.91.58,2.53,0C944.59,927.58,944.1,926.06,942.23,924.19Z" style="fill:#fff"/><path d="M949.18,925.28,947.86,924l2.16-2.17-5.14-5.14-.1.1-.7,3.45-1.49-1.49.72-3.63,1.55-1.55,6.71,6.72,2-2.06,1.32,1.32Z" style="fill:#fff"/></g><g style="isolation:isolate"><path d="M932.33,999.13l1.82,1.81,2.28-2.29,1.22,1.22-2.26,2.26,2.94,2.94c.46.46,1,.39,1.63-.19.15-.15,1.21-1.21,1.27-1.29l1.2,1.2c0,.08-1.25,1.3-1.38,1.42-1.67,1.67-2.84,1.79-4.26.36l-2.92-2.92-1.6,1.6-1.22-1.22,1.6-1.59-1.81-1.82Z" style="fill:#fff"/><path d="M948.09,995.7c1,1.22.65,3.08-.77,4.5-1.79,1.79-3.82,1.81-5.56.07l-1-1a3.64,3.64,0,0,1,.11-5.45,3.57,3.57,0,0,1,5.39,0l.84.84-4,4,.33.33a1.75,1.75,0,0,0,2.64,0,1.67,1.67,0,0,0,.53-1.89Zm-5.91,2,2.49-2.49A1.72,1.72,0,0,0,942,995,1.75,1.75,0,0,0,942.18,997.71Z" style="fill:#fff"/><path d="M952,991.16l.83,3.29-1.61,1.61-1.09-5L945,989.94l1.76-1.76,3.23.9.1-.09-.9-3.24,1.67-1.67,1.07,5,5.08,1.14-1.7,1.7-3.28-.84Z" style="fill:#fff"/><path d="M953.48,978l1.82,1.82,2.29-2.29,1.22,1.22L956.54,981l2.94,2.93c.46.47,1,.4,1.64-.19l1.26-1.28,1.2,1.2c-.05.07-1.25,1.3-1.37,1.42-1.67,1.67-2.84,1.78-4.27.36L955,982.5l-1.6,1.6-1.22-1.22,1.6-1.6L952,979.47Z" style="fill:#fff"/><path d="M970.94,976.31l-1.47,1.47-1-1-.1.1a2.65,2.65,0,0,1-.68,3c-1.34,1.33-2.85,1.25-4.35-.25l-4-4,1.53-1.52,3.61,3.6c.9.91,1.69,1,2.46.2a1.77,1.77,0,0,0-.1-2.67l-3.55-3.55,1.52-1.52Z" style="fill:#fff"/><path d="M974,971l1.78-1.78,1.12,1.11-4.41,4.41-1.12-1.12,1.17-1.17-3.89-3.89-1.28,1.28-1.13-1.13L969,966l1.58,1.58.24-.24a2.66,2.66,0,0,1,.31-3.79,3.79,3.79,0,0,1,1-.75l1.65,1.66a4.43,4.43,0,0,0-1.2.84c-1.45,1.45-1.5,2.81-.18,4.13Z" style="fill:#fff"/><path d="M983.35,960.45c1,1.21.65,3.07-.78,4.49-1.79,1.79-3.81,1.81-5.56.07l-1-1a3.65,3.65,0,0,1,.11-5.46,3.56,3.56,0,0,1,5.38,0l.85.84-4,4,.34.34a1.76,1.76,0,0,0,2.64,0,1.68,1.68,0,0,0,.53-1.89Zm-5.91,2,2.49-2.49a1.77,1.77,0,1,0-2.49,2.49Z" style="fill:#fff"/><path d="M983.07,951.61c1.49-1.49,3.06-1.73,4.29-.65l-1.44,1.44c-.48-.34-1.13-.19-1.7.38s-.7,1.22-.31,1.61.79.28,1.51-.19l1.15-.76c1.49-1,2.57-1,3.51-.07,1.24,1.24,1,3-.58,4.64s-3.22,1.86-4.45.79l1.5-1.5c.52.33,1.16.15,1.8-.48s.76-1.29.36-1.69-.75-.28-1.53.23l-1.11.72c-1.41.9-2.59.89-3.54-.06C981.34,954.83,981.55,953.12,983.07,951.61Z" style="fill:#fff"/><path d="M995.49,955.7l-1.36-1.36,5.78-5.78,1.36,1.36Z" style="fill:#fff"/><path d="M1002.79,937.26l1.06,1.06c1.67,1.68,1.81,3.47.4,4.88a2.26,2.26,0,0,1-2.85.56l-.11.11,3.09,3.09-1.59,1.58-8.18-8.18,1.56-1.57,1.06,1.06.12-.11a2.3,2.3,0,0,1,.56-2.88C999.32,935.45,1001.12,935.59,1002.79,937.26Zm-4,4.14,1,1a1.8,1.8,0,1,0,2.54-2.54l-1-1a1.8,1.8,0,1,0-2.54,2.54Z" style="fill:#fff"/><path d="M1005.72,929.24l1.74-1.74.29,4.83,6,1.16-1.76,1.76-4.41-.84v1.17l2,2-1.52,1.52-8.48-8.48,1.52-1.52,4.81,4.8.09-.09Z" style="fill:#fff"/><path d="M1010.53,928.68c-2.68-2.68-3.1-5.28-1.17-7.21s4.53-1.51,7.21,1.17,3.1,5.28,1.16,7.21S1013.21,931.36,1010.53,928.68Zm1.75-1.34.94-4.59c-1.05-.6-1.92-.6-2.55,0-.95,1-.46,2.49,1.41,4.35Zm2.74-3.15-.19-.2-.94,4.59c1.05.59,1.91.58,2.53,0C1017.38,927.58,1016.89,926.06,1015,924.19Z" style="fill:#fff"/><path d="M1016.39,914.47c1.66-1.66,3.72-1.84,5.11-.45.88.88,1.17,2.1,1.11,4.76l-.07,3.06.1.11,3.52-3.52,1.33,1.33-5.67,5.66-1.11-1.1,0-5.21c0-2.19-.14-2.9-.68-3.44a1.62,1.62,0,0,0-2.44.13,1.77,1.77,0,0,0,0,2.63l0,0-1.46,1.47,0,0C1014.58,918.37,1014.7,916.15,1016.39,914.47Z" style="fill:#fff"/></g><g style="isolation:isolate"><path d="M991.68,1013.23l1.82,1.82,2.29-2.29L997,1014l-2.27,2.26,2.94,2.93c.46.46,1.05.4,1.64-.19l1.26-1.28,1.2,1.2c0,.07-1.25,1.3-1.37,1.42-1.67,1.67-2.84,1.78-4.27.36l-2.92-2.92-1.59,1.6-1.22-1.22,1.6-1.6-1.82-1.82Z" style="fill:#fff"/><path d="M1007.45,1009.8c.95,1.22.64,3.08-.78,4.5-1.79,1.79-3.82,1.81-5.56.07l-1-1a3.65,3.65,0,0,1,.11-5.46,3.56,3.56,0,0,1,5.38.05l.85.85-4,3.95.33.34a1.76,1.76,0,0,0,2.64,0,1.67,1.67,0,0,0,.53-1.89Zm-5.91,2,2.48-2.49a1.72,1.72,0,0,0-2.63-.18A1.74,1.74,0,0,0,1001.54,1011.81Z" style="fill:#fff"/><path d="M1011.32,1005.26l.83,3.29-1.61,1.61-1.09-5-5.07-1.13,1.76-1.76,3.24.91.09-.1-.9-3.24,1.67-1.67,1.07,5,5.08,1.13-1.7,1.7-3.28-.84Z" style="fill:#fff"/><path d="M1012.84,992.08l1.81,1.81,2.29-2.29,1.22,1.22-2.26,2.26,2.93,2.94c.46.46,1,.39,1.64-.19.14-.15,1.2-1.21,1.26-1.29l1.21,1.21c-.05.07-1.26,1.29-1.38,1.42-1.67,1.67-2.84,1.78-4.26.35l-2.92-2.92-1.6,1.6-1.22-1.22,1.6-1.6-1.82-1.81Z" style="fill:#fff"/><path d="M1030.29,990.41l-1.47,1.47-1-1-.1.09a2.65,2.65,0,0,1-.68,3c-1.34,1.34-2.85,1.25-4.35-.25l-4-4,1.52-1.53,3.61,3.61c.9.9,1.69,1,2.47.19a1.78,1.78,0,0,0-.1-2.67l-3.56-3.55,1.52-1.52Z" style="fill:#fff"/><path d="M1033.38,985.09l1.78-1.78,1.12,1.12-4.41,4.41-1.12-1.12,1.17-1.17-3.9-3.9-1.28,1.28-1.13-1.12,2.76-2.75,1.57,1.57.24-.24a2.66,2.66,0,0,1,.32-3.79,3.55,3.55,0,0,1,1-.74l1.65,1.65a4.27,4.27,0,0,0-1.2.85c-1.45,1.44-1.5,2.81-.18,4.13Z" style="fill:#fff"/><path d="M1042.71,974.55c1,1.21.64,3.07-.79,4.5-1.78,1.78-3.81,1.81-5.55.06l-1-1a3.65,3.65,0,0,1,.11-5.46,3.57,3.57,0,0,1,5.39.05l.84.85-4,4,.33.33a1.75,1.75,0,0,0,2.64,0,1.65,1.65,0,0,0,.53-1.88Zm-5.92,2,2.49-2.49a1.72,1.72,0,0,0-2.63-.18A1.74,1.74,0,0,0,1036.79,976.55Z" style="fill:#fff"/><path d="M1042.42,965.71c1.49-1.49,3.06-1.73,4.29-.65l-1.44,1.44a1.34,1.34,0,0,0-1.7.38c-.57.58-.69,1.23-.31,1.62s.79.28,1.51-.2l1.15-.75c1.5-1,2.58-1,3.51-.08,1.24,1.25,1,3-.58,4.64s-3.21,1.87-4.45.8l1.5-1.5c.52.32,1.17.14,1.8-.49s.76-1.29.36-1.69-.74-.27-1.53.23l-1.11.73c-1.4.9-2.59.88-3.54-.07C1040.69,968.93,1040.9,967.23,1042.42,965.71Z" style="fill:#fff"/><path d="M1054.85,969.8l-1.36-1.36,5.78-5.78,1.35,1.36Z" style="fill:#fff"/><path d="M1062.14,951.37l1.06,1.06c1.68,1.67,1.82,3.47.41,4.88a2.27,2.27,0,0,1-2.85.55l-.11.12,3.08,3.08-1.59,1.59-8.18-8.19,1.56-1.56,1.06,1.06.12-.12a2.29,2.29,0,0,1,.57-2.87C1058.68,949.56,1060.47,949.7,1062.14,951.37Zm-4,4.13,1,1a1.71,1.71,0,0,0,2.62.09,1.72,1.72,0,0,0-.09-2.63l-1-1a1.8,1.8,0,1,0-2.53,2.54Z" style="fill:#fff"/><path d="M1067.27,953.43l-1.21-1.21,2-2-6-6-1.85,1.84-1.22-1.21,3.38-3.37,7.26,7.26,1.84-1.83,1.21,1.21Z" style="fill:#fff"/><path d="M1072.4,944.8c-1.11-1.11-1-2.57.46-4.19l1.34-1.52-.49-.49c-.53-.54-1.21-.48-1.84.15a1.43,1.43,0,0,0-.43,1.67L1070,941.9c-1-1.23-.72-2.95.74-4.41s3.21-1.71,4.56-.37l4.16,4.17-1.45,1.44-.82-.82-.13.14a2.64,2.64,0,0,1-.83,2.66A2.54,2.54,0,0,1,1072.4,944.8Zm3.23-4.29-.45-.44-1.11,1.25c-.66.76-.75,1.39-.28,1.86s1.11.38,1.7-.21A1.68,1.68,0,0,0,1075.63,940.51Z" style="fill:#fff"/><path d="M1075.1,933.33l1.47-1.48,1,1,.1-.09a2.63,2.63,0,0,1,.69-3c1.33-1.34,2.85-1.25,4.34.25l4,4-1.53,1.53-3.61-3.61c-.9-.9-1.69-1-2.46-.2a1.78,1.78,0,0,0,.1,2.68l3.55,3.55-1.52,1.52Z" style="fill:#fff"/><path d="M1083.35,921.56l1.82,1.82,2.28-2.29,1.22,1.22-2.26,2.26,2.94,2.93c.46.47,1.05.4,1.63-.19.15-.14,1.21-1.21,1.27-1.28l1.2,1.2c0,.07-1.25,1.3-1.38,1.42-1.67,1.67-2.84,1.78-4.26.36l-2.92-2.92-1.6,1.6-1.22-1.22,1.6-1.6-1.81-1.81Z" style="fill:#fff"/><path d="M1091.78,916.35c1.49-1.49,3.06-1.73,4.29-.64l-1.44,1.43a1.33,1.33,0,0,0-1.7.39c-.57.57-.7,1.22-.31,1.61s.79.28,1.51-.19l1.15-.76c1.5-1,2.58-1,3.51-.07,1.24,1.24,1,3-.58,4.63s-3.21,1.87-4.45.8l1.5-1.5c.52.33,1.17.15,1.8-.49s.76-1.28.36-1.68-.74-.28-1.53.22l-1.11.73c-1.4.9-2.59.88-3.54-.06C1090.05,919.57,1090.26,917.87,1091.78,916.35Z" style="fill:#fff"/></g><path d="M163.79,891.87V149.81" style="stroke:#fff"/><line x1="162.98" y1="891.87" x2="153.3" y2="891.87" style="stroke:#fff"/><g style="isolation:isolate"><path d="M136.44,889.63c0-4.94,2-7.71,5.56-7.71s5.57,2.77,5.57,7.71-2,7.71-5.57,7.71S136.44,894.56,136.44,889.63Zm2.85.38,5.09-3.37c-.42-1.52-1.22-2.32-2.38-2.32-1.75,0-2.71,1.87-2.71,5.31Zm5.43-.38v-.36l-5.09,3.36c.42,1.51,1.22,2.3,2.37,2.3C143.77,894.93,144.72,893.07,144.72,889.63Z" style="fill:#fff"/></g><line x1="162.98" y1="830.03" x2="153.3" y2="830.03" style="stroke:#fff"/><g style="isolation:isolate"><path d="M123.61,831h2.81a2.42,2.42,0,0,0,2.58,2,2.69,2.69,0,0,0,0-5.38,2.62,2.62,0,0,0-2.41,1.35h-2.81l.7-8.56h9v2.46h-6.73l-.32,3.94h.18a3.65,3.65,0,0,1,3.14-1.44,4.55,4.55,0,0,1,4.63,4.88c0,3.16-2.2,5.26-5.48,5.26C125.84,835.49,123.69,833.66,123.61,831Z" style="fill:#fff"/><path d="M136.44,827.79c0-4.93,2-7.71,5.56-7.71s5.57,2.78,5.57,7.71-2,7.71-5.57,7.71S136.44,832.72,136.44,827.79Zm2.85.38,5.09-3.37c-.42-1.51-1.22-2.31-2.38-2.31-1.75,0-2.71,1.86-2.71,5.3Zm5.43-.38v-.36l-5.09,3.36c.42,1.51,1.22,2.3,2.37,2.3C143.77,833.09,144.72,831.23,144.72,827.79Z" style="fill:#fff"/></g><line x1="162.98" y1="768.19" x2="153.3" y2="768.19" style="stroke:#fff"/><g style="isolation:isolate"><path d="M111.16,773.35v-2.43h4v-9.47H115L111.15,764v-2.75l4-2.67H118v12.36h3.78v2.43Z" style="fill:#fff"/><path d="M123.46,766c0-4.93,2-7.71,5.56-7.71s5.57,2.78,5.57,7.71-2,7.71-5.57,7.71S123.46,770.88,123.46,766Zm2.85.38L131.4,763c-.42-1.51-1.22-2.31-2.38-2.31-1.75,0-2.71,1.86-2.71,5.3Zm5.43-.38v-.36L126.65,769c.42,1.51,1.22,2.3,2.37,2.3C130.78,771.25,131.74,769.39,131.74,766Z" style="fill:#fff"/><path d="M136.44,766c0-4.93,2-7.71,5.56-7.71s5.57,2.78,5.57,7.71-2,7.71-5.57,7.71S136.44,770.88,136.44,766Zm2.85.38,5.09-3.37c-.42-1.51-1.22-2.31-2.38-2.31-1.75,0-2.71,1.86-2.71,5.3Zm5.43-.38v-.36L139.63,769c.42,1.51,1.22,2.3,2.37,2.3C143.77,771.25,144.72,769.39,144.72,766Z" style="fill:#fff"/></g><line x1="162.98" y1="706.35" x2="153.3" y2="706.35" style="stroke:#fff"/><g style="isolation:isolate"><path d="M111.16,711.51v-2.43h4v-9.47H115l-3.81,2.53v-2.75l4-2.67H118v12.36h3.78v2.43Z" style="fill:#fff"/><path d="M123.61,707.31h2.81a2.42,2.42,0,0,0,2.58,2,2.69,2.69,0,0,0,0-5.37,2.63,2.63,0,0,0-2.41,1.34h-2.81l.7-8.55h9v2.45h-6.73l-.32,4h.18a3.63,3.63,0,0,1,3.14-1.45,4.55,4.55,0,0,1,4.63,4.88c0,3.16-2.2,5.26-5.48,5.26C125.84,711.81,123.69,710,123.61,707.31Z" style="fill:#fff"/><path d="M136.44,704.11c0-4.93,2-7.71,5.56-7.71s5.57,2.78,5.57,7.71-2,7.71-5.57,7.71S136.44,709,136.44,704.11Zm2.85.38,5.09-3.36c-.42-1.52-1.22-2.32-2.38-2.32-1.75,0-2.71,1.87-2.71,5.3Zm5.43-.38v-.36l-5.09,3.37c.42,1.5,1.22,2.29,2.37,2.29C143.77,709.41,144.72,707.56,144.72,704.11Z" style="fill:#fff"/></g><line x1="162.98" y1="644.51" x2="153.3" y2="644.51" style="stroke:#fff"/><g style="isolation:isolate"><path d="M116,634.58c3,0,5.11,1.73,5.11,4.3,0,1.62-.85,3-3.35,5.4L114.85,647v.18h6.47v2.46H110.89v-2l4.82-4.76c2-2,2.54-2.8,2.54-3.8a2.11,2.11,0,0,0-2.36-2.12,2.29,2.29,0,0,0-2.46,2.38v.07h-2.7v-.06C110.73,636.51,112.87,634.58,116,634.58Z" style="fill:#fff"/><path d="M123.46,642.27c0-4.93,2-7.71,5.56-7.71s5.57,2.78,5.57,7.71-2,7.71-5.57,7.71S123.46,647.21,123.46,642.27Zm2.85.38,5.09-3.36C131,637.77,130.18,637,129,637c-1.75,0-2.71,1.87-2.71,5.3Zm5.43-.38v-.36l-5.09,3.37c.42,1.5,1.22,2.29,2.37,2.29C130.78,647.57,131.74,645.72,131.74,642.27Z" style="fill:#fff"/><path d="M136.44,642.27c0-4.93,2-7.71,5.56-7.71s5.57,2.78,5.57,7.71-2,7.71-5.57,7.71S136.44,647.21,136.44,642.27Zm2.85.38,5.09-3.36C144,637.77,143.16,637,142,637c-1.75,0-2.71,1.87-2.71,5.3Zm5.43-.38v-.36l-5.09,3.37c.42,1.5,1.22,2.29,2.37,2.29C143.77,647.57,144.72,645.72,144.72,642.27Z" style="fill:#fff"/></g><line x1="162.98" y1="582.68" x2="153.3" y2="582.68" style="stroke:#fff"/><g style="isolation:isolate"><path d="M116,572.74c3,0,5.11,1.74,5.11,4.3,0,1.62-.85,3-3.35,5.4l-2.89,2.76v.19h6.47v2.45H110.89v-2l4.82-4.77c2-2,2.54-2.8,2.54-3.8a2.11,2.11,0,0,0-2.36-2.12,2.3,2.3,0,0,0-2.46,2.38v.07h-2.7v-.06C110.73,574.67,112.87,572.74,116,572.74Z" style="fill:#fff"/><path d="M123.61,583.63h2.81a2.42,2.42,0,0,0,2.58,2,2.69,2.69,0,0,0,0-5.37,2.63,2.63,0,0,0-2.41,1.34h-2.81l.7-8.55h9v2.45h-6.73l-.32,4h.18a3.66,3.66,0,0,1,3.14-1.45,4.55,4.55,0,0,1,4.63,4.88c0,3.16-2.2,5.26-5.48,5.26C125.84,588.13,123.69,586.31,123.61,583.63Z" style="fill:#fff"/><path d="M136.44,580.43c0-4.93,2-7.71,5.56-7.71s5.57,2.78,5.57,7.71-2,7.71-5.57,7.71S136.44,585.37,136.44,580.43Zm2.85.38,5.09-3.36c-.42-1.52-1.22-2.32-2.38-2.32-1.75,0-2.71,1.87-2.71,5.3Zm5.43-.38v-.36l-5.09,3.37c.42,1.51,1.22,2.29,2.37,2.29C143.77,585.73,144.72,583.88,144.72,580.43Z" style="fill:#fff"/></g><line x1="162.98" y1="520.84" x2="153.3" y2="520.84" style="stroke:#fff"/><g style="isolation:isolate"><path d="M114.23,517.31H116c1.47,0,2.44-.81,2.44-2s-1-2-2.43-2a2.28,2.28,0,0,0-2.52,2.13h-2.6c.1-2.77,2.08-4.48,5.21-4.48s5,1.59,5,3.93a3.2,3.2,0,0,1-2.61,3.35v.19a3.34,3.34,0,0,1,3.19,3.51c0,2.62-2.27,4.41-5.58,4.41s-5.4-1.77-5.54-4.54h2.7c.1,1.26,1.17,2.06,2.76,2.06s2.77-.83,2.77-2.13-1.1-2.17-2.8-2.17h-1.77Z" style="fill:#fff"/><path d="M123.46,518.59c0-4.93,2-7.71,5.56-7.71s5.57,2.78,5.57,7.71-2,7.72-5.57,7.72S123.46,523.53,123.46,518.59Zm2.85.38,5.09-3.36c-.42-1.52-1.22-2.32-2.38-2.32-1.75,0-2.71,1.87-2.71,5.3Zm5.43-.38v-.35l-5.09,3.36c.42,1.51,1.22,2.3,2.37,2.3C130.78,523.9,131.74,522,131.74,518.59Z" style="fill:#fff"/><path d="M136.44,518.59c0-4.93,2-7.71,5.56-7.71s5.57,2.78,5.57,7.71-2,7.72-5.57,7.72S136.44,523.53,136.44,518.59Zm2.85.38,5.09-3.36c-.42-1.52-1.22-2.32-2.38-2.32-1.75,0-2.71,1.87-2.71,5.3Zm5.43-.38v-.35l-5.09,3.36c.42,1.51,1.22,2.3,2.37,2.3C143.77,523.9,144.72,522,144.72,518.59Z" style="fill:#fff"/></g><line x1="162.98" y1="459" x2="153.3" y2="459" style="stroke:#fff"/><g style="isolation:isolate"><path d="M114.23,455.48H116c1.47,0,2.44-.81,2.44-2.06s-1-2-2.43-2a2.29,2.29,0,0,0-2.52,2.14h-2.6c.1-2.78,2.08-4.48,5.21-4.48s5,1.59,5,3.92a3.21,3.21,0,0,1-2.61,3.36v.18a3.34,3.34,0,0,1,3.19,3.51c0,2.62-2.27,4.42-5.58,4.42s-5.4-1.78-5.54-4.54h2.7c.1,1.26,1.17,2.06,2.76,2.06s2.77-.83,2.77-2.14-1.1-2.17-2.8-2.17h-1.77Z" style="fill:#fff"/><path d="M123.61,460h2.81a2.42,2.42,0,0,0,2.58,2,2.69,2.69,0,0,0,0-5.38,2.62,2.62,0,0,0-2.41,1.35h-2.81l.7-8.56h9v2.45h-6.73l-.32,3.95h.18a3.65,3.65,0,0,1,3.14-1.44,4.55,4.55,0,0,1,4.63,4.88c0,3.16-2.2,5.26-5.48,5.26C125.84,464.46,123.69,462.63,123.61,460Z" style="fill:#fff"/><path d="M136.44,456.76c0-4.94,2-7.71,5.56-7.71s5.57,2.77,5.57,7.71-2,7.71-5.57,7.71S136.44,461.69,136.44,456.76Zm2.85.38,5.09-3.37c-.42-1.51-1.22-2.31-2.38-2.31-1.75,0-2.71,1.86-2.71,5.3Zm5.43-.38v-.36l-5.09,3.36c.42,1.51,1.22,2.3,2.37,2.3C143.77,462.06,144.72,460.2,144.72,456.76Z" style="fill:#fff"/></g><line x1="162.98" y1="397.16" x2="153.3" y2="397.16" style="stroke:#fff"/><g style="isolation:isolate"><path d="M117.21,399.52h-6.62v-2.34l4.51-9.65H118L113.69,397v.18h3.61V393.4h2.59v3.78h2v2.34h-2v2.8h-2.73Z" style="fill:#fff"/><path d="M123.46,394.92c0-4.93,2-7.71,5.56-7.71s5.57,2.78,5.57,7.71-2,7.71-5.57,7.71S123.46,399.85,123.46,394.92Zm2.85.38,5.09-3.37c-.42-1.51-1.22-2.31-2.38-2.31-1.75,0-2.71,1.86-2.71,5.3Zm5.43-.38v-.36l-5.09,3.36c.42,1.51,1.22,2.3,2.37,2.3C130.78,400.22,131.74,398.36,131.74,394.92Z" style="fill:#fff"/><path d="M136.44,394.92c0-4.93,2-7.71,5.56-7.71s5.57,2.78,5.57,7.71-2,7.71-5.57,7.71S136.44,399.85,136.44,394.92Zm2.85.38,5.09-3.37c-.42-1.51-1.22-2.31-2.38-2.31-1.75,0-2.71,1.86-2.71,5.3Zm5.43-.38v-.36l-5.09,3.36c.42,1.51,1.22,2.3,2.37,2.3C143.77,400.22,144.72,398.36,144.72,394.92Z" style="fill:#fff"/></g><line x1="162.98" y1="335.32" x2="153.3" y2="335.32" style="stroke:#fff"/><g style="isolation:isolate"><path d="M117.21,337.68h-6.62v-2.33l4.51-9.66H118l-4.35,9.42v.18h3.61v-3.73h2.59v3.79h2v2.33h-2v2.8h-2.73Z" style="fill:#fff"/><path d="M123.61,336.28h2.81a2.42,2.42,0,0,0,2.58,2,2.69,2.69,0,0,0,0-5.37,2.63,2.63,0,0,0-2.41,1.34h-2.81l.7-8.55h9v2.45h-6.73l-.32,3.95h.18a3.63,3.63,0,0,1,3.14-1.45,4.55,4.55,0,0,1,4.63,4.88c0,3.16-2.2,5.26-5.48,5.26C125.84,340.78,123.69,339,123.61,336.28Z" style="fill:#fff"/><path d="M136.44,333.08c0-4.93,2-7.71,5.56-7.71s5.57,2.78,5.57,7.71-2,7.71-5.57,7.71S136.44,338,136.44,333.08Zm2.85.38,5.09-3.36c-.42-1.52-1.22-2.32-2.38-2.32-1.75,0-2.71,1.87-2.71,5.3Zm5.43-.38v-.36l-5.09,3.36c.42,1.51,1.22,2.3,2.37,2.3C143.77,338.38,144.72,336.53,144.72,333.08Z" style="fill:#fff"/></g><line x1="162.98" y1="273.48" x2="153.3" y2="273.48" style="stroke:#fff"/><g style="isolation:isolate"><path d="M110.62,274.44h2.81a2.43,2.43,0,0,0,2.59,2,2.69,2.69,0,0,0,0-5.37,2.63,2.63,0,0,0-2.41,1.34H110.8l.7-8.55h9v2.45H113.8l-.31,3.95h.18a3.62,3.62,0,0,1,3.14-1.45,4.55,4.55,0,0,1,4.63,4.88c0,3.16-2.2,5.26-5.48,5.26C112.86,278.94,110.71,277.12,110.62,274.44Z" style="fill:#fff"/><path d="M123.46,271.24c0-4.93,2-7.71,5.56-7.71s5.57,2.78,5.57,7.71-2,7.71-5.57,7.71S123.46,276.17,123.46,271.24Zm2.85.38,5.09-3.36c-.42-1.52-1.22-2.32-2.38-2.32-1.75,0-2.71,1.87-2.71,5.3Zm5.43-.38v-.36l-5.09,3.37c.42,1.5,1.22,2.29,2.37,2.29C130.78,276.54,131.74,274.69,131.74,271.24Z" style="fill:#fff"/><path d="M136.44,271.24c0-4.93,2-7.71,5.56-7.71s5.57,2.78,5.57,7.71-2,7.71-5.57,7.71S136.44,276.17,136.44,271.24Zm2.85.38,5.09-3.36c-.42-1.52-1.22-2.32-2.38-2.32-1.75,0-2.71,1.87-2.71,5.3Zm5.43-.38v-.36l-5.09,3.37c.42,1.5,1.22,2.29,2.37,2.29C143.77,276.54,144.72,274.69,144.72,271.24Z" style="fill:#fff"/></g><line x1="162.98" y1="211.64" x2="153.3" y2="211.64" style="stroke:#fff"/><g style="isolation:isolate"><path d="M110.62,212.6h2.81a2.43,2.43,0,0,0,2.59,2,2.69,2.69,0,0,0,0-5.37,2.63,2.63,0,0,0-2.41,1.34H110.8l.7-8.55h9v2.45H113.8l-.31,3.95h.18a3.65,3.65,0,0,1,3.14-1.45,4.55,4.55,0,0,1,4.63,4.88c0,3.16-2.2,5.26-5.48,5.26C112.86,217.1,110.71,215.28,110.62,212.6Z" style="fill:#fff"/><path d="M123.61,212.6h2.81a2.42,2.42,0,0,0,2.58,2,2.69,2.69,0,0,0,0-5.37,2.63,2.63,0,0,0-2.41,1.34h-2.81l.7-8.55h9v2.45h-6.73l-.32,3.95h.18a3.66,3.66,0,0,1,3.14-1.45,4.55,4.55,0,0,1,4.63,4.88c0,3.16-2.2,5.26-5.48,5.26C125.84,217.1,123.69,215.28,123.61,212.6Z" style="fill:#fff"/><path d="M136.44,209.4c0-4.93,2-7.71,5.56-7.71s5.57,2.78,5.57,7.71-2,7.71-5.57,7.71S136.44,214.33,136.44,209.4Zm2.85.38,5.09-3.36c-.42-1.52-1.22-2.32-2.38-2.32-1.75,0-2.71,1.87-2.71,5.3Zm5.43-.38V209l-5.09,3.37c.42,1.5,1.22,2.29,2.37,2.29C143.77,214.7,144.72,212.85,144.72,209.4Z" style="fill:#fff"/></g><line x1="162.98" y1="149.81" x2="153.3" y2="149.81" style="stroke:#fff"/><g style="isolation:isolate"><path d="M116.19,155.27a5.28,5.28,0,0,1-5.65-5.45,9.37,9.37,0,0,1,2.11-5.54c.48-.72,2.72-3.62,3.11-4.11h3.29l-3.72,4.93a4.92,4.92,0,0,0-.66,1l.2,0a3.33,3.33,0,0,1,2.37-.91,4.53,4.53,0,0,1,4.53,4.76A5.3,5.3,0,0,1,116.19,155.27Zm2.69-5.15a2.74,2.74,0,1,0-2.74,2.67A2.64,2.64,0,0,0,118.88,150.12Z" style="fill:#fff"/><path d="M123.46,147.56c0-4.93,2-7.71,5.56-7.71s5.57,2.78,5.57,7.71-2,7.72-5.57,7.72S123.46,152.5,123.46,147.56Zm2.85.38,5.09-3.36c-.42-1.52-1.22-2.32-2.38-2.32-1.75,0-2.71,1.87-2.71,5.3Zm5.43-.38v-.35l-5.09,3.36c.42,1.51,1.22,2.3,2.37,2.3C130.78,152.87,131.74,151,131.74,147.56Z" style="fill:#fff"/><path d="M136.44,147.56c0-4.93,2-7.71,5.56-7.71s5.57,2.78,5.57,7.71-2,7.72-5.57,7.72S136.44,152.5,136.44,147.56Zm2.85.38,5.09-3.36c-.42-1.52-1.22-2.32-2.38-2.32-1.75,0-2.71,1.87-2.71,5.3Zm5.43-.38v-.35l-5.09,3.36c.42,1.51,1.22,2.3,2.37,2.3C143.77,152.87,144.72,151,144.72,147.56Z" style="fill:#fff"/></g><g style="isolation:isolate"><path d="M112.18,70.8V69.11h3.89V48h-3.89V46.31h22.36L135.65,55H134a19.14,19.14,0,0,0-.41-2.44,7.88,7.88,0,0,0-.74-1.89,4.17,4.17,0,0,0-1.26-1.48,5.87,5.87,0,0,0-2-.87,11.94,11.94,0,0,0-2.92-.31h-5.47v9.26h2c1.6,0,2.64-.32,3.11-1A5.74,5.74,0,0,0,127,53h1.69V63.17H127a5.72,5.72,0,0,0-.7-3.25c-.47-.65-1.51-1-3.11-1h-2V69.11h5.47a15.2,15.2,0,0,0,2.86-.24,5.91,5.91,0,0,0,2.11-.79,7.77,7.77,0,0,0,1.46-1.19,4.85,4.85,0,0,0,1-1.66,11,11,0,0,0,.58-2l.45-2.34h1.71l-1.67,9.87Z" style="fill:#fff"/><path d="M139.75,70.8V69.11h2.3V58c0-.67-.12-1.07-.35-1.2a5.26,5.26,0,0,0-1.95-.2V54.89l6.18-.3v3.9a6.56,6.56,0,0,1,6.23-3.9,6,6,0,0,1,4.1,1.21,5.07,5.07,0,0,1,1.36,4v9.34h2.48V70.8c-2-.07-3.52-.11-4.53-.11s-2.53,0-4.54.11V69.11h2.48V59.39a5.29,5.29,0,0,0-.51-2.73,1.67,1.67,0,0,0-1.48-.77,5.45,5.45,0,0,0-3.67,1.49,5.31,5.31,0,0,0-1.69,4.2v7.53h2.48V70.8c-1.9-.07-3.38-.11-4.44-.11S141.66,70.73,139.75,70.8Z" style="fill:#fff"/><path d="M162.28,62.8a8.26,8.26,0,0,1,2.29-5.89q2.28-2.43,6.82-2.43,6.36,0,6.36,3.33a2.08,2.08,0,0,1-.7,1.67,2.4,2.4,0,0,1-1.6.59,2.46,2.46,0,0,1-1.58-.59,2.07,2.07,0,0,1-.73-1.67,2.13,2.13,0,0,1,.75-1.67,11.07,11.07,0,0,0-2.36-.22,4.46,4.46,0,0,0-2.27.55,4.15,4.15,0,0,0-1.38,1.2,5.05,5.05,0,0,0-.69,1.76,12.61,12.61,0,0,0-.27,1.7c0,.4,0,.89,0,1.49q0,6.95,5,6.95a4.59,4.59,0,0,0,4.6-3,1.07,1.07,0,0,1,.27-.44,1.19,1.19,0,0,1,.59-.09c.58,0,.86.17.86.5a2,2,0,0,1-.14.56,4.67,4.67,0,0,1-.62,1.11,6.32,6.32,0,0,1-1.22,1.27,6.67,6.67,0,0,1-2.06,1,9.17,9.17,0,0,1-3,.45,9.06,9.06,0,0,1-6.51-2.29A7.79,7.79,0,0,1,162.28,62.8Z" style="fill:#fff"/><path d="M180.46,63a8.17,8.17,0,0,1,2.42-6.09,10.7,10.7,0,0,1,13.48,0A8.11,8.11,0,0,1,198.81,63a7.59,7.59,0,0,1-2.41,5.77,11.19,11.19,0,0,1-13.54,0A7.61,7.61,0,0,1,180.46,63Zm4.6-.41c0,.72,0,1.26,0,1.64s.06.89.14,1.55a4.51,4.51,0,0,0,.41,1.53,8.08,8.08,0,0,0,.78,1.15,2.58,2.58,0,0,0,1.29.88,7,7,0,0,0,3.85,0,2.65,2.65,0,0,0,1.3-.88,6.58,6.58,0,0,0,.77-1.15,4.73,4.73,0,0,0,.42-1.53c.08-.66.13-1.18.15-1.55s0-.92,0-1.64c0-2.47-.25-4.12-.75-4.94a4.19,4.19,0,0,0-3.82-1.83,4.07,4.07,0,0,0-4,2.1A12,12,0,0,0,185.06,62.55Z" style="fill:#fff"/><path d="M202.52,62.83a7.64,7.64,0,0,1,2.52-6,9.41,9.41,0,0,1,6.51-2.25,7.6,7.6,0,0,1,4.85,1.63v-7c0-.67-.12-1.07-.37-1.2a6.08,6.08,0,0,0-2.1-.2V46.1l6.38-.28V67.7c0,.67.12,1.07.37,1.21a6.36,6.36,0,0,0,2.1.2V70.8l-6.59.21V69.25a7.84,7.84,0,0,1-5,1.76,8.6,8.6,0,0,1-6.3-2.29A7.89,7.89,0,0,1,202.52,62.83Zm4.6,0c0,.6,0,1.07,0,1.42s.05.84.12,1.46a4.71,4.71,0,0,0,.4,1.52,7.52,7.52,0,0,0,.75,1.23,2.86,2.86,0,0,0,1.26.94,5.19,5.19,0,0,0,1.85.31,5.62,5.62,0,0,0,4.67-2.62v-9a5.12,5.12,0,0,0-4.29-2.2,4.39,4.39,0,0,0-3.85,1.88C207.43,58.7,207.12,60.38,207.12,62.83Z" style="fill:#fff"/><path d="M225.26,62.69a7.94,7.94,0,0,1,2.36-5.87,8.84,8.84,0,0,1,6.52-2.34,7.93,7.93,0,0,1,5.73,2,7.49,7.49,0,0,1,2,5.54q0,.69-.24.84a1.87,1.87,0,0,1-.92.15H229.87c0,4.4,1.69,6.61,5.06,6.61h0a6,6,0,0,0,3.08-.8A4.32,4.32,0,0,0,240,66.7a1.65,1.65,0,0,1,.35-.62,1,1,0,0,1,.63-.14c.62,0,.93.22.93.64a2,2,0,0,1-.2.7,6.11,6.11,0,0,1-.72,1.13,6.91,6.91,0,0,1-1.29,1.23,6.67,6.67,0,0,1-2.09,1,10,10,0,0,1-2.94.4,9.81,9.81,0,0,1-6.84-2.32A7.75,7.75,0,0,1,225.26,62.69Zm4.61-.93h8.59c-.11-4-1.55-6-4.32-6a3.86,3.86,0,0,0-3.41,1.87A9,9,0,0,0,229.87,61.76Z" style="fill:#fff"/><path d="M257.62,56.5V55.2A4.57,4.57,0,0,0,261.54,53,9.24,9.24,0,0,0,263,47.94h1.68v6.88h5.26V56.5h-5.26v9.94c0,2.08.7,3.13,2.09,3.13a1.88,1.88,0,0,0,1.5-.81,4,4,0,0,0,.65-2.5V64.43h1.69v1.9a4.89,4.89,0,0,1-1.17,3.35A4,4,0,0,1,266.27,71q-5.72,0-5.71-4.64V56.5Z" style="fill:#fff"/><path d="M274.62,70.8V69.11h2.5V58q0-1-.36-1.2a5.62,5.62,0,0,0-2-.2V54.89l6.27-.3V69.11h2.24V70.8L279,70.69C278.31,70.69,276.85,70.73,274.62,70.8Zm2-20.24a2.92,2.92,0,0,1,0-4,2.54,2.54,0,0,1,1.92-.83,2.73,2.73,0,0,1,2,.83,2.78,2.78,0,0,1,0,4,2.74,2.74,0,0,1-2,.83A2.54,2.54,0,0,1,276.64,50.56Z" style="fill:#fff"/><path d="M286.21,70.8V69.11h2.3V58c0-.67-.12-1.07-.35-1.2a5.26,5.26,0,0,0-2-.2V54.89l6.18-.3v3.9a6.59,6.59,0,0,1,6.26-3.9c3.06,0,4.83,1.15,5.33,3.46a6.48,6.48,0,0,1,6.07-3.46,6.08,6.08,0,0,1,4.19,1.23,5.08,5.08,0,0,1,1.36,4v9.34h2.48V70.8c-2-.07-3.53-.11-4.54-.11s-2.52,0-4.53.11V69.11h2.47V59.39a5.23,5.23,0,0,0-.5-2.74,1.67,1.67,0,0,0-1.51-.76,5.46,5.46,0,0,0-3.65,1.49,5.32,5.32,0,0,0-1.7,4.2v7.53h2.48V70.8c-2-.07-3.51-.11-4.52-.11s-2.53,0-4.55.11V69.11H300V59.39a5.21,5.21,0,0,0-.51-2.74,1.71,1.71,0,0,0-1.52-.76,5.46,5.46,0,0,0-3.65,1.49,5.29,5.29,0,0,0-1.71,4.2v7.53h2.48V70.8c-2-.07-3.53-.11-4.53-.11S288.11,70.73,286.21,70.8Z" style="fill:#fff"/><path d="M320,62.69a7.94,7.94,0,0,1,2.36-5.87,8.84,8.84,0,0,1,6.52-2.34,7.93,7.93,0,0,1,5.73,2,7.49,7.49,0,0,1,2,5.54c0,.46-.08.74-.23.84a2,2,0,0,1-.93.15H324.65c0,4.4,1.69,6.61,5.06,6.61h0a6,6,0,0,0,3.08-.8,4.32,4.32,0,0,0,1.93-2.07,1.65,1.65,0,0,1,.35-.62,1,1,0,0,1,.63-.14c.62,0,.93.22.93.64a1.8,1.8,0,0,1-.2.7,5.62,5.62,0,0,1-.72,1.13,6.91,6.91,0,0,1-1.29,1.23,6.57,6.57,0,0,1-2.09,1,10,10,0,0,1-2.94.4,9.81,9.81,0,0,1-6.84-2.32A7.75,7.75,0,0,1,320,62.69Zm4.61-.93h8.6c-.12-4-1.56-6-4.33-6a3.86,3.86,0,0,0-3.41,1.87A9,9,0,0,0,324.65,61.76Z" style="fill:#fff"/><path d="M355.52,61.76a21.62,21.62,0,0,1,6.45-16q2.05-1.95,2.76-2c.43,0,.65.17.65.51,0,.11-.18.36-.53.75q-5.44,5.84-5.45,16.74a31.18,31.18,0,0,0,1.29,9.31,18.36,18.36,0,0,0,4.59,7.79l0,.1a.56.56,0,0,1,.07.25c0,.34-.22.51-.65.51a3.12,3.12,0,0,1-1.39-.74,18,18,0,0,1-2.43-2.32,18.4,18.4,0,0,1-2.51-3.5A22.77,22.77,0,0,1,355.52,61.76Z" style="fill:#fff"/><path d="M369.51,70.8V69.11h2.3V58c0-.67-.12-1.07-.35-1.2a5.18,5.18,0,0,0-1.95-.2V54.89l6.19-.3v3.9a6.57,6.57,0,0,1,6.26-3.9q4.57,0,5.32,3.46a6.48,6.48,0,0,1,6.07-3.46,6.09,6.09,0,0,1,4.2,1.23,5.12,5.12,0,0,1,1.35,4v9.34h2.48V70.8c-2-.07-3.53-.11-4.54-.11s-2.52,0-4.53.11V69.11h2.48V59.39a5.33,5.33,0,0,0-.5-2.74,1.7,1.7,0,0,0-1.52-.76,5.48,5.48,0,0,0-3.65,1.49,5.32,5.32,0,0,0-1.7,4.2v7.53h2.48V70.8c-2-.07-3.51-.11-4.52-.11s-2.52,0-4.55.11V69.11h2.48V59.39a5.21,5.21,0,0,0-.51-2.74,1.7,1.7,0,0,0-1.51-.76,5.5,5.5,0,0,0-3.66,1.49,5.29,5.29,0,0,0-1.7,4.2v7.53h2.47V70.8c-2-.07-3.52-.11-4.53-.11S371.41,70.73,369.51,70.8Z" style="fill:#fff"/><path d="M403.56,70V66.08a2,2,0,0,1,.12-.87c.08-.12.33-.18.74-.18a1.6,1.6,0,0,1,.6.08.67.67,0,0,1,.26.43,8.88,8.88,0,0,0,.48,1.33,8,8,0,0,0,.84,1.31,3.5,3.5,0,0,0,1.55,1.13,6.25,6.25,0,0,0,2.32.4c2.73,0,4.1-.91,4.11-2.71a2.09,2.09,0,0,0-.41-1.29,2.63,2.63,0,0,0-1.16-.84,6.66,6.66,0,0,0-1.25-.4l-1.19-.26c-1.16-.21-2-.37-2.43-.47a9.14,9.14,0,0,1-1.58-.53,5.93,5.93,0,0,1-1.56-1,3.8,3.8,0,0,1-1.44-3,4.79,4.79,0,0,1,.39-2,3.28,3.28,0,0,1,1.1-1.37,8,8,0,0,1,1.39-.8,5.91,5.91,0,0,1,1.57-.41q.87-.12,1.29-.15c.27,0,.57,0,.89,0a7.94,7.94,0,0,1,3.63.71,8.11,8.11,0,0,1,1.62-.71c.29,0,.48.07.55.21a2,2,0,0,1,.1.81v2.87a1.62,1.62,0,0,1-.13.85c-.09.11-.34.17-.75.17s-.58,0-.67-.15a1.09,1.09,0,0,1-.15-.57q-.28-3-4.24-3t-4,2.43a2.14,2.14,0,0,0,.28,1.14c.19.31.1.41-.28.28l-.56-.18,4.23.88c.92.23,1.88.46,2.88.68A6.41,6.41,0,0,1,415.14,62a4.67,4.67,0,0,1,2,3.79,5.67,5.67,0,0,1-.4,2.22,3.5,3.5,0,0,1-1.1,1.5,8.58,8.58,0,0,1-1.38.88,5,5,0,0,1-1.59.46c-.59.09-1,.14-1.29.16a8,8,0,0,1-.9,0,7.33,7.33,0,0,1-4.26-1.16l-.93.62a2.29,2.29,0,0,1-1,.54h0c-.29,0-.48-.07-.55-.21A2.07,2.07,0,0,1,403.56,70Z" style="fill:#fff"/><path d="M420.78,79.25c0-.12.2-.37.58-.75q5.81-5.85,5.81-16.74T421.4,45.13c-.41-.38-.62-.66-.62-.82q0-.51.66-.51a3,3,0,0,1,1.38.73,19.42,19.42,0,0,1,2.43,2.32,19.05,19.05,0,0,1,2.51,3.5,22.71,22.71,0,0,1,2.89,11.45,21.66,21.66,0,0,1-6.44,16c-1.37,1.3-2.29,2-2.77,2S420.78,79.59,420.78,79.25Z" style="fill:#fff"/></g></svg>