<svg xmlns="http://www.w3.org/2000/svg" viewBox="0 0 1264 1080"><rect x="188.16" y="889.7" width="22.58" height="1.36" style="fill:#ffff5c"/><rect x="212.3" y="866.94" width="22.58" height="24.12" style="fill:#8c4dfb"/><rect x="285.77" y="890.44" width="22.58" height="0.62" style="fill:#8c4dfb"/><rect x="335.09" y="886.48" width="22.58" height="4.58" style="fill:#ffff5c"/><rect x="359.23" y="774.8" width="22.58" height="116.26" style="fill:#8c4dfb"/><rect x="408.56" y="873.62" width="22.58" height="17.44" style="fill:#ffff5c"/><rect x="432.7" y="383.37" width="22.58" height="507.69" style="fill:#8c4dfb"/><rect x="482.02" y="877.58" width="22.58" height="13.48" style="fill:#ffff5c"/><rect x="506.16" y="538.09" width="22.58" height="352.97" style="fill:#8c4dfb"/><rect x="555.49" y="877.95" width="22.58" height="13.11" style="fill:#ffff5c"/><rect x="579.63" y="542.04" width="22.58" height="349.02" style="fill:#8c4dfb"/><rect x="628.95" y="885.74" width="22.58" height="5.32" style="fill:#ffff5c"/><rect x="653.09" y="756.01" width="22.58" height="135.06" style="fill:#8c4dfb"/><rect x="702.42" y="848.76" width="22.58" height="42.3" style="fill:#ffff5c"/><rect x="726.56" y="170.15" width="22.58" height="720.91" style="fill:#8c4dfb"/><rect x="775.88" y="878.94" width="22.58" height="12.12" style="fill:#ffff5c"/><rect x="800.03" y="631.59" width="22.58" height="259.47" style="fill:#8c4dfb"/><rect x="849.35" y="890.57" width="22.58" height="0.49" style="fill:#ffff5c"/><rect x="873.49" y="882.16" width="22.58" height="8.9" style="fill:#8c4dfb"/><rect x="922.81" y="889.82" width="22.58" height="1.24" style="fill:#ffff5c"/><rect x="946.96" y="854.21" width="22.58" height="36.86" style="fill:#8c4dfb"/><rect x="996.28" y="887.85" width="22.58" height="3.22" style="fill:#ffff5c"/><rect x="1020.42" y="775.42" width="22.58" height="115.64" style="fill:#8c4dfb"/><rect x="1069.74" y="883.52" width="22.58" height="7.54" style="fill:#ffff5c"/><rect x="1093.89" y="677.84" width="22.58" height="213.22" style="fill:#8c4dfb"/><rect x="163.79" y="891.37" width="978.66" height="1" style="fill:#fff"/><rect x="211.02" y="891.06" width="1" height="9.68" style="fill:#fff"/><rect x="284.49" y="891.06" width="1" height="9.68" style="fill:#fff"/><rect x="357.95" y="891.06" width="1" height="9.68" style="fill:#fff"/><rect x="431.42" y="891.06" width="1" height="9.68" style="fill:#fff"/><rect x="504.88" y="891.06" width="1" height="9.68" style="fill:#fff"/><rect x="578.35" y="891.06" width="1" height="9.68" style="fill:#fff"/><rect x="651.81" y="891.06" width="1" height="9.68" style="fill:#fff"/><rect x="725.28" y="891.06" width="1" height="9.68" style="fill:#fff"/><rect x="798.74" y="891.06" width="1" height="9.68" style="fill:#fff"/><rect x="872.21" y="891.06" width="1" height="9.68" style="fill:#fff"/><rect x="945.67" y="891.06" width="1" height="9.68" style="fill:#fff"/><rect x="1019.14" y="891.06" width="1" height="9.68" style="fill:#fff"/><rect x="1092.6" y="891.06" width="1" height="9.68" style="fill:#fff"/><g style="isolation:isolate"><path d="M157,964.76a1.77,1.77,0,1,1,2.31-.16A1.52,1.52,0,0,1,157,964.76Zm6.78,10-1.47-1.47,1.9-1.9-3.26-3.25-1.73,1.73-1.47-1.47,3.63-3.63,4.73,4.73,1.74-1.75,1.47,1.47Z" style="fill:#fff"/><path d="M170.72,960c-.76-.6-1.31-.6-1.88,0s-.44,1.54.58,2.56l.33.34c1,1,1.93,1.22,2.57.58s.59-1.08.05-1.81l1.92-1.92c1.48,1.72,1.33,3.46-.45,5.25-1.94,1.93-4,1.93-6,0l-.56-.55c-2-1.95-2-4,0-5.95s3.53-1.91,5.32-.38Z" style="fill:#fff"/><path d="M175,958.26l-1-1c-1.7-1.7-1.61-3.91.22-5.74s4-1.93,5.74-.23l1,1c1.7,1.7,1.61,3.9-.23,5.74S176.72,960,175,958.26Zm1-2.85.88.87c.8.81,1.72.92,2.37.27s.55-1.57-.26-2.38l-.87-.88c-.81-.8-1.73-.91-2.38-.26S175.21,954.6,176,955.41Z" style="fill:#fff"/><path d="M178.53,947.58l1.91-1.92,1,1,.11-.1a2.53,2.53,0,0,1,.63-2.94c1.35-1.35,2.89-1.26,4.41.26l4,4-2,2-3.56-3.57c-.79-.79-1.47-.86-2.11-.22a1.44,1.44,0,0,0,.19,2.19l3.54,3.54-2,2Z" style="fill:#fff"/><path d="M193.94,948.79l-1.68-1.68,5.78-5.78,1.68,1.68Z" style="fill:#fff"/><path d="M196.28,937.49l2-2a1.54,1.54,0,0,0,2-.25,1.75,1.75,0,0,0-2.47-2.47,1.61,1.61,0,0,0-.43,1.68l-2,2L191,931.39l5.31-5.3,1.59,1.59-3.69,3.69,1.72,2,.11-.12a2.72,2.72,0,0,1,.91-2.54,3.47,3.47,0,0,1,5.13.12c1.77,1.77,1.68,4.19-.22,6.09S197.79,939,196.28,937.49Z" style="fill:#fff"/><path d="M206.11,932.39l-1.59-1.58,2-2-4.61-4.6-.11.1-.58,3.21-1.76-1.76.61-3.39,2-2,6.44,6.44,1.91-1.9L212,926.5Z" style="fill:#fff"/><path d="M207.66,914.45c1.79-1.79,4-2,5.38-.62.9.91,1.18,2.25,1,4.9l-.16,2.49.11.11,3.38-3.39,1.6,1.6-6.11,6.1-1.37-1.36.21-4.87c.1-2.24,0-3-.49-3.46a1.39,1.39,0,0,0-2.08.12,1.56,1.56,0,0,0,0,2.3l0,0-1.87,1.87,0,0C205.62,918.64,205.8,916.31,207.66,914.45Z" style="fill:#fff"/></g><g style="isolation:isolate"><path d="M237.45,957.71a1.77,1.77,0,1,1,2.31-.17A1.52,1.52,0,0,1,237.45,957.71Zm6.78,10-1.47-1.47,1.9-1.9-3.26-3.25-1.73,1.73-1.47-1.47,3.63-3.63,4.73,4.72,1.74-1.74,1.47,1.47Z" style="fill:#fff"/><path d="M251.21,952.93c-.76-.6-1.31-.6-1.88,0s-.44,1.55.58,2.57l.33.33c1,1,1.93,1.23,2.57.59s.59-1.08.05-1.81l1.92-1.92c1.48,1.72,1.33,3.46-.45,5.24-1.94,1.94-4,1.94-6,0l-.56-.55c-1.95-2-1.95-4,0-6,1.79-1.79,3.53-1.91,5.32-.38Z" style="fill:#fff"/><path d="M255.51,951.21l-1-1c-1.7-1.69-1.61-3.9.22-5.74s4-1.92,5.74-.22l1,1c1.7,1.7,1.61,3.9-.23,5.74S257.21,952.91,255.51,951.21Zm1-2.85.87.87c.81.81,1.73.92,2.38.26s.55-1.57-.26-2.37l-.87-.88c-.81-.8-1.73-.91-2.38-.26S255.7,947.55,256.51,948.36Z" style="fill:#fff"/><path d="M259,940.53l1.91-1.92,1,1,.11-.11a2.56,2.56,0,0,1,.63-2.94c1.35-1.34,2.89-1.25,4.41.27l4,4-2,2-3.56-3.57c-.79-.79-1.47-.86-2.11-.22a1.44,1.44,0,0,0,.19,2.19l3.54,3.54-2,2Z" style="fill:#fff"/><path d="M274.43,941.74l-1.68-1.68,5.78-5.78,1.68,1.68Z" style="fill:#fff"/><path d="M282.55,929.71c-2,2-4.56,2.1-6.41.24a7.22,7.22,0,0,1-1.88-4.25c-.15-1-.39-3-.44-3.65l2.29-2.29.59,4.37a5.59,5.59,0,0,0,.21,1.09l.14-.14a2.59,2.59,0,0,1,.8-1.7,3.48,3.48,0,0,1,5,.16A4.31,4.31,0,0,1,282.55,929.71Zm-1.64-4.07a1.79,1.79,0,1,0,0,2.5A1.71,1.71,0,0,0,280.91,925.64Z" style="fill:#fff"/><path d="M288.3,920.82l-3.54,3.53-1.55-1.55-2.84-7.3,2.05-2,2.83,7,.12.13,1.45-1.45L285,917.31l1.8-1.81,1.91,1.92,1-1,1.52,1.51-.95.95,1.42,1.41-1.93,1.93Z" style="fill:#fff"/></g><g style="isolation:isolate"><path d="M291.7,986.44l1,1c1.75,1.74,1.92,3.46.51,4.87a2.13,2.13,0,0,1-2.86.43l-.12.12,3.16,3.16-2.07,2.06-8.24-8.24,2-2.06,1.14,1.14.12-.12a2.12,2.12,0,0,1,.42-2.89C288.25,984.52,290,984.7,291.7,986.44Zm-4,4,1.11,1.1a1.41,1.41,0,1,0,2-2l-1.1-1.11a1.41,1.41,0,1,0-2,2Z" style="fill:#fff"/><path d="M287.77,980.55l1.92-1.93L293,982l.11-.1a2.6,2.6,0,0,1,.68-3c1.35-1.34,2.92-1.26,4.42.24l4,4-2,2-3.54-3.54c-.77-.78-1.5-.84-2.14-.2a1.48,1.48,0,0,0,.15,2.25l3.51,3.51-2,2Z" style="fill:#fff"/><path d="M300.71,979.41l-1-1c-1.7-1.7-1.61-3.9.23-5.74s4-1.93,5.74-.23l1,1c1.7,1.69,1.61,3.9-.23,5.74S302.41,981.11,300.71,979.41Zm1-2.85.88.88c.81.8,1.72.91,2.38.26s.54-1.57-.27-2.38l-.87-.87c-.81-.81-1.73-.92-2.38-.26S300.91,975.76,301.71,976.56Z" style="fill:#fff"/><path d="M305.79,963.49l1.92,1.92,2.16-2.16,1.47,1.46-2.12,2.12,2.66,2.65a.74.74,0,0,0,1.15-.05l1.4-1.4,1.45,1.44-1.58,1.58c-1.79,1.79-2.9,1.89-4.42.37l-2.62-2.63-1.59,1.6-1.47-1.47,1.59-1.59-1.92-1.92Z" style="fill:#fff"/><path d="M314.82,965.31l-1-1c-1.7-1.7-1.61-3.91.23-5.74s4-1.93,5.74-.23l1,1c1.7,1.7,1.61,3.91-.22,5.74S316.51,967,314.82,965.31Zm1-2.85.87.87c.81.81,1.73.92,2.38.27s.54-1.57-.26-2.38l-.88-.88c-.8-.8-1.72-.91-2.37-.26S315,961.65,315.82,962.46Z" style="fill:#fff"/><path d="M326.69,962.89,325,961.21l5.78-5.78,1.68,1.68Z" style="fill:#fff"/><path d="M329.45,943.51l2.2-2.21.45,4.86,5.9,1.19-2.27,2.27-4-.83.06.84,1.94,1.94-2,2L323.29,945l2-2,4.64,4.64.1-.11Z" style="fill:#fff"/><path d="M336,944.16l-1-1c-1.7-1.7-1.61-3.9.22-5.74s4-1.92,5.74-.23l1,1c1.7,1.7,1.61,3.9-.23,5.74S337.67,945.85,336,944.16Zm1-2.85.88.87c.8.81,1.72.91,2.37.26s.55-1.57-.26-2.38l-.87-.87c-.81-.81-1.73-.91-2.38-.26S336.16,940.5,337,941.31Z" style="fill:#fff"/><path d="M342.93,937.23l-1-1c-1.74-1.74-1.92-3.46-.5-4.87a2.12,2.12,0,0,1,2.85-.43l.12-.12L341,927.36l2.07-2.07,8.52,8.52-2.06,2.05-1.13-1.13-.12.12a2.1,2.1,0,0,1-.43,2.88C346.39,939.15,344.67,939,342.93,937.23Zm4-4-1.1-1.1a1.41,1.41,0,1,0-2,2l1.11,1.1a1.41,1.41,0,1,0,2-2Z" style="fill:#fff"/><path d="M350.94,930.84c-1.13-1.13-.95-2.62.55-4.36l1.17-1.36-.46-.47a.94.94,0,0,0-1.41.12,1.16,1.16,0,0,0-.33,1.33L348.55,928c-1.09-1.31-.76-3.13.86-4.75s3.4-1.87,4.79-.48l4.18,4.18-1.86,1.86-.76-.76-.17.16a2.67,2.67,0,0,1-.82,2.55A2.57,2.57,0,0,1,350.94,930.84Zm3.13-4.31-.28-.28-.82,1c-.56.66-.64,1.18-.26,1.56s.86.29,1.31-.16A1.37,1.37,0,0,0,354.07,926.53Z" style="fill:#fff"/><path d="M357.65,915.3l2.21-2.2.45,4.86,5.89,1.18-2.26,2.27-4-.82.06.83,1.94,1.94-2,2-8.52-8.52,2-2,4.63,4.63.11-.1Z" style="fill:#fff"/></g><g style="isolation:isolate"><path d="M349.67,1000.54l1,1c1.75,1.74,1.92,3.46.51,4.87a2.13,2.13,0,0,1-2.86.43l-.12.12,3.16,3.16-2.07,2.07-8.24-8.25,2.05-2.05,1.14,1.13.12-.12a2.1,2.1,0,0,1,.42-2.88C346.22,998.62,347.93,998.8,349.67,1000.54Zm-4,4,1.11,1.1a1.41,1.41,0,1,0,2-2l-1.1-1.1a1.41,1.41,0,1,0-2,2Z" style="fill:#fff"/><path d="M345.73,994.65l1.93-1.93,3.35,3.35.11-.1a2.58,2.58,0,0,1,.68-3c1.35-1.35,2.92-1.27,4.42.23l4,4-2,2-3.54-3.53c-.77-.78-1.5-.85-2.14-.21a1.48,1.48,0,0,0,.15,2.25l3.51,3.51-2,2Z" style="fill:#fff"/><path d="M358.68,993.52l-1-1c-1.7-1.7-1.61-3.9.23-5.74s4-1.92,5.74-.23l1,1c1.7,1.7,1.61,3.9-.23,5.74S360.38,995.21,358.68,993.52Zm1-2.85.88.87c.81.81,1.72.91,2.38.26s.54-1.57-.27-2.38l-.87-.87c-.81-.81-1.73-.91-2.38-.26S358.88,989.86,359.68,990.67Z" style="fill:#fff"/><path d="M363.76,977.6l1.92,1.92,2.16-2.17,1.47,1.46-2.12,2.12,2.66,2.66a.76.76,0,0,0,1.15-.05l1.4-1.41,1.45,1.45-1.58,1.57c-1.79,1.79-2.9,1.89-4.42.37l-2.62-2.62-1.59,1.59L362.17,983l1.59-1.59-1.92-1.92Z" style="fill:#fff"/><path d="M372.79,979.41l-1-1c-1.7-1.7-1.61-3.9.23-5.74s4-1.93,5.74-.23l1,1c1.7,1.69,1.61,3.9-.23,5.74S374.48,981.11,372.79,979.41Zm1-2.85.87.88c.81.8,1.73.91,2.38.26s.54-1.57-.26-2.38l-.88-.87c-.8-.81-1.72-.92-2.37-.26S373,975.76,373.79,976.56Z" style="fill:#fff"/><path d="M384.66,977,383,975.31l5.77-5.78,1.69,1.69Z" style="fill:#fff"/><path d="M384.91,956.44l1.92,1.92L389,956.2l1.46,1.46-2.11,2.12,2.65,2.65a.74.74,0,0,0,1.15,0l1.41-1.4,1.44,1.44L393.42,964c-1.79,1.79-2.9,1.88-4.42.36l-2.62-2.62-1.59,1.59-1.47-1.46,1.6-1.59L383,958.36Z" style="fill:#fff"/><path d="M400.64,953.13c1.05,1.22.7,3.24-.84,4.78-1.89,1.89-4,2-5.72.2l-1-1c-1.62-1.62-1.51-3.88.26-5.66a3.69,3.69,0,0,1,5.48-.12l1,1L396,956.15l.38.38a1.37,1.37,0,0,0,2.06,0,1.34,1.34,0,0,0,.42-1.56ZM394.82,955l2-2a1.4,1.4,0,0,0-2.12-.19A1.41,1.41,0,0,0,394.82,955Z" style="fill:#fff"/><path d="M403.74,945.87c-.76-.59-1.31-.59-1.88,0s-.44,1.55.58,2.57l.34.33c1,1,1.92,1.23,2.56.59s.59-1.08.05-1.81l1.92-1.92c1.48,1.72,1.33,3.46-.45,5.24-1.94,1.94-4,1.94-5.95,0l-.56-.56c-1.94-1.94-1.94-4,0-5.94s3.53-1.91,5.32-.39Z" style="fill:#fff"/><path d="M404.5,940.53l1.92-1.92,1,1,.11-.11a2.56,2.56,0,0,1,.63-2.94c1.35-1.34,2.89-1.25,4.41.27l4,4-2,2L411,939.25c-.79-.79-1.47-.86-2.11-.22a1.44,1.44,0,0,0,.19,2.19l3.54,3.54-2,2Z" style="fill:#fff"/><path d="M411.13,929.51a1.78,1.78,0,1,1,2.32-.17A1.54,1.54,0,0,1,411.13,929.51Zm6.79,10L416.45,938l1.89-1.89-3.25-3.26-1.73,1.73-1.47-1.47,3.63-3.63,4.72,4.73L422,932.5l1.48,1.47Z" style="fill:#fff"/><path d="M424.9,924.72c-.77-.6-1.31-.6-1.89,0s-.43,1.55.59,2.56l.33.34c1,1,1.93,1.22,2.57.58s.59-1.08.05-1.81l1.92-1.92q2.2,2.58-.46,5.25c-1.94,1.94-4,1.94-5.94,0l-.56-.56c-1.95-2-1.95-4,0-6,1.79-1.78,3.52-1.91,5.31-.38Z" style="fill:#fff"/><path d="M429.72,915.3l2.21-2.2.45,4.86,5.9,1.18L436,921.41l-3.95-.82.05.83,1.95,1.94-2,2-8.52-8.52,2-2,4.64,4.63.1-.1Z" style="fill:#fff"/></g><g style="isolation:isolate"><path d="M409,1014.65l1,1c1.74,1.75,1.92,3.46.5,4.88a2.12,2.12,0,0,1-2.85.42l-.13.13,3.16,3.15-2.07,2.07-8.24-8.25,2.05-2,1.14,1.13.12-.12a2.1,2.1,0,0,1,.43-2.88C405.53,1012.72,407.24,1012.9,409,1014.65Zm-4,4,1.1,1.1a1.41,1.41,0,1,0,2-2l-1.1-1.1a1.41,1.41,0,1,0-2,2Z" style="fill:#fff"/><path d="M405.05,1008.75l1.92-1.92,3.36,3.35.1-.11a2.59,2.59,0,0,1,.68-3c1.35-1.35,2.92-1.27,4.43.24l4,4-2,2-3.53-3.53c-.78-.78-1.51-.85-2.15-.2a1.47,1.47,0,0,0,.15,2.24l3.51,3.51-2,2Z" style="fill:#fff"/><path d="M418,1007.62l-1-1c-1.7-1.69-1.61-3.9.23-5.74s4-1.92,5.74-.22l1,1c1.7,1.7,1.61,3.9-.22,5.74S419.69,1009.32,418,1007.62Zm1-2.85.87.87c.81.81,1.73.92,2.38.26s.54-1.57-.26-2.37l-.88-.88c-.81-.8-1.72-.91-2.37-.26S418.19,1004,419,1004.77Z" style="fill:#fff"/><path d="M423.07,991.7l1.92,1.92,2.17-2.17,1.46,1.47L426.5,995l2.66,2.66a.75.75,0,0,0,1.15-.05l1.41-1.4,1.44,1.44-1.58,1.57c-1.79,1.8-2.9,1.89-4.42.37L424.54,997,423,998.59l-1.47-1.46,1.59-1.6-1.92-1.92Z" style="fill:#fff"/><path d="M432.1,993.52l-1-1c-1.69-1.7-1.61-3.9.23-5.74s4-1.92,5.74-.23l1,1c1.69,1.7,1.6,3.9-.23,5.74S433.79,995.21,432.1,993.52Zm1-2.85.87.87c.81.81,1.73.91,2.38.26s.55-1.57-.26-2.38l-.88-.87c-.8-.81-1.72-.91-2.37-.26S432.29,989.86,433.1,990.67Z" style="fill:#fff"/><path d="M444,991.1l-1.68-1.68,5.78-5.78,1.68,1.68Z" style="fill:#fff"/><path d="M454.14,976.69l-1.64,1.64-4.45-3.08-.05,0,3.09,4.46-1.64,1.64-7.38-5,1.86-1.86,4.21,3.8.26-.27-3.55-4.39,1.55-1.55,4.4,3.55.27-.27-3.81-4.2,1.86-1.86Z" style="fill:#fff"/><path d="M449.29,964.76a1.78,1.78,0,1,1,2.32-.16A1.53,1.53,0,0,1,449.29,964.76Zm6.79,10-1.47-1.47,1.89-1.9-3.25-3.25-1.73,1.73L450,968.4l3.63-3.63,4.73,4.73,1.74-1.75,1.47,1.47Z" style="fill:#fff"/><path d="M460.83,957.61l2.21-2.2.45,4.86,5.89,1.18-2.26,2.27-4-.83.06.84,1.94,1.94-2,2-8.52-8.52,2-2,4.64,4.64.11-.1Z" style="fill:#fff"/><path d="M463.4,950.66a1.77,1.77,0,1,1,2.31-.17A1.53,1.53,0,0,1,463.4,950.66Zm6.78,10-1.47-1.47,1.9-1.89L467.35,954l-1.73,1.74-1.47-1.47,3.63-3.63,4.72,4.72,1.75-1.74,1.47,1.47Z" style="fill:#fff"/><path d="M479.5,944.13l1,1c1.74,1.74,1.92,3.46.51,4.87a2.13,2.13,0,0,1-2.86.43l-.12.12,3.15,3.16-2.06,2.07-8.25-8.25,2.06-2,1.13,1.13.13-.12a2.1,2.1,0,0,1,.42-2.89C476,942.21,477.76,942.39,479.5,944.13Zm-4,4,1.1,1.1a1.41,1.41,0,1,0,2-2l-1.11-1.1a1.41,1.41,0,1,0-2,2Z" style="fill:#fff"/><path d="M488.16,939c1,1.22.7,3.24-.84,4.79-1.89,1.88-4,2-5.72.2l-1-1c-1.62-1.62-1.51-3.88.26-5.66a3.68,3.68,0,0,1,5.48-.12l1,1-3.84,3.85.38.38a1.38,1.38,0,0,0,2.06,0,1.34,1.34,0,0,0,.41-1.56Zm-5.82,1.9,2-2a1.4,1.4,0,0,0-2.12-.18A1.41,1.41,0,0,0,482.34,940.92Z" style="fill:#fff"/><path d="M488.42,937.23l-1-1c-1.74-1.74-1.92-3.46-.51-4.87a2.14,2.14,0,0,1,2.86-.43l.12-.12-3.43-3.43,2.07-2.07,8.52,8.52L495,935.86l-1.13-1.13-.13.12a2.09,2.09,0,0,1-.42,2.88C491.88,939.15,490.16,939,488.42,937.23Zm4-4-1.1-1.1a1.41,1.41,0,1,0-2,2l1.11,1.1a1.41,1.41,0,1,0,2-2Z" style="fill:#fff"/><path d="M491.6,922.45a1.77,1.77,0,1,1,2.32-.16A1.53,1.53,0,0,1,491.6,922.45Zm6.79,10L496.92,931l1.89-1.89-3.26-3.26-1.73,1.73-1.47-1.47,3.63-3.63,4.73,4.73,1.74-1.75,1.47,1.47Z" style="fill:#fff"/><path d="M503.48,923.79c-1.13-1.13-1-2.62.55-4.36l1.17-1.37-.46-.46a.94.94,0,0,0-1.41.12,1.15,1.15,0,0,0-.33,1.33L501.09,921c-1.09-1.31-.76-3.13.86-4.75s3.4-1.87,4.79-.48l4.18,4.18-1.86,1.86-.77-.77-.16.17a2.66,2.66,0,0,1-.83,2.55A2.56,2.56,0,0,1,503.48,923.79Zm3.13-4.31-.28-.29-.82,1c-.56.66-.64,1.18-.26,1.56s.86.29,1.31-.16A1.37,1.37,0,0,0,506.61,919.48Z" style="fill:#fff"/></g><g style="isolation:isolate"><path d="M546.77,951.18l1,1c1.75,1.75,1.93,3.46.51,4.87a2.11,2.11,0,0,1-2.85.43l-.13.13,3.16,3.15-2.07,2.07-8.24-8.25,2.05-2.05,1.14,1.13.12-.12a2.1,2.1,0,0,1,.42-2.88C543.31,949.26,545,949.44,546.77,951.18Zm-4,4,1.1,1.1a1.41,1.41,0,1,0,2-2l-1.1-1.1a1.41,1.41,0,1,0-2,2Z" style="fill:#fff"/><path d="M545.18,947.58l1.92-1.92,1,1,.11-.11a2.53,2.53,0,0,1,.64-2.93c1.34-1.35,2.88-1.26,4.4.26l4,4-2,2-3.57-3.57c-.79-.79-1.47-.86-2.11-.22a1.44,1.44,0,0,0,.19,2.19l3.54,3.54-2,2Z" style="fill:#fff"/><path d="M558.73,947.38l1.92-1.91c.42.25,1,.06,1.61-.52.74-.75.79-1.46.14-2.11L561,941.48l-.13.12a2.43,2.43,0,0,1-.59,3c-1.42,1.43-3.18,1.26-4.9-.47l-.84-.84c-1.75-1.74-1.87-3.5-.36-5a2.37,2.37,0,0,1,3-.55l.13-.12-1.11-1.11,1.92-1.92,6.18,6.19c1.44,1.43,1.14,3.55-.77,5.46C561.79,948,560,948.44,558.73,947.38Zm.85-5.18a1.39,1.39,0,0,0,0-2.12l-.91-.92a1.48,1.48,0,1,0-2.1,2.09l.92.92A1.39,1.39,0,0,0,559.58,942.2Z" style="fill:#fff"/><path d="M558.87,929.51a1.78,1.78,0,1,1,2.31-.17A1.53,1.53,0,0,1,558.87,929.51Zm6.78,10L564.18,938l1.9-1.89-3.26-3.26-1.73,1.73-1.47-1.47,3.63-3.63,4.73,4.73,1.74-1.74,1.47,1.47Z" style="fill:#fff"/><path d="M578.72,926.44l-1.63,1.63-4.3-4.3a.59.59,0,0,0-.86,0,.58.58,0,0,0,.05.86l4.29,4.3-1.6,1.6-4.3-4.29a.57.57,0,0,0-.86-.05.58.58,0,0,0,0,.86l4.3,4.3-1.63,1.63-6.2-6.2,1.7-1.7,1,1,.21-.21a1.67,1.67,0,0,1,0-2.34,1.58,1.58,0,0,1,2.16,0l.22-.21a1.56,1.56,0,0,1,0-2.17c.69-.69,1.58-.57,2.46.31Z" style="fill:#fff"/><path d="M579.88,926.23l1.92-1.92c.42.26,1,.06,1.61-.52.74-.74.79-1.45.14-2.1l-1.36-1.36-.12.12a2.43,2.43,0,0,1-.59,3c-1.43,1.42-3.18,1.25-4.91-.47l-.83-.84c-1.75-1.75-1.88-3.5-.37-5a2.38,2.38,0,0,1,3-.54l.12-.12-1.11-1.11,1.92-1.92,6.19,6.18c1.43,1.44,1.13,3.55-.78,5.47C583,926.87,581.11,927.29,579.88,926.23Zm.85-5.18a1.39,1.39,0,0,0,0-2.13l-.92-.92a1.48,1.48,0,1,0-2.09,2.1l.91.92A1.41,1.41,0,0,0,580.73,921.05Z" style="fill:#fff"/></g><g style="isolation:isolate"><path d="M550.76,1015c1.66-1.66,3.3-1.92,4.58-.72l-1.84,1.84c-.37-.29-.9-.18-1.36.28s-.53.94-.24,1.23.64.21,1.21-.17l1.23-.83c1.54-1,2.64-1.07,3.61-.1,1.32,1.32,1.07,3.22-.66,5s-3.44,2-4.72.89l1.92-1.92c.4.28.9.14,1.42-.38s.58-1,.28-1.27-.56-.2-1.23.24l-1.13.75c-1.45,1-2.7.94-3.69-.06C548.86,1018.46,549.1,1016.67,550.76,1015Z" style="fill:#fff"/><path d="M561.35,1009.34c-.76-.6-1.3-.6-1.88,0s-.43,1.55.59,2.57l.33.33c1,1,1.93,1.23,2.57.59s.59-1.08,0-1.81l1.92-1.92c1.47,1.72,1.32,3.46-.46,5.24-1.94,1.94-4,1.94-5.94,0l-.56-.55c-2-2-2-4,0-6,1.79-1.79,3.52-1.91,5.31-.38Z" style="fill:#fff"/><path d="M569.89,1005.93l1.71-1.71,1.34,1.34-4.71,4.7-1.33-1.33,1.12-1.13-3.52-3.52-1.24,1.23-1.34-1.33,3.13-3.13,1.6,1.59.32-.33c-1-1.58-.91-2.6.24-3.75a3.85,3.85,0,0,1,1-.75l2,2a4.3,4.3,0,0,0-1.23.86c-1.53,1.54-1.68,2.67-.49,3.86Z" style="fill:#fff"/><path d="M579.41,995.44c1.05,1.21.7,3.24-.84,4.78-1.89,1.88-4,2-5.73.2l-1-1c-1.62-1.62-1.51-3.88.26-5.66a3.69,3.69,0,0,1,5.48-.12l1,1-3.84,3.85.38.38a1.38,1.38,0,0,0,2.06,0,1.34,1.34,0,0,0,.41-1.56Zm-5.83,1.89,2-2a1.41,1.41,0,0,0-2.13-.19A1.43,1.43,0,0,0,573.58,997.33Z" style="fill:#fff"/><path d="M586.46,988.38c1,1.22.7,3.24-.84,4.79-1.89,1.88-4,2-5.72.2l-1-1c-1.62-1.62-1.51-3.88.26-5.66a3.68,3.68,0,0,1,5.48-.12l1,1-3.84,3.85.38.38a1.38,1.38,0,0,0,2.06,0,1.34,1.34,0,0,0,.41-1.56Zm-5.82,1.9,2-2a1.4,1.4,0,0,0-2.12-.18A1.41,1.41,0,0,0,580.64,990.28Z" style="fill:#fff"/><path d="M583.27,982.83l1.91-1.91,1,1,.11-.11a2.54,2.54,0,0,1,.63-2.94c1.35-1.35,2.89-1.26,4.41.27l4,4-2,2-3.56-3.56c-.79-.79-1.48-.86-2.12-.22a1.45,1.45,0,0,0,.2,2.19l3.54,3.54-2,2Z" style="fill:#fff"/><path d="M593.06,972.71c1.67-1.67,3.31-1.93,4.59-.72l-1.84,1.83c-.37-.29-.9-.18-1.36.28s-.53.94-.24,1.23.63.21,1.2-.16l1.23-.83c1.55-1.05,2.65-1.08,3.62-.11,1.32,1.32,1.07,3.22-.67,4.95s-3.43,2-4.72.89l1.92-1.92c.41.28.91.14,1.43-.38s.58-1,.28-1.26-.56-.2-1.23.24l-1.13.74c-1.45,1-2.7.94-3.69-.06C591.17,976.16,591.41,974.36,593.06,972.71Z" style="fill:#fff"/><path d="M595,966.44l1.93-1.92,3.35,3.35.11-.11a2.59,2.59,0,0,1,.68-3c1.35-1.35,2.92-1.26,4.42.24l4,4-2,2L604,967.44c-.77-.78-1.5-.85-2.15-.2a1.48,1.48,0,0,0,.16,2.24L605.5,973l-2,2Z" style="fill:#fff"/><path d="M608,965.31l-1-1c-1.7-1.7-1.61-3.91.23-5.74s4-1.93,5.74-.23l1,1c1.7,1.7,1.61,3.91-.23,5.74S609.66,967,608,965.31Zm1-2.85.88.87c.81.81,1.72.92,2.38.27s.54-1.57-.27-2.38l-.87-.88c-.81-.8-1.73-.91-2.38-.26S608.16,961.65,609,962.46Z" style="fill:#fff"/><path d="M613,949.39l1.92,1.92,2.16-2.16,1.47,1.46-2.12,2.12,2.66,2.65a.74.74,0,0,0,1.15,0l1.4-1.4,1.45,1.44L621.55,957c-1.79,1.79-2.9,1.88-4.42.36l-2.62-2.62-1.59,1.59-1.47-1.46,1.59-1.59-1.92-1.92Z" style="fill:#fff"/><path d="M626.89,955.84l-1.68-1.68,5.77-5.78,1.69,1.68Z" style="fill:#fff"/><path d="M632.07,947.38l1.92-1.91c.42.25,1,.06,1.61-.52.74-.75.79-1.46.14-2.11l-1.36-1.36-.13.12a2.43,2.43,0,0,1-.58,3c-1.43,1.43-3.18,1.26-4.91-.47l-.84-.84c-1.74-1.74-1.87-3.5-.36-5a2.38,2.38,0,0,1,3-.55l.12-.12-1.11-1.11,1.92-1.92,6.19,6.19c1.43,1.43,1.13,3.55-.78,5.46C635.13,948,633.3,948.44,632.07,947.38Zm.85-5.18a1.39,1.39,0,0,0,0-2.12l-.92-.92a1.48,1.48,0,1,0-2.1,2.09l.92.92A1.39,1.39,0,0,0,632.92,942.2Z" style="fill:#fff"/><path d="M637,937.9c-1.13-1.13-.95-2.63.54-4.37l1.18-1.36-.47-.46a.92.92,0,0,0-1.4.11,1.15,1.15,0,0,0-.33,1.33l-1.91,1.91c-1.09-1.31-.76-3.13.86-4.75s3.4-1.87,4.78-.48l4.19,4.19-1.86,1.86-.77-.77-.16.16a2.67,2.67,0,0,1-.83,2.55A2.55,2.55,0,0,1,637,937.9Zm3.13-4.32-.28-.28-.83,1c-.55.65-.64,1.17-.25,1.55s.86.29,1.31-.16A1.37,1.37,0,0,0,640.17,933.58Z" style="fill:#fff"/><path d="M652.06,926.44l-1.63,1.63-4.3-4.3a.58.58,0,1,0-.81.81l4.3,4.3-1.61,1.6-4.29-4.29a.58.58,0,1,0-.82.81l4.3,4.3-1.63,1.63-6.2-6.2,1.7-1.7,1,1,.22-.21a1.66,1.66,0,0,1,0-2.34,1.58,1.58,0,0,1,2.16,0l.21-.21a1.57,1.57,0,0,1,0-2.17c.69-.69,1.58-.58,2.46.31Z" style="fill:#fff"/><path d="M657,917.87c1,1.22.7,3.24-.85,4.78-1.88,1.89-4,2-5.72.2l-1-1c-1.62-1.62-1.52-3.89.26-5.66a3.68,3.68,0,0,1,5.48-.13l1,1-3.85,3.84.39.39a1.38,1.38,0,0,0,2.05,0,1.35,1.35,0,0,0,.42-1.56Zm-5.83,1.89,2-2a1.39,1.39,0,0,0-2.12-.18A1.4,1.4,0,0,0,651.15,919.76Z" style="fill:#fff"/></g><g style="isolation:isolate"><path d="M631.14,1008c1.67-1.66,3.3-1.92,4.58-.72l-1.83,1.84c-.38-.3-.9-.18-1.36.28s-.53.94-.24,1.23.63.21,1.2-.17l1.23-.83c1.55-1,2.65-1.07,3.61-.1,1.32,1.32,1.07,3.22-.66,5s-3.43,2-4.72.89l1.92-1.92c.4.27.9.14,1.43-.38s.58-1,.28-1.27-.57-.2-1.23.24l-1.14.75c-1.44,1-2.69.93-3.69-.06C629.25,1011.41,629.48,1009.62,631.14,1008Z" style="fill:#fff"/><path d="M641.74,1002.28c-.76-.59-1.31-.59-1.88,0s-.44,1.55.58,2.57l.34.33c1,1,1.92,1.23,2.56.59s.59-1.08,0-1.81l1.92-1.92c1.48,1.72,1.33,3.46-.45,5.24-1.94,1.94-4,1.94-6,0l-.56-.56c-1.94-1.94-2-4,0-5.94,1.79-1.79,3.53-1.91,5.32-.39Z" style="fill:#fff"/><path d="M650.28,998.88l1.71-1.71,1.33,1.34-4.7,4.7-1.34-1.33,1.13-1.13-3.53-3.52-1.23,1.23-1.34-1.33,3.13-3.13,1.59,1.59.33-.33c-1-1.59-.91-2.6.23-3.75a3.67,3.67,0,0,1,1-.75l2,2a4.27,4.27,0,0,0-1.22.86c-1.54,1.54-1.68,2.67-.49,3.86Z" style="fill:#fff"/><path d="M659.79,988.38c1.06,1.22.71,3.24-.84,4.79-1.88,1.88-4,2-5.72.2l-1-1c-1.63-1.62-1.52-3.88.26-5.66a3.68,3.68,0,0,1,5.48-.12l1,1-3.85,3.85.38.38a1.38,1.38,0,0,0,2.06,0,1.34,1.34,0,0,0,.42-1.56Zm-5.82,1.9,2-2a1.4,1.4,0,0,0-2.12-.18A1.41,1.41,0,0,0,654,990.28Z" style="fill:#fff"/><path d="M666.85,981.33c1,1.22.7,3.24-.85,4.78-1.88,1.89-4,2-5.72.2l-1-1c-1.62-1.62-1.52-3.89.26-5.66a3.68,3.68,0,0,1,5.48-.12l1,1-3.85,3.84.39.39a1.38,1.38,0,0,0,2.06,0,1.36,1.36,0,0,0,.41-1.56ZM661,983.22l2-2a1.41,1.41,0,1,0-2,2Z" style="fill:#fff"/><path d="M663.65,975.78l1.92-1.91,1,1,.1-.11a2.54,2.54,0,0,1,.64-2.94c1.34-1.35,2.88-1.26,4.41.27l4,4-2,2-3.57-3.56c-.79-.79-1.47-.86-2.11-.22a1.43,1.43,0,0,0,.19,2.18l3.55,3.54-2,2Z" style="fill:#fff"/><path d="M673.45,965.65c1.66-1.66,3.3-1.92,4.58-.72l-1.84,1.84c-.37-.29-.89-.18-1.36.28s-.52.94-.23,1.23.63.21,1.2-.17l1.23-.83c1.55-1,2.64-1.07,3.61-.1,1.32,1.32,1.07,3.22-.66,5s-3.44,2-4.72.89l1.92-1.92c.4.28.9.14,1.42-.38s.58-1,.29-1.26-.57-.2-1.23.23l-1.14.75c-1.45.95-2.69.94-3.69-.06C671.56,969.1,671.79,967.31,673.45,965.65Z" style="fill:#fff"/><path d="M675.4,959.39l1.93-1.92,3.35,3.35.1-.11a2.59,2.59,0,0,1,.68-3c1.35-1.35,2.93-1.27,4.43.24l4,4-2,2-3.54-3.53c-.78-.78-1.5-.85-2.15-.2a1.47,1.47,0,0,0,.15,2.24l3.51,3.52-2,2Z" style="fill:#fff"/><path d="M688.35,958.26l-1-1c-1.69-1.69-1.61-3.9.23-5.74s4-1.92,5.74-.22l1,1c1.69,1.7,1.6,3.9-.23,5.74S690.05,960,688.35,958.26Zm1-2.85.87.87c.81.81,1.73.92,2.38.26s.55-1.57-.26-2.37l-.88-.88c-.8-.8-1.72-.91-2.37-.26S688.54,954.6,689.35,955.41Z" style="fill:#fff"/><path d="M693.42,942.34l1.92,1.92,2.17-2.17,1.46,1.47-2.11,2.11,2.65,2.66a.75.75,0,0,0,1.16-.05l1.4-1.4,1.44,1.44-1.58,1.57c-1.79,1.8-2.9,1.89-4.42.37l-2.62-2.62-1.59,1.59-1.47-1.46,1.6-1.6-1.92-1.92Z" style="fill:#fff"/><path d="M707.27,948.79l-1.68-1.68,5.78-5.78,1.68,1.68Z" style="fill:#fff"/><path d="M717.45,934.38,715.8,936l-4.45-3.08,0,0,3.08,4.45-1.64,1.64-7.37-5,1.86-1.86,4.2,3.8.27-.26-3.55-4.4,1.54-1.55,4.4,3.55.27-.27-3.81-4.19,1.86-1.87Z" style="fill:#fff"/><path d="M723.26,924.92c1,1.22.7,3.24-.84,4.78-1.89,1.89-4,2-5.73.2l-1-1c-1.62-1.62-1.52-3.89.26-5.66a3.68,3.68,0,0,1,5.48-.13l1,1-3.85,3.84.39.39a1.39,1.39,0,0,0,2.06,0,1.36,1.36,0,0,0,.41-1.56Zm-5.83,1.89,2-2a1.39,1.39,0,0,0-2.12-.18A1.4,1.4,0,0,0,717.43,926.81Z" style="fill:#fff"/><path d="M727.32,922.23l-.12.13,1.14,1.13-2.06,2.06L717.76,917l2.07-2.07,3.43,3.43.12-.12a2.14,2.14,0,0,1,.43-2.86c1.41-1.41,3.13-1.23,4.87.51l1,1c1.74,1.74,1.92,3.46.51,4.87A2.1,2.1,0,0,1,727.32,922.23Zm.38-3.26-1.11-1.11a1.41,1.41,0,1,0-2,2l1.1,1.1a1.41,1.41,0,1,0,2-2Z" style="fill:#fff"/></g><g style="isolation:isolate"><path d="M702.8,1005.8l1.92,1.92,2.17-2.16,1.46,1.46-2.11,2.12,2.65,2.65a.74.74,0,0,0,1.15,0l1.41-1.4,1.44,1.44-1.58,1.58c-1.79,1.79-2.9,1.88-4.42.36l-2.62-2.62-1.59,1.59-1.47-1.46,1.6-1.59-1.92-1.92Z" style="fill:#fff"/><path d="M718.53,1002.49c1.05,1.22.7,3.24-.84,4.78-1.89,1.89-4,2-5.72.2l-1-1c-1.62-1.62-1.51-3.88.27-5.66a3.68,3.68,0,0,1,5.47-.12l1,1-3.85,3.85.38.38a1.37,1.37,0,0,0,2.06,0,1.34,1.34,0,0,0,.42-1.56Zm-5.82,1.89,2-2a1.4,1.4,0,0,0-2.12-.19A1.41,1.41,0,0,0,712.71,1004.38Z" style="fill:#fff"/><path d="M722.48,998.4l.9,2.89-2,2.05-1.19-4.9-5-1.29,2.25-2.24,2.84,1,.1-.11-1-2.85,2.13-2.13,1.19,4.94,5,1.25-2.15,2.15-2.9-.9Z" style="fill:#fff"/><path d="M724,984.65l1.92,1.92L728,984.4l1.47,1.47L727.39,988l2.66,2.66a.75.75,0,0,0,1.15,0l1.4-1.4,1.44,1.44-1.57,1.57c-1.8,1.8-2.9,1.89-4.42.37L725.42,990l-1.59,1.59-1.46-1.46,1.59-1.6L722,986.56Z" style="fill:#fff"/><path d="M741.52,983.15l-1.92,1.92-1-1-.11.11a2.56,2.56,0,0,1-.63,2.94c-1.35,1.34-2.89,1.25-4.41-.27l-4-4,2-2,3.57,3.57c.79.79,1.47.86,2.11.22a1.44,1.44,0,0,0-.19-2.19l-3.54-3.54,2-2Z" style="fill:#fff"/><path d="M744.27,977.73,746,976l1.34,1.33-4.71,4.71-1.33-1.34,1.12-1.12-3.52-3.53-1.24,1.24L736.3,976l3.13-3.13,1.6,1.6.32-.33c-1-1.59-.91-2.61.24-3.75a3.7,3.7,0,0,1,1-.76l2,2a4.17,4.17,0,0,0-1.23.86c-1.53,1.53-1.68,2.67-.49,3.86Z" style="fill:#fff"/><path d="M753.79,967.23c1.05,1.22.7,3.24-.84,4.78-1.89,1.89-4,2-5.72.2l-1-1c-1.62-1.62-1.51-3.89.26-5.66a3.68,3.68,0,0,1,5.48-.13l1,1-3.85,3.84.39.39a1.39,1.39,0,0,0,2.06,0,1.36,1.36,0,0,0,.41-1.56ZM748,969.12l2-2a1.41,1.41,0,1,0-2,2Z" style="fill:#fff"/><path d="M753.34,958.6c1.67-1.66,3.3-1.92,4.58-.72l-1.84,1.84c-.37-.29-.89-.18-1.35.28s-.53.94-.24,1.23.63.21,1.2-.17l1.23-.83c1.55-1,2.65-1.07,3.61-.1,1.32,1.32,1.07,3.22-.66,5s-3.43,2-4.72.89l1.92-1.92c.4.28.9.14,1.43-.38s.58-1,.28-1.27-.57-.2-1.23.24l-1.13.75c-1.45,1-2.7.94-3.7-.06C751.45,962.05,751.68,960.26,753.34,958.6Z" style="fill:#fff"/><path d="M766,962.89l-1.68-1.68,5.78-5.78,1.68,1.68Z" style="fill:#fff"/><path d="M773.33,944.13l1,1c1.75,1.74,1.92,3.46.51,4.87a2.13,2.13,0,0,1-2.86.43l-.12.12,3.16,3.16L773,955.8l-8.24-8.25,2-2,1.14,1.13.12-.12a2.12,2.12,0,0,1,.42-2.89C769.88,942.21,771.59,942.39,773.33,944.13Zm-4,4,1.1,1.1a1.41,1.41,0,1,0,2-2l-1.1-1.1a1.41,1.41,0,1,0-2,2Z" style="fill:#fff"/><path d="M769.4,938.24l1.92-1.93,3.35,3.35.11-.1a2.58,2.58,0,0,1,.68-3c1.35-1.35,2.92-1.27,4.42.23l4,4-2,2-3.54-3.53c-.78-.78-1.5-.85-2.15-.2a1.47,1.47,0,0,0,.16,2.24l3.51,3.51-2,2Z" style="fill:#fff"/><path d="M782.34,937.11l-1-1c-1.7-1.7-1.61-3.9.23-5.74s4-1.92,5.74-.23l1,1c1.7,1.7,1.61,3.9-.23,5.74S784,938.8,782.34,937.11Zm1-2.85.88.87c.81.81,1.72.91,2.38.26s.54-1.57-.27-2.38l-.87-.87c-.81-.81-1.73-.91-2.38-.26S782.54,933.45,783.34,934.26Z" style="fill:#fff"/><path d="M787.42,921.19l1.92,1.92,2.16-2.17L793,922.4l-2.12,2.12,2.66,2.66a.76.76,0,0,0,1.15,0l1.4-1.41,1.45,1.45-1.58,1.57c-1.79,1.79-2.9,1.89-4.42.37l-2.62-2.62-1.6,1.59-1.46-1.47,1.59-1.59-1.92-1.92Z" style="fill:#fff"/><path d="M796.45,923l-1-1c-1.7-1.7-1.61-3.9.23-5.74s4-1.93,5.74-.23l1,1c1.7,1.69,1.61,3.9-.22,5.74S798.14,924.7,796.45,923Zm1-2.85.87.88c.81.8,1.73.91,2.38.26s.54-1.57-.26-2.38l-.88-.87c-.81-.81-1.72-.92-2.37-.26S796.64,919.35,797.45,920.15Z" style="fill:#fff"/></g><g style="isolation:isolate"><path d="M799.25,984.65l1.92,1.92,2.16-2.17,1.47,1.47L802.68,988l2.66,2.66a.75.75,0,0,0,1.15,0l1.4-1.41,1.45,1.45-1.58,1.57c-1.79,1.79-2.9,1.89-4.42.37L800.72,990l-1.6,1.59-1.46-1.46,1.59-1.6-1.92-1.92Z" style="fill:#fff"/><path d="M815,981.33c1,1.22.7,3.24-.84,4.78-1.89,1.89-4,2-5.73.2l-1-1c-1.62-1.62-1.51-3.89.26-5.66a3.68,3.68,0,0,1,5.48-.12l1,1-3.85,3.84.39.39a1.38,1.38,0,0,0,2.06,0,1.36,1.36,0,0,0,.41-1.56Zm-5.83,1.89,2-2a1.4,1.4,0,0,0-2.12-.18A1.41,1.41,0,0,0,809.15,983.22Z" style="fill:#fff"/><path d="M818.92,977.24l.91,2.89-2.05,2.06-1.2-4.9-5-1.29,2.24-2.24,2.84,1,.11-.1-1-2.86,2.14-2.13,1.19,4.95,5,1.24L821.92,978l-2.89-.9Z" style="fill:#fff"/><path d="M820.4,963.49l1.92,1.92,2.17-2.16,1.46,1.46-2.11,2.12,2.65,2.65a.74.74,0,0,0,1.15-.05l1.41-1.4,1.44,1.44-1.58,1.58c-1.79,1.79-2.9,1.89-4.42.37l-2.62-2.63-1.59,1.6-1.47-1.47,1.6-1.59-1.92-1.92Z" style="fill:#fff"/><path d="M838,962l-1.91,1.91-1-1-.1.1a2.54,2.54,0,0,1-.64,2.94c-1.35,1.35-2.88,1.26-4.41-.27l-4-4,2-2,3.56,3.56c.79.79,1.48.87,2.12.23a1.45,1.45,0,0,0-.2-2.19l-3.54-3.54,2-2Z" style="fill:#fff"/><path d="M840.72,956.57l1.71-1.71,1.33,1.34-4.7,4.7-1.34-1.33,1.13-1.13-3.53-3.52-1.23,1.23-1.34-1.33,3.13-3.13,1.59,1.59.33-.33c-1-1.58-.91-2.6.23-3.75a3.89,3.89,0,0,1,1-.75l2,2a4.47,4.47,0,0,0-1.22.86c-1.54,1.54-1.68,2.67-.49,3.86Z" style="fill:#fff"/><path d="M850.23,946.08c1.06,1.21.71,3.24-.84,4.78-1.88,1.89-4,2-5.72.2l-1-1c-1.62-1.62-1.52-3.88.26-5.66a3.69,3.69,0,0,1,5.48-.12l1,1-3.85,3.85.38.38a1.39,1.39,0,0,0,2.07,0,1.35,1.35,0,0,0,.41-1.56ZM844.41,948l2-2a1.4,1.4,0,0,0-2.12-.19A1.41,1.41,0,0,0,844.41,948Z" style="fill:#fff"/><path d="M849.79,937.45c1.66-1.67,3.3-1.92,4.58-.72l-1.84,1.84c-.37-.3-.9-.19-1.36.28s-.53.94-.24,1.23.64.21,1.21-.17l1.23-.83C854.92,938,856,938,857,939c1.32,1.32,1.07,3.22-.66,4.95s-3.44,2.05-4.72.89l1.92-1.92c.4.28.9.15,1.42-.38s.58-1,.29-1.26-.57-.2-1.23.24l-1.14.75c-1.45.94-2.69.93-3.69-.07C847.89,940.9,848.13,939.11,849.79,937.45Z" style="fill:#fff"/><path d="M862.46,941.74l-1.69-1.68,5.78-5.78,1.68,1.68Z" style="fill:#fff"/><path d="M869.78,923l1,1c1.74,1.74,1.92,3.45.5,4.87a2.13,2.13,0,0,1-2.85.43l-.12.12,3.15,3.16-2.06,2.06-8.25-8.24,2.06-2.06,1.13,1.14.12-.13a2.1,2.1,0,0,1,.43-2.88C866.32,921.06,868,921.24,869.78,923Zm-4,4,1.1,1.11a1.41,1.41,0,1,0,2-2l-1.11-1.1a1.41,1.41,0,1,0-2,2Z" style="fill:#fff"/><path d="M872.27,915.3l2.2-2.2.45,4.86,5.9,1.18-2.27,2.27-3.95-.82,0,.83,2,1.94-2,2-8.52-8.52,2-2,4.64,4.63.1-.1Z" style="fill:#fff"/></g><g style="isolation:isolate"><path d="M859.64,998.75l1.92,1.92,2.17-2.16,1.46,1.46-2.12,2.12,2.66,2.65a.74.74,0,0,0,1.15,0l1.41-1.4,1.44,1.44-1.58,1.58c-1.79,1.79-2.9,1.88-4.42.36l-2.62-2.62-1.59,1.59-1.47-1.46,1.59-1.59-1.92-1.92Z" style="fill:#fff"/><path d="M875.37,995.44c1,1.21.7,3.24-.84,4.78-1.89,1.88-4,2-5.72.2l-1-1c-1.62-1.62-1.51-3.88.26-5.66a3.69,3.69,0,0,1,5.48-.12l1,1-3.84,3.85.38.38a1.38,1.38,0,0,0,2.06,0,1.33,1.33,0,0,0,.41-1.56Zm-5.82,1.89,2-2a1.4,1.4,0,0,0-2.12-.19A1.41,1.41,0,0,0,869.55,997.33Z" style="fill:#fff"/><path d="M879.31,991.35l.91,2.88-2.05,2.06-1.19-4.9-5-1.29,2.24-2.24,2.84,1,.11-.1-1-2.85,2.13-2.13,1.19,4.94,5,1.25-2.15,2.15-2.9-.9Z" style="fill:#fff"/><path d="M880.79,977.6l1.92,1.92,2.17-2.17,1.46,1.47-2.11,2.11,2.65,2.66a.76.76,0,0,0,1.16-.05l1.4-1.41,1.44,1.45-1.57,1.57c-1.8,1.79-2.91,1.89-4.43.37l-2.62-2.62-1.59,1.59L879.21,983l1.59-1.59-1.92-1.92Z" style="fill:#fff"/><path d="M898.36,976.1,896.44,978l-1-1-.1.1a2.54,2.54,0,0,1-.64,2.94c-1.34,1.35-2.88,1.26-4.41-.26l-4-4,2-2,3.56,3.57c.79.79,1.48.86,2.12.22a1.44,1.44,0,0,0-.19-2.19l-3.55-3.54,2-2Z" style="fill:#fff"/><path d="M901.11,970.68l1.71-1.71,1.33,1.33-4.7,4.71-1.34-1.34,1.13-1.12L895.71,969l-1.23,1.24-1.34-1.34,3.13-3.13,1.59,1.6.33-.33c-1-1.59-.91-2.61.24-3.76a3.69,3.69,0,0,1,1-.75l2,2a4.43,4.43,0,0,0-1.22.85c-1.54,1.54-1.68,2.68-.49,3.87Z" style="fill:#fff"/><path d="M910.63,960.18c1,1.22.7,3.24-.84,4.78-1.89,1.89-4,2-5.73.2l-1-1c-1.62-1.62-1.52-3.89.26-5.66a3.68,3.68,0,0,1,5.48-.13l1,1-3.85,3.85.39.39a1.38,1.38,0,0,0,2.06,0,1.34,1.34,0,0,0,.41-1.55Zm-5.83,1.89,2-2a1.39,1.39,0,0,0-2.12-.18A1.4,1.4,0,0,0,904.8,962.07Z" style="fill:#fff"/><path d="M910.18,951.55c1.66-1.66,3.3-1.92,4.58-.72l-1.84,1.84c-.37-.29-.89-.18-1.35.28s-.53.94-.24,1.23.63.21,1.2-.17l1.23-.83c1.55-1,2.64-1.07,3.61-.1,1.32,1.32,1.07,3.22-.66,4.95s-3.44,2-4.72.89l1.92-1.92c.4.27.9.14,1.42-.38s.58-1,.29-1.27-.57-.2-1.23.24l-1.14.75c-1.45.95-2.69.93-3.69-.06C908.29,955,908.52,953.21,910.18,951.55Z" style="fill:#fff"/><path d="M922.85,955.84l-1.68-1.68,5.77-5.78,1.69,1.68Z" style="fill:#fff"/><path d="M930.17,937.08l1,1c1.74,1.74,1.92,3.46.51,4.87a2.13,2.13,0,0,1-2.86.43l-.12.12,3.16,3.16-2.07,2.06-8.25-8.24,2.06-2.06,1.13,1.14.13-.12a2.12,2.12,0,0,1,.42-2.89C926.71,935.16,928.43,935.34,930.17,937.08Zm-4,4,1.11,1.1a1.41,1.41,0,1,0,2-2l-1.1-1.11a1.41,1.41,0,1,0-2,2Z" style="fill:#fff"/><path d="M932.66,929.41l2.2-2.21.45,4.86,5.9,1.19-2.27,2.26-4-.82.06.83,1.94,2-2,2-8.52-8.51,2-2,4.64,4.64.1-.11Z" style="fill:#fff"/><path d="M937.5,928.92c-2.66-2.66-3-5.37-.93-7.44s4.78-1.74,7.44.93,3,5.36.93,7.43S940.16,931.58,937.5,928.92Zm1.77-2.19,1.07-3.69c-.92-.51-1.67-.51-2.2,0C937.36,923.84,937.76,925.14,939.27,926.73Zm3-2.12-1.07,3.68c.91.5,1.66.51,2.19,0C944.15,927.49,943.75,926.19,942.25,924.61Z" style="fill:#fff"/><path d="M949.12,925.34l-1.59-1.59,2-2-4.6-4.6-.11.1-.59,3.21-1.76-1.76.62-3.4,2-2,6.45,6.44,1.9-1.9,1.59,1.59Z" style="fill:#fff"/></g><g style="isolation:isolate"><path d="M932.43,998.75l1.92,1.92,2.17-2.17L938,1000l-2.12,2.11,2.66,2.66a.74.74,0,0,0,1.15,0l1.41-1.4,1.44,1.44-1.58,1.57c-1.79,1.8-2.9,1.89-4.42.37l-2.62-2.62-1.59,1.59-1.47-1.46,1.59-1.59-1.92-1.92Z" style="fill:#fff"/><path d="M948.16,995.43c1.05,1.22.7,3.24-.84,4.79-1.89,1.88-4,2-5.72.2l-1-1c-1.62-1.62-1.51-3.88.26-5.66a3.69,3.69,0,0,1,5.48-.12l1,1-3.84,3.85.38.38a1.38,1.38,0,0,0,2.06,0,1.34,1.34,0,0,0,.41-1.56Zm-5.82,1.9,2-2a1.4,1.4,0,0,0-2.12-.19A1.41,1.41,0,0,0,942.34,997.33Z" style="fill:#fff"/><path d="M952.11,991.34l.9,2.89-2,2.06-1.19-4.9-5-1.29,2.25-2.24,2.83,1,.11-.1-1-2.85,2.13-2.14,1.19,5,5,1.25-2.15,2.15-2.9-.9Z" style="fill:#fff"/><path d="M953.58,977.6l1.92,1.92,2.17-2.17,1.46,1.46L957,980.93l2.65,2.66a.77.77,0,0,0,1.16-.05l1.4-1.41,1.44,1.44-1.57,1.58c-1.8,1.79-2.9,1.89-4.43.37l-2.62-2.62-1.59,1.59L952,983l1.59-1.59-1.92-1.92Z" style="fill:#fff"/><path d="M971.15,976.1,969.23,978l-1-1-.1.1a2.54,2.54,0,0,1-.64,2.94c-1.34,1.35-2.88,1.26-4.41-.26l-4-4,2-2,3.56,3.56c.8.8,1.48.87,2.12.23a1.44,1.44,0,0,0-.19-2.19L963,971.87l2-2Z" style="fill:#fff"/><path d="M973.9,970.67l1.71-1.7,1.33,1.33-4.7,4.71-1.33-1.34,1.12-1.12L968.5,969l-1.23,1.24-1.34-1.34,3.13-3.13,1.59,1.59.33-.32c-1-1.59-.91-2.61.24-3.76a3.85,3.85,0,0,1,1-.75l2,2a4.32,4.32,0,0,0-1.23.85c-1.53,1.54-1.68,2.68-.49,3.87Z" style="fill:#fff"/><path d="M983.42,960.18c1.05,1.22.7,3.24-.84,4.78-1.89,1.89-4,2-5.73.2l-1-1c-1.62-1.62-1.52-3.89.26-5.67a3.69,3.69,0,0,1,5.48-.12l1,1-3.85,3.85.39.38a1.37,1.37,0,0,0,2.06,0,1.34,1.34,0,0,0,.41-1.55Zm-5.83,1.89,2-2a1.39,1.39,0,0,0-2.12-.18A1.41,1.41,0,0,0,977.59,962.07Z" style="fill:#fff"/><path d="M983,951.55c1.66-1.66,3.3-1.92,4.58-.72l-1.84,1.84c-.37-.3-.89-.18-1.35.28s-.53.94-.24,1.23.63.21,1.2-.17l1.23-.83c1.55-1,2.64-1.07,3.61-.1,1.32,1.32,1.07,3.21-.66,4.95s-3.43,2-4.72.89L986.7,957c.4.28.9.15,1.42-.37s.58-1,.29-1.27-.57-.2-1.23.24l-1.14.75c-1.45.94-2.69.93-3.69-.06C981.08,955,981.31,953.21,983,951.55Z" style="fill:#fff"/><path d="M995.64,955.84,994,954.16l5.78-5.78,1.68,1.68Z" style="fill:#fff"/><path d="M1003,937.08l1,1c1.74,1.74,1.92,3.46.51,4.87a2.13,2.13,0,0,1-2.86.43l-.12.12,3.16,3.16-2.07,2.06-8.24-8.24,2-2.06,1.14,1.14.12-.12a2.12,2.12,0,0,1,.42-2.89C999.5,935.16,1001.22,935.34,1003,937.08Zm-4,4,1.11,1.1a1.41,1.41,0,1,0,2-2l-1.1-1.11a1.41,1.41,0,1,0-2,2Z" style="fill:#fff"/><path d="M1005.45,929.41l2.2-2.21.45,4.86,5.9,1.19-2.27,2.26-4-.82.06.83,1.94,2-2,2-8.51-8.52,2-2,4.64,4.64.1-.11Z" style="fill:#fff"/><path d="M1010.29,928.92c-2.66-2.66-3-5.37-.92-7.44s4.77-1.74,7.43.92,3,5.37.93,7.44S1013,931.58,1010.29,928.92Zm1.78-2.19,1.06-3.69c-.92-.51-1.67-.51-2.19,0C1010.15,923.84,1010.55,925.14,1012.07,926.73Zm3-2.12-1.06,3.67c.9.51,1.65.52,2.18,0C1016.94,927.49,1016.55,926.19,1015,924.61Z" style="fill:#fff"/><path d="M1016.41,914.45c1.79-1.79,4-2,5.38-.62.9.9,1.17,2.25,1,4.9l-.16,2.49.11.11,3.38-3.39,1.59,1.59-6.1,6.11-1.37-1.36.21-4.87c.09-2.24,0-3-.49-3.46a1.4,1.4,0,0,0-2.08.11,1.54,1.54,0,0,0,0,2.3l0,0-1.88,1.87,0,0C1014.37,918.64,1014.55,916.31,1016.41,914.45Z" style="fill:#fff"/></g><g style="isolation:isolate"><path d="M991.78,1012.85l1.93,1.92,2.16-2.16,1.46,1.46-2.11,2.12,2.65,2.65a.75.75,0,0,0,1.16-.05l1.4-1.4,1.44,1.44-1.57,1.58c-1.8,1.79-2.91,1.89-4.42.37l-2.63-2.63-1.59,1.6-1.46-1.47,1.59-1.59-1.92-1.92Z" style="fill:#fff"/><path d="M1007.52,1009.54c1.05,1.22.69,3.24-.85,4.78-1.88,1.89-4,2-5.72.2l-1-1c-1.62-1.62-1.52-3.89.26-5.67a3.69,3.69,0,0,1,5.48-.12l1,1-3.85,3.85.39.39a1.38,1.38,0,0,0,2.06,0,1.34,1.34,0,0,0,.41-1.55Zm-5.83,1.89,2-2a1.39,1.39,0,0,0-2.12-.18A1.4,1.4,0,0,0,1001.69,1011.43Z" style="fill:#fff"/><path d="M1011.46,1005.45l.91,2.89-2.06,2-1.19-4.9-5-1.28,2.25-2.25,2.84,1,.1-.11-1-2.85,2.13-2.13,1.19,4.94,5,1.25-2.16,2.15-2.9-.9Z" style="fill:#fff"/><path d="M1012.94,991.7l1.92,1.92,2.16-2.17,1.47,1.47-2.12,2.11,2.66,2.66a.74.74,0,0,0,1.15-.05l1.4-1.4,1.45,1.44-1.58,1.57c-1.79,1.8-2.9,1.89-4.42.37l-2.62-2.62-1.6,1.59-1.46-1.46,1.59-1.59-1.92-1.93Z" style="fill:#fff"/><path d="M1030.5,990.2l-1.91,1.92-1-1-.11.11a2.55,2.55,0,0,1-.63,2.94c-1.35,1.34-2.89,1.25-4.41-.27l-4-4,2-2,3.57,3.56c.79.79,1.47.86,2.11.22a1.44,1.44,0,0,0-.19-2.19l-3.54-3.54,2-2Z" style="fill:#fff"/><path d="M1033.25,984.78l1.71-1.71,1.34,1.34-4.71,4.7-1.33-1.34,1.12-1.12-3.52-3.53-1.24,1.24-1.33-1.34,3.13-3.12,1.59,1.59.33-.33c-1-1.59-.92-2.61.23-3.75a3.52,3.52,0,0,1,1-.75l2,2a4.13,4.13,0,0,0-1.22.86c-1.54,1.53-1.69,2.67-.49,3.86Z" style="fill:#fff"/><path d="M1042.77,974.28c1,1.22.7,3.24-.84,4.78-1.89,1.89-4,2-5.72.2l-1-1c-1.62-1.62-1.51-3.89.26-5.66a3.68,3.68,0,0,1,5.48-.12l1,1-3.84,3.84.38.39a1.39,1.39,0,0,0,2.06,0,1.33,1.33,0,0,0,.41-1.56Zm-5.82,1.89,2-2a1.41,1.41,0,1,0-2,2Z" style="fill:#fff"/><path d="M1042.32,965.65c1.67-1.66,3.3-1.92,4.58-.71l-1.83,1.83c-.37-.29-.9-.18-1.36.28s-.53.94-.24,1.23.63.21,1.2-.16l1.23-.83c1.55-1,2.65-1.08,3.62-.11,1.32,1.32,1.07,3.22-.66,5s-3.44,2-4.73.89l1.92-1.92c.4.28.91.14,1.43-.38s.58-1,.28-1.26-.57-.2-1.23.24l-1.13.74c-1.45.95-2.7.94-3.69-.06C1040.43,969.11,1040.66,967.31,1042.32,965.65Z" style="fill:#fff"/><path d="M1055,969.94l-1.68-1.68,5.78-5.78,1.68,1.69Z" style="fill:#fff"/><path d="M1062.32,951.18l1,1c1.75,1.75,1.93,3.46.51,4.87a2.11,2.11,0,0,1-2.85.43l-.13.13,3.16,3.15-2.06,2.07-8.25-8.25,2-2.05,1.14,1.13.12-.12a2.1,2.1,0,0,1,.43-2.88C1058.86,949.26,1060.57,949.44,1062.32,951.18Zm-4,4,1.1,1.1a1.41,1.41,0,1,0,2-2l-1.1-1.1a1.41,1.41,0,1,0-2,2Z" style="fill:#fff"/><path d="M1067.1,953.6l-1.47-1.47,1.86-1.86-5.58-5.57-1.7,1.69-1.47-1.47,3.67-3.66,7,7,1.71-1.71,1.46,1.47Z" style="fill:#fff"/><path d="M1072.19,945c-1.13-1.13-.94-2.63.55-4.37l1.17-1.36-.46-.46a.94.94,0,0,0-1.41.11,1.18,1.18,0,0,0-.33,1.34l-1.91,1.9c-1.09-1.31-.76-3.13.86-4.75s3.4-1.87,4.79-.48l4.19,4.19-1.86,1.86-.77-.77-.17.17a2.68,2.68,0,0,1-.82,2.55A2.57,2.57,0,0,1,1072.19,945Zm3.14-4.32-.29-.28-.82,1c-.56.66-.64,1.17-.26,1.56s.87.28,1.32-.17A1.38,1.38,0,0,0,1075.33,940.63Z" style="fill:#fff"/><path d="M1074.84,933.48l1.91-1.92,1,1,.1-.11a2.54,2.54,0,0,1,.64-2.94c1.35-1.34,2.88-1.25,4.41.27l4,4-2,2-3.56-3.56c-.79-.79-1.48-.86-2.12-.22a1.45,1.45,0,0,0,.2,2.19l3.54,3.54-2,2Z" style="fill:#fff"/><path d="M1083.45,921.19l1.92,1.92,2.17-2.17,1.46,1.47-2.12,2.11,2.66,2.66a.75.75,0,0,0,1.15,0l1.41-1.41,1.44,1.45-1.58,1.57c-1.79,1.79-2.9,1.89-4.42.37l-2.62-2.62-1.59,1.59-1.47-1.47,1.6-1.59-1.92-1.92Z" style="fill:#fff"/><path d="M1091.68,916.29c1.67-1.66,3.3-1.92,4.58-.71l-1.83,1.83c-.38-.29-.9-.18-1.36.28s-.53.94-.24,1.23.63.21,1.2-.16l1.23-.83c1.55-1,2.65-1.08,3.62-.11,1.32,1.32,1.07,3.22-.67,4.95s-3.43,2-4.72.89l1.92-1.92c.4.28.9.14,1.43-.38s.58-1,.28-1.26-.57-.2-1.23.24l-1.13.74c-1.45.95-2.7.94-3.7-.06C1089.79,919.75,1090,918,1091.68,916.29Z" style="fill:#fff"/></g><rect x="163.29" y="149.81" width="1" height="742.06" style="fill:#fff"/><rect x="153.3" y="891.37" width="9.68" height="1" style="fill:#fff"/><g style="isolation:isolate"><path d="M136.44,889.63c0-4.94,2-7.71,5.56-7.71s5.57,2.77,5.57,7.71-2,7.71-5.57,7.71S136.44,894.56,136.44,889.63Zm2.85.38,5.09-3.37c-.42-1.52-1.22-2.32-2.38-2.32-1.75,0-2.71,1.87-2.71,5.31Zm5.43-.38v-.36l-5.09,3.36c.42,1.51,1.22,2.3,2.37,2.3C143.77,894.93,144.72,893.07,144.72,889.63Z" style="fill:#fff"/></g><rect x="153.3" y="829.53" width="9.68" height="1" style="fill:#fff"/><g style="isolation:isolate"><path d="M123.61,831h2.81a2.42,2.42,0,0,0,2.58,2,2.69,2.69,0,0,0,0-5.38,2.62,2.62,0,0,0-2.41,1.35h-2.81l.7-8.56h9v2.46h-6.73l-.32,3.94h.18a3.65,3.65,0,0,1,3.14-1.44,4.55,4.55,0,0,1,4.63,4.88c0,3.16-2.2,5.26-5.48,5.26C125.84,835.49,123.69,833.66,123.61,831Z" style="fill:#fff"/><path d="M136.44,827.79c0-4.93,2-7.71,5.56-7.71s5.57,2.78,5.57,7.71-2,7.71-5.57,7.71S136.44,832.72,136.44,827.79Zm2.85.38,5.09-3.37c-.42-1.51-1.22-2.31-2.38-2.31-1.75,0-2.71,1.86-2.71,5.3Zm5.43-.38v-.36l-5.09,3.36c.42,1.51,1.22,2.3,2.37,2.3C143.77,833.09,144.72,831.23,144.72,827.79Z" style="fill:#fff"/></g><rect x="153.3" y="767.69" width="9.68" height="1" style="fill:#fff"/><g style="isolation:isolate"><path d="M111.16,773.35v-2.43h4v-9.47H115L111.15,764v-2.75l4-2.67H118v12.36h3.78v2.43Z" style="fill:#fff"/><path d="M123.46,766c0-4.93,2-7.71,5.56-7.71s5.57,2.78,5.57,7.71-2,7.71-5.57,7.71S123.46,770.88,123.46,766Zm2.85.38L131.4,763c-.42-1.51-1.22-2.31-2.38-2.31-1.75,0-2.71,1.86-2.71,5.3Zm5.43-.38v-.36L126.65,769c.42,1.51,1.22,2.3,2.37,2.3C130.78,771.25,131.74,769.39,131.74,766Z" style="fill:#fff"/><path d="M136.44,766c0-4.93,2-7.71,5.56-7.71s5.57,2.78,5.57,7.71-2,7.71-5.57,7.71S136.44,770.88,136.44,766Zm2.85.38,5.09-3.37c-.42-1.51-1.22-2.31-2.38-2.31-1.75,0-2.71,1.86-2.71,5.3Zm5.43-.38v-.36L139.63,769c.42,1.51,1.22,2.3,2.37,2.3C143.77,771.25,144.72,769.39,144.72,766Z" style="fill:#fff"/></g><rect x="153.3" y="705.85" width="9.68" height="1" style="fill:#fff"/><g style="isolation:isolate"><path d="M111.16,711.51v-2.43h4v-9.47H115l-3.81,2.53v-2.75l4-2.67H118v12.36h3.78v2.43Z" style="fill:#fff"/><path d="M123.61,707.31h2.81a2.42,2.42,0,0,0,2.58,2,2.69,2.69,0,0,0,0-5.37,2.63,2.63,0,0,0-2.41,1.34h-2.81l.7-8.55h9v2.45h-6.73l-.32,4h.18a3.63,3.63,0,0,1,3.14-1.45,4.55,4.55,0,0,1,4.63,4.88c0,3.16-2.2,5.26-5.48,5.26C125.84,711.81,123.69,710,123.61,707.31Z" style="fill:#fff"/><path d="M136.44,704.11c0-4.93,2-7.71,5.56-7.71s5.57,2.78,5.57,7.71-2,7.71-5.57,7.71S136.44,709,136.44,704.11Zm2.85.38,5.09-3.36c-.42-1.52-1.22-2.32-2.38-2.32-1.75,0-2.71,1.87-2.71,5.3Zm5.43-.38v-.36l-5.09,3.37c.42,1.5,1.22,2.29,2.37,2.29C143.77,709.41,144.72,707.56,144.72,704.11Z" style="fill:#fff"/></g><rect x="153.3" y="644.01" width="9.68" height="1" style="fill:#fff"/><g style="isolation:isolate"><path d="M116,634.58c3,0,5.11,1.73,5.11,4.3,0,1.62-.85,3-3.35,5.4L114.85,647v.18h6.47v2.46H110.89v-2l4.82-4.76c2-2,2.54-2.8,2.54-3.8a2.11,2.11,0,0,0-2.36-2.12,2.29,2.29,0,0,0-2.46,2.38v.07h-2.7v-.06C110.73,636.51,112.87,634.58,116,634.58Z" style="fill:#fff"/><path d="M123.46,642.27c0-4.93,2-7.71,5.56-7.71s5.57,2.78,5.57,7.71-2,7.71-5.57,7.71S123.46,647.21,123.46,642.27Zm2.85.38,5.09-3.36C131,637.77,130.18,637,129,637c-1.75,0-2.71,1.87-2.71,5.3Zm5.43-.38v-.36l-5.09,3.37c.42,1.5,1.22,2.29,2.37,2.29C130.78,647.57,131.74,645.72,131.74,642.27Z" style="fill:#fff"/><path d="M136.44,642.27c0-4.93,2-7.71,5.56-7.71s5.57,2.78,5.57,7.71-2,7.71-5.57,7.71S136.44,647.21,136.44,642.27Zm2.85.38,5.09-3.36C144,637.77,143.16,637,142,637c-1.75,0-2.71,1.87-2.71,5.3Zm5.43-.38v-.36l-5.09,3.37c.42,1.5,1.22,2.29,2.37,2.29C143.77,647.57,144.72,645.72,144.72,642.27Z" style="fill:#fff"/></g><rect x="153.3" y="582.18" width="9.68" height="1" style="fill:#fff"/><g style="isolation:isolate"><path d="M116,572.74c3,0,5.11,1.74,5.11,4.3,0,1.62-.85,3-3.35,5.4l-2.89,2.76v.19h6.47v2.45H110.89v-2l4.82-4.77c2-2,2.54-2.8,2.54-3.8a2.11,2.11,0,0,0-2.36-2.12,2.3,2.3,0,0,0-2.46,2.38v.07h-2.7v-.06C110.73,574.67,112.87,572.74,116,572.74Z" style="fill:#fff"/><path d="M123.61,583.63h2.81a2.42,2.42,0,0,0,2.58,2,2.69,2.69,0,0,0,0-5.37,2.63,2.63,0,0,0-2.41,1.34h-2.81l.7-8.55h9v2.45h-6.73l-.32,4h.18a3.66,3.66,0,0,1,3.14-1.45,4.55,4.55,0,0,1,4.63,4.88c0,3.16-2.2,5.26-5.48,5.26C125.84,588.13,123.69,586.31,123.61,583.63Z" style="fill:#fff"/><path d="M136.44,580.43c0-4.93,2-7.71,5.56-7.71s5.57,2.78,5.57,7.71-2,7.71-5.57,7.71S136.44,585.37,136.44,580.43Zm2.85.38,5.09-3.36c-.42-1.52-1.22-2.32-2.38-2.32-1.75,0-2.71,1.87-2.71,5.3Zm5.43-.38v-.36l-5.09,3.37c.42,1.51,1.22,2.29,2.37,2.29C143.77,585.73,144.72,583.88,144.72,580.43Z" style="fill:#fff"/></g><rect x="153.3" y="520.34" width="9.68" height="1" style="fill:#fff"/><g style="isolation:isolate"><path d="M114.23,517.31H116c1.47,0,2.44-.81,2.44-2s-1-2-2.43-2a2.28,2.28,0,0,0-2.52,2.13h-2.6c.1-2.77,2.08-4.48,5.21-4.48s5,1.59,5,3.93a3.2,3.2,0,0,1-2.61,3.35v.19a3.34,3.34,0,0,1,3.19,3.51c0,2.62-2.27,4.41-5.58,4.41s-5.4-1.77-5.54-4.54h2.7c.1,1.26,1.17,2.06,2.76,2.06s2.77-.83,2.77-2.13-1.1-2.17-2.8-2.17h-1.77Z" style="fill:#fff"/><path d="M123.46,518.59c0-4.93,2-7.71,5.56-7.71s5.57,2.78,5.57,7.71-2,7.72-5.57,7.72S123.46,523.53,123.46,518.59Zm2.85.38,5.09-3.36c-.42-1.52-1.22-2.32-2.38-2.32-1.75,0-2.71,1.87-2.71,5.3Zm5.43-.38v-.35l-5.09,3.36c.42,1.51,1.22,2.3,2.37,2.3C130.78,523.9,131.74,522,131.74,518.59Z" style="fill:#fff"/><path d="M136.44,518.59c0-4.93,2-7.71,5.56-7.71s5.57,2.78,5.57,7.71-2,7.72-5.57,7.72S136.44,523.53,136.44,518.59Zm2.85.38,5.09-3.36c-.42-1.52-1.22-2.32-2.38-2.32-1.75,0-2.71,1.87-2.71,5.3Zm5.43-.38v-.35l-5.09,3.36c.42,1.51,1.22,2.3,2.37,2.3C143.77,523.9,144.72,522,144.72,518.59Z" style="fill:#fff"/></g><rect x="153.3" y="458.5" width="9.68" height="1" style="fill:#fff"/><g style="isolation:isolate"><path d="M114.23,455.48H116c1.47,0,2.44-.81,2.44-2.06s-1-2-2.43-2a2.29,2.29,0,0,0-2.52,2.14h-2.6c.1-2.78,2.08-4.48,5.21-4.48s5,1.59,5,3.92a3.21,3.21,0,0,1-2.61,3.36v.18a3.34,3.34,0,0,1,3.19,3.51c0,2.62-2.27,4.42-5.58,4.42s-5.4-1.78-5.54-4.54h2.7c.1,1.26,1.17,2.06,2.76,2.06s2.77-.83,2.77-2.14-1.1-2.17-2.8-2.17h-1.77Z" style="fill:#fff"/><path d="M123.61,460h2.81a2.42,2.42,0,0,0,2.58,2,2.69,2.69,0,0,0,0-5.38,2.62,2.62,0,0,0-2.41,1.35h-2.81l.7-8.56h9v2.45h-6.73l-.32,3.95h.18a3.65,3.65,0,0,1,3.14-1.44,4.55,4.55,0,0,1,4.63,4.88c0,3.16-2.2,5.26-5.48,5.26C125.84,464.46,123.69,462.63,123.61,460Z" style="fill:#fff"/><path d="M136.44,456.76c0-4.94,2-7.71,5.56-7.71s5.57,2.77,5.57,7.71-2,7.71-5.57,7.71S136.44,461.69,136.44,456.76Zm2.85.38,5.09-3.37c-.42-1.51-1.22-2.31-2.38-2.31-1.75,0-2.71,1.86-2.71,5.3Zm5.43-.38v-.36l-5.09,3.36c.42,1.51,1.22,2.3,2.37,2.3C143.77,462.06,144.72,460.2,144.72,456.76Z" style="fill:#fff"/></g><rect x="153.3" y="396.66" width="9.68" height="1" style="fill:#fff"/><g style="isolation:isolate"><path d="M117.21,399.52h-6.62v-2.34l4.51-9.65H118L113.69,397v.18h3.61V393.4h2.59v3.78h2v2.34h-2v2.8h-2.73Z" style="fill:#fff"/><path d="M123.46,394.92c0-4.93,2-7.71,5.56-7.71s5.57,2.78,5.57,7.71-2,7.71-5.57,7.71S123.46,399.85,123.46,394.92Zm2.85.38,5.09-3.37c-.42-1.51-1.22-2.31-2.38-2.31-1.75,0-2.71,1.86-2.71,5.3Zm5.43-.38v-.36l-5.09,3.36c.42,1.51,1.22,2.3,2.37,2.3C130.78,400.22,131.74,398.36,131.74,394.92Z" style="fill:#fff"/><path d="M136.44,394.92c0-4.93,2-7.71,5.56-7.71s5.57,2.78,5.57,7.71-2,7.71-5.57,7.71S136.44,399.85,136.44,394.92Zm2.85.38,5.09-3.37c-.42-1.51-1.22-2.31-2.38-2.31-1.75,0-2.71,1.86-2.71,5.3Zm5.43-.38v-.36l-5.09,3.36c.42,1.51,1.22,2.3,2.37,2.3C143.77,400.22,144.72,398.36,144.72,394.92Z" style="fill:#fff"/></g><rect x="153.3" y="334.82" width="9.68" height="1" style="fill:#fff"/><g style="isolation:isolate"><path d="M117.21,337.68h-6.62v-2.33l4.51-9.66H118l-4.35,9.42v.18h3.61v-3.73h2.59v3.79h2v2.33h-2v2.8h-2.73Z" style="fill:#fff"/><path d="M123.61,336.28h2.81a2.42,2.42,0,0,0,2.58,2,2.69,2.69,0,0,0,0-5.37,2.63,2.63,0,0,0-2.41,1.34h-2.81l.7-8.55h9v2.45h-6.73l-.32,3.95h.18a3.63,3.63,0,0,1,3.14-1.45,4.55,4.55,0,0,1,4.63,4.88c0,3.16-2.2,5.26-5.48,5.26C125.84,340.78,123.69,339,123.61,336.28Z" style="fill:#fff"/><path d="M136.44,333.08c0-4.93,2-7.71,5.56-7.71s5.57,2.78,5.57,7.71-2,7.71-5.57,7.71S136.44,338,136.44,333.08Zm2.85.38,5.09-3.36c-.42-1.52-1.22-2.32-2.38-2.32-1.75,0-2.71,1.87-2.71,5.3Zm5.43-.38v-.36l-5.09,3.36c.42,1.51,1.22,2.3,2.37,2.3C143.77,338.38,144.72,336.53,144.72,333.08Z" style="fill:#fff"/></g><rect x="153.3" y="272.98" width="9.68" height="1" style="fill:#fff"/><g style="isolation:isolate"><path d="M110.62,274.44h2.81a2.43,2.43,0,0,0,2.59,2,2.69,2.69,0,0,0,0-5.37,2.63,2.63,0,0,0-2.41,1.34H110.8l.7-8.55h9v2.45H113.8l-.31,3.95h.18a3.62,3.62,0,0,1,3.14-1.45,4.55,4.55,0,0,1,4.63,4.88c0,3.16-2.2,5.26-5.48,5.26C112.86,278.94,110.71,277.12,110.62,274.44Z" style="fill:#fff"/><path d="M123.46,271.24c0-4.93,2-7.71,5.56-7.71s5.57,2.78,5.57,7.71-2,7.71-5.57,7.71S123.46,276.17,123.46,271.24Zm2.85.38,5.09-3.36c-.42-1.52-1.22-2.32-2.38-2.32-1.75,0-2.71,1.87-2.71,5.3Zm5.43-.38v-.36l-5.09,3.37c.42,1.5,1.22,2.29,2.37,2.29C130.78,276.54,131.74,274.69,131.74,271.24Z" style="fill:#fff"/><path d="M136.44,271.24c0-4.93,2-7.71,5.56-7.71s5.57,2.78,5.57,7.71-2,7.71-5.57,7.71S136.44,276.17,136.44,271.24Zm2.85.38,5.09-3.36c-.42-1.52-1.22-2.32-2.38-2.32-1.75,0-2.71,1.87-2.71,5.3Zm5.43-.38v-.36l-5.09,3.37c.42,1.5,1.22,2.29,2.37,2.29C143.77,276.54,144.72,274.69,144.72,271.24Z" style="fill:#fff"/></g><rect x="153.3" y="211.14" width="9.68" height="1" style="fill:#fff"/><g style="isolation:isolate"><path d="M110.62,212.6h2.81a2.43,2.43,0,0,0,2.59,2,2.69,2.69,0,0,0,0-5.37,2.63,2.63,0,0,0-2.41,1.34H110.8l.7-8.55h9v2.45H113.8l-.31,3.95h.18a3.65,3.65,0,0,1,3.14-1.45,4.55,4.55,0,0,1,4.63,4.88c0,3.16-2.2,5.26-5.48,5.26C112.86,217.1,110.71,215.28,110.62,212.6Z" style="fill:#fff"/><path d="M123.61,212.6h2.81a2.42,2.42,0,0,0,2.58,2,2.69,2.69,0,0,0,0-5.37,2.63,2.63,0,0,0-2.41,1.34h-2.81l.7-8.55h9v2.45h-6.73l-.32,3.95h.18a3.66,3.66,0,0,1,3.14-1.45,4.55,4.55,0,0,1,4.63,4.88c0,3.16-2.2,5.26-5.48,5.26C125.84,217.1,123.69,215.28,123.61,212.6Z" style="fill:#fff"/><path d="M136.44,209.4c0-4.93,2-7.71,5.56-7.71s5.57,2.78,5.57,7.71-2,7.71-5.57,7.71S136.44,214.33,136.44,209.4Zm2.85.38,5.09-3.36c-.42-1.52-1.22-2.32-2.38-2.32-1.75,0-2.71,1.87-2.71,5.3Zm5.43-.38V209l-5.09,3.37c.42,1.5,1.22,2.29,2.37,2.29C143.77,214.7,144.72,212.85,144.72,209.4Z" style="fill:#fff"/></g><rect x="153.3" y="149.31" width="9.68" height="1" style="fill:#fff"/><g style="isolation:isolate"><path d="M116.19,155.27a5.28,5.28,0,0,1-5.65-5.45,9.37,9.37,0,0,1,2.11-5.54c.48-.72,2.72-3.62,3.11-4.11h3.29l-3.72,4.93a4.92,4.92,0,0,0-.66,1l.2,0a3.33,3.33,0,0,1,2.37-.91,4.53,4.53,0,0,1,4.53,4.76A5.3,5.3,0,0,1,116.19,155.27Zm2.69-5.15a2.74,2.74,0,1,0-2.74,2.67A2.64,2.64,0,0,0,118.88,150.12Z" style="fill:#fff"/><path d="M123.46,147.56c0-4.93,2-7.71,5.56-7.71s5.57,2.78,5.57,7.71-2,7.72-5.57,7.72S123.46,152.5,123.46,147.56Zm2.85.38,5.09-3.36c-.42-1.52-1.22-2.32-2.38-2.32-1.75,0-2.71,1.87-2.71,5.3Zm5.43-.38v-.35l-5.09,3.36c.42,1.51,1.22,2.3,2.37,2.3C130.78,152.87,131.74,151,131.74,147.56Z" style="fill:#fff"/><path d="M136.44,147.56c0-4.93,2-7.71,5.56-7.71s5.57,2.78,5.57,7.71-2,7.72-5.57,7.72S136.44,152.5,136.44,147.56Zm2.85.38,5.09-3.36c-.42-1.52-1.22-2.32-2.38-2.32-1.75,0-2.71,1.87-2.71,5.3Zm5.43-.38v-.35l-5.09,3.36c.42,1.51,1.22,2.3,2.37,2.3C143.77,152.87,144.72,151,144.72,147.56Z" style="fill:#fff"/></g><g style="isolation:isolate"><path d="M112.18,70.8V69.11h3.89V48h-3.89V46.31h22.36L135.65,55H134a19.14,19.14,0,0,0-.41-2.44,7.88,7.88,0,0,0-.74-1.89,4.17,4.17,0,0,0-1.26-1.48,5.87,5.87,0,0,0-2-.87,11.94,11.94,0,0,0-2.92-.31h-5.47v9.26h2c1.6,0,2.64-.32,3.11-1A5.74,5.74,0,0,0,127,53h1.69V63.17H127a5.72,5.72,0,0,0-.7-3.25c-.47-.65-1.51-1-3.11-1h-2V69.11h5.47a15.2,15.2,0,0,0,2.86-.24,5.91,5.91,0,0,0,2.11-.79,7.77,7.77,0,0,0,1.46-1.19,4.85,4.85,0,0,0,1-1.66,11,11,0,0,0,.58-2l.45-2.34h1.71l-1.67,9.87Z" style="fill:#fff"/><path d="M139.75,70.8V69.11h2.3V58c0-.67-.12-1.07-.35-1.2a5.26,5.26,0,0,0-1.95-.2V54.89l6.18-.3v3.9a6.56,6.56,0,0,1,6.23-3.9,6,6,0,0,1,4.1,1.21,5.07,5.07,0,0,1,1.36,4v9.34h2.48V70.8c-2-.07-3.52-.11-4.53-.11s-2.53,0-4.54.11V69.11h2.48V59.39a5.29,5.29,0,0,0-.51-2.73,1.67,1.67,0,0,0-1.48-.77,5.45,5.45,0,0,0-3.67,1.49,5.31,5.31,0,0,0-1.69,4.2v7.53h2.48V70.8c-1.9-.07-3.38-.11-4.44-.11S141.66,70.73,139.75,70.8Z" style="fill:#fff"/><path d="M162.28,62.8a8.26,8.26,0,0,1,2.29-5.89q2.28-2.43,6.82-2.43,6.36,0,6.36,3.33a2.08,2.08,0,0,1-.7,1.67,2.4,2.4,0,0,1-1.6.59,2.46,2.46,0,0,1-1.58-.59,2.07,2.07,0,0,1-.73-1.67,2.13,2.13,0,0,1,.75-1.67,11.07,11.07,0,0,0-2.36-.22,4.46,4.46,0,0,0-2.27.55,4.15,4.15,0,0,0-1.38,1.2,5.05,5.05,0,0,0-.69,1.76,12.61,12.61,0,0,0-.27,1.7c0,.4,0,.89,0,1.49q0,6.95,5,6.95a4.59,4.59,0,0,0,4.6-3,1.07,1.07,0,0,1,.27-.44,1.19,1.19,0,0,1,.59-.09c.58,0,.86.17.86.5a2,2,0,0,1-.14.56,4.67,4.67,0,0,1-.62,1.11,6.32,6.32,0,0,1-1.22,1.27,6.67,6.67,0,0,1-2.06,1,9.17,9.17,0,0,1-3,.45,9.06,9.06,0,0,1-6.51-2.29A7.79,7.79,0,0,1,162.28,62.8Z" style="fill:#fff"/><path d="M180.46,63a8.17,8.17,0,0,1,2.42-6.09,10.7,10.7,0,0,1,13.48,0A8.11,8.11,0,0,1,198.81,63a7.59,7.59,0,0,1-2.41,5.77,11.19,11.19,0,0,1-13.54,0A7.61,7.61,0,0,1,180.46,63Zm4.6-.41c0,.72,0,1.26,0,1.64s.06.89.14,1.55a4.51,4.51,0,0,0,.41,1.53,8.08,8.08,0,0,0,.78,1.15,2.58,2.58,0,0,0,1.29.88,7,7,0,0,0,3.85,0,2.65,2.65,0,0,0,1.3-.88,6.58,6.58,0,0,0,.77-1.15,4.73,4.73,0,0,0,.42-1.53c.08-.66.13-1.18.15-1.55s0-.92,0-1.64c0-2.47-.25-4.12-.75-4.94a4.19,4.19,0,0,0-3.82-1.83,4.07,4.07,0,0,0-4,2.1A12,12,0,0,0,185.06,62.55Z" style="fill:#fff"/><path d="M202.52,62.83a7.64,7.64,0,0,1,2.52-6,9.41,9.41,0,0,1,6.51-2.25,7.6,7.6,0,0,1,4.85,1.63v-7c0-.67-.12-1.07-.37-1.2a6.08,6.08,0,0,0-2.1-.2V46.1l6.38-.28V67.7c0,.67.12,1.07.37,1.21a6.36,6.36,0,0,0,2.1.2V70.8l-6.59.21V69.25a7.84,7.84,0,0,1-5,1.76,8.6,8.6,0,0,1-6.3-2.29A7.89,7.89,0,0,1,202.52,62.83Zm4.6,0c0,.6,0,1.07,0,1.42s.05.84.12,1.46a4.71,4.71,0,0,0,.4,1.52,7.52,7.52,0,0,0,.75,1.23,2.86,2.86,0,0,0,1.26.94,5.19,5.19,0,0,0,1.85.31,5.62,5.62,0,0,0,4.67-2.62v-9a5.12,5.12,0,0,0-4.29-2.2,4.39,4.39,0,0,0-3.85,1.88C207.43,58.7,207.12,60.38,207.12,62.83Z" style="fill:#fff"/><path d="M225.26,62.69a7.94,7.94,0,0,1,2.36-5.87,8.84,8.84,0,0,1,6.52-2.34,7.93,7.93,0,0,1,5.73,2,7.49,7.49,0,0,1,2,5.54q0,.69-.24.84a1.87,1.87,0,0,1-.92.15H229.87c0,4.4,1.69,6.61,5.06,6.61h0a6,6,0,0,0,3.08-.8A4.32,4.32,0,0,0,240,66.7a1.65,1.65,0,0,1,.35-.62,1,1,0,0,1,.63-.14c.62,0,.93.22.93.64a2,2,0,0,1-.2.7,6.11,6.11,0,0,1-.72,1.13,6.91,6.91,0,0,1-1.29,1.23,6.67,6.67,0,0,1-2.09,1,10,10,0,0,1-2.94.4,9.81,9.81,0,0,1-6.84-2.32A7.75,7.75,0,0,1,225.26,62.69Zm4.61-.93h8.59c-.11-4-1.55-6-4.32-6a3.86,3.86,0,0,0-3.41,1.87A9,9,0,0,0,229.87,61.76Z" style="fill:#fff"/><path d="M257.62,56.5V55.2A4.57,4.57,0,0,0,261.54,53,9.24,9.24,0,0,0,263,47.94h1.68v6.88h5.26V56.5h-5.26v9.94c0,2.08.7,3.13,2.09,3.13a1.88,1.88,0,0,0,1.5-.81,4,4,0,0,0,.65-2.5V64.43h1.69v1.9a4.89,4.89,0,0,1-1.17,3.35A4,4,0,0,1,266.27,71q-5.72,0-5.71-4.64V56.5Z" style="fill:#fff"/><path d="M274.62,70.8V69.11h2.5V58q0-1-.36-1.2a5.62,5.62,0,0,0-2-.2V54.89l6.27-.3V69.11h2.24V70.8L279,70.69C278.31,70.69,276.85,70.73,274.62,70.8Zm2-20.24a2.92,2.92,0,0,1,0-4,2.54,2.54,0,0,1,1.92-.83,2.73,2.73,0,0,1,2,.83,2.78,2.78,0,0,1,0,4,2.74,2.74,0,0,1-2,.83A2.54,2.54,0,0,1,276.64,50.56Z" style="fill:#fff"/><path d="M286.21,70.8V69.11h2.3V58c0-.67-.12-1.07-.35-1.2a5.26,5.26,0,0,0-2-.2V54.89l6.18-.3v3.9a6.59,6.59,0,0,1,6.26-3.9c3.06,0,4.83,1.15,5.33,3.46a6.48,6.48,0,0,1,6.07-3.46,6.08,6.08,0,0,1,4.19,1.23,5.08,5.08,0,0,1,1.36,4v9.34h2.48V70.8c-2-.07-3.53-.11-4.54-.11s-2.52,0-4.53.11V69.11h2.47V59.39a5.23,5.23,0,0,0-.5-2.74,1.67,1.67,0,0,0-1.51-.76,5.46,5.46,0,0,0-3.65,1.49,5.32,5.32,0,0,0-1.7,4.2v7.53h2.48V70.8c-2-.07-3.51-.11-4.52-.11s-2.53,0-4.55.11V69.11H300V59.39a5.21,5.21,0,0,0-.51-2.74,1.71,1.71,0,0,0-1.52-.76,5.46,5.46,0,0,0-3.65,1.49,5.29,5.29,0,0,0-1.71,4.2v7.53h2.48V70.8c-2-.07-3.53-.11-4.53-.11S288.11,70.73,286.21,70.8Z" style="fill:#fff"/><path d="M320,62.69a7.94,7.94,0,0,1,2.36-5.87,8.84,8.84,0,0,1,6.52-2.34,7.93,7.93,0,0,1,5.73,2,7.49,7.49,0,0,1,2,5.54c0,.46-.08.74-.23.84a2,2,0,0,1-.93.15H324.65c0,4.4,1.69,6.61,5.06,6.61h0a6,6,0,0,0,3.08-.8,4.32,4.32,0,0,0,1.93-2.07,1.65,1.65,0,0,1,.35-.62,1,1,0,0,1,.63-.14c.62,0,.93.22.93.64a1.8,1.8,0,0,1-.2.7,5.62,5.62,0,0,1-.72,1.13,6.91,6.91,0,0,1-1.29,1.23,6.57,6.57,0,0,1-2.09,1,10,10,0,0,1-2.94.4,9.81,9.81,0,0,1-6.84-2.32A7.75,7.75,0,0,1,320,62.69Zm4.61-.93h8.6c-.12-4-1.56-6-4.33-6a3.86,3.86,0,0,0-3.41,1.87A9,9,0,0,0,324.65,61.76Z" style="fill:#fff"/><path d="M355.52,61.76a21.62,21.62,0,0,1,6.45-16q2.05-1.95,2.76-2c.43,0,.65.17.65.51,0,.11-.18.36-.53.75q-5.44,5.84-5.45,16.74a31.18,31.18,0,0,0,1.29,9.31,18.36,18.36,0,0,0,4.59,7.79l0,.1a.56.56,0,0,1,.07.25c0,.34-.22.51-.65.51a3.12,3.12,0,0,1-1.39-.74,18,18,0,0,1-2.43-2.32,18.4,18.4,0,0,1-2.51-3.5A22.77,22.77,0,0,1,355.52,61.76Z" style="fill:#fff"/><path d="M369.51,70.8V69.11h2.3V58c0-.67-.12-1.07-.35-1.2a5.18,5.18,0,0,0-1.95-.2V54.89l6.19-.3v3.9a6.57,6.57,0,0,1,6.26-3.9q4.57,0,5.32,3.46a6.48,6.48,0,0,1,6.07-3.46,6.09,6.09,0,0,1,4.2,1.23,5.12,5.12,0,0,1,1.35,4v9.34h2.48V70.8c-2-.07-3.53-.11-4.54-.11s-2.52,0-4.53.11V69.11h2.48V59.39a5.33,5.33,0,0,0-.5-2.74,1.7,1.7,0,0,0-1.52-.76,5.48,5.48,0,0,0-3.65,1.49,5.32,5.32,0,0,0-1.7,4.2v7.53h2.48V70.8c-2-.07-3.51-.11-4.52-.11s-2.52,0-4.55.11V69.11h2.48V59.39a5.21,5.21,0,0,0-.51-2.74,1.7,1.7,0,0,0-1.51-.76,5.5,5.5,0,0,0-3.66,1.49,5.29,5.29,0,0,0-1.7,4.2v7.53h2.47V70.8c-2-.07-3.52-.11-4.53-.11S371.41,70.73,369.51,70.8Z" style="fill:#fff"/><path d="M403.56,70V66.08a2,2,0,0,1,.12-.87c.08-.12.33-.18.74-.18a1.6,1.6,0,0,1,.6.08.67.67,0,0,1,.26.43,8.88,8.88,0,0,0,.48,1.33,8,8,0,0,0,.84,1.31,3.5,3.5,0,0,0,1.55,1.13,6.25,6.25,0,0,0,2.32.4c2.73,0,4.1-.91,4.11-2.71a2.09,2.09,0,0,0-.41-1.29,2.63,2.63,0,0,0-1.16-.84,6.66,6.66,0,0,0-1.25-.4l-1.19-.26c-1.16-.21-2-.37-2.43-.47a9.14,9.14,0,0,1-1.58-.53,5.93,5.93,0,0,1-1.56-1,3.8,3.8,0,0,1-1.44-3,4.79,4.79,0,0,1,.39-2,3.28,3.28,0,0,1,1.1-1.37,8,8,0,0,1,1.39-.8,5.91,5.91,0,0,1,1.57-.41q.87-.12,1.29-.15c.27,0,.57,0,.89,0a7.94,7.94,0,0,1,3.63.71,8.11,8.11,0,0,1,1.62-.71c.29,0,.48.07.55.21a2,2,0,0,1,.1.81v2.87a1.62,1.62,0,0,1-.13.85c-.09.11-.34.17-.75.17s-.58,0-.67-.15a1.09,1.09,0,0,1-.15-.57q-.28-3-4.24-3t-4,2.43a2.14,2.14,0,0,0,.28,1.14c.19.31.1.41-.28.28l-.56-.18,4.23.88c.92.23,1.88.46,2.88.68A6.41,6.41,0,0,1,415.14,62a4.67,4.67,0,0,1,2,3.79,5.67,5.67,0,0,1-.4,2.22,3.5,3.5,0,0,1-1.1,1.5,8.58,8.58,0,0,1-1.38.88,5,5,0,0,1-1.59.46c-.59.09-1,.14-1.29.16a8,8,0,0,1-.9,0,7.33,7.33,0,0,1-4.26-1.16l-.93.62a2.29,2.29,0,0,1-1,.54h0c-.29,0-.48-.07-.55-.21A2.07,2.07,0,0,1,403.56,70Z" style="fill:#fff"/><path d="M420.78,79.25c0-.12.2-.37.58-.75q5.81-5.85,5.81-16.74T421.4,45.13c-.41-.38-.62-.66-.62-.82q0-.51.66-.51a3,3,0,0,1,1.38.73,19.42,19.42,0,0,1,2.43,2.32,19.05,19.05,0,0,1,2.51,3.5,22.71,22.71,0,0,1,2.89,11.45,21.66,21.66,0,0,1-6.44,16c-1.37,1.3-2.29,2-2.77,2S420.78,79.59,420.78,79.25Z" style="fill:#fff"/></g></svg>