<svg xmlns="http://www.w3.org/2000/svg" viewBox="0 0 17.5 21.5"><path d="M13,2H6A2,2,0,0,0,4,4V20a2,2,0,0,0,2,2H18a2,2,0,0,0,2-2V9Zm0,0V9h7Z" transform="translate(-3.25 -1.25)" style="fill:#fff"/><path d="M18,22.75H6A2.75,2.75,0,0,1,3.25,20V4A2.75,2.75,0,0,1,6,1.25h7a.71.71,0,0,1,.54.21h0l7,7h0a.71.71,0,0,1,.19.35h0a.53.53,0,0,1,0,.13V20A2.75,2.75,0,0,1,18,22.75ZM6,2.75A1.25,1.25,0,0,0,4.75,4V20A1.25,1.25,0,0,0,6,21.25H18A1.25,1.25,0,0,0,19.25,20V9.75H13A.76.76,0,0,1,12.25,9V2.75Zm7.75,5.5h4.44L13.75,3.81Z" transform="translate(-3.25 -1.25)"/><path d="M5.71,19.46a.36.36,0,1,1,.35.36A.36.36,0,0,1,5.71,19.46Z" transform="translate(-3.25 -1.25)"/><path d="M8.54,19.72c0,.47-.2.65-.72.65H7.36V20H7.8c.22,0,.31-.07.31-.26V18.38H7.38V18H8.54ZM8,17.39a.3.3,0,1,1,.3.27A.27.27,0,0,1,8,17.39Z" transform="translate(-3.25 -1.25)"/><path d="M11,18.76v.3c0,.48-.24.76-.65.76a.47.47,0,0,1-.49-.33h0v.89H9.35V18H9.8v.31h0a.47.47,0,0,1,.49-.33C10.74,18,11,18.28,11,18.76Zm-1.18,0v.29a.37.37,0,1,0,.73,0v-.29a.37.37,0,1,0-.73,0Z" transform="translate(-3.25 -1.25)"/><path d="M11.34,20h.42c0,.11.18.18.37.18s.39-.11.39-.33v-.35h0a.49.49,0,0,1-.52.33c-.4,0-.65-.28-.65-.76v-.27c0-.48.25-.75.67-.75a.48.48,0,0,1,.51.33h0V18H13v1.77c0,.41-.32.67-.84.67S11.36,20.26,11.34,20Zm.8-.55a.35.35,0,0,0,.37-.39v-.26a.35.35,0,0,0-.37-.39.36.36,0,0,0-.38.39V19A.36.36,0,0,0,12.14,19.4Z" transform="translate(-3.25 -1.25)"/></svg>