<svg xmlns="http://www.w3.org/2000/svg" viewBox="0 0 1080 1080"><path d="M874,652.75H207.05a30.51,30.51,0,0,1-30.5-30.5v-433a30.51,30.51,0,0,1,30.5-30.5H874a30.51,30.51,0,0,1,30.5,30.5v433A30.51,30.51,0,0,1,874,652.75Zm-636.4-61h605.9v-372H237.55Z"/><rect x="128" y="355.75" width="824" height="535" style="fill:#fff"/><path d="M952,921.25H128a30.51,30.51,0,0,1-30.5-30.5v-535a30.51,30.51,0,0,1,30.5-30.5H952a30.51,30.51,0,0,1,30.5,30.5v535A30.51,30.51,0,0,1,952,921.25Zm-793.5-61h763v-474h-763Z"/><path d="M952,386.25H128a30.49,30.49,0,0,1-27.52-43.64L180,176.11a30.49,30.49,0,0,1,27.52-17.36h666a30.5,30.5,0,0,1,27.59,17.49l78.5,166.5A30.5,30.5,0,0,1,952,386.25Zm-775.64-61H903.9l-49.74-105.5H226.74Z"/><path d="M771.34,641.73a24.1,24.1,0,0,1-24.11-24.11V599a24.11,24.11,0,1,1,48.21,0v18.6A24.1,24.1,0,0,1,771.34,641.73Z"/><path d="M771.76,555a24.1,24.1,0,0,1-24.11-24.11V512.31a24.11,24.11,0,0,1,48.22,0v18.61A24.11,24.11,0,0,1,771.76,555Z"/><path d="M772.18,468.33a24.12,24.12,0,0,1-24.11-24.11V425.61a24.11,24.11,0,0,1,48.22,0v18.61A24.11,24.11,0,0,1,772.18,468.33Z"/><circle cx="771.13" cy="684.45" r="21.15"/><circle cx="771.13" cy="745.78" r="30.88"/><polygon points="749.98 684.45 740.25 745.78 802 745.78 792.27 684.45 749.98 684.45"/><circle cx="770.91" cy="745.78" r="16.49" style="fill:#fff"/><path d="M209.23,791.17a14.94,14.94,0,1,1,14.94,15.27A15.2,15.2,0,0,1,209.23,791.17Z"/><path d="M279.09,794.09l39-47.66v-1.15H279.71v-15h60.62v12.49L303.53,789v1.15h37.61v15H279.09Z"/><path d="M364.43,805.15v-14.8h24V745.14H365.66V730.27h40.86v60.08h22.61v14.8Zm20-101.9c0-7.06,5.09-11.74,12.7-11.74s12.76,4.68,12.76,11.74S404.76,715,397.16,715,384.46,710.32,384.46,703.25Z"/><path d="M517.66,761.3v12.9c0,20.43-10.11,32.24-27.29,32.24-10.79,0-18.26-5-20.77-14h-1.36v37.61H448.89v-99.8H468v12.9h1.42c2.65-9,10.05-14,21-14C507.55,729.12,517.66,740.93,517.66,761.3Zm-49.9.54v12.42c0,10.32,5.84,16.57,15.48,16.57s15.48-6.32,15.48-16.57V761.84c0-10.25-5.91-16.56-15.48-16.56S467.76,751.52,467.76,761.84Z"/></svg>