<svg xmlns="http://www.w3.org/2000/svg" viewBox="0 0 17.5 21.5"><path d="M9.75.75h-7a2,2,0,0,0-2,2v16a2,2,0,0,0,2,2h12a2,2,0,0,0,2-2v-11Zm0,0v7h7Z" style="fill:#fff"/><path d="M14.75,21.5h-12A2.75,2.75,0,0,1,0,18.75v-16A2.75,2.75,0,0,1,2.75,0h7a.72.72,0,0,1,.54.21h0l7,7h0a.71.71,0,0,1,.19.35h0a.29.29,0,0,1,0,.13V18.75A2.75,2.75,0,0,1,14.75,21.5Zm-12-20A1.25,1.25,0,0,0,1.5,2.75v16A1.25,1.25,0,0,0,2.75,20h12A1.25,1.25,0,0,0,16,18.75V8.5H9.75A.77.77,0,0,1,9,7.75V1.5ZM10.5,7h4.44L10.5,2.56Z"/><path d="M2.75,18.08a.32.32,0,0,1,.32-.33.33.33,0,0,1,0,.66A.32.32,0,0,1,2.75,18.08Z"/><path d="M5.69,17.44v.28c0,.44-.22.69-.59.69a.43.43,0,0,1-.45-.3h0v.81H4.21V16.77h.41v.28h0a.43.43,0,0,1,.45-.31C5.47,16.74,5.69,17,5.69,17.44Zm-1.08,0v.27a.33.33,0,0,0,.34.36.32.32,0,0,0,.33-.36v-.27A.32.32,0,0,0,5,17.09.33.33,0,0,0,4.61,17.45Z"/><path d="M6.06,16.77h.39V17h0a.49.49,0,0,1,.49-.3c.35,0,.54.21.54.6v1H7.09v-.94c0-.24-.09-.35-.29-.35a.33.33,0,0,0-.34.36v.93h-.4Z"/><path d="M7.87,18.53h.39c0,.1.15.17.33.17s.36-.11.36-.31v-.32h0a.47.47,0,0,1-.48.31c-.37,0-.6-.26-.6-.7v-.24c0-.44.23-.7.62-.7a.47.47,0,0,1,.47.3H9v-.27h.4v1.61c0,.38-.29.61-.76.61S7.89,18.82,7.87,18.53ZM8.6,18a.33.33,0,0,0,.34-.36v-.23a.33.33,0,0,0-.34-.36.33.33,0,0,0-.35.36v.23A.33.33,0,0,0,8.6,18Z"/></svg>