<svg xmlns="http://www.w3.org/2000/svg" viewBox="0 0 675.35 379.13"><rect x="163.43" y="301.1" width="7.99" height="8.45" style="fill:#8c4dfb"/><rect x="172.39" y="309.07" width="7.99" height="0.48" style="fill:#ffff5c"/><rect x="181.35" y="304.35" width="7.99" height="5.2" style="fill:#00cc70"/><rect x="72.79" y="309.33" width="7.99" height="0.22" style="fill:#8c4dfb"/><rect x="90.7" y="309.37" width="7.99" height="0.17" style="fill:#00cc70"/><rect x="344.72" y="268.81" width="7.99" height="40.73" style="fill:#8c4dfb"/><rect x="353.68" y="307.94" width="7.99" height="1.6" style="fill:#ffff5c"/><rect x="362.64" y="286.1" width="7.99" height="23.44" style="fill:#00cc70"/><rect x="571.33" y="131.66" width="7.99" height="177.88" style="fill:#8c4dfb"/><rect x="580.29" y="303.44" width="7.99" height="6.11" style="fill:#ffff5c"/><rect x="589.25" y="227" width="7.99" height="82.55" style="fill:#00cc70"/><rect x="526.01" y="185.87" width="7.99" height="123.67" style="fill:#8c4dfb"/><rect x="534.96" y="304.82" width="7.99" height="4.72" style="fill:#ffff5c"/><rect x="543.92" y="246.11" width="7.99" height="63.44" style="fill:#00cc70"/><rect x="435.36" y="187.26" width="7.99" height="122.29" style="fill:#8c4dfb"/><rect x="444.32" y="304.95" width="7.99" height="4.59" style="fill:#ffff5c"/><rect x="453.28" y="244.55" width="7.99" height="65" style="fill:#00cc70"/><rect x="299.4" y="262.23" width="7.99" height="47.32" style="fill:#8c4dfb"/><rect x="308.35" y="307.68" width="7.99" height="1.86" style="fill:#ffff5c"/><rect x="317.31" y="286.71" width="7.99" height="22.84" style="fill:#00cc70"/><rect x="616.65" y="56.96" width="7.99" height="252.59" style="fill:#8c4dfb"/><rect x="625.61" y="294.73" width="7.99" height="14.82" style="fill:#ffff5c"/><rect x="634.57" y="126.16" width="7.99" height="183.39" style="fill:#00cc70"/><rect x="480.68" y="218.63" width="7.99" height="90.91" style="fill:#8c4dfb"/><rect x="489.64" y="305.3" width="7.99" height="4.25" style="fill:#ffff5c"/><rect x="498.6" y="252.69" width="7.99" height="56.85" style="fill:#00cc70"/><rect x="118.11" y="306.43" width="7.99" height="3.12" style="fill:#8c4dfb"/><rect x="127.07" y="309.37" width="7.99" height="0.17" style="fill:#ffff5c"/><rect x="136.03" y="306.64" width="7.99" height="2.9" style="fill:#00cc70"/><rect x="208.75" y="296.63" width="7.99" height="12.91" style="fill:#8c4dfb"/><rect x="217.71" y="309.11" width="7.99" height="0.43" style="fill:#ffff5c"/><rect x="226.67" y="302.92" width="7.99" height="6.63" style="fill:#00cc70"/><rect x="254.07" y="269.03" width="7.99" height="40.52" style="fill:#8c4dfb"/><rect x="263.03" y="308.42" width="7.99" height="1.13" style="fill:#ffff5c"/><rect x="271.99" y="292.69" width="7.99" height="16.86" style="fill:#00cc70"/><rect x="390.04" y="234.84" width="7.99" height="74.71" style="fill:#8c4dfb"/><rect x="399" y="306.9" width="7.99" height="2.64" style="fill:#ffff5c"/><rect x="407.96" y="269.55" width="7.99" height="40" style="fill:#00cc70"/><rect x="54.84" y="309.55" width="606.67" height="1" style="fill:#fff"/><rect x="85.24" y="309.55" width="1" height="6" style="fill:#fff"/><g style="isolation:isolate"><path d="M59.4,354.61a.53.53,0,0,1,.75-.75.53.53,0,0,1-.75.75ZM62.28,359l-.39-.4.89-.88-1.85-1.85-.87.86-.39-.39L61,355l2.24,2.24.85-.85.4.39Z" style="fill:#fff"/><path d="M65.26,352.4a.8.8,0,0,0-1.09.11c-.43.43-.36,1,.18,1.51l.22.22c.54.54,1.08.61,1.51.18a.8.8,0,0,0,.13-1.08l.48-.48a1.4,1.4,0,0,1-.19,2,1.52,1.52,0,0,1-2.36-.05l-.33-.33a1.52,1.52,0,0,1-.05-2.36,1.39,1.39,0,0,1,2-.17Z" style="fill:#fff"/><path d="M67.18,351.82l-.4-.4a1.65,1.65,0,1,1,2.33-2.33l.4.4a1.65,1.65,0,0,1-2.33,2.33Zm.12-.85.33.33A1,1,0,1,0,69,349.94l-.33-.34A1,1,0,1,0,67.3,351Z" style="fill:#fff"/><path d="M68.78,347.18l.47-.47.46.46,0,0a1.28,1.28,0,0,1,2.18-1.25l1.71,1.71-.49.49-1.59-1.59c-.45-.45-.84-.48-1.23-.09a.92.92,0,0,0,0,1.38l1.55,1.54-.49.49Z" style="fill:#fff"/><path d="M75.11,347.69l-.42-.42,2.51-2.51.42.42Z" style="fill:#fff"/><path d="M78.73,342.65a1.66,1.66,0,0,1-2.44,0,3,3,0,0,1-.8-1.76c0-.14-.29-1.73-.3-1.83l.57-.58.34,2.2a1.57,1.57,0,0,0,.07.33l0,0a1.14,1.14,0,0,1,.34-.81,1.51,1.51,0,0,1,2.19,0A1.67,1.67,0,0,1,78.73,342.65Zm-.45-1.92a1,1,0,1,0,0,1.48A1,1,0,0,0,78.28,340.73Z" style="fill:#fff"/><path d="M81.35,338.45,79.77,340l-.4-.41-1.22-3.51.51-.51L79.85,339l0,0L80.94,338l-1-1,.45-.45,1,1,.52-.51.42.42-.51.51.71.72-.46.46Z" style="fill:#fff"/></g><rect x="130.56" y="309.55" width="1" height="6" style="fill:#fff"/><g style="isolation:isolate"><path d="M102,357.8l.73.74,1-1,.4.4-1,1,1.42,1.42c.26.26.59.23.92-.11.13-.12.44-.45.49-.51l.4.39c0,.06-.42.46-.52.56-.67.67-1.21.72-1.77.16l-1.43-1.42-.69.69-.4-.4.69-.69-.73-.74Z" style="fill:#fff"/><path d="M108.89,356.27a1.41,1.41,0,0,1-.33,1.82,1.5,1.5,0,0,1-2.34,0l-.4-.4a1.53,1.53,0,0,1,0-2.29,1.51,1.51,0,0,1,2.31.1l.29.28-1.77,1.77.12.12a.93.93,0,0,0,1.41,0,.84.84,0,0,0,.27-1Zm-2.6.92,1.29-1.29a.91.91,0,0,0-1.39-.12A.92.92,0,0,0,106.29,357.19Z" style="fill:#fff"/><path d="M110.51,354.08l.35,1.61-.52.53-.44-2.2-2.2-.43.56-.57,1.58.36,0,0-.37-1.57.55-.54.41,2.18,2.23.44-.56.56-1.6-.36Z" style="fill:#fff"/><path d="M111.22,348.62l.73.74,1-1,.4.4-1,1,1.42,1.42c.26.27.59.23.92-.11.13-.12.44-.45.49-.51l.4.39c0,.06-.42.46-.52.56-.67.67-1.21.73-1.77.16l-1.43-1.42-.69.69-.4-.4.69-.69-.73-.74Z" style="fill:#fff"/><path d="M118.74,347.81l-.47.47-.46-.46,0,0a1.28,1.28,0,0,1-2.18,1.24l-1.71-1.71.49-.48L116,348.5c.45.45.84.48,1.23.09a.94.94,0,0,0,0-1.39l-1.55-1.54.48-.48Z" style="fill:#fff"/><path d="M120.23,345.57l.8-.8.37.38-1.79,1.79-.37-.37.52-.52-1.89-1.9-.57.58-.37-.37,1-1.05.67.68.07-.07a1.21,1.21,0,0,1,.17-1.66,1.55,1.55,0,0,1,.44-.32l.53.53a2.38,2.38,0,0,0-.51.36,1.25,1.25,0,0,0,.09,1.94Z" style="fill:#fff"/><path d="M124.19,341a1.41,1.41,0,0,1-.33,1.82,1.5,1.5,0,0,1-2.34,0l-.41-.4a1.53,1.53,0,0,1,0-2.29,1.51,1.51,0,0,1,2.31.1l.29.28-1.77,1.77.12.12a.93.93,0,0,0,1.41,0,.85.85,0,0,0,.27-1Zm-2.6.92,1.29-1.29a.91.91,0,0,0-1.39-.12A.92.92,0,0,0,121.59,341.89Z" style="fill:#fff"/><path d="M124.13,337a1.24,1.24,0,0,1,1.73-.26l-.46.47a.69.69,0,0,0-.89.19c-.31.31-.37.65-.15.87s.42.16.8-.08l.46-.29c.64-.41,1.09-.42,1.48,0s.41,1.23-.24,1.87-1.3.75-1.8.33l.48-.49a.77.77,0,0,0,.95-.24c.33-.33.39-.69.16-.92s-.41-.17-.8.07l-.48.31c-.59.37-1.07.37-1.46,0S123.53,337.65,124.13,337Z" style="fill:#fff"/><path d="M129.4,338.72l-.42-.42,2.51-2.51.42.42Z" style="fill:#fff"/><path d="M132.57,330.86l.48.49a1.39,1.39,0,0,1,.13,2.11,1,1,0,0,1-1.22.3l-.05.05,1.3,1.3-.5.5-3.52-3.52.49-.49.42.42,0,0a1.09,1.09,0,0,1,.32-1.23A1.4,1.4,0,0,1,132.57,330.86Zm-1.76,1.87.39.39a.94.94,0,1,0,1.32-1.32l-.39-.4a.94.94,0,1,0-1.32,1.33Z" style="fill:#fff"/><path d="M134,327.26l.57-.58.05,2.07,2.66.5-.58.57-2.11-.4v.65l.94.94-.49.48-3.66-3.66.48-.49,2.18,2.18,0,0Z" style="fill:#fff"/></g><rect x="175.89" y="309.55" width="1" height="6" style="fill:#fff"/><g style="isolation:isolate"><path d="M148.73,355.92a.53.53,0,0,1,.75-.75.53.53,0,0,1-.75.75Zm2.89,4.34-.39-.4.88-.88-1.85-1.85-.87.86-.39-.39,1.34-1.34,2.25,2.24.85-.85.39.39Z" style="fill:#fff"/><path d="M154.6,353.71a.8.8,0,0,0-1.09.11c-.43.43-.37,1,.17,1.51l.22.22c.55.54,1.08.61,1.51.18a.8.8,0,0,0,.13-1.08l.48-.48a1.39,1.39,0,0,1-.19,2,1.52,1.52,0,0,1-2.36-.05l-.33-.32a1.54,1.54,0,0,1,0-2.37,1.39,1.39,0,0,1,2-.17Z" style="fill:#fff"/><path d="M156.51,353.13l-.39-.4a1.64,1.64,0,1,1,2.32-2.33l.4.4a1.65,1.65,0,1,1-2.33,2.33Zm.12-.85.33.33a1,1,0,1,0,1.37-1.36l-.33-.34a1,1,0,0,0-1.48-.1A1,1,0,0,0,156.63,352.28Z" style="fill:#fff"/><path d="M158.11,348.49l.47-.47.46.46,0,0a1.21,1.21,0,0,1,.32-1.34,1.18,1.18,0,0,1,1.86.1l1.71,1.7-.49.49-1.58-1.59c-.46-.45-.85-.48-1.24-.09a.92.92,0,0,0,0,1.38l1.54,1.54-.48.49Z" style="fill:#fff"/><path d="M164.44,349l-.42-.41,2.51-2.51.42.42Z" style="fill:#fff"/><path d="M165.82,344.16l.49-.48a1,1,0,0,0,1.29-.14,1.07,1.07,0,0,0-1.5-1.51,1,1,0,0,0-.3,1l-.48.48-1.81-2.16,2-2,.44.44-1.58,1.57,1,1.17,0,0a1.28,1.28,0,0,1,.41-1.05,1.52,1.52,0,0,1,2.26.07,1.63,1.63,0,0,1,0,2.42A1.54,1.54,0,0,1,165.82,344.16Z" style="fill:#fff"/><path d="M169.91,342l-.43-.42,1-1L168,338l0,0-.34,1.6-.5-.5.34-1.67.5-.5L171,340l1-1,.43.42Z" style="fill:#fff"/><path d="M170.51,334.24a1.44,1.44,0,0,1,2.11-.13c.36.37.49.84.52,2l.05,1.6,0,0,1.58-1.58.43.44L173,338.91l-.34-.34-.1-2.43c0-.95-.11-1.24-.37-1.51a.83.83,0,0,0-1.23.05.86.86,0,0,0,0,1.29v0l-.47.47h0A1.51,1.51,0,0,1,170.51,334.24Z" style="fill:#fff"/></g><rect x="221.21" y="309.55" width="1" height="6" style="fill:#fff"/><g style="isolation:isolate"><path d="M190.06,360.42l.74.74,1-1,.4.4-1,1,1.43,1.42c.26.27.58.23.92-.11l.49-.51.39.39c0,.07-.41.46-.51.56-.68.67-1.21.73-1.78.16L190.72,362l-.7.69-.4-.4.7-.69-.74-.74Z" style="fill:#fff"/><path d="M196.91,358.89a1.42,1.42,0,0,1-.32,1.82,1.51,1.51,0,0,1-2.35,0l-.4-.4a1.53,1.53,0,0,1,0-2.29,1.51,1.51,0,0,1,2.31.1l.29.28-1.77,1.77.12.12a.94.94,0,0,0,1.42,0,.83.83,0,0,0,.26-1Zm-2.6.92,1.29-1.29c-.47-.47-1-.52-1.38-.12A.92.92,0,0,0,194.31,359.81Z" style="fill:#fff"/><path d="M198.53,356.7l.36,1.61-.53.53-.43-2.2-2.21-.43.56-.57,1.58.36,0,0-.36-1.57.54-.54.42,2.18,2.22.45-.55.55-1.6-.36Z" style="fill:#fff"/><path d="M199.24,351.24l.74.74,1-1,.4.4-1,1,1.42,1.42c.27.27.59.23.93-.11l.49-.51.39.39c0,.07-.41.46-.51.56-.68.67-1.22.73-1.78.16l-1.42-1.42-.7.69-.4-.4.7-.69-.74-.74Z" style="fill:#fff"/><path d="M206.76,350.43l-.47.47-.45-.45,0,0a1.27,1.27,0,0,1-2.18,1.24L201.91,350l.49-.48,1.59,1.59c.45.45.84.48,1.23.09a.92.92,0,0,0,0-1.38l-1.55-1.55.49-.48Z" style="fill:#fff"/><path d="M208.26,348.2l.8-.8.37.37-1.8,1.79-.37-.37.52-.52-1.89-1.89-.57.57L205,347l1-1,.67.67.07-.07a1.2,1.2,0,0,1,.18-1.66,1.53,1.53,0,0,1,.43-.32l.53.53a2.38,2.38,0,0,0-.51.36,1.25,1.25,0,0,0,.09,1.94Z" style="fill:#fff"/><path d="M212.21,343.59a1.42,1.42,0,0,1-.32,1.82,1.51,1.51,0,0,1-2.35,0l-.4-.4a1.53,1.53,0,0,1,0-2.29,1.51,1.51,0,0,1,2.31.1l.29.28L210,344.85l.12.12a.93.93,0,0,0,1.41,0,.81.81,0,0,0,.27-.95Zm-2.6.92,1.29-1.29c-.47-.47-1-.52-1.38-.12A.92.92,0,0,0,209.61,344.51Z" style="fill:#fff"/><path d="M212.15,339.67a1.23,1.23,0,0,1,1.73-.27l-.46.47a.7.7,0,0,0-.89.19c-.31.31-.36.65-.15.87s.42.16.8-.07l.47-.3c.63-.41,1.09-.42,1.47,0s.41,1.23-.23,1.87-1.3.75-1.81.33l.49-.49c.28.17.62.08.94-.24s.4-.69.17-.92-.41-.17-.81.07l-.48.31c-.59.37-1.07.37-1.45,0S211.55,340.27,212.15,339.67Z" style="fill:#fff"/><path d="M217.42,341.34l-.42-.42,2.51-2.51.42.42Z" style="fill:#fff"/><path d="M220.6,333.49l.48.48a1.4,1.4,0,0,1,.12,2.11,1,1,0,0,1-1.22.3l0,.05,1.3,1.3-.49.5-3.52-3.52.48-.49.42.42,0,0a1.08,1.08,0,0,1,.31-1.24A1.4,1.4,0,0,1,220.6,333.49Zm-1.77,1.86.39.39a.94.94,0,1,0,1.33-1.32l-.4-.39a.94.94,0,1,0-1.32,1.32Z" style="fill:#fff"/><path d="M222.05,329.88l.57-.58,0,2.07,2.66.5-.57.57-2.12-.4v.65l.94.94-.49.48-3.66-3.66.49-.49,2.17,2.18,0,0Z" style="fill:#fff"/><path d="M224.12,329.59c-1.18-1.17-1.39-2.25-.61-3s1.87-.56,3,.61,1.38,2.26.6,3S225.29,330.76,224.12,329.59Zm.8-.2.29-2.42c-.52-.3-1-.3-1.27,0-.47.48-.24,1.21.67,2.12Zm1.13-1.73-.31-.3-.28,2.42c.52.3.95.3,1.26,0C227.19,329.3,227,328.57,226.05,327.66Z" style="fill:#fff"/><path d="M229,328.19l-.43-.43,1-1-2.52-2.52,0,0-.34,1.6-.5-.51.34-1.67.5-.5,3.06,3.06.95-.95.43.43Z" style="fill:#fff"/></g><rect x="266.53" y="309.55" width="1" height="6" style="fill:#fff"/><g style="isolation:isolate"><path d="M235.38,360.42l.74.74,1-1,.4.4-1,1L238,363c.26.27.58.23.92-.11l.49-.51.4.39c0,.07-.42.46-.52.56-.68.67-1.21.73-1.78.16L236,362l-.7.69-.4-.4.7-.69-.74-.74Z" style="fill:#fff"/><path d="M242.23,358.89a1.4,1.4,0,0,1-.32,1.82,1.51,1.51,0,0,1-2.35,0l-.4-.4a1.53,1.53,0,0,1,0-2.29,1.51,1.51,0,0,1,2.31.1l.28.28L240,360.15l.11.12a.94.94,0,0,0,1.42,0,.83.83,0,0,0,.26-1Zm-2.6.92,1.29-1.29a.9.9,0,0,0-1.38-.12A.92.92,0,0,0,239.63,359.81Z" style="fill:#fff"/><path d="M243.85,356.71l.36,1.6-.53.53-.43-2.2-2.21-.43.57-.57,1.58.36,0,0-.36-1.58.54-.54.42,2.18,2.22.45-.55.55-1.6-.36Z" style="fill:#fff"/><path d="M244.56,351.25l.74.73,1-1,.4.4-1,1,1.43,1.43c.26.26.58.22.92-.12l.49-.51.4.39c-.05.07-.42.46-.52.56-.68.67-1.21.73-1.78.16l-1.42-1.42-.7.69-.4-.4.7-.69-.74-.74Z" style="fill:#fff"/><path d="M252.08,350.43l-.47.47-.45-.45,0,0a1.27,1.27,0,0,1-2.18,1.24l-1.7-1.71.48-.48,1.59,1.59c.45.45.84.48,1.23.09a.91.91,0,0,0,0-1.38L249,348.28l.48-.48Z" style="fill:#fff"/><path d="M253.58,348.2l.8-.8.37.37L253,349.56l-.38-.37.53-.52-1.89-1.89-.58.57-.37-.37,1-1,.67.67.07-.07a1.2,1.2,0,0,1,.18-1.66,1.75,1.75,0,0,1,.43-.32l.54.53a2,2,0,0,0-.51.36,1.25,1.25,0,0,0,.08,1.94Z" style="fill:#fff"/><path d="M257.53,343.59a1.4,1.4,0,0,1-.32,1.82,1.51,1.51,0,0,1-2.35,0l-.4-.4a1.59,1.59,0,1,1,2.3-2.19l.28.28-1.77,1.77.12.12a1,1,0,0,0,1.42,0,.83.83,0,0,0,.26-1Zm-2.6.92,1.29-1.29c-.47-.47-1-.52-1.38-.12A.92.92,0,0,0,254.93,344.51Z" style="fill:#fff"/><path d="M257.48,339.67a1.22,1.22,0,0,1,1.72-.27l-.46.47a.7.7,0,0,0-.89.19c-.31.31-.36.65-.14.87s.42.16.79-.07l.47-.3c.63-.41,1.09-.42,1.48,0s.4,1.23-.24,1.87-1.3.75-1.81.33l.49-.49c.28.17.62.08.94-.24s.4-.69.17-.92-.41-.17-.8.07l-.49.31c-.59.37-1.07.37-1.45,0S256.87,340.27,257.48,339.67Z" style="fill:#fff"/><path d="M262.74,341.34l-.42-.42,2.51-2.51.42.42Z" style="fill:#fff"/><path d="M265.92,333.49l.48.48a1.39,1.39,0,0,1,.12,2.11,1,1,0,0,1-1.22.3l-.05.05,1.31,1.3-.5.5-3.52-3.52.48-.49.42.42.05,0a1.07,1.07,0,0,1,.32-1.24A1.39,1.39,0,0,1,265.92,333.49Zm-1.77,1.86.4.39a.91.91,0,0,0,1.39.08.92.92,0,0,0-.07-1.4l-.39-.39a.94.94,0,1,0-1.33,1.32Z" style="fill:#fff"/><path d="M267.37,329.88l.58-.58.05,2.07,2.65.5-.57.57L268,332v.65l.93.94-.48.48-3.66-3.66.48-.49,2.17,2.18,0,0Z" style="fill:#fff"/><path d="M269.44,329.59c-1.17-1.17-1.39-2.25-.61-3s1.87-.56,3,.61,1.39,2.26.61,3S270.61,330.76,269.44,329.59Zm.8-.2.29-2.41c-.52-.31-.95-.31-1.27,0s-.24,1.2.68,2.11Zm1.13-1.73-.31-.3-.28,2.42a1,1,0,0,0,1.27,0C272.52,329.3,272.28,328.57,271.37,327.66Z" style="fill:#fff"/><path d="M271.88,323.52a1.43,1.43,0,0,1,2.1-.13c.37.37.49.84.52,2l.05,1.6,0,.05,1.58-1.58.44.44-2.28,2.28-.35-.34-.09-2.43c0-.95-.11-1.24-.38-1.5a.81.81,0,0,0-1.22,0,.86.86,0,0,0,0,1.29l0,0-.48.47h0A1.5,1.5,0,0,1,271.88,323.52Z" style="fill:#fff"/></g><rect x="311.85" y="309.55" width="1" height="6" style="fill:#fff"/><g style="isolation:isolate"><path d="M276.8,365.67a1.22,1.22,0,0,1,1.72-.27l-.46.47a.7.7,0,0,0-.89.19c-.31.31-.36.65-.15.87s.43.17.8-.07l.47-.3c.63-.4,1.09-.42,1.48,0s.4,1.23-.24,1.88-1.3.74-1.81.32l.49-.49a.76.76,0,0,0,.94-.23c.33-.34.4-.7.17-.93s-.41-.17-.8.08l-.49.3c-.59.37-1.07.37-1.45,0S276.19,366.27,276.8,365.67Z" style="fill:#fff"/><path d="M281.4,362.87a.8.8,0,0,0-1.09.12c-.43.43-.37,1,.17,1.5l.23.23c.54.54,1.07.6,1.5.17a.79.79,0,0,0,.13-1.08l.48-.47a1.38,1.38,0,0,1-.19,2,1.52,1.52,0,0,1-2.36-.06l-.32-.32a1.51,1.51,0,0,1-.05-2.36,1.39,1.39,0,0,1,2-.18Z" style="fill:#fff"/><path d="M285.14,362l.8-.8.37.37-1.8,1.79-.37-.37.52-.52-1.89-1.89-.57.57-.37-.37,1-1,.67.67.07-.07a1.18,1.18,0,0,1,.18-1.65,1.59,1.59,0,0,1,.43-.33l.53.54a2,2,0,0,0-.51.35,1.26,1.26,0,0,0,.09,2Z" style="fill:#fff"/><path d="M289.09,357.35a1.42,1.42,0,0,1-.32,1.82,1.51,1.51,0,0,1-2.35,0l-.4-.4a1.59,1.59,0,1,1,2.29-2.19l.29.29-1.77,1.76.12.12a.93.93,0,0,0,1.41,0,.82.82,0,0,0,.27-1Zm-2.6.92,1.29-1.29a.92.92,0,0,0-1.39-.12A.93.93,0,0,0,286.49,358.27Z" style="fill:#fff"/><path d="M292.15,354.29a1.42,1.42,0,0,1-.32,1.82,1.51,1.51,0,0,1-2.35,0l-.4-.4a1.59,1.59,0,1,1,2.29-2.19l.29.29-1.77,1.76.12.12a.93.93,0,0,0,1.41.05.82.82,0,0,0,.27-1Zm-2.6.92,1.29-1.29a.91.91,0,0,0-1.39-.11A.92.92,0,0,0,289.55,355.21Z" style="fill:#fff"/><path d="M291,351.54l.47-.47.46.46,0,0a1.27,1.27,0,0,1,2.17-1.24l1.71,1.71-.48.48-1.59-1.58c-.45-.46-.85-.49-1.24-.1a.92.92,0,0,0,0,1.38l1.54,1.55-.48.48Z" style="fill:#fff"/><path d="M295.15,347.31a1.22,1.22,0,0,1,1.73-.26l-.46.46a.7.7,0,0,0-.89.19c-.31.31-.36.66-.15.87s.42.17.8-.07l.47-.3c.63-.4,1.09-.41,1.47,0s.41,1.23-.23,1.88-1.3.74-1.81.32l.49-.49c.28.18.62.09.94-.23s.4-.7.17-.92-.41-.18-.81.07l-.48.3c-.59.38-1.07.37-1.45,0S294.55,347.91,295.15,347.31Z" style="fill:#fff"/><path d="M296.12,344.39l.47-.46,1.49,1.48,0,0a1.21,1.21,0,0,1,.33-1.34,1.18,1.18,0,0,1,1.86.09l1.71,1.7-.49.49-1.58-1.59c-.45-.45-.85-.48-1.24-.09a.92.92,0,0,0,0,1.39l1.54,1.54-.49.49Z" style="fill:#fff"/><path d="M301.67,343.93l-.39-.4a1.64,1.64,0,1,1,2.32-2.32l.4.4a1.64,1.64,0,1,1-2.33,2.32Zm.12-.84.33.33a1,1,0,1,0,1.37-1.37l-.33-.33a1,1,0,1,0-1.37,1.37Z" style="fill:#fff"/><path d="M303.66,337.47l.73.73,1.05-1,.39.4-1,1,1.42,1.42c.26.26.59.22.92-.11.13-.13.44-.45.49-.52l.4.4c0,.06-.41.45-.52.55-.67.68-1.21.73-1.77.17l-1.43-1.43-.69.7-.4-.4.7-.7-.74-.73Z" style="fill:#fff"/><path d="M309.6,339.8l-.42-.42,2.51-2.51.42.42Z" style="fill:#fff"/><path d="M312.22,336.16l.48-.48c.26.15.64,0,1-.3a.82.82,0,0,0,.06-1.29l-.44-.44,0,.05a1.11,1.11,0,0,1-.33,1.25,1.41,1.41,0,0,1-2.12-.13l-.45-.45a1.4,1.4,0,0,1-.11-2.13,1.1,1.1,0,0,1,1.24-.32l0,0-.42-.42.48-.48,2.63,2.63a1.42,1.42,0,0,1-.17,2.16C313.41,336.4,312.72,336.55,312.22,336.16Zm.44-1.8a.94.94,0,0,0-.07-1.41l-.37-.37a1,1,0,1,0-1.34,1.34l.37.36A.94.94,0,0,0,312.66,334.36Z" style="fill:#fff"/><path d="M314.31,332c-.46-.47-.4-1.09.18-1.74l.65-.72-.23-.24a.64.64,0,0,0-1,.06.72.72,0,0,0-.21.87l-.48.47a1.3,1.3,0,0,1,.3-1.75,1.21,1.21,0,0,1,1.87-.13l1.8,1.8-.46.46-.39-.38,0,0a1.13,1.13,0,0,1-.36,1.2A1.1,1.1,0,0,1,314.31,332Zm1.45-1.84-.28-.28-.59.66c-.33.37-.37.69-.11.95a.61.61,0,0,0,.91-.09A.85.85,0,0,0,315.76,330.19Z" style="fill:#fff"/><path d="M320.54,327.3l-.43.42-1.81-1.82c-.29-.28-.55-.32-.75-.12s-.16.51.13.8l1.79,1.79-.43.42L317.22,327c-.28-.28-.54-.32-.74-.12s-.17.52.12.81l1.79,1.79-.43.42-2.63-2.63.43-.43.38.38.05-.05a.71.71,0,0,1,.07-.93.66.66,0,0,1,.9,0l0-.06a.74.74,0,0,1,.1-1c.36-.35.79-.29,1.26.18Z" style="fill:#fff"/><path d="M322.75,323.7a1.41,1.41,0,0,1-.33,1.82,1.51,1.51,0,0,1-2.34,0l-.41-.41a1.59,1.59,0,1,1,2.3-2.19l.29.29L320.49,325l.12.12a.93.93,0,0,0,1.41.05.84.84,0,0,0,.27-1Zm-2.6.91,1.29-1.29a.92.92,0,1,0-1.29,1.29Z" style="fill:#fff"/></g><rect x="357.17" y="309.55" width="1" height="6" style="fill:#fff"/><g style="isolation:isolate"><path d="M329.67,360.37l.48.49a1.39,1.39,0,0,1,.13,2.11,1.05,1.05,0,0,1-1.23.3l0,.05,1.3,1.3-.5.5-3.52-3.52.49-.49.42.42,0,0a1.09,1.09,0,0,1,.32-1.23A1.4,1.4,0,0,1,329.67,360.37Zm-1.76,1.87.39.39a.94.94,0,1,0,1.32-1.32l-.39-.4a.94.94,0,1,0-1.32,1.33Z" style="fill:#fff"/><path d="M328.32,357.52l.47-.47,1.49,1.49,0,0a1.28,1.28,0,0,1,2.19-1.25l1.7,1.71-.48.48-1.59-1.58c-.44-.45-.84-.48-1.23-.09a.92.92,0,0,0,0,1.39l1.54,1.54-.49.48Z" style="fill:#fff"/><path d="M333.87,357.06l-.4-.4a1.65,1.65,0,1,1,2.33-2.33l.4.4a1.65,1.65,0,0,1-2.33,2.33Zm.11-.85.34.33a1,1,0,1,0,1.36-1.36l-.33-.34a1,1,0,1,0-1.37,1.37Z" style="fill:#fff"/><path d="M335.86,350.6l.73.73,1-1,.4.4-1,1,1.42,1.43c.26.26.59.22.92-.12l.49-.51.4.39c-.05.07-.42.46-.52.56-.67.67-1.21.73-1.78.16l-1.42-1.42-.7.69-.39-.39.69-.7-.73-.74Z" style="fill:#fff"/><path d="M340,350.94l-.4-.4a1.65,1.65,0,0,1,2.33-2.33l.4.4a1.65,1.65,0,0,1-2.33,2.33Zm.11-.85.34.33a1,1,0,1,0,1.36-1.36l-.33-.33a1,1,0,1,0-1.37,1.36Z" style="fill:#fff"/><path d="M344.86,349.87l-.42-.42,2.51-2.51.41.42Z" style="fill:#fff"/><path d="M346.42,341.47l.58-.58.05,2.07,2.65.5-.57.57-2.11-.41v.66l.94.94-.49.48L343.8,342l.48-.49,2.18,2.18,0,0Z" style="fill:#fff"/><path d="M349.17,341.76l-.4-.4A1.65,1.65,0,0,1,351.1,339l.4.4a1.65,1.65,0,1,1-2.33,2.33Zm.11-.85.33.33a1,1,0,0,0,1.48.11,1,1,0,0,0-.11-1.47l-.33-.33a1,1,0,1,0-1.37,1.36Z" style="fill:#fff"/><path d="M352.23,338.77l-.47-.48a1.39,1.39,0,0,1-.13-2.11,1.06,1.06,0,0,1,1.22-.31l0,0-1.45-1.45.5-.49,3.66,3.66-.48.48-.42-.41,0,0a1.1,1.1,0,0,1-.32,1.24A1.41,1.41,0,0,1,352.23,338.77Zm1.77-1.86-.39-.39a.94.94,0,1,0-1.32,1.32l.39.39a.94.94,0,1,0,1.32-1.32Z" style="fill:#fff"/><path d="M355.69,336c-.47-.47-.4-1.08.17-1.73l.66-.73-.23-.23a.65.65,0,0,0-1,.05.75.75,0,0,0-.22.88l-.47.47a1.31,1.31,0,0,1,.3-1.76,1.21,1.21,0,0,1,1.87-.12l1.8,1.8-.46.46-.39-.38,0,0a1.16,1.16,0,0,1-.36,1.21A1.09,1.09,0,0,1,355.69,336Zm1.45-1.84-.28-.28-.59.66c-.33.37-.37.7-.12,1a.62.62,0,0,0,.92-.1A.87.87,0,0,0,357.14,334.13Z" style="fill:#fff"/><path d="M358.66,329.23l.58-.58.05,2.07,2.65.5-.57.57-2.11-.4V332l.93.94-.48.48L356,329.8l.48-.48,2.18,2.17,0,0Z" style="fill:#fff"/></g><rect x="402.5" y="309.55" width="1" height="6" style="fill:#fff"/><g style="isolation:isolate"><path d="M370.89,360.88l.74.74,1-1.05.4.4-1,1,1.43,1.42c.26.26.58.22.92-.11.12-.13.44-.45.49-.52l.39.4c0,.06-.41.45-.51.55-.68.68-1.21.73-1.78.17l-1.42-1.43-.7.7-.4-.4.7-.7-.74-.73Z" style="fill:#fff"/><path d="M377.74,359.35a1.4,1.4,0,0,1-.32,1.82,1.52,1.52,0,0,1-2.35,0l-.4-.4a1.51,1.51,0,0,1,0-2.28,1.5,1.5,0,0,1,2.3.09l.29.29-1.77,1.77.12.11a.94.94,0,0,0,1.42,0,.83.83,0,0,0,.26-1Zm-2.6.91,1.29-1.29a.92.92,0,1,0-1.29,1.29Z" style="fill:#fff"/><path d="M379.36,357.16l.36,1.6-.53.53-.43-2.2-2.21-.43.57-.56,1.58.35,0,0-.36-1.57.54-.55.42,2.19,2.22.44-.55.56-1.6-.36Z" style="fill:#fff"/><path d="M380.07,351.7l.74.74,1-1.05.4.4-1,1,1.43,1.42c.26.26.58.22.92-.11.12-.12.44-.45.49-.52l.39.4c0,.06-.41.45-.51.55-.68.68-1.21.73-1.78.17l-1.42-1.43-.7.7-.4-.4.7-.7-.74-.73Z" style="fill:#fff"/><path d="M387.59,350.89l-.47.47-.45-.46,0,0a1.17,1.17,0,0,1-.32,1.33,1.18,1.18,0,0,1-1.86-.09l-1.71-1.71.49-.49,1.59,1.59c.45.45.84.48,1.23.1a.93.93,0,0,0,0-1.39l-1.55-1.54.49-.48Z" style="fill:#fff"/><path d="M389.09,348.65l.8-.8.37.37-1.8,1.8-.37-.37.52-.53-1.89-1.89-.57.58-.37-.38,1-1,.67.67.07-.06a1.2,1.2,0,0,1,.18-1.66,1.53,1.53,0,0,1,.43-.32l.53.53a1.84,1.84,0,0,0-.51.36,1.25,1.25,0,0,0,.09,1.94Z" style="fill:#fff"/><path d="M393,344.05a1.42,1.42,0,0,1-.32,1.82,1.51,1.51,0,0,1-2.35,0l-.4-.4a1.59,1.59,0,1,1,2.29-2.2l.29.29-1.77,1.77.12.12a.93.93,0,0,0,1.41,0,.82.82,0,0,0,.27-1Zm-2.6.92,1.29-1.29c-.47-.47-1-.52-1.38-.12A.92.92,0,0,0,390.44,345Z" style="fill:#fff"/><path d="M393,340.12a1.24,1.24,0,0,1,1.73-.26l-.46.46a.7.7,0,0,0-.89.19c-.31.31-.36.66-.15.88s.42.16.8-.08l.47-.3c.63-.4,1.09-.41,1.48,0s.4,1.23-.24,1.87-1.3.75-1.81.32l.49-.48c.28.17.62.08.94-.24s.4-.69.17-.92-.41-.18-.8.07l-.49.31c-.59.37-1.07.37-1.45,0S392.38,340.73,393,340.12Z" style="fill:#fff"/><path d="M398.25,341.79l-.42-.42,2.51-2.5.42.41Z" style="fill:#fff"/><path d="M401.43,333.94l.48.48a1.41,1.41,0,0,1,.12,2.12,1,1,0,0,1-1.22.3l-.05,0,1.3,1.31-.49.49-3.52-3.51.48-.49.42.42.05-.05a1.07,1.07,0,0,1,.31-1.23A1.41,1.41,0,0,1,401.43,333.94Zm-1.77,1.87.39.39a.95.95,0,1,0,1.33-1.33l-.4-.39a.94.94,0,1,0-1.32,1.33Z" style="fill:#fff"/><path d="M403.79,334.69l-.39-.39.88-.88-2.88-2.88-.86.87-.39-.4,1.34-1.34,3.27,3.27.85-.85.39.39Z" style="fill:#fff"/><path d="M406,331c-.47-.47-.41-1.09.17-1.74l.65-.72-.23-.23a.64.64,0,0,0-1,.05.72.72,0,0,0-.21.87l-.48.48a1.32,1.32,0,0,1,.3-1.76,1.21,1.21,0,0,1,1.87-.13l1.8,1.81-.46.46-.38-.39-.05,0a1.11,1.11,0,0,1-.36,1.2A1.08,1.08,0,0,1,406,331Zm1.44-1.84-.27-.28-.6.66c-.33.37-.37.7-.11.95s.6.22.91-.09A.85.85,0,0,0,407.47,329.12Z" style="fill:#fff"/><path d="M407.22,326l.47-.47.46.46,0,0a1.21,1.21,0,0,1,.32-1.34,1.19,1.19,0,0,1,1.86.09l1.71,1.71-.49.49L410,325.31c-.46-.45-.85-.48-1.24-.1a.93.93,0,0,0,0,1.39l1.54,1.54-.48.48Z" style="fill:#fff"/><path d="M410.67,321.1l.73.74,1.05-1,.39.4-1,1,1.42,1.42c.26.26.59.23.92-.11.13-.12.44-.45.49-.51l.4.39c0,.06-.42.46-.52.56-.67.67-1.21.72-1.77.16l-1.43-1.42-.69.69-.4-.4.69-.69-.73-.74Z" style="fill:#fff"/><path d="M414.4,318.7a1.24,1.24,0,0,1,1.73-.26l-.46.46a.7.7,0,0,0-.89.2c-.31.3-.37.65-.15.87s.42.16.8-.08l.46-.29c.64-.41,1.1-.42,1.48,0s.41,1.23-.23,1.87-1.3.75-1.81.33l.49-.49c.27.17.62.08.94-.24s.4-.69.17-.92-.41-.17-.81.07l-.48.31c-.59.37-1.07.37-1.46,0S413.8,319.31,414.4,318.7Z" style="fill:#fff"/></g><rect x="447.82" y="309.55" width="1" height="6" style="fill:#fff"/><g style="isolation:isolate"><path d="M425.69,355l.48.48a1.4,1.4,0,0,1,.13,2.11,1.06,1.06,0,0,1-1.23.31l0,0,1.3,1.3-.5.5-3.52-3.52.49-.48.42.42,0-.05a1.11,1.11,0,0,1,.32-1.24A1.4,1.4,0,0,1,425.69,355Zm-1.77,1.86.4.4a.93.93,0,0,0,1.4.08.94.94,0,0,0-.08-1.41l-.39-.39a.92.92,0,0,0-1.4-.07A.91.91,0,0,0,423.92,356.86Z" style="fill:#fff"/><path d="M425.37,353.17l.47-.47.46.46,0,0a1.17,1.17,0,0,1,.32-1.33,1.18,1.18,0,0,1,1.86.09l1.71,1.71-.49.48-1.59-1.58c-.45-.46-.84-.49-1.23-.1a.93.93,0,0,0,0,1.39l1.55,1.54-.49.48Z" style="fill:#fff"/><path d="M431.26,353.09l.48-.48c.25.15.64,0,1-.3a.81.81,0,0,0,.06-1.28l-.44-.45-.05.05a1.12,1.12,0,0,1-.32,1.25,1.41,1.41,0,0,1-2.12-.13l-.45-.45a1.4,1.4,0,0,1-.11-2.13,1.1,1.1,0,0,1,1.24-.32l.05,0-.42-.42.48-.48,2.63,2.63a1.42,1.42,0,0,1-.18,2.16C432.45,353.33,431.76,353.48,431.26,353.09Zm.43-1.81a.92.92,0,0,0-.07-1.4l-.36-.37a1,1,0,1,0-1.34,1.34l.36.37A.94.94,0,0,0,431.69,351.28Z" style="fill:#fff"/><path d="M431.29,345.3a.53.53,0,0,1,.75-.75.53.53,0,0,1-.75.75Zm2.88,4.33-.39-.39.89-.89-1.85-1.85-.87.87-.39-.39,1.34-1.34,2.24,2.24L436,347l.39.39Z" style="fill:#fff"/><path d="M439.58,344.23l-.43.42-1.82-1.82c-.28-.28-.55-.32-.74-.12s-.16.52.13.81l1.78,1.78-.42.42-1.82-1.82c-.28-.28-.54-.32-.74-.12s-.17.52.12.81l1.79,1.79-.43.42-2.63-2.63.42-.43.38.38.06-.05a.7.7,0,0,1,.07-.93.65.65,0,0,1,.89-.05l.06-.06a.74.74,0,0,1,.1-.95c.35-.35.79-.29,1.26.18Z" style="fill:#fff"/><path d="M440.44,343.91l.48-.48c.25.15.64,0,1-.3a.82.82,0,0,0,.06-1.28l-.44-.44-.05,0a1.11,1.11,0,0,1-.33,1.25,1.41,1.41,0,0,1-2.11-.12l-.45-.45a1.42,1.42,0,0,1-.11-2.14,1.1,1.1,0,0,1,1.24-.32l.05,0-.42-.42.48-.48,2.63,2.63a1.42,1.42,0,0,1-.18,2.16C441.63,344.15,440.93,344.3,440.44,343.91Zm.43-1.8a.93.93,0,0,0-.07-1.41l-.36-.37a1,1,0,1,0-1.34,1.34l.36.37A.94.94,0,0,0,440.87,342.11Z" style="fill:#fff"/></g><rect x="493.14" y="309.55" width="1" height="6" style="fill:#fff"/><g style="isolation:isolate"><path d="M461.47,361l.73.74,1-1.05.4.4-1,1L464,363.5c.26.26.59.22.92-.11.13-.13.44-.45.49-.52l.4.4c0,.06-.42.45-.52.55-.67.68-1.21.73-1.77.17l-1.43-1.43-.69.7-.4-.4.69-.7-.73-.73Z" style="fill:#fff"/><path d="M468.32,359.42a1.41,1.41,0,0,1-.33,1.82,1.5,1.5,0,0,1-2.34,0l-.4-.4a1.59,1.59,0,1,1,2.29-2.19l.29.29-1.77,1.76.12.12a.93.93,0,0,0,1.41,0,.82.82,0,0,0,.26-1Zm-2.6.91L467,359a.92.92,0,1,0-1.29,1.29Z" style="fill:#fff"/><path d="M469.94,357.23l.35,1.6-.53.53-.43-2.2-2.2-.43.56-.56,1.58.36,0,0-.37-1.57.54-.55.42,2.19,2.23.44-.56.55-1.6-.35Z" style="fill:#fff"/><path d="M470.65,351.77l.73.74,1-1.05.4.4-1,1,1.42,1.42c.26.26.59.22.92-.11.13-.13.44-.45.49-.52l.4.4c0,.06-.42.45-.52.56-.67.67-1.21.72-1.77.16l-1.43-1.43-.69.7-.4-.4.69-.7-.73-.73Z" style="fill:#fff"/><path d="M478.17,351l-.47.47-.46-.46,0,0a1.28,1.28,0,0,1-2.18,1.25l-1.71-1.71.49-.49,1.59,1.59c.45.45.84.48,1.23.1a.93.93,0,0,0,0-1.39l-1.54-1.54.48-.49Z" style="fill:#fff"/><path d="M479.66,348.72l.8-.8.37.37-1.79,1.8-.37-.38.52-.52-1.89-1.89-.57.57-.37-.37,1-1,.67.67.07-.06a1.19,1.19,0,0,1,.17-1.66,1.43,1.43,0,0,1,.44-.32l.53.53a1.7,1.7,0,0,0-.51.36,1.25,1.25,0,0,0,.09,1.94Z" style="fill:#fff"/><path d="M483.62,344.12a1.41,1.41,0,0,1-.33,1.82,1.52,1.52,0,0,1-2.35,0l-.4-.4a1.59,1.59,0,1,1,2.3-2.19l.28.29-1.76,1.77.12.11a.93.93,0,0,0,1.41.05.83.83,0,0,0,.26-1ZM481,345l1.29-1.29A.92.92,0,1,0,481,345Z" style="fill:#fff"/><path d="M483.56,340.19a1.24,1.24,0,0,1,1.73-.26l-.47.46a.69.69,0,0,0-.88.19c-.31.31-.37.66-.15.88s.42.16.79-.08l.47-.3c.64-.4,1.09-.41,1.48,0s.41,1.23-.24,1.87-1.3.74-1.8.32l.48-.48a.77.77,0,0,0,.95-.24c.33-.33.39-.69.16-.92s-.41-.18-.8.07l-.48.31c-.59.37-1.07.37-1.46,0S483,340.8,483.56,340.19Z" style="fill:#fff"/><path d="M488.83,341.86l-.42-.42,2.51-2.5.41.41Z" style="fill:#fff"/><path d="M492,334l.48.48a1.4,1.4,0,0,1,.13,2.12,1.06,1.06,0,0,1-1.23.3l0,0,1.3,1.31-.5.49-3.52-3.51.49-.49.42.42,0-.05a1.09,1.09,0,0,1,.32-1.23A1.39,1.39,0,0,1,492,334Zm-1.76,1.86.39.4a.94.94,0,1,0,1.32-1.33l-.39-.39a.92.92,0,0,0-1.4-.07A.91.91,0,0,0,490.24,335.87Z" style="fill:#fff"/><path d="M490.65,331.16l.47-.47,1.48,1.49,0,0a1.28,1.28,0,0,1,2.19-1.25l1.7,1.71-.48.48-1.59-1.59c-.44-.44-.85-.47-1.23-.08a.92.92,0,0,0,0,1.38l1.54,1.54-.48.49Z" style="fill:#fff"/><path d="M496.2,330.69l-.4-.4a1.64,1.64,0,1,1,2.33-2.32l.4.4a1.64,1.64,0,1,1-2.33,2.32Zm.11-.84.34.33a1,1,0,0,0,1.47.11,1,1,0,0,0-.11-1.48l-.33-.33a1,1,0,0,0-1.47-.1A1,1,0,0,0,496.31,329.85Z" style="fill:#fff"/><path d="M498.18,324.23l.74.74,1-1,.4.4-1,1,1.42,1.42c.26.26.58.23.92-.11.12-.12.44-.45.49-.52l.4.4-.52.56c-.67.67-1.21.72-1.78.16l-1.42-1.42-.7.69-.4-.4.7-.69-.73-.74Z" style="fill:#fff"/><path d="M502.32,324.57l-.4-.39a1.65,1.65,0,0,1,2.33-2.33l.4.4a1.64,1.64,0,1,1-2.33,2.32Zm.11-.84.33.33a1,1,0,1,0,1.37-1.37l-.33-.33a1,1,0,1,0-1.37,1.37Z" style="fill:#fff"/></g><rect x="538.46" y="309.55" width="1" height="6" style="fill:#fff"/><g style="isolation:isolate"><path d="M508.48,362.86l.48.48a1.4,1.4,0,0,1,.12,2.11,1.06,1.06,0,0,1-1.22.31l-.05,0,1.3,1.3-.49.5-3.52-3.52.48-.48.42.42.05,0a1.09,1.09,0,0,1,.31-1.24A1.41,1.41,0,0,1,508.48,362.86Zm-1.77,1.86.39.4a.95.95,0,1,0,1.33-1.33l-.4-.39a.94.94,0,1,0-1.32,1.32Z" style="fill:#fff"/><path d="M507.12,360l.47-.47,1.49,1.49,0,0a1.21,1.21,0,0,1,.33-1.34,1.19,1.19,0,0,1,1.86.09l1.71,1.7-.49.49-1.58-1.59c-.45-.45-.85-.47-1.24-.09a.92.92,0,0,0,0,1.39l1.54,1.54-.49.49Z" style="fill:#fff"/><path d="M512.67,359.54l-.39-.4a1.64,1.64,0,1,1,2.32-2.32l.4.4a1.64,1.64,0,1,1-2.33,2.32Zm.12-.84.33.33a1,1,0,1,0,1.37-1.37l-.33-.33a1,1,0,1,0-1.37,1.37Z" style="fill:#fff"/><path d="M514.66,353.08l.73.74,1.05-1,.39.39-1,1,1.42,1.42c.26.26.59.22.92-.11.13-.13.44-.45.49-.52l.4.4c0,.06-.41.45-.52.55-.67.68-1.21.73-1.77.17l-1.43-1.43-.69.7-.4-.4.7-.7-.74-.73Z" style="fill:#fff"/><path d="M518.79,353.42l-.39-.4a1.64,1.64,0,1,1,2.32-2.32l.4.4a1.64,1.64,0,1,1-2.33,2.32Zm.12-.84.33.33a1,1,0,1,0,1.37-1.37l-.33-.33a1,1,0,1,0-1.37,1.37Z" style="fill:#fff"/><path d="M523.66,352.35l-.42-.42,2.51-2.51.42.42Z" style="fill:#fff"/><path d="M528.07,346.38l-.44.44-2.4-1.55,0,0,1.55,2.4-.45.45-3.19-2.08.47-.47,2.36,1.73,0-.06-1.65-2.42.43-.43,2.42,1.66.06-.06-1.73-2.35.46-.47Z" style="fill:#fff"/><path d="M526.31,340.92a.53.53,0,0,1,.75-.75.53.53,0,0,1-.75.75Zm2.89,4.33-.4-.39.89-.89-1.85-1.85L527,343l-.39-.39,1.34-1.34,2.25,2.24.85-.85.39.39Z" style="fill:#fff"/><path d="M531.35,337.83l.57-.57.05,2.06,2.66.5-.57.57-2.12-.4v.66l.94.93-.49.49-3.66-3.67.49-.48,2.17,2.18,0,0Z" style="fill:#fff"/><path d="M532.43,334.8a.53.53,0,0,1,.75-.75.53.53,0,0,1-.75.75Zm2.89,4.33-.4-.39.89-.88L534,336l-.87.87-.39-.39,1.34-1.34,2.25,2.24.85-.85.39.39Z" style="fill:#fff"/><path d="M539.07,332.26l.49.48a1.41,1.41,0,0,1,.12,2.12,1,1,0,0,1-1.22.3l-.05,0,1.3,1.31-.5.49-3.51-3.51.48-.49.42.42,0-.05a1.07,1.07,0,0,1,.31-1.23A1.4,1.4,0,0,1,539.07,332.26Zm-1.76,1.87.39.39A.94.94,0,1,0,539,333.2l-.4-.4a.94.94,0,1,0-1.32,1.33Z" style="fill:#fff"/><path d="M542.93,330.13a1.41,1.41,0,0,1-.33,1.82,1.5,1.5,0,0,1-2.34,0l-.41-.4a1.53,1.53,0,0,1,0-2.29,1.51,1.51,0,0,1,2.31.1l.29.28-1.77,1.77.12.12a.93.93,0,0,0,1.41,0,.85.85,0,0,0,.27-1Zm-2.6.92,1.29-1.29a.91.91,0,0,0-1.39-.12A.92.92,0,0,0,540.33,331.05Z" style="fill:#fff"/><path d="M543.28,329l-.48-.48a1.4,1.4,0,0,1-.13-2.12,1.05,1.05,0,0,1,1.23-.3l0,0-1.44-1.45.49-.5,3.67,3.66-.49.49-.42-.42,0,.05a1.09,1.09,0,0,1-.32,1.23A1.39,1.39,0,0,1,543.28,329Zm1.77-1.86-.4-.4a.94.94,0,1,0-1.32,1.33l.39.39a.92.92,0,0,0,1.4.07A.91.91,0,0,0,545.05,327.16Z" style="fill:#fff"/><path d="M544.67,322.56a.53.53,0,1,1,.73,0A.49.49,0,0,1,544.67,322.56Zm2.89,4.33-.4-.39.89-.88-1.85-1.85-.87.86-.39-.39,1.34-1.34,2.24,2.24.85-.85.4.39Z" style="fill:#fff"/><path d="M549.79,323.16c-.47-.47-.4-1.09.18-1.73l.65-.73-.23-.23a.64.64,0,0,0-1,0,.73.73,0,0,0-.22.87l-.47.48a1.31,1.31,0,0,1,.3-1.76,1.22,1.22,0,0,1,1.87-.13l1.8,1.8-.46.47-.39-.39,0,.05a1.15,1.15,0,0,1-.36,1.2A1.09,1.09,0,0,1,549.79,323.16Zm1.45-1.84L551,321l-.59.66c-.33.37-.37.7-.12.95s.61.22.92-.09A.85.85,0,0,0,551.24,321.32Z" style="fill:#fff"/></g><rect x="583.78" y="309.55" width="1" height="6" style="fill:#fff"/><g style="isolation:isolate"><path d="M556,360.63l.48.48a1.41,1.41,0,0,1,.12,2.12,1,1,0,0,1-1.22.3l0,0,1.3,1.31-.49.49-3.52-3.51.48-.49.42.42.05-.05a1.07,1.07,0,0,1,.31-1.23A1.41,1.41,0,0,1,556,360.63Zm-1.77,1.86.39.4a.94.94,0,1,0,1.33-1.32l-.4-.4a.94.94,0,1,0-1.32,1.32Z" style="fill:#fff"/><path d="M554.67,357.78l.47-.47,1.49,1.49,0,0a1.21,1.21,0,0,1,.33-1.34,1.19,1.19,0,0,1,1.86.09l1.71,1.71-.49.48-1.58-1.59c-.45-.44-.85-.47-1.24-.08a.91.91,0,0,0,0,1.38l1.54,1.54-.49.49Z" style="fill:#fff"/><path d="M560.22,357.31l-.4-.4a1.64,1.64,0,1,1,2.33-2.32l.4.4a1.64,1.64,0,1,1-2.33,2.32Zm.12-.84.33.33a1,1,0,0,0,1.47.11,1,1,0,0,0-.1-1.48l-.33-.33a1,1,0,1,0-1.37,1.37Z" style="fill:#fff"/><path d="M562.21,350.85l.73.74,1-1,.4.4-1,1,1.42,1.42c.26.26.59.22.92-.11a7,7,0,0,0,.49-.52l.4.4c0,.06-.42.46-.52.56-.67.67-1.21.72-1.77.16l-1.43-1.43-.69.7-.4-.4.69-.69-.73-.74Z" style="fill:#fff"/><path d="M566.34,351.19l-.4-.4a1.64,1.64,0,1,1,2.33-2.32l.4.4a1.64,1.64,0,1,1-2.33,2.32Zm.12-.84.33.33a1,1,0,0,0,1.47.11,1,1,0,0,0-.1-1.48l-.33-.33a1,1,0,1,0-1.37,1.37Z" style="fill:#fff"/><path d="M571.21,350.12l-.42-.42,2.51-2.5.42.41Z" style="fill:#fff"/><path d="M571.39,341.67l.73.74,1-1,.4.4-1,1,1.42,1.42c.26.27.59.23.92-.11.13-.12.44-.45.49-.51l.4.39c0,.06-.42.46-.52.56-.67.67-1.21.73-1.77.16L572,343.29l-.69.69-.4-.4.69-.69-.73-.74Z" style="fill:#fff"/><path d="M578.24,340.14a1.41,1.41,0,0,1-.33,1.82,1.5,1.5,0,0,1-2.34,0l-.41-.4a1.53,1.53,0,0,1,0-2.29,1.51,1.51,0,0,1,2.31.1l.29.28L576,341.4l.12.12a.93.93,0,0,0,1.41,0,.83.83,0,0,0,.26-1Zm-2.6.92,1.29-1.29a.91.91,0,0,0-1.39-.12A.92.92,0,0,0,575.64,341.06Z" style="fill:#fff"/><path d="M579.72,336.47a.81.81,0,0,0-1.09.12c-.42.43-.36,1,.18,1.51l.22.22c.54.54,1.08.61,1.51.18a.8.8,0,0,0,.13-1.08l.48-.48a1.4,1.4,0,0,1-.19,2,1.52,1.52,0,0,1-2.36-.05l-.33-.33a1.52,1.52,0,0,1,0-2.36,1.39,1.39,0,0,1,2-.17Z" style="fill:#fff"/><path d="M580.18,334.32l.47-.47.46.46,0,0a1.28,1.28,0,0,1,2.18-1.25l1.71,1.71-.49.49L583,333.64c-.46-.45-.85-.48-1.24-.09a.93.93,0,0,0,0,1.38l1.55,1.54-.49.49Z" style="fill:#fff"/><path d="M583,329.51a.53.53,0,0,1,.75-.75.53.53,0,0,1-.75.75Zm2.88,4.34-.39-.4.89-.88-1.85-1.85-.87.86-.39-.39,1.34-1.34,2.24,2.24.85-.85.4.39Z" style="fill:#fff"/><path d="M588.9,327.3a.8.8,0,0,0-1.09.11c-.43.43-.36,1,.18,1.51l.22.22c.54.54,1.08.61,1.51.18a.8.8,0,0,0,.13-1.08l.48-.48a1.4,1.4,0,0,1-.19,2,1.52,1.52,0,0,1-2.36-.05l-.33-.32a1.53,1.53,0,0,1-.05-2.37,1.39,1.39,0,0,1,2-.17Z" style="fill:#fff"/><path d="M591.14,323.37l.57-.58,0,2.07,2.66.5-.57.57-2.12-.4v.65l.94.93-.49.49-3.66-3.66.48-.49,2.18,2.18,0,0Z" style="fill:#fff"/></g><rect x="629.1" y="309.55" width="1" height="6" style="fill:#fff"/><g style="isolation:isolate"><path d="M595.75,364a1.23,1.23,0,0,1,1.73-.27l-.46.47a.69.69,0,0,0-.89.19c-.31.31-.37.65-.15.87s.42.16.8-.08l.46-.29c.64-.41,1.1-.42,1.48,0s.41,1.23-.23,1.87-1.3.75-1.81.33l.49-.49c.27.17.62.08.94-.24s.39-.69.16-.92-.41-.17-.8.07l-.48.31c-.59.37-1.07.37-1.46,0S595.15,364.57,595.75,364Z" style="fill:#fff"/><path d="M600.35,361.17a.79.79,0,0,0-1.09.12c-.42.42-.36,1,.18,1.5l.22.22c.54.55,1.08.61,1.51.18a.8.8,0,0,0,.13-1.08l.48-.48a1.39,1.39,0,0,1-.19,2,1.51,1.51,0,0,1-2.36-.05l-.33-.32a1.54,1.54,0,0,1,0-2.37,1.39,1.39,0,0,1,2-.17Z" style="fill:#fff"/><path d="M604.09,360.26l.8-.8.37.37-1.79,1.79-.37-.37.52-.52-1.89-1.89-.57.57-.37-.37,1-1,.67.67.07-.07a1.19,1.19,0,0,1,.17-1.65,1.43,1.43,0,0,1,.44-.33l.53.53a2.38,2.38,0,0,0-.51.36,1.25,1.25,0,0,0,.09,1.94Z" style="fill:#fff"/><path d="M608.05,355.65a1.41,1.41,0,0,1-.33,1.82,1.5,1.5,0,0,1-2.34,0l-.4-.4a1.53,1.53,0,0,1,0-2.29,1.51,1.51,0,0,1,2.31.1l.29.29-1.77,1.76.12.12a.94.94,0,0,0,1.41.05.83.83,0,0,0,.26-1Zm-2.6.92,1.29-1.29a.92.92,0,1,0-1.29,1.29Z" style="fill:#fff"/><path d="M611.11,352.59a1.41,1.41,0,0,1-.33,1.82,1.5,1.5,0,0,1-2.34,0L608,354a1.53,1.53,0,0,1,0-2.29,1.51,1.51,0,0,1,2.31.1l.29.29-1.77,1.76.12.12a.94.94,0,0,0,1.41,0,.85.85,0,0,0,.27-1Zm-2.6.92,1.29-1.29a.92.92,0,1,0-1.29,1.29Z" style="fill:#fff"/><path d="M610,349.83l.47-.46.46.45,0,0a1.2,1.2,0,0,1,.32-1.34,1.18,1.18,0,0,1,1.86.1l1.71,1.71-.49.48-1.59-1.59c-.45-.45-.84-.48-1.23-.09a.93.93,0,0,0,0,1.38l1.55,1.55-.49.48Z" style="fill:#fff"/><path d="M614.11,345.61a1.23,1.23,0,0,1,1.73-.27l-.47.47a.69.69,0,0,0-.88.19c-.31.31-.37.65-.15.87s.42.17.8-.07l.46-.3c.64-.4,1.09-.42,1.48,0s.41,1.23-.24,1.88-1.3.74-1.8.32l.48-.49a.78.78,0,0,0,1-.23c.33-.34.39-.7.16-.93s-.41-.17-.8.08l-.48.3a1.08,1.08,0,0,1-1.46,0C613.42,346.92,613.51,346.21,614.11,345.61Z" style="fill:#fff"/><path d="M615.08,342.69l.47-.47,1.49,1.49,0,0a1.2,1.2,0,0,1,.33-1.35,1.19,1.19,0,0,1,1.86.1l1.7,1.7-.48.48L618.89,343q-.66-.67-1.23-.09a.93.93,0,0,0,0,1.39l1.54,1.54-.48.48Z" style="fill:#fff"/><path d="M620.63,342.23l-.4-.4a1.64,1.64,0,1,1,2.33-2.32l.4.39a1.65,1.65,0,1,1-2.33,2.33Zm.11-.85.34.34a1,1,0,1,0,1.36-1.37l-.33-.33a1,1,0,1,0-1.37,1.36Z" style="fill:#fff"/><path d="M622.62,335.77l.73.73,1-1,.4.4-1,1,1.42,1.42c.26.26.58.22.92-.12.12-.12.44-.44.49-.51l.4.4-.52.55c-.67.68-1.21.73-1.78.16l-1.42-1.42-.7.7-.39-.4.69-.7-.73-.73Z" style="fill:#fff"/><path d="M628.56,338.1l-.42-.42,2.51-2.51.41.42Z" style="fill:#fff"/><path d="M633,332.12l-.45.45L630.13,331l0,0,1.56,2.4-.45.44L628,331.81l.47-.47,2.35,1.73.06-.06-1.66-2.42.44-.43,2.42,1.65,0-.05-1.73-2.36.47-.47Z" style="fill:#fff"/><path d="M635.59,328.11a1.41,1.41,0,0,1-.33,1.82,1.51,1.51,0,0,1-2.35,0l-.4-.4a1.59,1.59,0,1,1,2.3-2.19l.28.29-1.76,1.76.12.12a.93.93,0,0,0,1.41.05.83.83,0,0,0,.26-1ZM633,329l1.29-1.29A.92.92,0,1,0,633,329Z" style="fill:#fff"/><path d="M637.22,327l0,0,.41.42-.49.49-3.66-3.66.5-.5,1.45,1.44,0,0a1.07,1.07,0,0,1,.3-1.23,1.41,1.41,0,0,1,2.12.13l.48.48a1.4,1.4,0,0,1,.13,2.11A1.11,1.11,0,0,1,637.22,327Zm.57-2-.39-.39a.95.95,0,1,0-1.33,1.33l.4.39a.94.94,0,1,0,1.32-1.33Z" style="fill:#fff"/></g><rect x="54.34" y="50.05" width="1" height="260" style="fill:#fff"/><rect x="48.34" y="309.55" width="6" height="1" style="fill:#fff"/><g style="isolation:isolate"><path d="M40.33,309.72c0-2.35.91-3.67,2.55-3.67s2.53,1.32,2.53,3.67-.91,3.68-2.53,3.68S40.33,312.08,40.33,309.72Zm1.17.42,2.6-1.9c-.21-.79-.63-1.2-1.22-1.2-.91,0-1.39.93-1.39,2.68C41.49,309.87,41.49,310,41.5,310.14Zm2.76-.42c0-.14,0-.28,0-.41l-2.6,1.91c.21.78.62,1.19,1.23,1.19C43.77,312.41,44.26,311.48,44.26,309.72Z" style="fill:#fff"/></g><rect x="48.34" y="287.88" width="6" height="1" style="fill:#fff"/><g style="isolation:isolate"><path d="M34.81,289.63H36a1.27,1.27,0,0,0,1.35,1.07,1.42,1.42,0,0,0,0-2.83,1.37,1.37,0,0,0-1.26.7H34.91l.34-4h4.12v1H36.19l-.17,2h.08a1.77,1.77,0,0,1,1.48-.66,2.17,2.17,0,0,1,2.21,2.33,2.36,2.36,0,0,1-2.53,2.46A2.23,2.23,0,0,1,34.81,289.63Z" style="fill:#fff"/><path d="M41,288.06c0-2.36.91-3.68,2.55-3.68S46,285.7,46,288.06s-.91,3.67-2.53,3.67S41,290.41,41,288.06Zm1.17.42,2.6-1.91c-.21-.79-.63-1.2-1.22-1.2-.91,0-1.39.94-1.39,2.69C42.11,288.2,42.11,288.34,42.12,288.48Zm2.76-.42c0-.15,0-.29,0-.42l-2.6,1.91c.21.79.63,1.2,1.23,1.2C44.39,290.75,44.88,289.81,44.88,288.06Z" style="fill:#fff"/></g><rect x="48.34" y="266.21" width="6" height="1" style="fill:#fff"/><g style="isolation:isolate"><path d="M29.45,269.91v-1h2v-4.84h-.08l-1.9,1.24v-1.14l2-1.31h1.15v6.05h1.87v1Z" style="fill:#fff"/><path d="M35.39,266.39c0-2.35.91-3.67,2.54-3.67s2.54,1.32,2.54,3.67-.91,3.68-2.54,3.68S35.39,268.75,35.39,266.39Zm1.17.42,2.59-1.91c-.21-.79-.62-1.2-1.22-1.2-.9,0-1.38.94-1.38,2.69C36.55,266.54,36.55,266.68,36.56,266.81Zm2.76-.42c0-.14,0-.28,0-.42l-2.6,1.91c.21.79.62,1.2,1.22,1.2C38.83,269.08,39.32,268.14,39.32,266.39Z" style="fill:#fff"/><path d="M41.57,266.39c0-2.35.91-3.67,2.55-3.67s2.53,1.32,2.53,3.67-.91,3.68-2.53,3.68S41.57,268.75,41.57,266.39Zm1.17.42,2.6-1.91c-.21-.79-.63-1.2-1.22-1.2-.91,0-1.39.94-1.39,2.69C42.73,266.54,42.73,266.68,42.74,266.81Zm2.76-.42c0-.14,0-.28,0-.42l-2.59,1.91c.2.79.62,1.2,1.22,1.2C45,269.08,45.5,268.14,45.5,266.39Z" style="fill:#fff"/></g><rect x="48.34" y="244.55" width="6" height="1" style="fill:#fff"/><g style="isolation:isolate"><path d="M29.45,248.25v-1h2v-4.85h-.08l-1.9,1.25v-1.15l2-1.31h1.15v6.06h1.87v1Z" style="fill:#fff"/><path d="M35.43,246.3h1.14a1.28,1.28,0,0,0,1.35,1.07,1.42,1.42,0,0,0,0-2.83,1.37,1.37,0,0,0-1.26.7H35.53l.34-4H40v1H36.81l-.17,2h.08a1.77,1.77,0,0,1,1.48-.67,2.17,2.17,0,0,1,2.21,2.34,2.37,2.37,0,0,1-2.53,2.46A2.23,2.23,0,0,1,35.43,246.3Z" style="fill:#fff"/><path d="M41.57,244.72c0-2.35.91-3.67,2.55-3.67s2.53,1.32,2.53,3.67-.91,3.68-2.53,3.68S41.57,247.08,41.57,244.72Zm1.17.42,2.6-1.9c-.21-.79-.63-1.2-1.22-1.2-.91,0-1.39.93-1.39,2.68C42.73,244.87,42.73,245,42.74,245.14Zm2.76-.42c0-.14,0-.28,0-.41l-2.59,1.91c.2.78.62,1.19,1.22,1.19C45,247.41,45.5,246.48,45.5,244.72Z" style="fill:#fff"/></g><rect x="48.34" y="222.88" width="6" height="1" style="fill:#fff"/><g style="isolation:isolate"><path d="M31.71,219.39a2.09,2.09,0,0,1,2.34,2c0,.75-.38,1.38-1.54,2.56L31,225.49v.09h3.14v1H29.39v-.81l2.33-2.43c.94-1,1.18-1.35,1.18-1.86a1.1,1.1,0,0,0-1.22-1.11,1.16,1.16,0,0,0-1.24,1.23v0H29.33v0A2.2,2.2,0,0,1,31.71,219.39Z" style="fill:#fff"/><path d="M35.39,223.06c0-2.36.91-3.68,2.54-3.68s2.54,1.32,2.54,3.68-.91,3.67-2.54,3.67S35.39,225.41,35.39,223.06Zm1.17.42,2.59-1.91c-.21-.79-.62-1.2-1.22-1.2-.9,0-1.38.94-1.38,2.69C36.55,223.2,36.55,223.34,36.56,223.48Zm2.76-.42c0-.15,0-.29,0-.42l-2.6,1.91c.21.79.62,1.2,1.22,1.2C38.83,225.75,39.32,224.81,39.32,223.06Z" style="fill:#fff"/><path d="M41.57,223.06c0-2.36.91-3.68,2.55-3.68s2.53,1.32,2.53,3.68-.91,3.67-2.53,3.67S41.57,225.41,41.57,223.06Zm1.17.42,2.6-1.91c-.21-.79-.63-1.2-1.22-1.2-.91,0-1.39.94-1.39,2.69C42.73,223.2,42.73,223.34,42.74,223.48Zm2.76-.42c0-.15,0-.29,0-.42l-2.59,1.91c.2.79.62,1.2,1.22,1.2C45,225.75,45.5,224.81,45.5,223.06Z" style="fill:#fff"/></g><rect x="48.34" y="201.21" width="6" height="1" style="fill:#fff"/><g style="isolation:isolate"><path d="M31.71,197.73a2.08,2.08,0,0,1,2.34,2c0,.76-.38,1.39-1.54,2.56L31,203.82v.09h3.14v1H29.39v-.81l2.33-2.43c.94-1,1.18-1.35,1.18-1.86a1.1,1.1,0,0,0-1.22-1.11,1.16,1.16,0,0,0-1.24,1.23v0H29.33v0A2.19,2.19,0,0,1,31.71,197.73Z" style="fill:#fff"/><path d="M35.43,203h1.14A1.28,1.28,0,0,0,37.92,204a1.42,1.42,0,0,0,0-2.84,1.37,1.37,0,0,0-1.26.7H35.53l.34-4H40v1H36.81l-.17,2.06h.08a1.77,1.77,0,0,1,1.48-.67,2.17,2.17,0,0,1,2.21,2.34,2.37,2.37,0,0,1-2.53,2.46A2.23,2.23,0,0,1,35.43,203Z" style="fill:#fff"/><path d="M41.57,201.39c0-2.35.91-3.67,2.55-3.67s2.53,1.32,2.53,3.67-.91,3.68-2.53,3.68S41.57,203.75,41.57,201.39Zm1.17.42,2.6-1.91c-.21-.79-.63-1.2-1.22-1.2-.91,0-1.39.94-1.39,2.69C42.73,201.54,42.73,201.68,42.74,201.81Zm2.76-.42c0-.14,0-.28,0-.42l-2.59,1.91c.2.79.62,1.2,1.22,1.2C45,204.08,45.5,203.14,45.5,201.39Z" style="fill:#fff"/></g><rect x="48.34" y="179.55" width="6" height="1" style="fill:#fff"/><g style="isolation:isolate"><path d="M30.89,179.18h.8a1.11,1.11,0,0,0,1.23-1.1c0-.64-.48-1.05-1.22-1.05a1.16,1.16,0,0,0-1.27,1.1H29.35a2.15,2.15,0,0,1,2.39-2.07c1.36,0,2.31.76,2.31,1.85a1.55,1.55,0,0,1-1.23,1.62v.08a1.61,1.61,0,0,1,1.51,1.7c0,1.22-1,2.08-2.56,2.08a2.28,2.28,0,0,1-2.55-2.1h1.1a1.27,1.27,0,0,0,1.42,1.09c.86,0,1.41-.44,1.41-1.13s-.56-1.17-1.44-1.17h-.82Z" style="fill:#fff"/><path d="M35.39,179.72c0-2.35.91-3.67,2.54-3.67s2.54,1.32,2.54,3.67-.91,3.68-2.54,3.68S35.39,182.08,35.39,179.72Zm1.17.42,2.59-1.9c-.21-.79-.62-1.2-1.22-1.2-.9,0-1.38.93-1.38,2.68C36.55,179.87,36.55,180,36.56,180.14Zm2.76-.42c0-.14,0-.28,0-.41l-2.6,1.91c.21.78.62,1.19,1.22,1.19C38.83,182.41,39.32,181.48,39.32,179.72Z" style="fill:#fff"/><path d="M41.57,179.72c0-2.35.91-3.67,2.55-3.67s2.53,1.32,2.53,3.67-.91,3.68-2.53,3.68S41.57,182.08,41.57,179.72Zm1.17.42,2.6-1.9c-.21-.79-.63-1.2-1.22-1.2-.91,0-1.39.93-1.39,2.68C42.73,179.87,42.73,180,42.74,180.14Zm2.76-.42c0-.14,0-.28,0-.41l-2.59,1.91c.2.78.62,1.19,1.22,1.19C45,182.41,45.5,181.48,45.5,179.72Z" style="fill:#fff"/></g><rect x="48.34" y="157.88" width="6" height="1" style="fill:#fff"/><g style="isolation:isolate"><path d="M30.89,157.51h.8a1.1,1.1,0,0,0,1.23-1.09,1.07,1.07,0,0,0-1.22-1.06,1.16,1.16,0,0,0-1.27,1.1H29.35a2.15,2.15,0,0,1,2.39-2.07c1.36,0,2.31.76,2.31,1.85a1.55,1.55,0,0,1-1.23,1.62v.08a1.62,1.62,0,0,1,1.51,1.7c0,1.23-1,2.08-2.56,2.08a2.27,2.27,0,0,1-2.55-2.1h1.1a1.26,1.26,0,0,0,1.42,1.09c.86,0,1.41-.44,1.41-1.13s-.56-1.16-1.44-1.16h-.82Z" style="fill:#fff"/><path d="M35.43,159.63h1.14a1.27,1.27,0,0,0,1.35,1.07,1.42,1.42,0,0,0,0-2.83,1.37,1.37,0,0,0-1.26.7H35.53l.34-4H40v1H36.81l-.17,2.05h.08a1.77,1.77,0,0,1,1.48-.66,2.17,2.17,0,0,1,2.21,2.33,2.36,2.36,0,0,1-2.53,2.46A2.23,2.23,0,0,1,35.43,159.63Z" style="fill:#fff"/><path d="M41.57,158.06c0-2.36.91-3.68,2.55-3.68s2.53,1.32,2.53,3.68-.91,3.67-2.53,3.67S41.57,160.41,41.57,158.06Zm1.17.42,2.6-1.91c-.21-.79-.63-1.2-1.22-1.2-.91,0-1.39.94-1.39,2.69C42.73,158.2,42.73,158.34,42.74,158.48Zm2.76-.42c0-.15,0-.29,0-.42l-2.59,1.91c.2.79.62,1.2,1.22,1.2C45,160.75,45.5,159.81,45.5,158.06Z" style="fill:#fff"/></g><rect x="48.34" y="136.22" width="6" height="1" style="fill:#fff"/><g style="isolation:isolate"><path d="M32.41,138.52H29.24v-.94l2.24-4.71h1.2l-2.19,4.59v.08h1.95v-1.87H33.5v1.88h1v1h-1v1.4h-1.1Z" style="fill:#fff"/><path d="M35.39,136.39c0-2.35.91-3.67,2.54-3.67s2.54,1.32,2.54,3.67-.91,3.68-2.54,3.68S35.39,138.75,35.39,136.39Zm1.17.42,2.59-1.9c-.21-.8-.62-1.21-1.22-1.21-.9,0-1.38.94-1.38,2.69C36.55,136.54,36.55,136.68,36.56,136.81Zm2.76-.42c0-.14,0-.28,0-.42l-2.6,1.91c.21.79.62,1.2,1.22,1.2C38.83,139.08,39.32,138.14,39.32,136.39Z" style="fill:#fff"/><path d="M41.57,136.39c0-2.35.91-3.67,2.55-3.67s2.53,1.32,2.53,3.67-.91,3.68-2.53,3.68S41.57,138.75,41.57,136.39Zm1.17.42,2.6-1.9c-.21-.8-.63-1.21-1.22-1.21-.91,0-1.39.94-1.39,2.69C42.73,136.54,42.73,136.68,42.74,136.81Zm2.76-.42c0-.14,0-.28,0-.42l-2.59,1.91c.2.79.62,1.2,1.22,1.2C45,139.08,45.5,138.14,45.5,136.39Z" style="fill:#fff"/></g><rect x="48.34" y="114.55" width="6" height="1" style="fill:#fff"/><g style="isolation:isolate"><path d="M32.41,116.85H29.24v-.94l2.24-4.71h1.2l-2.19,4.6v.08h1.95V114H33.5v1.89h1v1h-1v1.4h-1.1Z" style="fill:#fff"/><path d="M35.43,116.3h1.14a1.27,1.27,0,0,0,1.35,1.07,1.42,1.42,0,0,0,0-2.83,1.37,1.37,0,0,0-1.26.7H35.53l.34-4H40v1H36.81l-.17,2.05h.08a1.77,1.77,0,0,1,1.48-.66,2.16,2.16,0,0,1,2.21,2.33,2.37,2.37,0,0,1-2.53,2.46A2.23,2.23,0,0,1,35.43,116.3Z" style="fill:#fff"/><path d="M41.57,114.72c0-2.35.91-3.67,2.55-3.67s2.53,1.32,2.53,3.67-.91,3.68-2.53,3.68S41.57,117.08,41.57,114.72Zm1.17.42,2.6-1.9c-.21-.79-.63-1.2-1.22-1.2-.91,0-1.39.94-1.39,2.68C42.73,114.87,42.73,115,42.74,115.14Zm2.76-.42c0-.14,0-.28,0-.41l-2.59,1.91c.2.78.62,1.19,1.22,1.19C45,117.41,45.5,116.48,45.5,114.72Z" style="fill:#fff"/></g><rect x="48.34" y="92.88" width="6" height="1" style="fill:#fff"/><g style="isolation:isolate"><path d="M29.25,94.63h1.14a1.27,1.27,0,0,0,1.35,1.07,1.42,1.42,0,0,0,0-2.83,1.37,1.37,0,0,0-1.26.7H29.35l.34-4h4.12v1H30.62l-.17,2h.09A1.75,1.75,0,0,1,32,91.93a2.18,2.18,0,0,1,2.21,2.33,2.36,2.36,0,0,1-2.53,2.46A2.23,2.23,0,0,1,29.25,94.63Z" style="fill:#fff"/><path d="M35.39,93.06c0-2.36.91-3.68,2.54-3.68s2.54,1.32,2.54,3.68-.91,3.67-2.54,3.67S35.39,95.41,35.39,93.06Zm1.17.42,2.59-1.91c-.21-.79-.62-1.2-1.22-1.2-.9,0-1.38.94-1.38,2.69C36.55,93.2,36.55,93.34,36.56,93.48Zm2.76-.42c0-.15,0-.29,0-.42l-2.6,1.91c.21.79.62,1.2,1.22,1.2C38.83,95.75,39.32,94.81,39.32,93.06Z" style="fill:#fff"/><path d="M41.57,93.06c0-2.36.91-3.68,2.55-3.68s2.53,1.32,2.53,3.68-.91,3.67-2.53,3.67S41.57,95.41,41.57,93.06Zm1.17.42,2.6-1.91c-.21-.79-.63-1.2-1.22-1.2-.91,0-1.39.94-1.39,2.69C42.73,93.2,42.73,93.34,42.74,93.48Zm2.76-.42c0-.15,0-.29,0-.42L42.9,94.55c.2.79.62,1.2,1.22,1.2C45,95.75,45.5,94.81,45.5,93.06Z" style="fill:#fff"/></g><rect x="48.34" y="71.22" width="6" height="1" style="fill:#fff"/><g style="isolation:isolate"><path d="M29.25,73h1.14A1.28,1.28,0,0,0,31.74,74a1.42,1.42,0,0,0,0-2.84,1.37,1.37,0,0,0-1.26.7H29.35l.34-4h4.12v1H30.62l-.17,2.05h.09A1.76,1.76,0,0,1,32,70.26a2.18,2.18,0,0,1,2.21,2.34,2.37,2.37,0,0,1-2.53,2.46A2.23,2.23,0,0,1,29.25,73Z" style="fill:#fff"/><path d="M35.43,73h1.14A1.28,1.28,0,0,0,37.92,74a1.42,1.42,0,0,0,0-2.84,1.37,1.37,0,0,0-1.26.7H35.53l.34-4H40v1H36.81l-.17,2.05h.08a1.77,1.77,0,0,1,1.48-.67,2.17,2.17,0,0,1,2.21,2.34,2.37,2.37,0,0,1-2.53,2.46A2.23,2.23,0,0,1,35.43,73Z" style="fill:#fff"/><path d="M41.57,71.39c0-2.35.91-3.67,2.55-3.67s2.53,1.32,2.53,3.67-.91,3.68-2.53,3.68S41.57,73.75,41.57,71.39Zm1.17.42,2.6-1.9c-.21-.8-.63-1.21-1.22-1.21-.91,0-1.39.94-1.39,2.69C42.73,71.54,42.73,71.68,42.74,71.81Zm2.76-.42c0-.14,0-.28,0-.42L42.9,72.88c.2.79.62,1.2,1.22,1.2C45,74.08,45.5,73.14,45.5,71.39Z" style="fill:#fff"/></g><rect x="48.34" y="49.55" width="6" height="1" style="fill:#fff"/><g style="isolation:isolate"><path d="M31.8,53.39a2.43,2.43,0,0,1-2.57-2.51,4.43,4.43,0,0,1,1-2.61c.16-.24,1.39-1.9,1.52-2.07h1.34l-1.83,2.47a2.51,2.51,0,0,0-.29.44l.09,0a1.61,1.61,0,0,1,1.15-.45,2.15,2.15,0,0,1,2.16,2.25A2.43,2.43,0,0,1,31.8,53.39ZM33.19,51a1.41,1.41,0,1,0-2.81,0,1.41,1.41,0,1,0,2.81,0Z" style="fill:#fff"/><path d="M35.39,49.72c0-2.35.91-3.67,2.54-3.67s2.54,1.32,2.54,3.67-.91,3.68-2.54,3.68S35.39,52.08,35.39,49.72Zm1.17.42,2.59-1.9c-.21-.79-.62-1.2-1.22-1.2-.9,0-1.38.94-1.38,2.68C36.55,49.87,36.55,50,36.56,50.14Zm2.76-.42c0-.14,0-.28,0-.41l-2.6,1.91c.21.78.62,1.19,1.22,1.19C38.83,52.41,39.32,51.48,39.32,49.72Z" style="fill:#fff"/><path d="M41.57,49.72c0-2.35.91-3.67,2.55-3.67s2.53,1.32,2.53,3.67-.91,3.68-2.53,3.68S41.57,52.08,41.57,49.72Zm1.17.42,2.6-1.9c-.21-.79-.63-1.2-1.22-1.2-.91,0-1.39.94-1.39,2.68C42.73,49.87,42.73,50,42.74,50.14Zm2.76-.42c0-.14,0-.28,0-.41L42.9,51.22c.2.78.62,1.19,1.22,1.19C45,52.41,45.5,51.48,45.5,49.72Z" style="fill:#fff"/></g><g style="isolation:isolate"><path d="M25.81,23.84v-.56H27.1v-7H25.81v-.56h7.45l.37,2.9h-.56a8.06,8.06,0,0,0-.14-.82,2.71,2.71,0,0,0-.24-.63,1.45,1.45,0,0,0-.42-.49,2,2,0,0,0-.67-.29,3.87,3.87,0,0,0-1-.11H28.81v3.09h.66a1.27,1.27,0,0,0,1-.32,1.88,1.88,0,0,0,.23-1.08h.57V21.3h-.57a1.88,1.88,0,0,0-.23-1.08c-.16-.22-.5-.33-1-.33h-.66v3.39h1.82a5.47,5.47,0,0,0,1-.08,2,2,0,0,0,.7-.26,2.84,2.84,0,0,0,.49-.4,1.71,1.71,0,0,0,.33-.55,4.78,4.78,0,0,0,.19-.66l.15-.77H34l-.56,3.28Z" style="fill:#fff"/><path d="M35,23.84v-.56h.77V19.57c0-.22,0-.35-.12-.4A1.9,1.9,0,0,0,35,19.1v-.56l2.06-.1v1.3a2.21,2.21,0,0,1,2.08-1.3,2,2,0,0,1,1.36.41A1.65,1.65,0,0,1,41,20.17v3.11h.82v.56l-1.51,0-1.51,0v-.56h.83V20a1.8,1.8,0,0,0-.17-.91.57.57,0,0,0-.5-.26,1.81,1.81,0,0,0-1.22.5,1.75,1.75,0,0,0-.56,1.4v2.51H38v.56l-1.48,0Z" style="fill:#fff"/><path d="M42.51,21.18a2.76,2.76,0,0,1,.76-2,3,3,0,0,1,2.27-.8c1.42,0,2.13.37,2.13,1.1a.68.68,0,0,1-.24.56.79.79,0,0,1-.53.2.83.83,0,0,1-.53-.2.68.68,0,0,1-.24-.56.7.7,0,0,1,.25-.55,3.5,3.5,0,0,0-.79-.07,1.44,1.44,0,0,0-.75.18,1.32,1.32,0,0,0-.46.4,1.62,1.62,0,0,0-.23.59,2.51,2.51,0,0,0-.09.56c0,.13,0,.3,0,.5,0,1.54.56,2.31,1.67,2.31a1.52,1.52,0,0,0,1.54-1,.32.32,0,0,1,.09-.15.38.38,0,0,1,.2,0c.19,0,.28.06.28.17a.65.65,0,0,1,0,.18,2.16,2.16,0,0,1-.21.37,1.85,1.85,0,0,1-.41.43,2.26,2.26,0,0,1-.68.34,3.12,3.12,0,0,1-1,.15,3,3,0,0,1-2.18-.76A2.61,2.61,0,0,1,42.51,21.18Z" style="fill:#fff"/><path d="M48.57,21.23a2.73,2.73,0,0,1,.81-2,3.58,3.58,0,0,1,4.49,0,2.74,2.74,0,0,1,.82,2,2.5,2.5,0,0,1-.81,1.92,3.11,3.11,0,0,1-2.25.76,3.15,3.15,0,0,1-2.26-.76A2.53,2.53,0,0,1,48.57,21.23Zm1.53-.13c0,.23,0,.42,0,.54a4.21,4.21,0,0,0,0,.52,1.44,1.44,0,0,0,.13.51,2.58,2.58,0,0,0,.26.38.89.89,0,0,0,.43.3,2.64,2.64,0,0,0,1.29,0,.94.94,0,0,0,.43-.3,2.58,2.58,0,0,0,.26-.38,1.7,1.7,0,0,0,.13-.51,4.21,4.21,0,0,0,0-.52c0-.12,0-.31,0-.54a3.53,3.53,0,0,0-.25-1.65,1.38,1.38,0,0,0-1.27-.61,1.36,1.36,0,0,0-1.33.7A4.1,4.1,0,0,0,50.1,21.1Z" style="fill:#fff"/><path d="M55.92,21.19a2.55,2.55,0,0,1,.84-2,3.15,3.15,0,0,1,2.17-.75,2.5,2.5,0,0,1,1.62.55V16.64c0-.22,0-.35-.13-.4a2.11,2.11,0,0,0-.7-.07v-.56l2.13-.09v7.29c0,.22,0,.36.13.4a1.85,1.85,0,0,0,.7.07v.56l-2.2.07v-.58a2.62,2.62,0,0,1-1.68.58,2.87,2.87,0,0,1-2.1-.76A2.62,2.62,0,0,1,55.92,21.19Zm1.54,0v.47c0,.12,0,.28,0,.49a1.71,1.71,0,0,0,.14.51,2.05,2.05,0,0,0,.25.41.89.89,0,0,0,.42.31,1.63,1.63,0,0,0,.61.1,1.87,1.87,0,0,0,1.56-.87v-3a1.71,1.71,0,0,0-1.43-.74,1.45,1.45,0,0,0-1.28.63A3.22,3.22,0,0,0,57.46,21.19Z" style="fill:#fff"/><path d="M63.5,21.14a2.64,2.64,0,0,1,.79-1.95,2.94,2.94,0,0,1,2.17-.78,2.6,2.6,0,0,1,1.91.65,2.48,2.48,0,0,1,.68,1.84c0,.15,0,.25-.08.28a.73.73,0,0,1-.31.05H65c0,1.47.56,2.2,1.69,2.2h0a2,2,0,0,0,1-.26,1.51,1.51,0,0,0,.64-.69.63.63,0,0,1,.11-.21.39.39,0,0,1,.22,0c.2,0,.31.07.31.21a.79.79,0,0,1-.07.23,2.76,2.76,0,0,1-.24.38,2.41,2.41,0,0,1-.43.41,2.29,2.29,0,0,1-.7.32,3.32,3.32,0,0,1-1,.13,3.25,3.25,0,0,1-2.28-.77A2.61,2.61,0,0,1,63.5,21.14ZM65,20.83H67.9c0-1.33-.52-2-1.44-2a1.28,1.28,0,0,0-1.13.62A3,3,0,0,0,65,20.83Z" style="fill:#fff"/><path d="M74.29,19.08v-.43a1.58,1.58,0,0,0,1.31-.74,3.12,3.12,0,0,0,.48-1.68h.56v2.29h1.75v.56H76.64v3.31c0,.7.23,1,.69,1a.64.64,0,0,0,.51-.27,1.33,1.33,0,0,0,.21-.83v-.61h.56v.64a1.61,1.61,0,0,1-.38,1.11,1.32,1.32,0,0,1-1.06.44c-1.27,0-1.9-.51-1.9-1.54V19.08Z" style="fill:#fff"/><path d="M80,23.84v-.56h.83V19.57c0-.22,0-.35-.12-.4A2,2,0,0,0,80,19.1v-.56l2.09-.1v4.84h.75v.56l-1.41,0Zm.67-6.74a1,1,0,0,1,0-1.32.85.85,0,0,1,.64-.27.9.9,0,0,1,.66.27.92.92,0,0,1,0,1.32.93.93,0,0,1-.66.27A.85.85,0,0,1,80.63,17.1Z" style="fill:#fff"/><path d="M83.82,23.84v-.56h.77V19.57c0-.22,0-.35-.12-.4a1.9,1.9,0,0,0-.65-.07v-.56l2.06-.1v1.3A2.21,2.21,0,0,1,88,18.44c1,0,1.61.39,1.77,1.16a2.16,2.16,0,0,1,2-1.16,2,2,0,0,1,1.4.41,1.7,1.7,0,0,1,.45,1.32v3.11h.83v.56l-1.51,0-1.51,0v-.56h.82V20a1.77,1.77,0,0,0-.16-.91.57.57,0,0,0-.51-.26,1.8,1.8,0,0,0-1.21.5,1.76,1.76,0,0,0-.57,1.4v2.51h.82v.56l-1.5,0-1.52,0v-.56h.83V20a1.75,1.75,0,0,0-.17-.91.58.58,0,0,0-.51-.26,1.84,1.84,0,0,0-1.22.5,1.79,1.79,0,0,0-.56,1.4v2.51h.82v.56l-1.51,0Z" style="fill:#fff"/><path d="M95.1,21.14a2.63,2.63,0,0,1,.78-1.95,3,3,0,0,1,2.18-.78,2.62,2.62,0,0,1,1.91.65,2.48,2.48,0,0,1,.67,1.84c0,.15,0,.25-.08.28a.66.66,0,0,1-.31.05H96.63c0,1.47.56,2.2,1.69,2.2h0a2,2,0,0,0,1-.26,1.46,1.46,0,0,0,.64-.69.48.48,0,0,1,.12-.21.35.35,0,0,1,.21,0c.21,0,.31.07.31.21a.56.56,0,0,1-.07.23,1.62,1.62,0,0,1-.24.38,2.11,2.11,0,0,1-.43.41,2.18,2.18,0,0,1-.7.32,3.25,3.25,0,0,1-1,.13A3.21,3.21,0,0,1,96,23.14,2.57,2.57,0,0,1,95.1,21.14Zm1.53-.31H99.5c0-1.33-.52-2-1.44-2a1.29,1.29,0,0,0-1.14.62A3,3,0,0,0,96.63,20.83Z" style="fill:#fff"/><path d="M106.92,20.83a7.25,7.25,0,0,1,2.15-5.34c.46-.43.77-.65.92-.65s.22.06.22.17-.06.13-.18.26a7.85,7.85,0,0,0-1.81,5.57,10.3,10.3,0,0,0,.43,3.11,5.92,5.92,0,0,0,1.53,2.59v0a.31.31,0,0,1,0,.08c0,.12-.07.17-.22.17a1,1,0,0,1-.46-.24,6.88,6.88,0,0,1-.81-.78,6.48,6.48,0,0,1-.84-1.16A7.61,7.61,0,0,1,106.92,20.83Z" style="fill:#fff"/><path d="M111.59,23.84v-.56h.76V19.57c0-.22,0-.35-.11-.4a1.9,1.9,0,0,0-.65-.07v-.56l2.06-.1v1.3a2.2,2.2,0,0,1,2.08-1.3c1,0,1.61.39,1.78,1.16a2.16,2.16,0,0,1,2-1.16,2.05,2.05,0,0,1,1.4.41,1.7,1.7,0,0,1,.45,1.32v3.11h.83v.56l-1.51,0-1.51,0v-.56H120V20a1.65,1.65,0,0,0-.17-.91.56.56,0,0,0-.5-.26,1.84,1.84,0,0,0-1.22.5,1.79,1.79,0,0,0-.56,1.4v2.51h.82v.56l-1.5,0-1.52,0v-.56h.83V20a1.75,1.75,0,0,0-.17-.91.59.59,0,0,0-.51-.26,1.84,1.84,0,0,0-1.22.5,1.76,1.76,0,0,0-.57,1.4v2.51h.83v.56l-1.51,0Z" style="fill:#fff"/><path d="M122.94,23.58V22.27a.6.6,0,0,1,0-.29s.11-.06.24-.06a.43.43,0,0,1,.2,0,.19.19,0,0,1,.09.14,2.75,2.75,0,0,0,.16.44A2.1,2.1,0,0,0,124,23a1.16,1.16,0,0,0,.51.38,2.06,2.06,0,0,0,.78.13c.91,0,1.36-.3,1.37-.9a.69.69,0,0,0-.14-.43.89.89,0,0,0-.39-.28,2,2,0,0,0-.41-.14l-.4-.08-.81-.16a2.83,2.83,0,0,1-.52-.17,2.1,2.1,0,0,1-.52-.33,1.25,1.25,0,0,1-.48-1,1.53,1.53,0,0,1,.13-.66,1,1,0,0,1,.36-.46,2.2,2.2,0,0,1,.47-.26,1.59,1.59,0,0,1,.52-.14l.43,0h.29a2.65,2.65,0,0,1,1.22.23,2.17,2.17,0,0,1,.54-.23.22.22,0,0,1,.18.06.85.85,0,0,1,0,.28v.95a.6.6,0,0,1,0,.29.4.4,0,0,1-.25.05c-.12,0-.2,0-.22-.05a.32.32,0,0,1-.06-.19c-.06-.66-.53-1-1.41-1s-1.34.27-1.35.81a.74.74,0,0,0,.1.38c.06.11,0,.14-.09.1L123.6,20l1.41.29,1,.23a2.17,2.17,0,0,1,.83.35,1.57,1.57,0,0,1,.66,1.26,2.08,2.08,0,0,1-.13.74,1.13,1.13,0,0,1-.37.5,2.67,2.67,0,0,1-.46.29,1.65,1.65,0,0,1-.53.16l-.43,0h-.3a2.48,2.48,0,0,1-1.42-.38l-.31.21a.81.81,0,0,1-.35.17h0c-.1,0-.16,0-.18-.07A.72.72,0,0,1,122.94,23.58Z" style="fill:#fff"/><path d="M128.68,26.66s.06-.12.19-.25a7.58,7.58,0,0,0,1.93-5.58,7.57,7.57,0,0,0-1.92-5.54c-.13-.13-.2-.22-.2-.28s.07-.17.21-.17a1.11,1.11,0,0,1,.47.25,6,6,0,0,1,.81.77A5.75,5.75,0,0,1,131,17a7.59,7.59,0,0,1,1,3.81,7.21,7.21,0,0,1-2.14,5.34c-.46.43-.77.65-.93.65S128.68,26.78,128.68,26.66Z" style="fill:#fff"/></g></svg>