<svg xmlns="http://www.w3.org/2000/svg" viewBox="0 0 1080 1080"><path d="M584.52,98.34H275.35A88.34,88.34,0,0,0,187,186.68V893.36a88.34,88.34,0,0,0,88.34,88.34h530a88.34,88.34,0,0,0,88.34-88.34V407.52Zm0,0V407.52H893.7Z" style="fill:#fff"/><path d="M805.36,1014.82h-530A121.46,121.46,0,0,1,153.88,893.36V186.68A121.46,121.46,0,0,1,275.35,65.21H584.52a31.37,31.37,0,0,1,23.85,9.28h0L917.55,383.66h0a31.48,31.48,0,0,1,8.39,15.46h0a23.05,23.05,0,0,1,0,5.75V893.36A121.46,121.46,0,0,1,805.36,1014.82Zm-530-883.35a55.2,55.2,0,0,0-55.21,55.21V893.36a55.21,55.21,0,0,0,55.21,55.21h530a55.21,55.21,0,0,0,55.21-55.21V440.64H584.52a33.56,33.56,0,0,1-33.12-33.12v-276Zm342.3,242.92h196.1L617.65,178.28Z"/><path d="M271.66,878A17.6,17.6,0,0,1,289,860.19c9.51,0,17.29,8,17.29,17.76a17.3,17.3,0,1,1-34.59,0Z"/><path d="M352.56,881.33l45.12-55.18v-1.34H353.26V807.44h70.2V821.9l-42.6,53.54v1.33h43.55v17.38H352.56Z"/><path d="M451.37,894.15V877H479.2V824.65H452.79V807.44h47.32V877h26.18v17.14Zm23.19-118c0-8.18,5.9-13.6,14.7-13.6S504,768,504,776.15s-6,13.6-14.78,13.6S474.56,784.32,474.56,776.15Z"/><path d="M628.8,843.36V858.3c0,23.66-11.71,37.34-31.6,37.34-12.5,0-21.15-5.82-24.06-16.19h-1.57V923h-22.4V807.44h22.09v14.93h1.65c3.06-10.45,11.63-16.27,24.29-16.27C617.09,806.1,628.8,819.78,628.8,843.36ZM571,844v14.39c0,12,6.76,19.18,17.93,19.18s17.92-7.31,17.92-19.18V844c0-11.87-6.84-19.18-17.92-19.18S571,832,571,844Z"/><path d="M377,439.5A28.5,28.5,0,0,1,348.5,411V389a28.5,28.5,0,0,1,57,0v22A28.5,28.5,0,0,1,377,439.5Z"/><path d="M377.5,337A28.5,28.5,0,0,1,349,308.5v-22a28.5,28.5,0,0,1,57,0v22A28.5,28.5,0,0,1,377.5,337Z"/><path d="M378,234.5A28.5,28.5,0,0,1,349.5,206V184a28.5,28.5,0,0,1,57,0v22A28.5,28.5,0,0,1,378,234.5Z"/><circle cx="376.75" cy="490" r="25"/><circle cx="376.75" cy="562.5" r="36.5"/><polygon points="351.75 490 340.25 562.5 413.25 562.5 401.75 490 351.75 490"/><circle cx="376.5" cy="562.5" r="19.5" style="fill:#fff"/></svg>